<svg width="347" height="170" viewBox="0 0 347 170" fill="none" xmlns="http://www.w3.org/2000/svg">
<path d="M0 10C0 4.47715 4.47715 0 10 0H337C342.523 0 347 4.47715 347 10V170H0V10Z" fill="url(#paint0_linear_2248_189)"/>
<mask id="mask0_2248_189" style="mask-type:alpha" maskUnits="userSpaceOnUse" x="0" y="0" width="347" height="170">
<path d="M0 10C0 4.47715 4.47715 0 10 0H337C342.523 0 347 4.47715 347 10V170H0V10Z" fill="#373853"/>
</mask>
<g mask="url(#mask0_2248_189)">
<circle opacity="0.1" cx="119" cy="-10" r="38" fill="url(#paint1_linear_2248_189)"/>
<circle opacity="0.2" cx="313.5" cy="163.5" r="43.5" fill="url(#paint2_linear_2248_189)"/>
<circle opacity="0.2" cx="175.5" cy="128.5" r="17.5" fill="url(#paint3_linear_2248_189)"/>
</g>
<rect x="17" y="22" width="80" height="10" rx="5" fill="white"/>
<rect opacity="0.4" x="17" y="42" width="100" height="5" rx="2.5" fill="white"/>
<rect opacity="0.4" x="17" y="52" width="90" height="5" rx="2.5" fill="white"/>
<rect opacity="0.4" x="17" y="62" width="70" height="5" rx="2.5" fill="white"/>
<rect opacity="0.4" x="17" y="81" width="43" height="20" rx="10" fill="white"/>
<rect x="27" y="88" width="23" height="6" rx="3" fill="white"/>
<rect x="17" y="115" width="122.692" height="33" rx="16.5" fill="white"/>
<rect x="21.2308" y="119.23" width="24.5385" height="24.5385" rx="12.2692" fill="#D6395E"/>
<path d="M36.7639 129.761L35.9629 127.452C35.6908 126.668 34.9788 126.162 34.149 126.162H32.851C32.0203 126.162 31.3083 126.668 31.0371 127.452L30.2354 129.761H27.2928V130.392H27.9147L28.9314 135.541C29.0822 136.304 29.7313 136.837 30.51 136.837H36.4901C37.2693 136.837 37.9182 136.304 38.068 135.541L39.0853 130.392H39.7072V129.761H36.7639V129.761ZM31.5652 134.803H30.9339V131.794H31.5652V134.803ZM33.8041 135.064H33.1728V131.534H33.8041V135.064ZM36.0423 134.803H35.411V131.794H36.0423V134.803ZM30.9036 129.761L31.6335 127.659C31.8155 127.133 32.2933 126.793 32.851 126.793H34.149C34.706 126.793 35.184 127.133 35.3665 127.659L36.0957 129.761H30.9036Z" fill="white"/>
<path d="M51.1423 120.554H51.4958L52.3269 122.584H52.3556L53.1867 120.554H53.5402V123H53.2632V121.142H53.2393L52.475 123H52.2075L51.4433 121.142H51.4194V123H51.1423V120.554ZM54.4674 123.043C54.3512 123.043 54.2457 123.021 54.151 122.977C54.0562 122.933 53.981 122.869 53.9253 122.785C53.8695 122.701 53.8417 122.599 53.8417 122.479C53.8417 122.374 53.8624 122.289 53.9038 122.224C53.9452 122.158 54.0005 122.106 54.0698 122.069C54.139 122.031 54.2155 122.003 54.299 121.985C54.3834 121.966 54.4682 121.951 54.5534 121.94C54.6649 121.925 54.7552 121.915 54.8245 121.907C54.8945 121.899 54.9455 121.886 54.9773 121.868C55.01 121.85 55.0263 121.818 55.0263 121.772V121.763C55.0263 121.645 54.994 121.553 54.9296 121.488C54.8659 121.423 54.7691 121.39 54.6394 121.39C54.5048 121.39 54.3994 121.42 54.3229 121.479C54.2465 121.538 54.1928 121.6 54.1617 121.667L53.8942 121.572C53.942 121.46 54.0057 121.374 54.0853 121.311C54.1657 121.249 54.2533 121.205 54.348 121.18C54.4435 121.155 54.5375 121.142 54.6298 121.142C54.6887 121.142 54.7564 121.149 54.8328 121.163C54.9101 121.177 54.9845 121.205 55.0561 121.248C55.1286 121.291 55.1887 121.356 55.2365 121.443C55.2842 121.53 55.3081 121.646 55.3081 121.792V123H55.0263V122.752H55.012C54.9929 122.791 54.961 122.834 54.9164 122.879C54.8718 122.925 54.8125 122.963 54.7385 122.995C54.6645 123.027 54.5741 123.043 54.4674 123.043ZM54.5104 122.79C54.6219 122.79 54.7158 122.768 54.7922 122.724C54.8695 122.68 54.9276 122.624 54.9666 122.555C55.0064 122.485 55.0263 122.412 55.0263 122.336V122.078C55.0143 122.092 54.9881 122.106 54.9475 122.118C54.9077 122.129 54.8615 122.139 54.809 122.147C54.7572 122.155 54.7067 122.162 54.6573 122.169C54.6087 122.174 54.5693 122.179 54.5391 122.183C54.4658 122.193 54.3974 122.208 54.3337 122.23C54.2708 122.25 54.2198 122.282 54.1808 122.324C54.1426 122.366 54.1235 122.422 54.1235 122.494C54.1235 122.592 54.1597 122.666 54.2322 122.716C54.3054 122.765 54.3982 122.79 54.5104 122.79ZM55.6544 123V121.166H55.9266V121.443H55.9457C55.9792 121.352 56.0397 121.278 56.1272 121.222C56.2148 121.165 56.3135 121.137 56.4234 121.137C56.4441 121.137 56.47 121.138 56.501 121.138C56.5321 121.139 56.5555 121.14 56.5715 121.142V121.428C56.5619 121.426 56.54 121.423 56.5058 121.418C56.4724 121.412 56.4369 121.409 56.3995 121.409C56.3103 121.409 56.2307 121.428 56.1607 121.466C56.0914 121.502 56.0365 121.553 55.9959 121.618C55.9561 121.683 55.9362 121.756 55.9362 121.839V123H55.6544ZM57.0001 122.331L56.9953 121.983H57.0527L57.8551 121.166H58.2038L57.3488 122.03H57.3249L57.0001 122.331ZM56.7374 123V120.554H57.0192V123H56.7374ZM57.9029 123L57.1864 122.092L57.387 121.897L58.2611 123H57.9029ZM59.6585 123L58.9898 120.554H59.2907L59.8018 122.546H59.8257L60.3463 120.554H60.6807L61.2013 122.546H61.2252L61.7363 120.554H62.0373L61.3685 123H61.0628L60.5231 121.051H60.504L59.9642 123H59.6585ZM62.7743 123.038C62.6087 123.038 62.4634 122.999 62.3384 122.92C62.2142 122.841 62.1171 122.731 62.0471 122.589C61.9778 122.448 61.9432 122.282 61.9432 122.092C61.9432 121.901 61.9778 121.735 62.0471 121.592C62.1171 121.45 62.2142 121.339 62.3384 121.26C62.4634 121.181 62.6087 121.142 62.7743 121.142C62.9399 121.142 63.0848 121.181 63.209 121.26C63.334 121.339 63.4311 121.45 63.5003 121.592C63.5704 121.735 63.6054 121.901 63.6054 122.092C63.6054 122.282 63.5704 122.448 63.5003 122.589C63.4311 122.731 63.334 122.841 63.209 122.92C63.0848 122.999 62.9399 123.038 62.7743 123.038ZM62.7743 122.785C62.9001 122.785 63.0036 122.753 63.0848 122.688C63.166 122.624 63.2261 122.539 63.2651 122.434C63.3041 122.329 63.3236 122.215 63.3236 122.092C63.3236 121.97 63.3041 121.856 63.2651 121.75C63.2261 121.644 63.166 121.558 63.0848 121.493C63.0036 121.428 62.9001 121.395 62.7743 121.395C62.6485 121.395 62.545 121.428 62.4638 121.493C62.3826 121.558 62.3225 121.644 62.2835 121.75C62.2445 121.856 62.225 121.97 62.225 122.092C62.225 122.215 62.2445 122.329 62.2835 122.434C62.3225 122.539 62.3826 122.624 62.4638 122.688C62.545 122.753 62.6485 122.785 62.7743 122.785ZM64.6126 123.038C64.4471 123.038 64.3018 122.999 64.1768 122.92C64.0526 122.841 63.9555 122.731 63.8854 122.589C63.8161 122.448 63.7815 122.282 63.7815 122.092C63.7815 121.901 63.8161 121.735 63.8854 121.592C63.9555 121.45 64.0526 121.339 64.1768 121.26C64.3018 121.181 64.4471 121.142 64.6126 121.142C64.7782 121.142 64.9231 121.181 65.0473 121.26C65.1723 121.339 65.2694 121.45 65.3387 121.592C65.4088 121.735 65.4438 121.901 65.4438 122.092C65.4438 122.282 65.4088 122.448 65.3387 122.589C65.2694 122.731 65.1723 122.841 65.0473 122.92C64.9231 122.999 64.7782 123.038 64.6126 123.038ZM64.6126 122.785C64.7384 122.785 64.8419 122.753 64.9231 122.688C65.0043 122.624 65.0644 122.539 65.1034 122.434C65.1425 122.329 65.162 122.215 65.162 122.092C65.162 121.97 65.1425 121.856 65.1034 121.75C65.0644 121.644 65.0043 121.558 64.9231 121.493C64.8419 121.428 64.7384 121.395 64.6126 121.395C64.4869 121.395 64.3834 121.428 64.3022 121.493C64.221 121.558 64.1609 121.644 64.1218 121.75C64.0828 121.856 64.0633 121.97 64.0633 122.092C64.0633 122.215 64.0828 122.329 64.1218 122.434C64.1609 122.539 64.221 122.624 64.3022 122.688C64.3834 122.753 64.4869 122.785 64.6126 122.785ZM66.3985 123.038C66.2456 123.038 66.1107 123 65.9936 122.922C65.8766 122.844 65.7851 122.734 65.719 122.593C65.6529 122.45 65.6199 122.282 65.6199 122.088C65.6199 121.895 65.6529 121.728 65.719 121.586C65.7851 121.444 65.877 121.335 65.9948 121.258C66.1126 121.18 66.2488 121.142 66.4032 121.142C66.5226 121.142 66.617 121.162 66.6862 121.202C66.7563 121.241 66.8096 121.285 66.8463 121.335C66.8837 121.385 66.9127 121.425 66.9334 121.457H66.9573V120.554H67.2391V123H66.9669V122.718H66.9334C66.9127 122.752 66.8833 122.794 66.8451 122.845C66.8069 122.895 66.7523 122.94 66.6815 122.98C66.6106 123.019 66.5163 123.038 66.3985 123.038ZM66.4367 122.785C66.5497 122.785 66.6452 122.756 66.7233 122.697C66.8013 122.637 66.8606 122.555 66.9012 122.449C66.9418 122.344 66.9621 122.221 66.9621 122.083C66.9621 121.946 66.9422 121.826 66.9024 121.723C66.8626 121.62 66.8037 121.54 66.7257 121.482C66.6476 121.424 66.5513 121.395 66.4367 121.395C66.3172 121.395 66.2177 121.426 66.1381 121.487C66.0593 121.548 66 121.63 65.9602 121.734C65.9212 121.838 65.9017 121.954 65.9017 122.083C65.9017 122.213 65.9216 122.332 65.9614 122.439C66.002 122.545 66.0617 122.629 66.1405 122.692C66.2201 122.754 66.3188 122.785 66.4367 122.785ZM69.3784 120.554H69.6745V122.303C69.6745 122.459 69.6458 122.591 69.5885 122.7C69.5312 122.809 69.4504 122.892 69.3461 122.949C69.2418 123.005 69.1188 123.033 68.9771 123.033C68.8434 123.033 68.7244 123.009 68.6201 122.961C68.5158 122.911 68.4338 122.841 68.3741 122.75C68.3144 122.66 68.2845 122.552 68.2845 122.427H68.5759C68.5759 122.496 68.593 122.557 68.6272 122.608C68.6623 122.659 68.71 122.699 68.7705 122.728C68.831 122.756 68.8999 122.771 68.9771 122.771C69.0623 122.771 69.1347 122.753 69.1945 122.717C69.2542 122.681 69.2995 122.629 69.3306 122.559C69.3624 122.489 69.3784 122.404 69.3784 122.303V120.554ZM71.2176 122.25V121.166H71.4994V123H71.2176V122.69H71.1985C71.1555 122.783 71.0886 122.862 70.9979 122.927C70.9071 122.992 70.7925 123.024 70.654 123.024C70.5393 123.024 70.4374 122.999 70.3483 122.949C70.2591 122.898 70.189 122.821 70.1381 122.719C70.0871 122.617 70.0617 122.487 70.0617 122.331V121.166H70.3435V122.312C70.3435 122.446 70.3809 122.553 70.4557 122.632C70.5314 122.712 70.6277 122.752 70.7447 122.752C70.8148 122.752 70.886 122.734 70.9585 122.698C71.0317 122.662 71.093 122.607 71.1424 122.533C71.1925 122.459 71.2176 122.365 71.2176 122.25ZM73.1467 121.577L72.8935 121.648C72.8776 121.606 72.8541 121.565 72.8231 121.525C72.7928 121.485 72.7514 121.451 72.6989 121.425C72.6464 121.399 72.5791 121.385 72.4971 121.385C72.3848 121.385 72.2913 121.411 72.2165 121.463C72.1424 121.514 72.1054 121.579 72.1054 121.658C72.1054 121.728 72.1309 121.783 72.1818 121.824C72.2328 121.864 72.3124 121.898 72.4207 121.925L72.6929 121.992C72.8569 122.032 72.9791 122.093 73.0595 122.175C73.1399 122.256 73.1801 122.361 73.1801 122.489C73.1801 122.594 73.1499 122.688 73.0894 122.771C73.0297 122.854 72.9461 122.919 72.8386 122.967C72.7311 123.014 72.6062 123.038 72.4637 123.038C72.2766 123.038 72.1217 122.998 71.9991 122.916C71.8765 122.835 71.7989 122.717 71.7663 122.561L72.0338 122.494C72.0592 122.592 72.1074 122.666 72.1782 122.716C72.2499 122.765 72.3434 122.79 72.4589 122.79C72.5902 122.79 72.6945 122.762 72.7717 122.706C72.8498 122.65 72.8888 122.582 72.8888 122.503C72.8888 122.44 72.8665 122.386 72.8219 122.343C72.7773 122.299 72.7089 122.267 72.6165 122.245L72.3108 122.174C72.1428 122.134 72.0194 122.072 71.9406 121.989C71.8626 121.904 71.8236 121.799 71.8236 121.672C71.8236 121.569 71.8526 121.477 71.9108 121.397C71.9697 121.318 72.0497 121.255 72.1508 121.21C72.2527 121.165 72.3681 121.142 72.4971 121.142C72.6786 121.142 72.8211 121.182 72.9246 121.261C73.0289 121.341 73.1029 121.446 73.1467 121.577ZM74.2339 121.166V121.405H73.2834V121.166H74.2339ZM73.5604 120.726H73.8422V122.475C73.8422 122.554 73.8538 122.614 73.8769 122.654C73.9008 122.693 73.931 122.719 73.9676 122.733C74.0051 122.745 74.0445 122.752 74.0859 122.752C74.1169 122.752 74.1424 122.75 74.1623 122.747C74.1822 122.743 74.1981 122.74 74.21 122.737L74.2674 122.99C74.2483 122.998 74.2216 123.005 74.1874 123.012C74.1531 123.02 74.1097 123.024 74.0572 123.024C73.9776 123.024 73.8996 123.007 73.8231 122.973C73.7475 122.938 73.6846 122.886 73.6345 122.816C73.5851 122.746 73.5604 122.658 73.5604 122.551V120.726ZM75.2674 123.688V121.166H75.5396V121.457H75.5731C75.5938 121.425 75.6224 121.385 75.659 121.335C75.6965 121.285 75.7498 121.241 75.8191 121.202C75.8891 121.162 75.9839 121.142 76.1033 121.142C76.2577 121.142 76.3938 121.18 76.5117 121.258C76.6295 121.335 76.7214 121.444 76.7875 121.586C76.8536 121.728 76.8866 121.895 76.8866 122.088C76.8866 122.282 76.8536 122.45 76.7875 122.593C76.7214 122.734 76.6299 122.844 76.5129 122.922C76.3958 123 76.2609 123.038 76.108 123.038C75.9902 123.038 75.8959 123.019 75.825 122.98C75.7542 122.94 75.6996 122.895 75.6614 122.845C75.6232 122.794 75.5938 122.752 75.5731 122.718H75.5492V123.688H75.2674ZM75.5444 122.083C75.5444 122.221 75.5647 122.344 75.6053 122.449C75.6459 122.555 75.7052 122.637 75.7832 122.697C75.8613 122.756 75.9568 122.785 76.0698 122.785C76.1877 122.785 76.286 122.754 76.3648 122.692C76.4444 122.629 76.5041 122.545 76.5439 122.439C76.5845 122.332 76.6048 122.213 76.6048 122.083C76.6048 121.954 76.5849 121.838 76.5451 121.734C76.5061 121.63 76.4468 121.548 76.3672 121.487C76.2884 121.426 76.1892 121.395 76.0698 121.395C75.9552 121.395 75.8589 121.424 75.7808 121.482C75.7028 121.54 75.6439 121.62 75.6041 121.723C75.5643 121.826 75.5444 121.946 75.5444 122.083ZM78.3043 122.25V121.166H78.5862V123H78.3043V122.69H78.2852C78.2422 122.783 78.1754 122.862 78.0846 122.927C77.9939 122.992 77.8792 123.024 77.7407 123.024C77.6261 123.024 77.5242 122.999 77.435 122.949C77.3458 122.898 77.2758 122.821 77.2248 122.719C77.1739 122.617 77.1484 122.487 77.1484 122.331V121.166H77.4302V122.312C77.4302 122.446 77.4676 122.553 77.5425 122.632C77.6181 122.712 77.7144 122.752 77.8315 122.752C77.9015 122.752 77.9728 122.734 78.0452 122.698C78.1185 122.662 78.1798 122.607 78.2291 122.533C78.2793 122.459 78.3043 122.365 78.3043 122.25ZM78.9342 123V121.166H79.2065V121.443H79.2256C79.259 121.352 79.3195 121.278 79.4071 121.222C79.4947 121.165 79.5934 121.137 79.7032 121.137C79.7239 121.137 79.7498 121.138 79.7809 121.138C79.8119 121.139 79.8354 121.14 79.8513 121.142V121.428C79.8418 121.426 79.8199 121.423 79.7856 121.418C79.7522 121.412 79.7168 121.409 79.6794 121.409C79.5902 121.409 79.5106 121.428 79.4405 121.466C79.3713 121.502 79.3163 121.553 79.2757 121.618C79.2359 121.683 79.216 121.756 79.216 121.839V123H78.9342ZM80.7066 123.038C80.5346 123.038 80.3865 122.998 80.2623 122.916C80.1382 122.835 80.0426 122.723 79.9758 122.581C79.9089 122.438 79.8754 122.276 79.8754 122.092C79.8754 121.906 79.9097 121.742 79.9781 121.599C80.0474 121.456 80.1437 121.344 80.2671 121.264C80.3913 121.182 80.5362 121.142 80.7018 121.142C80.8308 121.142 80.947 121.166 81.0505 121.214C81.154 121.261 81.2388 121.328 81.3049 121.414C81.3709 121.5 81.4119 121.6 81.4278 121.715H81.146C81.1245 121.631 81.0768 121.557 81.0027 121.493C80.9295 121.428 80.8308 121.395 80.7066 121.395C80.5967 121.395 80.5004 121.424 80.4176 121.481C80.3356 121.538 80.2715 121.618 80.2253 121.721C80.18 121.824 80.1573 121.944 80.1573 122.083C80.1573 122.225 80.1796 122.348 80.2241 122.453C80.2695 122.558 80.3332 122.64 80.4152 122.698C80.498 122.756 80.5951 122.785 80.7066 122.785C80.7798 122.785 80.8463 122.772 80.906 122.747C80.9657 122.721 81.0163 122.685 81.0577 122.637C81.0991 122.589 81.1285 122.532 81.146 122.465H81.4278C81.4119 122.573 81.3725 122.671 81.3096 122.758C81.2475 122.844 81.1651 122.912 81.0624 122.963C80.9605 123.013 80.8419 123.038 80.7066 123.038ZM81.9535 121.897V123H81.6717V120.554H81.9535V121.452H81.9774C82.0204 121.358 82.0849 121.282 82.1709 121.227C82.2576 121.17 82.3731 121.142 82.5172 121.142C82.6421 121.142 82.7516 121.167 82.8456 121.217C82.9395 121.266 83.0123 121.343 83.0641 121.445C83.1166 121.547 83.1429 121.677 83.1429 121.835V123H82.8611V121.854C82.8611 121.708 82.8233 121.595 82.7476 121.516C82.6728 121.435 82.5689 121.395 82.436 121.395C82.3436 121.395 82.2608 121.415 82.1876 121.454C82.1151 121.493 82.0578 121.549 82.0156 121.624C81.9742 121.699 81.9535 121.79 81.9535 121.897ZM84.0301 123.043C83.9139 123.043 83.8084 123.021 83.7136 122.977C83.6189 122.933 83.5437 122.869 83.488 122.785C83.4322 122.701 83.4044 122.599 83.4044 122.479C83.4044 122.374 83.4251 122.289 83.4665 122.224C83.5079 122.158 83.5632 122.106 83.6324 122.069C83.7017 122.031 83.7781 122.003 83.8617 121.985C83.9461 121.966 84.0309 121.951 84.1161 121.94C84.2275 121.925 84.3179 121.915 84.3872 121.907C84.4572 121.899 84.5082 121.886 84.54 121.868C84.5726 121.85 84.589 121.818 84.589 121.772V121.763C84.589 121.645 84.5567 121.553 84.4922 121.488C84.4286 121.423 84.3318 121.39 84.2021 121.39C84.0675 121.39 83.962 121.42 83.8856 121.479C83.8092 121.538 83.7554 121.6 83.7244 121.667L83.4569 121.572C83.5047 121.46 83.5684 121.374 83.648 121.311C83.7284 121.249 83.8159 121.205 83.9107 121.18C84.0062 121.155 84.1002 121.142 84.1925 121.142C84.2514 121.142 84.3191 121.149 84.3955 121.163C84.4727 121.177 84.5472 121.205 84.6188 121.248C84.6913 121.291 84.7514 121.356 84.7991 121.443C84.8469 121.53 84.8708 121.646 84.8708 121.792V123H84.589V122.752H84.5746C84.5555 122.791 84.5237 122.834 84.4791 122.879C84.4345 122.925 84.3752 122.963 84.3012 122.995C84.2271 123.027 84.1368 123.043 84.0301 123.043ZM84.0731 122.79C84.1845 122.79 84.2785 122.768 84.3549 122.724C84.4321 122.68 84.4903 122.624 84.5293 122.555C84.5691 122.485 84.589 122.412 84.589 122.336V122.078C84.577 122.092 84.5508 122.106 84.5102 122.118C84.4703 122.129 84.4242 122.139 84.3716 122.147C84.3199 122.155 84.2693 122.162 84.22 122.169C84.1714 122.174 84.132 122.179 84.1018 122.183C84.0285 122.193 83.96 122.208 83.8964 122.23C83.8335 122.25 83.7825 122.282 83.7435 122.324C83.7053 122.366 83.6862 122.422 83.6862 122.494C83.6862 122.592 83.7224 122.666 83.7949 122.716C83.8681 122.765 83.9608 122.79 84.0731 122.79ZM86.5163 121.577L86.2631 121.648C86.2472 121.606 86.2237 121.565 86.1927 121.525C86.1624 121.485 86.121 121.451 86.0685 121.425C86.0159 121.399 85.9487 121.385 85.8667 121.385C85.7544 121.385 85.6609 121.411 85.586 121.463C85.512 121.514 85.475 121.579 85.475 121.658C85.475 121.728 85.5005 121.783 85.5514 121.824C85.6024 121.864 85.682 121.898 85.7902 121.925L86.0625 121.992C86.2265 122.032 86.3487 122.093 86.4291 122.175C86.5095 122.256 86.5497 122.361 86.5497 122.489C86.5497 122.594 86.5195 122.688 86.459 122.771C86.3993 122.854 86.3157 122.919 86.2082 122.967C86.1007 123.014 85.9757 123.038 85.8332 123.038C85.6461 123.038 85.4913 122.998 85.3687 122.916C85.2461 122.835 85.1685 122.717 85.1358 122.561L85.4033 122.494C85.4288 122.592 85.477 122.666 85.5478 122.716C85.6195 122.765 85.713 122.79 85.8284 122.79C85.9598 122.79 86.0641 122.762 86.1413 122.706C86.2193 122.65 86.2583 122.582 86.2583 122.503C86.2583 122.44 86.2361 122.386 86.1915 122.343C86.1469 122.299 86.0784 122.267 85.9861 122.245L85.6804 122.174C85.5124 122.134 85.389 122.072 85.3102 121.989C85.2322 121.904 85.1932 121.799 85.1932 121.672C85.1932 121.569 85.2222 121.477 85.2803 121.397C85.3392 121.318 85.4192 121.255 85.5204 121.21C85.6223 121.165 85.7377 121.142 85.8667 121.142C86.0482 121.142 86.1907 121.182 86.2942 121.261C86.3985 121.341 86.4725 121.446 86.5163 121.577ZM87.5748 123.038C87.3981 123.038 87.2457 122.999 87.1175 122.921C86.9901 122.842 86.8918 122.733 86.8225 122.592C86.7541 122.45 86.7198 122.285 86.7198 122.097C86.7198 121.909 86.7541 121.744 86.8225 121.6C86.8918 121.456 86.9881 121.344 87.1115 121.264C87.2357 121.182 87.3806 121.142 87.5462 121.142C87.6417 121.142 87.7361 121.158 87.8292 121.19C87.9223 121.221 88.0071 121.273 88.0836 121.345C88.16 121.416 88.2209 121.51 88.2663 121.627C88.3116 121.744 88.3343 121.888 88.3343 122.059V122.178H86.9204V121.935H88.0477C88.0477 121.831 88.027 121.739 87.9856 121.658C87.945 121.577 87.8869 121.512 87.8113 121.466C87.7365 121.419 87.6481 121.395 87.5462 121.395C87.4339 121.395 87.3368 121.423 87.2548 121.479C87.1736 121.534 87.1111 121.605 87.0673 121.694C87.0235 121.782 87.0017 121.877 87.0017 121.978V122.14C87.0017 122.279 87.0255 122.396 87.0733 122.492C87.1219 122.588 87.1891 122.661 87.2751 122.711C87.3611 122.76 87.461 122.785 87.5748 122.785C87.6489 122.785 87.7158 122.775 87.7755 122.754C87.836 122.733 87.8881 122.701 87.9319 122.658C87.9757 122.615 88.0095 122.562 88.0334 122.498L88.3057 122.575C88.277 122.667 88.2288 122.748 88.1612 122.818C88.0935 122.888 88.0099 122.942 87.9104 122.981C87.8109 123.019 87.699 123.038 87.5748 123.038ZM89.2875 123.038C89.1347 123.038 88.9997 123 88.8827 122.922C88.7657 122.844 88.6741 122.734 88.608 122.593C88.542 122.45 88.5089 122.282 88.5089 122.088C88.5089 121.895 88.542 121.728 88.608 121.586C88.6741 121.444 88.7661 121.335 88.8839 121.258C89.0017 121.18 89.1378 121.142 89.2923 121.142C89.4117 121.142 89.506 121.162 89.5753 121.202C89.6454 121.241 89.6987 121.285 89.7353 121.335C89.7727 121.385 89.8018 121.425 89.8225 121.457H89.8464V120.554H90.1282V123H89.8559V122.718H89.8225C89.8018 122.752 89.7723 122.794 89.7341 122.845C89.6959 122.895 89.6414 122.94 89.5705 122.98C89.4997 123.019 89.4053 123.038 89.2875 123.038ZM89.3257 122.785C89.4388 122.785 89.5343 122.756 89.6123 122.697C89.6903 122.637 89.7497 122.555 89.7903 122.449C89.8309 122.344 89.8512 122.221 89.8512 122.083C89.8512 121.946 89.8313 121.826 89.7914 121.723C89.7516 121.62 89.6927 121.54 89.6147 121.482C89.5367 121.424 89.4404 121.395 89.3257 121.395C89.2063 121.395 89.1068 121.426 89.0272 121.487C88.9484 121.548 88.8891 121.63 88.8493 121.734C88.8102 121.838 88.7907 121.954 88.7907 122.083C88.7907 122.213 88.8106 122.332 88.8504 122.439C88.8911 122.545 88.9508 122.629 89.0296 122.692C89.1092 122.754 89.2079 122.785 89.3257 122.785Z" fill="#1B1B50"/>
<path d="M54.4428 126.463V130.385H53.8989L51.9053 127.508H51.8689V130.385H51.2771V126.463H51.8248L53.8204 129.343H53.8568V126.463H54.4428ZM55.2601 130.385V127.443H55.8328V130.385H55.2601ZM55.5493 126.989C55.4497 126.989 55.3642 126.956 55.2927 126.89C55.2225 126.822 55.1874 126.742 55.1874 126.648C55.1874 126.554 55.2225 126.473 55.2927 126.407C55.3642 126.339 55.4497 126.305 55.5493 126.305C55.6489 126.305 55.7338 126.339 55.804 126.407C55.8755 126.473 55.9113 126.554 55.9113 126.648C55.9113 126.742 55.8755 126.822 55.804 126.89C55.7338 126.956 55.6489 126.989 55.5493 126.989ZM57.1298 129.387L57.126 128.688H57.2256L58.3976 127.443H59.0833L57.7465 128.86H57.6565L57.1298 129.387ZM56.6031 130.385V126.463H57.1758V130.385H56.6031ZM58.4608 130.385L57.4075 128.987L57.802 128.586L59.1637 130.385H58.4608ZM60.7518 130.444C60.462 130.444 60.2124 130.382 60.003 130.258C59.7949 130.133 59.634 129.958 59.5204 129.732C59.408 129.504 59.3519 129.238 59.3519 128.933C59.3519 128.632 59.408 128.366 59.5204 128.136C59.634 127.907 59.7923 127.727 59.9954 127.598C60.1996 127.469 60.4384 127.405 60.7116 127.405C60.8776 127.405 61.0385 127.432 61.1942 127.487C61.35 127.542 61.4898 127.628 61.6137 127.746C61.7375 127.863 61.8352 128.016 61.9067 128.203C61.9782 128.39 62.0139 128.616 62.0139 128.883V129.086H59.6755V128.657H61.4528C61.4528 128.507 61.4221 128.373 61.3609 128.257C61.2996 128.14 61.2134 128.047 61.1023 127.979C60.9925 127.912 60.8636 127.878 60.7154 127.878C60.5546 127.878 60.4141 127.917 60.2941 127.997C60.1754 128.074 60.0834 128.177 60.0183 128.303C59.9545 128.428 59.9226 128.564 59.9226 128.711V129.046C59.9226 129.243 59.957 129.41 60.026 129.548C60.0962 129.686 60.1939 129.791 60.319 129.864C60.4441 129.935 60.5903 129.971 60.7576 129.971C60.8661 129.971 60.9651 129.956 61.0544 129.925C61.1438 129.893 61.221 129.846 61.2862 129.783C61.3513 129.721 61.4011 129.644 61.4355 129.552L61.9775 129.649C61.9341 129.809 61.8562 129.949 61.7439 130.069C61.6328 130.188 61.493 130.28 61.3245 130.346C61.1572 130.412 60.9663 130.444 60.7518 130.444ZM64.4538 130.385H63.8257L65.2371 126.463H65.9208L67.3323 130.385H66.7041L65.5953 127.175H65.5646L64.4538 130.385ZM64.5592 128.849H66.5969V129.347H64.5592V128.849ZM67.8791 130.385V127.443H68.4517V130.385H67.8791ZM68.1683 126.989C68.0687 126.989 67.9831 126.956 67.9116 126.89C67.8414 126.822 67.8063 126.742 67.8063 126.648C67.8063 126.554 67.8414 126.473 67.9116 126.407C67.9831 126.339 68.0687 126.305 68.1683 126.305C68.2679 126.305 68.3528 126.339 68.423 126.407C68.4945 126.473 68.5302 126.554 68.5302 126.648C68.5302 126.742 68.4945 126.822 68.423 126.89C68.3528 126.956 68.2679 126.989 68.1683 126.989ZM69.2221 130.385V127.443H69.7756V127.91H69.8062C69.8598 127.752 69.9543 127.628 70.0896 127.537C70.2263 127.445 70.3807 127.399 70.5531 127.399C70.5889 127.399 70.631 127.4 70.6795 127.403C70.7293 127.405 70.7682 127.409 70.7963 127.412V127.96C70.7733 127.954 70.7325 127.947 70.6738 127.939C70.615 127.93 70.5563 127.926 70.4976 127.926C70.3622 127.926 70.2416 127.954 70.1356 128.012C70.0309 128.068 69.9479 128.147 69.8866 128.247C69.8253 128.347 69.7947 128.461 69.7947 128.588V130.385H69.2221ZM72.7651 130.385V126.463H75.1974V126.972H73.3569V128.167H75.0231V128.675H73.3569V130.385H72.7651ZM76.9023 130.444C76.6265 130.444 76.3859 130.381 76.1803 130.255C75.9747 130.128 75.8151 129.951 75.7015 129.724C75.5879 129.497 75.5311 129.231 75.5311 128.927C75.5311 128.622 75.5879 128.355 75.7015 128.127C75.8151 127.898 75.9747 127.721 76.1803 127.594C76.3859 127.468 76.6265 127.405 76.9023 127.405C77.1781 127.405 77.4188 127.468 77.6243 127.594C77.8299 127.721 77.9895 127.898 78.1031 128.127C78.2167 128.355 78.2736 128.622 78.2736 128.927C78.2736 129.231 78.2167 129.497 78.1031 129.724C77.9895 129.951 77.8299 130.128 77.6243 130.255C77.4188 130.381 77.1781 130.444 76.9023 130.444ZM76.9042 129.963C77.083 129.963 77.2311 129.916 77.3485 129.822C77.466 129.727 77.5528 129.601 77.609 129.444C77.6665 129.287 77.6952 129.114 77.6952 128.925C77.6952 128.738 77.6665 128.565 77.609 128.408C77.5528 128.25 77.466 128.123 77.3485 128.027C77.2311 127.931 77.083 127.884 76.9042 127.884C76.7242 127.884 76.5748 127.931 76.4561 128.027C76.3386 128.123 76.2512 128.25 76.1937 128.408C76.1375 128.565 76.1094 128.738 76.1094 128.925C76.1094 129.114 76.1375 129.287 76.1937 129.444C76.2512 129.601 76.3386 129.727 76.4561 129.822C76.5748 129.916 76.7242 129.963 76.9042 129.963ZM78.9127 130.385V127.443H79.4662V127.91H79.4969C79.5505 127.752 79.645 127.628 79.7803 127.537C79.9169 127.445 80.0714 127.399 80.2438 127.399C80.2795 127.399 80.3217 127.4 80.3702 127.403C80.42 127.405 80.4589 127.409 80.487 127.412V127.96C80.464 127.954 80.4232 127.947 80.3644 127.939C80.3057 127.93 80.247 127.926 80.1882 127.926C80.0529 127.926 79.9322 127.954 79.8263 128.012C79.7216 128.068 79.6386 128.147 79.5773 128.247C79.516 128.347 79.4854 128.461 79.4854 128.588V130.385H78.9127ZM82.1163 130.444C81.8316 130.444 81.5865 130.38 81.3809 130.251C81.1766 130.12 81.0196 129.941 80.9098 129.713C80.8 129.484 80.7451 129.222 80.7451 128.927C80.7451 128.629 80.8012 128.365 80.9136 128.136C81.026 127.907 81.1843 127.727 81.3886 127.598C81.5928 127.469 81.8335 127.405 82.1106 127.405C82.334 127.405 82.5332 127.446 82.7081 127.529C82.883 127.611 83.0241 127.726 83.1313 127.874C83.2399 128.022 83.3043 128.195 83.3248 128.393H82.7675C82.7368 128.255 82.6666 128.136 82.5568 128.037C82.4483 127.937 82.3027 127.887 82.1201 127.887C81.9606 127.887 81.8207 127.93 81.7007 128.014C81.582 128.097 81.4894 128.216 81.423 128.37C81.3566 128.523 81.3234 128.705 81.3234 128.914C81.3234 129.128 81.356 129.314 81.4211 129.469C81.4862 129.625 81.5782 129.746 81.6969 129.831C81.8169 129.917 81.958 129.96 82.1201 129.96C82.2287 129.96 82.327 129.94 82.4151 129.9C82.5045 129.859 82.5791 129.801 82.6392 129.726C82.7004 129.651 82.7432 129.56 82.7675 129.454H83.3248C83.3043 129.644 83.2424 129.814 83.139 129.963C83.0356 130.113 82.8971 130.23 82.7234 130.316C82.5511 130.401 82.3487 130.444 82.1163 130.444ZM85.205 130.444C84.9152 130.444 84.6655 130.382 84.4562 130.258C84.248 130.133 84.0872 129.958 83.9735 129.732C83.8612 129.504 83.805 129.238 83.805 128.933C83.805 128.632 83.8612 128.366 83.9735 128.136C84.0872 127.907 84.2455 127.727 84.4485 127.598C84.6528 127.469 84.8915 127.405 85.1648 127.405C85.3307 127.405 85.4916 127.432 85.6474 127.487C85.8031 127.542 85.9429 127.628 86.0668 127.746C86.1906 127.863 86.2883 128.016 86.3598 128.203C86.4313 128.39 86.4671 128.616 86.4671 128.883V129.086H84.1287V128.657H85.9059C85.9059 128.507 85.8753 128.373 85.814 128.257C85.7527 128.14 85.6665 128.047 85.5554 127.979C85.4456 127.912 85.3167 127.878 85.1686 127.878C85.0077 127.878 84.8673 127.917 84.7473 127.997C84.6285 128.074 84.5366 128.177 84.4715 128.303C84.4076 128.428 84.3757 128.564 84.3757 128.711V129.046C84.3757 129.243 84.4102 129.41 84.4791 129.548C84.5494 129.686 84.647 129.791 84.7722 129.864C84.8973 129.935 85.0435 129.971 85.2107 129.971C85.3192 129.971 85.4182 129.956 85.5076 129.925C85.5969 129.893 85.6742 129.846 85.7393 129.783C85.8044 129.721 85.8542 129.644 85.8887 129.552L86.4307 129.649C86.3873 129.809 86.3094 129.949 86.197 130.069C86.0859 130.188 85.9461 130.28 85.7776 130.346C85.6104 130.412 85.4195 130.444 85.205 130.444ZM90.0101 126.463V130.385H89.4164V127.056H89.3934L88.455 127.669V127.102L89.4336 126.463H90.0101ZM92.393 127.688V127.321C92.393 127.212 92.4135 127.098 92.4543 126.978C92.4952 126.858 92.552 126.743 92.6248 126.633C92.6975 126.523 92.7831 126.429 92.8814 126.351L93.1648 126.554C93.0869 126.668 93.0206 126.787 92.9657 126.911C92.9108 127.035 92.8833 127.169 92.8833 127.315V127.688H92.393ZM95.0173 130.45C94.7147 130.449 94.4561 130.369 94.2416 130.21C94.0271 130.052 93.8631 129.822 93.7494 129.519C93.6358 129.217 93.579 128.852 93.579 128.426C93.579 128 93.6358 127.637 93.7494 127.336C93.8643 127.035 94.029 126.805 94.2435 126.646C94.4593 126.488 94.7172 126.409 95.0173 126.409C95.3173 126.409 95.5746 126.489 95.7891 126.648C96.0036 126.807 96.1676 127.036 96.2813 127.338C96.3962 127.638 96.4536 128 96.4536 128.426C96.4536 128.853 96.3968 129.218 96.2832 129.521C96.1695 129.822 96.0055 130.053 95.791 130.212C95.5765 130.371 95.3186 130.45 95.0173 130.45ZM95.0173 129.939C95.2828 129.939 95.4903 129.809 95.6397 129.55C95.7903 129.291 95.8657 128.916 95.8657 128.426C95.8657 128.1 95.8312 127.825 95.7623 127.6C95.6946 127.374 95.5969 127.203 95.4692 127.087C95.3428 126.969 95.1922 126.911 95.0173 126.911C94.753 126.911 94.5455 127.041 94.3948 127.301C94.2442 127.562 94.1682 127.937 94.1669 128.426C94.1669 128.752 94.2008 129.029 94.2684 129.255C94.3374 129.48 94.4351 129.65 94.5615 129.766C94.6879 129.881 94.8398 129.939 95.0173 129.939ZM97.1598 130.385L98.872 126.999V126.97H96.8917V126.463H99.4848V126.987L97.7784 130.385H97.1598Z" fill="#1B1B50"/>
<path opacity="0.8" d="M51.9209 133.935V134.174H50.9322V133.935H51.9209ZM51.2283 135.77V133.682C51.2283 133.577 51.253 133.489 51.3024 133.419C51.3517 133.349 51.4158 133.297 51.4946 133.262C51.5734 133.227 51.6566 133.209 51.7442 133.209C51.8135 133.209 51.87 133.215 51.9138 133.226C51.9576 133.237 51.9902 133.247 52.0117 133.257L51.9305 133.501C51.9162 133.496 51.8963 133.49 51.8708 133.483C51.8461 133.476 51.8135 133.472 51.7729 133.472C51.6797 133.472 51.6124 133.495 51.571 133.542C51.5304 133.589 51.5101 133.658 51.5101 133.749V135.77H51.2283ZM52.1478 135.77V133.935H52.42V134.212H52.4391C52.4726 134.122 52.5331 134.048 52.6207 133.991C52.7082 133.935 52.8069 133.907 52.9168 133.907C52.9375 133.907 52.9634 133.907 52.9944 133.908C53.0255 133.909 53.049 133.91 53.0649 133.911V134.198C53.0553 134.196 53.0334 134.192 52.9992 134.187C52.9658 134.182 52.9303 134.179 52.8929 134.179C52.8038 134.179 52.7241 134.198 52.6541 134.235C52.5848 134.272 52.5299 134.323 52.4893 134.388C52.4495 134.452 52.4296 134.526 52.4296 134.609V135.77H52.1478ZM53.9201 135.808C53.7545 135.808 53.6093 135.768 53.4843 135.69C53.3601 135.611 53.263 135.5 53.1929 135.359C53.1236 135.217 53.089 135.051 53.089 134.862C53.089 134.671 53.1236 134.504 53.1929 134.362C53.263 134.219 53.3601 134.108 53.4843 134.03C53.6093 133.951 53.7545 133.911 53.9201 133.911C54.0857 133.911 54.2306 133.951 54.3548 134.03C54.4798 134.108 54.5769 134.219 54.6462 134.362C54.7162 134.504 54.7513 134.671 54.7513 134.862C54.7513 135.051 54.7162 135.217 54.6462 135.359C54.5769 135.5 54.4798 135.611 54.3548 135.69C54.2306 135.768 54.0857 135.808 53.9201 135.808ZM53.9201 135.555C54.0459 135.555 54.1494 135.522 54.2306 135.458C54.3118 135.393 54.3719 135.309 54.4109 135.203C54.4499 135.098 54.4695 134.985 54.4695 134.862C54.4695 134.739 54.4499 134.625 54.4109 134.519C54.3719 134.413 54.3118 134.328 54.2306 134.263C54.1494 134.197 54.0459 134.165 53.9201 134.165C53.7944 134.165 53.6909 134.197 53.6097 134.263C53.5285 134.328 53.4683 134.413 53.4293 134.519C53.3903 134.625 53.3708 134.739 53.3708 134.862C53.3708 134.985 53.3903 135.098 53.4293 135.203C53.4683 135.309 53.5285 135.393 53.6097 135.458C53.6909 135.522 53.7944 135.555 53.9201 135.555ZM55.0133 135.77V133.935H55.2856V134.222H55.3095C55.3477 134.124 55.4094 134.048 55.4946 133.994C55.5798 133.939 55.6821 133.911 55.8015 133.911C55.9225 133.911 56.0232 133.939 56.1036 133.994C56.1848 134.048 56.2481 134.124 56.2935 134.222H56.3126C56.3595 134.127 56.43 134.052 56.5239 133.996C56.6179 133.94 56.7305 133.911 56.8619 133.911C57.0259 133.911 57.16 133.963 57.2643 134.065C57.3686 134.167 57.4208 134.326 57.4208 134.542V135.77H57.1389V134.542C57.1389 134.407 57.1019 134.31 57.0279 134.252C56.9538 134.194 56.8667 134.165 56.7664 134.165C56.6374 134.165 56.5375 134.204 56.4666 134.282C56.3958 134.359 56.3603 134.457 56.3603 134.575V135.77H56.0737V134.513C56.0737 134.409 56.0399 134.325 55.9722 134.261C55.9046 134.197 55.8174 134.165 55.7107 134.165C55.6375 134.165 55.569 134.184 55.5053 134.223C55.4424 134.262 55.3915 134.316 55.3525 134.385C55.3143 134.454 55.2952 134.533 55.2952 134.623V135.77H55.0133ZM58.5838 135.77V133.324H58.8656V134.227H58.8895C58.9102 134.195 58.9388 134.154 58.9754 134.105C59.0129 134.055 59.0662 134.01 59.1355 133.971C59.2055 133.931 59.3002 133.911 59.4197 133.911C59.5741 133.911 59.7102 133.95 59.8281 134.027C59.9459 134.104 60.0378 134.214 60.1039 134.356C60.17 134.497 60.203 134.665 60.203 134.857C60.203 135.051 60.17 135.22 60.1039 135.362C60.0378 135.504 59.9463 135.614 59.8293 135.692C59.7122 135.769 59.5773 135.808 59.4244 135.808C59.3066 135.808 59.2123 135.788 59.1414 135.749C59.0706 135.709 59.016 135.664 58.9778 135.614C58.9396 135.563 58.9102 135.521 58.8895 135.488H58.856V135.77H58.5838ZM58.8608 134.852C58.8608 134.991 58.8811 135.113 58.9217 135.219C58.9623 135.324 59.0216 135.407 59.0996 135.466C59.1776 135.525 59.2732 135.555 59.3862 135.555C59.504 135.555 59.6024 135.524 59.6812 135.461C59.7608 135.399 59.8205 135.314 59.8603 135.208C59.9009 135.102 59.9212 134.983 59.9212 134.852C59.9212 134.723 59.9013 134.607 59.8615 134.504C59.8225 134.399 59.7632 134.317 59.6836 134.257C59.6048 134.195 59.5056 134.165 59.3862 134.165C59.2716 134.165 59.1753 134.194 59.0972 134.252C59.0192 134.309 58.9603 134.389 58.9205 134.493C58.8807 134.596 58.8608 134.715 58.8608 134.852ZM60.5818 136.457C60.5341 136.457 60.4915 136.453 60.454 136.445C60.4166 136.438 60.3908 136.431 60.3764 136.424L60.4481 136.176C60.5165 136.193 60.577 136.199 60.6296 136.195C60.6821 136.19 60.7287 136.166 60.7693 136.124C60.8107 136.083 60.8485 136.016 60.8827 135.922L60.9353 135.779L60.257 133.935H60.5627L61.069 135.397H61.0881L61.5945 133.935H61.9002L61.1216 136.037C61.0865 136.132 61.0432 136.21 60.9914 136.272C60.9397 136.335 60.8796 136.382 60.8111 136.412C60.7434 136.442 60.667 136.457 60.5818 136.457ZM64.5248 133.324H64.821V134.943C64.821 135.11 64.7816 135.26 64.7027 135.391C64.6247 135.522 64.5145 135.625 64.372 135.7C64.2295 135.775 64.0623 135.813 63.8704 135.813C63.6786 135.813 63.5114 135.775 63.3689 135.7C63.2264 135.625 63.1157 135.522 63.0369 135.391C62.9589 135.26 62.9199 135.11 62.9199 134.943V133.324H63.216V134.919C63.216 135.039 63.2423 135.145 63.2948 135.238C63.3474 135.33 63.4222 135.403 63.5193 135.457C63.6173 135.509 63.7343 135.535 63.8704 135.535C64.0065 135.535 64.1236 135.509 64.2215 135.457C64.3194 135.403 64.3943 135.33 64.446 135.238C64.4985 135.145 64.5248 135.039 64.5248 134.919V133.324ZM66.5817 133.935C66.5674 133.814 66.5092 133.72 66.4073 133.653C66.3054 133.587 66.1805 133.553 66.0324 133.553C65.9241 133.553 65.8294 133.571 65.7482 133.606C65.6678 133.641 65.6049 133.689 65.5595 133.75C65.5149 133.812 65.4926 133.881 65.4926 133.959C65.4926 134.024 65.5081 134.081 65.5392 134.128C65.571 134.174 65.6116 134.212 65.661 134.243C65.7104 134.274 65.7621 134.299 65.8162 134.319C65.8704 134.338 65.9201 134.353 65.9655 134.365L66.2139 134.432C66.2776 134.449 66.3484 134.472 66.4265 134.501C66.5053 134.531 66.5805 134.571 66.6522 134.622C66.7246 134.672 66.7843 134.737 66.8313 134.815C66.8782 134.894 66.9017 134.991 66.9017 135.106C66.9017 135.238 66.8671 135.357 66.7978 135.464C66.7294 135.571 66.6291 135.655 66.4969 135.718C66.3656 135.781 66.2059 135.813 66.0181 135.813C65.8429 135.813 65.6913 135.784 65.5631 135.728C65.4357 135.671 65.3354 135.592 65.2621 135.491C65.1897 135.39 65.1487 135.273 65.1392 135.139H65.4449C65.4528 135.231 65.4839 135.308 65.538 135.368C65.5929 135.428 65.6622 135.473 65.7458 135.502C65.8302 135.531 65.9209 135.545 66.0181 135.545C66.1311 135.545 66.2326 135.527 66.3226 135.49C66.4125 135.453 66.4838 135.401 66.5363 135.335C66.5889 135.268 66.6151 135.19 66.6151 135.101C66.6151 135.02 66.5924 134.954 66.5471 134.903C66.5017 134.852 66.442 134.81 66.3679 134.778C66.2939 134.747 66.2139 134.719 66.1279 134.695L65.827 134.609C65.6359 134.554 65.4847 134.475 65.3732 134.374C65.2618 134.272 65.206 134.138 65.206 133.974C65.206 133.837 65.243 133.717 65.3171 133.615C65.3919 133.513 65.4922 133.433 65.618 133.376C65.7446 133.319 65.8859 133.29 66.0419 133.29C66.1996 133.29 66.3397 133.319 66.4623 133.375C66.5849 133.431 66.682 133.507 66.7537 133.605C66.8261 133.702 66.8643 133.812 66.8683 133.935H66.5817ZM67.3208 135.77H67.0103L67.9083 133.324H68.2141L69.1121 135.77H68.8016L68.0708 133.711H68.0516L67.3208 135.77ZM67.4355 134.814H68.6869V135.077H67.4355V134.814Z" fill="#1B1B50"/>
<path d="M52.0093 139.554V142H51.6391V139.925H51.6248L51.0396 140.307V139.953L51.6499 139.554H52.0093ZM53.5223 142.041C53.3336 142.04 53.1724 141.99 53.0387 141.891C52.9049 141.793 52.8026 141.649 52.7318 141.46C52.6609 141.272 52.6255 141.044 52.6255 140.778C52.6255 140.513 52.6609 140.287 52.7318 140.099C52.8034 139.911 52.9061 139.768 53.0399 139.669C53.1744 139.57 53.3352 139.521 53.5223 139.521C53.7094 139.521 53.8698 139.571 54.0036 139.67C54.1373 139.769 54.2396 139.912 54.3104 140.1C54.3821 140.287 54.4179 140.513 54.4179 140.778C54.4179 141.045 54.3825 141.273 54.3116 141.461C54.2408 141.649 54.1385 141.793 54.0047 141.893C53.871 141.991 53.7102 142.041 53.5223 142.041ZM53.5223 141.722C53.6879 141.722 53.8173 141.641 53.9104 141.479C54.0043 141.318 54.0513 141.084 54.0513 140.778C54.0513 140.575 54.0298 140.404 53.9868 140.264C53.9446 140.123 53.8837 140.016 53.8041 139.944C53.7253 139.87 53.6314 139.834 53.5223 139.834C53.3575 139.834 53.2281 139.915 53.1342 140.077C53.0403 140.24 52.9929 140.473 52.9921 140.778C52.9921 140.982 53.0132 141.155 53.0554 141.295C53.0984 141.436 53.1593 141.542 53.2381 141.614C53.3169 141.686 53.4116 141.722 53.5223 141.722ZM55.7363 142V140.166H56.079V140.464H56.1017C56.1399 140.363 56.2024 140.284 56.2892 140.228C56.3759 140.171 56.4798 140.142 56.6008 140.142C56.7234 140.142 56.8261 140.171 56.9089 140.228C56.9925 140.285 57.0542 140.364 57.094 140.464H57.1131C57.1569 140.366 57.2266 140.288 57.3221 140.23C57.4177 140.171 57.5315 140.142 57.6636 140.142C57.83 140.142 57.9658 140.194 58.0709 140.298C58.1767 140.403 58.2297 140.56 58.2297 140.77V142H57.8726V140.803C57.8726 140.679 57.8388 140.589 57.7711 140.534C57.7035 140.478 57.6227 140.45 57.5287 140.45C57.4125 140.45 57.3221 140.486 57.2576 140.557C57.1932 140.628 57.1609 140.719 57.1609 140.831V142H56.805V140.781C56.805 140.681 56.774 140.601 56.7119 140.541C56.6498 140.48 56.569 140.45 56.4695 140.45C56.4018 140.45 56.3393 140.468 56.282 140.504C56.2255 140.539 56.1797 140.588 56.1447 140.651C56.1104 140.713 56.0933 140.786 56.0933 140.869V142H55.7363ZM58.7082 142V140.166H59.0653V142H58.7082ZM58.8886 139.883C58.8265 139.883 58.7731 139.862 58.7285 139.821C58.6848 139.778 58.6629 139.728 58.6629 139.67C58.6629 139.611 58.6848 139.561 58.7285 139.52C58.7731 139.478 58.8265 139.456 58.8886 139.456C58.9507 139.456 59.0036 139.478 59.0474 139.52C59.092 139.561 59.1143 139.611 59.1143 139.67C59.1143 139.728 59.092 139.778 59.0474 139.821C59.0036 139.862 58.9507 139.883 58.8886 139.883ZM59.9027 140.911V142H59.5456V140.166H59.8884V140.464H59.9111C59.9533 140.367 60.0193 140.289 60.1093 140.23C60.2 140.171 60.3143 140.142 60.452 140.142C60.577 140.142 60.6865 140.168 60.7804 140.221C60.8743 140.272 60.9472 140.35 60.9989 140.452C61.0507 140.555 61.0766 140.682 61.0766 140.833V142H60.7195V140.876C60.7195 140.743 60.6849 140.639 60.6156 140.565C60.5464 140.489 60.4512 140.451 60.3302 140.451C60.2474 140.451 60.1738 140.469 60.1093 140.505C60.0456 140.541 59.995 140.593 59.9576 140.663C59.921 140.731 59.9027 140.814 59.9027 140.911ZM62.7173 141.239V140.166H63.0756V142H62.7245V141.682H62.7054C62.6632 141.78 62.5955 141.862 62.5024 141.927C62.41 141.992 62.295 142.024 62.1573 142.024C62.0394 142.024 61.9352 141.998 61.8444 141.946C61.7544 141.894 61.6836 141.816 61.6318 141.713C61.5809 141.611 61.5554 141.484 61.5554 141.332V140.166H61.9125V141.289C61.9125 141.414 61.9471 141.514 62.0164 141.588C62.0856 141.662 62.1756 141.699 62.2862 141.699C62.3531 141.699 62.4196 141.682 62.4857 141.649C62.5525 141.615 62.6079 141.565 62.6517 141.497C62.6962 141.43 62.7181 141.344 62.7173 141.239ZM64.4115 140.166V140.452H63.4096V140.166H64.4115ZM63.6783 139.726H64.0354V141.461C64.0354 141.531 64.0457 141.583 64.0664 141.618C64.0871 141.652 64.1138 141.676 64.1464 141.688C64.1799 141.7 64.2161 141.706 64.2551 141.706C64.2838 141.706 64.3089 141.704 64.3303 141.7C64.3518 141.696 64.3686 141.693 64.3805 141.691L64.445 141.986C64.4243 141.994 64.3948 142.002 64.3566 142.01C64.3184 142.018 64.2706 142.023 64.2133 142.024C64.1194 142.025 64.0318 142.009 63.9506 141.974C63.8694 141.939 63.8037 141.885 63.7536 141.811C63.7034 141.738 63.6783 141.646 63.6783 141.535V139.726ZM65.5773 142.037C65.3966 142.037 65.241 141.998 65.1104 141.921C64.9807 141.843 64.8804 141.734 64.8095 141.593C64.7394 141.451 64.7044 141.285 64.7044 141.095C64.7044 140.907 64.7394 140.741 64.8095 140.598C64.8804 140.455 64.9791 140.343 65.1057 140.262C65.233 140.182 65.3819 140.142 65.5523 140.142C65.6558 140.142 65.7561 140.159 65.8532 140.193C65.9503 140.227 66.0375 140.281 66.1147 140.354C66.1919 140.428 66.2528 140.523 66.2974 140.64C66.342 140.756 66.3643 140.897 66.3643 141.064V141.19H64.9062V140.923H66.0144C66.0144 140.829 65.9953 140.746 65.9571 140.673C65.9189 140.6 65.8651 140.542 65.7959 140.5C65.7274 140.458 65.647 140.437 65.5547 140.437C65.4543 140.437 65.3668 140.462 65.2919 140.511C65.2179 140.559 65.1606 140.623 65.12 140.702C65.0802 140.78 65.0603 140.865 65.0603 140.956V141.165C65.0603 141.288 65.0818 141.392 65.1248 141.478C65.1685 141.564 65.2294 141.63 65.3075 141.675C65.3855 141.72 65.4766 141.742 65.5809 141.742C65.6486 141.742 65.7103 141.733 65.766 141.713C65.8218 141.693 65.8699 141.664 65.9105 141.625C65.9511 141.586 65.9822 141.538 66.0037 141.481L66.3416 141.541C66.3145 141.641 66.266 141.728 66.1959 141.803C66.1267 141.877 66.0395 141.935 65.9344 141.976C65.8301 142.017 65.7111 142.037 65.5773 142.037ZM68.1349 140.614L67.8113 140.671C67.7978 140.63 67.7763 140.59 67.7468 140.553C67.7182 140.515 67.6792 140.485 67.6298 140.461C67.5805 140.437 67.5188 140.425 67.4447 140.425C67.3436 140.425 67.2592 140.448 67.1916 140.493C67.1239 140.538 67.09 140.595 67.09 140.666C67.09 140.727 67.1127 140.777 67.1581 140.814C67.2035 140.852 67.2767 140.882 67.3778 140.906L67.6692 140.973C67.838 141.012 67.9638 141.072 68.0466 141.153C68.1294 141.235 68.1708 141.34 68.1708 141.47C68.1708 141.58 68.1389 141.678 68.0752 141.764C68.0123 141.849 67.9244 141.916 67.8113 141.964C67.6991 142.013 67.5689 142.037 67.4208 142.037C67.2154 142.037 67.0479 141.993 66.9181 141.906C66.7883 141.817 66.7087 141.692 66.6793 141.53L67.0244 141.477C67.0459 141.567 67.09 141.635 67.1569 141.681C67.2238 141.727 67.311 141.749 67.4184 141.749C67.5355 141.749 67.629 141.725 67.6991 141.676C67.7691 141.627 67.8042 141.567 67.8042 141.496C67.8042 141.439 67.7827 141.391 67.7397 141.352C67.6975 141.313 67.6326 141.283 67.545 141.263L67.2345 141.195C67.0634 141.156 66.9368 141.094 66.8548 141.009C66.7736 140.924 66.733 140.816 66.733 140.685C66.733 140.577 66.7632 140.482 66.8238 140.401C66.8843 140.32 66.9678 140.257 67.0745 140.211C67.1812 140.165 67.3034 140.142 67.4411 140.142C67.6394 140.142 67.7954 140.185 67.9092 140.271C68.0231 140.356 68.0983 140.47 68.1349 140.614ZM69.9871 142.041C69.8709 142.041 69.7658 142.019 69.6718 141.976C69.5779 141.932 69.5034 141.869 69.4485 141.786C69.3944 141.703 69.3673 141.602 69.3673 141.482C69.3673 141.378 69.3872 141.293 69.427 141.226C69.4668 141.159 69.5206 141.106 69.5882 141.067C69.6559 141.028 69.7315 140.999 69.8151 140.979C69.8987 140.959 69.9839 140.944 70.0707 140.934C70.1805 140.921 70.2697 140.911 70.3382 140.903C70.4066 140.894 70.4564 140.88 70.4874 140.861C70.5185 140.842 70.534 140.811 70.534 140.768V140.759C70.534 140.655 70.5046 140.574 70.4456 140.517C70.3875 140.46 70.3007 140.431 70.1853 140.431C70.0651 140.431 69.9704 140.458 69.9011 140.511C69.8326 140.563 69.7853 140.622 69.759 140.686L69.4234 140.61C69.4632 140.499 69.5214 140.409 69.5978 140.34C69.675 140.271 69.7638 140.221 69.8641 140.19C69.9644 140.158 70.0699 140.142 70.1805 140.142C70.2538 140.142 70.3314 140.151 70.4134 140.168C70.4962 140.185 70.5734 140.216 70.6451 140.261C70.7175 140.307 70.7768 140.372 70.823 140.456C70.8692 140.54 70.8923 140.648 70.8923 140.782V142H70.5436V141.749H70.5292C70.5061 141.795 70.4715 141.841 70.4253 141.885C70.3792 141.93 70.3199 141.967 70.2474 141.996C70.175 142.026 70.0882 142.041 69.9871 142.041ZM70.0647 141.754C70.1634 141.754 70.2478 141.734 70.3179 141.695C70.3887 141.656 70.4425 141.606 70.4791 141.543C70.5165 141.479 70.5352 141.411 70.5352 141.338V141.102C70.5225 141.115 70.4978 141.127 70.4612 141.138C70.4253 141.148 70.3843 141.157 70.3382 141.165C70.292 141.172 70.247 141.179 70.2032 141.186C70.1594 141.191 70.1228 141.196 70.0934 141.2C70.0241 141.209 69.9608 141.223 69.9035 141.244C69.847 141.265 69.8016 141.295 69.7674 141.334C69.7339 141.372 69.7172 141.423 69.7172 141.487C69.7172 141.575 69.7498 141.642 69.8151 141.687C69.8804 141.732 69.9636 141.754 70.0647 141.754ZM72.1369 142.726C71.9912 142.726 71.8658 142.707 71.7607 142.669C71.6564 142.631 71.5712 142.58 71.5052 142.517C71.4391 142.454 71.3897 142.385 71.3571 142.31L71.664 142.184C71.6855 142.219 71.7141 142.256 71.75 142.295C71.7866 142.335 71.8359 142.369 71.898 142.396C71.9609 142.424 72.0417 142.438 72.1404 142.438C72.2758 142.438 72.3876 142.405 72.476 142.339C72.5644 142.274 72.6086 142.17 72.6086 142.026V141.666H72.5859C72.5644 141.705 72.5333 141.748 72.4927 141.796C72.4529 141.844 72.398 141.885 72.3279 141.92C72.2579 141.955 72.1667 141.973 72.0545 141.973C71.9096 141.973 71.779 141.939 71.6628 141.871C71.5474 141.803 71.4558 141.702 71.3881 141.569C71.3213 141.435 71.2878 141.271 71.2878 141.076C71.2878 140.881 71.3209 140.713 71.3869 140.574C71.4538 140.435 71.5454 140.328 71.6616 140.254C71.7778 140.179 71.9096 140.142 72.0569 140.142C72.1707 140.142 72.2627 140.161 72.3327 140.199C72.4028 140.237 72.4573 140.28 72.4963 140.331C72.5361 140.381 72.5668 140.425 72.5883 140.463H72.6145V140.166H72.9644V142.041C72.9644 142.198 72.9278 142.328 72.8546 142.429C72.7813 142.53 72.6822 142.605 72.5572 142.653C72.433 142.702 72.2929 142.726 72.1369 142.726ZM72.1333 141.676C72.236 141.676 72.3228 141.652 72.3936 141.605C72.4653 141.556 72.5194 141.487 72.556 141.397C72.5934 141.306 72.6121 141.198 72.6121 141.071C72.6121 140.948 72.5938 140.839 72.5572 140.745C72.5206 140.651 72.4669 140.578 72.396 140.525C72.3251 140.472 72.2376 140.445 72.1333 140.445C72.0258 140.445 71.9362 140.473 71.8646 140.529C71.7929 140.584 71.7388 140.659 71.7022 140.753C71.6664 140.848 71.6485 140.954 71.6485 141.071C71.6485 141.191 71.6668 141.297 71.7034 141.387C71.74 141.478 71.7941 141.549 71.8658 141.6C71.9382 141.651 72.0274 141.676 72.1333 141.676ZM74.2159 142.037C74.0439 142.037 73.8939 141.998 73.7657 141.919C73.6375 141.84 73.538 141.73 73.4672 141.588C73.3963 141.446 73.3609 141.281 73.3609 141.091C73.3609 140.901 73.3963 140.735 73.4672 140.592C73.538 140.45 73.6375 140.339 73.7657 140.26C73.8939 140.181 74.0439 140.142 74.2159 140.142C74.3879 140.142 74.5379 140.181 74.6661 140.26C74.7943 140.339 74.8938 140.45 74.9646 140.592C75.0355 140.735 75.0709 140.901 75.0709 141.091C75.0709 141.281 75.0355 141.446 74.9646 141.588C74.8938 141.73 74.7943 141.84 74.6661 141.919C74.5379 141.998 74.3879 142.037 74.2159 142.037ZM74.2171 141.737C74.3285 141.737 74.4209 141.708 74.4941 141.649C74.5674 141.59 74.6215 141.512 74.6565 141.414C74.6924 141.316 74.7103 141.208 74.7103 141.09C74.7103 140.973 74.6924 140.866 74.6565 140.768C74.6215 140.669 74.5674 140.59 74.4941 140.53C74.4209 140.47 74.3285 140.44 74.2171 140.44C74.1048 140.44 74.0117 140.47 73.9377 140.53C73.8644 140.59 73.8099 140.669 73.7741 140.768C73.739 140.866 73.7215 140.973 73.7215 141.09C73.7215 141.208 73.739 141.316 73.7741 141.414C73.8099 141.512 73.8644 141.59 73.9377 141.649C74.0117 141.708 74.1048 141.737 74.2171 141.737Z" fill="#989FAB"/>
<path d="M102.264 142V139.554H102.545V140.457H102.569C102.59 140.425 102.619 140.385 102.655 140.335C102.693 140.285 102.746 140.241 102.815 140.202C102.885 140.162 102.98 140.142 103.1 140.142C103.254 140.142 103.39 140.18 103.508 140.258C103.626 140.335 103.718 140.444 103.784 140.586C103.85 140.728 103.883 140.895 103.883 141.088C103.883 141.282 103.85 141.45 103.784 141.593C103.718 141.734 103.626 141.844 103.509 141.922C103.392 142 103.257 142.038 103.104 142.038C102.987 142.038 102.892 142.019 102.821 141.98C102.75 141.94 102.696 141.895 102.658 141.845C102.619 141.794 102.59 141.752 102.569 141.718H102.536V142H102.264ZM102.541 141.083C102.541 141.221 102.561 141.344 102.602 141.449C102.642 141.555 102.701 141.637 102.78 141.697C102.858 141.756 102.953 141.785 103.066 141.785C103.184 141.785 103.282 141.754 103.361 141.692C103.441 141.629 103.5 141.545 103.54 141.439C103.581 141.332 103.601 141.213 103.601 141.083C103.601 140.954 103.581 140.838 103.541 140.734C103.502 140.63 103.443 140.548 103.363 140.487C103.285 140.426 103.186 140.395 103.066 140.395C102.951 140.395 102.855 140.424 102.777 140.482C102.699 140.54 102.64 140.62 102.6 140.723C102.561 140.826 102.541 140.946 102.541 141.083ZM104.43 142.688C104.382 142.688 104.339 142.684 104.302 142.676C104.265 142.669 104.239 142.662 104.224 142.654L104.296 142.406C104.365 142.424 104.425 142.43 104.478 142.425C104.53 142.42 104.577 142.397 104.617 142.355C104.659 142.313 104.697 142.246 104.731 142.153L104.783 142.01L104.105 140.166H104.411L104.917 141.627H104.936L105.442 140.166H105.748L104.97 142.267C104.935 142.362 104.891 142.441 104.839 142.503C104.788 142.566 104.728 142.612 104.659 142.642C104.591 142.673 104.515 142.688 104.43 142.688Z" fill="#989FAB"/>
<path d="M108.411 140.197C108.398 140.084 108.345 139.996 108.253 139.934C108.161 139.871 108.044 139.84 107.904 139.84C107.804 139.84 107.717 139.856 107.644 139.888C107.571 139.919 107.514 139.962 107.473 140.017C107.433 140.071 107.413 140.132 107.413 140.202C107.413 140.26 107.427 140.31 107.454 140.352C107.482 140.394 107.518 140.43 107.563 140.458C107.608 140.486 107.657 140.51 107.708 140.529C107.76 140.547 107.81 140.562 107.858 140.574L108.097 140.636C108.175 140.655 108.255 140.681 108.337 140.714C108.419 140.747 108.495 140.79 108.565 140.843C108.635 140.896 108.691 140.962 108.734 141.041C108.778 141.12 108.8 141.214 108.8 141.324C108.8 141.463 108.764 141.586 108.692 141.693C108.622 141.801 108.518 141.885 108.383 141.947C108.249 142.01 108.086 142.041 107.895 142.041C107.712 142.041 107.553 142.012 107.419 141.953C107.286 141.895 107.181 141.813 107.105 141.706C107.03 141.599 106.988 141.471 106.98 141.324H107.35C107.357 141.412 107.386 141.486 107.436 141.545C107.487 141.603 107.552 141.647 107.631 141.675C107.71 141.703 107.798 141.717 107.892 141.717C107.997 141.717 108.089 141.701 108.171 141.668C108.253 141.635 108.317 141.588 108.364 141.53C108.411 141.47 108.434 141.4 108.434 141.321C108.434 141.248 108.414 141.189 108.372 141.143C108.332 141.096 108.276 141.058 108.206 141.028C108.137 140.998 108.059 140.971 107.971 140.948L107.682 140.869C107.486 140.816 107.331 140.737 107.216 140.634C107.103 140.53 107.046 140.393 107.046 140.223C107.046 140.082 107.084 139.959 107.16 139.854C107.237 139.749 107.34 139.667 107.471 139.609C107.601 139.55 107.749 139.521 107.913 139.521C108.078 139.521 108.224 139.55 108.351 139.608C108.478 139.666 108.579 139.746 108.652 139.848C108.725 139.949 108.763 140.065 108.766 140.197H108.411ZM110.068 140.166V140.452H109.066V140.166H110.068ZM109.335 139.726H109.692V141.461C109.692 141.531 109.703 141.583 109.723 141.618C109.744 141.652 109.771 141.676 109.803 141.688C109.837 141.7 109.873 141.706 109.912 141.706C109.941 141.706 109.966 141.704 109.987 141.7C110.009 141.696 110.025 141.693 110.037 141.691L110.102 141.986C110.081 141.994 110.052 142.002 110.013 142.01C109.975 142.018 109.927 142.023 109.87 142.024C109.776 142.025 109.689 142.009 109.607 141.974C109.526 141.939 109.461 141.885 109.41 141.811C109.36 141.738 109.335 141.646 109.335 141.535V139.726ZM111.216 142.037C111.044 142.037 110.894 141.998 110.766 141.919C110.638 141.84 110.538 141.73 110.468 141.588C110.397 141.446 110.361 141.281 110.361 141.091C110.361 140.901 110.397 140.735 110.468 140.592C110.538 140.45 110.638 140.339 110.766 140.26C110.894 140.181 111.044 140.142 111.216 140.142C111.388 140.142 111.538 140.181 111.666 140.26C111.795 140.339 111.894 140.45 111.965 140.592C112.036 140.735 112.071 140.901 112.071 141.091C112.071 141.281 112.036 141.446 111.965 141.588C111.894 141.73 111.795 141.84 111.666 141.919C111.538 141.998 111.388 142.037 111.216 142.037ZM111.217 141.737C111.329 141.737 111.421 141.708 111.494 141.649C111.568 141.59 111.622 141.512 111.657 141.414C111.693 141.316 111.711 141.208 111.711 141.09C111.711 140.973 111.693 140.866 111.657 140.768C111.622 140.669 111.568 140.59 111.494 140.53C111.421 140.47 111.329 140.44 111.217 140.44C111.105 140.44 111.012 140.47 110.938 140.53C110.865 140.59 110.81 140.669 110.774 140.768C110.739 140.866 110.722 140.973 110.722 141.09C110.722 141.208 110.739 141.316 110.774 141.414C110.81 141.512 110.865 141.59 110.938 141.649C111.012 141.708 111.105 141.737 111.217 141.737ZM112.47 142V140.166H112.815V140.457H112.834C112.867 140.358 112.926 140.281 113.011 140.224C113.096 140.167 113.192 140.138 113.3 140.138C113.322 140.138 113.348 140.139 113.379 140.141C113.41 140.142 113.434 140.144 113.451 140.147V140.488C113.437 140.484 113.412 140.48 113.375 140.475C113.338 140.469 113.302 140.467 113.265 140.467C113.181 140.467 113.106 140.485 113.039 140.52C112.974 140.555 112.922 140.604 112.884 140.667C112.846 140.729 112.827 140.8 112.827 140.88V142H112.47ZM114.485 142.037C114.305 142.037 114.149 141.998 114.018 141.921C113.889 141.843 113.788 141.734 113.717 141.593C113.647 141.451 113.612 141.285 113.612 141.095C113.612 140.907 113.647 140.741 113.717 140.598C113.788 140.455 113.887 140.343 114.014 140.262C114.141 140.182 114.29 140.142 114.46 140.142C114.564 140.142 114.664 140.159 114.761 140.193C114.858 140.227 114.945 140.281 115.023 140.354C115.1 140.428 115.161 140.523 115.205 140.64C115.25 140.756 115.272 140.897 115.272 141.064V141.19H113.814V140.923H114.922C114.922 140.829 114.903 140.746 114.865 140.673C114.827 140.6 114.773 140.542 114.704 140.5C114.635 140.458 114.555 140.437 114.463 140.437C114.362 140.437 114.275 140.462 114.2 140.511C114.126 140.559 114.069 140.623 114.028 140.702C113.988 140.78 113.968 140.865 113.968 140.956V141.165C113.968 141.288 113.99 141.392 114.033 141.478C114.076 141.564 114.137 141.63 114.215 141.675C114.293 141.72 114.385 141.742 114.489 141.742C114.557 141.742 114.618 141.733 114.674 141.713C114.73 141.693 114.778 141.664 114.818 141.625C114.859 141.586 114.89 141.538 114.912 141.481L115.25 141.541C115.222 141.641 115.174 141.728 115.104 141.803C115.035 141.877 114.947 141.935 114.842 141.976C114.738 142.017 114.619 142.037 114.485 142.037ZM117.352 140.327C117.329 140.255 117.298 140.19 117.259 140.132C117.221 140.074 117.175 140.025 117.122 139.984C117.068 139.943 117.007 139.911 116.939 139.89C116.871 139.868 116.797 139.858 116.716 139.858C116.578 139.858 116.454 139.893 116.343 139.964C116.232 140.035 116.145 140.139 116.08 140.276C116.017 140.412 115.985 140.579 115.985 140.776C115.985 140.974 116.017 141.142 116.082 141.279C116.146 141.416 116.234 141.52 116.347 141.59C116.459 141.661 116.587 141.697 116.73 141.697C116.863 141.697 116.979 141.67 117.077 141.615C117.177 141.561 117.254 141.485 117.308 141.386C117.363 141.287 117.39 141.17 117.39 141.035L117.486 141.053H116.786V140.749H117.747V141.027C117.747 141.232 117.704 141.41 117.616 141.562C117.529 141.712 117.409 141.828 117.255 141.91C117.103 141.992 116.927 142.033 116.73 142.033C116.509 142.033 116.314 141.982 116.147 141.881C115.981 141.779 115.851 141.634 115.758 141.447C115.665 141.259 115.618 141.036 115.618 140.778C115.618 140.583 115.645 140.408 115.699 140.253C115.754 140.098 115.83 139.966 115.928 139.858C116.026 139.749 116.142 139.665 116.275 139.608C116.409 139.55 116.555 139.521 116.713 139.521C116.845 139.521 116.968 139.54 117.082 139.579C117.197 139.618 117.299 139.674 117.388 139.745C117.478 139.817 117.552 139.902 117.611 140.001C117.67 140.099 117.71 140.208 117.731 140.327H117.352ZM118.187 142V140.166H118.532V140.457H118.551C118.585 140.358 118.644 140.281 118.728 140.224C118.813 140.167 118.91 140.138 119.017 140.138C119.039 140.138 119.066 140.139 119.096 140.141C119.127 140.142 119.151 140.144 119.169 140.147V140.488C119.154 140.484 119.129 140.48 119.092 140.475C119.056 140.469 119.019 140.467 118.982 140.467C118.898 140.467 118.823 140.485 118.757 140.52C118.691 140.555 118.64 140.604 118.602 140.667C118.563 140.729 118.544 140.8 118.544 140.88V142H118.187ZM120.185 142.037C120.013 142.037 119.863 141.998 119.734 141.919C119.606 141.84 119.507 141.73 119.436 141.588C119.365 141.446 119.33 141.281 119.33 141.091C119.33 140.901 119.365 140.735 119.436 140.592C119.507 140.45 119.606 140.339 119.734 140.26C119.863 140.181 120.013 140.142 120.185 140.142C120.357 140.142 120.507 140.181 120.635 140.26C120.763 140.339 120.863 140.45 120.933 140.592C121.004 140.735 121.04 140.901 121.04 141.091C121.04 141.281 121.004 141.446 120.933 141.588C120.863 141.73 120.763 141.84 120.635 141.919C120.507 141.998 120.357 142.037 120.185 142.037ZM120.186 141.737C120.297 141.737 120.39 141.708 120.463 141.649C120.536 141.59 120.59 141.512 120.625 141.414C120.661 141.316 120.679 141.208 120.679 141.09C120.679 140.973 120.661 140.866 120.625 140.768C120.59 140.669 120.536 140.59 120.463 140.53C120.39 140.47 120.297 140.44 120.186 140.44C120.074 140.44 119.98 140.47 119.906 140.53C119.833 140.59 119.779 140.669 119.743 140.768C119.708 140.866 119.69 140.973 119.69 141.09C119.69 141.208 119.708 141.316 119.743 141.414C119.779 141.512 119.833 141.59 119.906 141.649C119.98 141.708 120.074 141.737 120.186 141.737ZM121.78 142L121.24 140.166H121.609L121.969 141.513H121.987L122.347 140.166H122.716L123.075 141.507H123.092L123.45 140.166H123.819L123.28 142H122.916L122.543 140.676H122.516L122.143 142H121.78ZM125.014 140.166V140.452H124.012V140.166H125.014ZM124.28 139.726H124.637V141.461C124.637 141.531 124.648 141.583 124.668 141.618C124.689 141.652 124.716 141.676 124.748 141.688C124.782 141.7 124.818 141.706 124.857 141.706C124.886 141.706 124.911 141.704 124.932 141.7C124.954 141.696 124.971 141.693 124.983 141.691L125.047 141.986C125.026 141.994 124.997 142.002 124.959 142.01C124.92 142.018 124.873 142.023 124.815 142.024C124.721 142.025 124.634 142.009 124.553 141.974C124.471 141.939 124.406 141.885 124.356 141.811C124.305 141.738 124.28 141.646 124.28 141.535V139.726ZM125.805 140.911V142H125.448V139.554H125.8V140.464H125.823C125.866 140.366 125.932 140.287 126.02 140.229C126.108 140.171 126.224 140.142 126.366 140.142C126.492 140.142 126.602 140.168 126.696 140.22C126.791 140.271 126.864 140.348 126.916 140.451C126.968 140.553 126.994 140.68 126.994 140.833V142H126.637V140.876C126.637 140.742 126.603 140.637 126.533 140.563C126.464 140.489 126.368 140.451 126.244 140.451C126.16 140.451 126.084 140.469 126.018 140.505C125.951 140.541 125.899 140.593 125.861 140.663C125.824 140.731 125.805 140.814 125.805 140.911Z" fill="#1B1B50"/>
<path opacity="0.4" d="M186.165 22H143.219C141.824 22 140.692 23.089 140.692 24.4324V52.5671C140.692 53.9104 141.824 54.9995 143.219 54.9995H186.165C187.561 54.9995 188.692 53.9104 188.692 52.5671V24.4324C188.692 23.089 187.561 22 186.165 22Z" fill="white"/>
<path d="M141.399 46.3412L150.422 37.4241C151.356 36.5008 152.88 36.5008 153.814 37.4241L157.425 40.9926C158.359 41.9159 159.882 41.9159 160.816 40.9926L170.428 31.4933C171.362 30.57 172.886 30.57 173.82 31.4933L187.985 45.4927C188.431 45.9336 188.692 46.5408 188.692 47.173V52.6297C188.692 53.9357 187.615 55.0004 186.294 55.0004H143.091C141.77 55.0004 140.692 53.9357 140.692 52.6297V48.0215C140.692 47.3893 140.945 46.7904 141.399 46.3412Z" fill="white"/>
<path d="M159.238 35.2015C161.045 35.2015 162.511 33.724 162.511 31.9015C162.511 30.079 161.045 28.6016 159.238 28.6016C157.43 28.6016 155.965 30.079 155.965 31.9015C155.965 33.724 157.43 35.2015 159.238 35.2015Z" fill="white"/>
<rect x="196.692" y="26" width="35" height="5" rx="2.5" fill="white"/>
<g opacity="0.4">
<rect x="196.692" y="36" width="60" height="3" rx="1.5" fill="white"/>
<rect x="196.692" y="42" width="50" height="3" rx="1.5" fill="white"/>
<rect x="196.692" y="48" width="35" height="3" rx="1.5" fill="white"/>
</g>
<path opacity="0.4" d="M186.165 68H143.219C141.824 68 140.692 69.089 140.692 70.4324V98.5671C140.692 99.9104 141.824 100.999 143.219 100.999H186.165C187.561 100.999 188.692 99.9104 188.692 98.5671V70.4324C188.692 69.089 187.561 68 186.165 68Z" fill="white"/>
<path d="M141.399 92.3412L150.422 83.4241C151.356 82.5008 152.88 82.5008 153.814 83.4241L157.425 86.9926C158.359 87.9159 159.882 87.9159 160.816 86.9926L170.428 77.4933C171.362 76.57 172.886 76.57 173.82 77.4933L187.985 91.4927C188.431 91.9336 188.692 92.5408 188.692 93.173V98.6297C188.692 99.9357 187.615 101 186.294 101H143.091C141.77 101 140.692 99.9357 140.692 98.6297V94.0215C140.692 93.3893 140.945 92.7904 141.399 92.3412Z" fill="white"/>
<path d="M159.238 81.2015C161.045 81.2015 162.511 79.724 162.511 77.9015C162.511 76.079 161.045 74.6016 159.238 74.6016C157.43 74.6016 155.965 76.079 155.965 77.9015C155.965 79.724 157.43 81.2015 159.238 81.2015Z" fill="white"/>
<rect x="196.692" y="72" width="35" height="5" rx="2.5" fill="white"/>
<rect opacity="0.4" x="196.692" y="82" width="60" height="3" rx="1.5" fill="white"/>
<rect opacity="0.4" x="196.692" y="88" width="50" height="3" rx="1.5" fill="white"/>
<rect opacity="0.4" x="196.692" y="94" width="35" height="3" rx="1.5" fill="white"/>
<path opacity="0.2" d="M325.07 22H276.03C273.634 22 271.692 23.9489 271.692 26.3529V96.2525C271.692 98.6565 273.634 100.605 276.03 100.605H325.07C327.465 100.605 329.407 98.6565 329.407 96.2525V26.3529C329.407 23.9489 327.465 22 325.07 22Z" stroke="white" stroke-miterlimit="10"/>
<path d="M316.065 66.5312H277.93C276.761 66.5312 275.813 67.4823 275.813 68.6555C275.813 69.8287 276.761 70.7797 277.93 70.7797H316.065C317.234 70.7797 318.182 69.8287 318.182 68.6555C318.182 67.4823 317.234 66.5312 316.065 66.5312Z" fill="white"/>
<path d="M306.679 74.3223H277.93C276.761 74.3223 275.813 75.2733 275.813 76.4465C275.813 77.6197 276.761 78.5707 277.93 78.5707H306.679C307.848 78.5707 308.795 77.6197 308.795 76.4465C308.795 75.2733 307.848 74.3223 306.679 74.3223Z" fill="white"/>
<path opacity="0.4" d="M322.641 26.1348H278.415C276.978 26.1348 275.813 27.3041 275.813 28.7465V58.9559C275.813 60.3984 276.978 61.5677 278.415 61.5677H322.641C324.078 61.5677 325.243 60.3984 325.243 58.9559V28.7465C325.243 27.3041 324.078 26.1348 322.641 26.1348Z" fill="white"/>
<path d="M276.533 52.505L285.832 43.1723C286.795 42.2059 288.366 42.2059 289.329 43.1723L293.05 46.9071C294.013 47.8735 295.583 47.8735 296.546 46.9071L306.453 36.965C307.416 35.9986 308.986 35.9986 309.949 36.965L324.549 51.617C325.009 52.0784 325.278 52.7139 325.278 53.3756V59.0866C325.278 60.4535 324.167 61.5678 322.805 61.5678H278.285C276.923 61.5678 275.813 60.4535 275.813 59.0866V54.2636C275.813 53.6019 276.073 52.9751 276.542 52.505H276.533Z" fill="white"/>
<path d="M294.802 39.6648C296.92 39.6648 298.637 37.9419 298.637 35.8168C298.637 33.6916 296.92 31.9688 294.802 31.9688C292.685 31.9688 290.968 33.6916 290.968 35.8168C290.968 37.9419 292.685 39.6648 294.802 39.6648Z" fill="white"/>
<path opacity="0.4" d="M296.555 86.5449H280.749C278.023 86.5449 275.813 88.7627 275.813 91.4986V91.516C275.813 94.2518 278.023 96.4696 280.749 96.4696H296.555C299.281 96.4696 301.491 94.2518 301.491 91.516V91.4986C301.491 88.7627 299.281 86.5449 296.555 86.5449Z" fill="white"/>
<path d="M292.434 90.0879H284.861C284.08 90.0879 283.447 90.7232 283.447 91.5069C283.447 92.2907 284.08 92.926 284.861 92.926H292.434C293.215 92.926 293.848 92.2907 293.848 91.5069C293.848 90.7232 293.215 90.0879 292.434 90.0879Z" fill="white"/>
<defs>
<linearGradient id="paint0_linear_2248_189" x1="1.90726e-07" y1="91" x2="347" y2="91" gradientUnits="userSpaceOnUse">
<stop stop-color="#B468FF"/>
<stop offset="1" stop-color="#6F40F4"/>
</linearGradient>
<linearGradient id="paint1_linear_2248_189" x1="119" y1="-48" x2="119" y2="28" gradientUnits="userSpaceOnUse">
<stop stop-color="#8555FF"/>
<stop offset="1" stop-color="white"/>
</linearGradient>
<linearGradient id="paint2_linear_2248_189" x1="313.5" y1="120" x2="313.5" y2="207" gradientUnits="userSpaceOnUse">
<stop stop-color="white"/>
<stop offset="1" stop-color="#8555FF" stop-opacity="0"/>
</linearGradient>
<linearGradient id="paint3_linear_2248_189" x1="175.5" y1="111" x2="175.5" y2="146" gradientUnits="userSpaceOnUse">
<stop offset="0.244792" stop-color="#8555FF"/>
<stop offset="1" stop-color="white"/>
</linearGradient>
</defs>
</svg>
