<svg width="38" height="36" viewBox="0 0 38 36" fill="none" xmlns="http://www.w3.org/2000/svg">
<g clip-path="url(#clip0_646_3885)">
<path d="M35.15 0H2.85C2.09413 0 1.36923 0.301976 0.834751 0.839501C0.300272 1.37703 0 2.10607 0 2.86624V25.7962C0 26.5563 0.300272 27.2854 0.834751 27.8229C1.36923 28.3604 2.09413 28.6624 2.85 28.6624H14.0838L12.3548 33.4395C12.2503 33.7279 12.2165 34.0374 12.2562 34.3417C12.2959 34.6461 12.4079 34.9363 12.5828 35.1879C12.7579 35.4401 12.991 35.6461 13.2622 35.7883C13.5335 35.9305 13.8349 36.0048 14.1408 36.0048H23.8593C24.1652 36.0048 24.4665 35.9305 24.7378 35.7883C25.009 35.6461 25.2421 35.4401 25.4173 35.1879C25.5921 34.9363 25.7041 34.6461 25.7438 34.3417C25.7835 34.0374 25.7497 33.7279 25.6453 33.4395L23.921 28.6624H35.15C35.9059 28.6624 36.6308 28.3604 37.1653 27.8229C37.6997 27.2854 38 26.5563 38 25.7962V2.86624C38 2.10607 37.6997 1.37703 37.1653 0.839501C36.6308 0.301976 35.9059 0 35.15 0ZM23.864 34.0892H14.1408L16.1025 28.6624H21.8975L23.864 34.0892ZM36.1 25.7962C36.1 26.0496 35.9999 26.2926 35.8218 26.4718C35.6436 26.6509 35.402 26.7516 35.15 26.7516H2.85C2.59804 26.7516 2.35641 26.6509 2.17826 26.4718C2.0001 26.2926 1.9 26.0496 1.9 25.7962V2.86624C1.9 2.61285 2.0001 2.36984 2.17826 2.19066C2.35641 2.01149 2.59804 1.91083 2.85 1.91083H35.15C35.402 1.91083 35.6436 2.01149 35.8218 2.19066C35.9999 2.36984 36.1 2.61285 36.1 2.86624V25.7962Z" fill="#0875FF"/>
<path d="M19.9498 15.2852H8.5498C7.29003 15.2852 6.08185 15.7885 5.19105 16.6843C4.30025 17.5802 3.7998 18.7953 3.7998 20.0622C3.7998 21.3292 4.30025 22.5443 5.19105 23.4401C6.08185 24.336 7.29003 24.8393 8.5498 24.8393H19.9498C21.2096 24.8393 22.4178 24.336 23.3086 23.4401C24.1994 22.5443 24.6998 21.3292 24.6998 20.0622C24.6998 18.7953 24.1994 17.5802 23.3086 16.6843C22.4178 15.7885 21.2096 15.2852 19.9498 15.2852ZM19.9498 22.9285H8.5498C7.79394 22.9285 7.06903 22.6265 6.53456 22.089C6.00008 21.5514 5.6998 20.8224 5.6998 20.0622C5.6998 19.3021 6.00008 18.573 6.53456 18.0355C7.06903 17.498 7.79394 17.196 8.5498 17.196H19.9498C20.7057 17.196 21.4306 17.498 21.9651 18.0355C22.4995 18.573 22.7998 19.3021 22.7998 20.0622C22.7998 20.8224 22.4995 21.5514 21.9651 22.089C21.4306 22.6265 20.7057 22.9285 19.9498 22.9285Z" fill="#0875FF"/>
<path d="M15.4233 19.1094H8.5501C8.29814 19.1094 8.05651 19.21 7.87835 19.3892C7.70019 19.5684 7.6001 19.8114 7.6001 20.0648C7.6001 20.3182 7.70019 20.5612 7.87835 20.7404C8.05651 20.9195 8.29814 21.0202 8.5501 21.0202H15.4233C15.6753 21.0202 15.9169 20.9195 16.0951 20.7404C16.2733 20.5612 16.3733 20.3182 16.3733 20.0648C16.3733 19.8114 16.2733 19.5684 16.0951 19.3892C15.9169 19.21 15.6753 19.1094 15.4233 19.1094Z" fill="#0875FF"/>
<path d="M29.3121 4.77734H4.7498C4.49785 4.77734 4.25622 4.878 4.07806 5.05718C3.8999 5.23635 3.7998 5.47937 3.7998 5.73276C3.7998 5.98615 3.8999 6.22916 4.07806 6.40834C4.25622 6.58751 4.49785 6.68817 4.7498 6.68817H29.3121C29.564 6.68817 29.8057 6.58751 29.9838 6.40834C30.162 6.22916 30.2621 5.98615 30.2621 5.73276C30.2621 5.47937 30.162 5.23635 29.9838 5.05718C29.8057 4.878 29.564 4.77734 29.3121 4.77734Z" fill="#0875FF"/>
<path d="M18.9998 10.5085C19.2518 10.5085 19.4934 10.4078 19.6716 10.2287C19.8497 10.0495 19.9498 9.80646 19.9498 9.55307C19.9498 9.29968 19.8497 9.05666 19.6716 8.87749C19.4934 8.69831 19.2518 8.59766 18.9998 8.59766H4.7498C4.49785 8.59766 4.25622 8.69831 4.07806 8.87749C3.8999 9.05666 3.7998 9.29968 3.7998 9.55307C3.7998 9.80646 3.8999 10.0495 4.07806 10.2287C4.25622 10.4078 4.49785 10.5085 4.7498 10.5085H18.9998Z" fill="#0875FF"/>
</g>
<defs>
<clipPath id="clip0_646_3885">
<rect width="38" height="36" fill="white"/>
</clipPath>
</defs>
</svg>
