<svg width="520" height="193" viewBox="0 0 520 193" fill="none" xmlns="http://www.w3.org/2000/svg">
<rect width="520" height="193" rx="6" fill="#EBF6FF"/>
<path d="M162.327 121.84C159.014 121.84 156.027 121.327 153.367 120.3C150.707 119.227 148.444 117.663 146.577 115.61C144.711 113.51 143.264 110.92 142.237 107.84C141.211 104.713 140.697 101.073 140.697 96.92C140.697 92.8133 141.211 89.1733 142.237 86C143.264 82.78 144.711 80.0967 146.577 77.95C148.444 75.7567 150.707 74.1 153.367 72.98C156.027 71.86 159.014 71.3 162.327 71.3C166.854 71.3 170.587 72.2333 173.527 74.1C176.467 75.92 178.824 78.8133 180.597 82.78L171.427 87.54C170.774 85.4867 169.747 83.8533 168.347 82.64C166.994 81.38 164.987 80.75 162.327 80.75C159.201 80.75 156.681 81.7767 154.767 83.83C152.901 85.8367 151.967 88.7767 151.967 92.65V100.49C151.967 104.363 152.901 107.327 154.767 109.38C156.681 111.387 159.201 112.39 162.327 112.39C164.941 112.39 167.017 111.69 168.557 110.29C170.144 108.843 171.311 107.117 172.057 105.11L180.737 110.15C178.917 113.883 176.514 116.777 173.527 118.83C170.587 120.837 166.854 121.84 162.327 121.84ZM208.323 114.84H207.973C207.646 115.773 207.203 116.66 206.643 117.5C206.13 118.34 205.453 119.087 204.613 119.74C203.773 120.393 202.77 120.907 201.603 121.28C200.483 121.653 199.176 121.84 197.683 121.84C193.903 121.84 191.033 120.603 189.073 118.13C187.16 115.61 186.203 112.017 186.203 107.35V84.25H196.563V106.44C196.563 108.68 196.96 110.407 197.753 111.62C198.546 112.833 199.9 113.44 201.813 113.44C202.606 113.44 203.4 113.323 204.193 113.09C204.986 112.857 205.686 112.53 206.293 112.11C206.9 111.643 207.39 111.083 207.763 110.43C208.136 109.777 208.323 109.007 208.323 108.12V84.25H218.683V121H208.323V114.84ZM239.782 121.84C236.236 121.84 233.249 121.28 230.822 120.16C228.396 118.993 226.226 117.36 224.312 115.26L230.402 109.1C231.709 110.547 233.156 111.69 234.742 112.53C236.329 113.37 238.126 113.79 240.132 113.79C242.186 113.79 243.609 113.487 244.402 112.88C245.196 112.227 245.592 111.363 245.592 110.29C245.592 108.563 244.356 107.537 241.882 107.21L237.892 106.72C229.632 105.693 225.502 101.913 225.502 95.38C225.502 93.6067 225.829 91.9967 226.482 90.55C227.182 89.0567 228.139 87.7967 229.352 86.77C230.612 85.6967 232.106 84.88 233.832 84.32C235.606 83.7133 237.589 83.41 239.782 83.41C241.696 83.41 243.376 83.55 244.822 83.83C246.316 84.0633 247.622 84.4367 248.742 84.95C249.909 85.4167 250.959 86.0233 251.892 86.77C252.872 87.47 253.829 88.2633 254.762 89.15L248.812 95.24C247.646 94.0733 246.316 93.1633 244.822 92.51C243.376 91.81 241.882 91.46 240.342 91.46C238.569 91.46 237.309 91.74 236.562 92.3C235.816 92.86 235.442 93.6067 235.442 94.54C235.442 95.52 235.699 96.29 236.212 96.85C236.772 97.3633 237.799 97.7367 239.292 97.97L243.422 98.53C251.496 99.6033 255.532 103.29 255.532 109.59C255.532 111.363 255.159 112.997 254.412 114.49C253.666 115.983 252.592 117.29 251.192 118.41C249.839 119.483 248.182 120.323 246.222 120.93C244.309 121.537 242.162 121.84 239.782 121.84ZM273.929 121C270.335 121 267.605 120.09 265.739 118.27C263.919 116.45 263.009 113.79 263.009 110.29V92.3H257.829V84.25H260.419C261.819 84.25 262.775 83.9233 263.289 83.27C263.802 82.57 264.059 81.59 264.059 80.33V74.31H273.369V84.25H280.649V92.3H273.369V112.95H280.089V121H273.929ZM301.482 121.84C298.776 121.84 296.349 121.397 294.202 120.51C292.102 119.623 290.306 118.34 288.812 116.66C287.366 114.98 286.246 112.95 285.452 110.57C284.659 108.19 284.262 105.53 284.262 102.59C284.262 99.65 284.659 96.99 285.452 94.61C286.246 92.23 287.366 90.2233 288.812 88.59C290.306 86.91 292.102 85.6267 294.202 84.74C296.349 83.8533 298.776 83.41 301.482 83.41C304.189 83.41 306.592 83.8533 308.692 84.74C310.839 85.6267 312.636 86.91 314.082 88.59C315.576 90.2233 316.719 92.23 317.512 94.61C318.306 96.99 318.702 99.65 318.702 102.59C318.702 105.53 318.306 108.19 317.512 110.57C316.719 112.95 315.576 114.98 314.082 116.66C312.636 118.34 310.839 119.623 308.692 120.51C306.592 121.397 304.189 121.84 301.482 121.84ZM301.482 113.65C303.536 113.65 305.122 113.02 306.242 111.76C307.362 110.5 307.922 108.703 307.922 106.37V98.88C307.922 96.5467 307.362 94.75 306.242 93.49C305.122 92.23 303.536 91.6 301.482 91.6C299.429 91.6 297.842 92.23 296.722 93.49C295.602 94.75 295.042 96.5467 295.042 98.88V106.37C295.042 108.703 295.602 110.5 296.722 111.76C297.842 113.02 299.429 113.65 301.482 113.65ZM325.084 121V84.25H335.444V90.48H335.864C336.517 88.52 337.637 86.8633 339.224 85.51C340.811 84.11 342.981 83.41 345.734 83.41C348.254 83.41 350.401 84.04 352.174 85.3C353.947 86.56 355.231 88.4033 356.024 90.83H356.234C356.561 89.8033 357.051 88.8467 357.704 87.96C358.404 87.0267 359.244 86.2333 360.224 85.58C361.204 84.9267 362.301 84.4133 363.514 84.04C364.727 83.62 366.034 83.41 367.434 83.41C370.981 83.41 373.687 84.67 375.554 87.19C377.467 89.71 378.424 93.3033 378.424 97.97V121H368.064V98.81C368.064 94.1433 366.384 91.81 363.024 91.81C361.484 91.81 360.084 92.2533 358.824 93.14C357.564 94.0267 356.934 95.38 356.934 97.2V121H346.574V98.81C346.574 94.1433 344.894 91.81 341.534 91.81C340.787 91.81 340.041 91.9267 339.294 92.16C338.594 92.3467 337.941 92.6733 337.334 93.14C336.774 93.6067 336.307 94.19 335.934 94.89C335.607 95.5433 335.444 96.3133 335.444 97.2V121H325.084Z" fill="#073B4C"/>
</svg>
