<svg width="520" height="193" viewBox="0 0 520 193" fill="none" xmlns="http://www.w3.org/2000/svg">
<rect width="520" height="193" rx="8" fill="white"/>
<rect x="165" y="141" width="2" height="2" rx="1" fill="#008DFF"/>
<rect x="165" y="147" width="2" height="2" rx="1" fill="#008DFF"/>
<rect x="259" y="141" width="2" height="2" rx="1" fill="#008DFF"/>
<rect x="259" y="147" width="2" height="2" rx="1" fill="#008DFF"/>
<rect x="353" y="141" width="2" height="2" rx="1" fill="#008DFF"/>
<rect x="353" y="147" width="2" height="2" rx="1" fill="#008DFF"/>
<path d="M188.941 53.3977C187.047 53.3977 185.352 53.0426 183.856 52.3324C182.36 51.6127 181.171 50.6278 180.29 49.3778C179.419 48.1278 178.955 46.6979 178.898 45.0881H184.012C184.107 46.2812 184.623 47.2566 185.56 48.0142C186.498 48.7623 187.625 49.1364 188.941 49.1364C189.973 49.1364 190.892 48.8996 191.697 48.4261C192.502 47.9527 193.136 47.2945 193.6 46.4517C194.064 45.6089 194.291 44.6477 194.282 43.5682C194.291 42.4697 194.059 41.4943 193.586 40.642C193.112 39.7898 192.464 39.1222 191.64 38.6392C190.816 38.1468 189.869 37.9006 188.799 37.9006C187.928 37.8911 187.071 38.0521 186.228 38.3835C185.385 38.715 184.718 39.1506 184.225 39.6903L179.467 38.9091L180.987 23.9091H197.862V28.3125H185.347L184.509 36.0256H184.68C185.219 35.3911 185.982 34.8655 186.967 34.4489C187.951 34.0227 189.031 33.8097 190.205 33.8097C191.967 33.8097 193.539 34.2263 194.921 35.0597C196.304 35.8835 197.393 37.0199 198.188 38.4688C198.984 39.9176 199.381 41.5748 199.381 43.4403C199.381 45.3627 198.936 47.0767 198.046 48.5824C197.165 50.0786 195.939 51.2576 194.367 52.1193C192.805 52.9716 190.996 53.3977 188.941 53.3977ZM213.893 53.554C211.554 53.554 209.546 52.9621 207.87 51.7784C206.203 50.5852 204.92 48.8665 204.021 46.6222C203.13 44.3684 202.685 41.6553 202.685 38.483C202.695 35.3106 203.145 32.6117 204.035 30.3864C204.934 28.1515 206.218 26.447 207.884 25.2727C209.56 24.0985 211.563 23.5114 213.893 23.5114C216.222 23.5114 218.225 24.0985 219.901 25.2727C221.577 26.447 222.861 28.1515 223.751 30.3864C224.65 32.6212 225.1 35.3201 225.1 38.483C225.1 41.6648 224.65 44.3826 223.751 46.6364C222.861 48.8807 221.577 50.5947 219.901 51.7784C218.235 52.9621 216.232 53.554 213.893 53.554ZM213.893 49.108C215.711 49.108 217.146 48.2131 218.197 46.4233C219.257 44.6241 219.788 41.9773 219.788 38.483C219.788 36.1723 219.546 34.2311 219.063 32.6591C218.58 31.0871 217.898 29.9034 217.018 29.108C216.137 28.303 215.095 27.9006 213.893 27.9006C212.084 27.9006 210.654 28.8002 209.603 30.5994C208.552 32.3892 208.022 35.017 208.012 38.483C208.003 40.803 208.235 42.7538 208.708 44.3352C209.191 45.9167 209.873 47.1098 210.754 47.9148C211.634 48.7102 212.681 49.108 213.893 49.108ZM244.374 47.5455V46.0114C244.374 44.8845 244.61 43.8475 245.084 42.9006C245.567 41.9536 246.268 41.1913 247.186 40.6136C248.105 40.036 249.217 39.7472 250.524 39.7472C251.869 39.7472 252.996 40.036 253.905 40.6136C254.814 41.1818 255.5 41.9394 255.964 42.8864C256.438 43.8333 256.675 44.875 256.675 46.0114V47.5455C256.675 48.6723 256.438 49.7093 255.964 50.6562C255.491 51.6032 254.795 52.3655 253.876 52.9432C252.967 53.5208 251.85 53.8097 250.524 53.8097C249.198 53.8097 248.076 53.5208 247.158 52.9432C246.239 52.3655 245.543 51.6032 245.07 50.6562C244.606 49.7093 244.374 48.6723 244.374 47.5455ZM248.081 46.0114V47.5455C248.081 48.2936 248.261 48.9801 248.621 49.6051C248.981 50.2301 249.615 50.5426 250.524 50.5426C251.443 50.5426 252.072 50.2348 252.413 49.6193C252.764 48.9943 252.939 48.303 252.939 47.5455V46.0114C252.939 45.2538 252.773 44.5625 252.442 43.9375C252.11 43.303 251.471 42.9858 250.524 42.9858C249.634 42.9858 249.004 43.303 248.635 43.9375C248.266 44.5625 248.081 45.2538 248.081 46.0114ZM229.587 30.8977V29.3636C229.587 28.2273 229.828 27.1856 230.311 26.2386C230.794 25.2917 231.495 24.5341 232.413 23.9659C233.332 23.3883 234.445 23.0994 235.751 23.0994C237.087 23.0994 238.209 23.3883 239.118 23.9659C240.036 24.5341 240.728 25.2917 241.192 26.2386C241.656 27.1856 241.888 28.2273 241.888 29.3636V30.8977C241.888 32.0341 241.651 33.0758 241.178 34.0227C240.714 34.9602 240.022 35.7131 239.104 36.2812C238.185 36.8494 237.068 37.1335 235.751 37.1335C234.416 37.1335 233.289 36.8494 232.371 36.2812C231.462 35.7131 230.77 34.9555 230.297 34.0085C229.823 33.0616 229.587 32.0246 229.587 30.8977ZM233.322 29.3636V30.8977C233.322 31.6553 233.498 32.3466 233.848 32.9716C234.208 33.5871 234.842 33.8949 235.751 33.8949C236.661 33.8949 237.286 33.5871 237.626 32.9716C237.977 32.3466 238.152 31.6553 238.152 30.8977V29.3636C238.152 28.6061 237.986 27.9148 237.655 27.2898C237.323 26.6553 236.689 26.3381 235.751 26.3381C234.852 26.3381 234.222 26.6553 233.862 27.2898C233.502 27.9242 233.322 28.6155 233.322 29.3636ZM231.206 53L251.206 23.9091H254.757L234.757 53H231.206ZM296.77 38.4545C296.77 41.589 296.183 44.2737 295.009 46.5085C293.844 48.7339 292.253 50.4384 290.236 51.6222C288.228 52.8059 285.951 53.3977 283.403 53.3977C280.856 53.3977 278.574 52.8059 276.557 51.6222C274.549 50.429 272.958 48.7197 271.784 46.4943C270.619 44.2595 270.037 41.5795 270.037 38.4545C270.037 35.3201 270.619 32.6402 271.784 30.4148C272.958 28.1799 274.549 26.4706 276.557 25.2869C278.574 24.1032 280.856 23.5114 283.403 23.5114C285.951 23.5114 288.228 24.1032 290.236 25.2869C292.253 26.4706 293.844 28.1799 295.009 30.4148C296.183 32.6402 296.77 35.3201 296.77 38.4545ZM291.472 38.4545C291.472 36.2481 291.126 34.3873 290.435 32.8722C289.753 31.3475 288.806 30.197 287.594 29.4205C286.382 28.6345 284.985 28.2415 283.403 28.2415C281.822 28.2415 280.425 28.6345 279.213 29.4205C278.001 30.197 277.049 31.3475 276.358 32.8722C275.676 34.3873 275.335 36.2481 275.335 38.4545C275.335 40.661 275.676 42.5265 276.358 44.0511C277.049 45.5663 278.001 46.7169 279.213 47.5028C280.425 48.2794 281.822 48.6676 283.403 48.6676C284.985 48.6676 286.382 48.2794 287.594 47.5028C288.806 46.7169 289.753 45.5663 290.435 44.0511C291.126 42.5265 291.472 40.661 291.472 38.4545ZM300.752 53V23.9091H319.388V28.3267H306.022V36.2244H318.11V40.642H306.022V53H300.752ZM323.19 53V23.9091H341.826V28.3267H328.46V36.2244H340.548V40.642H328.46V53H323.19Z" fill="#008DFF"/>
<path d="M204.333 81V69.3636H206.089V79.4886H211.362V81H204.333ZM214.941 81H213.077L217.265 69.3636H219.293L223.481 81H221.617L218.327 71.4773H218.237L214.941 81ZM215.254 76.4432H221.299V77.9205H215.254V76.4432ZM231.414 72.4205C231.353 71.8826 231.103 71.4659 230.664 71.1705C230.225 70.8712 229.672 70.7216 229.005 70.7216C228.528 70.7216 228.115 70.7973 227.766 70.9489C227.418 71.0966 227.147 71.3011 226.954 71.5625C226.764 71.8201 226.67 72.1136 226.67 72.4432C226.67 72.7197 226.734 72.9583 226.863 73.1591C226.996 73.3598 227.168 73.5284 227.38 73.6648C227.596 73.7973 227.827 73.9091 228.073 74C228.319 74.0871 228.556 74.1591 228.783 74.2159L229.92 74.5114C230.291 74.6023 230.672 74.7254 231.062 74.8807C231.452 75.036 231.814 75.2405 232.147 75.4943C232.48 75.7481 232.749 76.0625 232.954 76.4375C233.162 76.8125 233.266 77.2614 233.266 77.7841C233.266 78.4432 233.096 79.0284 232.755 79.5398C232.418 80.0511 231.927 80.4545 231.283 80.75C230.643 81.0455 229.869 81.1932 228.96 81.1932C228.088 81.1932 227.335 81.0549 226.698 80.7784C226.062 80.5019 225.564 80.1098 225.204 79.6023C224.844 79.0909 224.645 78.4848 224.607 77.7841H226.369C226.403 78.2045 226.539 78.5549 226.778 78.8352C227.02 79.1117 227.329 79.3182 227.704 79.4545C228.083 79.5871 228.497 79.6534 228.948 79.6534C229.444 79.6534 229.886 79.5758 230.272 79.4205C230.662 79.2614 230.969 79.0417 231.192 78.7614C231.416 78.4773 231.528 78.1458 231.528 77.767C231.528 77.4223 231.429 77.1402 231.232 76.9205C231.039 76.7008 230.776 76.5189 230.442 76.375C230.113 76.2311 229.74 76.1042 229.323 75.9943L227.948 75.6193C227.016 75.3655 226.278 74.9924 225.732 74.5C225.191 74.0076 224.92 73.3561 224.92 72.5455C224.92 71.875 225.102 71.2898 225.465 70.7898C225.829 70.2898 226.321 69.9015 226.942 69.625C227.564 69.3447 228.264 69.2045 229.045 69.2045C229.833 69.2045 230.528 69.3428 231.13 69.6193C231.736 69.8958 232.213 70.2765 232.562 70.7614C232.91 71.2424 233.092 71.7955 233.107 72.4205H231.414ZM234.79 70.875V69.3636H243.796V70.875H240.165V81H238.415V70.875H234.79ZM259.685 73.1477H257.913C257.844 72.7689 257.718 72.4356 257.532 72.1477C257.346 71.8598 257.119 71.6155 256.85 71.4148C256.581 71.214 256.28 71.0625 255.947 70.9602C255.617 70.858 255.267 70.8068 254.896 70.8068C254.225 70.8068 253.625 70.9754 253.094 71.3125C252.568 71.6496 252.151 72.1439 251.844 72.7955C251.541 73.447 251.39 74.2424 251.39 75.1818C251.39 76.1288 251.541 76.928 251.844 77.5795C252.151 78.2311 252.57 78.7235 253.1 79.0568C253.63 79.3902 254.227 79.5568 254.89 79.5568C255.257 79.5568 255.606 79.5076 255.935 79.4091C256.269 79.3068 256.57 79.1572 256.839 78.9602C257.108 78.7633 257.335 78.5227 257.521 78.2386C257.71 77.9508 257.841 77.6212 257.913 77.25L259.685 77.2557C259.591 77.8277 259.407 78.3542 259.134 78.8352C258.865 79.3125 258.519 79.7254 258.094 80.0739C257.674 80.4186 257.193 80.6856 256.651 80.875C256.11 81.0644 255.519 81.1591 254.879 81.1591C253.871 81.1591 252.973 80.9205 252.185 80.4432C251.397 79.9621 250.776 79.2746 250.322 78.3807C249.871 77.4867 249.646 76.4205 249.646 75.1818C249.646 73.9394 249.873 72.8731 250.327 71.983C250.782 71.089 251.403 70.4034 252.191 69.9261C252.979 69.4451 253.875 69.2045 254.879 69.2045C255.496 69.2045 256.072 69.2936 256.606 69.4716C257.144 69.6458 257.627 69.9034 258.055 70.2443C258.483 70.5814 258.837 70.9943 259.117 71.483C259.397 71.9678 259.587 72.5227 259.685 73.1477ZM261.786 81V69.3636H263.542V74.4205H269.343V69.3636H271.104V81H269.343V75.9261H263.542V81H261.786ZM274.644 81H272.781L276.968 69.3636H278.996L283.184 81H281.32L278.031 71.4773H277.94L274.644 81ZM274.957 76.4432H281.002V77.9205H274.957V76.4432ZM294.256 69.3636V81H292.643L286.728 72.4659H286.62V81H284.864V69.3636H286.489L292.41 77.9091H292.518V69.3636H294.256ZM306.482 73.1477H304.71C304.641 72.7689 304.514 72.4356 304.329 72.1477C304.143 71.8598 303.916 71.6155 303.647 71.4148C303.378 71.214 303.077 71.0625 302.744 70.9602C302.414 70.858 302.064 70.8068 301.692 70.8068C301.022 70.8068 300.422 70.9754 299.891 71.3125C299.365 71.6496 298.948 72.1439 298.641 72.7955C298.338 73.447 298.187 74.2424 298.187 75.1818C298.187 76.1288 298.338 76.928 298.641 77.5795C298.948 78.2311 299.367 78.7235 299.897 79.0568C300.427 79.3902 301.024 79.5568 301.687 79.5568C302.054 79.5568 302.403 79.5076 302.732 79.4091C303.066 79.3068 303.367 79.1572 303.636 78.9602C303.905 78.7633 304.132 78.5227 304.317 78.2386C304.507 77.9508 304.638 77.6212 304.71 77.25L306.482 77.2557C306.388 77.8277 306.204 78.3542 305.931 78.8352C305.662 79.3125 305.316 79.7254 304.891 80.0739C304.471 80.4186 303.99 80.6856 303.448 80.875C302.906 81.0644 302.316 81.1591 301.675 81.1591C300.668 81.1591 299.77 80.9205 298.982 80.4432C298.194 79.9621 297.573 79.2746 297.119 78.3807C296.668 77.4867 296.442 76.4205 296.442 75.1818C296.442 73.9394 296.67 72.8731 297.124 71.983C297.579 71.089 298.2 70.4034 298.988 69.9261C299.776 69.4451 300.672 69.2045 301.675 69.2045C302.293 69.2045 302.869 69.2936 303.403 69.4716C303.941 69.6458 304.424 69.9034 304.852 70.2443C305.28 70.5814 305.634 70.9943 305.914 71.483C306.194 71.9678 306.384 72.5227 306.482 73.1477ZM308.583 81V69.3636H315.879V70.875H310.339V74.4205H315.498V75.9261H310.339V79.4886H315.947V81H308.583Z" fill="#989FAB"/>
<rect x="87.5" y="105.5" width="63" height="63" rx="7.5" fill="white"/>
<path d="M111.275 136.239C110.105 136.239 109.059 136.037 108.139 135.634C107.224 135.23 106.5 134.67 105.966 133.955C105.437 133.233 105.153 132.398 105.113 131.449H107.789C107.824 131.966 107.997 132.415 108.309 132.795C108.627 133.17 109.042 133.46 109.554 133.665C110.065 133.869 110.633 133.972 111.258 133.972C111.946 133.972 112.554 133.852 113.082 133.614C113.616 133.375 114.034 133.043 114.335 132.616C114.636 132.185 114.787 131.688 114.787 131.125C114.787 130.54 114.636 130.026 114.335 129.582C114.039 129.134 113.605 128.781 113.031 128.526C112.463 128.27 111.775 128.142 110.968 128.142H109.494V125.994H110.968C111.616 125.994 112.184 125.878 112.673 125.645C113.167 125.412 113.554 125.088 113.832 124.673C114.11 124.253 114.25 123.761 114.25 123.199C114.25 122.659 114.127 122.19 113.883 121.793C113.645 121.389 113.304 121.074 112.86 120.847C112.423 120.619 111.906 120.506 111.309 120.506C110.741 120.506 110.21 120.611 109.716 120.821C109.227 121.026 108.829 121.321 108.522 121.707C108.216 122.088 108.051 122.545 108.028 123.08H105.48C105.508 122.136 105.787 121.307 106.315 120.591C106.849 119.875 107.554 119.315 108.429 118.912C109.304 118.509 110.275 118.307 111.343 118.307C112.463 118.307 113.429 118.526 114.241 118.963C115.059 119.395 115.69 119.972 116.133 120.693C116.582 121.415 116.804 122.205 116.798 123.062C116.804 124.04 116.531 124.869 115.98 125.551C115.434 126.233 114.707 126.69 113.798 126.923V127.06C114.957 127.236 115.855 127.696 116.491 128.44C117.133 129.185 117.451 130.108 117.446 131.21C117.451 132.17 117.184 133.031 116.645 133.793C116.11 134.554 115.38 135.153 114.454 135.591C113.528 136.023 112.468 136.239 111.275 136.239ZM126.744 136.29C125.397 136.284 124.247 135.929 123.292 135.224C122.338 134.52 121.608 133.494 121.102 132.148C120.596 130.801 120.343 129.179 120.343 127.281C120.343 125.389 120.596 123.773 121.102 122.432C121.613 121.091 122.346 120.068 123.301 119.364C124.261 118.659 125.409 118.307 126.744 118.307C128.079 118.307 129.224 118.662 130.179 119.372C131.133 120.077 131.863 121.099 132.369 122.44C132.88 123.776 133.136 125.389 133.136 127.281C133.136 129.185 132.883 130.81 132.377 132.156C131.872 133.497 131.142 134.523 130.187 135.233C129.233 135.938 128.085 136.29 126.744 136.29ZM126.744 134.014C127.926 134.014 128.849 133.438 129.514 132.284C130.184 131.131 130.52 129.463 130.52 127.281C130.52 125.832 130.366 124.608 130.059 123.608C129.758 122.602 129.324 121.841 128.755 121.324C128.193 120.801 127.522 120.54 126.744 120.54C125.568 120.54 124.645 121.119 123.974 122.278C123.304 123.437 122.966 125.105 122.96 127.281C122.96 128.736 123.11 129.966 123.412 130.972C123.718 131.972 124.153 132.73 124.716 133.247C125.278 133.759 125.954 134.014 126.744 134.014Z" fill="#1B1B50"/>
<path d="M104.217 155H101.524V146.273H104.336C105.183 146.273 105.907 146.447 106.509 146.797C107.112 147.143 107.573 147.642 107.894 148.293C108.215 148.94 108.376 149.716 108.376 150.619C108.376 151.528 108.214 152.311 107.89 152.967C107.566 153.621 107.095 154.124 106.475 154.476C105.856 154.825 105.103 155 104.217 155ZM102.58 154.062H104.149C104.87 154.062 105.468 153.923 105.943 153.645C106.417 153.366 106.771 152.97 107.004 152.456C107.237 151.942 107.353 151.33 107.353 150.619C107.353 149.915 107.238 149.308 107.008 148.8C106.778 148.288 106.434 147.896 105.977 147.624C105.519 147.348 104.95 147.21 104.268 147.21H102.58V154.062ZM112.096 155H110.988L114.193 146.273H115.284L118.488 155H117.381L114.773 147.653H114.704L112.096 155ZM112.506 151.591H116.971V152.528H112.506V151.591ZM120.207 146.273H121.417L123.838 150.347H123.94L126.361 146.273H127.571L124.417 151.403V155H123.361V151.403L120.207 146.273ZM135.71 148.455C135.659 148.023 135.452 147.688 135.088 147.449C134.725 147.21 134.279 147.091 133.75 147.091C133.364 147.091 133.026 147.153 132.736 147.278C132.449 147.403 132.225 147.575 132.063 147.794C131.904 148.013 131.824 148.261 131.824 148.54C131.824 148.773 131.879 148.973 131.99 149.141C132.104 149.305 132.249 149.443 132.425 149.554C132.601 149.662 132.786 149.751 132.979 149.822C133.172 149.891 133.35 149.946 133.512 149.989L134.398 150.227C134.625 150.287 134.878 150.369 135.156 150.474C135.438 150.58 135.706 150.723 135.962 150.905C136.22 151.084 136.433 151.314 136.601 151.595C136.769 151.876 136.852 152.222 136.852 152.631C136.852 153.102 136.729 153.528 136.482 153.909C136.237 154.29 135.879 154.592 135.408 154.817C134.939 155.041 134.369 155.153 133.699 155.153C133.074 155.153 132.533 155.053 132.075 154.851C131.621 154.649 131.263 154.368 131.002 154.007C130.743 153.646 130.597 153.227 130.563 152.75H131.654C131.682 153.08 131.793 153.352 131.986 153.568C132.182 153.781 132.429 153.94 132.727 154.045C133.029 154.148 133.352 154.199 133.699 154.199C134.102 154.199 134.465 154.134 134.786 154.003C135.107 153.869 135.361 153.685 135.548 153.449C135.736 153.21 135.83 152.932 135.83 152.614C135.83 152.324 135.749 152.088 135.587 151.906C135.425 151.724 135.212 151.577 134.948 151.463C134.683 151.349 134.398 151.25 134.091 151.165L133.017 150.858C132.335 150.662 131.796 150.382 131.398 150.018C131 149.655 130.801 149.179 130.801 148.591C130.801 148.102 130.933 147.676 131.198 147.312C131.465 146.946 131.823 146.662 132.271 146.46C132.723 146.256 133.227 146.153 133.784 146.153C134.347 146.153 134.847 146.254 135.284 146.456C135.722 146.655 136.068 146.928 136.324 147.274C136.583 147.621 136.719 148.014 136.733 148.455H135.71Z" fill="#989FAB"/>
<rect x="87.5" y="105.5" width="63" height="63" rx="7.5" stroke="#ECEDF0"/>
<rect x="181.5" y="105.5" width="63" height="63" rx="7.5" fill="white"/>
<path d="M207.883 118.545V136H205.241V121.188H205.139L200.963 123.915V121.392L205.318 118.545H207.883ZM218.681 136.29C217.335 136.284 216.184 135.929 215.23 135.224C214.275 134.52 213.545 133.494 213.039 132.148C212.534 130.801 212.281 129.179 212.281 127.281C212.281 125.389 212.534 123.773 213.039 122.432C213.551 121.091 214.284 120.068 215.238 119.364C216.199 118.659 217.346 118.307 218.681 118.307C220.017 118.307 221.162 118.662 222.116 119.372C223.071 120.077 223.801 121.099 224.306 122.44C224.818 123.776 225.074 125.389 225.074 127.281C225.074 129.185 224.821 130.81 224.315 132.156C223.809 133.497 223.079 134.523 222.125 135.233C221.17 135.938 220.022 136.29 218.681 136.29ZM218.681 134.014C219.863 134.014 220.787 133.438 221.451 132.284C222.122 131.131 222.457 129.463 222.457 127.281C222.457 125.832 222.304 124.608 221.997 123.608C221.696 122.602 221.261 121.841 220.693 121.324C220.13 120.801 219.46 120.54 218.681 120.54C217.505 120.54 216.582 121.119 215.912 122.278C215.241 123.437 214.903 125.105 214.897 127.281C214.897 128.736 215.048 129.966 215.349 130.972C215.656 131.972 216.091 132.73 216.653 133.247C217.216 133.759 217.892 134.014 218.681 134.014Z" fill="#1B1B50"/>
<path d="M188.934 155V146.273H189.991V150.159H194.644V146.273H195.701V155H194.644V151.097H189.991V155H188.934ZM207.18 150.636C207.18 151.557 207.014 152.352 206.682 153.023C206.349 153.693 205.893 154.21 205.314 154.574C204.734 154.938 204.072 155.119 203.328 155.119C202.584 155.119 201.922 154.938 201.342 154.574C200.763 154.21 200.307 153.693 199.974 153.023C199.642 152.352 199.476 151.557 199.476 150.636C199.476 149.716 199.642 148.92 199.974 148.25C200.307 147.58 200.763 147.062 201.342 146.699C201.922 146.335 202.584 146.153 203.328 146.153C204.072 146.153 204.734 146.335 205.314 146.699C205.893 147.062 206.349 147.58 206.682 148.25C207.014 148.92 207.18 149.716 207.18 150.636ZM206.157 150.636C206.157 149.881 206.031 149.243 205.778 148.723C205.528 148.203 205.189 147.81 204.76 147.543C204.334 147.276 203.856 147.142 203.328 147.142C202.8 147.142 202.321 147.276 201.892 147.543C201.466 147.81 201.126 148.203 200.873 148.723C200.623 149.243 200.498 149.881 200.498 150.636C200.498 151.392 200.623 152.03 200.873 152.55C201.126 153.07 201.466 153.463 201.892 153.73C202.321 153.997 202.8 154.131 203.328 154.131C203.856 154.131 204.334 153.997 204.76 153.73C205.189 153.463 205.528 153.07 205.778 152.55C206.031 152.03 206.157 151.392 206.157 150.636ZM216.684 146.273H217.741V152.051C217.741 152.648 217.601 153.18 217.319 153.649C217.041 154.115 216.648 154.483 216.139 154.753C215.631 155.02 215.034 155.153 214.349 155.153C213.665 155.153 213.068 155.02 212.559 154.753C212.051 154.483 211.656 154.115 211.375 153.649C211.096 153.18 210.957 152.648 210.957 152.051V146.273H212.014V151.966C212.014 152.392 212.108 152.771 212.295 153.104C212.483 153.433 212.75 153.693 213.096 153.884C213.446 154.071 213.863 154.165 214.349 154.165C214.835 154.165 215.253 154.071 215.602 153.884C215.952 153.693 216.219 153.433 216.403 153.104C216.591 152.771 216.684 152.392 216.684 151.966V146.273ZM221.852 155V146.273H224.801C225.482 146.273 226.042 146.389 226.48 146.622C226.917 146.852 227.241 147.169 227.451 147.572C227.661 147.976 227.767 148.435 227.767 148.949C227.767 149.463 227.661 149.919 227.451 150.317C227.241 150.714 226.919 151.027 226.484 151.254C226.049 151.479 225.494 151.591 224.818 151.591H222.431V150.636H224.784C225.249 150.636 225.624 150.568 225.909 150.432C226.195 150.295 226.403 150.102 226.531 149.852C226.661 149.599 226.727 149.298 226.727 148.949C226.727 148.599 226.661 148.294 226.531 148.033C226.4 147.771 226.191 147.57 225.904 147.428C225.617 147.283 225.238 147.21 224.767 147.21H222.909V155H221.852ZM225.96 151.08L228.107 155H226.88L224.767 151.08H225.96ZM236.3 148.455C236.249 148.023 236.042 147.688 235.678 147.449C235.314 147.21 234.868 147.091 234.34 147.091C233.954 147.091 233.616 147.153 233.326 147.278C233.039 147.403 232.814 147.575 232.653 147.794C232.493 148.013 232.414 148.261 232.414 148.54C232.414 148.773 232.469 148.973 232.58 149.141C232.694 149.305 232.839 149.443 233.015 149.554C233.191 149.662 233.376 149.751 233.569 149.822C233.762 149.891 233.939 149.946 234.101 149.989L234.988 150.227C235.215 150.287 235.468 150.369 235.746 150.474C236.028 150.58 236.296 150.723 236.552 150.905C236.81 151.084 237.023 151.314 237.191 151.595C237.358 151.876 237.442 152.222 237.442 152.631C237.442 153.102 237.319 153.528 237.072 153.909C236.827 154.29 236.469 154.592 235.998 154.817C235.529 155.041 234.959 155.153 234.289 155.153C233.664 155.153 233.123 155.053 232.665 154.851C232.211 154.649 231.853 154.368 231.591 154.007C231.333 153.646 231.187 153.227 231.153 152.75H232.243C232.272 153.08 232.383 153.352 232.576 153.568C232.772 153.781 233.019 153.94 233.317 154.045C233.618 154.148 233.942 154.199 234.289 154.199C234.692 154.199 235.055 154.134 235.376 154.003C235.697 153.869 235.951 153.685 236.138 153.449C236.326 153.21 236.42 152.932 236.42 152.614C236.42 152.324 236.339 152.088 236.177 151.906C236.015 151.724 235.802 151.577 235.537 151.463C235.273 151.349 234.988 151.25 234.681 151.165L233.607 150.858C232.925 150.662 232.385 150.382 231.988 150.018C231.59 149.655 231.391 149.179 231.391 148.591C231.391 148.102 231.523 147.676 231.787 147.312C232.055 146.946 232.412 146.662 232.861 146.46C233.313 146.256 233.817 146.153 234.374 146.153C234.937 146.153 235.437 146.254 235.874 146.456C236.312 146.655 236.658 146.928 236.914 147.274C237.172 147.621 237.309 148.014 237.323 148.455H236.3Z" fill="#989FAB"/>
<rect x="181.5" y="105.5" width="63" height="63" rx="7.5" stroke="#ECEDF0"/>
<rect x="275.5" y="105.5" width="63" height="63" rx="7.5" fill="white"/>
<path d="M299.65 136.29C298.304 136.284 297.153 135.929 296.199 135.224C295.244 134.52 294.514 133.494 294.008 132.148C293.502 130.801 293.25 129.179 293.25 127.281C293.25 125.389 293.502 123.773 294.008 122.432C294.52 121.091 295.252 120.068 296.207 119.364C297.167 118.659 298.315 118.307 299.65 118.307C300.985 118.307 302.13 118.662 303.085 119.372C304.039 120.077 304.77 121.099 305.275 122.44C305.787 123.776 306.042 125.389 306.042 127.281C306.042 129.185 305.789 130.81 305.284 132.156C304.778 133.497 304.048 134.523 303.093 135.233C302.139 135.938 300.991 136.29 299.65 136.29ZM299.65 134.014C300.832 134.014 301.755 133.438 302.42 132.284C303.091 131.131 303.426 129.463 303.426 127.281C303.426 125.832 303.272 124.608 302.966 123.608C302.664 122.602 302.23 121.841 301.662 121.324C301.099 120.801 300.429 120.54 299.65 120.54C298.474 120.54 297.551 121.119 296.88 122.278C296.21 123.437 295.872 125.105 295.866 127.281C295.866 128.736 296.017 129.966 296.318 130.972C296.625 131.972 297.059 132.73 297.622 133.247C298.184 133.759 298.86 134.014 299.65 134.014ZM309.066 136V134.091L314.972 127.972C315.603 127.307 316.123 126.724 316.532 126.224C316.946 125.719 317.256 125.239 317.461 124.784C317.665 124.33 317.767 123.847 317.767 123.335C317.767 122.756 317.631 122.256 317.358 121.835C317.086 121.409 316.713 121.082 316.242 120.855C315.77 120.622 315.239 120.506 314.648 120.506C314.023 120.506 313.478 120.634 313.012 120.889C312.546 121.145 312.188 121.506 311.938 121.972C311.688 122.437 311.563 122.983 311.563 123.608H309.049C309.049 122.545 309.293 121.616 309.782 120.821C310.27 120.026 310.941 119.409 311.793 118.972C312.645 118.528 313.614 118.307 314.699 118.307C315.796 118.307 316.762 118.526 317.597 118.963C318.438 119.395 319.094 119.986 319.566 120.736C320.037 121.48 320.273 122.321 320.273 123.259C320.273 123.906 320.151 124.54 319.907 125.159C319.668 125.778 319.25 126.469 318.654 127.23C318.057 127.986 317.228 128.903 316.165 129.983L312.696 133.614V133.741H320.554V136H309.066Z" fill="#1B1B50"/>
<path d="M294.613 146.273H295.875L298.841 153.517H298.943L301.909 146.273H303.17V155H302.182V148.369H302.096L299.369 155H298.415L295.687 148.369H295.602V155H294.613V146.273ZM308.346 146.273V155H307.289V146.273H308.346ZM319.385 146.273V155H318.363L313.607 148.148H313.522V155H312.465V146.273H313.488L318.26 153.142H318.346V146.273H319.385Z" fill="#989FAB"/>
<rect x="275.5" y="105.5" width="63" height="63" rx="7.5" stroke="#ECEDF0"/>
<rect x="369.5" y="105.5" width="63" height="63" rx="7.5" fill="white"/>
<path d="M387.585 136V134.091L393.491 127.972C394.122 127.307 394.642 126.724 395.051 126.224C395.466 125.719 395.776 125.239 395.98 124.784C396.185 124.33 396.287 123.847 396.287 123.335C396.287 122.756 396.151 122.256 395.878 121.835C395.605 121.409 395.233 121.082 394.761 120.855C394.29 120.622 393.759 120.506 393.168 120.506C392.543 120.506 391.997 120.634 391.531 120.889C391.065 121.145 390.707 121.506 390.457 121.972C390.207 122.437 390.082 122.983 390.082 123.608H387.568C387.568 122.545 387.813 121.616 388.301 120.821C388.79 120.026 389.46 119.409 390.312 118.972C391.165 118.528 392.134 118.307 393.219 118.307C394.315 118.307 395.281 118.526 396.116 118.963C396.957 119.395 397.614 119.986 398.085 120.736C398.557 121.48 398.793 122.321 398.793 123.259C398.793 123.906 398.67 124.54 398.426 125.159C398.188 125.778 397.77 126.469 397.173 127.23C396.577 127.986 395.747 128.903 394.685 129.983L391.216 133.614V133.741H399.074V136H387.585ZM408.381 136.239C407.21 136.239 406.165 136.037 405.244 135.634C404.33 135.23 403.605 134.67 403.071 133.955C402.543 133.233 402.259 132.398 402.219 131.449H404.895C404.929 131.966 405.102 132.415 405.415 132.795C405.733 133.17 406.148 133.46 406.659 133.665C407.17 133.869 407.739 133.972 408.364 133.972C409.051 133.972 409.659 133.852 410.188 133.614C410.722 133.375 411.139 133.043 411.44 132.616C411.741 132.185 411.892 131.688 411.892 131.125C411.892 130.54 411.741 130.026 411.44 129.582C411.145 129.134 410.71 128.781 410.136 128.526C409.568 128.27 408.881 128.142 408.074 128.142H406.599V125.994H408.074C408.722 125.994 409.29 125.878 409.778 125.645C410.273 125.412 410.659 125.088 410.938 124.673C411.216 124.253 411.355 123.761 411.355 123.199C411.355 122.659 411.233 122.19 410.989 121.793C410.75 121.389 410.409 121.074 409.966 120.847C409.528 120.619 409.011 120.506 408.415 120.506C407.847 120.506 407.315 120.611 406.821 120.821C406.332 121.026 405.935 121.321 405.628 121.707C405.321 122.088 405.156 122.545 405.134 123.08H402.585C402.614 122.136 402.892 121.307 403.42 120.591C403.955 119.875 404.659 119.315 405.534 118.912C406.409 118.509 407.381 118.307 408.449 118.307C409.568 118.307 410.534 118.526 411.347 118.963C412.165 119.395 412.795 119.972 413.239 120.693C413.688 121.415 413.909 122.205 413.903 123.062C413.909 124.04 413.636 124.869 413.085 125.551C412.54 126.233 411.813 126.69 410.903 126.923V127.06C412.063 127.236 412.96 127.696 413.597 128.44C414.239 129.185 414.557 130.108 414.551 131.21C414.557 132.17 414.29 133.031 413.75 133.793C413.216 134.554 412.486 135.153 411.56 135.591C410.634 136.023 409.574 136.239 408.381 136.239Z" fill="#1B1B50"/>
<path d="M393.052 148.455C393.001 148.023 392.794 147.688 392.43 147.449C392.066 147.21 391.62 147.091 391.092 147.091C390.706 147.091 390.368 147.153 390.078 147.278C389.791 147.403 389.566 147.575 389.404 147.794C389.245 148.013 389.166 148.261 389.166 148.54C389.166 148.773 389.221 148.973 389.332 149.141C389.446 149.305 389.591 149.443 389.767 149.554C389.943 149.662 390.127 149.751 390.321 149.822C390.514 149.891 390.691 149.946 390.853 149.989L391.74 150.227C391.967 150.287 392.22 150.369 392.498 150.474C392.779 150.58 393.048 150.723 393.304 150.905C393.562 151.084 393.775 151.314 393.943 151.595C394.11 151.876 394.194 152.222 394.194 152.631C394.194 153.102 394.071 153.528 393.824 153.909C393.579 154.29 393.221 154.592 392.75 154.817C392.281 155.041 391.711 155.153 391.041 155.153C390.416 155.153 389.875 155.053 389.417 154.851C388.963 154.649 388.605 154.368 388.343 154.007C388.085 153.646 387.939 153.227 387.904 152.75H388.995C389.024 153.08 389.135 153.352 389.328 153.568C389.524 153.781 389.771 153.94 390.069 154.045C390.37 154.148 390.694 154.199 391.041 154.199C391.444 154.199 391.806 154.134 392.127 154.003C392.449 153.869 392.703 153.685 392.89 153.449C393.078 153.21 393.172 152.932 393.172 152.614C393.172 152.324 393.091 152.088 392.929 151.906C392.767 151.724 392.554 151.577 392.289 151.463C392.025 151.349 391.74 151.25 391.433 151.165L390.359 150.858C389.677 150.662 389.137 150.382 388.74 150.018C388.342 149.655 388.143 149.179 388.143 148.591C388.143 148.102 388.275 147.676 388.539 147.312C388.806 146.946 389.164 146.662 389.613 146.46C390.065 146.256 390.569 146.153 391.126 146.153C391.689 146.153 392.189 146.254 392.626 146.456C393.064 146.655 393.41 146.928 393.666 147.274C393.924 147.621 394.061 148.014 394.075 148.455H393.052ZM397.932 155V146.273H403.199V147.21H398.989V150.159H402.926V151.097H398.989V154.062H403.267V155H397.932ZM414.126 149H413.07C413.007 148.696 412.898 148.429 412.741 148.199C412.588 147.969 412.401 147.776 412.179 147.619C411.96 147.46 411.717 147.341 411.45 147.261C411.183 147.182 410.905 147.142 410.615 147.142C410.087 147.142 409.608 147.276 409.179 147.543C408.753 147.81 408.413 148.203 408.161 148.723C407.911 149.243 407.786 149.881 407.786 150.636C407.786 151.392 407.911 152.03 408.161 152.55C408.413 153.07 408.753 153.463 409.179 153.73C409.608 153.997 410.087 154.131 410.615 154.131C410.905 154.131 411.183 154.091 411.45 154.011C411.717 153.932 411.96 153.814 412.179 153.658C412.401 153.499 412.588 153.304 412.741 153.074C412.898 152.841 413.007 152.574 413.07 152.273H414.126C414.047 152.719 413.902 153.118 413.692 153.47C413.482 153.822 413.22 154.122 412.908 154.369C412.595 154.614 412.244 154.8 411.855 154.928C411.469 155.055 411.055 155.119 410.615 155.119C409.871 155.119 409.209 154.938 408.629 154.574C408.05 154.21 407.594 153.693 407.261 153.023C406.929 152.352 406.763 151.557 406.763 150.636C406.763 149.716 406.929 148.92 407.261 148.25C407.594 147.58 408.05 147.062 408.629 146.699C409.209 146.335 409.871 146.153 410.615 146.153C411.055 146.153 411.469 146.217 411.855 146.345C412.244 146.473 412.595 146.661 412.908 146.908C413.22 147.152 413.482 147.45 413.692 147.803C413.902 148.152 414.047 148.551 414.126 149Z" fill="#989FAB"/>
<rect x="369.5" y="105.5" width="63" height="63" rx="7.5" stroke="#ECEDF0"/>
</svg>
