<svg width="410" height="170" viewBox="0 0 410 170" fill="none" xmlns="http://www.w3.org/2000/svg">
<path d="M0 10C0 4.47715 4.47715 0 10 0H400C405.523 0 410 4.47715 410 10V170H0V10Z" fill="#B7CEFF"/>
<g clip-path="url(#clip0_1_14782)">
<path d="M246.299 75.5253H243.924C243.892 75.5252 243.861 75.5142 243.837 75.4942C243.812 75.4742 243.794 75.4463 243.787 75.4152C243.365 73.5547 242.622 71.7819 241.592 70.1758C241.574 70.1486 241.567 70.1162 241.57 70.0841C241.574 70.052 241.588 70.022 241.611 69.9991L243.311 68.3013C243.38 68.2322 243.435 68.1502 243.472 68.0599C243.51 67.9696 243.529 67.8728 243.529 67.7751C243.529 67.6773 243.51 67.5806 243.472 67.4903C243.435 67.4 243.38 67.3179 243.311 67.2488L239.405 63.341C239.336 63.2718 239.254 63.2168 239.164 63.1792C239.074 63.1417 238.977 63.1224 238.879 63.1224C238.781 63.1224 238.684 63.1417 238.594 63.1792C238.504 63.2168 238.421 63.2718 238.352 63.341L236.633 65.0568C236.611 65.0797 236.581 65.0941 236.549 65.0976C236.517 65.1011 236.485 65.0935 236.458 65.076C234.854 64.0632 233.088 63.3343 231.237 62.9211C231.206 62.9143 231.178 62.897 231.158 62.8721C231.138 62.8471 231.127 62.8161 231.127 62.7841V60.3513C231.127 60.154 231.049 59.9648 230.909 59.8253C230.769 59.6858 230.58 59.6074 230.383 59.6074H224.857C224.659 59.6074 224.47 59.6858 224.33 59.8252C224.191 59.9647 224.112 60.1539 224.111 60.3513V62.7841C224.111 62.8162 224.1 62.8473 224.08 62.8722C224.06 62.8971 224.031 62.9144 224 62.9211C222.148 63.332 220.381 64.0588 218.777 65.0696C218.75 65.0865 218.718 65.0938 218.686 65.0904C218.654 65.0869 218.625 65.0728 218.602 65.0504L216.886 63.3321C216.746 63.1924 216.557 63.1139 216.359 63.1139C216.161 63.1139 215.972 63.1924 215.832 63.3321L211.922 67.2347C211.783 67.3745 211.704 67.564 211.704 67.7616C211.704 67.9592 211.783 68.1488 211.922 68.2885L213.621 69.9876C213.643 70.0107 213.657 70.0408 213.661 70.0728C213.664 70.1049 213.656 70.1371 213.639 70.1643C212.607 71.7693 211.862 73.5412 211.437 75.4011C211.43 75.4323 211.413 75.4601 211.388 75.4799C211.363 75.4998 211.332 75.5104 211.3 75.5099H208.925C208.727 75.5099 208.538 75.5885 208.398 75.7282C208.258 75.868 208.18 76.0575 208.18 76.2551V82.3818C208.18 82.4192 208.195 82.455 208.221 82.4814C208.247 82.5078 208.283 82.5227 208.321 82.5227H211.267C211.299 82.5228 211.33 82.534 211.355 82.5542C211.38 82.5745 211.397 82.6027 211.404 82.6341C211.812 84.5151 212.546 86.3103 213.572 87.9387C213.589 87.9659 213.596 87.998 213.593 88.0298C213.589 88.0616 213.575 88.0913 213.553 88.1142L211.916 89.7454C211.847 89.8144 211.792 89.8964 211.754 89.9867C211.717 90.077 211.697 90.1738 211.697 90.2716C211.697 90.3694 211.717 90.4663 211.754 90.5566C211.792 90.6469 211.847 90.7289 211.916 90.7979L215.822 94.7057C215.891 94.775 215.973 94.8299 216.063 94.8675C216.153 94.905 216.25 94.9243 216.348 94.9243C216.446 94.9243 216.543 94.905 216.633 94.8675C216.723 94.8299 216.805 94.775 216.874 94.7057L218.491 93.0911C218.514 93.0682 218.544 93.054 218.576 93.0507C218.608 93.0475 218.641 93.0554 218.668 93.0732C220.297 94.1193 222.098 94.8704 223.989 95.2921C224.02 95.2988 224.048 95.3163 224.069 95.3414C224.089 95.3666 224.1 95.398 224.1 95.4303V97.7018C224.1 97.8992 224.178 98.0885 224.318 98.2282C224.457 98.368 224.647 98.4466 224.844 98.447H230.37C230.567 98.447 230.757 98.3686 230.897 98.2292C231.036 98.0897 231.115 97.9005 231.115 97.7031V95.4355C231.115 95.4035 231.126 95.3724 231.146 95.3474C231.166 95.3225 231.194 95.3052 231.226 95.2985C233.117 94.8784 234.919 94.129 236.55 93.0847C236.577 93.0672 236.609 93.0595 236.641 93.0628C236.673 93.066 236.703 93.0801 236.726 93.1026L238.341 94.7197C238.41 94.7889 238.492 94.8437 238.582 94.8811C238.673 94.9186 238.77 94.9379 238.867 94.9379C238.965 94.9379 239.062 94.9186 239.152 94.8811C239.243 94.8437 239.325 94.7889 239.394 94.7197L243.304 90.8171C243.444 90.6773 243.523 90.4878 243.523 90.2902C243.523 90.0926 243.444 89.9031 243.304 89.7633L241.671 88.1295C241.649 88.1066 241.635 88.0769 241.631 88.0451C241.628 88.0133 241.635 87.9813 241.652 87.9541C242.682 86.3275 243.419 84.533 243.83 82.652C243.836 82.6207 243.854 82.5927 243.879 82.5726C243.904 82.5526 243.935 82.5418 243.967 82.5419H246.304C246.502 82.5419 246.691 82.4635 246.831 82.3241C246.971 82.1846 247.049 81.9954 247.05 81.798V76.2744C247.051 76.1756 247.032 76.0777 246.994 75.9864C246.957 75.895 246.902 75.8121 246.832 75.7423C246.762 75.6726 246.679 75.6175 246.587 75.5802C246.496 75.5429 246.398 75.5243 246.299 75.5253ZM226.856 89.2768C221.121 88.8529 216.801 83.7083 217.378 77.9875C217.582 75.9771 218.374 74.0714 219.656 72.5086C220.938 70.9458 222.652 69.7953 224.584 69.2009C226.516 68.6066 228.58 68.5947 230.519 69.1667C232.458 69.7387 234.185 70.8693 235.485 72.4172C236.784 73.965 237.599 75.8615 237.826 77.8694C238.053 79.8774 237.684 81.9077 236.763 83.7067C235.842 85.5058 234.411 86.9936 232.65 87.9843C230.888 88.975 228.873 89.4245 226.856 89.2768Z" fill="#6093FF"/>
<path d="M266.815 67.599L265.396 67.1675C265.377 67.162 265.36 67.1501 265.349 67.1338C265.338 67.1175 265.332 67.0978 265.333 67.0779C265.418 65.8891 265.295 64.6947 264.971 63.5478C264.965 63.5284 264.966 63.5075 264.974 63.4888C264.982 63.4701 264.996 63.4547 265.014 63.4454L266.339 62.7386C266.447 62.6803 266.528 62.5814 266.564 62.4636C266.6 62.3458 266.587 62.2187 266.53 62.11L264.903 59.0652C264.845 58.9568 264.746 58.8759 264.628 58.8402C264.51 58.8044 264.383 58.8167 264.274 58.8744L262.936 59.5889C262.918 59.5983 262.898 59.6014 262.878 59.5976C262.859 59.5939 262.841 59.5836 262.828 59.5684C262.052 58.6731 261.129 57.9178 260.097 57.3354C260.08 57.3256 260.066 57.3101 260.058 57.2915C260.051 57.2728 260.05 57.2521 260.056 57.2329L260.498 55.7758C260.534 55.6577 260.522 55.5301 260.463 55.4211C260.405 55.3121 260.306 55.2306 260.188 55.1945L256.886 54.192C256.827 54.1742 256.766 54.1681 256.705 54.1741C256.644 54.18 256.585 54.1979 256.532 54.2267C256.478 54.2555 256.43 54.2946 256.391 54.3418C256.352 54.389 256.323 54.4434 256.306 54.5018L255.862 55.9602C255.857 55.9795 255.845 55.9962 255.828 56.0074C255.812 56.0186 255.791 56.0237 255.772 56.0217C254.59 55.9321 253.402 56.0464 252.259 56.3597C252.24 56.3652 252.219 56.3639 252.201 56.356C252.183 56.348 252.167 56.334 252.158 56.3162L251.443 54.9794C251.385 54.8708 251.286 54.7896 251.168 54.7536C251.05 54.7176 250.922 54.7298 250.813 54.7874L247.768 56.4135C247.66 56.4716 247.579 56.5704 247.543 56.6883C247.507 56.8062 247.52 56.9335 247.578 57.0422L248.285 58.3661C248.294 58.3838 248.297 58.4043 248.294 58.4241C248.29 58.4439 248.28 58.4618 248.264 58.4749C247.357 59.2479 246.59 60.1724 245.998 61.2073C245.989 61.2246 245.973 61.238 245.955 61.2452C245.936 61.2524 245.916 61.253 245.897 61.247L244.477 60.8168C244.359 60.7812 244.231 60.7939 244.123 60.852C244.014 60.91 243.932 61.0088 243.896 61.1266L242.785 64.7885C242.778 64.8109 242.78 64.8352 242.791 64.8558C242.802 64.8765 242.821 64.8919 242.843 64.8987L244.601 65.4326C244.62 65.4382 244.637 65.4503 244.648 65.4669C244.659 65.4835 244.664 65.5035 244.662 65.5235C244.565 66.7221 244.678 67.9285 244.997 69.0881C245.002 69.1071 245.001 69.1274 244.993 69.1456C244.986 69.1638 244.972 69.1788 244.954 69.188L243.681 69.8679C243.572 69.9263 243.491 70.0253 243.455 70.1433C243.419 70.2613 243.431 70.3887 243.489 70.4978L245.116 73.5413C245.144 73.5952 245.183 73.643 245.231 73.6818C245.278 73.7205 245.332 73.7496 245.391 73.7673C245.449 73.7851 245.51 73.7911 245.571 73.785C245.632 73.779 245.691 73.761 245.745 73.7321L247.004 73.0599C247.022 73.0506 247.042 73.0476 247.062 73.0513C247.082 73.0551 247.099 73.0653 247.113 73.0804C247.897 74.0016 248.838 74.7775 249.892 75.3723C249.91 75.382 249.923 75.3973 249.931 75.4157C249.938 75.4341 249.939 75.4545 249.933 75.4735L249.521 76.832C249.503 76.8904 249.497 76.9518 249.502 77.0126C249.508 77.0734 249.526 77.1325 249.555 77.1864C249.584 77.2403 249.623 77.288 249.67 77.3267C249.718 77.3654 249.772 77.3944 249.831 77.412L253.133 78.4145C253.191 78.4323 253.253 78.4384 253.314 78.4324C253.374 78.4265 253.433 78.4086 253.487 78.3798C253.541 78.351 253.589 78.3119 253.628 78.2647C253.666 78.2175 253.695 78.1631 253.713 78.1047L254.126 76.7475C254.132 76.7281 254.144 76.7114 254.161 76.7C254.177 76.6886 254.198 76.6832 254.218 76.6847C255.425 76.777 256.639 76.6556 257.804 76.3262C257.824 76.3207 257.844 76.322 257.863 76.33C257.881 76.3379 257.896 76.3519 257.906 76.3697L258.578 77.6284C258.636 77.7371 258.735 77.8182 258.854 77.854C258.972 77.8897 259.099 77.8772 259.208 77.8191L262.253 76.193C262.307 76.1644 262.355 76.1254 262.393 76.0783C262.432 76.0311 262.461 75.9767 262.479 75.9183C262.497 75.8599 262.503 75.7986 262.497 75.7378C262.491 75.6771 262.473 75.6181 262.444 75.5644L261.764 74.2917C261.754 74.274 261.751 74.2538 261.755 74.2343C261.759 74.2148 261.769 74.1971 261.784 74.1841C262.694 73.3974 263.459 72.458 264.045 71.4082C264.055 71.3905 264.07 71.3767 264.089 71.369C264.107 71.3613 264.128 71.3603 264.147 71.3659L265.545 71.791C265.663 71.8265 265.79 71.8137 265.899 71.7554C266.008 71.697 266.089 71.598 266.125 71.4799L267.128 68.179C267.146 68.1204 267.152 68.0589 267.146 67.998C267.139 67.9371 267.121 67.878 267.092 67.8241C267.063 67.7702 267.024 67.7226 266.976 67.684C266.929 67.6453 266.874 67.6165 266.815 67.599ZM252.7 72.2955C251.511 71.8377 250.485 71.0367 249.752 69.9944C249.02 68.9521 248.614 67.7156 248.587 66.4421C248.559 65.1687 248.911 63.9158 249.598 62.8428C250.284 61.7699 251.275 60.9253 252.443 60.4166C253.611 59.9079 254.905 59.7579 256.158 59.9858C257.412 60.2138 258.569 60.8093 259.484 61.6966C260.398 62.584 261.027 63.7231 261.292 64.969C261.557 66.215 261.445 67.5115 260.971 68.6937C260.336 70.2549 259.115 71.5058 257.569 72.1789C256.024 72.852 254.276 72.8938 252.7 72.2955Z" fill="#6093FF"/>
<path d="M244.713 57.0264L243.91 56.7089C243.899 56.7044 243.89 56.6965 243.885 56.6862C243.879 56.676 243.877 56.6642 243.878 56.6525C243.984 55.9673 243.97 55.2689 243.836 54.5885C243.834 54.5769 243.836 54.5648 243.841 54.5544C243.847 54.5439 243.856 54.5357 243.867 54.5309L244.669 54.1839C244.701 54.1699 244.731 54.1495 244.756 54.124C244.78 54.0984 244.8 54.0683 244.813 54.0352C244.826 54.0021 244.832 53.9668 244.832 53.9312C244.831 53.8957 244.824 53.8606 244.809 53.828L244.011 51.9855C243.983 51.9198 243.929 51.868 243.862 51.8416C243.796 51.8153 243.721 51.8163 243.655 51.8447L242.845 52.1955C242.834 52.2001 242.822 52.2009 242.811 52.1979C242.8 52.1948 242.79 52.1881 242.783 52.1788C242.376 51.6221 241.877 51.1395 241.306 50.7525C241.296 50.7461 241.289 50.7365 241.285 50.7253C241.282 50.714 241.282 50.7019 241.287 50.691L241.614 49.8664C241.627 49.8334 241.633 49.7981 241.633 49.7626C241.632 49.7271 241.624 49.692 241.61 49.6594C241.596 49.6268 241.576 49.5974 241.55 49.5727C241.524 49.548 241.494 49.5286 241.461 49.5156L239.594 48.7768C239.527 48.7504 239.452 48.7516 239.386 48.7801C239.32 48.8087 239.268 48.8623 239.241 48.9292L238.915 49.7525C238.911 49.7634 238.903 49.7726 238.893 49.7784C238.883 49.7843 238.871 49.7864 238.86 49.7845C238.18 49.6761 237.487 49.686 236.81 49.8139C236.799 49.816 236.787 49.8141 236.777 49.8085C236.766 49.8029 236.758 49.794 236.754 49.7832L236.403 48.974C236.389 48.9412 236.369 48.9115 236.343 48.8867C236.318 48.8618 236.287 48.8423 236.254 48.8292C236.221 48.8161 236.186 48.8097 236.15 48.8103C236.115 48.811 236.079 48.8188 236.047 48.8332L234.204 49.6296C234.138 49.658 234.086 49.7115 234.059 49.7782C234.032 49.8449 234.033 49.9195 234.061 49.9855L234.409 50.7871C234.413 50.7978 234.415 50.81 234.411 50.8214C234.408 50.8328 234.402 50.8429 234.392 50.8498C233.829 51.2547 233.34 51.7542 232.947 52.3261C232.941 52.3357 232.931 52.3429 232.92 52.3464C232.909 52.3499 232.898 52.3495 232.887 52.3453L232.084 52.0277C232.017 52.0012 231.942 52.0022 231.876 52.0306C231.81 52.0589 231.758 52.1122 231.732 52.1788L230.912 54.2505C230.909 54.2568 230.908 54.2636 230.908 54.2703C230.908 54.2771 230.91 54.2838 230.913 54.29C230.915 54.2961 230.919 54.3017 230.924 54.3064C230.929 54.3111 230.935 54.3147 230.941 54.3171L231.935 54.7102C231.946 54.7145 231.955 54.7225 231.961 54.7328C231.966 54.7431 231.968 54.755 231.966 54.7665C231.853 55.4571 231.861 56.162 231.99 56.8497C231.993 56.8611 231.991 56.8729 231.986 56.8832C231.98 56.8935 231.971 56.9016 231.961 56.9061L231.192 57.239C231.126 57.2676 231.075 57.3212 231.048 57.3879C231.022 57.4546 231.023 57.529 231.051 57.5949L231.849 59.4387C231.878 59.5044 231.932 59.5562 231.998 59.5825C232.065 59.6089 232.14 59.6078 232.205 59.5795L232.974 59.2492C232.985 59.2448 232.997 59.2441 233.008 59.2474C233.019 59.2506 233.029 59.2576 233.035 59.2671C233.447 59.8383 233.956 60.3327 234.539 60.728C234.549 60.7347 234.556 60.7445 234.559 60.7556C234.562 60.7668 234.562 60.7788 234.557 60.7895L234.254 61.5577C234.227 61.6247 234.228 61.6993 234.257 61.7653C234.285 61.8314 234.339 61.8833 234.406 61.9099L236.274 62.6486C236.307 62.6617 236.342 62.6681 236.377 62.6676C236.413 62.667 236.448 62.6594 236.481 62.6452C236.513 62.6311 236.543 62.6106 236.567 62.5851C236.592 62.5595 236.612 62.5293 236.625 62.4963L236.929 61.728C236.933 61.7171 236.941 61.708 236.951 61.7021C236.961 61.6963 236.973 61.6941 236.984 61.696C237.68 61.8069 238.39 61.7943 239.081 61.6589C239.093 61.6565 239.104 61.6581 239.115 61.6635C239.125 61.6689 239.133 61.6776 239.138 61.6883L239.468 62.4566C239.482 62.4892 239.503 62.5188 239.528 62.5436C239.554 62.5684 239.584 62.5878 239.617 62.6009C239.65 62.614 239.685 62.6204 239.721 62.6198C239.756 62.6192 239.792 62.6116 239.824 62.5974L241.667 61.7997C241.7 61.7857 241.73 61.7653 241.754 61.7398C241.779 61.7143 241.799 61.6841 241.812 61.651C241.825 61.6179 241.831 61.5826 241.831 61.5471C241.83 61.5115 241.823 61.4764 241.808 61.4438L241.475 60.6756C241.47 60.6648 241.469 60.6526 241.472 60.6412C241.475 60.6298 241.482 60.6197 241.492 60.6128C242.057 60.2006 242.546 59.6922 242.935 59.1109C242.942 59.1012 242.952 59.0939 242.963 59.0904C242.974 59.0869 242.986 59.0874 242.997 59.0917L243.787 59.4041C243.854 59.4306 243.928 59.4295 243.994 59.4012C244.06 59.3729 244.112 59.3196 244.138 59.253L244.879 57.3849C244.892 57.3506 244.899 57.3139 244.898 57.277C244.897 57.24 244.889 57.2036 244.873 57.1701C244.858 57.1365 244.836 57.1065 244.808 57.0818C244.781 57.0571 244.748 57.0382 244.713 57.0264ZM236.302 59.0751C235.634 58.753 235.076 58.2395 234.701 57.6C234.326 56.9605 234.149 56.2238 234.194 55.4837C234.238 54.7436 234.502 54.0334 234.952 53.4437C235.401 52.8539 236.016 52.4111 236.718 52.1715C237.42 51.932 238.178 51.9066 238.894 52.0986C239.611 52.2906 240.254 52.6912 240.742 53.2496C241.23 53.808 241.541 54.4988 241.635 55.2343C241.729 55.9698 241.602 56.7166 241.27 57.3798C240.828 58.2554 240.061 58.9232 239.132 59.2405C238.204 59.5577 237.188 59.4993 236.302 59.0776V59.0751Z" fill="#6093FF"/>
<path d="M194.298 44.373H99.4511C97.7794 44.373 96.4243 45.7276 96.4243 47.3986V110.321C96.4243 111.992 97.7794 113.347 99.4511 113.347H194.298C195.969 113.347 197.324 111.992 197.324 110.321V47.3986C197.324 45.7276 195.969 44.373 194.298 44.373Z" fill="#C7D9FF"/>
<path d="M184.025 109.514V70.741C184.025 68.635 182.318 66.9277 180.212 66.9277C178.106 66.9277 176.398 68.635 176.398 70.7409V109.514C176.398 111.62 178.106 113.327 180.212 113.327C182.318 113.327 184.025 111.62 184.025 109.514Z" fill="#AAC3F9"/>
<path d="M170.949 109.514V56.1374C170.949 54.0315 169.242 52.3242 167.136 52.3242C165.03 52.3242 163.323 54.0315 163.323 56.1374V109.514C163.323 111.62 165.03 113.327 167.136 113.327C169.242 113.327 170.949 111.62 170.949 109.514Z" fill="url(#paint0_linear_1_14782)"/>
<path d="M157.874 109.534V69.1511C157.874 67.0451 156.167 65.3379 154.061 65.3379C151.955 65.3379 150.248 67.0451 150.248 69.1511V109.534C150.248 111.64 151.955 113.348 154.061 113.348C156.167 113.348 157.874 111.64 157.874 109.534Z" fill="#AAC3F9"/>
<path d="M131.723 109.535V66.7917C131.723 64.6858 130.016 62.9785 127.91 62.9785C125.804 62.9785 124.097 64.6858 124.097 66.7917V109.535C124.097 111.641 125.804 113.348 127.91 113.348C130.016 113.348 131.723 111.641 131.723 109.535Z" fill="#AAC3F9"/>
<path d="M118.648 109.535V86.3191C118.648 84.2131 116.941 82.5059 114.835 82.5059C112.729 82.5059 111.021 84.2131 111.021 86.3191V109.535C111.021 111.641 112.729 113.348 114.835 113.348C116.941 113.348 118.648 111.641 118.648 109.535Z" fill="#AAC3F9"/>
<path d="M145 110V78C145 75.7909 143.209 74 141 74C138.791 74 137 75.7909 137 78V110C137 112.209 138.791 114 141 114C143.209 114 145 112.209 145 110Z" fill="#AAC3F9"/>
<path d="M104.833 98.2258C108.361 97.3782 111.868 96.4525 115.353 95.4487C118.843 94.4636 122.313 93.4141 125.763 92.3001C129.21 91.1798 132.644 90.0172 136.048 88.7727C139.451 87.5281 142.836 86.2439 146.181 84.8457C149.525 83.4475 152.85 82.0135 156.11 80.4373C159.37 78.8611 162.606 77.2363 165.755 75.4437C166.552 75.0135 167.327 74.5474 168.106 74.0839C168.885 73.6204 169.671 73.1736 170.429 72.6755L172.722 71.2197L174.966 69.6909L175.53 69.3068L176.079 68.9073L177.177 68.1071L178.274 67.3055C178.634 67.029 178.985 66.7434 179.339 66.463L180.404 65.6167L180.937 65.1942C181.111 65.0508 181.279 64.8971 181.449 64.7499L183.509 62.9727L181.513 64.8241C181.346 64.9765 181.181 65.134 181.011 65.2825L180.49 65.7204L179.446 66.5962C179.097 66.8868 178.753 67.1826 178.4 67.4681L177.322 68.3004L176.243 69.1339L175.703 69.5488L175.148 69.9444L172.923 71.518L170.646 73.0161C169.894 73.5282 169.109 73.9853 168.34 74.4642C167.572 74.9431 166.796 75.4232 166.004 75.8727C159.728 79.5384 153.139 82.6588 146.429 85.4411C143.072 86.8328 139.675 88.1299 136.255 89.3463C132.835 90.5626 129.388 91.7176 125.913 92.7713C122.438 93.8251 118.949 94.8289 115.437 95.7521C113.679 96.2028 111.918 96.6484 110.152 97.0594C108.385 97.4704 106.608 97.8763 104.833 98.2258Z" fill="#343766"/>
<path d="M14.7261 170.001H383.121C385.06 157.172 371.275 144.248 358.824 140.584C346.374 136.919 332.932 137.792 320.486 134.114C301.401 128.48 286.049 112.577 266.363 109.697C250.903 107.433 235.541 113.648 221.511 120.522C215.814 123.315 210.093 126.269 203.875 127.532C182.02 131.97 158.184 114.976 138.102 124.671C131.048 128.077 125.564 134.461 118.102 136.842C106.967 140.393 95.4033 134.133 84.0917 131.196C55.5418 123.782 25.0014 142.362 14.7261 170.001Z" fill="#C7D9FF"/>
<path d="M181.769 111.76L180.745 116.241C180.745 116.241 180.533 126.267 179.195 127.893H177.681L178.001 111.76H181.769Z" fill="#DA8C8D"/>
<path d="M179.995 102.432C179.995 102.432 181.917 107.608 182.447 111.762H178L179.995 102.432Z" fill="#F9DD89"/>
<path d="M176.78 143.615L175.155 166.728H172.802C172.802 166.728 170.56 147.5 170.451 143.615H176.78Z" fill="#DA8C8D"/>
<mask id="mask0_1_14782" style="mask-type:luminance" maskUnits="userSpaceOnUse" x="170" y="143" width="7" height="24">
<path d="M176.78 143.615L175.155 166.728H172.802C172.802 166.728 170.56 147.5 170.451 143.615H176.78Z" fill="white"/>
</mask>
<g mask="url(#mask0_1_14782)">
<path d="M171.44 148.643L171.608 148.366C173.041 146.004 174.855 143.895 176.976 142.125L177.471 141.711L171.441 142.081C171.441 142.081 170.336 145.77 171.441 148.643" fill="#C17276"/>
</g>
<path d="M175.282 166.516H172.707L172.869 168.363C172.869 168.363 170.494 168.47 169.079 170.001H175.152L175.282 166.516Z" fill="#1F1949"/>
<path d="M171.824 143.615L170.204 166.728H167.851C167.851 166.728 165.609 147.5 165.5 143.615H171.824Z" fill="#DA8C8D"/>
<mask id="mask1_1_14782" style="mask-type:luminance" maskUnits="userSpaceOnUse" x="165" y="143" width="7" height="24">
<path d="M171.824 143.615L170.204 166.728H167.851C167.851 166.728 165.609 147.5 165.5 143.615H171.824Z" fill="white"/>
</mask>
<g mask="url(#mask1_1_14782)">
<path d="M172.593 144.665L171.851 145.177C169.749 146.635 167.968 148.509 166.619 150.683L166.167 151.411L164.438 143.395L172.593 144.665Z" fill="#C17276"/>
</g>
<path d="M170.315 166.516H167.739L167.902 168.363C167.902 168.363 165.527 168.47 164.112 170.001H170.185L170.315 166.516Z" fill="#1F1949"/>
<path d="M175.242 92.1959C175.254 92.1229 175.262 92.0819 175.262 92.0819H175.252C175.297 91.6394 175.253 91.1925 175.124 90.767C174.347 88.2996 171.052 86.2587 169.629 90.2112C169.629 90.2112 167.077 96.1292 170.278 96.3828C170.644 96.412 171.013 96.393 171.374 96.3264C170.876 98.1523 170.503 100.25 171.367 100.388C172.356 100.545 173.749 100.051 174.313 99.594C174.697 99.2765 175.035 98.9051 174.98 98.4058C174.724 96.0499 175.038 93.5403 175.193 92.5301C175.209 92.4263 175.229 92.3085 175.242 92.1959Z" fill="#DA8C8D"/>
<mask id="mask2_1_14782" style="mask-type:luminance" maskUnits="userSpaceOnUse" x="168" y="87" width="8" height="14">
<path d="M175.242 92.1959C175.254 92.1229 175.262 92.0819 175.262 92.0819H175.252C175.297 91.6394 175.253 91.1925 175.124 90.767C174.347 88.2996 171.052 86.2587 169.629 90.2112C169.629 90.2112 167.077 96.1292 170.278 96.3828C170.644 96.412 171.013 96.393 171.374 96.3264C170.876 98.1523 170.503 100.25 171.367 100.388C172.356 100.545 173.749 100.051 174.313 99.594C174.697 99.2765 175.035 98.9051 174.98 98.4058C174.724 96.0499 175.038 93.5403 175.193 92.5301C175.209 92.4263 175.229 92.3085 175.242 92.1959Z" fill="white"/>
</mask>
<g mask="url(#mask2_1_14782)">
<path d="M169.811 96.2987C169.811 96.2987 171.977 95.7468 172.538 94.3012C173.099 92.8557 173.036 98.8928 172.248 99.2756C171.46 99.6584 170.186 99.168 170.186 99.168L169.811 96.2987Z" fill="#C17276"/>
</g>
<path d="M174.199 97.6607C174.199 97.6607 179.344 99.9398 179.995 102.431C180.646 104.923 178.492 118.348 178.492 118.348H166.606C166.606 118.348 164.239 104.923 165.179 102.665C166.119 100.406 169.631 97.1729 174.199 97.6607Z" fill="#F9DD89"/>
<path d="M178.509 97.6418C178.163 98.3038 177.484 98.7353 176.762 98.9414C176.039 99.1475 175.288 99.1565 174.541 99.1642C173.079 99.1796 171.605 99.1399 170.257 98.5701C170.943 97.912 171.582 97.1757 171.941 96.2961C172.299 95.4165 172.347 94.3755 171.878 93.5445C171.547 92.9607 170.997 92.5356 170.589 92.0081C170.023 91.2641 169.749 90.3384 169.821 89.4063C169.89 88.5561 170.196 87.8033 170.917 87.3487C171.638 86.8942 172.541 86.7956 173.383 86.9364C173.942 87.0309 174.48 87.2238 174.972 87.5062C176.086 88.1464 176.907 89.2181 177.424 90.3922C177.942 91.5663 178.18 92.8454 178.333 94.1194C178.472 95.2487 179.038 96.629 178.509 97.6418Z" fill="#343766"/>
<path d="M178.493 118.35C178.493 118.35 182.176 124.513 180.118 131.41C178.06 138.306 177.24 144.854 177.24 144.854H164.959C164.959 144.854 163.009 121.462 166.606 118.35H178.493Z" fill="#39548B"/>
<mask id="mask3_1_14782" style="mask-type:luminance" maskUnits="userSpaceOnUse" x="164" y="118" width="17" height="27">
<path d="M178.493 118.35C178.493 118.35 182.176 124.513 180.118 131.41C178.06 138.306 177.24 144.854 177.24 144.854H164.959C164.959 144.854 163.009 121.462 166.606 118.35H178.493Z" fill="white"/>
</mask>
<g mask="url(#mask3_1_14782)">
<path d="M166.546 127.614C165.989 127.618 165.437 127.52 164.915 127.326C164.099 127.016 163.592 126.206 163.241 125.406C162.68 124.134 162.363 122.727 162.538 121.348C162.825 119.087 164.441 117.132 166.452 116.058C168.463 114.983 170.821 114.709 173.096 114.864C174.301 114.947 175.53 115.155 176.579 115.749C177.173 116.079 177.682 116.544 178.065 117.105C179.379 119.072 177.801 121.323 176.319 122.769C175.138 123.922 173.713 124.794 172.272 125.6C170.65 126.512 168.545 127.618 166.546 127.614Z" fill="#343766"/>
</g>
<path d="M165.336 109.7C165.336 109.7 169.228 109.493 170.406 105.482C170.406 105.482 170.737 111.116 165.81 113.316L165.336 109.7Z" fill="#F4C54E"/>
<path d="M164.139 93.8477C163.9 93.7135 163.624 93.6605 163.352 93.6966L162.9 93.7555C162.62 93.7923 162.355 93.9072 162.137 94.0869C161.919 94.2667 161.755 94.5041 161.665 94.7721L161.263 95.9744C160.588 96.8707 159.949 97.7926 159.324 98.7221C158.092 100.556 156.914 102.444 155.955 104.435C155.405 105.576 154.868 106.776 154.759 108.054C154.665 109.15 154.887 110.68 155.942 111.276C156.51 111.575 157.166 111.663 157.793 111.524C158.459 111.395 159.085 111.102 159.7 110.823L162.613 109.498C162.68 109.467 163.585 109.001 163.62 109.04L160.347 105.302L158.577 106.755L162.804 96.3713V96.3636C163.397 95.968 164.725 95.0615 164.532 95.0064C164.373 94.959 163.661 95.2471 163.175 95.4584L163.287 95.1857C163.334 95.0694 163.421 94.9734 163.531 94.9142L164.215 94.5506C164.283 94.515 164.356 94.4933 164.432 94.4869C164.508 94.4806 164.584 94.4896 164.656 94.5135L164.985 94.6236C165.041 94.6416 165.099 94.6465 165.157 94.6377L165.347 94.525L164.139 93.8477Z" fill="#DA8C8D"/>
<mask id="mask4_1_14782" style="mask-type:luminance" maskUnits="userSpaceOnUse" x="154" y="93" width="12" height="19">
<path d="M164.139 93.8477C163.9 93.7135 163.624 93.6605 163.352 93.6966L162.9 93.7555C162.62 93.7923 162.355 93.9072 162.137 94.0869C161.919 94.2667 161.755 94.5041 161.665 94.7721L161.263 95.9744C160.588 96.8707 159.949 97.7926 159.324 98.7221C158.092 100.556 156.914 102.444 155.955 104.435C155.405 105.576 154.868 106.776 154.759 108.054C154.665 109.15 154.887 110.68 155.942 111.276C156.51 111.575 157.166 111.663 157.793 111.524C158.459 111.395 159.085 111.102 159.7 110.823L162.613 109.498C162.68 109.467 163.585 109.001 163.62 109.04L160.347 105.302L158.577 106.755L162.804 96.3713V96.3636C163.397 95.968 164.725 95.0615 164.532 95.0064C164.373 94.959 163.661 95.2471 163.175 95.4584L163.287 95.1857C163.334 95.0694 163.421 94.9734 163.531 94.9142L164.215 94.5506C164.283 94.515 164.356 94.4933 164.432 94.4869C164.508 94.4806 164.584 94.4896 164.656 94.5135L164.985 94.6236C165.041 94.6416 165.099 94.6465 165.157 94.6377L165.347 94.525L164.139 93.8477Z" fill="white"/>
</mask>
<g mask="url(#mask4_1_14782)">
<path d="M159.607 109.739C159.607 110.235 159.63 110.783 159.972 111.147C160.117 111.285 160.292 111.386 160.484 111.441C160.676 111.497 160.878 111.505 161.074 111.466C161.465 111.384 161.829 111.201 162.13 110.937C162.958 110.269 163.529 109.249 163.52 108.185C163.511 107.121 162.854 106.055 161.855 105.692C161.449 105.558 161.021 105.503 160.595 105.53C160.397 105.533 160.2 105.55 160.005 105.58C159.944 105.582 159.884 105.597 159.829 105.624C159.774 105.651 159.725 105.689 159.686 105.736C159.647 105.783 159.618 105.838 159.602 105.897C159.586 105.956 159.582 106.018 159.592 106.078C159.592 106.309 159.592 106.541 159.592 106.771C159.592 107.237 159.592 107.702 159.592 108.167L159.607 109.739Z" fill="#C17276"/>
</g>
<path d="M167.619 99.6484L159.356 105.505L162.444 110.267C162.444 110.267 167.579 109.765 169.361 107.477C171.143 105.189 167.619 99.6484 167.619 99.6484Z" fill="#F9DD89"/>
<path d="M179.433 111.762L180.012 106.287L180.118 111.762H179.433Z" fill="#F4C54E"/>
<path d="M38.3624 116.537C38.3624 116.537 43.4194 133.71 45.4394 139.813C47.4594 145.917 49.3397 165.867 49.3397 165.867L48.3573 166.39L47.2314 165.983L36.842 143.858C36.842 143.858 21.3355 122.548 26.8907 115.217L38.3624 116.537Z" fill="#39548B"/>
<path d="M46.9521 165.781L49.4704 164.945L49.7381 166.195C49.7381 166.195 52.5945 165.538 54.4415 166.556L48.0896 168.827L46.9521 165.781Z" fill="#1F1949"/>
<path d="M37.2929 117.485C37.2929 117.485 36.2772 135.356 36.1248 141.784C35.9723 148.212 31.0332 167.63 31.0332 167.63L29.9316 167.794L29.0094 167.026L26.6679 142.698C26.6679 142.698 19.2387 117.415 26.9318 112.385L37.2929 117.485Z" fill="#39548B"/>
<mask id="mask5_1_14782" style="mask-type:luminance" maskUnits="userSpaceOnUse" x="23" y="112" width="15" height="56">
<path d="M37.2929 117.485C37.2929 117.485 36.2772 135.356 36.1248 141.784C35.9723 148.212 31.0332 167.63 31.0332 167.63L29.9316 167.794L29.0094 167.026L26.6679 142.698C26.6679 142.698 19.2387 117.415 26.9318 112.385L37.2929 117.485Z" fill="white"/>
</mask>
<g mask="url(#mask5_1_14782)">
<path d="M35.6431 119.87C34.694 120.198 27.1085 125.248 22.9367 124.033C18.7648 122.818 21.9209 116.676 22.5959 117.33C23.271 117.984 35.6431 119.87 35.6431 119.87Z" fill="#343766"/>
</g>
<path d="M28.8149 166.748L31.4664 166.807L31.2986 168.075C31.2986 168.075 34.2101 168.416 35.6063 169.995H28.8636L28.8149 166.748Z" fill="#1F1949"/>
<path d="M36.0737 142.764L37.0728 124.016C37.0728 124.016 39.8601 143.758 38.2359 146.826L36.0737 142.764Z" fill="#343766"/>
<path d="M68.0292 101.987C68.0292 101.987 69.7699 101.458 69.2076 101.122C68.6453 100.785 65.1715 101.987 65.1715 101.987L50.0569 100.037L49.1206 105.309C50.3887 105.38 61.918 104.721 64.3773 104.579C64.3773 104.579 72.2933 105.164 72.5751 104.323C72.8569 103.481 68.0292 101.987 68.0292 101.987Z" fill="#DA8C8D"/>
<mask id="mask6_1_14782" style="mask-type:luminance" maskUnits="userSpaceOnUse" x="49" y="100" width="24" height="6">
<path d="M68.0292 101.987C68.0292 101.987 69.7699 101.458 69.2076 101.122C68.6453 100.785 65.1715 101.987 65.1715 101.987L50.0569 100.037L49.1206 105.309C50.3887 105.38 61.918 104.721 64.3773 104.579C64.3773 104.579 72.2933 105.164 72.5751 104.323C72.8569 103.481 68.0292 101.987 68.0292 101.987Z" fill="white"/>
</mask>
<g mask="url(#mask6_1_14782)">
<path d="M51.1019 100.038C51.1019 100.038 53.2398 105.312 52.9733 105.769C52.7069 106.226 48.4287 105.414 48.4287 105.414L48.8821 99.6973L51.1019 100.038Z" fill="#C17276"/>
</g>
<path d="M39.3666 117.243C39.3666 117.243 40.4361 98.973 33.8101 93.854C29.0105 90.1485 25.5893 92.7938 25.5893 92.7938C25.5893 92.7938 18.5507 97.2483 24.2879 109.311C25.5457 111.956 22.4703 116.033 23.6705 119.042C25.2819 123.092 37.8795 120.594 39.3666 117.243Z" fill="#F9DD89"/>
<path d="M48.0001 105.698C45.022 105.813 41.8095 105.807 38.8904 105.524C38.3718 105.47 37.8611 105.357 37.3687 105.186C33.2083 103.768 25.7189 102.401 25.3052 99.0808C24.5597 93.0834 33.8705 93.9119 33.8705 93.9119L41.2562 98.0091C43.0665 99.0145 45.0911 99.5724 47.1611 99.6365L48.8826 99.6903L48.0001 105.698Z" fill="#F9DD89"/>
<path d="M31.7312 83.8463C31.7312 83.8463 34.717 90.1894 31.151 90.5377C27.5849 90.886 24.8067 87.2612 25.6136 84.5736C26.4206 81.886 30.0519 79.6006 31.7312 83.8463Z" fill="#DA8C8D"/>
<mask id="mask7_1_14782" style="mask-type:luminance" maskUnits="userSpaceOnUse" x="25" y="81" width="8" height="10">
<path d="M31.7312 83.8463C31.7312 83.8463 34.717 90.1894 31.151 90.5377C27.5849 90.886 24.8067 87.2612 25.6136 84.5736C26.4206 81.886 30.0519 79.6006 31.7312 83.8463Z" fill="white"/>
</mask>
<g mask="url(#mask7_1_14782)">
<path d="M30.7153 85.8292C29.8374 85.8747 28.9577 85.7844 28.1074 85.5616C27.2633 85.317 26.4627 84.8676 25.9055 84.1903C25.6493 83.883 25.4444 83.4924 25.5212 83.1019C25.5649 82.9134 25.6527 82.7378 25.7774 82.5898C26.3615 81.8215 27.3785 81.4886 28.3392 81.513C29.2999 81.5373 30.226 81.8727 31.1162 82.2364C31.7361 82.4924 32.4086 82.8164 32.6533 83.44C32.7545 83.7326 32.784 84.0452 32.7391 84.3516C32.7362 84.5612 32.7078 84.7698 32.6545 84.9726C32.4855 85.4105 31.9757 85.6358 31.553 85.7344C31.2777 85.7944 30.997 85.8262 30.7153 85.8292Z" fill="#C17276"/>
</g>
<path d="M25.4897 85.9902C25.4897 85.9902 26.5145 89.3308 25.9611 92.8237C25.9611 92.8237 28.2923 94.1297 30.0113 93.8275C31.7303 93.5254 28.8995 87.5805 28.8995 87.5805L25.4897 85.9902Z" fill="#DA8C8D"/>
<path d="M30.0764 90.5211C30.0764 90.5211 29.8459 90.6491 28.3613 89.8066C28.3613 89.8066 28.4228 91.3226 30.4313 91.7938C30.4313 91.7938 30.2097 90.9026 30.0764 90.5211Z" fill="#C17276"/>
<path d="M27.1596 83.9313C27.2515 84.8573 27.1601 85.7922 26.8906 86.6829C26.8727 86.446 26.7907 86.1708 26.5653 86.0965C26.4755 86.0742 26.3809 86.08 26.2945 86.1132C26.2082 86.1464 26.1341 86.2054 26.0824 86.2822C25.9819 86.4383 25.9261 86.619 25.921 86.8046C25.8895 87.0559 25.9212 87.3112 26.0132 87.5472C26.0607 87.6646 26.1356 87.769 26.2317 87.8516C26.3277 87.9342 26.4421 87.9927 26.5653 88.0222C26.4116 88.6624 26.272 89.3269 26.117 89.971C24.8166 88.9673 23.8914 87.5558 23.4899 85.9633C23.3807 85.5489 23.3277 85.1217 23.3323 84.6932C23.3538 83.9866 23.5862 83.3026 23.9997 82.7291C24.1578 82.4983 24.3619 82.3026 24.5991 82.1542C25.1499 81.8341 25.8903 81.9378 26.3924 82.3308C26.8945 82.7239 27.0969 83.2975 27.1596 83.9313Z" fill="#343766"/>
<path d="M24.2573 83.4779C24.2573 83.4779 24.5596 79.6662 27.4519 79.8544C30.3441 80.0426 33.1595 81.1681 33.1595 81.1681C33.1595 81.1681 32.1041 83.6008 30.6298 83.7955C29.1555 83.9901 24.2573 83.4779 24.2573 83.4779Z" fill="#343766"/>
<path d="M31.6095 87.4395C31.6095 87.4395 30.6617 88.072 30.271 88.6891C30.271 88.6891 32.0309 88.4561 31.6095 87.4395Z" fill="#343766"/>
<path d="M31.6099 87.4395C32.0264 87.4374 32.4378 87.5307 32.8126 87.7122C32.8126 87.7122 31.884 88.209 31.6099 87.4395Z" fill="#343766"/>
<path d="M48.9812 99.1049L48.1345 99.0711C47.773 99.0566 47.4683 99.3378 47.4538 99.6992L47.1978 106.097C47.1833 106.459 47.4646 106.763 47.8261 106.778L48.6728 106.812C49.0343 106.826 49.3391 106.545 49.3535 106.184L49.6095 99.7854C49.624 99.424 49.3427 99.1194 48.9812 99.1049Z" fill="#F9DD89"/>
<path d="M38.8902 105.524C38.8902 105.524 37.7976 100.548 36.728 98.0684C36.728 98.0684 41.7235 105.081 45.4381 105.767C45.4394 105.767 40.6027 105.715 38.8902 105.524Z" fill="#F4C54E"/>
<path d="M47.9179 99.666L47.6861 105.743H46.7344C46.7344 105.743 47.9371 101.529 47.9179 99.666Z" fill="#F4C54E"/>
<path d="M29.9956 93.8105C29.9956 93.8105 31.5327 108.494 31.06 112.648L34.9027 116.146L36.7306 112.022C36.7306 112.022 33.773 96.4827 29.9956 93.8105Z" fill="white"/>
<path d="M29.9957 93.8113L28.8762 96.2914C28.8762 96.2914 25.6432 94.5334 25.1616 93.0981L25.9302 92.5859C25.9302 92.5859 28.3639 93.8753 29.9957 93.8113Z" fill="white"/>
<path d="M29.9956 93.8107L31.6095 94.6839C31.6095 94.6839 31.361 92.9605 31.0165 92.2141L30.4708 92.0527C30.4708 92.0527 30.6143 93.3536 29.9956 93.8107Z" fill="white"/>
<path d="M37.6066 87.3982L51.9001 90.2483L50.4245 79.1191L37.3684 85.6056C37.1897 85.6942 37.0432 85.8365 36.9495 86.0125C36.8557 86.1885 36.8195 86.3895 36.8457 86.5871C36.872 86.7848 36.9595 86.9693 37.096 87.1147C37.2324 87.2602 37.411 87.3593 37.6066 87.3982Z" fill="#CAD2EA"/>
<path d="M52.5522 90.9283C52.4796 90.938 52.4059 90.9333 52.3352 90.9144C52.2645 90.8956 52.1982 90.863 52.1402 90.8185C52.0821 90.774 52.0334 90.7186 51.9968 90.6552C51.9602 90.5919 51.9366 90.5219 51.9271 90.4494L50.399 78.9258C50.3893 78.8533 50.3939 78.7795 50.4127 78.7087C50.4316 78.638 50.4642 78.5716 50.5087 78.5135C50.5531 78.4553 50.6087 78.4065 50.672 78.3698C50.7354 78.3332 50.8054 78.3093 50.878 78.2997C51.0244 78.2804 51.1725 78.32 51.2897 78.4098C51.4069 78.4996 51.4837 78.6322 51.5031 78.7786L53.0312 90.3021C53.0411 90.3747 53.0366 90.4486 53.0178 90.5194C52.9991 90.5902 52.9665 90.6566 52.922 90.7148C52.8774 90.773 52.8219 90.8218 52.7584 90.8584C52.6949 90.8951 52.6248 90.9188 52.5522 90.9283Z" fill="#8296C9"/>
<path d="M40.3928 88.5656L37.986 88.8857C37.3479 88.9687 36.703 88.7957 36.1922 88.4046C35.6814 88.0135 35.3463 87.4361 35.2602 86.7987C35.1769 86.1607 35.3498 85.5157 35.7411 85.0048C36.1324 84.4939 36.7102 84.1587 37.3481 84.0727L39.7549 83.7539L40.3928 88.5656Z" fill="#8296C9"/>
<path d="M38.9005 92.4442L37.8924 92.5722C37.8382 92.5798 37.7829 92.5747 37.731 92.5574C37.679 92.5402 37.6317 92.5111 37.5928 92.4726C37.5539 92.434 37.5244 92.3871 37.5066 92.3353C37.4888 92.2835 37.4832 92.2283 37.4902 92.174L37.9001 88.8809L39.6421 88.6504L39.2092 92.1292C39.2002 92.2086 39.165 92.2827 39.109 92.3398C39.0531 92.3968 38.9797 92.4336 38.9005 92.4442Z" fill="#8296C9"/>
<path d="M52.46 85.9924L52.0757 83.0936C52.2488 83.0707 52.4239 83.1174 52.5625 83.2236C52.7011 83.3297 52.7918 83.4865 52.8148 83.6595L53.0261 85.2536C53.0487 85.4266 53.0018 85.6014 52.8957 85.7399C52.7895 85.8783 52.6329 85.9691 52.46 85.9924Z" fill="#CAD2EA"/>
<path d="M30.3495 107.781C30.3495 107.781 26.4492 113.695 23.4442 113.064C17.6801 111.856 17.0461 103.197 23.7695 94.6836L24.9544 104.27L26.0008 103.452L30.3495 107.781Z" fill="#F9DD89"/>
<path d="M26.0453 101.117C26.0453 101.117 24.9438 101.879 26.0005 103.381L26.6794 104.057L23.522 106.558L25.3152 103.663C25.3152 103.663 24.5595 102.136 26.0453 101.117Z" fill="#F4C54E"/>
<path d="M24.2446 113.113C24.2446 113.113 26.6078 113.753 29.5488 109.992L30.9257 108.119C30.9257 108.119 29.5757 113.113 26.0507 114.746C23.33 116.006 23.8552 114.611 23.8552 114.611L24.2446 113.113Z" fill="#F4C54E"/>
<path d="M38.2356 92.1099C37.0739 96.243 31.753 105.399 31.753 105.399L27.8911 101.558C29.8432 99.4261 36.459 91.1406 36.459 91.1406L38.2356 92.1099Z" fill="#DA8C8D"/>
<mask id="mask8_1_14782" style="mask-type:luminance" maskUnits="userSpaceOnUse" x="27" y="91" width="12" height="15">
<path d="M38.2356 92.1099C37.0739 96.243 31.753 105.399 31.753 105.399L27.8911 101.558C29.8432 99.4261 36.459 91.1406 36.459 91.1406L38.2356 92.1099Z" fill="white"/>
</mask>
<g mask="url(#mask8_1_14782)">
<path d="M28.0088 100.854C28.0088 100.854 30.7576 100.726 33.1605 102.972C35.5635 105.218 31.2994 106.838 31.2994 106.838L26.7983 102.1L28.3943 100.447" fill="#C17276"/>
</g>
<path d="M27.8912 101.553L32.2399 105.882C32.4911 106.133 32.6322 106.474 32.6322 106.83C32.6322 107.185 32.4911 107.526 32.2399 107.777C31.9885 108.028 31.6478 108.169 31.2926 108.169C30.9375 108.169 30.5968 108.028 30.3454 107.777L25.9968 103.448C25.8723 103.324 25.7735 103.176 25.7061 103.014C25.6387 102.851 25.604 102.677 25.604 102.501C25.604 102.325 25.6387 102.151 25.7061 101.989C25.7735 101.826 25.8723 101.679 25.9968 101.554C26.248 101.303 26.5886 101.162 26.9437 101.162C27.2989 101.162 27.6396 101.302 27.8912 101.553Z" fill="#F9DD89"/>
<path d="M36.459 91.1359C36.459 91.1359 37.1379 89.5149 37.5849 89.1539C38.0319 88.7928 39.4102 88.5047 39.7253 88.8107C40.0404 89.1168 39.4806 91.1398 39.186 91.3485C38.967 91.5021 38.2356 92.109 38.2356 92.109L36.459 91.1359Z" fill="#DA8C8D"/>
<path d="M274.197 82.732H291.075L263.734 106.604H231.278L200.521 133.457H168.482L126.626 170H159.221L189.978 143.148H222.017L249.361 119.275H281.816L323.672 82.732H341.721L356.39 44L274.197 82.732Z" fill="#6093FF"/>
<path d="M205.031 127.042C204.757 127.042 194.784 125.861 194.784 125.861V127.852C194.784 127.852 205.846 132.024 206.23 131.969C206.615 131.914 205.031 127.042 205.031 127.042Z" fill="#DA8C8D"/>
<mask id="mask9_1_14782" style="mask-type:luminance" maskUnits="userSpaceOnUse" x="194" y="125" width="13" height="7">
<path d="M205.031 127.042C204.757 127.042 194.784 125.861 194.784 125.861V127.852C194.784 127.852 205.846 132.024 206.23 131.969C206.615 131.914 205.031 127.042 205.031 127.042Z" fill="white"/>
</mask>
<g mask="url(#mask9_1_14782)">
<path d="M200.873 127.81C200.836 128.857 200.913 129.941 201.386 130.883C201.547 131.24 201.798 131.548 202.115 131.779C202.434 131.966 202.786 132.09 203.152 132.146C204.514 132.433 206.002 132.583 207.236 131.939C207.467 131.83 207.669 131.668 207.825 131.466C208.009 131.204 208.063 130.874 208.094 130.555C208.186 129.616 208.125 128.634 207.721 127.784C207.257 126.806 206.37 126.068 205.373 125.646C204.909 125.452 204.423 125.314 203.927 125.232C203.522 125.162 203.113 125.115 202.702 125.091C202.442 125.066 202.181 125.13 201.961 125.272C201.616 125.509 201.342 125.837 201.169 126.218C200.989 126.67 200.893 127.151 200.885 127.638L200.873 127.81Z" fill="#C17276"/>
</g>
<path d="M212.91 115.914C212.91 115.914 210.305 119.918 209.402 122.906L211.634 123.886L212.91 115.914Z" fill="#F4C54E"/>
<path d="M227.639 135.648C227.639 135.648 225.904 143.77 218.526 144.325C211.148 144.881 203.478 144.123 203.478 144.123L196.219 163.443L194.031 162.771C194.031 162.771 196.261 145.259 197.337 140.654C198.413 136.05 211.45 134.048 219.193 132.551L227.639 135.648Z" fill="#343766"/>
<path d="M227.953 133.371C227.953 133.371 228.363 141.667 221.376 144.098C214.388 146.529 206.781 147.768 206.781 147.768L204.732 168.303L202.399 168.216C202.399 168.216 200.093 150.719 199.954 145.993C199.814 141.267 211.894 135.983 218.993 132.549L227.953 133.371Z" fill="#39548B"/>
<mask id="mask10_1_14782" style="mask-type:luminance" maskUnits="userSpaceOnUse" x="199" y="132" width="29" height="37">
<path d="M227.953 133.371C227.953 133.371 228.363 141.667 221.376 144.098C214.388 146.529 206.781 147.768 206.781 147.768L204.732 168.303L202.399 168.216C202.399 168.216 200.093 150.719 199.954 145.993C199.814 141.267 211.894 135.983 218.993 132.549L227.953 133.371Z" fill="white"/>
</mask>
<g mask="url(#mask10_1_14782)">
<path d="M223.178 138.763C224.629 139.041 226.184 139.052 227.533 138.44C228.882 137.828 229.955 136.488 229.939 135.01C229.922 133.593 228.914 132.328 227.671 131.645C226.429 130.963 224.981 130.771 223.564 130.684C222.026 130.59 220.475 130.608 218.993 130.999C218.034 131.242 217.131 131.67 216.335 132.259C215.986 132.524 215.539 132.857 215.33 133.252C215.107 133.673 215.489 134.042 215.742 134.348C216.344 135.073 217.024 135.729 217.77 136.305C218.515 136.881 219.321 137.375 220.173 137.777C221.024 138.181 221.918 138.488 222.837 138.693C222.947 138.718 223.06 138.741 223.178 138.763Z" fill="#343766"/>
</g>
<path d="M204.897 166.975L202.12 166.993L202.288 168.263C202.288 168.263 199.598 168.5 198.222 170L204.72 169.958L204.897 166.975Z" fill="#1F1949"/>
<path d="M196.601 162.608L193.929 161.85L193.735 163.117C193.735 163.117 191.08 162.592 189.346 163.65L195.598 165.423L196.601 162.608Z" fill="#1F1949"/>
<path d="M210.834 108.814C210.855 109.859 211.392 110.821 211.583 111.848C211.922 113.676 211.19 115.749 212.184 117.321C212.758 118.232 213.809 118.746 214.865 118.959C215.92 119.171 217.008 119.128 218.083 119.173C218.98 119.21 219.877 119.301 220.753 119.101C221.53 118.901 222.229 118.47 222.758 117.866C223.287 117.262 223.621 116.513 223.717 115.716C223.926 113.658 222.5 111.807 220.992 110.39C219.554 109.04 217.967 107.855 216.263 106.859C215.294 106.293 214.247 105.775 213.117 105.64C212.682 105.589 212.416 105.609 212.131 105.951C211.814 106.335 211.491 106.691 211.251 107.137C210.972 107.652 210.828 108.229 210.834 108.814Z" fill="#343766"/>
<path d="M226.215 137.225C227.831 137.084 229.695 135.767 229.289 134.6C228.96 133.654 228.067 133.014 227.551 132.178C226.95 131.207 226.823 130.036 226.646 128.924C225.878 124.108 226.855 118.03 222.431 114.684C220.766 113.423 218.542 112.763 216.493 113.251C212.231 114.275 211.233 118.629 211.369 122.447C211.55 127.44 213.931 133.554 218.67 135.883C219.015 136.053 219.371 136.199 219.736 136.321C223.717 137.662 226.215 137.225 226.215 137.225Z" fill="#F9DD89"/>
<mask id="mask11_1_14782" style="mask-type:luminance" maskUnits="userSpaceOnUse" x="211" y="113" width="19" height="25">
<path d="M226.215 137.225C227.831 137.084 229.695 135.767 229.289 134.6C228.96 133.654 228.067 133.014 227.551 132.178C226.95 131.207 226.823 130.036 226.646 128.924C225.878 124.108 226.855 118.03 222.431 114.684C220.766 113.423 218.542 112.763 216.493 113.251C212.231 114.275 211.233 118.629 211.369 122.447C211.55 127.44 213.931 133.554 218.67 135.883C219.015 136.053 219.371 136.199 219.736 136.321C223.717 137.662 226.215 137.225 226.215 137.225Z" fill="white"/>
</mask>
<g mask="url(#mask11_1_14782)">
<path d="M226.38 133.092C226.229 133.455 226.048 133.805 225.915 134.175C225.871 134.275 225.852 134.384 225.857 134.494C225.888 134.75 226.16 134.901 226.412 134.938C226.909 135.012 227.418 134.785 227.771 134.426C228.112 134.054 228.358 133.606 228.487 133.118C228.665 132.527 228.743 131.875 228.522 131.299C228.349 130.852 227.821 130.249 227.278 130.387C227.17 130.42 227.074 130.485 227.005 130.575C226.936 130.665 226.897 130.774 226.894 130.887C226.862 131.241 226.811 131.593 226.741 131.942C226.654 132.335 226.533 132.719 226.38 133.092Z" fill="#F4C54E"/>
</g>
<path d="M212.052 107.58C212.052 107.58 211.579 113.47 214.441 112.742C217.302 112.013 218.404 108.345 217.003 106.434C215.601 104.524 212.123 103.732 212.052 107.58Z" fill="#DA8C8D"/>
<mask id="mask12_1_14782" style="mask-type:luminance" maskUnits="userSpaceOnUse" x="212" y="104" width="6" height="9">
<path d="M212.052 107.58C212.052 107.58 211.579 113.47 214.441 112.742C217.302 112.013 218.404 108.345 217.003 106.434C215.601 104.524 212.123 103.732 212.052 107.58Z" fill="white"/>
</mask>
<g mask="url(#mask12_1_14782)">
<path d="M216.096 108.774C216.436 108.585 216.714 108.302 216.898 107.959C217.204 107.31 216.922 106.498 216.394 106.01C215.866 105.523 215.145 105.305 214.44 105.174C213.671 105.032 212.844 104.982 212.112 105.27C211.524 105.509 211.038 105.945 210.738 106.503C210.444 107.046 210.238 107.855 210.643 108.396C210.706 108.472 210.784 108.534 210.872 108.578C210.96 108.622 211.057 108.647 211.155 108.652C211.413 108.673 211.666 108.738 211.902 108.844C212.516 109.163 213.194 109.338 213.885 109.356C214.574 109.372 215.256 109.214 215.869 108.898C215.948 108.861 216.023 108.814 216.096 108.774Z" fill="#C17276"/>
</g>
<path d="M217.507 107.535C217.507 107.535 218.02 111.143 219.458 113.766C219.458 113.766 217.776 115.668 216.358 115.913C214.941 116.157 215.334 109.767 215.334 109.767L217.507 107.535Z" fill="#DA8C8D"/>
<path d="M215.292 112.416C215.292 112.416 215.705 112.204 216.611 111.117C216.611 111.117 216.759 112.398 215.341 113.337C215.341 113.337 215.3 112.757 215.292 112.416Z" fill="#C17276"/>
<path d="M217.318 112.3C217.729 113.756 218.44 115.11 219.408 116.275C220.375 117.439 221.575 118.388 222.932 119.059C224.249 119.717 225.825 120.41 227.332 120.296C230.068 120.091 230.096 117.234 228.905 115.405C227.713 113.575 225.808 112.347 224.382 110.704C222.852 108.941 221.447 106.984 219.481 105.67C217.762 104.518 214.575 103.151 212.746 104.743C211.642 105.703 212.211 106.882 213.335 107.501C214.46 108.119 215.554 108.544 216.269 109.692C216.767 110.489 217.067 111.397 217.318 112.3Z" fill="#343766"/>
<path d="M222.331 137.293H205.512C205.382 137.293 205.255 137.252 205.15 137.175C205.044 137.099 204.966 136.991 204.926 136.867L201.125 125.117C201.095 125.024 201.087 124.926 201.102 124.831C201.118 124.735 201.155 124.644 201.212 124.565C201.27 124.487 201.344 124.423 201.431 124.379C201.517 124.335 201.613 124.312 201.71 124.313H218.526C218.656 124.312 218.782 124.353 218.888 124.43C218.993 124.506 219.071 124.614 219.111 124.738L222.914 136.489C222.944 136.581 222.951 136.679 222.936 136.774C222.921 136.87 222.883 136.96 222.826 137.039C222.77 137.117 222.695 137.181 222.609 137.225C222.523 137.269 222.428 137.293 222.331 137.293Z" fill="#1F1949"/>
<path d="M212.773 130.802C213.083 131.766 212.773 132.547 212.074 132.547C211.375 132.547 210.562 131.766 210.252 130.802C209.942 129.838 210.252 129.057 210.952 129.057C211.651 129.057 212.463 129.839 212.773 130.802Z" fill="#F2F3F7"/>
<path d="M225.053 125.631C225.053 125.631 223.065 132.428 221.723 132.801L219.753 126.71L220.265 123.363L225.053 125.631Z" fill="#DA8C8D"/>
<path d="M209.553 122.973L209.165 124.311H211.581L211.473 123.815L209.553 122.973Z" fill="#C17276"/>
<path d="M194.791 125.86C194.791 125.86 192.812 125.141 192.812 125.525C192.812 125.909 192.653 127.17 193.58 127.607C194.182 127.873 194.837 127.995 195.494 127.962L194.791 125.86Z" fill="#DA8C8D"/>
<path d="M195.067 126.515C195.067 126.515 193.616 126.899 193.347 126.251C193.123 125.716 194.744 126.283 194.744 126.283L195.067 126.515Z" fill="#C17276"/>
<path d="M192.045 124.213L192.182 122.977H187.248L188.067 130.403H191.362L191.499 129.158C191.6 129.171 191.701 129.178 191.802 129.179C192.443 129.179 193.059 128.934 193.523 128.492C193.987 128.051 194.264 127.448 194.295 126.808C194.326 126.169 194.11 125.542 193.691 125.057C193.272 124.573 192.682 124.269 192.045 124.207V124.213ZM191.802 128.695C191.717 128.694 191.631 128.688 191.546 128.677L191.984 124.708C192.499 124.753 192.976 124.995 193.316 125.384C193.656 125.773 193.833 126.278 193.808 126.794C193.784 127.31 193.561 127.797 193.186 128.152C192.811 128.507 192.313 128.703 191.796 128.7L191.802 128.695Z" fill="#343766"/>
<path d="M194.945 125.88C194.945 125.88 193.547 125.623 193.378 125.86C193.069 126.289 193.796 126.475 194.295 126.5C194.793 126.526 195.337 126.508 195.337 126.508L194.945 125.88Z" fill="#DA8C8D"/>
<path d="M220.261 123.362L220.753 119.107L219.262 125.191L219.753 126.708L220.261 123.362Z" fill="#F4C54E"/>
<path d="M144.514 167.813C144.514 167.813 146.761 162.819 146.027 159.266C142.239 140.933 149.034 145.766 140.183 141.526C132.307 137.754 131.719 154.705 131.719 154.705L129.342 167.576L144.514 167.813Z" fill="#F9DD89"/>
<path d="M141.952 142.385C141.952 142.385 146.247 144.227 147.778 146.354C148.547 147.428 151.796 155.787 151.796 155.787C151.796 155.787 147.706 157.92 145.392 157.209C145.394 157.214 141.891 144.801 141.952 142.385Z" fill="#F9DD89"/>
<path d="M150.569 156.352L154.955 169.181C154.955 169.181 156.511 168.847 157.453 168.892C158.394 168.937 159.156 169.969 159.156 169.969H153.241C153.241 169.969 147.34 161.892 146.196 158.573L145.671 157.353C145.671 157.353 148.958 157.037 150.569 156.352Z" fill="#DA8C8D"/>
<mask id="mask13_1_14782" style="mask-type:luminance" maskUnits="userSpaceOnUse" x="145" y="156" width="15" height="14">
<path d="M150.569 156.352L154.955 169.181C154.955 169.181 156.511 168.847 157.453 168.892C158.394 168.937 159.156 169.969 159.156 169.969H153.241C153.241 169.969 147.34 161.892 146.196 158.573L145.671 157.353C145.671 157.353 148.958 157.037 150.569 156.352Z" fill="white"/>
</mask>
<g mask="url(#mask13_1_14782)">
<path d="M144.669 158.367C144.285 158.337 143.857 158.267 143.645 157.946C143.527 157.735 143.498 157.487 143.564 157.255C143.73 156.533 144.394 156.038 145.057 155.709C146.577 154.962 148.302 154.74 149.962 155.078C150.718 155.236 151.499 155.526 152.033 156.102C152.417 156.511 152.802 157.207 152.323 157.685C151.869 158.13 151.106 158.197 150.51 158.265C149.591 158.371 148.669 158.434 147.743 158.456C146.718 158.479 145.692 158.45 144.669 158.367Z" fill="#C17276"/>
</g>
<path d="M145.666 157.357H144.34L143.607 151.676C143.607 151.676 142.763 156.797 142.876 158.149C142.989 159.502 146.155 161.983 146.155 161.983C146.155 161.983 146.272 159.222 145.666 157.357Z" fill="#F4C54E"/>
<path d="M139.179 165.303C139.179 165.303 129.031 148.222 125.301 149.089C121.571 149.955 115.412 165.389 115.412 165.389L118.015 166.286C118.015 166.286 125.821 157.677 125.821 156.117C125.821 156.117 124.259 168.603 130.332 168.516C136.405 168.429 139.179 165.303 139.179 165.303Z" fill="#39548B"/>
<mask id="mask14_1_14782" style="mask-type:luminance" maskUnits="userSpaceOnUse" x="115" y="149" width="25" height="20">
<path d="M139.179 165.303C139.179 165.303 129.031 148.222 125.301 149.089C121.571 149.955 115.412 165.389 115.412 165.389L118.015 166.286C118.015 166.286 125.821 157.677 125.821 156.117C125.821 156.117 124.259 168.603 130.332 168.516C136.405 168.429 139.179 165.303 139.179 165.303Z" fill="white"/>
</mask>
<g mask="url(#mask14_1_14782)">
<path d="M125.821 156.112C125.821 156.112 128.208 164.134 129.542 164.283C130.875 164.433 138.714 164.539 138.714 164.539C138.714 164.539 130.465 168.911 127.971 168.509C125.477 168.107 124.622 163.164 124.769 162.048C124.916 160.931 125.819 156.109 125.819 156.109" fill="#1F1949"/>
</g>
<path d="M144.656 162.223L125.909 166.926L126.26 169.807L144.136 169.968C145.072 169.98 145.998 169.775 146.842 169.371C147.686 168.967 148.425 168.375 149.004 167.639C149.668 166.784 150.157 165.855 149.935 165.14C149.729 164.487 149.188 163.897 148.59 163.413C147.482 162.522 146.072 162.096 144.656 162.223Z" fill="#39548B"/>
<path d="M118.531 166.04L115.533 164.494L114.102 167.396C114.102 167.396 110.545 168.192 108.918 169.956H116.045L116.557 168.101L118.531 166.04Z" fill="#1F1949"/>
<path d="M127.14 166.344L127.029 169.819H124.073C124.073 169.819 118.772 170.093 116.455 169.97L121.151 167.332C121.464 167.173 121.814 167.104 122.164 167.134L124.153 167.3L127.14 166.344Z" fill="#1F1949"/>
<path d="M143.004 162.699L126.838 166.554C126.695 166.588 126.545 166.564 126.42 166.487C126.294 166.41 126.205 166.287 126.171 166.144L123.39 154.493C123.373 154.422 123.37 154.349 123.381 154.277C123.393 154.205 123.418 154.136 123.456 154.074C123.494 154.012 123.544 153.958 123.603 153.916C123.662 153.873 123.729 153.842 123.8 153.826L139.966 149.97C140.037 149.953 140.11 149.951 140.182 149.962C140.254 149.973 140.323 149.999 140.384 150.037C140.446 150.075 140.5 150.125 140.543 150.184C140.586 150.243 140.616 150.309 140.633 150.38L143.414 162.032C143.431 162.102 143.434 162.176 143.422 162.248C143.411 162.319 143.386 162.388 143.347 162.45C143.309 162.512 143.259 162.566 143.201 162.609C143.142 162.651 143.075 162.682 143.004 162.699Z" fill="#1F1949"/>
<path d="M138.544 141.376L130.593 133.416L126.46 139.511C126.46 139.511 133.092 148.993 134.914 148.363C136.735 147.733 138.544 141.376 138.544 141.376Z" fill="#F9DD89"/>
<path d="M135.093 134.715C135.093 134.715 133.154 140.417 136.232 140.373C139.31 140.328 141.334 136.964 140.384 134.748C139.435 132.531 136.118 130.932 135.093 134.715Z" fill="#DA8C8D"/>
<mask id="mask15_1_14782" style="mask-type:luminance" maskUnits="userSpaceOnUse" x="134" y="132" width="7" height="9">
<path d="M135.093 134.715C135.093 134.715 133.154 140.417 136.232 140.373C139.31 140.328 141.334 136.964 140.384 134.748C139.435 132.531 136.118 130.932 135.093 134.715Z" fill="white"/>
</mask>
<g mask="url(#mask15_1_14782)">
<path d="M139.601 135.049C139.958 134.921 140.353 134.744 140.463 134.383C140.591 133.968 140.268 133.551 139.92 133.292C139.058 132.652 137.934 132.468 136.861 132.495C136.068 132.515 135.252 132.651 134.555 133.04C133.915 133.4 133.296 134.064 133.231 134.833C133.181 135.418 133.707 135.648 134.202 135.729C134.95 135.849 135.752 135.793 136.507 135.72C137.448 135.628 138.377 135.438 139.279 135.154C139.38 135.123 139.491 135.087 139.601 135.049Z" fill="#C17276"/>
</g>
<path d="M140.628 135.947C140.628 135.947 140.072 138.892 140.884 141.826C140.884 141.826 139.019 143.165 137.523 143.073C136.027 142.981 137.872 137.632 137.872 137.632L140.628 135.947Z" fill="#DA8C8D"/>
<path d="M137.148 140.257C137.148 140.257 137.358 140.342 138.544 139.488C138.544 139.488 138.636 140.788 136.967 141.383C136.967 141.377 137.071 140.595 137.148 140.257Z" fill="#C17276"/>
<path d="M139.004 134.35C139.015 135.149 139.183 135.938 139.498 136.673C139.49 136.469 139.535 136.227 139.72 136.14C139.794 136.112 139.876 136.108 139.953 136.128C140.03 136.148 140.099 136.192 140.15 136.253C140.251 136.376 140.315 136.525 140.337 136.683C140.388 136.894 140.386 137.114 140.329 137.323C140.3 137.428 140.247 137.524 140.173 137.604C140.099 137.683 140.007 137.744 139.904 137.78C140.098 138.315 140.281 138.867 140.474 139.401C141.488 138.42 142.143 137.126 142.331 135.728C142.386 135.363 142.39 134.993 142.344 134.628C142.258 134.027 141.994 133.466 141.586 133.016C141.429 132.834 141.237 132.686 141.02 132.583C140.518 132.362 139.896 132.522 139.506 132.906C139.115 133.29 138.997 133.802 139.004 134.35Z" fill="#343766"/>
<path d="M136.232 134.014C135.335 133.958 134.473 133.765 133.752 133.324C133.413 133.132 133.144 132.838 132.984 132.484C132.906 132.306 132.88 132.11 132.907 131.918C132.934 131.726 133.014 131.545 133.139 131.395C133.402 131.112 133.907 131.066 134.174 131.347C133.789 130.885 134.174 130.079 134.772 130C135.37 129.92 135.925 130.475 135.948 131.072C135.935 130.953 135.948 130.833 135.985 130.72C136.023 130.607 136.085 130.503 136.166 130.416C136.247 130.328 136.347 130.259 136.457 130.214C136.567 130.168 136.686 130.147 136.805 130.151C136.924 130.155 137.041 130.185 137.148 130.239C137.255 130.292 137.349 130.368 137.424 130.461C137.499 130.553 137.553 130.661 137.582 130.777C137.612 130.892 137.616 131.013 137.595 131.13C138.135 130.981 138.703 130.966 139.251 131.085C139.798 131.204 140.309 131.454 140.738 131.814C140.986 132.01 141.178 132.267 141.294 132.561C141.422 132.918 141.363 133.379 140.998 133.57C140.447 133.855 139.601 133.826 138.995 133.89C138.08 133.983 137.145 134.073 136.232 134.014Z" fill="#343766"/>
<path d="M129.955 134.358L124.02 121.07L122.671 121.792C122.671 121.792 124.655 136.287 126.968 138.762L129.955 134.358Z" fill="#DA8C8D"/>
<mask id="mask16_1_14782" style="mask-type:luminance" maskUnits="userSpaceOnUse" x="122" y="121" width="8" height="18">
<path d="M129.955 134.358L124.02 121.07L122.671 121.792C122.671 121.792 124.655 136.287 126.968 138.762L129.955 134.358Z" fill="white"/>
</mask>
<g mask="url(#mask16_1_14782)">
<path d="M126.502 135.414C125.882 135.868 125.293 136.393 124.916 137.062C124.678 137.486 124.532 138.03 124.788 138.448C124.884 138.595 125.009 138.723 125.155 138.821C126.202 139.582 127.809 139.428 128.694 138.483C128.911 138.239 129.101 137.972 129.261 137.687C129.833 136.75 130.26 135.732 130.528 134.667C130.587 134.411 130.633 134.143 130.528 133.909C130.478 133.8 130.39 133.714 130.281 133.666C130.171 133.619 130.048 133.614 129.935 133.653C129.655 133.736 129.38 133.835 129.111 133.948C128.521 134.191 127.951 134.48 127.405 134.811C127.095 135 126.794 135.201 126.502 135.414Z" fill="#C17276"/>
</g>
<path d="M124.02 121.069C124.02 121.069 124.009 118.86 123.802 118.552C123.596 118.243 123.527 119.718 123.459 119.616C123.391 119.513 122.223 117.041 122.017 116.904C121.811 116.767 120.918 118.184 121.022 118.987C121.125 119.79 122.671 121.791 122.671 121.791L124.02 121.069Z" fill="#DA8C8D"/>
<path d="M132.839 147.257C132.839 147.257 133.492 144.677 134.303 143.704C135.114 142.731 130.669 145.07 129.342 143.355C129.342 143.355 132.116 146.655 132.839 147.257Z" fill="#F4C54E"/>
<path d="M134.984 158.661C135.192 157.789 134.652 156.913 133.78 156.706C132.907 156.499 132.031 157.038 131.824 157.911C131.617 158.783 132.156 159.658 133.029 159.865C133.902 160.073 134.777 159.533 134.984 158.661Z" fill="#F2F3F7"/>
<path d="M280.572 120.787C280.572 120.787 276.297 123.206 274.839 128.231C273.381 133.257 271.487 139.683 271.487 139.683H278.416L280.572 120.787Z" fill="#F4C54E"/>
<path d="M259.755 144.246C259.755 144.246 258.305 161.17 259.256 167.745L261.014 167.828C261.014 167.828 266.614 152.674 266.266 147.848L259.755 144.246Z" fill="#343766"/>
<path d="M288.055 141.395C288.055 141.395 262.997 138.971 260.304 142.308C257.612 145.645 265.372 167.629 265.372 167.629H267.228C267.228 167.629 268.962 152.235 266.956 149.224C266.956 149.224 279.651 155.024 283.809 152.235C287.967 149.446 288.055 141.395 288.055 141.395Z" fill="#3A488A"/>
<path d="M287.88 141.37C287.88 141.37 289.658 141.59 289.565 138.137C289.473 134.684 291.608 124.447 283.382 121.228C276.092 118.376 276.209 133.182 276.209 133.182L273.904 141.187L287.88 141.37Z" fill="#F9DD89"/>
<path d="M281.497 135.768L276.207 138.208L276.821 141.198L283.442 140.046C283.555 140.025 283.66 139.975 283.747 139.899C283.833 139.824 283.898 139.727 283.935 139.618C284.219 138.738 284.647 136.517 282.094 135.726C281.897 135.666 281.684 135.681 281.497 135.768Z" fill="#DA8C8D"/>
<path d="M283.994 121.664C283.994 121.664 292.723 123.663 291.497 132.658C290.594 139.287 286.922 138.656 286.922 138.656L283.994 121.664Z" fill="#F9DD89"/>
<path d="M284.148 138.17C284.148 138.17 281.598 140.099 276.682 140.546L276.82 141.199L283.546 140.028C283.624 140.014 283.696 139.979 283.755 139.928C283.814 139.876 283.858 139.809 283.882 139.735C283.996 139.376 284.182 138.703 284.148 138.17Z" fill="#C17276"/>
<path d="M262.011 141.233H276.822L274.86 131.527H260.05L262.011 141.233Z" fill="#1F1949"/>
<path d="M267.036 136.783C267.292 137.423 268.008 137.936 268.645 137.936C269.281 137.936 269.593 137.423 269.341 136.783C269.09 136.143 268.368 135.631 267.731 135.631C267.095 135.631 266.784 136.144 267.036 136.783Z" fill="#F5F9FD"/>
<path d="M283.546 140.027C283.546 140.027 287.686 138.858 289.567 137.561C289.583 138.073 289.573 138.586 289.537 139.097C289.537 139.097 290.251 140.027 283.546 140.027Z" fill="#F4C54E"/>
<path d="M295.261 129.664H296.471L290.322 147.451C288.947 152.674 285.199 153.757 281.146 153.376L270.912 152.41C270.912 152.41 270.024 149.179 273.892 147.687C277.761 146.195 285.952 146.042 285.952 146.042L291.421 132.387C291.7 131.592 292.219 130.902 292.907 130.414C293.595 129.926 294.418 129.664 295.261 129.664Z" fill="#D4A4A4"/>
<path d="M294.627 169.999C294.694 169.998 294.759 169.983 294.818 169.953C294.877 169.923 294.929 169.88 294.968 169.827C295.008 169.774 295.035 169.712 295.048 169.647C295.06 169.582 295.057 169.515 295.04 169.451L289.994 151.875C289.829 151.304 289.483 150.802 289.008 150.443C288.534 150.085 287.956 149.89 287.361 149.887H275.791C275.173 149.886 274.574 150.094 274.09 150.477C273.607 150.86 273.267 151.395 273.126 151.996L268.953 169.469C268.937 169.525 268.933 169.583 268.94 169.64C268.948 169.697 268.967 169.752 268.996 169.801C269.025 169.851 269.064 169.894 269.11 169.929C269.156 169.963 269.209 169.988 269.265 170.001C269.321 170.015 269.379 170.017 269.436 170.007C269.493 169.997 269.547 169.977 269.595 169.946C269.644 169.915 269.686 169.874 269.718 169.826C269.751 169.779 269.773 169.725 269.784 169.669L273.959 152.195C274.056 151.782 274.289 151.414 274.622 151.151C274.954 150.888 275.366 150.745 275.791 150.746H287.361C287.77 150.748 288.168 150.882 288.494 151.128C288.82 151.375 289.058 151.72 289.172 152.113L294.217 169.688C294.243 169.777 294.296 169.856 294.37 169.912C294.444 169.968 294.535 169.999 294.627 169.999Z" fill="#343766"/>
<path d="M286.208 133.319C286.208 133.319 284.451 129.425 286.208 125.613C286.208 125.613 283.155 130.152 286.208 133.319Z" fill="#F4C54E"/>
<path d="M267.318 167.01H265.105L265.295 167.895C265.295 167.895 262.199 168.377 260.94 169.745H267.373L267.318 167.01Z" fill="#1F1949"/>
<path d="M261.263 167.019L258.998 166.975L258.943 167.871C258.943 167.871 255.485 168.274 254.204 169.616L260.826 169.744L261.263 167.019Z" fill="#1F1949"/>
<path d="M276.687 115.541C276.687 115.541 275.862 121.175 278.653 120.663C281.444 120.151 282.732 116.694 281.505 114.762C280.277 112.829 276.997 111.842 276.687 115.541Z" fill="#DA8C8D"/>
<mask id="mask17_1_14782" style="mask-type:luminance" maskUnits="userSpaceOnUse" x="276" y="113" width="6" height="8">
<path d="M276.687 115.541C276.687 115.541 275.862 121.175 278.653 120.663C281.444 120.151 282.732 116.694 281.505 114.762C280.277 112.829 276.997 111.842 276.687 115.541Z" fill="white"/>
</mask>
<g mask="url(#mask17_1_14782)">
<path d="M280.444 115.534C280.67 115.254 280.873 114.868 280.7 114.55C280.628 114.431 280.53 114.331 280.413 114.256C279.865 113.879 279.217 113.673 278.552 113.664C277.886 113.655 277.233 113.844 276.675 114.206C276.068 114.617 275.62 115.215 275.25 115.839C275.035 116.182 274.856 116.547 274.714 116.926C274.629 117.173 274.639 117.41 274.874 117.566C275.369 117.89 276.182 117.694 276.716 117.597C277.396 117.474 278.054 117.255 278.671 116.946C279.355 116.606 279.959 116.124 280.444 115.534Z" fill="#C17276"/>
</g>
<path d="M281.922 115.848C281.922 115.848 282.143 118.807 283.124 121.316C283.285 121.731 283.085 122.124 282.827 122.484C282.455 122.996 281.379 123.741 280.498 123.834C279.122 123.977 279.692 117.848 279.692 117.848L281.922 115.848Z" fill="#DA8C8D"/>
<path d="M279.572 120.361C279.572 120.361 280.078 120.255 280.81 119.227C280.81 119.227 280.823 120.751 279.594 121.353C279.594 121.353 279.571 120.413 279.572 120.361Z" fill="#C17276"/>
<path d="M279.97 116.092C279.97 116.092 279.264 115.302 276.687 115.542C273.945 115.798 272.699 112.553 274.037 112.153C275.376 111.754 278.343 110.498 280.636 111.522C283.146 112.645 285.135 115.093 282.275 118.293C282.275 118.293 280.928 117.842 281.337 117.129C281.876 116.191 280.67 114.934 279.97 116.092Z" fill="#1F1949"/>
<path d="M254.535 115.152H272.565C272.687 115.152 272.809 115.176 272.922 115.223C273.035 115.27 273.138 115.339 273.224 115.425C273.311 115.512 273.379 115.615 273.426 115.728C273.473 115.841 273.496 115.962 273.496 116.084V126.723C273.496 126.846 273.473 126.967 273.426 127.08C273.379 127.193 273.311 127.296 273.224 127.382C273.138 127.469 273.035 127.538 272.922 127.584C272.809 127.631 272.687 127.655 272.565 127.655H269.522V129.774C269.522 129.83 269.506 129.885 269.475 129.932C269.444 129.979 269.401 130.016 269.349 130.038C269.298 130.06 269.241 130.067 269.186 130.058C269.131 130.048 269.08 130.023 269.039 129.984L266.531 127.655H254.535C254.413 127.655 254.292 127.631 254.179 127.584C254.065 127.538 253.963 127.469 253.876 127.382C253.79 127.296 253.721 127.193 253.675 127.08C253.628 126.967 253.604 126.846 253.604 126.723V116.084C253.604 115.962 253.628 115.841 253.675 115.728C253.721 115.615 253.79 115.512 253.876 115.425C253.963 115.339 254.065 115.27 254.179 115.223C254.292 115.176 254.413 115.152 254.535 115.152Z" fill="#CAD2EA"/>
<path opacity="0.61" d="M254.535 115.152H272.565C272.687 115.152 272.809 115.176 272.922 115.223C273.035 115.27 273.138 115.339 273.224 115.425C273.311 115.512 273.379 115.615 273.426 115.728C273.473 115.841 273.496 115.962 273.496 116.084V126.723C273.496 126.846 273.473 126.967 273.426 127.08C273.379 127.193 273.311 127.296 273.224 127.382C273.138 127.469 273.035 127.538 272.922 127.584C272.809 127.631 272.687 127.655 272.565 127.655H269.522V129.774C269.522 129.83 269.506 129.885 269.475 129.932C269.444 129.979 269.401 130.016 269.349 130.038C269.298 130.06 269.241 130.067 269.186 130.058C269.131 130.048 269.08 130.023 269.039 129.984L266.531 127.655H254.535C254.413 127.655 254.292 127.631 254.179 127.584C254.065 127.538 253.963 127.469 253.876 127.382C253.79 127.296 253.721 127.193 253.675 127.08C253.628 126.967 253.604 126.846 253.604 126.723V116.084C253.604 115.962 253.628 115.841 253.675 115.728C253.721 115.615 253.79 115.512 253.876 115.425C253.963 115.339 254.065 115.27 254.179 115.223C254.292 115.176 254.413 115.152 254.535 115.152Z" fill="url(#paint1_linear_1_14782)"/>
<path d="M266.708 121.813C266.708 121.932 266.744 122.05 266.81 122.149C266.877 122.249 266.971 122.326 267.082 122.372C267.193 122.418 267.315 122.43 267.432 122.407C267.55 122.383 267.658 122.326 267.742 122.241C267.827 122.156 267.885 122.048 267.908 121.931C267.931 121.813 267.919 121.692 267.874 121.581C267.828 121.47 267.75 121.376 267.65 121.309C267.551 121.243 267.434 121.207 267.314 121.207C267.234 121.207 267.155 121.222 267.082 121.253C267.008 121.283 266.941 121.328 266.885 121.384C266.829 121.44 266.784 121.507 266.754 121.581C266.723 121.654 266.708 121.733 266.708 121.813Z" fill="white"/>
<path d="M262.841 121.813C262.841 121.932 262.876 122.05 262.943 122.149C263.01 122.249 263.104 122.326 263.215 122.372C263.326 122.418 263.448 122.43 263.565 122.407C263.683 122.383 263.791 122.325 263.876 122.24C263.96 122.156 264.018 122.048 264.041 121.93C264.064 121.812 264.052 121.691 264.006 121.58C263.96 121.469 263.882 121.375 263.782 121.308C263.683 121.242 263.565 121.207 263.445 121.207C263.366 121.207 263.287 121.223 263.214 121.253C263.14 121.284 263.074 121.328 263.017 121.384C262.961 121.441 262.917 121.508 262.886 121.581C262.856 121.654 262.841 121.733 262.841 121.813Z" fill="white"/>
<path d="M259.181 121.813C259.181 121.932 259.217 122.05 259.283 122.149C259.35 122.249 259.444 122.326 259.555 122.372C259.666 122.418 259.788 122.43 259.905 122.407C260.023 122.383 260.131 122.326 260.215 122.241C260.3 122.156 260.358 122.048 260.381 121.931C260.405 121.813 260.393 121.692 260.347 121.581C260.301 121.47 260.223 121.376 260.124 121.309C260.024 121.243 259.907 121.207 259.787 121.207C259.707 121.207 259.629 121.222 259.555 121.253C259.481 121.283 259.415 121.328 259.358 121.384C259.302 121.44 259.257 121.507 259.227 121.581C259.197 121.654 259.181 121.733 259.181 121.813Z" fill="white"/>
<path d="M370.942 142.902C369.789 140.582 369.539 137.917 370.24 135.423C370.941 132.929 372.542 130.784 374.734 129.403C374.25 130.272 374 131.251 374.006 132.245C374.013 133.24 374.277 134.215 374.773 135.078C374.989 135.445 375.42 135.829 375.785 135.612C375.958 135.508 376.041 135.302 376.092 135.108C376.639 133.126 375.75 130.755 376.962 129.09C377.535 128.306 378.484 127.865 379.441 127.706C380.397 127.548 381.379 127.637 382.344 127.727C381.783 128.364 381.424 129.154 381.312 129.996C381.2 130.837 381.34 131.693 381.714 132.455C381.77 132.588 381.862 132.702 381.979 132.786C382.071 132.83 382.171 132.852 382.272 132.852C382.373 132.852 382.473 132.83 382.565 132.786C383.302 132.492 383.679 131.678 383.893 130.914C384.107 130.149 384.253 129.323 384.779 128.729C385.306 128.135 386.173 127.88 386.981 127.909C387.789 127.937 388.569 128.207 389.329 128.487C390.695 129 392.048 129.556 393.386 130.158C392.958 131.999 392.453 133.862 391.343 135.393C390.796 136.147 390.021 136.827 389.092 136.894C388.637 136.928 388.188 136.812 387.743 136.715C387.188 136.594 386.626 136.501 386.061 136.437C385.599 136.386 385.037 136.395 384.781 136.784C384.524 137.174 384.745 137.699 385.112 137.96C385.48 138.221 385.951 138.275 386.4 138.321L390.204 138.715C389.48 140.051 389 141.455 388.154 142.716C387.309 143.978 385.971 145.053 384.451 145.042C382.116 145.022 380.372 142.529 378.038 142.462C377.987 142.458 377.936 142.463 377.887 142.477C377.624 142.569 377.75 142.974 377.952 143.166C378.681 143.857 379.745 144.021 380.712 144.286C381.68 144.551 382.726 145.069 382.998 146.035C381.635 147.793 379.343 148.809 377.12 148.724C376.005 148.675 374.916 148.366 373.942 147.822C372.967 147.278 372.133 146.515 371.505 145.592C371.058 144.921 371.303 143.628 370.942 142.902Z" fill="#7EAE82"/>
<path d="M364.156 158.407C364.156 158.407 364.585 147.989 374.825 140.796C385.066 133.603 391.173 131.141 391.173 131.141C391.173 131.141 362.771 139.19 362.447 158.043L364.156 158.407Z" fill="#668C68"/>
<path d="M356.664 145.196C358.417 143.512 359.793 141.476 360.701 139.222C361.61 136.967 362.03 134.546 361.934 132.118C361.478 132.945 361.002 133.798 360.248 134.366C359.493 134.935 358.377 135.141 357.609 134.592C358.239 133.633 359.042 132.799 359.64 131.816C360.239 130.832 360.625 129.639 360.304 128.541C359.929 127.26 358.718 126.428 357.591 125.707L354.216 123.548C355.148 125.119 354.359 127.438 352.663 128.114C352.986 126.169 353.203 123.877 351.78 122.512C351.096 121.856 350.152 121.556 349.237 121.306C346.576 120.575 343.855 120.08 341.107 119.826C341.432 121.149 341.299 122.515 341.235 123.881C341.171 125.247 341.119 126.629 341.471 127.946C341.823 129.264 342.644 130.523 343.894 131.067C344.279 131.233 344.696 131.333 345.028 131.579C345.36 131.825 345.577 132.311 345.367 132.671C345.141 133.055 344.599 133.078 344.148 133.014C342.668 132.801 341.269 132.209 340.085 131.296C340.098 132.854 340.239 134.61 340.634 136.117C341.03 137.624 341.854 139.078 343.167 139.918C345.472 141.389 348.517 140.631 351.157 141.327C351.145 142.032 350.26 142.324 349.551 142.383C348.151 142.499 346.743 142.473 345.348 142.305C348.165 144.82 352.995 146.037 356.664 145.196Z" fill="#7EAE82"/>
<path d="M341.107 119.826C341.107 119.826 355.168 137.843 357.275 147.227C358.94 154.625 361.133 161.146 361.133 161.146L362.688 161.429C362.688 161.429 361.781 141.884 341.107 119.826Z" fill="#668C68"/>
<path d="M367.555 169.999H356.187L352.121 155.15H370.799L367.555 169.999Z" fill="#8296C9"/>
<mask id="mask18_1_14782" style="mask-type:luminance" maskUnits="userSpaceOnUse" x="352" y="155" width="19" height="15">
<path d="M367.555 170H356.187L352.121 155.15H370.799L367.555 170Z" fill="white"/>
</mask>
<g mask="url(#mask18_1_14782)">
<path opacity="0.46" d="M371.747 154.301C372.431 153.661 373.134 152.777 372.834 151.893C372.556 151.071 371.579 150.757 370.73 150.578C365.57 149.493 360.279 149.177 355.027 149.641C353.215 149.801 351.332 150.085 349.847 151.137C348.017 152.434 347.087 154.793 347.262 157.027C347.412 158.948 348.341 160.996 349.714 162.369C350.867 163.521 352.337 163.21 353.77 162.839C357.924 161.761 362.066 160.462 365.865 158.433C367.994 157.314 369.971 155.925 371.747 154.301Z" fill="#CAD2EA"/>
</g>
<path d="M73.7911 170H72.5947L78.4945 132.014H79.6896L73.7911 170Z" fill="#8296C9"/>
<path d="M63.7766 170H62.5815L75.5993 132.014H76.7944L63.7766 170Z" fill="#CAD2EA"/>
<path d="M98.2173 170H97.0223L74.7539 132.014H75.9503L98.2173 170Z" fill="#8296C9"/>
<path d="M95.3033 145.782C101.509 138.796 99.3512 126.753 90.4845 118.883C81.6178 111.014 69.3996 110.299 63.1942 117.285C56.9889 124.272 59.1463 136.315 68.013 144.184C76.8797 152.053 89.098 152.769 95.3033 145.782Z" fill="url(#paint2_linear_1_14782)"/>
<path d="M90.5841 141.595C94.9652 136.662 93.4418 128.159 87.1816 122.603C80.9213 117.048 72.2948 116.542 67.9137 121.475C63.5326 126.408 65.0559 134.91 71.3162 140.466C77.5764 146.022 86.203 146.527 90.5841 141.595Z" fill="#F2F3F7"/>
<path d="M85.2041 136.819C87.505 134.228 86.7046 129.763 83.4163 126.844C80.128 123.926 75.597 123.66 73.2961 126.251C70.9952 128.841 71.7956 133.307 75.0839 136.226C78.3722 139.144 82.9032 139.41 85.2041 136.819Z" fill="url(#paint3_linear_1_14782)"/>
<path d="M85.5993 123.292L85.5378 124.105L79.5176 131.324C79.4922 131.351 79.4769 131.385 79.4741 131.422C79.4713 131.459 79.4812 131.496 79.5022 131.526C79.5159 131.537 79.5315 131.544 79.5482 131.549C79.565 131.553 79.5824 131.554 79.5995 131.552C79.6167 131.549 79.6331 131.543 79.6478 131.534C79.6626 131.525 79.6754 131.513 79.6854 131.499L85.7056 124.28L86.4229 124.159L88.0471 122.212L87.1607 122.34L87.2196 121.338L85.5993 123.292Z" fill="#1F1949"/>
<path d="M84.7641 119.887L84.9421 120.555L80.3424 128.365C80.3323 128.378 80.3253 128.393 80.322 128.409C80.3187 128.426 80.3192 128.442 80.3234 128.458C80.3276 128.474 80.3354 128.489 80.3463 128.502C80.3571 128.514 80.3707 128.524 80.386 128.53C80.4237 128.54 80.4636 128.537 80.4995 128.521C80.5354 128.506 80.5652 128.479 80.5845 128.446L85.1829 120.635L85.9514 120.292L87.1914 118.187L86.232 118.596L86.004 117.777L84.7641 119.887Z" fill="#1F1949"/>
<path d="M406 169.59H4V169.902H406V169.59Z" fill="#1F1949"/>
</g>
<defs>
<linearGradient id="paint0_linear_1_14782" x1="166.602" y1="117.927" x2="167.459" y2="61.5149" gradientUnits="userSpaceOnUse">
<stop stop-color="#F2F3F7"/>
<stop offset="1" stop-color="#8296C9"/>
</linearGradient>
<linearGradient id="paint1_linear_1_14782" x1="253.795" y1="113.521" x2="274.501" y2="130.265" gradientUnits="userSpaceOnUse">
<stop stop-color="#F2F3F7"/>
<stop offset="1" stop-color="#8296C9"/>
</linearGradient>
<linearGradient id="paint2_linear_1_14782" x1="67.388" y1="148.734" x2="89.1082" y2="119.11" gradientUnits="userSpaceOnUse">
<stop stop-color="#F2F3F7"/>
<stop offset="1" stop-color="#8296C9"/>
</linearGradient>
<linearGradient id="paint3_linear_1_14782" x1="77.0421" y1="134.112" x2="87.7413" y2="119.263" gradientUnits="userSpaceOnUse">
<stop stop-color="#F2F3F7"/>
<stop offset="0.13" stop-color="#DADFED"/>
<stop offset="0.35" stop-color="#B4BFDD"/>
<stop offset="0.56" stop-color="#98A9D2"/>
<stop offset="0.74" stop-color="#889BCB"/>
<stop offset="0.88" stop-color="#8296C9"/>
</linearGradient>
<clipPath id="clip0_1_14782">
<rect width="402" height="126" fill="white" transform="translate(4 44)"/>
</clipPath>
</defs>
</svg>
