<svg width="38" height="36" viewBox="0 0 38 36" fill="none" xmlns="http://www.w3.org/2000/svg">
<g clip-path="url(#clip0_646_3112)">
<path d="M35.15 0H2.85C2.09413 0 1.36922 0.301978 0.834746 0.839503C0.300267 1.37703 0 2.10607 0 2.86624V25.7962C0 26.5564 0.300267 27.2854 0.834746 27.8229C1.36922 28.3604 2.09413 28.6624 2.85 28.6624H14.079L12.35 33.4347C12.2453 33.7235 12.2115 34.0334 12.2513 34.3381C12.2911 34.6428 12.4034 34.9334 12.5787 35.1852C12.754 35.4369 12.987 35.6425 13.2582 35.7843C13.5293 35.9262 13.8304 36.0001 14.136 36H23.8592C24.1653 36.0009 24.467 35.9275 24.7387 35.786C25.0104 35.6444 25.2441 35.439 25.42 35.1871C25.5958 34.9352 25.7085 34.6444 25.7486 34.3393C25.7886 34.0342 25.7548 33.7239 25.65 33.4347L23.9257 28.6576H35.15C35.9059 28.6576 36.6308 28.3557 37.1653 27.8181C37.6997 27.2806 38 26.5516 38 25.7914V2.86146C37.9987 2.10212 37.6979 1.37431 37.1636 0.837813C36.6292 0.301321 35.905 -1.05465e-06 35.15 0ZM23.864 34.0892H14.1407L16.1025 28.6624H21.8975L23.864 34.0892ZM36.1 25.7962C36.1 26.0496 35.9999 26.2926 35.8218 26.4718C35.6436 26.6509 35.402 26.7516 35.15 26.7516H2.85C2.59804 26.7516 2.35641 26.6509 2.17825 26.4718C2.00009 26.2926 1.9 26.0496 1.9 25.7962V2.86624C1.9 2.61285 2.00009 2.36984 2.17825 2.19066C2.35641 2.01149 2.59804 1.91083 2.85 1.91083H35.15C35.402 1.91083 35.6436 2.01149 35.8218 2.19066C35.9999 2.36984 36.1 2.61285 36.1 2.86624V25.7962Z" fill="#0875FF"/>
<path d="M31.3501 4.77734H27.2889C27.0369 4.77734 26.7953 4.878 26.6171 5.05718C26.4389 5.23635 26.3389 5.47937 26.3389 5.73276C26.3389 5.98615 26.4389 6.22916 26.6171 6.40834C26.7953 6.58751 27.0369 6.68817 27.2889 6.68817H30.0011L20.5914 16.0894C20.5031 16.1783 20.3984 16.2487 20.283 16.2968C20.1677 16.3449 20.0441 16.3697 19.9192 16.3697C19.7944 16.3697 19.6708 16.3449 19.5554 16.2968C19.4401 16.2487 19.3353 16.1783 19.2471 16.0894L17.2094 14.0401C16.675 13.5033 15.9506 13.2018 15.1954 13.2018C14.4401 13.2018 13.7157 13.5033 13.1814 14.0401L5.03036 22.2519C4.86629 22.4333 4.77788 22.6713 4.78345 22.9165C4.78902 23.1617 4.88813 23.3953 5.06026 23.569C5.2324 23.7428 5.46437 23.8433 5.70815 23.8497C5.95194 23.8562 6.18886 23.7681 6.36986 23.6038L14.5256 15.4015C14.7073 15.2289 14.9478 15.1327 15.1977 15.1327C15.4477 15.1327 15.6882 15.2289 15.8699 15.4015L17.9076 17.4509C18.4418 17.9862 19.1651 18.2868 19.9192 18.2868C20.6733 18.2868 21.3967 17.9862 21.9309 17.4509L31.3501 8.03531V10.4716C31.3501 10.725 31.4502 10.968 31.6284 11.1472C31.8065 11.3264 32.0482 11.427 32.3001 11.427C32.5521 11.427 32.7937 11.3264 32.9719 11.1472C33.15 10.968 33.2501 10.725 33.2501 10.4716V6.68817C33.2501 6.18139 33.0499 5.69536 32.6936 5.33701C32.3373 4.97866 31.854 4.77734 31.3501 4.77734Z" fill="#0875FF"/>
</g>
<defs>
<clipPath id="clip0_646_3112">
<rect width="38" height="36" fill="white"/>
</clipPath>
</defs>
</svg>
