<svg width="256" height="225" viewBox="0 0 256 225" fill="none" xmlns="http://www.w3.org/2000/svg">
<rect width="256" height="180" rx="12" fill="url(#paint0_linear_1_234)"/>
<path d="M0 12C0 5.37258 5.37258 0 12 0H244C250.627 0 256 5.37258 256 12V40H0V12Z" fill="#EAF6FF" fill-opacity="0.2"/>
<rect x="22" y="15" width="80" height="10" rx="5" fill="#EAF6FF"/>
<rect x="184" y="15" width="10" height="10" rx="5" fill="#EAF6FF"/>
<rect x="204" y="15" width="10" height="10" rx="5" fill="#EAF6FF"/>
<rect x="224" y="15" width="10" height="10" rx="5" fill="#EAF6FF"/>
<g filter="url(#filter0_d_1_234)">
<path d="M118.557 93.9655L111.31 124.765C109.893 130.791 104.579 135 98.3874 135H55.7506C49.5597 135 44.2455 130.791 42.8276 124.765L35.5807 93.9655H118.557ZM97.2742 67.1511C96.4619 65.3239 94.3223 64.5008 92.4951 65.313C90.6678 66.1252 89.845 68.2648 90.657 70.0921L98.049 86.7241H105.973L97.2742 67.1511ZM63.481 70.0921C64.2933 68.2648 63.4702 66.1252 61.6429 65.313C59.8157 64.5008 57.6758 65.3239 56.8638 67.1511L48.1648 86.7241H56.089L63.481 70.0921Z" fill="url(#paint1_linear_1_234)"/>
</g>
<path d="M124.138 90.3448C124.138 88.3452 122.517 86.7241 120.517 86.7241H33.6207C31.6211 86.7241 30 88.3452 30 90.3448C30 92.3444 31.6211 93.9655 33.6207 93.9655H120.517C122.517 93.9655 124.138 92.3444 124.138 90.3448Z" fill="#0177BF"/>
<g filter="url(#filter1_d_1_234)">
<path d="M160 114.714C160 112.032 162.221 109.857 164.962 109.857H198.038C200.779 109.857 203 112.032 203 114.714C203 117.397 200.779 119.571 198.038 119.571H164.962C162.221 119.571 160 117.397 160 114.714ZM164.962 139H198.038C200.779 139 203 136.825 203 134.143C203 131.46 200.779 129.286 198.038 129.286H164.962C162.221 129.286 160 131.46 160 134.143C160 136.825 162.221 139 164.962 139ZM164.962 100.143H198.038C200.779 100.143 203 97.9682 203 95.2857V75.8571C203 73.1747 200.779 71 198.038 71H164.962C162.221 71 160 73.1747 160 75.8571V95.2857C160 97.9682 162.221 100.143 164.962 100.143Z" fill="url(#paint2_linear_1_234)"/>
</g>
<path d="M142.014 180H113.986L91.7595 213.34C90.2285 215.64 90.0825 218.599 91.386 221.038C92.6895 223.477 95.2315 225 98 225H158C160.769 225 163.31 223.477 164.614 221.038C165.918 218.599 165.771 215.639 164.241 213.339L142.014 180Z" fill="#0177BF"/>
<defs>
<filter id="filter0_d_1_234" x="3.58069" y="53" width="146.977" height="134" filterUnits="userSpaceOnUse" color-interpolation-filters="sRGB">
<feFlood flood-opacity="0" result="BackgroundImageFix"/>
<feColorMatrix in="SourceAlpha" type="matrix" values="0 0 0 0 0 0 0 0 0 0 0 0 0 0 0 0 0 0 127 0" result="hardAlpha"/>
<feOffset dy="20"/>
<feGaussianBlur stdDeviation="16"/>
<feComposite in2="hardAlpha" operator="out"/>
<feColorMatrix type="matrix" values="0 0 0 0 0.105882 0 0 0 0 0.105882 0 0 0 0 0.313726 0 0 0 0.16 0"/>
<feBlend mode="normal" in2="BackgroundImageFix" result="effect1_dropShadow_1_234"/>
<feBlend mode="normal" in="SourceGraphic" in2="effect1_dropShadow_1_234" result="shape"/>
</filter>
<filter id="filter1_d_1_234" x="128" y="59" width="107" height="132" filterUnits="userSpaceOnUse" color-interpolation-filters="sRGB">
<feFlood flood-opacity="0" result="BackgroundImageFix"/>
<feColorMatrix in="SourceAlpha" type="matrix" values="0 0 0 0 0 0 0 0 0 0 0 0 0 0 0 0 0 0 127 0" result="hardAlpha"/>
<feOffset dy="20"/>
<feGaussianBlur stdDeviation="16"/>
<feComposite in2="hardAlpha" operator="out"/>
<feColorMatrix type="matrix" values="0 0 0 0 0.105882 0 0 0 0 0.105882 0 0 0 0 0.313726 0 0 0 0.16 0"/>
<feBlend mode="normal" in2="BackgroundImageFix" result="effect1_dropShadow_1_234"/>
<feBlend mode="normal" in="SourceGraphic" in2="effect1_dropShadow_1_234" result="shape"/>
</filter>
<linearGradient id="paint0_linear_1_234" x1="298.105" y1="-31.95" x2="-3.39459" y2="300.27" gradientUnits="userSpaceOnUse">
<stop stop-color="#33DBBE"/>
<stop offset="1" stop-color="#3BA4FF"/>
</linearGradient>
<linearGradient id="paint1_linear_1_234" x1="77.069" y1="65" x2="77.069" y2="135" gradientUnits="userSpaceOnUse">
<stop stop-color="white"/>
<stop offset="1" stop-color="#AEDDFF"/>
</linearGradient>
<linearGradient id="paint2_linear_1_234" x1="138.499" y1="70.9987" x2="138.499" y2="139" gradientUnits="userSpaceOnUse">
<stop stop-color="white"/>
<stop offset="1" stop-color="#C8EDFF"/>
</linearGradient>
</defs>
</svg>
