<?xml version="1.0" encoding="utf-8"?>
<!-- Generator: Adobe Illustrator 27.6.1, SVG Export Plug-In . SVG Version: 6.00 Build 0)  -->
<svg version="1.1" id="Layer_1" xmlns="http://www.w3.org/2000/svg" xmlns:xlink="http://www.w3.org/1999/xlink" x="0px" y="0px"
	 viewBox="0 0 400 170" style="enable-background:new 0 0 400 170;" xml:space="preserve">
<style type="text/css">
	.st0{fill:#D9E0FF;}
	.st1{fill:#6878FF;}
	.st2{opacity:0.2;fill:#6878FF;}
	.st3{fill:#FFFFFF;}
	.st4{opacity:0.2;fill:none;stroke:#6878FF;stroke-miterlimit:10;}
	.st5{fill:#FF597C;}
	.st6{opacity:0.2;fill:#FF597C;}
	.st7{opacity:0.2;fill:none;stroke:#FF597C;stroke-miterlimit:10;}
	.st8{fill:#00CDC2;}
	.st9{opacity:0.2;fill:#00CDC2;}
	.st10{opacity:0.2;fill:none;stroke:#00CDC2;stroke-miterlimit:10;}
	.st11{fill:#6C8BAD;}
	.st12{opacity:0.2;fill:#5475A1;}
	.st13{opacity:0.2;fill:#6C8BAD;}
	.st14{opacity:0.2;fill:none;stroke:#6C8BAD;stroke-miterlimit:10;}
	.st15{fill:#FFB53A;}
	.st16{opacity:0.2;fill:#FFB53A;}
	.st17{opacity:0.2;fill:none;stroke:#FFB53A;stroke-miterlimit:10;}
	.st18{fill:#FFFFFF;stroke:#C0CFFF;stroke-miterlimit:10;}
	.st19{fill:none;stroke:#CDDBFA;stroke-linecap:round;stroke-miterlimit:10;}
	.st20{fill:#CDDBFA;}
	.st21{fill:#F3FAFF;}
	.st22{opacity:0.2;fill:#F3FAFF;}
	.st23{opacity:0.3;fill:none;stroke:#C0CFFF;stroke-miterlimit:10;}
</style>
<g>
	<rect x="1306.47" y="185.75" class="st0" width="400" height="170"/>
	<g>
		<path class="st1" d="M1377.62,261.72h-43.96c-1.35,0-2.44-1.09-2.44-2.44v0c0-1.35,1.09-2.44,2.44-2.44h43.96
			c1.35,0,2.44,1.09,2.44,2.44v0C1380.06,260.63,1378.97,261.72,1377.62,261.72z"/>
		<path class="st2" d="M1366.8,270.68h-33.14c-1.35,0-2.44-1.09-2.44-2.44v0c0-1.35,1.09-2.44,2.44-2.44h33.14
			c1.35,0,2.44,1.09,2.44,2.44v0C1369.24,269.58,1368.15,270.68,1366.8,270.68z"/>
		<path class="st2" d="M1385.2,251.14h-50.98c-1.66,0-3-1.34-3-3v-34.7c0-1.66,1.34-3,3-3h50.98c1.66,0,3,1.34,3,3v34.7
			C1388.2,249.8,1386.86,251.14,1385.2,251.14z"/>
		<path class="st1" d="M1332.06,240.73l10.72-10.72c1.11-1.11,2.92-1.11,4.03,0l4.29,4.29c1.11,1.11,2.92,1.11,4.03,0l11.42-11.42
			c1.11-1.11,2.92-1.11,4.03,0l16.83,16.83c0.53,0.53,0.84,1.26,0.84,2.02v6.56c0,1.57-1.28,2.85-2.85,2.85h-51.32
			c-1.57,0-2.85-1.28-2.85-2.85v-5.54C1331.22,241.99,1331.52,241.26,1332.06,240.73z"/>
		<circle class="st1" cx="1353.11" cy="221.56" r="4.42"/>
		<path class="st1" d="M1355.13,291.23h-18.21c-3.13,0-5.69-2.56-5.69-5.69v-0.01c0-3.13,2.56-5.69,5.69-5.69h18.21
			c3.13,0,5.69,2.56,5.69,5.69v0.01C1360.82,288.66,1358.26,291.23,1355.13,291.23z"/>
		<path class="st3" d="M1350.39,287.16h-8.74c-0.9,0-1.63-0.73-1.63-1.63v0c0-0.9,0.73-1.63,1.63-1.63h8.74
			c0.9,0,1.63,0.73,1.63,1.63v0C1352.02,286.43,1351.29,287.16,1350.39,287.16z"/>
		<path class="st4" d="M1388,295.98h-56.53c-2.76,0-5-2.24-5-5v-80.29c0-2.76,2.24-5,5-5H1388c2.76,0,5,2.24,5,5v80.29
			C1393,293.74,1390.76,295.98,1388,295.98z"/>
	</g>
	<g>
		<path class="st5" d="M1450.99,261.72h-43.96c-1.35,0-2.44-1.09-2.44-2.44v0c0-1.35,1.09-2.44,2.44-2.44h43.96
			c1.35,0,2.44,1.09,2.44,2.44v0C1453.43,260.63,1452.34,261.72,1450.99,261.72z"/>
		<path class="st6" d="M1440.17,270.68h-33.14c-1.35,0-2.44-1.09-2.44-2.44v0c0-1.35,1.09-2.44,2.44-2.44h33.14
			c1.35,0,2.44,1.09,2.44,2.44v0C1442.61,269.58,1441.52,270.68,1440.17,270.68z"/>
		<path class="st6" d="M1458.57,251.14h-50.98c-1.66,0-3-1.34-3-3v-34.7c0-1.66,1.34-3,3-3h50.98c1.66,0,3,1.34,3,3v34.7
			C1461.57,249.8,1460.23,251.14,1458.57,251.14z"/>
		<path class="st5" d="M1405.43,240.73l10.72-10.72c1.11-1.11,2.92-1.11,4.03,0l4.29,4.29c1.11,1.11,2.92,1.11,4.03,0l11.42-11.42
			c1.11-1.11,2.92-1.11,4.03,0l16.83,16.83c0.53,0.53,0.84,1.26,0.84,2.02v6.56c0,1.57-1.28,2.85-2.85,2.85h-51.32
			c-1.57,0-2.85-1.28-2.85-2.85v-5.54C1404.59,241.99,1404.89,241.26,1405.43,240.73z"/>
		<circle class="st5" cx="1426.48" cy="221.56" r="4.42"/>
		<path class="st5" d="M1428.5,291.23h-18.21c-3.13,0-5.69-2.56-5.69-5.69v-0.01c0-3.13,2.56-5.69,5.69-5.69h18.21
			c3.13,0,5.69,2.56,5.69,5.69v0.01C1434.19,288.66,1431.63,291.23,1428.5,291.23z"/>
		<path class="st3" d="M1423.76,287.16h-8.74c-0.9,0-1.63-0.73-1.63-1.63v0c0-0.9,0.73-1.63,1.63-1.63h8.74
			c0.9,0,1.63,0.73,1.63,1.63v0C1425.39,286.43,1424.66,287.16,1423.76,287.16z"/>
		<path class="st7" d="M1461.37,295.98h-56.53c-2.76,0-5-2.24-5-5v-80.29c0-2.76,2.24-5,5-5h56.53c2.76,0,5,2.24,5,5v80.29
			C1466.37,293.74,1464.13,295.98,1461.37,295.98z"/>
	</g>
	<g>
		<path class="st8" d="M1597.73,261.72h-43.96c-1.35,0-2.44-1.09-2.44-2.44v0c0-1.35,1.09-2.44,2.44-2.44h43.96
			c1.35,0,2.44,1.09,2.44,2.44v0C1600.17,260.63,1599.07,261.72,1597.73,261.72z"/>
		<path class="st9" d="M1581.45,270.68h-27.68c-1.35,0-2.44-1.09-2.44-2.44v0c0-1.35,1.09-2.44,2.44-2.44h27.68
			c1.35,0,2.44,1.09,2.44,2.44v0C1583.89,269.58,1582.79,270.68,1581.45,270.68z"/>
		<path class="st9" d="M1605.31,251.14h-50.98c-1.66,0-3-1.34-3-3v-34.7c0-1.66,1.34-3,3-3h50.98c1.66,0,3,1.34,3,3v34.7
			C1608.31,249.8,1606.96,251.14,1605.31,251.14z"/>
		<path class="st8" d="M1552.16,240.73l10.72-10.72c1.11-1.11,2.92-1.11,4.03,0l4.29,4.29c1.11,1.11,2.92,1.11,4.03,0l11.42-11.42
			c1.11-1.11,2.92-1.11,4.03,0l16.83,16.83c0.53,0.53,0.84,1.26,0.84,2.02v6.56c0,1.57-1.28,2.85-2.85,2.85h-51.32
			c-1.57,0-2.85-1.28-2.85-2.85v-5.54C1551.33,241.99,1551.63,241.26,1552.16,240.73z"/>
		<circle class="st8" cx="1573.21" cy="221.56" r="4.42"/>
		<path class="st8" d="M1575.23,291.23h-18.21c-3.13,0-5.69-2.56-5.69-5.69v-0.01c0-3.13,2.56-5.69,5.69-5.69h18.21
			c3.13,0,5.69,2.56,5.69,5.69v0.01C1580.93,288.66,1578.36,291.23,1575.23,291.23z"/>
		<path class="st10" d="M1608.1,295.98h-56.53c-2.76,0-5-2.24-5-5v-80.29c0-2.76,2.24-5,5-5h56.53c2.76,0,5,2.24,5,5v80.29
			C1613.1,293.74,1610.87,295.98,1608.1,295.98z"/>
		<path class="st3" d="M1570.5,287.16h-8.74c-0.9,0-1.63-0.73-1.63-1.63v0c0-0.9,0.73-1.63,1.63-1.63h8.74
			c0.9,0,1.63,0.73,1.63,1.63v0C1572.12,286.43,1571.4,287.16,1570.5,287.16z"/>
	</g>
	<g>
		<path class="st11" d="M1671.09,261.72h-43.96c-1.35,0-2.44-1.09-2.44-2.44v0c0-1.35,1.09-2.44,2.44-2.44h43.96
			c1.35,0,2.44,1.09,2.44,2.44v0C1673.53,260.63,1672.44,261.72,1671.09,261.72z"/>
		<path class="st12" d="M1654.81,270.68h-27.68c-1.35,0-2.44-1.09-2.44-2.44v0c0-1.35,1.09-2.44,2.44-2.44h27.68
			c1.35,0,2.44,1.09,2.44,2.44v0C1657.25,269.58,1656.16,270.68,1654.81,270.68z"/>
		<path class="st13" d="M1678.67,251.14h-50.98c-1.66,0-3-1.34-3-3v-34.7c0-1.66,1.34-3,3-3h50.98c1.66,0,3,1.34,3,3v34.7
			C1681.67,249.8,1680.33,251.14,1678.67,251.14z"/>
		<path class="st11" d="M1625.53,240.73l10.72-10.72c1.11-1.11,2.92-1.11,4.03,0l4.29,4.29c1.11,1.11,2.92,1.11,4.03,0l11.42-11.42
			c1.11-1.11,2.92-1.11,4.03,0l16.83,16.83c0.53,0.53,0.84,1.26,0.84,2.02v6.56c0,1.57-1.28,2.85-2.85,2.85h-51.32
			c-1.57,0-2.85-1.28-2.85-2.85v-5.54C1624.69,241.99,1624.99,241.26,1625.53,240.73z"/>
		<circle class="st11" cx="1646.58" cy="221.56" r="4.42"/>
		<path class="st11" d="M1648.6,291.23h-18.21c-3.13,0-5.69-2.56-5.69-5.69v-0.01c0-3.13,2.56-5.69,5.69-5.69h18.21
			c3.13,0,5.69,2.56,5.69,5.69v0.01C1654.29,288.66,1651.73,291.23,1648.6,291.23z"/>
		<path class="st14" d="M1681.47,295.98h-56.53c-2.76,0-5-2.24-5-5v-80.29c0-2.76,2.24-5,5-5h56.53c2.76,0,5,2.24,5,5v80.29
			C1686.47,293.74,1684.23,295.98,1681.47,295.98z"/>
		<path class="st3" d="M1643.86,287.16h-8.74c-0.9,0-1.63-0.73-1.63-1.63v0c0-0.9,0.73-1.63,1.63-1.63h8.74
			c0.9,0,1.63,0.73,1.63,1.63v0C1645.49,286.43,1644.76,287.16,1643.86,287.16z"/>
	</g>
	<g>
		<path class="st15" d="M1524.36,261.72h-43.96c-1.35,0-2.44-1.09-2.44-2.44v0c0-1.35,1.09-2.44,2.44-2.44h43.96
			c1.35,0,2.44,1.09,2.44,2.44v0C1526.8,260.63,1525.71,261.72,1524.36,261.72z"/>
		<path class="st16" d="M1513.54,270.68h-33.14c-1.35,0-2.44-1.09-2.44-2.44v0c0-1.35,1.09-2.44,2.44-2.44h33.14
			c1.35,0,2.44,1.09,2.44,2.44v0C1515.98,269.58,1514.88,270.68,1513.54,270.68z"/>
		<path class="st16" d="M1531.94,251.14h-50.98c-1.66,0-3-1.34-3-3v-34.7c0-1.66,1.34-3,3-3h50.98c1.66,0,3,1.34,3,3v34.7
			C1534.94,249.8,1533.59,251.14,1531.94,251.14z"/>
		<path class="st15" d="M1478.79,240.73l10.72-10.72c1.11-1.11,2.92-1.11,4.03,0l4.29,4.29c1.11,1.11,2.92,1.11,4.03,0l11.42-11.42
			c1.11-1.11,2.92-1.11,4.03,0l16.83,16.83c0.53,0.53,0.84,1.26,0.84,2.02v6.56c0,1.57-1.28,2.85-2.85,2.85h-51.32
			c-1.57,0-2.85-1.28-2.85-2.85v-5.54C1477.96,241.99,1478.26,241.26,1478.79,240.73z"/>
		<circle class="st15" cx="1499.85" cy="221.56" r="4.42"/>
		<path class="st15" d="M1501.87,291.23h-18.21c-3.13,0-5.69-2.56-5.69-5.69v-0.01c0-3.13,2.56-5.69,5.69-5.69h18.21
			c3.13,0,5.69,2.56,5.69,5.69v0.01C1507.56,288.66,1505,291.23,1501.87,291.23z"/>
		<path class="st3" d="M1497.13,287.16h-8.74c-0.9,0-1.63-0.73-1.63-1.63v0c0-0.9,0.73-1.63,1.63-1.63h8.74
			c0.9,0,1.63,0.73,1.63,1.63v0C1498.76,286.43,1498.03,287.16,1497.13,287.16z"/>
		<path class="st17" d="M1534.74,295.98h-56.53c-2.76,0-5-2.24-5-5v-80.29c0-2.76,2.24-5,5-5h56.53c2.76,0,5,2.24,5,5v80.29
			C1539.74,293.74,1537.5,295.98,1534.74,295.98z"/>
	</g>
	<path class="st18" d="M1426.47,335.71h-95c-2.76,0-5-2.24-5-5v-17.13c0-2.76,2.24-5,5-5h95c2.76,0,5,2.24,5,5v17.13
		C1431.47,333.47,1429.23,335.71,1426.47,335.71z"/>
	<g>
		<g>
			<path class="st5" d="M1390.98,320.14h-28.39c-0.83,0-1.5-0.67-1.5-1.5l0,0c0-0.83,0.67-1.5,1.5-1.5h28.39
				c0.83,0,1.5,0.67,1.5,1.5l0,0C1392.48,319.47,1391.81,320.14,1390.98,320.14z"/>
			<path class="st6" d="M1380.52,327.14h-17.92c-0.83,0-1.5-0.67-1.5-1.5l0,0c0-0.83,0.67-1.5,1.5-1.5h17.92
				c0.83,0,1.5,0.67,1.5,1.5l0,0C1382.02,326.47,1381.35,327.14,1380.52,327.14z"/>
		</g>
		<g>
			<line class="st19" x1="1421.13" y1="320.22" x2="1425.13" y2="324.22"/>
			<line class="st19" x1="1425.13" y1="320.22" x2="1421.13" y2="324.22"/>
		</g>
		<g>
			<path class="st6" d="M1355.08,331.52h-22.26c-1.1,0-2-0.9-2-2v-14.76c0-1.1,0.9-2,2-2h22.26c1.1,0,2,0.9,2,2v14.76
				C1357.08,330.63,1356.19,331.52,1355.08,331.52z"/>
			<path class="st5" d="M1331.31,326.6l4.53-4.53c0.67-0.67,1.76-0.67,2.43,0l1.4,1.4c0.67,0.67,1.76,0.67,2.43,0l4.69-4.69
				c0.67-0.67,1.76-0.67,2.43,0l7.35,7.35c0.32,0.32,0.5,0.76,0.5,1.22v2.45c0,0.95-0.77,1.72-1.72,1.72h-22.85
				c-0.95,0-1.72-0.77-1.72-1.72v-1.98C1330.81,327.36,1330.99,326.93,1331.31,326.6z"/>
			<circle class="st5" cx="1340.9" cy="317.89" r="2.04"/>
		</g>
	</g>
</g>
<g>
	<rect class="st0" width="400" height="170"/>
	<g>
		<g>
			<path class="st1" d="M71.15,95.84H27.19c-1.35,0-2.44-1.09-2.44-2.44v0c0-1.35,1.09-2.44,2.44-2.44h43.96
				c1.35,0,2.44,1.09,2.44,2.44v0C73.59,94.75,72.5,95.84,71.15,95.84z"/>
			<path class="st2" d="M60.33,104.79H27.19c-1.35,0-2.44-1.09-2.44-2.44v0c0-1.35,1.09-2.44,2.44-2.44h33.14
				c1.35,0,2.44,1.09,2.44,2.44v0C62.77,103.7,61.68,104.79,60.33,104.79z"/>
			<path class="st2" d="M78.73,85.26H27.75c-1.66,0-3-1.34-3-3v-34.7c0-1.66,1.34-3,3-3h50.98c1.66,0,3,1.34,3,3v34.7
				C81.73,83.91,80.39,85.26,78.73,85.26z"/>
			<path class="st1" d="M25.59,74.85L36.3,64.13c1.11-1.11,2.92-1.11,4.03,0l4.29,4.29c1.11,1.11,2.92,1.11,4.03,0L60.08,57
				c1.11-1.11,2.92-1.11,4.03,0l16.83,16.83c0.53,0.53,0.84,1.26,0.84,2.02v6.56c0,1.57-1.28,2.85-2.85,2.85H27.6
				c-1.57,0-2.85-1.28-2.85-2.85v-5.54C24.75,76.11,25.05,75.38,25.59,74.85z"/>
			<circle class="st1" cx="46.64" cy="55.67" r="4.42"/>
			<path class="st1" d="M48.66,125.34H30.45c-3.13,0-5.69-2.56-5.69-5.69v-0.01c0-3.13,2.56-5.69,5.69-5.69h18.21
				c3.13,0,5.69,2.56,5.69,5.69v0.01C54.35,122.78,51.79,125.34,48.66,125.34z"/>
			<path class="st3" d="M43.92,121.27h-8.74c-0.9,0-1.63-0.73-1.63-1.63v0c0-0.9,0.73-1.63,1.63-1.63h8.74
				c0.9,0,1.63,0.73,1.63,1.63v0C45.55,120.55,44.82,121.27,43.92,121.27z"/>
			<path class="st4" d="M81.53,130.1H25c-2.76,0-5-2.24-5-5V44.81c0-2.76,2.24-5,5-5h56.53c2.76,0,5,2.24,5,5v80.29
				C86.53,127.86,84.29,130.1,81.53,130.1z"/>
		</g>
		<g>
			<path class="st5" d="M144.52,95.84h-43.96c-1.35,0-2.44-1.09-2.44-2.44v0c0-1.35,1.09-2.44,2.44-2.44h43.96
				c1.35,0,2.44,1.09,2.44,2.44v0C146.96,94.75,145.87,95.84,144.52,95.84z"/>
			<path class="st6" d="M133.7,104.79h-33.14c-1.35,0-2.44-1.09-2.44-2.44v0c0-1.35,1.09-2.44,2.44-2.44h33.14
				c1.35,0,2.44,1.09,2.44,2.44v0C136.14,103.7,135.04,104.79,133.7,104.79z"/>
			<path class="st6" d="M152.1,85.26h-50.98c-1.66,0-3-1.34-3-3v-34.7c0-1.66,1.34-3,3-3h50.98c1.66,0,3,1.34,3,3v34.7
				C155.1,83.91,153.76,85.26,152.1,85.26z"/>
			<path class="st5" d="M98.95,74.85l10.72-10.72c1.11-1.11,2.92-1.11,4.03,0l4.29,4.29c1.11,1.11,2.92,1.11,4.03,0L133.45,57
				c1.11-1.11,2.92-1.11,4.03,0l16.83,16.83c0.53,0.53,0.84,1.26,0.84,2.02v6.56c0,1.57-1.28,2.85-2.85,2.85h-51.32
				c-1.57,0-2.85-1.28-2.85-2.85v-5.54C98.12,76.11,98.42,75.38,98.95,74.85z"/>
			<circle class="st5" cx="120.01" cy="55.67" r="4.42"/>
			<path class="st5" d="M122.03,125.34h-18.21c-3.13,0-5.69-2.56-5.69-5.69v-0.01c0-3.13,2.56-5.69,5.69-5.69h18.21
				c3.13,0,5.69,2.56,5.69,5.69v0.01C127.72,122.78,125.16,125.34,122.03,125.34z"/>
			<path class="st3" d="M117.29,121.27h-8.74c-0.9,0-1.63-0.73-1.63-1.63v0c0-0.9,0.73-1.63,1.63-1.63h8.74
				c0.9,0,1.63,0.73,1.63,1.63v0C118.92,120.55,118.19,121.27,117.29,121.27z"/>
			<path class="st7" d="M154.9,130.1H98.37c-2.76,0-5-2.24-5-5V44.81c0-2.76,2.24-5,5-5h56.53c2.76,0,5,2.24,5,5v80.29
				C159.9,127.86,157.66,130.1,154.9,130.1z"/>
		</g>
		<g>
			<path class="st8" d="M291.25,95.84H247.3c-1.35,0-2.44-1.09-2.44-2.44v0c0-1.35,1.09-2.44,2.44-2.44h43.96
				c1.35,0,2.44,1.09,2.44,2.44v0C293.69,94.75,292.6,95.84,291.25,95.84z"/>
			<path class="st9" d="M274.97,104.79H247.3c-1.35,0-2.44-1.09-2.44-2.44v0c0-1.35,1.09-2.44,2.44-2.44h27.68
				c1.35,0,2.44,1.09,2.44,2.44v0C277.41,103.7,276.32,104.79,274.97,104.79z"/>
			<path class="st9" d="M298.83,85.26h-50.98c-1.66,0-3-1.34-3-3v-34.7c0-1.66,1.34-3,3-3h50.98c1.66,0,3,1.34,3,3v34.7
				C301.83,83.91,300.49,85.26,298.83,85.26z"/>
			<path class="st8" d="M245.69,74.85l10.72-10.72c1.11-1.11,2.92-1.11,4.03,0l4.29,4.29c1.11,1.11,2.92,1.11,4.03,0L280.18,57
				c1.11-1.11,2.92-1.11,4.03,0l16.83,16.83c0.53,0.53,0.84,1.26,0.84,2.02v6.56c0,1.57-1.28,2.85-2.85,2.85h-51.32
				c-1.57,0-2.85-1.28-2.85-2.85v-5.54C244.86,76.11,245.16,75.38,245.69,74.85z"/>
			<circle class="st8" cx="266.74" cy="55.67" r="4.42"/>
			<path class="st8" d="M268.76,125.34h-18.21c-3.13,0-5.69-2.56-5.69-5.69v-0.01c0-3.13,2.56-5.69,5.69-5.69h18.21
				c3.13,0,5.69,2.56,5.69,5.69v0.01C274.46,122.78,271.89,125.34,268.76,125.34z"/>
			<path class="st10" d="M301.63,130.1H245.1c-2.76,0-5-2.24-5-5V44.81c0-2.76,2.24-5,5-5h56.53c2.76,0,5,2.24,5,5v80.29
				C306.63,127.86,304.39,130.1,301.63,130.1z"/>
			<path class="st3" d="M264.03,121.27h-8.74c-0.9,0-1.63-0.73-1.63-1.63v0c0-0.9,0.73-1.63,1.63-1.63h8.74
				c0.9,0,1.63,0.73,1.63,1.63v0C265.65,120.55,264.92,121.27,264.03,121.27z"/>
		</g>
		<g>
			<path class="st11" d="M364.62,95.84h-43.96c-1.35,0-2.44-1.09-2.44-2.44v0c0-1.35,1.09-2.44,2.44-2.44h43.96
				c1.35,0,2.44,1.09,2.44,2.44v0C367.06,94.75,365.97,95.84,364.62,95.84z"/>
			<path class="st12" d="M348.34,104.79h-27.68c-1.35,0-2.44-1.09-2.44-2.44v0c0-1.35,1.09-2.44,2.44-2.44h27.68
				c1.35,0,2.44,1.09,2.44,2.44v0C350.78,103.7,349.69,104.79,348.34,104.79z"/>
			<path class="st13" d="M372.2,85.26h-50.98c-1.66,0-3-1.34-3-3v-34.7c0-1.66,1.34-3,3-3h50.98c1.66,0,3,1.34,3,3v34.7
				C375.2,83.91,373.86,85.26,372.2,85.26z"/>
			<path class="st11" d="M319.06,74.85l10.72-10.72c1.11-1.11,2.92-1.11,4.03,0l4.29,4.29c1.11,1.11,2.92,1.11,4.03,0L353.55,57
				c1.11-1.11,2.92-1.11,4.03,0l16.83,16.83c0.53,0.53,0.84,1.26,0.84,2.02v6.56c0,1.57-1.28,2.85-2.85,2.85h-51.32
				c-1.57,0-2.85-1.28-2.85-2.85v-5.54C318.22,76.11,318.52,75.38,319.06,74.85z"/>
			<circle class="st11" cx="340.11" cy="55.67" r="4.42"/>
			<path class="st11" d="M342.13,125.34h-18.21c-3.13,0-5.69-2.56-5.69-5.69v-0.01c0-3.13,2.56-5.69,5.69-5.69h18.21
				c3.13,0,5.69,2.56,5.69,5.69v0.01C347.82,122.78,345.26,125.34,342.13,125.34z"/>
			<path class="st14" d="M375,130.1h-56.53c-2.76,0-5-2.24-5-5V44.81c0-2.76,2.24-5,5-5H375c2.76,0,5,2.24,5,5v80.29
				C380,127.86,377.76,130.1,375,130.1z"/>
			<path class="st3" d="M337.39,121.27h-8.74c-0.9,0-1.63-0.73-1.63-1.63v0c0-0.9,0.73-1.63,1.63-1.63h8.74
				c0.9,0,1.63,0.73,1.63,1.63v0C339.02,120.55,338.29,121.27,337.39,121.27z"/>
		</g>
		<g>
			<path class="st15" d="M217.89,95.84h-43.96c-1.35,0-2.44-1.09-2.44-2.44v0c0-1.35,1.09-2.44,2.44-2.44h43.96
				c1.35,0,2.44,1.09,2.44,2.44v0C220.33,94.75,219.23,95.84,217.89,95.84z"/>
			<path class="st16" d="M207.06,104.79h-33.14c-1.35,0-2.44-1.09-2.44-2.44v0c0-1.35,1.09-2.44,2.44-2.44h33.14
				c1.35,0,2.44,1.09,2.44,2.44v0C209.5,103.7,208.41,104.79,207.06,104.79z"/>
			<path class="st16" d="M225.47,85.26h-50.98c-1.66,0-3-1.34-3-3v-34.7c0-1.66,1.34-3,3-3h50.98c1.66,0,3,1.34,3,3v34.7
				C228.47,83.91,227.12,85.26,225.47,85.26z"/>
			<path class="st15" d="M172.32,74.85l10.72-10.72c1.11-1.11,2.92-1.11,4.03,0l4.29,4.29c1.11,1.11,2.92,1.11,4.03,0L206.82,57
				c1.11-1.11,2.92-1.11,4.03,0l16.83,16.83c0.53,0.53,0.84,1.26,0.84,2.02v6.56c0,1.57-1.28,2.85-2.85,2.85h-51.32
				c-1.57,0-2.85-1.28-2.85-2.85v-5.54C171.49,76.11,171.79,75.38,172.32,74.85z"/>
			<circle class="st15" cx="193.38" cy="55.67" r="4.42"/>
			<path class="st15" d="M195.39,125.34h-18.21c-3.13,0-5.69-2.56-5.69-5.69v-0.01c0-3.13,2.56-5.69,5.69-5.69h18.21
				c3.13,0,5.69,2.56,5.69,5.69v0.01C201.09,122.78,198.53,125.34,195.39,125.34z"/>
			<path class="st3" d="M190.66,121.27h-8.74c-0.9,0-1.63-0.73-1.63-1.63v0c0-0.9,0.73-1.63,1.63-1.63h8.74
				c0.9,0,1.63,0.73,1.63,1.63v0C192.28,120.55,191.56,121.27,190.66,121.27z"/>
			<path class="st17" d="M228.26,130.1h-56.53c-2.76,0-5-2.24-5-5V44.81c0-2.76,2.24-5,5-5h56.53c2.76,0,5,2.24,5,5v80.29
				C233.26,127.86,231.03,130.1,228.26,130.1z"/>
		</g>
	</g>
	<path class="st3" d="M160.19,140.67H151c-0.95,0-1.71-0.77-1.71-1.71v0c0-0.95,0.77-1.71,1.71-1.71h9.19
		c0.95,0,1.71,0.77,1.71,1.71v0C161.91,139.9,161.14,140.67,160.19,140.67z"/>
	<path class="st18" d="M264.27,149.95H135.73c-2.76,0-5-2.24-5-5v-120c0-2.76,2.24-5,5-5h128.55c2.76,0,5,2.24,5,5v120
		C269.27,147.71,267.04,149.95,264.27,149.95z"/>
	<path class="st1" d="M256.27,139.95H143.73c-1.66,0-3-1.34-3-3V98.84c0-1.66,1.34-3,3-3h112.55c1.66,0,3,1.34,3,3v38.11
		C259.27,138.61,257.93,139.95,256.27,139.95z"/>
	<g>
		<g>
			<path class="st1" d="M201.24,32.85h-28.39c-0.83,0-1.5-0.67-1.5-1.5v0c0-0.83,0.67-1.5,1.5-1.5h28.39c0.83,0,1.5,0.67,1.5,1.5v0
				C202.74,32.18,202.07,32.85,201.24,32.85z"/>
			<path class="st20" d="M190.78,39.85h-17.92c-0.83,0-1.5-0.67-1.5-1.5v0c0-0.83,0.67-1.5,1.5-1.5h17.92c0.83,0,1.5,0.67,1.5,1.5v0
				C192.28,39.18,191.61,39.85,190.78,39.85z"/>
		</g>
		<g>
			<path class="st20" d="M165.35,44.23h-22.26c-1.1,0-2-0.9-2-2V27.47c0-1.1,0.9-2,2-2h22.26c1.1,0,2,0.9,2,2v14.76
				C167.35,43.34,166.45,44.23,165.35,44.23z"/>
			<path class="st1" d="M141.58,39.32l4.53-4.53c0.67-0.67,1.76-0.67,2.43,0l1.4,1.4c0.67,0.67,1.76,0.67,2.43,0l4.69-4.69
				c0.67-0.67,1.76-0.67,2.43,0l7.35,7.35c0.32,0.32,0.5,0.76,0.5,1.22v2.45c0,0.95-0.77,1.72-1.72,1.72h-22.85
				c-0.95,0-1.72-0.77-1.72-1.72v-1.98C141.07,40.08,141.25,39.64,141.58,39.32z"/>
			<circle class="st1" cx="151.16" cy="30.6" r="2.04"/>
		</g>
		<g>
			<line class="st19" x1="254.74" y1="32.85" x2="258.74" y2="36.85"/>
			<line class="st19" x1="258.74" y1="32.85" x2="254.74" y2="36.85"/>
		</g>
	</g>
	<g>
		<g>
			<path class="st8" d="M201.24,63.42h-28.39c-0.83,0-1.5-0.67-1.5-1.5v0c0-0.83,0.67-1.5,1.5-1.5h28.39c0.83,0,1.5,0.67,1.5,1.5v0
				C202.74,62.75,202.07,63.42,201.24,63.42z"/>
			<path class="st9" d="M190.78,70.42h-17.92c-0.83,0-1.5-0.67-1.5-1.5v0c0-0.83,0.67-1.5,1.5-1.5h17.92c0.83,0,1.5,0.67,1.5,1.5v0
				C192.28,69.75,191.61,70.42,190.78,70.42z"/>
		</g>
		<g>
			<line class="st19" x1="254.74" y1="63.42" x2="258.74" y2="67.42"/>
			<line class="st19" x1="258.74" y1="63.42" x2="254.74" y2="67.42"/>
		</g>
		<g>
			<path class="st9" d="M165.35,74.8h-22.26c-1.1,0-2-0.9-2-2V58.04c0-1.1,0.9-2,2-2h22.26c1.1,0,2,0.9,2,2V72.8
				C167.35,73.9,166.45,74.8,165.35,74.8z"/>
			<path class="st8" d="M141.58,69.88l4.53-4.53c0.67-0.67,1.76-0.67,2.43,0l1.4,1.4c0.67,0.67,1.76,0.67,2.43,0l4.69-4.69
				c0.67-0.67,1.76-0.67,2.43,0l7.35,7.35c0.32,0.32,0.5,0.76,0.5,1.22v2.45c0,0.95-0.77,1.72-1.72,1.72h-22.85
				c-0.95,0-1.72-0.77-1.72-1.72V71.1C141.07,70.64,141.25,70.21,141.58,69.88z"/>
			<circle class="st8" cx="151.16" cy="61.16" r="2.04"/>
		</g>
	</g>
	<g>
		<g>
			<g>
				<path class="st21" d="M166.43,126.2h-17.29c-0.5,0-0.91-0.41-0.91-0.91l0,0c0-0.5,0.41-0.91,0.91-0.91h17.29
					c0.5,0,0.91,0.41,0.91,0.91l0,0C167.35,125.79,166.94,126.2,166.43,126.2z"/>
				<path class="st22" d="M160.06,130.46h-10.92c-0.5,0-0.91-0.41-0.91-0.91l0,0c0-0.5,0.41-0.91,0.91-0.91h10.92
					c0.5,0,0.91,0.41,0.91,0.91l0,0C160.97,130.06,160.57,130.46,160.06,130.46z"/>
			</g>
			<g>
				<path class="st22" d="M167.3,120.37h-17.06c-1.1,0-2-0.9-2-2v-11.04c0-1.1,0.9-2,2-2h17.06c1.1,0,2,0.9,2,2v11.04
					C169.3,119.48,168.4,120.37,167.3,120.37z"/>
				<path class="st21" d="M148.81,116.25l3.01-3.01c0.78-0.78,2.05-0.78,2.83,0l0.25,0.25c0.78,0.78,2.05,0.78,2.83,0l2.88-2.88
					c0.78-0.78,2.05-0.78,2.83,0l5.27,5.27c0.38,0.38,0.59,0.88,0.59,1.41v1.09c0,1.1-0.9,2-2,2h-17.08c-1.1,0-2-0.9-2-2v-0.71
					C148.23,117.13,148.44,116.62,148.81,116.25z"/>
				<circle class="st21" cx="156.32" cy="109.44" r="1.63"/>
			</g>
		</g>
		<g>
			<g>
				<path class="st21" d="M194.72,126.2h-17.29c-0.5,0-0.91-0.41-0.91-0.91l0,0c0-0.5,0.41-0.91,0.91-0.91h17.29
					c0.5,0,0.91,0.41,0.91,0.91l0,0C195.63,125.79,195.22,126.2,194.72,126.2z"/>
				<path class="st22" d="M188.34,130.46h-10.92c-0.5,0-0.91-0.41-0.91-0.91l0,0c0-0.5,0.41-0.91,0.91-0.91h10.92
					c0.5,0,0.91,0.41,0.91,0.91l0,0C189.26,130.06,188.85,130.46,188.34,130.46z"/>
			</g>
			<g>
				<path class="st22" d="M195.58,120.37h-17.06c-1.1,0-2-0.9-2-2v-11.04c0-1.1,0.9-2,2-2h17.06c1.1,0,2,0.9,2,2v11.04
					C197.58,119.48,196.68,120.37,195.58,120.37z"/>
				<path class="st21" d="M177.1,116.25l3.01-3.01c0.78-0.78,2.05-0.78,2.83,0l0.25,0.25c0.78,0.78,2.05,0.78,2.83,0l2.88-2.88
					c0.78-0.78,2.05-0.78,2.83,0l5.27,5.27c0.38,0.38,0.59,0.88,0.59,1.41v1.09c0,1.1-0.9,2-2,2h-17.08c-1.1,0-2-0.9-2-2v-0.71
					C176.51,117.13,176.72,116.62,177.1,116.25z"/>
				<circle class="st21" cx="184.6" cy="109.44" r="1.63"/>
			</g>
		</g>
		<g>
			<g>
				<path class="st21" d="M223,126.2h-17.29c-0.5,0-0.91-0.41-0.91-0.91l0,0c0-0.5,0.41-0.91,0.91-0.91H223
					c0.5,0,0.91,0.41,0.91,0.91l0,0C223.91,125.79,223.51,126.2,223,126.2z"/>
				<path class="st22" d="M216.63,130.46h-10.92c-0.5,0-0.91-0.41-0.91-0.91l0,0c0-0.5,0.41-0.91,0.91-0.91h10.92
					c0.5,0,0.91,0.41,0.91,0.91l0,0C217.54,130.06,217.13,130.46,216.63,130.46z"/>
			</g>
			<g>
				<path class="st22" d="M223.86,120.37H206.8c-1.1,0-2-0.9-2-2v-11.04c0-1.1,0.9-2,2-2h17.06c1.1,0,2,0.9,2,2v11.04
					C225.86,119.48,224.97,120.37,223.86,120.37z"/>
				<path class="st21" d="M205.38,116.25l3.01-3.01c0.78-0.78,2.05-0.78,2.83,0l0.25,0.25c0.78,0.78,2.05,0.78,2.83,0l2.88-2.88
					c0.78-0.78,2.05-0.78,2.83,0l5.27,5.27c0.38,0.38,0.59,0.88,0.59,1.41v1.09c0,1.1-0.9,2-2,2h-17.08c-1.1,0-2-0.9-2-2v-0.71
					C204.79,117.13,205,116.62,205.38,116.25z"/>
				<circle class="st21" cx="212.88" cy="109.44" r="1.63"/>
			</g>
		</g>
	</g>
	<line class="st23" x1="131.23" y1="50.14" x2="268.77" y2="50.14"/>
	<line class="st23" x1="131.23" y1="80.7" x2="268.77" y2="80.7"/>
</g>
</svg>
