<?xml version="1.0" encoding="utf-8"?>
<!-- Generator: Adobe Illustrator 27.6.1, SVG Export Plug-In . SVG Version: 6.00 Build 0)  -->
<svg version="1.1" xmlns="http://www.w3.org/2000/svg" xmlns:xlink="http://www.w3.org/1999/xlink" x="0px" y="0px"
	 viewBox="0 0 470 140" style="enable-background:new 0 0 470 140;" xml:space="preserve">
<style type="text/css">
	.st0{fill:#BCCCFF;}
	.st1{opacity:0.5;fill:url(#SVGID_1_);}
	.st2{opacity:0.5;fill:url(#SVGID_00000080190011736409223620000003085076346559912871_);}
	.st3{fill:#D0D2D3;}
	.st4{fill:#A6A8AB;}
	.st5{fill:#FFFFFF;}
	.st6{fill:#7486CE;}
	.st7{fill:#B0BEC5;}
	.st8{fill:#C44343;}
	.st9{fill:#0F0555;}
	.st10{fill:#DF7166;}
	.st11{fill:#455FC0;}
	.st12{fill:#455FC0;stroke:#FFFFFF;stroke-width:3;stroke-miterlimit:10;}
	.st13{font-family:'PlusJakartaSans-Bold';}
	.st14{font-size:6.0878px;}
	.st15{fill:#58595B;}
	.st16{fill:#404041;}
	.st17{fill:#FFD2A9;}
	.st18{fill:#FFDCBD;}
	.st19{fill:#F2B888;}
	.st20{opacity:0.8;fill:#FFFFFF;}
	.st21{fill:none;stroke:#CECECE;stroke-linecap:round;stroke-miterlimit:10;}
	.st22{fill:#BBBDBF;}
	.st23{fill:#8FAFFF;}
	.st24{font-family:'PlusJakartaSans-SemiBold';}
	.st25{font-size:9.4888px;}
	.st26{fill:#F95C57;}
	.st27{fill:#E6E7E8;}
	.st28{fill:#E21E36;}
	.st29{fill:none;stroke:#E54E4E;stroke-width:2;stroke-linecap:round;stroke-miterlimit:10;}
	.st30{fill:#E54E4E;}
	.st31{fill:#FFE082;}
</style>
<g id="BACKGROUND">
	<rect class="st0" width="470" height="140"/>
</g>
<g id="OBJECTS">
	<linearGradient id="SVGID_1_" gradientUnits="userSpaceOnUse" x1="273.0692" y1="140" x2="273.0692" y2="62.7202">
		<stop  offset="0" style="stop-color:#FFFFFF"/>
		<stop  offset="1" style="stop-color:#BCCCFF"/>
	</linearGradient>
	<path class="st1" d="M76.14,140c0,0,1.88-50.02,72.64-36.83s55.5-23.03,97.53-12.37s52.3-24.68,76.59-18.82
		c24.29,5.86,57.06-21.84,75.8-1.98c18.73,19.86,86.81,8.07,68.08,36.81c-18.73,28.74-26.5,33.19-63.51,33.19S76.14,140,76.14,140z"
		/>
	
		<linearGradient id="SVGID_00000107546261277113175000000000754158969909254571_" gradientUnits="userSpaceOnUse" x1="196.9308" y1="140" x2="196.9308" y2="62.7202" gradientTransform="matrix(-1 0 0 1 393.8616 0)">
		<stop  offset="0" style="stop-color:#FFFFFF"/>
		<stop  offset="1" style="stop-color:#BCCCFF"/>
	</linearGradient>
	<path style="opacity:0.5;fill:url(#SVGID_00000107546261277113175000000000754158969909254571_);" d="M393.86,140
		c0,0-1.88-50.02-72.64-36.83s-55.5-23.03-97.53-12.37s-52.3-24.68-76.59-18.82S90.04,50.14,71.3,70s-86.81,8.07-68.08,36.81
		S29.73,140,66.74,140S393.86,140,393.86,140z"/>
	<g>
		<rect x="227.78" y="109.96" class="st3" width="30.04" height="20.6"/>
		<polygon class="st4" points="257.82,111.99 257.82,126.37 227.78,123.69 227.78,111.68 		"/>
		<path class="st5" d="M284.83,121.69h-84.06c-2.95,0-5.33-2.39-5.33-5.33V65.99c0-2.95,2.39-5.33,5.33-5.33h84.06
			c2.95,0,5.33,2.39,5.33,5.33v50.37C290.16,119.3,287.77,121.69,284.83,121.69z"/>
		<path class="st6" d="M288.04,65.91v50.25h-90.48V65.91c0-1.74,1.41-3.16,3.16-3.16h84.16C286.62,62.75,288.04,64.17,288.04,65.91z
			"/>
		<path class="st7" d="M244.71,118.64c0,1.05-0.85,1.91-1.91,1.91c-1.05,0-1.91-0.85-1.91-1.91c0-1.05,0.85-1.91,1.91-1.91
			C243.85,116.73,244.71,117.58,244.71,118.64z"/>
		<path class="st5" d="M263.4,133.71h-41.2v-0.65c0-2.49,2.01-4.5,4.5-4.5h32.2c2.49,0,4.5,2.01,4.5,4.5V133.71z"/>
		<path class="st5" d="M292.01,140h-98.42v-0.65c0-2.49,2.01-4.5,4.5-4.5h89.42c2.49,0,4.5,2.01,4.5,4.5V140z"/>
	</g>
	<g>
		<path class="st8" d="M211.97,97.04l6.86,2.23h48.64l6.16-2.23C273.63,97.04,233.95,90.97,211.97,97.04z"/>
		<path class="st9" d="M256.27,34.01v-3.61c0-7.43-6.04-13.47-13.47-13.47c-7.43,0-13.47,6.04-13.47,13.47v3.61
			c-0.7,0.35-1.18,1.07-1.18,1.9c0,1.17,0.95,2.13,2.13,2.13c1.17,0,2.13-0.95,2.13-2.13c0-0.83-0.48-1.55-1.18-1.9v-3.61
			c0-6.38,5.19-11.57,11.57-11.57c6.38,0,11.57,5.19,11.57,11.57v3.61c-0.7,0.35-1.18,1.07-1.18,1.9c0,1.17,0.95,2.13,2.13,2.13
			c1.17,0,2.13-0.95,2.13-2.13C257.45,35.08,256.97,34.36,256.27,34.01z"/>
		<polygon class="st10" points="273.63,97.04 211.97,97.04 213.58,86.45 213.22,26.69 272.37,26.69 272.01,86.45 		"/>
		<path class="st11" d="M257.99,29.32v-4.07c0-8.38-6.81-15.19-15.19-15.19c-8.38,0-15.19,6.81-15.19,15.19v4.07
			c-0.79,0.39-1.33,1.2-1.33,2.14c0,1.32,1.07,2.4,2.4,2.4c1.32,0,2.4-1.07,2.4-2.4c0-0.94-0.54-1.75-1.33-2.14v-4.07
			c0-7.2,5.86-13.05,13.05-13.05c7.2,0,13.05,5.85,13.05,13.05v4.07c-0.79,0.39-1.33,1.2-1.33,2.14c0,1.32,1.07,2.4,2.4,2.4
			s2.4-1.07,2.4-2.4C259.32,30.52,258.78,29.71,257.99,29.32z"/>
		<path class="st8" d="M213.58,86.45h58.43C272.01,86.45,237.97,91.54,213.58,86.45z"/>
		<circle class="st12" cx="242.8" cy="57.24" r="12.86"/>
		<text transform="matrix(1 0 0 1 228.1209 78.4254)" class="st5 st13 st14">Checkout</text>
		<path class="st5" d="M245.69,53.8l-4.29,3.23l-2.65-3.46c-0.34-0.45-0.98-0.53-1.42-0.19l-1.69,1.29
			c-0.43,0.33-0.51,0.94-0.18,1.36l4.04,5.28l0.95,1.24c0.3,0.4,0.9,0.41,1.22,0.04l0.94-1.09l7.73-8.94l0,0
			C248.69,52.36,247.02,52.8,245.69,53.8z"/>
	</g>
	<g>
		<g>
			<path class="st15" d="M208.73,110.08c-0.08-1.29-0.46-5.52-2.12-8.48c-0.02-0.03-0.04-0.07-0.06-0.11
				c-0.29-0.51-0.62-0.97-0.99-1.38c0,0-2.34-2.27-5.88-2.22l-2.15,0.61v17.23l11.22-5.27
				C208.75,110.47,208.75,110.33,208.73,110.08z"/>
			<path class="st16" d="M208.75,110.47c-5.38,2.73-8.71-0.32-10.09-4.89c-1.38-4.57,1.03-7.69,1.03-7.69
				c3.54-0.04,5.88,2.22,5.88,2.22c0.37,0.41,0.7,0.87,0.99,1.38c0.02,0.03,0.04,0.07,0.06,0.11c1.61,3.14,2.02,7.22,2.12,8.48
				C208.75,110.33,208.75,110.47,208.75,110.47z"/>
			<path class="st3" d="M203.44,98.14c0,0,2.09,0.16,2.6,1.75c0.51,1.6-5.05,3.4-5.42,2.55C200.25,101.6,200.57,97.93,203.44,98.14z
				"/>
			<path class="st17" d="M241.16,100.12c0,0-1.7,0.16-3.09,0.57c-1.89,0.56-4.99,1.74-9.07,4.19c-5.46,3.28-15.24,4.28-19.41,4.56
				h-0.03c0,0,0,0-0.01,0c-0.2,0.01-0.4,0.03-0.56,0.03h0c-0.11,0.01-0.21,0.01-0.3,0.02h0c-0.68,0.04-1.06,0.05-1.06,0.05
				l-1.81,0.9l-5.59-5.24l0.32-3.08v0l0.21-2.02v0l0.04-0.38l0.12-0.01l0.92-0.09l1.54-0.16c0,0,0.09-0.23,0.25-0.63
				c0.07-0.17,0.15-0.38,0.24-0.6c0.91-2.24,2.88-6.8,4.05-7.46c1.04-0.59,2.73-2.21,3.45-3.99c0.2-0.49,0.33-0.99,0.35-1.48
				c0.02-0.41-0.04-0.82-0.19-1.2c0.07,0,2.04,0,2.43,0.47c0.77,0.93,0.64,2.92,0.15,5.1c0,0,0,0,0,0c-0.33,1.45-0.82,2.99-1.3,4.34
				c-0.71,1.99,0.76,4.08,2.88,4.08c0,0,0.93,0.21,3.75,0c0.78-0.45,1.93-1.01,3.14-1.47c1.33-0.49,2.73-0.86,3.77-0.8
				c2.55,0.15,3.19,1.38,3.19,1.38s1.77-2.31,3.61-2.31c1.57,0,1.7,1.92,1.7,1.92s1.52-1.13,2.37-0.32
				c0.45,0.42,0.56,0.83,0.57,1.14c0.37,0.06,0.73,0.12,1.05,0.2c0,0,0,0,0.02,0c0.42,0.09,0.81,0.2,1.15,0.33
				C241.74,98.78,241.16,100.12,241.16,100.12z"/>
			<path class="st18" d="M211.87,87.38c-0.27,0.01-0.42-0.26-0.51-0.62c0.2-0.49,0.33-0.99,0.35-1.48c0.22,0.2,0.49,0.4,0.73,0.4
				C212.44,85.68,212.7,87.34,211.87,87.38z"/>
			<path class="st19" d="M226.33,95.81c-2.3,0.49-3.15,2.02-3.86,1.89c-1.8-0.32-2.21,1.6-4.11,1.22c-1.06-0.21-2.73,1.25-3.78,1.18
				c-2.87-0.19-3.45-3.13-2.66-5.49c0.39-1.16,1.43-3.15,2.17-4.96c-0.33,1.45-0.82,2.99-1.3,4.34c-0.71,1.99,0.76,4.08,2.88,4.08
				c0,0,0.93,0.21,3.75,0c0.78-0.45,1.93-1.01,3.14-1.47L226.33,95.81z"/>
			<path class="st5" d="M201.88,99.51c0,0-2.66,4.06,0.97,7.28c3.62,3.22,6.75,2.64,6.75,2.64s-2.31,1.39-3.54,1.32
				c-1.23-0.07-7.08-2.13-6.94-7.79c0.14-5.67,4.32-4.82,4.32-4.82S202.31,98.65,201.88,99.51z"/>
			<path class="st19" d="M239.99,98.14c-0.34-0.13-0.74-0.24-1.17-0.33c0,0,1.64,0.49,1.45,1.88c0,0-1.91,0.29-3.35,0.85
				c-1.04,0.41-4.2,1.68-4.2,1.68c0.16-0.06,0.34-0.33,0.46-0.45c0.32-0.31,0.63-0.55,1-0.8c0.96-0.65,1.93-1.42,2.97-1.94
				c0.5-0.25,0.55-0.97,0.55-0.97c-0.73,0.87-0.94-0.12-1.51-0.03c-0.28,0.05-0.55,0.35-0.75,0.53c-0.39,0.35-0.75,0.72-1.11,1.09
				c-0.82,0.86-2.13,1.21-3.03,1.99c-0.41,0.36-0.38,1.14-0.8,1.49c-0.24,0.19-0.53,0.51-0.84,0.59c-0.64,0.16-1.54-0.26-1.1-1.06
				c0.27-0.49,0.83-0.84,1.3-1.13c0.87-0.53,1.74-1.03,2.54-1.66c0.64-0.5,1.28-1.01,1.91-1.52c0.1-0.07,0.17-0.14,0.21-0.17
				c0.39-0.35,0.28-1.38,0.28-1.38c-0.28,1.38-1.1,1.06-1.7,1.01c-0.5-0.04-1.2,0.81-1.51,1.11c-0.71,0.69-2.67,1.82-3.44,2.44
				c-0.75,0.6-0.22,0.77-0.94,1.4c-1.27,1.12-3.56,0.74-3.93,0c-0.19-0.38,1.15-1.1,2.43-1.73c1.62-0.69,4.15-2.07,4.24-2.51
				c0.11-0.53-0.46-1.35-0.46-1.35c0.41,0.46,0.11,1.49-0.64,1.77c-0.74,0.28-1.52,0.04-2.41-0.11c-0.53-0.08-1.1,0.35-1.49,0.65
				c-0.23,0.17-0.44,0.36-0.65,0.55c-0.31,0.29-0.4,0.65-0.83,0.83c-0.76,0.32-1.51-0.17-2.29,0.09c-0.51,0.17-1.48,1.34-1.94,0.88
				c-1.49-1.17-3.25-0.88-4.36-0.69c-1.66,0.29-4.79,1.25-7.45,2.32c-0.02,0-0.03,0.01-0.04,0.02c-2.59,1.04-4.72,2.19-4.56,2.92
				c0.06,0.27,0.25,0.54,0.52,0.8c1.25,1.22,4.24,2.3,4.24,2.3s0.39-0.01,1.07-0.05c0.09,0,0.2-0.01,0.31-0.02
				c0.17-0.01,0.36-0.02,0.57-0.03h0.03c4.17-0.28,13.94-1.28,19.41-4.56c4.08-2.45,7.18-3.63,9.07-4.19
				c1.39-0.41,3.09-0.57,3.09-0.57S241.74,98.78,239.99,98.14z"/>
		</g>
		<path class="st15" d="M276.8,110.08c0.08-1.29,0.46-5.52,2.12-8.48c0.02-0.03,0.04-0.07,0.06-0.11c0.29-0.51,0.62-0.97,0.99-1.38
			c0,0,2.34-2.27,5.88-2.22l2.15,0.61v17.23l-11.22-5.27C276.78,110.47,276.79,110.33,276.8,110.08z"/>
		<path class="st16" d="M276.78,110.47c5.38,2.73,8.71-0.32,10.09-4.89c1.38-4.57-1.03-7.69-1.03-7.69
			c-3.54-0.04-5.88,2.22-5.88,2.22c-0.37,0.41-0.7,0.87-0.99,1.38c-0.02,0.03-0.04,0.07-0.06,0.11c-1.61,3.14-2.02,7.22-2.12,8.48
			C276.79,110.33,276.78,110.47,276.78,110.47z"/>
		<path class="st3" d="M282.09,98.14c0,0-2.09,0.16-2.6,1.75c-0.51,1.6,5.05,3.4,5.42,2.55C285.28,101.6,284.96,97.93,282.09,98.14z
			"/>
		<path class="st17" d="M244.38,100.12c0,0,1.7,0.16,3.09,0.57c1.89,0.56,4.99,1.74,9.07,4.19c5.47,3.28,15.24,4.28,19.41,4.56h0.03
			c0,0,0,0,0.01,0c0.2,0.01,0.4,0.03,0.56,0.03h0c0.11,0.01,0.21,0.01,0.3,0.02h0c0.68,0.04,1.06,0.05,1.06,0.05l1.81,0.9l5.59-5.24
			l-0.32-3.08v0l-0.21-2.02v0l-0.04-0.38l-0.12-0.01l-0.92-0.09l-1.54-0.16c0,0-0.09-0.23-0.25-0.63c-0.07-0.17-0.15-0.38-0.24-0.6
			c-0.91-2.24-2.88-6.8-4.05-7.46c-1.04-0.59-2.73-2.21-3.45-3.99c-0.2-0.49-0.33-0.99-0.35-1.48c-0.02-0.41,0.04-0.82,0.19-1.2
			c-0.07,0-2.04,0-2.43,0.47c-0.77,0.93-0.64,2.92-0.15,5.1c0,0,0,0,0,0c0.33,1.45,0.82,2.99,1.3,4.34
			c0.71,1.99-0.76,4.08-2.88,4.08c0,0-0.93,0.21-3.75,0c-0.78-0.45-1.93-1.01-3.14-1.47c-1.33-0.49-2.73-0.86-3.77-0.8
			c-2.55,0.15-3.19,1.38-3.19,1.38s-1.77-2.31-3.61-2.31c-1.57,0-1.7,1.92-1.7,1.92s-1.52-1.13-2.37-0.32
			c-0.45,0.42-0.56,0.83-0.57,1.14c-0.37,0.06-0.73,0.12-1.05,0.2c0,0,0,0-0.02,0c-0.42,0.09-0.81,0.2-1.15,0.33
			C243.8,98.78,244.38,100.12,244.38,100.12z"/>
		<path class="st18" d="M273.67,87.38c0.27,0.01,0.42-0.26,0.51-0.62c-0.2-0.49-0.33-0.99-0.35-1.48c-0.22,0.2-0.49,0.4-0.73,0.4
			C273.1,85.68,272.83,87.34,273.67,87.38z"/>
		<path class="st19" d="M259.21,95.81c2.3,0.49,3.15,2.02,3.86,1.89c1.8-0.32,2.21,1.6,4.11,1.22c1.06-0.21,2.73,1.25,3.78,1.18
			c2.87-0.19,3.45-3.13,2.66-5.49c-0.39-1.16-1.43-3.15-2.17-4.96c0.33,1.45,0.82,2.99,1.3,4.34c0.71,1.99-0.76,4.08-2.88,4.08
			c0,0-0.93,0.21-3.75,0c-0.78-0.45-1.93-1.01-3.14-1.47L259.21,95.81z"/>
		<path class="st5" d="M283.65,99.51c0,0,2.66,4.06-0.97,7.28c-3.62,3.22-6.75,2.64-6.75,2.64s2.31,1.39,3.54,1.32
			c1.23-0.07,7.08-2.13,6.94-7.79c-0.14-5.67-4.32-4.82-4.32-4.82S283.22,98.65,283.65,99.51z"/>
		<path class="st19" d="M245.55,98.14c0.34-0.13,0.74-0.24,1.17-0.33c0,0-1.64,0.49-1.45,1.88c0,0,1.91,0.29,3.35,0.85
			c1.04,0.41,4.2,1.68,4.2,1.68c-0.16-0.06-0.34-0.33-0.46-0.45c-0.32-0.31-0.63-0.55-1-0.8c-0.96-0.65-1.93-1.42-2.97-1.94
			c-0.5-0.25-0.55-0.97-0.55-0.97c0.73,0.87,0.94-0.12,1.51-0.03c0.28,0.05,0.55,0.35,0.75,0.53c0.39,0.35,0.75,0.72,1.11,1.09
			c0.82,0.86,2.13,1.21,3.03,1.99c0.41,0.36,0.38,1.14,0.8,1.49c0.24,0.19,0.53,0.51,0.84,0.59c0.64,0.16,1.54-0.26,1.1-1.06
			c-0.27-0.49-0.83-0.84-1.3-1.13c-0.87-0.53-1.74-1.03-2.54-1.66c-0.64-0.5-1.28-1.01-1.91-1.52c-0.1-0.07-0.17-0.14-0.21-0.17
			c-0.39-0.35-0.28-1.38-0.28-1.38c0.28,1.38,1.1,1.06,1.7,1.01c0.5-0.04,1.2,0.81,1.51,1.11c0.71,0.69,2.67,1.82,3.44,2.44
			c0.75,0.6,0.22,0.77,0.94,1.4c1.27,1.12,3.56,0.74,3.93,0c0.19-0.38-1.15-1.1-2.43-1.73c-1.62-0.69-4.15-2.07-4.24-2.51
			c-0.11-0.53,0.46-1.35,0.46-1.35c-0.41,0.46-0.11,1.49,0.64,1.77c0.74,0.28,1.52,0.04,2.41-0.11c0.53-0.08,1.1,0.35,1.49,0.65
			c0.23,0.17,0.44,0.36,0.65,0.55c0.31,0.29,0.4,0.65,0.83,0.83c0.76,0.32,1.51-0.17,2.29,0.09c0.51,0.17,1.48,1.34,1.94,0.88
			c1.49-1.17,3.25-0.88,4.36-0.69c1.66,0.29,4.79,1.25,7.45,2.32c0.02,0,0.03,0.01,0.04,0.02c2.59,1.04,4.72,2.19,4.56,2.92
			c-0.06,0.27-0.25,0.54-0.52,0.8c-1.25,1.22-4.24,2.3-4.24,2.3s-0.39-0.01-1.07-0.05c-0.09,0-0.2-0.01-0.31-0.02
			c-0.17-0.01-0.36-0.02-0.57-0.03h-0.03c-4.17-0.28-13.94-1.28-19.41-4.56c-4.08-2.45-7.18-3.63-9.07-4.19
			c-1.39-0.41-3.09-0.57-3.09-0.57S243.8,98.78,245.55,98.14z"/>
	</g>
	<g>
		<path class="st20" d="M343.31,92.89c0,2.27-1.84,4.11-4.11,4.11h-40.41c-2.27,0-4.11-1.84-4.11-4.11v-16.8
			c0-2.27,1.84-4.11,4.11-4.11h40.41c2.27,0,4.11,1.84,4.11,4.11V92.89z"/>
		<polygon class="st5" points="301.97,96.56 296.44,106.68 308.34,96.56 		"/>
		<g>
			<path class="st16" d="M315.1,91.77h-2.14c0,0-0.66-0.54-2.47-0.54c-1.81,0-1.81,0.54-9.55,0.54c0,0,0-0.23,0.05-0.55
				c0-0.02,0.01-0.05,0.01-0.07c0.14-0.76,0.57-1.96,1.91-2.01c0.35-0.01,0.78-0.13,1.25-0.35c2.21-0.98,5.36-3.86,5.5-6.08
				c0,0,1.65,0.26,1.65,1.42l3.26,0.16c0,0,0.49,2.53,0.53,6.86C315.1,91.35,315.1,91.56,315.1,91.77z"/>
			<line class="st21" x1="308.34" y1="85.48" x2="309.95" y2="86.5"/>
			<line class="st21" x1="307.63" y1="86.27" x2="309.24" y2="87.29"/>
			<line class="st21" x1="306.83" y1="87" x2="308.44" y2="88.02"/>
			<line class="st21" x1="305.93" y1="87.75" x2="307.54" y2="88.78"/>
			<path class="st3" d="M305.29,91.22h-4.31c0-0.02,0.01-0.05,0.01-0.07c0.14-0.76,0.57-1.96,1.91-2.01
				c0.35-0.01,0.78-0.13,1.25-0.35C304.55,89.02,305.29,89.68,305.29,91.22z"/>
			<path class="st3" d="M313.63,88.26c0,0.63-0.51,1.13-1.13,1.13s-1.13-0.51-1.13-1.13c0-0.63,0.51-1.13,1.13-1.13
				S313.63,87.64,313.63,88.26z"/>
			<path class="st22" d="M315.1,91.77h-2.14c0,0-0.66-0.54-2.47-0.54c-1.14,0-1.56,0.54-3.65,0.54c-1.54,0-3.03,0-5.9,0
				c0,0,0-0.26,0.06-0.62c2.59-0.01,4.37,0,5.74,0c1.73,0,2.81-0.47,4.02-0.47c2.2,0,1.5,0.47,4.34,0.47
				C315.1,91.35,315.1,91.56,315.1,91.77z"/>
		</g>
		<path class="st3" d="M338.65,78h-39.31c-0.61,0-1.1-0.49-1.1-1.1v0c0-0.61,0.49-1.1,1.1-1.1h39.31c0.61,0,1.1,0.49,1.1,1.1v0
			C339.75,77.5,339.26,78,338.65,78z"/>
		<rect x="318.16" y="82.83" class="st23" width="11.69" height="1.4"/>
		<rect x="318.16" y="86.22" class="st23" width="14.02" height="1.4"/>
		<rect x="318.16" y="89.87" class="st23" width="10.48" height="1.4"/>
		<text transform="matrix(1 0 0 1 333.825 90.3951)" class="st23 st24 st25">$</text>
	</g>
	<g>
		<path class="st20" d="M415.85,54.64c0,2.27-1.84,4.11-4.11,4.11h-40.41c-2.27,0-4.11-1.84-4.11-4.11v-16.8
			c0-2.27,1.84-4.11,4.11-4.11h40.41c2.27,0,4.11,1.84,4.11,4.11V54.64z"/>
		<polygon class="st5" points="374.51,58.32 368.98,68.43 380.88,58.32 		"/>
		<g>
			<path class="st16" d="M387.64,53.53h-2.14c0,0-0.66-0.54-2.47-0.54c-1.81,0-1.81,0.54-9.55,0.54c0,0,0-0.23,0.05-0.55
				c0-0.02,0.01-0.05,0.01-0.07c0.14-0.76,0.57-1.96,1.91-2.01c0.35-0.01,0.78-0.13,1.25-0.35c2.21-0.98,5.36-3.86,5.5-6.08
				c0,0,1.65,0.26,1.65,1.42l3.26,0.16c0,0,0.49,2.53,0.53,6.86C387.64,53.11,387.64,53.32,387.64,53.53z"/>
			<line class="st21" x1="380.88" y1="47.24" x2="382.49" y2="48.26"/>
			<line class="st21" x1="380.17" y1="48.02" x2="381.78" y2="49.05"/>
			<line class="st21" x1="379.37" y1="48.76" x2="380.97" y2="49.78"/>
			<line class="st21" x1="378.47" y1="49.51" x2="380.08" y2="50.53"/>
			<path class="st3" d="M377.83,52.98h-4.31c0-0.02,0.01-0.05,0.01-0.07c0.14-0.76,0.57-1.96,1.91-2.01
				c0.35-0.01,0.78-0.13,1.25-0.35C377.09,50.78,377.83,51.43,377.83,52.98z"/>
			<path class="st3" d="M386.17,50.02c0,0.63-0.51,1.13-1.13,1.13c-0.63,0-1.13-0.51-1.13-1.13c0-0.63,0.51-1.13,1.13-1.13
				C385.67,48.89,386.17,49.4,386.17,50.02z"/>
			<path class="st22" d="M387.64,53.53h-2.14c0,0-0.66-0.54-2.47-0.54c-1.14,0-1.56,0.54-3.65,0.54c-1.54,0-3.03,0-5.9,0
				c0,0,0-0.26,0.06-0.62c2.59-0.01,4.37,0,5.74,0c1.73,0,2.81-0.47,4.02-0.47c2.2,0,1.5,0.47,4.34,0.47
				C387.64,53.11,387.64,53.32,387.64,53.53z"/>
		</g>
		<path class="st23" d="M411.19,39.75h-39.31c-0.61,0-1.1-0.49-1.1-1.1v0c0-0.61,0.49-1.1,1.1-1.1h39.31c0.61,0,1.1,0.49,1.1,1.1v0
			C412.29,39.26,411.8,39.75,411.19,39.75z"/>
		<rect x="390.7" y="44.59" class="st23" width="11.69" height="1.4"/>
		<rect x="390.7" y="47.97" class="st23" width="14.02" height="1.4"/>
		<rect x="390.7" y="51.63" class="st23" width="10.48" height="1.4"/>
		<text transform="matrix(1 0 0 1 406.3646 52.1527)" class="st23 st24 st25">$</text>
	</g>
	<g>
		<path class="st20" d="M330.29,42.34c0,2.27-1.84,4.11-4.11,4.11h-40.41c-2.27,0-4.11-1.84-4.11-4.11v-16.8
			c0-2.27,1.84-4.11,4.11-4.11h40.41c2.27,0,4.11,1.84,4.11,4.11V42.34z"/>
		<path class="st23" d="M324,27.85h-19.19c-0.61,0-1.1-0.49-1.1-1.1v0c0-0.61,0.49-1.1,1.1-1.1H324c0.61,0,1.1,0.49,1.1,1.1v0
			C325.1,27.36,324.61,27.85,324,27.85z"/>
		<rect x="303.71" y="32.69" class="st23" width="11.69" height="1.4"/>
		<rect x="303.71" y="36.07" class="st23" width="14.02" height="1.4"/>
		<rect x="303.71" y="39.73" class="st23" width="10.48" height="1.4"/>
		<polygon class="st5" points="289.12,46.03 283.59,56.14 295.49,46.03 		"/>
		<text transform="matrix(1 0 0 1 319.3758 40.2496)" class="st23 st24 st25">$</text>
		<g>
			<path class="st26" d="M301.26,31.67l-2.05,2.41l-1.76-1.83v8.95h-9.36v-8.95l-1.76,1.83l-2.05-2.41l3.67-4.55l2.52-0.35
				l0.56-0.08c0.28,0.35,0.95,0.6,1.73,0.6c0.78,0,1.45-0.25,1.73-0.6l0.57,0.08l2.52,0.35L301.26,31.67z"/>
			<path class="st27" d="M297.45,32.25v8.95h-9.36v-8.95c0-1.52,2.78-5.4,2.78-5.4c1.9,1.5,3.94,0,3.94,0S297.45,30.74,297.45,32.25
				z"/>
			<path class="st28" d="M295.06,26.77c-0.14,0.61-1.12,1.08-2.29,1.08c-1.17,0-2.15-0.47-2.29-1.08l0.56-0.08
				c0.28,0.35,0.95,0.6,1.73,0.6c0.78,0,1.45-0.25,1.73-0.6L295.06,26.77z"/>
		</g>
	</g>
	<g>
		<path class="st20" d="M203.23,42.34c0,2.27-1.84,4.11-4.11,4.11h-40.41c-2.27,0-4.11-1.84-4.11-4.11v-16.8
			c0-2.27,1.84-4.11,4.11-4.11h40.41c2.27,0,4.11,1.84,4.11,4.11V42.34z"/>
		<g>
			<path class="st9" d="M167.73,40.5h-6c-0.66,0-1.19-0.53-1.19-1.19V27.04c0-0.66,0.53-1.19,1.19-1.19h6
				c0.66,0,1.19,0.53,1.19,1.19v12.27C168.92,39.97,168.39,40.5,167.73,40.5z"/>
			<rect x="161.12" y="27.12" class="st6" width="7.22" height="11.63"/>
			<path class="st7" d="M165.11,26.65h-0.75c-0.04,0-0.07-0.03-0.07-0.07l0,0c0-0.04,0.03-0.07,0.07-0.07h0.75
				c0.04,0,0.07,0.03,0.07,0.07l0,0C165.18,26.62,165.15,26.65,165.11,26.65z"/>
			<path class="st7" d="M165.25,39.63c0,0.29-0.23,0.52-0.52,0.52c-0.29,0-0.52-0.23-0.52-0.52c0-0.29,0.23-0.52,0.52-0.52
				C165.02,39.11,165.25,39.34,165.25,39.63z"/>
		</g>
		<path class="st23" d="M193.54,27.85h-19.19c-0.61,0-1.1-0.49-1.1-1.1v0c0-0.61,0.49-1.1,1.1-1.1h19.19c0.61,0,1.1,0.49,1.1,1.1v0
			C194.64,27.36,194.14,27.85,193.54,27.85z"/>
		<rect x="173.25" y="32.69" class="st23" width="11.69" height="1.4"/>
		<rect x="173.25" y="36.07" class="st23" width="14.02" height="1.4"/>
		<rect x="173.25" y="39.73" class="st23" width="10.48" height="1.4"/>
		<text transform="matrix(1 0 0 1 188.9109 40.2496)" class="st23 st24 st25">$</text>
		<polygon class="st5" points="196.48,46.03 202,56.14 190.1,46.03 		"/>
	</g>
	<g>
		<path class="st20" d="M190.32,92.89c0,2.27-1.84,4.11-4.11,4.11H145.8c-2.27,0-4.11-1.84-4.11-4.11v-16.8
			c0-2.27,1.84-4.11,4.11-4.11h40.41c2.27,0,4.11,1.84,4.11,4.11V92.89z"/>
		<polygon class="st5" points="183.83,96.56 189.35,106.68 177.45,96.56 		"/>
		<path class="st23" d="M183.11,78h-19.39c-0.61,0-1.1-0.49-1.1-1.1v0c0-0.61,0.49-1.1,1.1-1.1h19.39c0.61,0,1.1,0.49,1.1,1.1v0
			C184.21,77.5,183.72,78,183.11,78z"/>
		<rect x="162.62" y="82.83" class="st23" width="11.69" height="1.4"/>
		<rect x="162.62" y="86.22" class="st23" width="14.02" height="1.4"/>
		<rect x="162.62" y="89.87" class="st23" width="10.48" height="1.4"/>
		<text transform="matrix(1 0 0 1 178.2859 90.3951)" class="st23 st24 st25">$</text>
		<g>
			<path class="st29" d="M147.53,87.16c0,0-1.39-12.77,5.9-12.77c7.29,0,5.9,12.77,5.9,12.77"/>
			<path class="st30" d="M159.66,93.17c0,0.67-0.54,1.2-1.2,1.2H148.4c-0.67,0-1.2-0.54-1.2-1.2v-4.74c0-0.67,0.54-1.2,1.2-1.2
				h10.06c0.67,0,1.2,0.54,1.2,1.2V93.17z"/>
			<path class="st26" d="M159.66,88.92c0,0.67-0.54,1.2-1.2,1.2H148.4c-0.67,0-1.2-0.54-1.2-1.2v-1.76c0-0.67,0.54-1.2,1.2-1.2
				h10.06c0.67,0,1.2,0.54,1.2,1.2V88.92z"/>
			<path class="st31" d="M154.04,90.19c0,0.34-0.27,0.61-0.61,0.61l0,0c-0.34,0-0.61-0.27-0.61-0.61v-0.9
				c0-0.34,0.27-0.61,0.61-0.61l0,0c0.34,0,0.61,0.27,0.61,0.61V90.19z"/>
		</g>
	</g>
	<g>
		<path class="st20" d="M115.53,64.21c0,2.27-1.84,4.11-4.11,4.11H71.01c-2.27,0-4.11-1.84-4.11-4.11v-16.8
			c0-2.27,1.84-4.11,4.11-4.11h40.41c2.27,0,4.11,1.84,4.11,4.11V64.21z"/>
		<polygon class="st5" points="109.04,67.89 114.56,78 102.66,67.89 		"/>
		<path class="st23" d="M108.32,49.32H88.93c-0.61,0-1.1-0.49-1.1-1.1v0c0-0.61,0.49-1.1,1.1-1.1h19.39c0.61,0,1.1,0.49,1.1,1.1v0
			C109.42,48.83,108.93,49.32,108.32,49.32z"/>
		<rect x="87.83" y="54.16" class="st23" width="11.69" height="1.4"/>
		<rect x="87.83" y="57.54" class="st23" width="14.02" height="1.4"/>
		<rect x="87.83" y="61.2" class="st23" width="10.48" height="1.4"/>
		<text transform="matrix(1 0 0 1 103.4948 61.721)" class="st23 st24 st25">$</text>
		<g>
			<path class="st29" d="M72.74,58.48c0,0-1.39-12.77,5.9-12.77c7.29,0,5.9,12.77,5.9,12.77"/>
			<path class="st30" d="M84.87,64.5c0,0.67-0.54,1.2-1.2,1.2H73.61c-0.67,0-1.2-0.54-1.2-1.2v-4.74c0-0.67,0.54-1.2,1.2-1.2h10.06
				c0.67,0,1.2,0.54,1.2,1.2V64.5z"/>
			<path class="st26" d="M84.87,60.25c0,0.67-0.54,1.2-1.2,1.2H73.61c-0.67,0-1.2-0.54-1.2-1.2v-1.76c0-0.67,0.54-1.2,1.2-1.2h10.06
				c0.67,0,1.2,0.54,1.2,1.2V60.25z"/>
			<path class="st31" d="M79.25,61.52c0,0.34-0.27,0.61-0.61,0.61l0,0c-0.34,0-0.61-0.27-0.61-0.61v-0.9c0-0.34,0.27-0.61,0.61-0.61
				l0,0c0.34,0,0.61,0.27,0.61,0.61V61.52z"/>
		</g>
	</g>
</g>
</svg>
