<svg width="470" height="170" viewBox="0 0 470 170" fill="none" xmlns="http://www.w3.org/2000/svg">
<g clip-path="url(#clip0_1517_18025)">
<path d="M10 0H460C465.5 0 470 4.5 470 10V170H0V10C0 4.5 4.5 0 10 0Z" fill="#BCCCFF"/>
<path opacity="0.5" d="M76.0996 170C76.0996 170 77.9996 120 148.7 133.2C219.4 146.4 204.2 110.2 246.2 120.8C288.2 131.4 298.5 96.1001 322.8 102C347.1 107.9 379.9 80.2001 398.6 100C417.3 119.9 485.4 108.1 466.7 136.8C448 165.5 440.2 170 403.2 170C366.2 170 76.0996 170 76.0996 170Z" fill="url(#paint0_linear_1517_18025)"/>
<path opacity="0.5" d="M393.9 170C393.9 170 392 120 321.3 133.2C250.6 146.4 265.8 110.2 223.8 120.8C181.8 131.4 171.5 96.1003 147.2 102C122.9 107.9 89.9998 80.1003 71.2998 100C52.5998 119.9 -15.5002 108.1 3.19984 136.8C21.8998 165.5 29.6998 170 66.6998 170C103.7 170 393.9 170 393.9 170Z" fill="url(#paint1_linear_1517_18025)"/>
<path d="M257.8 140H227.8V160.6H257.8V140Z" fill="#D0D2D3"/>
<path d="M257.8 141.999V156.399L227.8 153.699V141.699L257.8 141.999Z" fill="#A6A8AB"/>
<path d="M284.799 151.699H200.699C197.799 151.699 195.399 149.299 195.399 146.399V95.9992C195.399 92.9992 197.799 90.6992 200.699 90.6992H284.799C287.799 90.6992 290.099 93.0992 290.099 95.9992V146.399C290.199 149.299 287.799 151.699 284.799 151.699Z" fill="white"/>
<path d="M288 95.8992V146.099H197.5V95.8992C197.5 94.1992 198.9 92.6992 200.7 92.6992H284.9C286.6 92.7992 288 94.1992 288 95.8992Z" fill="#7486CE"/>
<path d="M244.699 148.599C244.699 149.699 243.799 150.499 242.799 150.499C241.699 150.499 240.899 149.699 240.899 148.599C240.899 147.499 241.799 146.699 242.799 146.699C243.899 146.699 244.699 147.599 244.699 148.599Z" fill="#B0BEC5"/>
<path d="M263.4 163.698H222.2V163.098C222.2 160.598 224.2 158.598 226.7 158.598H258.9C261.4 158.598 263.4 160.598 263.4 163.098V163.698Z" fill="white"/>
<path d="M292 169.998H193.6V169.398C193.6 166.898 195.6 164.898 198.1 164.898H287.5C290 164.898 292 166.898 292 169.398V169.998Z" fill="white"/>
<path d="M212 126.999L218.9 129.199H267.5L273.7 126.999C273.6 126.999 233.9 120.999 212 126.999Z" fill="#C44343"/>
<path d="M256.3 63.9984V60.3984C256.3 52.9984 250.3 46.8984 242.8 46.8984C235.4 46.8984 229.3 52.8984 229.3 60.3984V63.9984C228.6 64.3984 228.1 65.0984 228.1 65.8984C228.1 67.0984 229 67.9984 230.2 67.9984C231.4 67.9984 232.3 66.9984 232.3 65.8984C232.3 65.0984 231.8 64.2984 231.1 63.9984V60.3984C231.1 53.9984 236.3 48.7984 242.7 48.7984C249.1 48.7984 254.3 53.9984 254.3 60.3984V63.9984C253.6 64.3984 253.1 65.0984 253.1 65.8984C253.1 67.0984 254 67.9984 255.2 67.9984C256.4 67.9984 257.3 66.9984 257.3 65.8984C257.5 65.0984 257 64.3984 256.3 63.9984Z" fill="#0F0555"/>
<path d="M273.6 126.999H212L213.6 116.399L213.2 56.6992H272.4L272 116.399L273.6 126.999Z" fill="#DF7166"/>
<path d="M258 59.3V55.2C258 46.8 251.2 40 242.8 40C234.4 40 227.6 46.8 227.6 55.2V59.3C226.8 59.7 226.3 60.5 226.3 61.4C226.3 62.7 227.4 63.8 228.7 63.8C230 63.8 231.1 62.7 231.1 61.4C231.1 60.5 230.6 59.6 229.8 59.3V55.2C229.8 48 235.7 42.2 242.9 42.2C250.1 42.2 256 48.1 256 55.2V59.3C255.2 59.7 254.7 60.5 254.7 61.4C254.7 62.7 255.8 63.8 257.1 63.8C258.4 63.8 259.5 62.7 259.5 61.4C259.3 60.5 258.8 59.7 258 59.3Z" fill="#455FC0"/>
<path d="M213.6 116.398H272C272 116.398 238 121.498 213.6 116.398Z" fill="#C44343"/>
<path d="M242.8 100.101C249.924 100.101 255.7 94.3252 255.7 87.2008C255.7 80.0763 249.924 74.3008 242.8 74.3008C235.675 74.3008 229.9 80.0763 229.9 87.2008C229.9 94.3252 235.675 100.101 242.8 100.101Z" fill="#455FC0" stroke="white" stroke-width="3" stroke-miterlimit="10"/>
<path d="M230.69 108.409C230.365 108.409 230.065 108.35 229.789 108.232C229.517 108.115 229.278 107.95 229.071 107.739C228.868 107.528 228.71 107.281 228.596 106.997C228.482 106.713 228.425 106.402 228.425 106.065C228.425 105.728 228.48 105.418 228.59 105.134C228.703 104.846 228.862 104.598 229.065 104.391C229.272 104.18 229.513 104.018 229.789 103.904C230.065 103.786 230.365 103.727 230.69 103.727C231.015 103.727 231.305 103.782 231.561 103.892C231.82 104.001 232.04 104.148 232.218 104.33C232.397 104.509 232.525 104.706 232.602 104.921L231.859 105.268C231.774 105.04 231.63 104.854 231.427 104.708C231.224 104.557 230.978 104.482 230.69 104.482C230.406 104.482 230.154 104.549 229.935 104.683C229.72 104.817 229.552 105.002 229.43 105.237C229.312 105.473 229.253 105.749 229.253 106.065C229.253 106.382 229.312 106.66 229.43 106.899C229.552 107.135 229.72 107.319 229.935 107.453C230.154 107.587 230.406 107.654 230.69 107.654C230.978 107.654 231.224 107.581 231.427 107.435C231.63 107.285 231.774 107.096 231.859 106.869L232.602 107.216C232.525 107.431 232.397 107.63 232.218 107.812C232.04 107.991 231.82 108.135 231.561 108.245C231.305 108.354 231.015 108.409 230.69 108.409ZM233.207 108.336V103.727H234.004V105.676L233.895 105.56C233.972 105.361 234.098 105.211 234.272 105.109C234.451 105.004 234.658 104.951 234.893 104.951C235.137 104.951 235.352 105.004 235.539 105.109C235.729 105.215 235.877 105.363 235.983 105.554C236.088 105.741 236.141 105.958 236.141 106.205V108.336H235.344V106.394C235.344 106.248 235.315 106.122 235.259 106.016C235.202 105.911 235.123 105.83 235.021 105.773C234.924 105.712 234.808 105.682 234.674 105.682C234.544 105.682 234.429 105.712 234.327 105.773C234.226 105.83 234.146 105.911 234.09 106.016C234.033 106.122 234.004 106.248 234.004 106.394V108.336H233.207ZM238.386 108.409C238.045 108.409 237.747 108.332 237.491 108.178C237.236 108.023 237.037 107.814 236.895 107.551C236.753 107.287 236.682 106.995 236.682 106.674C236.682 106.341 236.753 106.047 236.895 105.791C237.041 105.531 237.238 105.327 237.485 105.176C237.737 105.026 238.017 104.951 238.325 104.951C238.585 104.951 238.812 104.994 239.007 105.079C239.206 105.164 239.375 105.282 239.513 105.432C239.65 105.582 239.756 105.755 239.829 105.95C239.902 106.14 239.939 106.347 239.939 106.57C239.939 106.627 239.935 106.686 239.926 106.747C239.922 106.808 239.912 106.861 239.896 106.905H237.339V106.297H239.446L239.068 106.583C239.105 106.396 239.094 106.23 239.038 106.083C238.985 105.937 238.896 105.822 238.77 105.736C238.648 105.651 238.5 105.609 238.325 105.609C238.159 105.609 238.011 105.651 237.881 105.736C237.751 105.818 237.652 105.939 237.583 106.102C237.518 106.26 237.493 106.453 237.51 106.68C237.493 106.883 237.52 107.064 237.589 107.222C237.662 107.376 237.767 107.496 237.905 107.581C238.047 107.666 238.21 107.709 238.392 107.709C238.575 107.709 238.729 107.67 238.855 107.593C238.985 107.516 239.086 107.413 239.159 107.283L239.805 107.599C239.74 107.758 239.638 107.898 239.5 108.019C239.362 108.141 239.198 108.237 239.007 108.305C238.821 108.374 238.614 108.409 238.386 108.409ZM242.138 108.409C241.809 108.409 241.513 108.334 241.249 108.184C240.99 108.03 240.785 107.823 240.635 107.563C240.484 107.299 240.409 107.003 240.409 106.674C240.409 106.345 240.484 106.051 240.635 105.791C240.785 105.531 240.99 105.327 241.249 105.176C241.513 105.026 241.809 104.951 242.138 104.951C242.374 104.951 242.593 104.994 242.796 105.079C242.999 105.16 243.173 105.274 243.319 105.42C243.469 105.562 243.577 105.732 243.642 105.931L242.942 106.236C242.881 106.069 242.777 105.935 242.631 105.834C242.489 105.732 242.325 105.682 242.138 105.682C241.964 105.682 241.807 105.724 241.669 105.81C241.536 105.895 241.43 106.012 241.353 106.163C241.276 106.313 241.237 106.485 241.237 106.68C241.237 106.875 241.276 107.047 241.353 107.198C241.43 107.348 241.536 107.465 241.669 107.551C241.807 107.636 241.964 107.678 242.138 107.678C242.329 107.678 242.495 107.628 242.637 107.526C242.779 107.425 242.881 107.289 242.942 107.118L243.642 107.435C243.577 107.622 243.471 107.79 243.325 107.94C243.179 108.086 243.005 108.202 242.802 108.287C242.599 108.368 242.378 108.409 242.138 108.409ZM244.247 108.336V103.727H245.045V106.747L244.74 106.656L246.299 105.024H247.291L246.067 106.357L247.315 108.336H246.402L245.318 106.619L245.793 106.522L244.795 107.593L245.045 107.106V108.336H244.247ZM249.32 108.409C248.996 108.409 248.7 108.334 248.432 108.184C248.168 108.034 247.957 107.829 247.799 107.569C247.644 107.309 247.567 107.013 247.567 106.68C247.567 106.347 247.644 106.051 247.799 105.791C247.957 105.531 248.168 105.327 248.432 105.176C248.695 105.026 248.992 104.951 249.32 104.951C249.645 104.951 249.939 105.026 250.203 105.176C250.467 105.327 250.676 105.531 250.83 105.791C250.989 106.047 251.068 106.343 251.068 106.68C251.068 107.013 250.989 107.309 250.83 107.569C250.672 107.829 250.461 108.034 250.197 108.184C249.933 108.334 249.641 108.409 249.32 108.409ZM249.32 107.678C249.499 107.678 249.655 107.636 249.789 107.551C249.927 107.465 250.035 107.348 250.112 107.198C250.193 107.043 250.234 106.871 250.234 106.68C250.234 106.485 250.193 106.315 250.112 106.169C250.035 106.019 249.927 105.901 249.789 105.816C249.655 105.726 249.499 105.682 249.32 105.682C249.138 105.682 248.978 105.726 248.84 105.816C248.702 105.901 248.592 106.019 248.511 106.169C248.434 106.315 248.395 106.485 248.395 106.68C248.395 106.871 248.434 107.043 248.511 107.198C248.592 107.348 248.702 107.465 248.84 107.551C248.978 107.636 249.138 107.678 249.32 107.678ZM252.853 108.409C252.598 108.409 252.375 108.352 252.184 108.239C251.997 108.125 251.853 107.967 251.752 107.764C251.654 107.561 251.605 107.323 251.605 107.051V105.024H252.403V106.984C252.403 107.122 252.429 107.244 252.482 107.35C252.539 107.451 252.618 107.532 252.72 107.593C252.825 107.65 252.943 107.678 253.073 107.678C253.203 107.678 253.318 107.65 253.42 107.593C253.521 107.532 253.6 107.449 253.657 107.344C253.714 107.238 253.742 107.112 253.742 106.966V105.024H254.54V108.336H253.785V107.685L253.852 107.8C253.775 108.003 253.647 108.155 253.468 108.257C253.294 108.358 253.089 108.409 252.853 108.409ZM256.791 108.372C256.418 108.372 256.127 108.271 255.92 108.068C255.717 107.861 255.616 107.571 255.616 107.198V105.736H255.044V105.024H255.105C255.267 105.024 255.393 104.982 255.482 104.896C255.571 104.811 255.616 104.687 255.616 104.525V104.269H256.413V105.024H257.174V105.736H256.413V107.155C256.413 107.264 256.432 107.358 256.468 107.435C256.509 107.512 256.57 107.571 256.651 107.611C256.736 107.652 256.844 107.672 256.974 107.672C257.002 107.672 257.034 107.67 257.071 107.666C257.112 107.662 257.15 107.658 257.187 107.654V108.336C257.13 108.344 257.065 108.352 256.992 108.36C256.919 108.368 256.852 108.372 256.791 108.372Z" fill="white"/>
<path d="M245.7 83.7993L241.4 86.9993L238.8 83.4993C238.5 82.9993 237.8 82.9993 237.4 83.2993L235.7 84.5993C235.3 84.8993 235.2 85.4993 235.5 85.9993L239.5 91.2993L240.4 92.4993C240.7 92.8993 241.3 92.8993 241.6 92.4993L242.5 91.3993L250.2 82.4993C248.7 82.3993 247 82.7993 245.7 83.7993Z" fill="white"/>
<path d="M208.7 140.102C208.6 138.802 208.2 134.602 206.6 131.602C206.6 131.602 206.6 131.502 206.5 131.502C206.2 131.002 205.9 130.502 205.5 130.102C205.5 130.102 203.2 127.802 199.6 127.902L197.5 128.502V145.702L208.7 140.402C208.8 140.502 208.8 140.302 208.7 140.102Z" fill="#58595B"/>
<path d="M208.8 140.502C203.4 143.202 200.1 140.202 198.7 135.602C197.3 131.002 199.7 127.902 199.7 127.902C203.2 127.902 205.6 130.102 205.6 130.102C206 130.502 206.3 131.002 206.6 131.502C206.6 131.502 206.6 131.602 206.7 131.602C208.3 134.702 208.7 138.802 208.8 140.102C208.8 140.302 208.8 140.502 208.8 140.502Z" fill="#404041"/>
<path d="M203.4 128.102C203.4 128.102 205.5 128.302 206 129.902C206.5 131.502 200.9 133.302 200.6 132.502C200.2 131.602 200.6 127.902 203.4 128.102Z" fill="#D0D2D3"/>
<path d="M241.2 130.102C241.2 130.102 239.5 130.302 238.1 130.702C236.2 131.302 233.1 132.402 229 134.902C223.5 138.202 213.8 139.202 209.6 139.502C209.4 139.502 209.2 139.502 209 139.502C208.9 139.502 208.8 139.502 208.7 139.502C208 139.502 207.6 139.602 207.6 139.602L205.8 140.502L200.2 135.302L200.5 132.202L200.7 130.202V129.802H200.8L201.7 129.702L203.2 129.502C203.2 129.502 203.3 129.302 203.4 128.902C203.5 128.702 203.5 128.502 203.6 128.302C204.5 126.102 206.5 121.502 207.7 120.802C208.7 120.202 210.4 118.602 211.1 116.802C211.3 116.302 211.4 115.802 211.5 115.302C211.5 114.902 211.5 114.502 211.3 114.102C211.4 114.102 213.3 114.102 213.7 114.602C214.5 115.502 214.3 117.502 213.8 119.702C213.5 121.102 213 122.702 212.5 124.002C211.8 126.002 213.3 128.102 215.4 128.102C215.4 128.102 216.3 128.302 219.2 128.102C220 127.702 221.1 127.102 222.3 126.602C223.6 126.102 225 125.702 226.1 125.802C228.7 126.002 229.3 127.202 229.3 127.202C229.3 127.202 231.1 124.902 232.9 124.902C234.5 124.902 234.6 126.802 234.6 126.802C234.6 126.802 236.1 125.702 237 126.502C237.4 126.902 237.6 127.302 237.6 127.602C238 127.702 238.3 127.702 238.7 127.802C239.1 127.902 239.5 128.002 239.8 128.102C241.7 128.802 241.2 130.102 241.2 130.102Z" fill="#FFD2A9"/>
<path d="M211.9 117.401C211.6 117.401 211.5 117.101 211.4 116.801C211.6 116.301 211.7 115.801 211.8 115.301C212 115.501 212.3 115.701 212.5 115.701C212.4 115.701 212.7 117.301 211.9 117.401Z" fill="#FFDCBD"/>
<path d="M226.3 125.802C224 126.302 223.2 127.802 222.4 127.702C220.6 127.402 220.2 129.302 218.3 128.902C217.2 128.702 215.6 130.102 214.5 130.102C211.6 129.902 211.1 127.002 211.8 124.602C212.2 123.402 213.2 121.402 214 119.602C213.7 121.002 213.2 122.602 212.7 123.902C212 125.902 213.5 128.002 215.6 128.002C215.6 128.002 216.5 128.202 219.4 128.002C220.2 127.602 221.3 127.002 222.5 126.502L226.3 125.802Z" fill="#F2B888"/>
<path d="M201.9 129.503C201.9 129.503 199.2 133.603 202.9 136.803C206.5 140.003 209.7 139.403 209.7 139.403C209.7 139.403 207.4 140.803 206.2 140.703C205 140.603 199.1 138.603 199.3 132.903C199.4 127.203 203.6 128.103 203.6 128.103C203.6 128.103 202.3 128.603 201.9 129.503Z" fill="white"/>
<path d="M240 128.103C239.7 128.003 239.3 127.903 238.8 127.803C238.8 127.803 240.4 128.303 240.2 129.703C240.2 129.703 238.3 130.003 236.8 130.503C235.8 130.903 232.6 132.203 232.6 132.203C232.8 132.103 232.9 131.903 233.1 131.703C233.4 131.403 233.7 131.203 234.1 130.903C235.1 130.203 236 129.503 237.1 129.003C237.6 128.803 237.7 128.003 237.7 128.003C237 128.903 236.8 127.903 236.2 128.003C235.9 128.003 235.6 128.303 235.4 128.503C235 128.803 234.6 129.203 234.3 129.603C233.5 130.503 232.2 130.803 231.3 131.603C230.9 132.003 230.9 132.703 230.5 133.103C230.3 133.303 230 133.603 229.7 133.703C229.1 133.903 228.2 133.403 228.6 132.603C228.9 132.103 229.4 131.803 229.9 131.503C230.8 131.003 231.6 130.503 232.4 129.803C233 129.303 233.7 128.803 234.3 128.303C234.4 128.203 234.5 128.203 234.5 128.103C234.9 127.703 234.8 126.703 234.8 126.703C234.5 128.103 233.7 127.803 233.1 127.703C232.6 127.703 231.9 128.503 231.6 128.803C230.9 129.503 228.9 130.603 228.2 131.203C227.4 131.803 228 132.003 227.3 132.603C226 133.703 223.7 133.303 223.4 132.603C223.2 132.203 224.5 131.503 225.8 130.903C227.4 130.203 229.9 128.803 230 128.403C230.1 127.903 229.5 127.103 229.5 127.103C229.9 127.603 229.6 128.603 228.9 128.903C228.2 129.203 227.4 128.903 226.5 128.803C226 128.703 225.4 129.203 225 129.403C224.8 129.603 224.6 129.803 224.4 130.003C224.1 130.303 224 130.603 223.6 130.803C222.8 131.103 222.1 130.603 221.3 130.903C220.8 131.103 219.8 132.203 219.4 131.803C217.9 130.603 216.2 130.903 215 131.103C213.3 131.403 210.2 132.303 207.6 133.403C205 134.403 202.9 135.603 203 136.303C203.1 136.603 203.2 136.803 203.5 137.103C204.7 138.303 207.7 139.403 207.7 139.403C207.7 139.403 208.1 139.403 208.8 139.303C208.9 139.303 209 139.303 209.1 139.303C209.3 139.303 209.5 139.303 209.7 139.303C213.9 139.003 223.6 138.003 229.1 134.703C233.2 132.203 236.3 131.103 238.2 130.503C239.6 130.103 241.3 129.903 241.3 129.903C241.3 129.903 241.7 128.803 240 128.103Z" fill="#F2B888"/>
<path d="M276.8 140.102C276.9 138.802 277.3 134.602 278.9 131.602C278.9 131.602 278.9 131.502 279 131.502C279.3 131.002 279.6 130.502 280 130.102C280 130.102 282.3 127.802 285.9 127.902L288 128.502V145.702L276.8 140.402C276.8 140.502 276.8 140.302 276.8 140.102Z" fill="#58595B"/>
<path d="M276.8 140.502C282.2 143.202 285.5 140.202 286.9 135.602C288.3 131.002 285.9 127.902 285.9 127.902C282.4 127.902 280 130.102 280 130.102C279.6 130.502 279.3 131.002 279 131.502C279 131.502 279 131.602 278.9 131.602C277.3 134.702 276.9 138.802 276.8 140.102C276.8 140.302 276.8 140.502 276.8 140.502Z" fill="#404041"/>
<path d="M282.1 128.102C282.1 128.102 280 128.302 279.5 129.902C279 131.502 284.5 133.302 284.9 132.502C285.3 131.602 285 127.902 282.1 128.102Z" fill="#D0D2D3"/>
<path d="M244.4 130.102C244.4 130.102 246.1 130.302 247.5 130.702C249.4 131.302 252.5 132.402 256.6 134.902C262.1 138.202 271.8 139.202 276 139.502C276.2 139.502 276.4 139.502 276.6 139.502C276.7 139.502 276.8 139.502 276.9 139.502C277.6 139.502 278 139.602 278 139.602L279.8 140.502L285.4 135.302L285.1 132.202L284.9 130.202V129.802H284.8L283.9 129.702L282.4 129.502C282.4 129.502 282.3 129.302 282.2 128.902C282.1 128.702 282.1 128.502 282 128.302C281.1 126.102 279.1 121.502 278 120.802C277 120.202 275.3 118.602 274.5 116.802C274.3 116.302 274.2 115.802 274.1 115.302C274.1 114.902 274.1 114.502 274.3 114.102C274.2 114.102 272.3 114.102 271.9 114.602C271.1 115.502 271.3 117.502 271.8 119.702C272.1 121.102 272.6 122.702 273.1 124.002C273.8 126.002 272.3 128.102 270.2 128.102C270.2 128.102 269.3 128.302 266.4 128.102C265.6 127.702 264.5 127.102 263.3 126.602C262 126.102 260.6 125.702 259.5 125.802C257 126.002 256.3 127.202 256.3 127.202C256.3 127.202 254.5 124.902 252.7 124.902C251.1 124.902 251 126.802 251 126.802C251 126.802 249.5 125.702 248.6 126.502C248.2 126.902 248 127.302 248 127.602C247.6 127.702 247.3 127.702 246.9 127.802C246.5 127.902 246.1 128.002 245.8 128.102C243.8 128.802 244.4 130.102 244.4 130.102Z" fill="#FFD2A9"/>
<path d="M273.7 117.401C274 117.401 274.1 117.101 274.2 116.801C274 116.301 273.9 115.801 273.8 115.301C273.6 115.501 273.3 115.701 273.1 115.701C273.1 115.701 272.8 117.301 273.7 117.401Z" fill="#FFDCBD"/>
<path d="M259.2 125.802C261.5 126.302 262.3 127.802 263.1 127.702C264.9 127.402 265.3 129.302 267.2 128.902C268.3 128.702 269.9 130.102 271 130.102C273.9 129.902 274.5 127.002 273.7 124.602C273.3 123.402 272.3 121.402 271.5 119.602C271.8 121.002 272.3 122.602 272.8 123.902C273.5 125.902 272 128.002 269.9 128.002C269.9 128.002 269 128.202 266.1 128.002C265.3 127.602 264.2 127.002 263 126.502L259.2 125.802Z" fill="#F2B888"/>
<path d="M283.6 129.503C283.6 129.503 286.3 133.603 282.6 136.803C279 140.003 275.8 139.403 275.8 139.403C275.8 139.403 278.1 140.803 279.3 140.703C280.5 140.603 286.4 138.603 286.2 132.903C286.1 127.203 281.9 128.103 281.9 128.103C281.9 128.103 283.2 128.603 283.6 129.503Z" fill="white"/>
<path d="M245.6 128.103C245.9 128.003 246.3 127.903 246.8 127.803C246.8 127.803 245.2 128.303 245.4 129.703C245.4 129.703 247.3 130.003 248.8 130.503C249.8 130.903 253 132.203 253 132.203C252.8 132.103 252.7 131.903 252.5 131.703C252.2 131.403 251.9 131.203 251.5 130.903C250.5 130.203 249.6 129.503 248.5 129.003C248 128.803 247.9 128.003 247.9 128.003C248.6 128.903 248.8 127.903 249.4 128.003C249.7 128.003 250 128.303 250.2 128.503C250.6 128.803 251 129.203 251.3 129.603C252.1 130.503 253.4 130.803 254.3 131.603C254.7 132.003 254.7 132.703 255.1 133.103C255.3 133.303 255.6 133.603 255.9 133.703C256.5 133.903 257.4 133.403 257 132.603C256.7 132.103 256.2 131.803 255.7 131.503C254.8 131.003 254 130.503 253.2 129.803C252.6 129.303 251.9 128.803 251.3 128.303C251.2 128.203 251.1 128.203 251.1 128.103C250.7 127.703 250.8 126.703 250.8 126.703C251.1 128.103 251.9 127.803 252.5 127.703C253 127.703 253.7 128.503 254 128.803C254.7 129.503 256.7 130.603 257.4 131.203C258.2 131.803 257.6 132.003 258.3 132.603C259.6 133.703 261.9 133.303 262.2 132.603C262.4 132.203 261.1 131.503 259.8 130.903C258.2 130.203 255.7 128.803 255.6 128.403C255.5 127.903 256.1 127.103 256.1 127.103C255.7 127.603 256 128.603 256.7 128.903C257.4 129.203 258.2 128.903 259.1 128.803C259.6 128.703 260.2 129.203 260.6 129.403C260.8 129.603 261 129.803 261.2 130.003C261.5 130.303 261.6 130.603 262 130.803C262.8 131.103 263.5 130.603 264.3 130.903C264.8 131.103 265.8 132.203 266.2 131.803C267.7 130.603 269.4 130.903 270.6 131.103C272.3 131.403 275.4 132.303 278.1 133.403C280.7 134.403 282.8 135.603 282.7 136.303C282.6 136.603 282.5 136.803 282.2 137.103C281 138.303 278 139.403 278 139.403C278 139.403 277.6 139.403 276.9 139.303C276.8 139.303 276.7 139.303 276.6 139.303C276.4 139.303 276.2 139.303 276 139.303C271.8 139.003 262.1 138.003 256.6 134.703C252.5 132.203 249.4 131.103 247.5 130.503C246.1 130.103 244.4 129.903 244.4 129.903C244.4 129.903 243.8 128.803 245.6 128.103Z" fill="#F2B888"/>
<path opacity="0.8" d="M343.3 122.9C343.3 125.2 341.5 127 339.2 127H298.8C296.5 127 294.7 125.2 294.7 122.9V106.1C294.7 103.8 296.5 102 298.8 102H339.2C341.5 102 343.3 103.8 343.3 106.1V122.9Z" fill="white"/>
<path d="M302 126.602L296.4 136.702L308.3 126.602H302Z" fill="white"/>
<path d="M315.1 121.799H313C313 121.799 312.3 121.299 310.5 121.299C308.7 121.299 308.7 121.799 301 121.799C301 121.799 301 121.599 301 121.199V121.099C301.1 120.299 301.6 119.099 302.9 119.099C303.3 119.099 303.7 118.999 304.1 118.799C306.3 117.799 309.5 114.899 309.6 112.699C309.6 112.699 311.2 112.999 311.2 114.099L314.5 114.299C314.5 114.299 315 116.799 315 121.199C315.1 121.299 315.1 121.599 315.1 121.799Z" fill="#404041"/>
<path d="M308.299 115.5L309.999 116.5" stroke="#CECECE" stroke-miterlimit="10" stroke-linecap="round"/>
<path d="M307.6 116.301L309.2 117.301" stroke="#CECECE" stroke-miterlimit="10" stroke-linecap="round"/>
<path d="M306.799 117L308.399 118" stroke="#CECECE" stroke-miterlimit="10" stroke-linecap="round"/>
<path d="M305.899 117.801L307.499 118.801" stroke="#CECECE" stroke-miterlimit="10" stroke-linecap="round"/>
<path d="M305.299 121.201H301V121.101C301.1 120.301 301.6 119.101 302.9 119.101C303.3 119.101 303.7 119.001 304.1 118.801C304.5 119.001 305.299 119.701 305.299 121.201Z" fill="#D0D2D3"/>
<path d="M313.599 118.299C313.599 118.899 313.099 119.399 312.499 119.399C311.899 119.399 311.399 118.899 311.399 118.299C311.399 117.699 311.899 117.199 312.499 117.199C313.099 117.199 313.599 117.599 313.599 118.299Z" fill="#D0D2D3"/>
<path d="M315.1 121.799H313C313 121.799 312.3 121.299 310.5 121.299C309.4 121.299 308.9 121.799 306.9 121.799C305.4 121.799 303.9 121.799 301 121.799C301 121.799 301 121.499 301.1 121.199C303.7 121.199 305.499 121.199 306.799 121.199C308.499 121.199 309.599 120.699 310.799 120.699C312.999 120.699 312.3 121.199 315.1 121.199C315.1 121.299 315.1 121.599 315.1 121.799Z" fill="#BBBDBF"/>
<path d="M338.6 108.001H299.3C298.7 108.001 298.2 107.501 298.2 106.901C298.2 106.301 298.7 105.801 299.3 105.801H338.6C339.2 105.801 339.7 106.301 339.7 106.901C339.8 107.501 339.3 108.001 338.6 108.001Z" fill="#D0D2D3"/>
<path d="M329.9 112.801H318.2V114.201H329.9V112.801Z" fill="#8FAFFF"/>
<path d="M332.2 116.199H318.2V117.599H332.2V116.199Z" fill="#8FAFFF"/>
<path d="M328.7 119.898H318.2V121.298H328.7V119.898Z" fill="#8FAFFF"/>
<path d="M337.032 121.02C336.589 121.02 336.178 120.938 335.798 120.773C335.419 120.603 335.096 120.372 334.831 120.081C334.565 119.79 334.369 119.454 334.242 119.075L335.191 118.676C335.362 119.113 335.612 119.448 335.941 119.682C336.27 119.916 336.649 120.033 337.079 120.033C337.332 120.033 337.554 119.995 337.744 119.919C337.933 119.837 338.079 119.723 338.18 119.578C338.288 119.432 338.341 119.265 338.341 119.075C338.341 118.816 338.269 118.61 338.123 118.458C337.978 118.306 337.763 118.186 337.478 118.098L336.149 117.68C335.618 117.516 335.213 117.266 334.935 116.93C334.657 116.589 334.517 116.19 334.517 115.735C334.517 115.336 334.615 114.988 334.812 114.691C335.008 114.387 335.276 114.15 335.618 113.979C335.966 113.809 336.361 113.723 336.804 113.723C337.228 113.723 337.614 113.799 337.962 113.951C338.31 114.096 338.607 114.299 338.854 114.558C339.107 114.818 339.29 115.118 339.404 115.46L338.474 115.868C338.335 115.494 338.117 115.207 337.819 115.004C337.529 114.802 337.19 114.701 336.804 114.701C336.57 114.701 336.365 114.742 336.187 114.824C336.01 114.9 335.871 115.014 335.77 115.166C335.675 115.311 335.628 115.482 335.628 115.678C335.628 115.906 335.7 116.108 335.846 116.285C335.991 116.462 336.213 116.595 336.51 116.684L337.744 117.073C338.307 117.244 338.73 117.49 339.015 117.813C339.3 118.129 339.442 118.525 339.442 118.999C339.442 119.391 339.338 119.739 339.129 120.043C338.927 120.346 338.645 120.587 338.284 120.764C337.924 120.935 337.506 121.02 337.032 121.02ZM336.595 121.855V112.888H337.355V121.855H336.595Z" fill="#8FAFFF"/>
<path opacity="0.8" d="M415.9 84.5992C415.9 86.8992 414.1 88.6992 411.8 88.6992H371.4C369.1 88.6992 367.3 86.8992 367.3 84.5992V67.7992C367.3 65.4992 369.1 63.6992 371.4 63.6992H411.8C414.1 63.6992 415.9 65.4992 415.9 67.7992V84.5992Z" fill="white"/>
<path d="M374.5 88.3008L369 98.4008L380.9 88.3008H374.5Z" fill="white"/>
<path d="M387.6 83.4984H385.5C385.5 83.4984 384.8 82.9984 383 82.9984C381.2 82.9984 381.2 83.4984 373.5 83.4984C373.5 83.4984 373.5 83.2984 373.5 82.8984C373.5 82.8984 373.5 82.8984 373.5 82.7984C373.6 81.9984 374.1 80.7984 375.4 80.7984C375.8 80.7984 376.2 80.6984 376.6 80.4984C378.8 79.4984 382 76.5984 382.1 74.3984C382.1 74.3984 383.7 74.6984 383.7 75.7984L387 75.9984C387 75.9984 387.5 78.4984 387.5 82.8984C387.6 83.0984 387.6 83.2984 387.6 83.4984Z" fill="#404041"/>
<path d="M380.9 77.1992L382.5 78.2992" stroke="#CECECE" stroke-miterlimit="10" stroke-linecap="round"/>
<path d="M380.2 78L381.8 79.1" stroke="#CECECE" stroke-miterlimit="10" stroke-linecap="round"/>
<path d="M379.4 78.7969L381 79.7969" stroke="#CECECE" stroke-miterlimit="10" stroke-linecap="round"/>
<path d="M378.5 79.5L380.1 80.5" stroke="#CECECE" stroke-miterlimit="10" stroke-linecap="round"/>
<path d="M377.8 82.9977H373.5C373.5 82.9977 373.5 82.9977 373.5 82.8977C373.6 82.0977 374.1 80.8977 375.4 80.8977C375.8 80.8977 376.2 80.7977 376.6 80.5977C377.1 80.7977 377.8 81.3977 377.8 82.9977Z" fill="#D0D2D3"/>
<path d="M386.2 79.9984C386.2 80.5984 385.7 81.0984 385.1 81.0984C384.5 81.0984 384 80.5984 384 79.9984C384 79.3984 384.5 78.8984 385.1 78.8984C385.7 78.8984 386.2 79.3984 386.2 79.9984Z" fill="#D0D2D3"/>
<path d="M387.6 83.4984H385.5C385.5 83.4984 384.8 82.9984 383 82.9984C381.9 82.9984 381.4 83.4984 379.4 83.4984C377.9 83.4984 376.4 83.4984 373.5 83.4984C373.5 83.4984 373.5 83.1984 373.6 82.8984C376.2 82.8984 378 82.8984 379.3 82.8984C381 82.8984 382.1 82.3984 383.3 82.3984C385.5 82.3984 384.8 82.8984 387.6 82.8984C387.6 83.0984 387.6 83.2984 387.6 83.4984Z" fill="#BBBDBF"/>
<path d="M411.2 69.7977H371.9C371.3 69.7977 370.8 69.2977 370.8 68.6977C370.8 68.0977 371.3 67.5977 371.9 67.5977H411.2C411.8 67.5977 412.3 68.0977 412.3 68.6977C412.3 69.2977 411.8 69.7977 411.2 69.7977Z" fill="#8FAFFF"/>
<path d="M402.4 74.5977H390.7V75.9977H402.4V74.5977Z" fill="#8FAFFF"/>
<path d="M404.7 78H390.7V79.4H404.7V78Z" fill="#8FAFFF"/>
<path d="M401.2 81.5977H390.7V82.9977H401.2V81.5977Z" fill="#8FAFFF"/>
<path d="M409.571 82.7779C409.129 82.7779 408.717 82.6957 408.338 82.5312C407.958 82.3604 407.636 82.1295 407.37 81.8385C407.104 81.5475 406.908 81.2123 406.782 80.8327L407.731 80.4342C407.901 80.8707 408.151 81.206 408.48 81.44C408.809 81.6741 409.189 81.7911 409.619 81.7911C409.872 81.7911 410.093 81.7531 410.283 81.6772C410.473 81.595 410.618 81.4811 410.72 81.3356C410.827 81.1901 410.881 81.0225 410.881 80.8327C410.881 80.5734 410.808 80.3678 410.663 80.216C410.517 80.0641 410.302 79.9439 410.017 79.8554L408.689 79.4379C408.158 79.2734 407.753 79.0235 407.474 78.6883C407.196 78.3467 407.057 77.9481 407.057 77.4927C407.057 77.0941 407.155 76.7462 407.351 76.4489C407.547 76.1453 407.816 75.908 408.158 75.7372C408.506 75.5664 408.901 75.481 409.344 75.481C409.768 75.481 410.153 75.557 410.501 75.7088C410.849 75.8543 411.147 76.0567 411.393 76.3161C411.646 76.5754 411.83 76.8759 411.944 77.2175L411.014 77.6255C410.875 77.2523 410.656 76.9645 410.359 76.762C410.068 76.5596 409.73 76.4584 409.344 76.4584C409.11 76.4584 408.904 76.4995 408.727 76.5817C408.55 76.6577 408.411 76.7715 408.309 76.9233C408.215 77.0688 408.167 77.2396 408.167 77.4357C408.167 77.6635 408.24 77.8659 408.385 78.043C408.531 78.2201 408.752 78.353 409.05 78.4415L410.283 78.8306C410.846 79.0014 411.27 79.2481 411.555 79.5707C411.839 79.887 411.982 80.2824 411.982 80.7568C411.982 81.149 411.877 81.4969 411.668 81.8006C411.466 82.1042 411.185 82.3446 410.824 82.5217C410.463 82.6925 410.046 82.7779 409.571 82.7779ZM409.135 83.6129V74.646H409.894V83.6129H409.135Z" fill="#8FAFFF"/>
<path opacity="0.8" d="M330.3 72.2984C330.3 74.5984 328.5 76.3984 326.2 76.3984H285.8C283.5 76.3984 281.7 74.5984 281.7 72.2984V55.4984C281.7 53.1984 283.5 51.3984 285.8 51.3984H326.2C328.5 51.3984 330.3 53.1984 330.3 55.4984V72.2984Z" fill="white"/>
<path d="M324 57.7977H304.8C304.2 57.7977 303.7 57.2977 303.7 56.6977C303.7 56.0977 304.2 55.5977 304.8 55.5977H324C324.6 55.5977 325.1 56.0977 325.1 56.6977C325.1 57.3977 324.6 57.7977 324 57.7977Z" fill="#8FAFFF"/>
<path d="M315.4 62.6992H303.7V64.0992H315.4V62.6992Z" fill="#8FAFFF"/>
<path d="M317.7 66.0977H303.7V67.4977H317.7V66.0977Z" fill="#8FAFFF"/>
<path d="M314.2 69.6992H303.7V71.0992H314.2V69.6992Z" fill="#8FAFFF"/>
<path d="M289.1 76L283.6 86.1L295.5 76H289.1Z" fill="white"/>
<path d="M322.583 70.8717C322.14 70.8717 321.729 70.7894 321.349 70.625C320.97 70.4542 320.647 70.2233 320.381 69.9323C320.116 69.6413 319.92 69.306 319.793 68.9265L320.742 68.5279C320.913 68.9644 321.163 69.2997 321.491 69.5338C321.82 69.7678 322.2 69.8848 322.63 69.8848C322.883 69.8848 323.105 69.8469 323.294 69.771C323.484 69.6887 323.63 69.5749 323.731 69.4294C323.838 69.2839 323.892 69.1163 323.892 68.9265C323.892 68.6671 323.819 68.4615 323.674 68.3097C323.528 68.1579 323.313 68.0377 323.029 67.9491L321.7 67.5316C321.169 67.3671 320.764 67.1173 320.486 66.782C320.207 66.4404 320.068 66.0419 320.068 65.5864C320.068 65.1879 320.166 64.84 320.362 64.5426C320.558 64.239 320.827 64.0018 321.169 63.831C321.517 63.6602 321.912 63.5748 322.355 63.5748C322.779 63.5748 323.165 63.6507 323.513 63.8025C323.861 63.948 324.158 64.1504 324.405 64.4098C324.658 64.6692 324.841 64.9696 324.955 65.3112L324.025 65.7193C323.886 65.346 323.668 65.0582 323.37 64.8558C323.079 64.6534 322.741 64.5521 322.355 64.5521C322.121 64.5521 321.915 64.5933 321.738 64.6755C321.561 64.7514 321.422 64.8653 321.321 65.0171C321.226 65.1626 321.178 65.3334 321.178 65.5295C321.178 65.7572 321.251 65.9596 321.397 66.1368C321.542 66.3139 321.764 66.4467 322.061 66.5353L323.294 66.9243C323.857 67.0951 324.281 67.3418 324.566 67.6645C324.851 67.9808 324.993 68.3761 324.993 68.8506C324.993 69.2428 324.888 69.5907 324.68 69.8943C324.477 70.198 324.196 70.4384 323.835 70.6155C323.475 70.7863 323.057 70.8717 322.583 70.8717ZM322.146 71.7067V62.7398H322.905V71.7067H322.146Z" fill="#8FAFFF"/>
<path d="M301.3 61.7008L299.3 64.1008L297.5 62.3008V71.2008H288.1V62.3008L286.3 64.1008L284.3 61.7008L288 57.2008L290.5 56.9008L291.1 56.8008C291.4 57.1008 292.1 57.4008 292.8 57.4008C293.5 57.4008 294.3 57.2008 294.5 56.8008L295.1 56.9008L297.6 57.2008L301.3 61.7008Z" fill="#F95C57"/>
<path d="M297.5 62.2008V71.1008H288.1V62.2008C288.1 60.7008 290.9 56.8008 290.9 56.8008C292.8 58.3008 294.8 56.8008 294.8 56.8008C294.8 56.8008 297.5 60.7008 297.5 62.2008Z" fill="#E6E7E8"/>
<path d="M295.1 56.7992C295 57.3992 294 57.8992 292.8 57.8992C291.6 57.8992 290.7 57.3992 290.5 56.7992L291.1 56.6992C291.4 56.9992 292.1 57.2992 292.8 57.2992C293.5 57.2992 294.3 57.0992 294.5 56.6992L295.1 56.7992Z" fill="#E21E36"/>
<path opacity="0.8" d="M203.2 72.2984C203.2 74.5984 201.4 76.3984 199.1 76.3984H158.7C156.4 76.3984 154.6 74.5984 154.6 72.2984V55.4984C154.6 53.1984 156.4 51.3984 158.7 51.3984H199.1C201.4 51.3984 203.2 53.1984 203.2 55.4984V72.2984Z" fill="white"/>
<path d="M167.7 70.4969H161.7C161 70.4969 160.5 69.9969 160.5 69.2969V56.9969C160.5 56.2969 161 55.7969 161.7 55.7969H167.7C168.4 55.7969 168.9 56.2969 168.9 56.9969V69.2969C168.9 69.9969 168.4 70.4969 167.7 70.4969Z" fill="#0F0555"/>
<path d="M168.3 57.0977H161.1V68.6977H168.3V57.0977Z" fill="#7486CE"/>
<path d="M165.1 56.6961H164.3C164.3 56.6961 164.2 56.6961 164.2 56.5961C164.2 56.5961 164.2 56.4961 164.3 56.4961H165.1C165.1 56.4961 165.2 56.4961 165.1 56.6961Z" fill="#B0BEC5"/>
<path d="M165.2 69.5977C165.2 69.8977 165 70.0977 164.7 70.0977C164.4 70.0977 164.2 69.8977 164.2 69.5977C164.2 69.2977 164.4 69.0977 164.7 69.0977C165 69.0977 165.2 69.2977 165.2 69.5977Z" fill="#B0BEC5"/>
<path d="M193.5 57.7977H174.3C173.7 57.7977 173.2 57.2977 173.2 56.6977C173.2 56.0977 173.7 55.5977 174.3 55.5977H193.5C194.1 55.5977 194.6 56.0977 194.6 56.6977C194.6 57.3977 194.1 57.7977 193.5 57.7977Z" fill="#8FAFFF"/>
<path d="M184.9 62.6992H173.2V64.0992H184.9V62.6992Z" fill="#8FAFFF"/>
<path d="M187.2 66.0977H173.2V67.4977H187.2V66.0977Z" fill="#8FAFFF"/>
<path d="M183.7 69.6992H173.2V71.0992H183.7V69.6992Z" fill="#8FAFFF"/>
<path d="M192.118 70.8717C191.675 70.8717 191.264 70.7894 190.884 70.625C190.505 70.4542 190.182 70.2233 189.916 69.9323C189.651 69.6413 189.455 69.306 189.328 68.9265L190.277 68.5279C190.448 68.9644 190.698 69.2997 191.027 69.5338C191.356 69.7678 191.735 69.8848 192.165 69.8848C192.418 69.8848 192.64 69.8469 192.83 69.771C193.019 69.6887 193.165 69.5749 193.266 69.4294C193.374 69.2839 193.427 69.1163 193.427 68.9265C193.427 68.6671 193.355 68.4615 193.209 68.3097C193.064 68.1579 192.848 68.0377 192.564 67.9491L191.235 67.5316C190.704 67.3671 190.299 67.1173 190.021 66.782C189.742 66.4404 189.603 66.0419 189.603 65.5864C189.603 65.1879 189.701 64.84 189.897 64.5426C190.094 64.239 190.362 64.0018 190.704 63.831C191.052 63.6602 191.447 63.5748 191.89 63.5748C192.314 63.5748 192.7 63.6507 193.048 63.8025C193.396 63.948 193.693 64.1504 193.94 64.4098C194.193 64.6692 194.376 64.9696 194.49 65.3112L193.56 65.7193C193.421 65.346 193.203 65.0582 192.905 64.8558C192.614 64.6534 192.276 64.5521 191.89 64.5521C191.656 64.5521 191.45 64.5933 191.273 64.6755C191.096 64.7514 190.957 64.8653 190.856 65.0171C190.761 65.1626 190.714 65.3334 190.714 65.5295C190.714 65.7572 190.786 65.9596 190.932 66.1368C191.077 66.3139 191.299 66.4467 191.596 66.5353L192.83 66.9243C193.393 67.0951 193.816 67.3418 194.101 67.6645C194.386 67.9808 194.528 68.3761 194.528 68.8506C194.528 69.2428 194.424 69.5907 194.215 69.8943C194.012 70.198 193.731 70.4384 193.37 70.6155C193.01 70.7863 192.592 70.8717 192.118 70.8717ZM191.681 71.7067V62.7398H192.44V71.7067H191.681Z" fill="#8FAFFF"/>
<path d="M196.5 76L202 86.1L190.1 76H196.5Z" fill="white"/>
<path opacity="0.8" d="M190.3 122.9C190.3 125.2 188.5 127 186.2 127H145.8C143.5 127 141.7 125.2 141.7 122.9V106.1C141.7 103.8 143.5 102 145.8 102H186.2C188.5 102 190.3 103.8 190.3 106.1V122.9Z" fill="white"/>
<path d="M183.8 126.602L189.4 136.702L177.4 126.602H183.8Z" fill="white"/>
<path d="M183.1 108.001H163.7C163.1 108.001 162.6 107.501 162.6 106.901C162.6 106.301 163.1 105.801 163.7 105.801H183.1C183.7 105.801 184.2 106.301 184.2 106.901C184.2 107.501 183.7 108.001 183.1 108.001Z" fill="#8FAFFF"/>
<path d="M174.3 112.801H162.6V114.201H174.3V112.801Z" fill="#8FAFFF"/>
<path d="M176.6 116.199H162.6V117.599H176.6V116.199Z" fill="#8FAFFF"/>
<path d="M173.1 119.898H162.6V121.298H173.1V119.898Z" fill="#8FAFFF"/>
<path d="M181.493 121.02C181.05 121.02 180.639 120.938 180.259 120.773C179.88 120.603 179.557 120.372 179.291 120.081C179.026 119.79 178.83 119.454 178.703 119.075L179.652 118.676C179.823 119.113 180.073 119.448 180.402 119.682C180.731 119.916 181.11 120.033 181.54 120.033C181.793 120.033 182.015 119.995 182.205 119.919C182.394 119.837 182.54 119.723 182.641 119.578C182.749 119.432 182.802 119.265 182.802 119.075C182.802 118.816 182.73 118.61 182.584 118.458C182.439 118.306 182.223 118.186 181.939 118.098L180.61 117.68C180.079 117.516 179.674 117.266 179.396 116.93C179.117 116.589 178.978 116.19 178.978 115.735C178.978 115.336 179.076 114.988 179.272 114.691C179.469 114.387 179.737 114.15 180.079 113.979C180.427 113.809 180.822 113.723 181.265 113.723C181.689 113.723 182.075 113.799 182.423 113.951C182.771 114.096 183.068 114.299 183.315 114.558C183.568 114.818 183.751 115.118 183.865 115.46L182.935 115.868C182.796 115.494 182.578 115.207 182.28 115.004C181.989 114.802 181.651 114.701 181.265 114.701C181.031 114.701 180.825 114.742 180.648 114.824C180.471 114.9 180.332 115.014 180.231 115.166C180.136 115.311 180.089 115.482 180.089 115.678C180.089 115.906 180.161 116.108 180.307 116.285C180.452 116.462 180.674 116.595 180.971 116.684L182.205 117.073C182.768 117.244 183.191 117.49 183.476 117.813C183.761 118.129 183.903 118.525 183.903 118.999C183.903 119.391 183.799 119.739 183.59 120.043C183.387 120.346 183.106 120.587 182.745 120.764C182.385 120.935 181.967 121.02 181.493 121.02ZM181.056 121.855V112.888H181.815V121.855H181.056Z" fill="#8FAFFF"/>
<path d="M147.5 117.198C147.5 117.198 146.1 104.398 153.4 104.398C160.7 104.398 159.3 117.198 159.3 117.198" stroke="#E54E4E" stroke-width="2" stroke-miterlimit="10" stroke-linecap="round"/>
<path d="M159.7 123.197C159.7 123.897 159.2 124.397 158.5 124.397H148.4C147.7 124.397 147.2 123.897 147.2 123.197V118.497C147.2 117.797 147.7 117.297 148.4 117.297H158.5C159.2 117.297 159.7 117.797 159.7 118.497V123.197Z" fill="#E54E4E"/>
<path d="M159.7 118.898C159.7 119.598 159.2 120.098 158.5 120.098H148.4C147.7 120.098 147.2 119.598 147.2 118.898V117.098C147.2 116.398 147.7 115.898 148.4 115.898H158.5C159.2 115.898 159.7 116.398 159.7 117.098V118.898Z" fill="#F95C57"/>
<path d="M154 120.199C154 120.499 153.7 120.799 153.4 120.799C153.1 120.799 152.8 120.499 152.8 120.199V119.299C152.8 118.999 153.1 118.699 153.4 118.699C153.7 118.699 154 118.999 154 119.299V120.199Z" fill="#FFE082"/>
<path opacity="0.8" d="M115.5 94.2008C115.5 96.5008 113.7 98.3008 111.4 98.3008H70.9999C68.6999 98.3008 66.8999 96.5008 66.8999 94.2008V77.4008C66.8999 75.1008 68.6999 73.3008 70.9999 73.3008H111.4C113.7 73.3008 115.5 75.1008 115.5 77.4008V94.2008Z" fill="white"/>
<path d="M109 97.9023L114.6 108.002L102.7 97.9023H109Z" fill="white"/>
<path d="M108.3 79.3016H88.8998C88.2998 79.3016 87.7998 78.8016 87.7998 78.2016C87.7998 77.6016 88.2998 77.1016 88.8998 77.1016H108.3C108.9 77.1016 109.4 77.6016 109.4 78.2016C109.4 78.8016 108.9 79.3016 108.3 79.3016Z" fill="#8FAFFF"/>
<path d="M99.4998 84.1992H87.7998V85.5992H99.4998V84.1992Z" fill="#8FAFFF"/>
<path d="M101.8 87.5H87.7998V88.9H101.8V87.5Z" fill="#8FAFFF"/>
<path d="M98.2998 91.1992H87.7998V92.5992H98.2998V91.1992Z" fill="#8FAFFF"/>
<path d="M106.702 92.3482C106.259 92.3482 105.848 92.266 105.468 92.1015C105.089 91.9307 104.766 91.6998 104.5 91.4088C104.235 91.1179 104.039 90.7826 103.912 90.403L104.861 90.0045C105.032 90.441 105.282 90.7763 105.611 91.0103C105.94 91.2444 106.319 91.3614 106.749 91.3614C107.002 91.3614 107.224 91.3235 107.414 91.2475C107.603 91.1653 107.749 91.0514 107.85 90.9059C107.958 90.7604 108.011 90.5928 108.011 90.403C108.011 90.1437 107.939 89.9381 107.793 89.7863C107.648 89.6344 107.432 89.5143 107.148 89.4257L105.819 89.0082C105.288 88.8437 104.883 88.5938 104.605 88.2586C104.326 87.917 104.187 87.5184 104.187 87.063C104.187 86.6644 104.285 86.3165 104.481 86.0192C104.678 85.7156 104.946 85.4783 105.288 85.3076C105.636 85.1368 106.031 85.0514 106.474 85.0514C106.898 85.0514 107.284 85.1273 107.632 85.2791C107.98 85.4246 108.277 85.627 108.524 85.8864C108.777 86.1457 108.96 86.4462 109.074 86.7878L108.144 87.1958C108.005 86.8226 107.787 86.5348 107.489 86.3323C107.198 86.1299 106.86 86.0287 106.474 86.0287C106.24 86.0287 106.034 86.0698 105.857 86.1521C105.68 86.228 105.541 86.3418 105.44 86.4937C105.345 86.6391 105.298 86.8099 105.298 87.006C105.298 87.2338 105.37 87.4362 105.516 87.6133C105.661 87.7905 105.883 87.9233 106.18 88.0119L107.414 88.4009C107.977 88.5717 108.4 88.8184 108.685 89.141C108.97 89.4573 109.112 89.8527 109.112 90.3271C109.112 90.7193 109.008 91.0673 108.799 91.3709C108.596 91.6745 108.315 91.9149 107.954 92.092C107.594 92.2628 107.176 92.3482 106.702 92.3482ZM106.265 93.1833V84.2163H107.024V93.1833H106.265Z" fill="#8FAFFF"/>
<path d="M72.6999 88.4992C72.6999 88.4992 71.2999 75.6992 78.5999 75.6992C85.8999 75.6992 84.4999 88.4992 84.4999 88.4992" stroke="#E54E4E" stroke-width="2" stroke-miterlimit="10" stroke-linecap="round"/>
<path d="M84.8999 94.4977C84.8999 95.1977 84.3999 95.6977 83.6999 95.6977H73.5999C72.8999 95.6977 72.3999 95.1977 72.3999 94.4977V89.7977C72.3999 89.0977 72.8999 88.5977 73.5999 88.5977H83.6999C84.3999 88.5977 84.8999 89.0977 84.8999 89.7977V94.4977Z" fill="#E54E4E"/>
<path d="M84.8999 90.1992C84.8999 90.8992 84.3999 91.3992 83.6999 91.3992H73.5999C72.8999 91.3992 72.3999 90.8992 72.3999 90.1992V88.3992C72.3999 87.6992 72.8999 87.1992 73.5999 87.1992H83.6999C84.3999 87.1992 84.8999 87.6992 84.8999 88.3992C84.8999 88.4992 84.8999 90.1992 84.8999 90.1992Z" fill="#F95C57"/>
<path d="M79.2 91.5C79.2 91.8 78.9 92.1 78.6 92.1C78.3 92.1 78 91.8 78 91.5V90.6C78 90.3 78.3 90 78.6 90C78.9 90 79.2 90.3 79.2 90.6V91.5Z" fill="#FFE082"/>
</g>
<defs>
<linearGradient id="paint0_linear_1517_18025" x1="273.074" y1="170" x2="273.074" y2="92.7179" gradientUnits="userSpaceOnUse">
<stop stop-color="white"/>
<stop offset="1" stop-color="#BCCCFF"/>
</linearGradient>
<linearGradient id="paint1_linear_1517_18025" x1="196.926" y1="170" x2="196.926" y2="92.7181" gradientUnits="userSpaceOnUse">
<stop stop-color="white"/>
<stop offset="1" stop-color="#BCCCFF"/>
</linearGradient>
<clipPath id="clip0_1517_18025">
<rect width="470" height="170" fill="white"/>
</clipPath>
</defs>
</svg>
