<?xml version="1.0" encoding="utf-8"?>
<!-- Generator: Adobe Illustrator 27.6.1, SVG Export Plug-In . SVG Version: 6.00 Build 0)  -->
<svg version="1.1" id="Layer_1" xmlns="http://www.w3.org/2000/svg" xmlns:xlink="http://www.w3.org/1999/xlink" x="0px" y="0px"
	 viewBox="0 0 100 100" style="enable-background:new 0 0 100 100;" xml:space="preserve">
<style type="text/css">
	.st0{fill:#0875FF;}
	.st1{fill:none;stroke:#0875FF;stroke-width:5;stroke-linecap:round;stroke-miterlimit:10;}
</style>
<g>
	<path class="st0" d="M262.31,36.92c-0.54-0.73-1.24-1.33-2.05-1.73c-0.81-0.41-1.71-0.62-2.62-0.62h-6.43
		c-0.47-4.85-2.73-9.34-6.34-12.61c-3.61-3.27-8.3-5.08-13.17-5.08c-4.87,0-9.56,1.81-13.17,5.08c-3.61,3.27-5.86,7.77-6.34,12.61
		h-8.54l-3.82-18.14c-0.28-1.31-0.99-2.48-2.03-3.32c-1.04-0.84-2.33-1.3-3.67-1.3h-8.74c-0.52,0-1.01,0.2-1.37,0.57
		c-0.36,0.36-0.57,0.86-0.57,1.37c0,0.52,0.2,1.01,0.57,1.37c0.36,0.36,0.86,0.57,1.37,0.57h8.74c0.45-0.01,0.9,0.14,1.25,0.42
		c0.35,0.28,0.6,0.68,0.69,1.12l3.65,17.33l0.3,1.45l0.19,0.89l6.01,28.82c0.17,0.76,0.5,1.48,0.95,2.11
		c0.46,0.63,1.03,1.17,1.7,1.58c-0.93,1.4-1.28,3.1-0.97,4.75c0.28,1.48,1.07,2.81,2.23,3.77c1.16,0.96,2.62,1.48,4.12,1.49
		c-0.4,0.96-0.56,2-0.46,3.04c0.1,1.03,0.45,2.03,1.03,2.89c0.58,0.86,1.36,1.57,2.27,2.06c0.92,0.49,1.94,0.75,2.98,0.75
		c1.04,0,2.06-0.26,2.98-0.75c0.92-0.49,1.7-1.2,2.27-2.06c0.58-0.86,0.93-1.86,1.03-2.89c0.1-1.03-0.06-2.08-0.46-3.04h14.57
		c-0.33,0.77-0.5,1.59-0.5,2.43c0,1.25,0.37,2.47,1.06,3.51c0.69,1.04,1.68,1.85,2.83,2.32c1.15,0.48,2.42,0.6,3.65,0.36
		c1.22-0.24,2.35-0.84,3.23-1.73c0.88-0.88,1.48-2.01,1.73-3.23c0.24-1.22,0.12-2.49-0.36-3.65c-0.48-1.15-1.29-2.14-2.32-2.83
		c-1.04-0.69-2.26-1.06-3.51-1.06h-32.05c-0.69,0-1.35-0.27-1.84-0.76c-0.49-0.49-0.76-1.15-0.76-1.84c0-0.69,0.27-1.35,0.76-1.84
		c0.49-0.49,1.15-0.76,1.84-0.76h36.14c1.25,0,2.47-0.4,3.48-1.15c1.01-0.75,1.74-1.8,2.1-3l7.23-24.14
		c0.26-0.86,0.31-1.78,0.15-2.67C263.21,38.48,262.85,37.64,262.31,36.92z M222.49,81.88c0,0.48-0.14,0.95-0.41,1.35
		c-0.27,0.4-0.65,0.71-1.09,0.89c-0.44,0.18-0.93,0.23-1.4,0.14c-0.47-0.09-0.9-0.33-1.24-0.66c-0.34-0.34-0.57-0.77-0.66-1.24
		c-0.09-0.47-0.05-0.96,0.14-1.4c0.18-0.44,0.49-0.82,0.89-1.09c0.4-0.27,0.87-0.41,1.35-0.41c0.32-0.01,0.64,0.05,0.94,0.17
		c0.3,0.12,0.57,0.3,0.8,0.52c0.23,0.23,0.41,0.5,0.54,0.79c0.13,0.3,0.19,0.62,0.19,0.94H222.49z M248.71,81.88
		c0,0.48-0.14,0.95-0.41,1.35c-0.27,0.4-0.65,0.71-1.09,0.89c-0.44,0.18-0.93,0.23-1.4,0.14c-0.47-0.09-0.9-0.33-1.24-0.66
		c-0.34-0.34-0.57-0.77-0.66-1.24c-0.09-0.47-0.05-0.96,0.14-1.4c0.18-0.44,0.5-0.82,0.89-1.09c0.4-0.27,0.87-0.41,1.35-0.41
		c0.64,0,1.26,0.26,1.72,0.71C248.46,80.62,248.71,81.23,248.71,81.88z M231.71,20.79c3.11,0,6.15,0.92,8.73,2.65
		c2.59,1.73,4.6,4.18,5.79,7.06s1.5,6.03,0.89,9.08c-0.61,3.05-2.1,5.85-4.3,8.05c-2.2,2.2-5,3.7-8.05,4.3
		c-3.05,0.61-6.21,0.3-9.08-0.89s-5.33-3.21-7.06-5.79c-1.73-2.59-2.65-5.63-2.65-8.73c0.01-4.17,1.66-8.16,4.61-11.11
		C223.54,22.45,227.54,20.79,231.71,20.79z M259.5,40.95l-7.23,24.14c-0.11,0.41-0.36,0.77-0.69,1.02s-0.75,0.4-1.17,0.4h-38.46
		c-0.45,0.01-0.9-0.14-1.25-0.42c-0.35-0.28-0.6-0.68-0.69-1.12l-5.53-26.51h7.77c0.47,4.85,2.73,9.34,6.34,12.61
		c3.61,3.27,8.3,5.08,13.17,5.08c4.87,0,9.56-1.81,13.17-5.08c3.61-3.27,5.86-7.77,6.34-12.61h6.39c0.3,0,0.6,0.07,0.87,0.21
		c0.27,0.14,0.5,0.33,0.68,0.58c0.18,0.24,0.3,0.52,0.35,0.82C259.6,40.35,259.59,40.66,259.5,40.95z"/>
	<path class="st0" d="M228.92,43.51c-0.95,0-1.89-0.36-2.61-1.08l-4.61-4.61c-0.78-0.78-0.78-2.05,0-2.83
		c0.78-0.78,2.05-0.78,2.83,0l4.39,4.39l10-10c0.78-0.78,2.05-0.78,2.83,0c0.78,0.78,0.78,2.05,0,2.83l-10.22,10.22
		C230.81,43.15,229.86,43.51,228.92,43.51z"/>
</g>
<g>
	<path class="st0" d="M20,65.69c-4.14,0-7.5,3.36-7.5,7.5v9.31c0,4.14,3.36,7.5,7.5,7.5s7.5-3.36,7.5-7.5v-9.31
		C27.5,69.04,24.14,65.69,20,65.69z M22.5,82.5c0,1.38-1.12,2.5-2.5,2.5s-2.5-1.12-2.5-2.5v-9.31c0-1.38,1.12-2.5,2.5-2.5
		s2.5,1.12,2.5,2.5V82.5z"/>
	<path class="st0" d="M40,56.77c-4.14,0-7.5,3.36-7.5,7.5v18.2c0,4.14,3.36,7.5,7.5,7.5s7.5-3.36,7.5-7.5v-18.2
		C47.5,60.13,44.14,56.77,40,56.77z M42.5,82.48c0,1.38-1.12,2.5-2.5,2.5s-2.5-1.12-2.5-2.5v-18.2c0-1.38,1.12-2.5,2.5-2.5
		s2.5,1.12,2.5,2.5V82.48z"/>
	<path class="st0" d="M60,43.51c-4.14,0-7.5,3.36-7.5,7.5V82.5c0,4.14,3.36,7.5,7.5,7.5s7.5-3.36,7.5-7.5V51.01
		C67.5,46.87,64.14,43.51,60,43.51z M62.5,82.5c0,1.38-1.12,2.5-2.5,2.5c-1.38,0-2.5-1.12-2.5-2.5V51.01c0-1.38,1.12-2.5,2.5-2.5
		c1.38,0,2.5,1.12,2.5,2.5V82.5z"/>
	<path class="st0" d="M80,30c-4.14,0-7.5,3.36-7.5,7.5v45c0,4.14,3.36,7.5,7.5,7.5s7.5-3.36,7.5-7.5v-45C87.5,33.35,84.14,30,80,30z
		 M82.5,82.5c0,1.38-1.12,2.5-2.5,2.5s-2.5-1.12-2.5-2.5v-45c0-1.38,1.12-2.5,2.5-2.5s2.5,1.12,2.5,2.5V82.5z"/>
	<path class="st0" d="M15.04,61.83c0.64,0,1.28-0.24,1.77-0.73l16.25-16.25c0.31-0.31,0.68-0.36,0.87-0.36
		c0.19,0,0.56,0.05,0.87,0.36l3.44,3.44c1.18,1.18,2.74,1.83,4.41,1.83c1.67,0,3.23-0.65,4.41-1.83L77.5,17.86v7.65
		c0,1.38,1.12,2.5,2.5,2.5s2.5-1.12,2.5-2.5V13.17c0-1.59-1.18-2.89-2.7-3.12c-0.05-0.01-0.09-0.01-0.14-0.01
		C79.55,10.03,79.45,10,79.34,10H65.84c-1.38,0-2.5,1.12-2.5,2.5s1.12,2.5,2.5,2.5h7.44L43.53,44.76c-0.31,0.31-0.68,0.36-0.87,0.36
		c-0.19,0-0.56-0.05-0.87-0.36l-3.44-3.44c-1.18-1.18-2.74-1.83-4.41-1.83s-3.23,0.65-4.41,1.83L13.27,57.56
		c-0.98,0.98-0.98,2.56,0,3.54C13.76,61.59,14.4,61.83,15.04,61.83z"/>
</g>
<g>
	<path class="st0" d="M17.5-168.17c1.38,0,2.5,1.12,2.5,2.5v9.31c0,1.38-1.12,2.5-2.5,2.5s-2.5-1.12-2.5-2.5v-9.31
		C15-167.05,16.12-168.17,17.5-168.17 M17.5-173.17c-4.14,0-7.5,3.36-7.5,7.5v9.31c0,4.14,3.36,7.5,7.5,7.5s7.5-3.36,7.5-7.5v-9.31
		C25-169.81,21.64-173.17,17.5-173.17L17.5-173.17z"/>
</g>
<g>
	<path class="st0" d="M37.5-177.08c1.38,0,2.5,1.12,2.5,2.5v18.2c0,1.38-1.12,2.5-2.5,2.5S35-155,35-156.38v-18.2
		C35-175.96,36.12-177.08,37.5-177.08 M37.5-182.08c-4.14,0-7.5,3.36-7.5,7.5v18.2c0,4.14,3.36,7.5,7.5,7.5s7.5-3.36,7.5-7.5v-18.2
		C45-178.72,41.64-182.08,37.5-182.08L37.5-182.08z"/>
</g>
<g>
	<path class="st0" d="M57.5-190.34c1.38,0,2.5,1.12,2.5,2.5v31.49c0,1.38-1.12,2.5-2.5,2.5s-2.5-1.12-2.5-2.5v-31.49
		C55-189.22,56.12-190.34,57.5-190.34 M57.5-195.34c-4.14,0-7.5,3.36-7.5,7.5v31.49c0,4.14,3.36,7.5,7.5,7.5s7.5-3.36,7.5-7.5
		v-31.49C65-191.99,61.64-195.34,57.5-195.34L57.5-195.34z"/>
</g>
<g>
	<path class="st0" d="M77.5-203.86c1.38,0,2.5,1.12,2.5,2.5v45c0,1.38-1.12,2.5-2.5,2.5s-2.5-1.12-2.5-2.5v-45
		C75-202.74,76.12-203.86,77.5-203.86 M77.5-208.86c-4.14,0-7.5,3.36-7.5,7.5v45c0,4.14,3.36,7.5,7.5,7.5s7.5-3.36,7.5-7.5v-45
		C85-205.5,81.64-208.86,77.5-208.86L77.5-208.86z"/>
</g>
<path class="st1" d="M76.82-226.35L42.8-192.33c-1.46,1.46-3.82,1.46-5.28,0l-3.45-3.45c-1.46-1.46-3.82-1.46-5.28,0l-16.25,16.25"
	/>
<path class="st1" d="M63.34-226.35h13.49c0.37,0,0.66,0.3,0.66,0.66v12.34"/>
</svg>
