<svg width="36" height="36" viewBox="0 0 36 36" fill="none" xmlns="http://www.w3.org/2000/svg">
<g clip-path="url(#clip0_646_3110)">
<path d="M34.4817 33.7698H26.6121C27.4031 32.2745 27.6938 30.565 27.4416 28.8924C27.1893 27.2197 26.4074 25.6719 25.2106 24.4764L18.9093 18.1808V17.8193L25.2161 11.518C26.3981 10.3461 27.1771 8.82896 27.4408 7.18554C27.4677 7.09725 27.4808 7.00533 27.4797 6.91302C27.6871 5.30108 27.3939 3.66435 26.6399 2.22463H34.4817C34.7767 2.22463 35.0596 2.10744 35.2682 1.89884C35.4768 1.69024 35.594 1.40732 35.594 1.11231C35.594 0.817309 35.4768 0.534388 35.2682 0.325789C35.0596 0.11719 34.7767 0 34.4817 0H1.11231C0.817309 0 0.534388 0.11719 0.325789 0.325789C0.11719 0.534388 0 0.817309 0 1.11231C0 1.40732 0.11719 1.69024 0.325789 1.89884C0.534388 2.10744 0.817309 2.22463 1.11231 2.22463H8.98193C8.19528 3.72099 7.907 5.42945 8.1591 7.10108C8.41119 8.77271 9.19049 10.3202 10.3834 11.518L16.6847 17.8193V18.1696L10.3779 24.4764C9.19596 25.6551 8.41725 27.1774 8.15325 28.8256C8.1363 28.9006 8.12515 28.9769 8.11988 29.0536C7.90918 30.6746 8.20238 32.3212 8.95968 33.7698H1.11231C0.817309 33.7698 0.534388 33.887 0.325789 34.0956C0.11719 34.3042 0 34.5871 0 34.8821C0 35.1771 0.11719 35.4601 0.325789 35.6687C0.534388 35.8773 0.817309 35.9944 1.11231 35.9944H34.4817C34.7767 35.9944 35.0596 35.8773 35.2682 35.6687C35.4768 35.4601 35.594 35.1771 35.594 34.8821C35.594 34.5871 35.4768 34.3042 35.2682 34.0956C35.0596 33.887 34.7767 33.7698 34.4817 33.7698ZM17.797 15.7726L13.6481 11.6181C13.8539 10.6504 14.4545 8.56481 15.9617 7.72501C17.0017 7.16886 18.3865 7.3079 20.0828 8.14769C21.3937 8.87265 22.9016 9.16097 24.3875 8.9708C24.172 9.30702 23.9202 9.61849 23.6366 9.89958L17.797 15.7726ZM11.6793 2.22463H23.9425C24.9151 3.36768 25.395 4.84956 25.2773 6.34574C24.7656 6.71281 23.4031 7.35795 21.0728 6.20114C18.7425 5.04434 16.6235 4.88861 14.8939 5.8174C13.1642 6.74618 12.3244 8.44245 11.8461 9.82172C10.8857 8.79921 10.3374 7.45765 10.3066 6.05515C10.2757 4.65266 10.7647 3.28832 11.6793 2.22463ZM17.797 20.2218L21.9459 24.3763C21.7402 25.344 21.1395 27.4296 19.6323 28.2694C18.5923 28.8256 17.2075 28.6865 15.5112 27.8467C14.2003 27.1218 12.6924 26.8335 11.2066 27.0236C11.423 26.6864 11.6746 26.3732 11.9574 26.0893L17.797 20.2218ZM11.6793 33.7698C10.7092 32.6276 10.2295 31.1484 10.3445 29.6543C10.8673 29.2872 12.2466 28.6476 14.549 29.7933C15.6865 30.4012 16.9476 30.7416 18.2364 30.7888C19.0959 30.7944 19.9431 30.584 20.7001 30.177C22.3686 29.2705 23.2696 27.552 23.7479 26.1727C24.7106 27.194 25.2605 28.536 25.2913 29.9392C25.3221 31.3424 24.8317 32.7072 23.9147 33.7698H11.6793Z" fill="#0875FF"/>
</g>
<defs>
<clipPath id="clip0_646_3110">
<rect width="35.594" height="36" fill="white"/>
</clipPath>
</defs>
</svg>
