<svg width="38" height="36" viewBox="0 0 38 36" fill="none" xmlns="http://www.w3.org/2000/svg">
<g clip-path="url(#clip0_646_2719)">
<path d="M35.15 0H2.85C2.09413 0 1.36922 0.301978 0.834746 0.839503C0.300267 1.37703 0 2.10607 0 2.86624V25.7962C0 26.5564 0.300267 27.2854 0.834746 27.8229C1.36922 28.3604 2.09413 28.6624 2.85 28.6624H14.079L12.35 33.4347C12.2453 33.7235 12.2115 34.0334 12.2513 34.3381C12.2911 34.6428 12.4034 34.9334 12.5787 35.1852C12.754 35.4369 12.987 35.6425 13.2582 35.7843C13.5293 35.9262 13.8304 36.0001 14.136 36H23.8592C24.1653 36.0009 24.467 35.9275 24.7387 35.786C25.0104 35.6444 25.2441 35.439 25.42 35.1871C25.5958 34.9352 25.7085 34.6444 25.7486 34.3393C25.7886 34.0342 25.7548 33.7239 25.65 33.4347L23.9257 28.6576H35.15C35.9059 28.6576 36.6308 28.3557 37.1653 27.8181C37.6997 27.2806 38 26.5516 38 25.7914V2.86146C37.9987 2.10212 37.6979 1.37431 37.1636 0.837813C36.6292 0.301321 35.905 -1.05465e-06 35.15 0ZM23.864 34.0892H14.1407L16.1025 28.6624H21.8975L23.864 34.0892ZM36.1 25.7962C36.1 26.0496 35.9999 26.2926 35.8218 26.4718C35.6436 26.6509 35.402 26.7516 35.15 26.7516H2.85C2.59804 26.7516 2.35641 26.6509 2.17825 26.4718C2.00009 26.2926 1.9 26.0496 1.9 25.7962V2.86624C1.9 2.61285 2.00009 2.36984 2.17825 2.19066C2.35641 2.01149 2.59804 1.91083 2.85 1.91083H35.15C35.402 1.91083 35.6436 2.01149 35.8218 2.19066C35.9999 2.36984 36.1 2.61285 36.1 2.86624V25.7962Z" fill="#0875FF"/>
<path d="M7.6 16.2383C6.84413 16.2383 6.11922 16.5403 5.58475 17.0778C5.05027 17.6153 4.75 18.3443 4.75 19.1045V21.0154C4.75 21.7755 5.05027 22.5046 5.58475 23.0421C6.11922 23.5796 6.84413 23.8816 7.6 23.8816C8.35587 23.8816 9.08078 23.5796 9.61525 23.0421C10.1497 22.5046 10.45 21.7755 10.45 21.0154V19.1045C10.45 18.3443 10.1497 17.6153 9.61525 17.0778C9.08078 16.5403 8.35587 16.2383 7.6 16.2383ZM8.55 21.0154C8.55 21.2687 8.44991 21.5118 8.27175 21.6909C8.09359 21.8701 7.85196 21.9708 7.6 21.9708C7.34804 21.9708 7.10641 21.8701 6.92825 21.6909C6.75009 21.5118 6.65 21.2687 6.65 21.0154V19.1045C6.65 18.8511 6.75009 18.6081 6.92825 18.4289C7.10641 18.2498 7.34804 18.1491 7.6 18.1491C7.85196 18.1491 8.09359 18.2498 8.27175 18.4289C8.44991 18.6081 8.55 18.8511 8.55 19.1045V21.0154Z" fill="#0875FF"/>
<path d="M15.2001 14.3281C14.4442 14.3281 13.7193 14.6301 13.1848 15.1676C12.6504 15.7052 12.3501 16.4342 12.3501 17.1944V21.016C12.3501 21.7762 12.6504 22.5052 13.1848 23.0428C13.7193 23.5803 14.4442 23.8823 15.2001 23.8823C15.956 23.8823 16.6809 23.5803 17.2154 23.0428C17.7498 22.5052 18.0501 21.7762 18.0501 21.016V17.1944C18.0501 16.4342 17.7498 15.7052 17.2154 15.1676C16.6809 14.6301 15.956 14.3281 15.2001 14.3281ZM16.1501 21.016C16.1501 21.2694 16.05 21.5124 15.8718 21.6916C15.6937 21.8708 15.4521 21.9714 15.2001 21.9714C14.9481 21.9714 14.7065 21.8708 14.5283 21.6916C14.3502 21.5124 14.2501 21.2694 14.2501 21.016V17.1944C14.2501 16.941 14.3502 16.698 14.5283 16.5188C14.7065 16.3396 14.9481 16.239 15.2001 16.239C15.4521 16.239 15.6937 16.3396 15.8718 16.5188C16.05 16.698 16.1501 16.941 16.1501 17.1944V21.016Z" fill="#0875FF"/>
<path d="M22.8002 10.5039C22.0443 10.5039 21.3194 10.8059 20.7849 11.3434C20.2505 11.8809 19.9502 12.61 19.9502 13.3701V21.0135C19.9502 21.7736 20.2505 22.5027 20.7849 23.0402C21.3194 23.5777 22.0443 23.8797 22.8002 23.8797C23.5561 23.8797 24.281 23.5777 24.8154 23.0402C25.3499 22.5027 25.6502 21.7736 25.6502 21.0135V13.3701C25.6502 12.61 25.3499 11.8809 24.8154 11.3434C24.281 10.8059 23.5561 10.5039 22.8002 10.5039ZM23.7502 21.0135C23.7502 21.2669 23.6501 21.5099 23.4719 21.689C23.2938 21.8682 23.0522 21.9689 22.8002 21.9689C22.5482 21.9689 22.3066 21.8682 22.1284 21.689C21.9503 21.5099 21.8502 21.2669 21.8502 21.0135V13.3701C21.8502 13.1168 21.9503 12.8737 22.1284 12.6946C22.3066 12.5154 22.5482 12.4147 22.8002 12.4147C23.0522 12.4147 23.2938 12.5154 23.4719 12.6946C23.6501 12.8737 23.7502 13.1168 23.7502 13.3701V21.0135Z" fill="#0875FF"/>
<path d="M30.5092 8.59375C30.1349 8.59375 29.7643 8.66789 29.4185 8.81193C29.0728 8.95597 28.7586 9.1671 28.4939 9.43325C28.2293 9.69941 28.0193 10.0154 27.8761 10.3631C27.7329 10.7109 27.6592 11.0836 27.6592 11.46V21.0141C27.6592 21.7743 27.9594 22.5033 28.4939 23.0409C29.0284 23.5784 29.7533 23.8804 30.5092 23.8804C31.265 23.8804 31.99 23.5784 32.5244 23.0409C33.0589 22.5033 33.3592 21.7743 33.3592 21.0141V11.46C33.3592 11.0836 33.2855 10.7109 33.1422 10.3631C32.999 10.0154 32.7891 9.69941 32.5244 9.43325C32.2598 9.1671 31.9456 8.95597 31.5998 8.81193C31.254 8.66789 30.8834 8.59375 30.5092 8.59375ZM31.4592 21.0141C31.4592 21.2675 31.3591 21.5105 31.1809 21.6897C31.0028 21.8689 30.7611 21.9695 30.5092 21.9695C30.2572 21.9695 30.0156 21.8689 29.8374 21.6897C29.6593 21.5105 29.5592 21.2675 29.5592 21.0141V11.46C29.5592 11.2066 29.6593 10.9636 29.8374 10.7844C30.0156 10.6052 30.2572 10.5046 30.5092 10.5046C30.7611 10.5046 31.0028 10.6052 31.1809 10.7844C31.3591 10.9636 31.4592 11.2066 31.4592 11.46V21.0141Z" fill="#0875FF"/>
<path d="M12.7298 9.07606V8.59835C12.7285 7.48382 12.2877 6.41529 11.5041 5.6272C10.7205 4.8391 9.65798 4.3958 8.54977 4.39453H8.07477V5.29262C7.4635 5.38048 6.88865 5.63779 6.4146 6.03572C5.94055 6.43364 5.58605 6.95646 5.39081 7.54559C5.19556 8.13472 5.1673 8.76689 5.30918 9.37127C5.45105 9.97564 5.75747 10.5284 6.19409 10.9675C6.6307 11.4066 7.18028 11.7147 7.78123 11.8574C8.38218 12.0001 9.01077 11.9717 9.59656 11.7753C10.1824 11.579 10.7022 11.2224 11.0979 10.7457C11.4935 10.2689 11.7494 9.6908 11.8368 9.07606H12.7298ZM9.02477 5.38338C9.70954 5.48771 10.3432 5.80969 10.8329 6.30222C11.3226 6.79474 11.6428 7.43196 11.7465 8.12065H9.02477V5.38338ZM8.54977 10.9869C7.96079 10.9875 7.3926 10.768 6.95551 10.3709C6.51841 9.97393 6.24359 9.42773 6.1844 8.8384C6.12521 8.24906 6.28587 7.65863 6.63519 7.18173C6.98451 6.70482 7.49757 6.37546 8.07477 6.25759V9.07606H10.8773C10.7678 9.61557 10.4763 10.1005 10.0521 10.4487C9.62801 10.7969 9.09728 10.987 8.54977 10.9869Z" fill="#0875FF"/>
</g>
<defs>
<clipPath id="clip0_646_2719">
<rect width="38" height="36" fill="white"/>
</clipPath>
</defs>
</svg>
