<?xml version="1.0" encoding="utf-8"?>
<!-- Generator: Adobe Illustrator 27.6.1, SVG Export Plug-In . SVG Version: 6.00 Build 0)  -->
<svg version="1.1" id="Layer_1" xmlns="http://www.w3.org/2000/svg" xmlns:xlink="http://www.w3.org/1999/xlink" x="0px" y="0px"
	 viewBox="0 0 400 170" style="enable-background:new 0 0 400 170;" xml:space="preserve">
<style type="text/css">
	.st0{fill:#D9E0FF;}
	.st1{fill:#6878FF;}
	.st2{opacity:0.2;fill:#6878FF;}
	.st3{fill:#FFFFFF;}
	.st4{opacity:0.2;fill:none;stroke:#6878FF;stroke-miterlimit:10;}
	.st5{fill:#FF597C;}
	.st6{opacity:0.2;fill:#FF597C;}
	.st7{opacity:0.2;fill:none;stroke:#FF597C;stroke-miterlimit:10;}
	.st8{fill:#00CDC2;}
	.st9{opacity:0.2;fill:#00CDC2;}
	.st10{opacity:0.2;fill:none;stroke:#00CDC2;stroke-miterlimit:10;}
	.st11{fill:#6C8BAD;}
	.st12{opacity:0.2;fill:#5475A1;}
	.st13{opacity:0.2;fill:#6C8BAD;}
	.st14{opacity:0.2;fill:none;stroke:#6C8BAD;stroke-miterlimit:10;}
	.st15{fill:#FFB53A;}
	.st16{opacity:0.2;fill:#FFB53A;}
	.st17{opacity:0.2;fill:none;stroke:#FFB53A;stroke-miterlimit:10;}
	.st18{fill:#FFFFFF;stroke:#C0CFFF;stroke-miterlimit:10;}
	.st19{fill:none;stroke:#CDDBFA;stroke-linecap:round;stroke-miterlimit:10;}
	.st20{fill:#C0CFFF;}
	.st21{fill:none;stroke:#FFFFFF;stroke-linecap:round;stroke-miterlimit:10;}
</style>
<g>
	<rect x="1306.47" y="185.75" class="st0" width="400" height="170"/>
	<g>
		<path class="st1" d="M1377.62,261.72h-43.96c-1.35,0-2.44-1.09-2.44-2.44v0c0-1.35,1.09-2.44,2.44-2.44h43.96
			c1.35,0,2.44,1.09,2.44,2.44v0C1380.06,260.63,1378.97,261.72,1377.62,261.72z"/>
		<path class="st2" d="M1366.8,270.68h-33.14c-1.35,0-2.44-1.09-2.44-2.44v0c0-1.35,1.09-2.44,2.44-2.44h33.14
			c1.35,0,2.44,1.09,2.44,2.44v0C1369.24,269.58,1368.15,270.68,1366.8,270.68z"/>
		<path class="st2" d="M1385.2,251.14h-50.98c-1.66,0-3-1.34-3-3v-34.7c0-1.66,1.34-3,3-3h50.98c1.66,0,3,1.34,3,3v34.7
			C1388.2,249.8,1386.86,251.14,1385.2,251.14z"/>
		<path class="st1" d="M1332.06,240.73l10.72-10.72c1.11-1.11,2.92-1.11,4.03,0l4.29,4.29c1.11,1.11,2.92,1.11,4.03,0l11.42-11.42
			c1.11-1.11,2.92-1.11,4.03,0l16.83,16.83c0.53,0.53,0.84,1.26,0.84,2.02v6.56c0,1.57-1.28,2.85-2.85,2.85h-51.32
			c-1.57,0-2.85-1.28-2.85-2.85v-5.54C1331.22,241.99,1331.52,241.26,1332.06,240.73z"/>
		<circle class="st1" cx="1353.11" cy="221.56" r="4.42"/>
		<path class="st1" d="M1355.13,291.23h-18.21c-3.13,0-5.69-2.56-5.69-5.69v-0.01c0-3.13,2.56-5.69,5.69-5.69h18.21
			c3.13,0,5.69,2.56,5.69,5.69v0.01C1360.82,288.66,1358.26,291.23,1355.13,291.23z"/>
		<path class="st3" d="M1350.39,287.16h-8.74c-0.9,0-1.63-0.73-1.63-1.63v0c0-0.9,0.73-1.63,1.63-1.63h8.74
			c0.9,0,1.63,0.73,1.63,1.63v0C1352.02,286.43,1351.29,287.16,1350.39,287.16z"/>
		<path class="st4" d="M1388,295.98h-56.53c-2.76,0-5-2.24-5-5v-80.29c0-2.76,2.24-5,5-5H1388c2.76,0,5,2.24,5,5v80.29
			C1393,293.74,1390.76,295.98,1388,295.98z"/>
	</g>
	<g>
		<path class="st5" d="M1450.99,261.72h-43.96c-1.35,0-2.44-1.09-2.44-2.44v0c0-1.35,1.09-2.44,2.44-2.44h43.96
			c1.35,0,2.44,1.09,2.44,2.44v0C1453.43,260.63,1452.34,261.72,1450.99,261.72z"/>
		<path class="st6" d="M1440.17,270.68h-33.14c-1.35,0-2.44-1.09-2.44-2.44v0c0-1.35,1.09-2.44,2.44-2.44h33.14
			c1.35,0,2.44,1.09,2.44,2.44v0C1442.61,269.58,1441.52,270.68,1440.17,270.68z"/>
		<path class="st6" d="M1458.57,251.14h-50.98c-1.66,0-3-1.34-3-3v-34.7c0-1.66,1.34-3,3-3h50.98c1.66,0,3,1.34,3,3v34.7
			C1461.57,249.8,1460.23,251.14,1458.57,251.14z"/>
		<path class="st5" d="M1405.43,240.73l10.72-10.72c1.11-1.11,2.92-1.11,4.03,0l4.29,4.29c1.11,1.11,2.92,1.11,4.03,0l11.42-11.42
			c1.11-1.11,2.92-1.11,4.03,0l16.83,16.83c0.53,0.53,0.84,1.26,0.84,2.02v6.56c0,1.57-1.28,2.85-2.85,2.85h-51.32
			c-1.57,0-2.85-1.28-2.85-2.85v-5.54C1404.59,241.99,1404.89,241.26,1405.43,240.73z"/>
		<circle class="st5" cx="1426.48" cy="221.56" r="4.42"/>
		<path class="st5" d="M1428.5,291.23h-18.21c-3.13,0-5.69-2.56-5.69-5.69v-0.01c0-3.13,2.56-5.69,5.69-5.69h18.21
			c3.13,0,5.69,2.56,5.69,5.69v0.01C1434.19,288.66,1431.63,291.23,1428.5,291.23z"/>
		<path class="st3" d="M1423.76,287.16h-8.74c-0.9,0-1.63-0.73-1.63-1.63v0c0-0.9,0.73-1.63,1.63-1.63h8.74
			c0.9,0,1.63,0.73,1.63,1.63v0C1425.39,286.43,1424.66,287.16,1423.76,287.16z"/>
		<path class="st7" d="M1461.37,295.98h-56.53c-2.76,0-5-2.24-5-5v-80.29c0-2.76,2.24-5,5-5h56.53c2.76,0,5,2.24,5,5v80.29
			C1466.37,293.74,1464.13,295.98,1461.37,295.98z"/>
	</g>
	<g>
		<path class="st8" d="M1597.73,261.72h-43.96c-1.35,0-2.44-1.09-2.44-2.44v0c0-1.35,1.09-2.44,2.44-2.44h43.96
			c1.35,0,2.44,1.09,2.44,2.44v0C1600.17,260.63,1599.07,261.72,1597.73,261.72z"/>
		<path class="st9" d="M1581.45,270.68h-27.68c-1.35,0-2.44-1.09-2.44-2.44v0c0-1.35,1.09-2.44,2.44-2.44h27.68
			c1.35,0,2.44,1.09,2.44,2.44v0C1583.89,269.58,1582.79,270.68,1581.45,270.68z"/>
		<path class="st9" d="M1605.31,251.14h-50.98c-1.66,0-3-1.34-3-3v-34.7c0-1.66,1.34-3,3-3h50.98c1.66,0,3,1.34,3,3v34.7
			C1608.31,249.8,1606.96,251.14,1605.31,251.14z"/>
		<path class="st8" d="M1552.16,240.73l10.72-10.72c1.11-1.11,2.92-1.11,4.03,0l4.29,4.29c1.11,1.11,2.92,1.11,4.03,0l11.42-11.42
			c1.11-1.11,2.92-1.11,4.03,0l16.83,16.83c0.53,0.53,0.84,1.26,0.84,2.02v6.56c0,1.57-1.28,2.85-2.85,2.85h-51.32
			c-1.57,0-2.85-1.28-2.85-2.85v-5.54C1551.33,241.99,1551.63,241.26,1552.16,240.73z"/>
		<circle class="st8" cx="1573.21" cy="221.56" r="4.42"/>
		<path class="st8" d="M1575.23,291.23h-18.21c-3.13,0-5.69-2.56-5.69-5.69v-0.01c0-3.13,2.56-5.69,5.69-5.69h18.21
			c3.13,0,5.69,2.56,5.69,5.69v0.01C1580.93,288.66,1578.36,291.23,1575.23,291.23z"/>
		<path class="st10" d="M1608.1,295.98h-56.53c-2.76,0-5-2.24-5-5v-80.29c0-2.76,2.24-5,5-5h56.53c2.76,0,5,2.24,5,5v80.29
			C1613.1,293.74,1610.87,295.98,1608.1,295.98z"/>
		<path class="st3" d="M1570.5,287.16h-8.74c-0.9,0-1.63-0.73-1.63-1.63v0c0-0.9,0.73-1.63,1.63-1.63h8.74
			c0.9,0,1.63,0.73,1.63,1.63v0C1572.12,286.43,1571.4,287.16,1570.5,287.16z"/>
	</g>
	<g>
		<path class="st11" d="M1671.09,261.72h-43.96c-1.35,0-2.44-1.09-2.44-2.44v0c0-1.35,1.09-2.44,2.44-2.44h43.96
			c1.35,0,2.44,1.09,2.44,2.44v0C1673.53,260.63,1672.44,261.72,1671.09,261.72z"/>
		<path class="st12" d="M1654.81,270.68h-27.68c-1.35,0-2.44-1.09-2.44-2.44v0c0-1.35,1.09-2.44,2.44-2.44h27.68
			c1.35,0,2.44,1.09,2.44,2.44v0C1657.25,269.58,1656.16,270.68,1654.81,270.68z"/>
		<path class="st13" d="M1678.67,251.14h-50.98c-1.66,0-3-1.34-3-3v-34.7c0-1.66,1.34-3,3-3h50.98c1.66,0,3,1.34,3,3v34.7
			C1681.67,249.8,1680.33,251.14,1678.67,251.14z"/>
		<path class="st11" d="M1625.53,240.73l10.72-10.72c1.11-1.11,2.92-1.11,4.03,0l4.29,4.29c1.11,1.11,2.92,1.11,4.03,0l11.42-11.42
			c1.11-1.11,2.92-1.11,4.03,0l16.83,16.83c0.53,0.53,0.84,1.26,0.84,2.02v6.56c0,1.57-1.28,2.85-2.85,2.85h-51.32
			c-1.57,0-2.85-1.28-2.85-2.85v-5.54C1624.69,241.99,1624.99,241.26,1625.53,240.73z"/>
		<circle class="st11" cx="1646.58" cy="221.56" r="4.42"/>
		<path class="st11" d="M1648.6,291.23h-18.21c-3.13,0-5.69-2.56-5.69-5.69v-0.01c0-3.13,2.56-5.69,5.69-5.69h18.21
			c3.13,0,5.69,2.56,5.69,5.69v0.01C1654.29,288.66,1651.73,291.23,1648.6,291.23z"/>
		<path class="st14" d="M1681.47,295.98h-56.53c-2.76,0-5-2.24-5-5v-80.29c0-2.76,2.24-5,5-5h56.53c2.76,0,5,2.24,5,5v80.29
			C1686.47,293.74,1684.23,295.98,1681.47,295.98z"/>
		<path class="st3" d="M1643.86,287.16h-8.74c-0.9,0-1.63-0.73-1.63-1.63v0c0-0.9,0.73-1.63,1.63-1.63h8.74
			c0.9,0,1.63,0.73,1.63,1.63v0C1645.49,286.43,1644.76,287.16,1643.86,287.16z"/>
	</g>
	<g>
		<path class="st15" d="M1524.36,261.72h-43.96c-1.35,0-2.44-1.09-2.44-2.44v0c0-1.35,1.09-2.44,2.44-2.44h43.96
			c1.35,0,2.44,1.09,2.44,2.44v0C1526.8,260.63,1525.71,261.72,1524.36,261.72z"/>
		<path class="st16" d="M1513.54,270.68h-33.14c-1.35,0-2.44-1.09-2.44-2.44v0c0-1.35,1.09-2.44,2.44-2.44h33.14
			c1.35,0,2.44,1.09,2.44,2.44v0C1515.98,269.58,1514.88,270.68,1513.54,270.68z"/>
		<path class="st16" d="M1531.94,251.14h-50.98c-1.66,0-3-1.34-3-3v-34.7c0-1.66,1.34-3,3-3h50.98c1.66,0,3,1.34,3,3v34.7
			C1534.94,249.8,1533.59,251.14,1531.94,251.14z"/>
		<path class="st15" d="M1478.79,240.73l10.72-10.72c1.11-1.11,2.92-1.11,4.03,0l4.29,4.29c1.11,1.11,2.92,1.11,4.03,0l11.42-11.42
			c1.11-1.11,2.92-1.11,4.03,0l16.83,16.83c0.53,0.53,0.84,1.26,0.84,2.02v6.56c0,1.57-1.28,2.85-2.85,2.85h-51.32
			c-1.57,0-2.85-1.28-2.85-2.85v-5.54C1477.96,241.99,1478.26,241.26,1478.79,240.73z"/>
		<circle class="st15" cx="1499.85" cy="221.56" r="4.42"/>
		<path class="st15" d="M1501.87,291.23h-18.21c-3.13,0-5.69-2.56-5.69-5.69v-0.01c0-3.13,2.56-5.69,5.69-5.69h18.21
			c3.13,0,5.69,2.56,5.69,5.69v0.01C1507.56,288.66,1505,291.23,1501.87,291.23z"/>
		<path class="st3" d="M1497.13,287.16h-8.74c-0.9,0-1.63-0.73-1.63-1.63v0c0-0.9,0.73-1.63,1.63-1.63h8.74
			c0.9,0,1.63,0.73,1.63,1.63v0C1498.76,286.43,1498.03,287.16,1497.13,287.16z"/>
		<path class="st17" d="M1534.74,295.98h-56.53c-2.76,0-5-2.24-5-5v-80.29c0-2.76,2.24-5,5-5h56.53c2.76,0,5,2.24,5,5v80.29
			C1539.74,293.74,1537.5,295.98,1534.74,295.98z"/>
	</g>
	<path class="st18" d="M1426.47,335.71h-95c-2.76,0-5-2.24-5-5v-17.13c0-2.76,2.24-5,5-5h95c2.76,0,5,2.24,5,5v17.13
		C1431.47,333.47,1429.23,335.71,1426.47,335.71z"/>
	<g>
		<g>
			<path class="st5" d="M1390.98,320.14h-28.39c-0.83,0-1.5-0.67-1.5-1.5l0,0c0-0.83,0.67-1.5,1.5-1.5h28.39
				c0.83,0,1.5,0.67,1.5,1.5l0,0C1392.48,319.47,1391.81,320.14,1390.98,320.14z"/>
			<path class="st6" d="M1380.52,327.14h-17.92c-0.83,0-1.5-0.67-1.5-1.5l0,0c0-0.83,0.67-1.5,1.5-1.5h17.92
				c0.83,0,1.5,0.67,1.5,1.5l0,0C1382.02,326.47,1381.35,327.14,1380.52,327.14z"/>
		</g>
		<g>
			<line class="st19" x1="1421.13" y1="320.22" x2="1425.13" y2="324.22"/>
			<line class="st19" x1="1425.13" y1="320.22" x2="1421.13" y2="324.22"/>
		</g>
		<g>
			<path class="st6" d="M1355.08,331.52h-22.26c-1.1,0-2-0.9-2-2v-14.76c0-1.1,0.9-2,2-2h22.26c1.1,0,2,0.9,2,2v14.76
				C1357.08,330.63,1356.19,331.52,1355.08,331.52z"/>
			<path class="st5" d="M1331.31,326.6l4.53-4.53c0.67-0.67,1.76-0.67,2.43,0l1.4,1.4c0.67,0.67,1.76,0.67,2.43,0l4.69-4.69
				c0.67-0.67,1.76-0.67,2.43,0l7.35,7.35c0.32,0.32,0.5,0.76,0.5,1.22v2.45c0,0.95-0.77,1.72-1.72,1.72h-22.85
				c-0.95,0-1.72-0.77-1.72-1.72v-1.98C1330.81,327.36,1330.99,326.93,1331.31,326.6z"/>
			<circle class="st5" cx="1340.9" cy="317.89" r="2.04"/>
		</g>
	</g>
</g>
<g>
	<rect class="st0" width="400" height="170"/>
	<g>
		<g>
			<path class="st1" d="M71.15,115.68H27.19c-1.35,0-2.44-1.09-2.44-2.44v0c0-1.35,1.09-2.44,2.44-2.44h43.96
				c1.35,0,2.44,1.09,2.44,2.44v0C73.59,114.59,72.5,115.68,71.15,115.68z"/>
			<path class="st2" d="M60.33,124.64H27.19c-1.35,0-2.44-1.09-2.44-2.44v0c0-1.35,1.09-2.44,2.44-2.44h33.14
				c1.35,0,2.44,1.09,2.44,2.44v0C62.77,123.54,61.68,124.64,60.33,124.64z"/>
			<path class="st2" d="M78.73,105.1H27.75c-1.66,0-3-1.34-3-3V67.4c0-1.66,1.34-3,3-3h50.98c1.66,0,3,1.34,3,3v34.7
				C81.73,103.76,80.39,105.1,78.73,105.1z"/>
			<path class="st1" d="M25.59,94.69L36.3,83.97c1.11-1.11,2.92-1.11,4.03,0l4.29,4.29c1.11,1.11,2.92,1.11,4.03,0l11.42-11.42
				c1.11-1.11,2.92-1.11,4.03,0l16.83,16.83c0.53,0.53,0.84,1.26,0.84,2.02v6.56c0,1.57-1.28,2.85-2.85,2.85H27.6
				c-1.57,0-2.85-1.28-2.85-2.85v-5.54C24.75,95.95,25.05,95.22,25.59,94.69z"/>
			<circle class="st1" cx="46.64" cy="75.52" r="4.42"/>
			<path class="st1" d="M48.66,145.19H30.45c-3.13,0-5.69-2.56-5.69-5.69v-0.01c0-3.13,2.56-5.69,5.69-5.69h18.21
				c3.13,0,5.69,2.56,5.69,5.69v0.01C54.35,142.62,51.79,145.19,48.66,145.19z"/>
			<path class="st3" d="M43.92,141.12h-8.74c-0.9,0-1.63-0.73-1.63-1.63v0c0-0.9,0.73-1.63,1.63-1.63h8.74
				c0.9,0,1.63,0.73,1.63,1.63v0C45.55,140.39,44.82,141.12,43.92,141.12z"/>
			<path class="st4" d="M81.53,149.94H25c-2.76,0-5-2.24-5-5V64.65c0-2.76,2.24-5,5-5h56.53c2.76,0,5,2.24,5,5v80.29
				C86.53,147.7,84.29,149.94,81.53,149.94z"/>
		</g>
		<g>
			<path class="st5" d="M144.52,115.68h-43.96c-1.35,0-2.44-1.09-2.44-2.44v0c0-1.35,1.09-2.44,2.44-2.44h43.96
				c1.35,0,2.44,1.09,2.44,2.44v0C146.96,114.59,145.87,115.68,144.52,115.68z"/>
			<path class="st6" d="M133.7,124.64h-33.14c-1.35,0-2.44-1.09-2.44-2.44v0c0-1.35,1.09-2.44,2.44-2.44h33.14
				c1.35,0,2.44,1.09,2.44,2.44v0C136.14,123.54,135.04,124.64,133.7,124.64z"/>
			<path class="st6" d="M152.1,105.1h-50.98c-1.66,0-3-1.34-3-3V67.4c0-1.66,1.34-3,3-3h50.98c1.66,0,3,1.34,3,3v34.7
				C155.1,103.76,153.76,105.1,152.1,105.1z"/>
			<path class="st5" d="M98.95,94.69l10.72-10.72c1.11-1.11,2.92-1.11,4.03,0l4.29,4.29c1.11,1.11,2.92,1.11,4.03,0l11.42-11.42
				c1.11-1.11,2.92-1.11,4.03,0l16.83,16.83c0.53,0.53,0.84,1.26,0.84,2.02v6.56c0,1.57-1.28,2.85-2.85,2.85h-51.32
				c-1.57,0-2.85-1.28-2.85-2.85v-5.54C98.12,95.95,98.42,95.22,98.95,94.69z"/>
			<circle class="st5" cx="120.01" cy="75.52" r="4.42"/>
			<path class="st5" d="M122.03,145.19h-18.21c-3.13,0-5.69-2.56-5.69-5.69v-0.01c0-3.13,2.56-5.69,5.69-5.69h18.21
				c3.13,0,5.69,2.56,5.69,5.69v0.01C127.72,142.62,125.16,145.19,122.03,145.19z"/>
			<path class="st3" d="M117.29,141.12h-8.74c-0.9,0-1.63-0.73-1.63-1.63v0c0-0.9,0.73-1.63,1.63-1.63h8.74
				c0.9,0,1.63,0.73,1.63,1.63v0C118.92,140.39,118.19,141.12,117.29,141.12z"/>
			<path class="st7" d="M154.9,149.94H98.37c-2.76,0-5-2.24-5-5V64.65c0-2.76,2.24-5,5-5h56.53c2.76,0,5,2.24,5,5v80.29
				C159.9,147.7,157.66,149.94,154.9,149.94z"/>
		</g>
		<g>
			<path class="st8" d="M291.25,115.68H247.3c-1.35,0-2.44-1.09-2.44-2.44v0c0-1.35,1.09-2.44,2.44-2.44h43.96
				c1.35,0,2.44,1.09,2.44,2.44v0C293.69,114.59,292.6,115.68,291.25,115.68z"/>
			<path class="st9" d="M274.97,124.64H247.3c-1.35,0-2.44-1.09-2.44-2.44v0c0-1.35,1.09-2.44,2.44-2.44h27.68
				c1.35,0,2.44,1.09,2.44,2.44v0C277.41,123.54,276.32,124.64,274.97,124.64z"/>
			<path class="st9" d="M298.83,105.1h-50.98c-1.66,0-3-1.34-3-3V67.4c0-1.66,1.34-3,3-3h50.98c1.66,0,3,1.34,3,3v34.7
				C301.83,103.76,300.49,105.1,298.83,105.1z"/>
			<path class="st8" d="M245.69,94.69l10.72-10.72c1.11-1.11,2.92-1.11,4.03,0l4.29,4.29c1.11,1.11,2.92,1.11,4.03,0l11.42-11.42
				c1.11-1.11,2.92-1.11,4.03,0l16.83,16.83c0.53,0.53,0.84,1.26,0.84,2.02v6.56c0,1.57-1.28,2.85-2.85,2.85h-51.32
				c-1.57,0-2.85-1.28-2.85-2.85v-5.54C244.86,95.95,245.16,95.22,245.69,94.69z"/>
			<circle class="st8" cx="266.74" cy="75.52" r="4.42"/>
			<path class="st8" d="M268.76,145.19h-18.21c-3.13,0-5.69-2.56-5.69-5.69v-0.01c0-3.13,2.56-5.69,5.69-5.69h18.21
				c3.13,0,5.69,2.56,5.69,5.69v0.01C274.46,142.62,271.89,145.19,268.76,145.19z"/>
			<path class="st10" d="M301.63,149.94H245.1c-2.76,0-5-2.24-5-5V64.65c0-2.76,2.24-5,5-5h56.53c2.76,0,5,2.24,5,5v80.29
				C306.63,147.7,304.39,149.94,301.63,149.94z"/>
			<path class="st3" d="M264.03,141.12h-8.74c-0.9,0-1.63-0.73-1.63-1.63v0c0-0.9,0.73-1.63,1.63-1.63h8.74
				c0.9,0,1.63,0.73,1.63,1.63v0C265.65,140.39,264.92,141.12,264.03,141.12z"/>
		</g>
		<g>
			<path class="st11" d="M364.62,115.68h-43.96c-1.35,0-2.44-1.09-2.44-2.44v0c0-1.35,1.09-2.44,2.44-2.44h43.96
				c1.35,0,2.44,1.09,2.44,2.44v0C367.06,114.59,365.97,115.68,364.62,115.68z"/>
			<path class="st12" d="M348.34,124.64h-27.68c-1.35,0-2.44-1.09-2.44-2.44v0c0-1.35,1.09-2.44,2.44-2.44h27.68
				c1.35,0,2.44,1.09,2.44,2.44v0C350.78,123.54,349.69,124.64,348.34,124.64z"/>
			<path class="st13" d="M372.2,105.1h-50.98c-1.66,0-3-1.34-3-3V67.4c0-1.66,1.34-3,3-3h50.98c1.66,0,3,1.34,3,3v34.7
				C375.2,103.76,373.86,105.1,372.2,105.1z"/>
			<path class="st11" d="M319.06,94.69l10.72-10.72c1.11-1.11,2.92-1.11,4.03,0l4.29,4.29c1.11,1.11,2.92,1.11,4.03,0l11.42-11.42
				c1.11-1.11,2.92-1.11,4.03,0l16.83,16.83c0.53,0.53,0.84,1.26,0.84,2.02v6.56c0,1.57-1.28,2.85-2.85,2.85h-51.32
				c-1.57,0-2.85-1.28-2.85-2.85v-5.54C318.22,95.95,318.52,95.22,319.06,94.69z"/>
			<circle class="st11" cx="340.11" cy="75.52" r="4.42"/>
			<path class="st11" d="M342.13,145.19h-18.21c-3.13,0-5.69-2.56-5.69-5.69v-0.01c0-3.13,2.56-5.69,5.69-5.69h18.21
				c3.13,0,5.69,2.56,5.69,5.69v0.01C347.82,142.62,345.26,145.19,342.13,145.19z"/>
			<path class="st14" d="M375,149.94h-56.53c-2.76,0-5-2.24-5-5V64.65c0-2.76,2.24-5,5-5H375c2.76,0,5,2.24,5,5v80.29
				C380,147.7,377.76,149.94,375,149.94z"/>
			<path class="st3" d="M337.39,141.12h-8.74c-0.9,0-1.63-0.73-1.63-1.63v0c0-0.9,0.73-1.63,1.63-1.63h8.74
				c0.9,0,1.63,0.73,1.63,1.63v0C339.02,140.39,338.29,141.12,337.39,141.12z"/>
		</g>
		<g>
			<path class="st15" d="M217.89,115.68h-43.96c-1.35,0-2.44-1.09-2.44-2.44v0c0-1.35,1.09-2.44,2.44-2.44h43.96
				c1.35,0,2.44,1.09,2.44,2.44v0C220.33,114.59,219.23,115.68,217.89,115.68z"/>
			<path class="st16" d="M207.06,124.64h-33.14c-1.35,0-2.44-1.09-2.44-2.44v0c0-1.35,1.09-2.44,2.44-2.44h33.14
				c1.35,0,2.44,1.09,2.44,2.44v0C209.5,123.54,208.41,124.64,207.06,124.64z"/>
			<path class="st16" d="M225.47,105.1h-50.98c-1.66,0-3-1.34-3-3V67.4c0-1.66,1.34-3,3-3h50.98c1.66,0,3,1.34,3,3v34.7
				C228.47,103.76,227.12,105.1,225.47,105.1z"/>
			<path class="st15" d="M172.32,94.69l10.72-10.72c1.11-1.11,2.92-1.11,4.03,0l4.29,4.29c1.11,1.11,2.92,1.11,4.03,0l11.42-11.42
				c1.11-1.11,2.92-1.11,4.03,0l16.83,16.83c0.53,0.53,0.84,1.26,0.84,2.02v6.56c0,1.57-1.28,2.85-2.85,2.85h-51.32
				c-1.57,0-2.85-1.28-2.85-2.85v-5.54C171.49,95.95,171.79,95.22,172.32,94.69z"/>
			<circle class="st15" cx="193.38" cy="75.52" r="4.42"/>
			<path class="st15" d="M195.39,145.19h-18.21c-3.13,0-5.69-2.56-5.69-5.69v-0.01c0-3.13,2.56-5.69,5.69-5.69h18.21
				c3.13,0,5.69,2.56,5.69,5.69v0.01C201.09,142.62,198.53,145.19,195.39,145.19z"/>
			<path class="st3" d="M190.66,141.12h-8.74c-0.9,0-1.63-0.73-1.63-1.63v0c0-0.9,0.73-1.63,1.63-1.63h8.74
				c0.9,0,1.63,0.73,1.63,1.63v0C192.28,140.39,191.56,141.12,190.66,141.12z"/>
			<path class="st17" d="M228.26,149.94h-56.53c-2.76,0-5-2.24-5-5V64.65c0-2.76,2.24-5,5-5h56.53c2.76,0,5,2.24,5,5v80.29
				C233.26,147.7,231.03,149.94,228.26,149.94z"/>
		</g>
	</g>
	<path class="st18" d="M267.28,47.23H132.72c-2.76,0-5-2.24-5-5V25.11c0-2.76,2.24-5,5-5h134.56c2.76,0,5,2.24,5,5v17.13
		C272.28,45,270.04,47.23,267.28,47.23z"/>
	<g>
		<path class="st18" d="M171,40.67h-8c-1.66,0-3-1.34-3-3v-8c0-1.66,1.34-3,3-3h8c1.66,0,3,1.34,3,3v8
			C174,39.33,172.66,40.67,171,40.67z"/>
		<path class="st20" d="M169,34.67h-4c-0.55,0-1-0.45-1-1l0,0c0-0.55,0.45-1,1-1h4c0.55,0,1,0.45,1,1l0,0
			C170,34.22,169.55,34.67,169,34.67z"/>
		<g>
			<path class="st18" d="M193,40.67h-8c-1.66,0-3-1.34-3-3v-8c0-1.66,1.34-3,3-3h8c1.66,0,3,1.34,3,3v8
				C196,39.33,194.66,40.67,193,40.67z"/>
			<path class="st20" d="M191,34.67h-4c-0.55,0-1-0.45-1-1l0,0c0-0.55,0.45-1,1-1h4c0.55,0,1,0.45,1,1l0,0
				C192,34.22,191.55,34.67,191,34.67z"/>
		</g>
		<g>
			<path class="st18" d="M215,40.67h-8c-1.66,0-3-1.34-3-3v-8c0-1.66,1.34-3,3-3h8c1.66,0,3,1.34,3,3v8
				C218,39.33,216.66,40.67,215,40.67z"/>
			<path class="st20" d="M213,34.67h-4c-0.55,0-1-0.45-1-1l0,0c0-0.55,0.45-1,1-1h4c0.55,0,1,0.45,1,1l0,0
				C214,34.22,213.55,34.67,213,34.67z"/>
		</g>
		<g>
			<path class="st18" d="M237,40.67h-8c-1.66,0-3-1.34-3-3v-8c0-1.66,1.34-3,3-3h8c1.66,0,3,1.34,3,3v8
				C240,39.33,238.66,40.67,237,40.67z"/>
			<path class="st20" d="M235,34.67h-4c-0.55,0-1-0.45-1-1l0,0c0-0.55,0.45-1,1-1h4c0.55,0,1,0.45,1,1l0,0
				C236,34.22,235.55,34.67,235,34.67z"/>
		</g>
		<g>
			<circle class="st20" cx="178" cy="31.67" r="1"/>
			<circle class="st20" cx="178" cy="35.67" r="1"/>
		</g>
		<g>
			<circle class="st20" cx="200" cy="31.67" r="1"/>
			<circle class="st20" cx="200" cy="35.67" r="1"/>
		</g>
		<g>
			<circle class="st20" cx="222" cy="31.67" r="1"/>
			<circle class="st20" cx="222" cy="35.67" r="1"/>
		</g>
	</g>
	<path class="st21" d="M123.38,32.67c-4.94-6.89-21.28-12.72-25.26,1c-3.62,14.4,18.12,12.17,8.8,1c-1.12-1.34-5.78-5.11-11.17-6.82
		C84.82,24.4,69.79,24.83,67.54,39c-1.07,6.74,1.44,13.38,1.44,13.38"/>
	<path class="st21" d="M63.22,51.05c0,0,3.54-0.22,5.84,1.89c0.1,0.1,0.27,0.05,0.29-0.09c0.18-1.09,0.95-4.57,3.5-5.91"/>
</g>
</svg>
