<svg width="239" height="261" viewBox="0 0 239 261" fill="none" xmlns="http://www.w3.org/2000/svg">
<rect x="93" y="219" width="44" height="34" fill="#0177BF"/>
<rect x="63.8276" y="249.486" width="102.345" height="11.5138" rx="5.75689" fill="#3CA6FE"/>
<rect y="68" width="230" height="153" rx="12" fill="url(#paint0_linear_1_217)"/>
<path d="M38.9506 92C38.7053 91.999 38.4621 92.0466 38.2353 92.1401C38.0084 92.2335 37.8023 92.371 37.6288 92.5445C37.4553 92.718 37.3179 92.9241 37.2244 93.1509C37.131 93.3778 37.0834 93.6209 37.0844 93.8663V193.642C37.0834 193.888 37.131 194.131 37.2245 194.358C37.3179 194.584 37.4554 194.791 37.6289 194.964C37.8024 195.138 38.0085 195.275 38.2353 195.368C38.4622 195.462 38.7053 195.509 38.9506 195.509H142.912C143.157 195.509 143.4 195.462 143.627 195.368C143.854 195.275 144.06 195.138 144.233 194.964C144.407 194.791 144.544 194.584 144.638 194.358C144.731 194.131 144.779 193.888 144.778 193.642C144.777 193.398 144.728 193.156 144.634 192.931C144.54 192.706 144.402 192.501 144.229 192.329C144.055 192.157 143.85 192.021 143.624 191.929C143.398 191.836 143.156 191.789 142.912 191.79H40.8032V93.8663C40.8041 93.6221 40.757 93.3801 40.6644 93.1541C40.5718 92.9281 40.4356 92.7227 40.2635 92.5493C40.0915 92.376 39.887 92.2383 39.6617 92.144C39.4364 92.0498 39.1948 92.0009 38.9506 92Z" fill="#E2F0FA"/>
<path d="M98.4379 183.09C98.4379 185.117 96.7466 186.808 94.7191 186.808H81.6964C79.6689 186.808 77.9777 185.117 77.9777 183.09V123.603C77.9777 121.575 79.6689 119.884 81.6964 119.884H94.7191C96.7466 119.884 98.4379 121.575 98.4379 123.603V183.09Z" fill="url(#paint1_linear_1_217)"/>
<path d="M68.6874 183.09C68.6874 185.117 66.9962 186.808 64.9686 186.808H51.9598C49.9322 186.808 48.241 185.117 48.241 183.09V142.197C48.241 140.169 49.9322 138.478 51.9598 138.478H64.9686C66.9962 138.478 68.6874 140.169 68.6874 142.197V183.09Z" fill="url(#paint2_linear_1_217)"/>
<path d="M128 183.384C128 185.355 126.346 187 124.363 187H111.638C109.655 187 108 185.355 108 183.384V143.616C108 141.645 109.655 140 111.638 140H124.363C126.346 140 128 141.645 128 143.616V183.384Z" fill="url(#paint3_linear_1_217)"/>
<path d="M21.8525 104.721C21.3617 104.722 20.8915 104.918 20.5445 105.265C20.1974 105.612 20.0017 106.082 20 106.573C19.9991 106.817 20.0462 107.059 20.1388 107.285C20.2314 107.511 20.3676 107.717 20.5396 107.89C20.7117 108.064 20.9162 108.201 21.1414 108.295C21.3667 108.39 21.6084 108.439 21.8525 108.44H30.0174C30.2616 108.439 30.5032 108.39 30.7285 108.295C30.9538 108.201 31.1583 108.064 31.3303 107.89C31.5024 107.717 31.6386 107.511 31.7312 107.285C31.8238 107.059 31.8709 106.817 31.8699 106.573C31.8683 106.082 31.6725 105.612 31.3255 105.265C30.9784 104.918 30.5082 104.722 30.0174 104.721H21.8525Z" fill="white" fill-opacity="0.2"/>
<path d="M21.8525 141.895C21.6084 141.896 21.3667 141.945 21.1414 142.039C20.9162 142.133 20.7117 142.271 20.5396 142.444C20.3676 142.618 20.2314 142.823 20.1388 143.049C20.0462 143.275 19.9991 143.517 20 143.761C20.0017 144.252 20.1974 144.722 20.5445 145.069C20.8915 145.416 21.3617 145.612 21.8525 145.614H30.0174C30.5082 145.612 30.9784 145.416 31.3255 145.069C31.6725 144.722 31.8683 144.252 31.8699 143.761C31.8709 143.517 31.8238 143.275 31.7312 143.049C31.6386 142.823 31.5024 142.618 31.3303 142.444C31.1583 142.271 30.9538 142.133 30.7285 142.039C30.5032 141.945 30.2616 141.896 30.0174 141.895H21.8525Z" fill="white" fill-opacity="0.2"/>
<path d="M21.8525 179.069C21.6084 179.07 21.3667 179.119 21.1414 179.213C20.9162 179.307 20.7117 179.445 20.5396 179.618C20.3676 179.792 20.2314 179.997 20.1388 180.223C20.0462 180.449 19.9991 180.691 20 180.935C20.0017 181.426 20.1974 181.896 20.5445 182.243C20.8915 182.59 21.3617 182.786 21.8525 182.788H30.0174C30.5082 182.786 30.9784 182.59 31.3255 182.243C31.6725 181.896 31.8683 181.426 31.8699 180.935C31.8709 180.691 31.8238 180.449 31.7312 180.223C31.6386 179.997 31.5024 179.792 31.3303 179.618C31.1583 179.445 30.9538 179.307 30.7285 179.213C30.5032 179.119 30.2616 179.07 30.0174 179.069H21.8525Z" fill="white" fill-opacity="0.2"/>
<g filter="url(#filter0_d_1_217)">
<path d="M202.334 67.6331H153.016V16.4159C153.016 15.1821 152.49 14.0022 151.568 13.1773C150.644 12.3547 149.405 11.953 148.186 12.1029C121.279 15.1449 100.987 37.8278 100.987 64.8668C100.987 94.1673 124.825 118 154.123 118C180.29 118 202.864 98.4827 206.633 72.5984C206.811 71.3538 206.443 70.0852 205.617 69.1331C204.793 68.181 203.594 67.6331 202.334 67.6331Z" fill="url(#paint4_linear_1_217)"/>
</g>
<path d="M162.443 5.00558C161.774 4.96002 161.128 5.19504 160.646 5.64829C160.161 6.10273 159.887 6.73584 159.887 7.40013V61.1197L211.871 61.1041C212.521 61.1041 213.143 60.8403 213.593 60.3751C214.045 59.9074 214.289 59.2791 214.268 58.6304C213.357 29.9427 191.076 6.88932 162.443 5.00558Z" fill="#0177BF"/>
<defs>
<filter id="filter0_d_1_217" x="68.9873" y="0.0720062" width="169.689" height="169.928" filterUnits="userSpaceOnUse" color-interpolation-filters="sRGB">
<feFlood flood-opacity="0" result="BackgroundImageFix"/>
<feColorMatrix in="SourceAlpha" type="matrix" values="0 0 0 0 0 0 0 0 0 0 0 0 0 0 0 0 0 0 127 0" result="hardAlpha"/>
<feOffset dy="20"/>
<feGaussianBlur stdDeviation="16"/>
<feComposite in2="hardAlpha" operator="out"/>
<feColorMatrix type="matrix" values="0 0 0 0 0.105882 0 0 0 0 0.105882 0 0 0 0 0.313726 0 0 0 0.16 0"/>
<feBlend mode="normal" in2="BackgroundImageFix" result="effect1_dropShadow_1_217"/>
<feBlend mode="normal" in="SourceGraphic" in2="effect1_dropShadow_1_217" result="shape"/>
</filter>
<linearGradient id="paint0_linear_1_217" x1="230" y1="18" x2="47.2127" y2="294.69" gradientUnits="userSpaceOnUse">
<stop stop-color="#33DBBE"/>
<stop offset="1" stop-color="#3BA4FF"/>
</linearGradient>
<linearGradient id="paint1_linear_1_217" x1="88.2078" y1="119.884" x2="88.2078" y2="186.808" gradientUnits="userSpaceOnUse">
<stop stop-color="white" stop-opacity="0.2"/>
<stop offset="1" stop-color="#C8EDFF" stop-opacity="0.5"/>
</linearGradient>
<linearGradient id="paint2_linear_1_217" x1="58.4642" y1="138.478" x2="58.4642" y2="186.808" gradientUnits="userSpaceOnUse">
<stop stop-color="white" stop-opacity="0.2"/>
<stop offset="1" stop-color="#C8EDFF" stop-opacity="0.5"/>
</linearGradient>
<linearGradient id="paint3_linear_1_217" x1="118" y1="140" x2="118" y2="187" gradientUnits="userSpaceOnUse">
<stop stop-color="white" stop-opacity="0.2"/>
<stop offset="1" stop-color="#C8EDFF" stop-opacity="0.5"/>
</linearGradient>
<linearGradient id="paint4_linear_1_217" x1="153.832" y1="12.072" x2="153.832" y2="118" gradientUnits="userSpaceOnUse">
<stop stop-color="white"/>
<stop offset="1" stop-color="#CBEFFF"/>
</linearGradient>
</defs>
</svg>
