<?xml version="1.0" encoding="utf-8"?>
<!-- Generator: Adobe Illustrator 27.6.1, SVG Export Plug-In . SVG Version: 6.00 Build 0)  -->
<svg version="1.1" id="Layer_1" xmlns="http://www.w3.org/2000/svg" xmlns:xlink="http://www.w3.org/1999/xlink" x="0px" y="0px"
	 viewBox="0 0 400 170" style="enable-background:new 0 0 400 170;" xml:space="preserve">
<style type="text/css">
	.st0{fill:#D9E0FF;}
	.st1{fill:#6878FF;}
	.st2{opacity:0.2;fill:#6878FF;}
	.st3{fill:#FFFFFF;}
	.st4{opacity:0.2;fill:none;stroke:#6878FF;stroke-miterlimit:10;}
	.st5{fill:#FF597C;}
	.st6{opacity:0.2;fill:#FF597C;}
	.st7{opacity:0.2;fill:none;stroke:#FF597C;stroke-miterlimit:10;}
	.st8{fill:#00CDC2;}
	.st9{opacity:0.2;fill:#00CDC2;}
	.st10{opacity:0.2;fill:none;stroke:#00CDC2;stroke-miterlimit:10;}
	.st11{fill:#6C8BAD;}
	.st12{opacity:0.2;fill:#5475A1;}
	.st13{opacity:0.2;fill:#6C8BAD;}
	.st14{opacity:0.2;fill:none;stroke:#6C8BAD;stroke-miterlimit:10;}
	.st15{fill:#FFB53A;}
	.st16{opacity:0.2;fill:#FFB53A;}
	.st17{opacity:0.2;fill:none;stroke:#FFB53A;stroke-miterlimit:10;}
	.st18{fill:#FFFFFF;stroke:#C0CFFF;stroke-miterlimit:10;}
	.st19{fill:none;stroke:#CDDBFA;stroke-linecap:round;stroke-miterlimit:10;}
	.st20{opacity:0.4;}
</style>
<g>
	<rect x="1306.47" y="185.75" class="st0" width="400" height="170"/>
	<g>
		<path class="st1" d="M1377.62,261.72h-43.96c-1.35,0-2.44-1.09-2.44-2.44v0c0-1.35,1.09-2.44,2.44-2.44h43.96
			c1.35,0,2.44,1.09,2.44,2.44v0C1380.06,260.63,1378.97,261.72,1377.62,261.72z"/>
		<path class="st2" d="M1366.8,270.68h-33.14c-1.35,0-2.44-1.09-2.44-2.44v0c0-1.35,1.09-2.44,2.44-2.44h33.14
			c1.35,0,2.44,1.09,2.44,2.44v0C1369.24,269.58,1368.15,270.68,1366.8,270.68z"/>
		<path class="st2" d="M1385.2,251.14h-50.98c-1.66,0-3-1.34-3-3v-34.7c0-1.66,1.34-3,3-3h50.98c1.66,0,3,1.34,3,3v34.7
			C1388.2,249.8,1386.86,251.14,1385.2,251.14z"/>
		<path class="st1" d="M1332.06,240.73l10.72-10.72c1.11-1.11,2.92-1.11,4.03,0l4.29,4.29c1.11,1.11,2.92,1.11,4.03,0l11.42-11.42
			c1.11-1.11,2.92-1.11,4.03,0l16.83,16.83c0.53,0.53,0.84,1.26,0.84,2.02v6.56c0,1.57-1.28,2.85-2.85,2.85h-51.32
			c-1.57,0-2.85-1.28-2.85-2.85v-5.54C1331.22,241.99,1331.52,241.26,1332.06,240.73z"/>
		<circle class="st1" cx="1353.11" cy="221.56" r="4.42"/>
		<path class="st1" d="M1355.13,291.23h-18.21c-3.13,0-5.69-2.56-5.69-5.69v-0.01c0-3.13,2.56-5.69,5.69-5.69h18.21
			c3.13,0,5.69,2.56,5.69,5.69v0.01C1360.82,288.66,1358.26,291.23,1355.13,291.23z"/>
		<path class="st3" d="M1350.39,287.16h-8.74c-0.9,0-1.63-0.73-1.63-1.63v0c0-0.9,0.73-1.63,1.63-1.63h8.74
			c0.9,0,1.63,0.73,1.63,1.63v0C1352.02,286.43,1351.29,287.16,1350.39,287.16z"/>
		<path class="st4" d="M1388,295.98h-56.53c-2.76,0-5-2.24-5-5v-80.29c0-2.76,2.24-5,5-5H1388c2.76,0,5,2.24,5,5v80.29
			C1393,293.74,1390.76,295.98,1388,295.98z"/>
	</g>
	<g>
		<path class="st5" d="M1450.99,261.72h-43.96c-1.35,0-2.44-1.09-2.44-2.44v0c0-1.35,1.09-2.44,2.44-2.44h43.96
			c1.35,0,2.44,1.09,2.44,2.44v0C1453.43,260.63,1452.34,261.72,1450.99,261.72z"/>
		<path class="st6" d="M1440.17,270.68h-33.14c-1.35,0-2.44-1.09-2.44-2.44v0c0-1.35,1.09-2.44,2.44-2.44h33.14
			c1.35,0,2.44,1.09,2.44,2.44v0C1442.61,269.58,1441.52,270.68,1440.17,270.68z"/>
		<path class="st6" d="M1458.57,251.14h-50.98c-1.66,0-3-1.34-3-3v-34.7c0-1.66,1.34-3,3-3h50.98c1.66,0,3,1.34,3,3v34.7
			C1461.57,249.8,1460.23,251.14,1458.57,251.14z"/>
		<path class="st5" d="M1405.43,240.73l10.72-10.72c1.11-1.11,2.92-1.11,4.03,0l4.29,4.29c1.11,1.11,2.92,1.11,4.03,0l11.42-11.42
			c1.11-1.11,2.92-1.11,4.03,0l16.83,16.83c0.53,0.53,0.84,1.26,0.84,2.02v6.56c0,1.57-1.28,2.85-2.85,2.85h-51.32
			c-1.57,0-2.85-1.28-2.85-2.85v-5.54C1404.59,241.99,1404.89,241.26,1405.43,240.73z"/>
		<circle class="st5" cx="1426.48" cy="221.56" r="4.42"/>
		<path class="st5" d="M1428.5,291.23h-18.21c-3.13,0-5.69-2.56-5.69-5.69v-0.01c0-3.13,2.56-5.69,5.69-5.69h18.21
			c3.13,0,5.69,2.56,5.69,5.69v0.01C1434.19,288.66,1431.63,291.23,1428.5,291.23z"/>
		<path class="st3" d="M1423.76,287.16h-8.74c-0.9,0-1.63-0.73-1.63-1.63v0c0-0.9,0.73-1.63,1.63-1.63h8.74
			c0.9,0,1.63,0.73,1.63,1.63v0C1425.39,286.43,1424.66,287.16,1423.76,287.16z"/>
		<path class="st7" d="M1461.37,295.98h-56.53c-2.76,0-5-2.24-5-5v-80.29c0-2.76,2.24-5,5-5h56.53c2.76,0,5,2.24,5,5v80.29
			C1466.37,293.74,1464.13,295.98,1461.37,295.98z"/>
	</g>
	<g>
		<path class="st8" d="M1597.73,261.72h-43.96c-1.35,0-2.44-1.09-2.44-2.44v0c0-1.35,1.09-2.44,2.44-2.44h43.96
			c1.35,0,2.44,1.09,2.44,2.44v0C1600.17,260.63,1599.07,261.72,1597.73,261.72z"/>
		<path class="st9" d="M1581.45,270.68h-27.68c-1.35,0-2.44-1.09-2.44-2.44v0c0-1.35,1.09-2.44,2.44-2.44h27.68
			c1.35,0,2.44,1.09,2.44,2.44v0C1583.89,269.58,1582.79,270.68,1581.45,270.68z"/>
		<path class="st9" d="M1605.31,251.14h-50.98c-1.66,0-3-1.34-3-3v-34.7c0-1.66,1.34-3,3-3h50.98c1.66,0,3,1.34,3,3v34.7
			C1608.31,249.8,1606.96,251.14,1605.31,251.14z"/>
		<path class="st8" d="M1552.16,240.73l10.72-10.72c1.11-1.11,2.92-1.11,4.03,0l4.29,4.29c1.11,1.11,2.92,1.11,4.03,0l11.42-11.42
			c1.11-1.11,2.92-1.11,4.03,0l16.83,16.83c0.53,0.53,0.84,1.26,0.84,2.02v6.56c0,1.57-1.28,2.85-2.85,2.85h-51.32
			c-1.57,0-2.85-1.28-2.85-2.85v-5.54C1551.33,241.99,1551.63,241.26,1552.16,240.73z"/>
		<circle class="st8" cx="1573.21" cy="221.56" r="4.42"/>
		<path class="st8" d="M1575.23,291.23h-18.21c-3.13,0-5.69-2.56-5.69-5.69v-0.01c0-3.13,2.56-5.69,5.69-5.69h18.21
			c3.13,0,5.69,2.56,5.69,5.69v0.01C1580.93,288.66,1578.36,291.23,1575.23,291.23z"/>
		<path class="st10" d="M1608.1,295.98h-56.53c-2.76,0-5-2.24-5-5v-80.29c0-2.76,2.24-5,5-5h56.53c2.76,0,5,2.24,5,5v80.29
			C1613.1,293.74,1610.87,295.98,1608.1,295.98z"/>
		<path class="st3" d="M1570.5,287.16h-8.74c-0.9,0-1.63-0.73-1.63-1.63v0c0-0.9,0.73-1.63,1.63-1.63h8.74
			c0.9,0,1.63,0.73,1.63,1.63v0C1572.12,286.43,1571.4,287.16,1570.5,287.16z"/>
	</g>
	<g>
		<path class="st11" d="M1671.09,261.72h-43.96c-1.35,0-2.44-1.09-2.44-2.44v0c0-1.35,1.09-2.44,2.44-2.44h43.96
			c1.35,0,2.44,1.09,2.44,2.44v0C1673.53,260.63,1672.44,261.72,1671.09,261.72z"/>
		<path class="st12" d="M1654.81,270.68h-27.68c-1.35,0-2.44-1.09-2.44-2.44v0c0-1.35,1.09-2.44,2.44-2.44h27.68
			c1.35,0,2.44,1.09,2.44,2.44v0C1657.25,269.58,1656.16,270.68,1654.81,270.68z"/>
		<path class="st13" d="M1678.67,251.14h-50.98c-1.66,0-3-1.34-3-3v-34.7c0-1.66,1.34-3,3-3h50.98c1.66,0,3,1.34,3,3v34.7
			C1681.67,249.8,1680.33,251.14,1678.67,251.14z"/>
		<path class="st11" d="M1625.53,240.73l10.72-10.72c1.11-1.11,2.92-1.11,4.03,0l4.29,4.29c1.11,1.11,2.92,1.11,4.03,0l11.42-11.42
			c1.11-1.11,2.92-1.11,4.03,0l16.83,16.83c0.53,0.53,0.84,1.26,0.84,2.02v6.56c0,1.57-1.28,2.85-2.85,2.85h-51.32
			c-1.57,0-2.85-1.28-2.85-2.85v-5.54C1624.69,241.99,1624.99,241.26,1625.53,240.73z"/>
		<circle class="st11" cx="1646.58" cy="221.56" r="4.42"/>
		<path class="st11" d="M1648.6,291.23h-18.21c-3.13,0-5.69-2.56-5.69-5.69v-0.01c0-3.13,2.56-5.69,5.69-5.69h18.21
			c3.13,0,5.69,2.56,5.69,5.69v0.01C1654.29,288.66,1651.73,291.23,1648.6,291.23z"/>
		<path class="st14" d="M1681.47,295.98h-56.53c-2.76,0-5-2.24-5-5v-80.29c0-2.76,2.24-5,5-5h56.53c2.76,0,5,2.24,5,5v80.29
			C1686.47,293.74,1684.23,295.98,1681.47,295.98z"/>
		<path class="st3" d="M1643.86,287.16h-8.74c-0.9,0-1.63-0.73-1.63-1.63v0c0-0.9,0.73-1.63,1.63-1.63h8.74
			c0.9,0,1.63,0.73,1.63,1.63v0C1645.49,286.43,1644.76,287.16,1643.86,287.16z"/>
	</g>
	<g>
		<path class="st15" d="M1524.36,261.72h-43.96c-1.35,0-2.44-1.09-2.44-2.44v0c0-1.35,1.09-2.44,2.44-2.44h43.96
			c1.35,0,2.44,1.09,2.44,2.44v0C1526.8,260.63,1525.71,261.72,1524.36,261.72z"/>
		<path class="st16" d="M1513.54,270.68h-33.14c-1.35,0-2.44-1.09-2.44-2.44v0c0-1.35,1.09-2.44,2.44-2.44h33.14
			c1.35,0,2.44,1.09,2.44,2.44v0C1515.98,269.58,1514.88,270.68,1513.54,270.68z"/>
		<path class="st16" d="M1531.94,251.14h-50.98c-1.66,0-3-1.34-3-3v-34.7c0-1.66,1.34-3,3-3h50.98c1.66,0,3,1.34,3,3v34.7
			C1534.94,249.8,1533.59,251.14,1531.94,251.14z"/>
		<path class="st15" d="M1478.79,240.73l10.72-10.72c1.11-1.11,2.92-1.11,4.03,0l4.29,4.29c1.11,1.11,2.92,1.11,4.03,0l11.42-11.42
			c1.11-1.11,2.92-1.11,4.03,0l16.83,16.83c0.53,0.53,0.84,1.26,0.84,2.02v6.56c0,1.57-1.28,2.85-2.85,2.85h-51.32
			c-1.57,0-2.85-1.28-2.85-2.85v-5.54C1477.96,241.99,1478.26,241.26,1478.79,240.73z"/>
		<circle class="st15" cx="1499.85" cy="221.56" r="4.42"/>
		<path class="st15" d="M1501.87,291.23h-18.21c-3.13,0-5.69-2.56-5.69-5.69v-0.01c0-3.13,2.56-5.69,5.69-5.69h18.21
			c3.13,0,5.69,2.56,5.69,5.69v0.01C1507.56,288.66,1505,291.23,1501.87,291.23z"/>
		<path class="st3" d="M1497.13,287.16h-8.74c-0.9,0-1.63-0.73-1.63-1.63v0c0-0.9,0.73-1.63,1.63-1.63h8.74
			c0.9,0,1.63,0.73,1.63,1.63v0C1498.76,286.43,1498.03,287.16,1497.13,287.16z"/>
		<path class="st17" d="M1534.74,295.98h-56.53c-2.76,0-5-2.24-5-5v-80.29c0-2.76,2.24-5,5-5h56.53c2.76,0,5,2.24,5,5v80.29
			C1539.74,293.74,1537.5,295.98,1534.74,295.98z"/>
	</g>
	<path class="st18" d="M1426.47,335.71h-95c-2.76,0-5-2.24-5-5v-17.13c0-2.76,2.24-5,5-5h95c2.76,0,5,2.24,5,5v17.13
		C1431.47,333.47,1429.23,335.71,1426.47,335.71z"/>
	<g>
		<g>
			<path class="st5" d="M1390.98,320.14h-28.39c-0.83,0-1.5-0.67-1.5-1.5l0,0c0-0.83,0.67-1.5,1.5-1.5h28.39
				c0.83,0,1.5,0.67,1.5,1.5l0,0C1392.48,319.47,1391.81,320.14,1390.98,320.14z"/>
			<path class="st6" d="M1380.52,327.14h-17.92c-0.83,0-1.5-0.67-1.5-1.5l0,0c0-0.83,0.67-1.5,1.5-1.5h17.92
				c0.83,0,1.5,0.67,1.5,1.5l0,0C1382.02,326.47,1381.35,327.14,1380.52,327.14z"/>
		</g>
		<g>
			<line class="st19" x1="1421.13" y1="320.22" x2="1425.13" y2="324.22"/>
			<line class="st19" x1="1425.13" y1="320.22" x2="1421.13" y2="324.22"/>
		</g>
		<g>
			<path class="st6" d="M1355.08,331.52h-22.26c-1.1,0-2-0.9-2-2v-14.76c0-1.1,0.9-2,2-2h22.26c1.1,0,2,0.9,2,2v14.76
				C1357.08,330.63,1356.19,331.52,1355.08,331.52z"/>
			<path class="st5" d="M1331.31,326.6l4.53-4.53c0.67-0.67,1.76-0.67,2.43,0l1.4,1.4c0.67,0.67,1.76,0.67,2.43,0l4.69-4.69
				c0.67-0.67,1.76-0.67,2.43,0l7.35,7.35c0.32,0.32,0.5,0.76,0.5,1.22v2.45c0,0.95-0.77,1.72-1.72,1.72h-22.85
				c-0.95,0-1.72-0.77-1.72-1.72v-1.98C1330.81,327.36,1330.99,326.93,1331.31,326.6z"/>
			<circle class="st5" cx="1340.9" cy="317.89" r="2.04"/>
		</g>
	</g>
</g>
<g>
	<rect class="st0" width="400" height="170"/>
	<path class="st1" d="M136.49,100.6H73.32c-1.94,0-3.51-1.57-3.51-3.51v0c0-1.94,1.57-3.51,3.51-3.51h63.17
		c1.94,0,3.51,1.57,3.51,3.51v0C140,99.03,138.43,100.6,136.49,100.6z"/>
	<path class="st2" d="M120.93,113.47H73.32c-1.94,0-3.51-1.57-3.51-3.51v0c0-1.94,1.57-3.51,3.51-3.51h47.62
		c1.94,0,3.51,1.57,3.51,3.51v0C124.44,111.9,122.87,113.47,120.93,113.47z"/>
	<path class="st2" d="M148.7,85.39H72.81c-1.66,0-3-1.34-3-3V29.9c0-1.66,1.34-3,3-3h75.89c1.66,0,3,1.34,3,3v52.49
		C151.7,84.05,150.35,85.39,148.7,85.39z"/>
	<path class="st1" d="M71.01,70.43l15.4-15.4c1.6-1.6,4.19-1.6,5.79,0l6.16,6.16c1.6,1.6,4.19,1.6,5.79,0l16.42-16.42
		c1.6-1.6,4.19-1.6,5.79,0l24.19,24.19c0.77,0.77,1.2,1.81,1.2,2.9v9.43c0,2.26-1.83,4.1-4.1,4.1H73.91c-2.26,0-4.1-1.83-4.1-4.1
		v-7.97C69.81,72.24,70.24,71.2,71.01,70.43z"/>
	<circle class="st1" cx="101.27" cy="42.88" r="6.36"/>
	<path class="st1" d="M104.16,143H78c-4.5,0-8.19-3.68-8.19-8.19v0c0-4.5,3.68-8.19,8.19-8.19h26.16c4.5,0,8.19,3.68,8.19,8.19v0
		C112.35,139.32,108.66,143,104.16,143z"/>
	<path class="st3" d="M97.36,137.15H84.8c-1.29,0-2.34-1.05-2.34-2.34l0,0c0-1.29,1.05-2.34,2.34-2.34h12.56
		c1.29,0,2.34,1.05,2.34,2.34l0,0C99.7,136.1,98.65,137.15,97.36,137.15z"/>
	<path class="st1" d="M227.23,149.73h-38.9c-5.69,0-10.35-4.66-10.35-10.35v0c0-5.69,4.66-10.35,10.35-10.35h38.9
		c5.69,0,10.35,4.66,10.35,10.35v0C237.58,145.08,232.93,149.73,227.23,149.73z"/>
	<path class="st1" d="M274.84,42.5h-90.74c-3.38,0-6.13-2.74-6.13-6.13v0c0-3.38,2.74-6.13,6.13-6.13h90.74
		c3.38,0,6.13,2.74,6.13,6.13v0C280.97,39.76,278.23,42.5,274.84,42.5z"/>
	<path class="st3" d="M216.67,141.72h-17.78c-1.29,0-2.34-1.05-2.34-2.34l0,0c0-1.29,1.05-2.34,2.34-2.34h17.78
		c1.29,0,2.34,1.05,2.34,2.34l0,0C219.01,140.68,217.97,141.72,216.67,141.72z"/>
	<path class="st4" d="M153.59,149.83H67.98c-2.76,0-5-2.24-5-5V25.07c0-2.76,2.24-5,5-5h85.61c2.76,0,5,2.24,5,5v119.76
		C158.59,147.59,156.35,149.83,153.59,149.83z"/>
	<g>
		<path class="st18" d="M331.41,118.94H182.98c-2.76,0-5-2.24-5-5V96.81c0-2.76,2.24-5,5-5h148.43c2.76,0,5,2.24,5,5v17.13
			C336.41,116.7,334.17,118.94,331.41,118.94z"/>
		<g>
			<path class="st1" d="M216.16,103.16h-24.54c-0.91,0-1.64-0.73-1.64-1.64l0,0c0-0.91,0.73-1.64,1.64-1.64h24.54
				c0.91,0,1.64,0.73,1.64,1.64l0,0C217.8,102.43,217.07,103.16,216.16,103.16z"/>
			<path class="st1" d="M322.39,103.16h-35.98c-0.91,0-1.64-0.73-1.64-1.64l0,0c0-0.91,0.73-1.64,1.64-1.64h35.98
				c0.91,0,1.64,0.73,1.64,1.64l0,0C324.03,102.43,323.3,103.16,322.39,103.16z"/>
			<path class="st2" d="M322.77,110.87H191.62c-0.91,0-1.64-0.73-1.64-1.64l0,0c0-0.91,0.73-1.64,1.64-1.64h131.15
				c0.91,0,1.64,0.73,1.64,1.64l0,0C324.41,110.14,323.67,110.87,322.77,110.87z"/>
			<path class="st5" d="M261.31,110.87h-69.69c-0.91,0-1.64-0.73-1.64-1.64l0,0c0-0.91,0.73-1.64,1.64-1.64h69.69
				c0.91,0,1.64,0.73,1.64,1.64l0,0C262.95,110.14,262.22,110.87,261.31,110.87z"/>
		</g>
	</g>
	<g class="st20">
		<path class="st1" d="M273.47,76.91h-92.99c-1.38,0-2.5-1.12-2.5-2.5v0c0-1.38,1.12-2.5,2.5-2.5h92.99c1.38,0,2.5,1.12,2.5,2.5v0
			C275.97,75.79,274.85,76.91,273.47,76.91z"/>
		<path class="st1" d="M290.14,67.6H180.48c-1.38,0-2.5-1.12-2.5-2.5v0c0-1.38,1.12-2.5,2.5-2.5h109.66c1.38,0,2.5,1.12,2.5,2.5v0
			C292.64,66.48,291.52,67.6,290.14,67.6z"/>
		<path class="st1" d="M303.16,58.29H180.48c-1.38,0-2.5-1.12-2.5-2.5v0c0-1.38,1.12-2.5,2.5-2.5h122.68c1.38,0,2.5,1.12,2.5,2.5v0
			C305.66,57.17,304.54,58.29,303.16,58.29z"/>
	</g>
</g>
</svg>
