<svg width="470" height="170" viewBox="0 0 470 170" fill="none" xmlns="http://www.w3.org/2000/svg">
<g clip-path="url(#clip0_1517_18151)">
<path d="M10 0H460C465.5 0 470 4.5 470 10V170H0V10C0 4.5 4.5 0 10 0Z" fill="#BCCCFF"/>
<path opacity="0.5" d="M76.0996 170C76.0996 170 77.9996 120 148.7 133.2C219.4 146.4 204.2 110.2 246.2 120.8C288.2 131.4 298.5 96.1001 322.8 102C347.1 107.9 379.9 80.2001 398.6 100C417.3 119.9 485.4 108.1 466.7 136.8C448 165.5 440.2 170 403.2 170C366.2 170 76.0996 170 76.0996 170Z" fill="url(#paint0_linear_1517_18151)"/>
<path opacity="0.5" d="M393.9 169.996C393.9 169.996 392 119.996 321.3 133.196C250.6 146.396 265.8 110.196 223.8 120.796C181.8 131.396 171.5 96.0964 147.2 101.996C122.9 107.896 89.9998 80.0964 71.2998 99.9964C52.5998 119.896 -15.5002 108.096 3.19984 136.796C21.8998 165.496 29.6998 169.996 66.6998 169.996C103.7 169.996 393.9 169.996 393.9 169.996Z" fill="url(#paint1_linear_1517_18151)"/>
<g opacity="0.4">
<path d="M347.8 112.999C342.8 132.499 333.1 151.999 315.8 162.199C313.4 163.599 310.9 164.799 308.3 165.899H131.4C123.2 154.899 118.5 141.399 117.8 127.699C117.3 117.199 119.5 106.199 126.3 98.199C135.5 87.399 150.9 84.399 165.1 84.899C179.3 85.399 193.3 88.599 207.4 87.299C224.4 85.799 240 77.999 255.3 70.399C270.5 62.799 286.3 55.199 303.3 54.099C320.3 52.999 338.9 60.099 346.6 75.299C352.4 86.699 351 100.499 347.8 112.999Z" fill="#E3E3FD"/>
</g>
<g opacity="0.4">
<path d="M238.4 58.3983C235.2 67.9983 229.3 72.9983 221.7 73.8983C214 74.8983 206.4 73.0983 198.7 73.3983C193.4 73.5983 187.9 73.0983 184.4 68.2983C180.7 63.2983 177.2 54.6983 180.7 48.6983C184.1 42.7983 191.8 41.1983 197.3 44.4983C199.3 45.6983 201.7 47.6983 204.2 47.4983C208.1 47.2983 211.9 44.9983 215.6 42.6983C219.3 40.4983 223.1 38.1983 227 38.0983C236.9 37.9983 241.5 48.9983 238.4 58.3983Z" fill="#E3E3FD"/>
</g>
<path d="M214.8 128.198C214 128.198 213.4 127.498 213.4 126.798C213.4 125.998 214 125.398 214.8 125.398C215.6 125.398 216.2 126.098 216.2 126.798C216.2 127.598 215.6 128.198 214.8 128.198ZM214.8 125.698C214.2 125.698 213.8 126.198 213.8 126.798C213.8 127.398 214.3 127.898 214.8 127.898C215.4 127.898 215.8 127.398 215.8 126.798C215.8 126.198 215.3 125.698 214.8 125.698Z" fill="#C9C9FC"/>
<path d="M113.2 105.597C112.2 105.597 111.4 104.797 111.4 103.697C111.4 102.697 112.2 101.797 113.2 101.797C114.2 101.797 115 102.597 115 103.697C115 104.797 114.2 105.597 113.2 105.597ZM113.2 102.297C112.4 102.297 111.8 102.997 111.8 103.797C111.8 104.597 112.4 105.297 113.2 105.297C114 105.297 114.6 104.597 114.6 103.797C114.6 102.897 113.9 102.297 113.2 102.297Z" fill="#C9C9FC"/>
<path d="M186.1 148.398C186.873 148.398 187.5 147.771 187.5 146.998C187.5 146.224 186.873 145.598 186.1 145.598C185.327 145.598 184.7 146.224 184.7 146.998C184.7 147.771 185.327 148.398 186.1 148.398Z" fill="#C9C9FC"/>
<path d="M358.7 100.6C359.694 100.6 360.5 99.7941 360.5 98.8C360.5 97.8059 359.694 97 358.7 97C357.706 97 356.9 97.8059 356.9 98.8C356.9 99.7941 357.706 100.6 358.7 100.6Z" fill="#C9C9FC"/>
<path d="M244.5 88.8969C243.6 88.8969 242.8 88.0969 242.8 87.0969C242.8 86.0969 243.6 85.2969 244.5 85.2969C245.4 85.2969 246.2 86.0969 246.2 87.0969C246.2 88.0969 245.4 88.8969 244.5 88.8969ZM244.5 85.6969C243.8 85.6969 243.2 86.2969 243.2 87.0969C243.2 87.8969 243.8 88.4969 244.5 88.4969C245.2 88.4969 245.8 87.8969 245.8 87.0969C245.8 86.2969 245.2 85.6969 244.5 85.6969Z" fill="#C9C9FC"/>
<path d="M293 101.098L291.1 99.0977L293.1 97.0977L295 99.0977L293 101.098ZM291.6 99.0977L293 100.498L294.4 98.9977L293 97.5977L291.6 99.0977Z" fill="#C9C9FC"/>
<path d="M124.56 77.744L122.792 79.5117L124.56 81.2795L126.328 79.5117L124.56 77.744Z" fill="#C9C9FC"/>
<path d="M170.6 129.797L168.7 127.797L170.7 125.797L172.6 127.797L170.6 129.797ZM169.2 127.797L170.6 129.197L172 127.697L170.6 126.297L169.2 127.797Z" fill="#C9C9FC"/>
<path d="M352.6 68.3984L350.9 66.6984L352.7 64.8984L354.4 66.5984L352.6 68.3984ZM351.4 66.5984L352.6 67.7984L353.8 66.5984L352.6 65.3984L351.4 66.5984Z" fill="#C9C9FC"/>
<path d="M228.4 131.9H209.9C209.8 131.9 209.7 131.8 209.7 131.7C209.7 131.6 209.8 131.5 209.9 131.5H228.4C228.5 131.5 228.6 131.6 228.6 131.7C228.6 131.8 228.5 131.9 228.4 131.9Z" fill="#C9C9FC"/>
<path d="M213.4 135.9H209.9C209.8 135.9 209.7 135.8 209.7 135.7C209.7 135.6 209.8 135.5 209.9 135.5H213.4C213.5 135.5 213.6 135.6 213.6 135.7C213.6 135.8 213.5 135.9 213.4 135.9Z" fill="#C9C9FC"/>
<path d="M223.5 135.9H216.3C216.2 135.9 216.1 135.8 216.1 135.7C216.1 135.6 216.2 135.5 216.3 135.5H223.5C223.6 135.5 223.7 135.6 223.7 135.7C223.7 135.8 223.6 135.9 223.5 135.9Z" fill="#C9C9FC"/>
<path d="M228.4 139.9H209.9C209.8 139.9 209.7 139.8 209.7 139.7C209.7 139.6 209.8 139.5 209.9 139.5H228.4C228.5 139.5 228.6 139.6 228.6 139.7C228.6 139.8 228.5 139.9 228.4 139.9Z" fill="#C9C9FC"/>
<path d="M273.2 166.199C273.1 166.199 273 166.099 273 165.999V134.899C273 134.799 273.1 134.699 273.2 134.699C273.3 134.699 273.4 134.799 273.4 134.899V165.999C273.4 166.099 273.3 166.199 273.2 166.199Z" fill="#212144"/>
<path d="M279.7 165.999H266.8C266.8 164.499 268 163.199 269.6 163.199H277C278.4 163.199 279.7 164.399 279.7 165.999Z" fill="white"/>
<path d="M279.8 166.1H266.6V165.9C266.6 164.3 267.9 163 269.5 163H277C278.6 163 279.9 164.3 279.9 165.9L279.8 166.1ZM266.9 165.8H279.5C279.5 164.4 278.3 163.3 276.9 163.3H269.4C268 163.4 266.9 164.5 266.9 165.8Z" fill="#212144"/>
<path d="M281.9 136.2H264.5V133H278.7C280.5 133 281.9 134.4 281.9 136.2Z" fill="#C9C9FC"/>
<path d="M247.9 158.496L248.6 165.996H238.4L243 161.496L242.9 158.596L247.9 158.496Z" fill="#C9C9FC"/>
<path d="M243.6 163.196L242 162.396C241.9 162.296 241.9 162.196 241.9 162.096C242 161.996 242.1 161.996 242.2 161.996L243.7 162.696C243.8 162.796 243.8 162.896 243.8 162.996C243.8 163.096 243.7 163.196 243.6 163.196Z" fill="#212144"/>
<path d="M242.7 164.196C242.6 164.196 242.6 164.196 242.7 164.196L241.1 163.396C241 163.296 241 163.196 241 163.096C241.1 162.996 241.2 162.996 241.3 162.996L242.8 163.696C242.9 163.796 242.9 163.896 242.9 163.996C242.8 164.196 242.7 164.196 242.7 164.196Z" fill="#212144"/>
<path d="M245.5 166.096C245.4 166.096 245.3 165.996 245.3 165.896C245.2 164.996 245.5 164.196 246.2 163.596C246.8 163.096 247.7 162.896 248.4 163.196C248.5 163.196 248.5 163.296 248.5 163.396C248.5 163.496 248.4 163.496 248.3 163.496C247.8 163.296 247 163.496 246.5 163.896C245.9 164.296 245.6 164.996 245.7 165.796C245.7 165.996 245.6 165.996 245.5 166.096Z" fill="#212144"/>
<path d="M261.9 125.098L249.4 128.098C245 129.298 242 133.298 241.8 137.998L241.5 160.098L249.3 160.198L253.3 137.298L261.9 125.098Z" fill="#A44640"/>
<path d="M265.8 156.898L271.5 163.798L263.2 169.998L264.4 163.598L261.8 160.098L265.8 156.898Z" fill="#C9C9FC"/>
<path d="M264.3 164.399C264.2 164.399 264.1 164.299 264.1 164.199C264.1 164.099 264.1 163.999 264.2 163.999L265.8 163.699C265.9 163.699 266 163.799 266 163.799C266 163.899 266 163.999 265.9 163.999L264.3 164.399C264.4 164.399 264.4 164.399 264.3 164.399Z" fill="#212144"/>
<path d="M264.2 165.899C264.1 165.899 264 165.799 264 165.699C264 165.599 264 165.499 264.1 165.499L265.7 165.199C265.8 165.199 265.9 165.299 265.9 165.299C265.9 165.399 265.9 165.499 265.8 165.499L264.2 165.899Z" fill="#212144"/>
<path d="M269.6 165.2H269.5C268.8 164.7 268.5 163.7 268.6 162.9C268.7 162.2 269 161.7 269.5 161.5C269.6 161.5 269.7 161.5 269.7 161.6C269.7 161.7 269.7 161.8 269.6 161.8C269.2 161.9 269 162.4 268.9 162.9C268.8 163.6 269 164.4 269.6 164.8C269.7 164.9 269.7 165 269.6 165.1C269.8 165.2 269.7 165.2 269.6 165.2Z" fill="#212144"/>
<path d="M277 127.198L276 131.198C275.9 131.498 275.8 131.798 275.6 132.198C274.7 133.998 273.1 135.198 271.2 135.398L258.4 138.998L269.2 158.098L262.4 162.798L249.7 144.698C246.8 140.598 247.7 134.498 251.7 131.698C253.1 130.698 254.1 129.998 254.3 129.998L263.3 125.098L277 127.198Z" fill="#DD5B53"/>
<path d="M252.8 119.4L252.5 127.4C260.2 126.1 268.8 125.5 276.9 127.2C278.5 123.6 278 120.8 276.6 117.5L252.8 119.4Z" fill="#5355C9"/>
<path d="M251 122.201C251 122.201 244.3 122.801 243.2 118.001C242.4 114.501 245.4 109.001 248.1 105.001C250.2 101.801 253.1 99.4008 256.4 97.9008L260.2 96.3008L265.6 98.2008L274.1 103.401L276.2 121.801C276.2 121.901 250.8 122.201 251 122.201Z" fill="#5355C9"/>
<path d="M269.9 115.598L268.7 115.798C267.6 115.998 265.9 116.298 264.8 116.698C262.4 117.398 261.4 120.298 261.4 120.298L263.6 120.398L267.5 118.698L270.6 118.798L269.9 115.598Z" fill="#EDBA95"/>
<path d="M263.1 120.199C263 120.099 263 119.999 263.1 119.999L265 118.699H265.1V118.799L263.1 120.199Z" fill="#BE8372"/>
<path d="M262.3 120.098C262.2 120.098 262.2 120.098 262.3 120.098C262.2 119.998 262.2 119.998 262.2 119.898L263.7 118.398H263.8V118.498L262.3 120.098Z" fill="#BE8372"/>
<path d="M263 96.1992L269 97.7992C270.6 98.1992 272.7 99.2992 273.7 100.299C276.5 102.999 281.6 110.199 281.9 114.899C282.1 117.299 280.5 119.399 277.4 119.799L270.7 120.799L268.7 115.899L274.9 114.299L269.3 105.299L263 96.1992Z" fill="#5355C9"/>
<path d="M270.6 120.8L268.5 115.7L274.6 114.1L268.7 104.6C268.7 104.5 268.7 104.5 268.7 104.5H268.8L274.9 114.2L268.7 115.8L270.7 120.5L277.3 119.5C277.3 119.5 277.4 119.5 277.4 119.6C277.4 119.7 277.4 119.7 277.3 119.7L270.6 120.8Z" fill="#212144"/>
<path d="M261.2 101.998C259.9 101.998 258.7 101.498 257.7 100.498V100.398H257.8C258.9 101.398 260.3 101.898 261.7 101.798C263.1 101.698 264.4 100.898 265.3 99.4976C265.3 99.4976 265.4 99.3976 265.4 99.4976V99.5976C264.4 100.998 263.1 101.798 261.6 101.998C261.5 101.998 261.4 101.998 261.2 101.998Z" fill="#212144"/>
<path d="M252.1 110.598C252 110.598 252 110.498 252 110.498L254.5 105.198C254.5 105.098 254.6 105.098 254.6 105.098L254.7 105.198L252.1 110.598Z" fill="#212144"/>
<path d="M254.5 85.699C254.1 85.099 254 84.399 254.2 83.699C254.4 82.999 254.8 82.499 255.5 82.199C256 81.999 256.7 81.899 257 82.299C257.8 81.499 259.2 81.399 260.1 81.999C260.4 82.199 261.1 81.799 261.4 81.699C262 81.599 262.5 81.599 263 81.999C263.4 82.299 263.5 82.899 263.3 83.399C263.6 82.899 265.5 83.599 265.8 83.799C267.3 84.999 267.2 87.499 266 88.799C265.8 89.099 265.4 89.199 265.3 89.599C265.2 89.999 265.1 89.799 265.2 90.199C265.7 91.599 264.6 93.099 263.1 92.999L254.5 85.699Z" fill="#212144"/>
<path d="M261.9 100.398C260.3 100.698 258.7 99.6984 258.4 97.9984L258.3 97.4984L257.7 93.9984V93.6984L263.6 92.3984L264.4 96.6984C264.5 98.3984 263.5 100.098 261.9 100.398Z" fill="#EDBA95"/>
<path d="M262.4 93.9984C261.6 95.5984 260.2 96.7984 258.2 97.3984L257.6 93.8984L262.4 93.9984Z" fill="#BE8372"/>
<path d="M261.1 94.9989C258.6 96.0989 256.4 95.5989 255.8 92.2989C255.7 91.6989 255.6 90.8989 255.6 90.0989C255.6 89.8989 255.6 89.5989 255.6 89.3989C255.7 87.0989 255.1 86.0989 255.7 85.2989C256.8 83.8989 258.5 84.4989 259.9 84.4989C262.2 84.4989 263.8 85.6989 263.9 88.6989C264.1 91.1989 263.7 93.7989 261.1 94.9989Z" fill="#EDBA95"/>
<path d="M254.9 84.2992C253.1 84.6992 253.8 87.4992 255.5 87.5992C256.2 87.6992 257.6 86.8992 257.6 85.9992C257.6 86.6992 258.1 87.3992 258.8 87.5992C259.5 87.7992 260.2 87.2992 260.5 86.5992C260.6 86.9992 260.9 87.2992 261.3 87.3992C261.7 87.4992 262.1 87.4992 262.4 87.1992C262.2 87.8992 262.6 88.6992 263.1 89.1992C263.7 89.6992 264.4 89.8992 265.1 89.9992L264.1 84.5992C264.1 84.5992 259 83.1992 258.8 83.1992C258.6 83.3992 254.9 84.2992 254.9 84.2992Z" fill="#212144"/>
<path d="M264.1 91.8008C264.873 91.8008 265.5 91.1292 265.5 90.3008C265.5 89.4724 264.873 88.8008 264.1 88.8008C263.327 88.8008 262.7 89.4724 262.7 90.3008C262.7 91.1292 263.327 91.8008 264.1 91.8008Z" fill="#EDBA95"/>
<path d="M259.2 89.5C259.2 89.8 259.4 90 259.6 90C259.8 90 260 89.8 260 89.5C260 89.2 259.8 89 259.6 89C259.4 89 259.2 89.2 259.2 89.5Z" fill="#212144"/>
<path d="M257.1 89.3984C257.1 89.6984 257.3 89.8984 257.5 89.8984C257.7 89.8984 257.9 89.6984 257.9 89.3984C257.9 89.0984 257.7 88.8984 257.5 88.8984C257.3 88.8984 257.1 89.0984 257.1 89.3984Z" fill="#212144"/>
<path d="M258.2 91.8992C257.9 91.7992 257.6 91.6992 257.5 91.4992C257.3 91.1992 257.6 90.8992 257.7 90.7992C257.9 90.4992 258.2 90.1992 258.2 89.7992C258.2 89.6992 258.2 89.6992 258.3 89.6992C258.3 89.6992 258.4 89.6992 258.4 89.7992C258.4 90.2992 258.1 90.6992 257.9 90.9992C257.7 91.1992 257.7 91.2992 257.7 91.4992C257.8 91.6992 258 91.6992 258.2 91.7992C258.3 91.7992 258.3 91.7992 258.2 91.8992C258.3 91.8992 258.3 91.8992 258.2 91.8992Z" fill="#BE8372"/>
<path d="M259.4 92.1992L257.4 92.6992C257.4 92.6992 258.6 94.1992 259.4 92.1992Z" fill="white"/>
<path d="M260.6 88.8984C260.5 88.7984 260.4 88.5984 260.3 88.5984C260.2 88.4984 260 88.4984 259.9 88.3984C259.8 88.3984 259.6 88.3984 259.5 88.3984C259.4 88.3984 259.2 88.4984 259.1 88.5984L259 88.4984C259 88.2984 259.2 88.0984 259.4 87.9984C259.6 87.8984 259.8 87.8984 260 87.8984C260.2 87.8984 260.4 87.9984 260.6 88.1984C260.7 88.3984 260.8 88.5984 260.9 88.6984L260.6 88.8984Z" fill="#212144"/>
<path d="M256.6 88.6C256.6 88.4 256.7 88.3 256.8 88.2C256.9 88.1 257.1 88 257.3 88C257.5 88 257.7 88 257.8 88.1C257.9 88.2 258 88.3 258.1 88.5L258 88.6C257.9 88.5 257.8 88.5 257.7 88.4C257.6 88.3 257.5 88.3 257.4 88.4C257.3 88.4 257.2 88.4 257.1 88.5C257 88.5 256.9 88.6 256.8 88.7L256.6 88.6Z" fill="#212144"/>
<path opacity="0.5" d="M261 92.2C261.607 92.2 262.1 91.7075 262.1 91.1C262.1 90.4925 261.607 90 261 90C260.392 90 259.9 90.4925 259.9 91.1C259.9 91.7075 260.392 92.2 261 92.2Z" fill="#E59087"/>
<path opacity="0.5" d="M256.9 91.0997C256.9 91.6997 256.5 92.0997 256 92.1997C255.9 92.1997 255.9 92.1997 255.8 92.1997C255.7 91.5997 255.6 90.7997 255.6 89.9997C256.2 89.8997 256.8 90.2997 256.9 90.8997C256.9 90.9997 256.9 91.0997 256.9 91.0997Z" fill="#E59087"/>
<path d="M263.7 90.9984C263.7 90.9984 263.6 90.9984 263.6 90.8984C263.5 90.1984 263.8 89.6984 264.4 89.3984C264.4 89.3984 264.5 89.3984 264.5 89.4984C264.5 89.5984 264.5 89.5984 264.5 89.5984C264 89.7984 263.7 90.2984 263.7 90.9984C263.8 90.9984 263.8 90.9984 263.7 90.9984Z" fill="#BE8372"/>
<path d="M268.9 120.098H259.5V122.298H268.9V120.098Z" fill="#212144"/>
<path d="M262.6 122.298H247L241.4 107.398H257L262.6 122.298Z" fill="#ABABFF"/>
<path d="M198.3 158.199C198.2 158.199 198.1 158.099 198.1 157.999V106.899C198.1 106.799 198.2 106.699 198.3 106.699C198.4 106.699 198.5 106.799 198.5 106.899V157.999C198.5 158.099 198.4 158.199 198.3 158.199Z" fill="#212144"/>
<path d="M212.6 166.099L198.3 158.199L184.1 166.099C184 166.199 183.9 166.099 183.8 165.999C183.7 165.899 183.8 165.799 183.9 165.699L198.3 157.699L212.7 165.699C212.8 165.799 212.8 165.899 212.8 165.999C212.8 166.099 212.7 166.099 212.6 166.099Z" fill="#212144"/>
<path d="M226.8 54.6992H169.8V111.799H226.8V54.6992Z" fill="white"/>
<path d="M226.9 112H169.7V54.5H226.9V112ZM169.9 111.7H226.6V54.8H169.9V111.7Z" fill="#212144"/>
<path d="M180.8 97H176.4V99H180.8V97Z" fill="#C9C9FC"/>
<path d="M201.3 97.8008H182.2V98.1008H201.3V97.8008Z" fill="#212144"/>
<path d="M180.8 100.801H176.4V102.801H180.8V100.801Z" fill="#5355C9"/>
<path d="M201.3 101.699H182.2V101.999H201.3V101.699Z" fill="#212144"/>
<path d="M180.5 78.6016H178.5V85.2016H180.5V78.6016Z" fill="#C9C9FC"/>
<path d="M184.6 76.6992H182.6V85.2992H184.6V76.6992Z" fill="#C9C9FC"/>
<path d="M188.6 73.1016H186.6V85.2016H188.6V73.1016Z" fill="#C9C9FC"/>
<path d="M192.7 69.9023H190.7V85.2023H192.7V69.9023Z" fill="#C9C9FC"/>
<path d="M196.8 66.6992H194.8V85.2992H196.8V66.6992Z" fill="#C9C9FC"/>
<path d="M200.8 65.1992H198.8V85.1992H200.8V65.1992Z" fill="#C9C9FC"/>
<path d="M204.9 66.8008H202.9V85.2008H204.9V66.8008Z" fill="#C9C9FC"/>
<path d="M208.9 68.6016H206.9V85.2016H208.9V68.6016Z" fill="#C9C9FC"/>
<path d="M213 65.1992H211V85.1992H213V65.1992Z" fill="#C9C9FC"/>
<path d="M217.1 63.3008H215.1V85.2008H217.1V63.3008Z" fill="#C9C9FC"/>
<path d="M221.1 60.8008H219.1V85.2008H221.1V60.8008Z" fill="#C9C9FC"/>
<path d="M222.4 85.4008H175.7V59.8008H176.1V85.0008H222.4V85.4008Z" fill="#212144"/>
<path d="M179.5 81.7992L179.4 81.3992L183.4 80.5992L187.3 77.4992L191.5 75.1992L195.6 71.7992L199.9 70.8992L203.6 73.8992L207.6 76.2992L212 70.5992L216.1 69.2992L220.5 67.1992L220.6 67.5992L216.2 69.6992L212.2 70.9992L207.7 76.7992L203.4 74.1992L199.8 71.2992L195.7 72.1992L191.7 75.4992L187.5 77.7992L183.6 80.9992L179.5 81.7992Z" fill="#5355C9"/>
<path d="M212.5 87.8984H184.1V89.2984H212.5V87.8984Z" fill="#C9C9FC"/>
<path d="M214.4 99.9L218.1 94.1C217 93.4 215.7 93 214.4 93C210.6 93 207.5 96.1 207.5 99.9C207.5 103.7 210.6 106.8 214.4 106.8C218.2 106.8 221.3 103.7 221.3 99.9C221.3 99.8 221.3 99.7 221.3 99.5L214.4 99.9Z" fill="#C9C9FC"/>
<path d="M221.3 99.6016C221.2 97.3016 219.9 95.3016 218.1 94.1016L214.4 99.9016L221.3 99.6016Z" fill="#5355C9"/>
<path d="M151 158.102L150.2 166.002H161.6L156.5 161.302L156.6 158.202L151 158.102Z" fill="#C9C9FC"/>
<path d="M155.4 162.702C155.3 162.702 155.3 162.702 155.2 162.602C155.2 162.502 155.2 162.402 155.3 162.302L156.9 161.602C157 161.602 157.1 161.602 157.2 161.702C157.2 161.802 157.2 161.902 157.1 162.002L155.4 162.702Z" fill="#212144"/>
<path d="M156.4 163.803C156.3 163.803 156.3 163.803 156.2 163.703C156.2 163.603 156.2 163.503 156.3 163.403L157.9 162.703C158 162.703 158.1 162.703 158.2 162.803C158.2 162.903 158.2 163.003 158.1 163.103L156.4 163.803Z" fill="#212144"/>
<path d="M150.5 162.703C151.3 162.803 152.1 163.103 152.7 163.803C153.2 164.403 153.4 165.203 153.5 166.003C153.5 166.203 153.9 166.203 153.9 166.003C153.8 165.103 153.6 164.303 153 163.603C152.4 162.903 151.5 162.503 150.6 162.403C150.4 162.303 150.3 162.703 150.5 162.703Z" fill="#212144"/>
<path d="M137.6 158.199L136.7 165.999H126.1L130.3 161.799L132.1 158.199H137.6Z" fill="#C9C9FC"/>
<path d="M132 162.698C131.9 162.698 131.9 162.698 132 162.698L130.3 161.998C130.2 161.998 130.2 161.798 130.2 161.698C130.2 161.598 130.4 161.598 130.5 161.598L132.1 162.298C132.2 162.298 132.2 162.498 132.2 162.598C132.1 162.598 132 162.698 132 162.698Z" fill="#212144"/>
<path d="M131 163.799C130.9 163.799 130.9 163.799 131 163.799L129.3 163.099C129.2 163.099 129.2 162.899 129.2 162.799C129.2 162.699 129.4 162.699 129.5 162.699L131.1 163.399C131.2 163.399 131.2 163.599 131.2 163.699C131.1 163.699 131.1 163.799 131 163.799Z" fill="#212144"/>
<path d="M136.9 162.399C136 162.499 135.1 162.899 134.5 163.599C133.9 164.299 133.7 165.199 133.6 165.999C133.6 166.199 134 166.199 134 165.999C134.1 165.199 134.3 164.399 134.8 163.799C135.4 163.199 136.2 162.899 137 162.699C137.3 162.699 137.2 162.299 136.9 162.399Z" fill="#212144"/>
<path d="M139.9 105.299L129.1 159.999H139.2L151.9 101.199L139.9 105.299Z" fill="#5355C9"/>
<path d="M147.9 104.599L149.7 159.699H158.6L158.2 101.699L147.9 104.599Z" fill="#5355C9"/>
<path d="M156.8 103.899L141.4 105.899L141.8 79.0992L154.3 78.6992L156.8 103.899Z" fill="white"/>
<path d="M149.6 71.2016V78.1016C149.6 80.0016 149.4 81.4016 147.4 81.5016C146.1 81.6016 144.4 80.8016 143.9 79.7016C143.7 79.2016 143.5 78.6016 143.5 78.0016V71.1016L149.6 71.2016Z" fill="#BE8372"/>
<path d="M149.6 74V77.2C147.9 76.8 145.8 75.4 144.8 74H149.6Z" fill="#835D51"/>
<path d="M149.6 75.5008C149.5 75.5008 149.4 75.6008 149.2 75.6008C148.2 75.8008 146.8 75.6008 145.5 74.9008C144.8 74.5008 144.1 74.0008 143.6 73.2008C143.5 73.0008 143.3 72.8008 143.2 72.6008L143 71.7008L142.6 70.4008L141.6 66.8008L146.7 64.3008C146.7 64.3008 150.6 65.1008 150.9 65.3008C150.8 66.0008 150.8 66.7008 150.8 67.4008C150.8 68.4008 150.9 69.3008 151 70.2008C151.1 71.0008 151.2 71.7008 151.2 72.4008C151.3 73.9008 151 75.1008 149.6 75.5008Z" fill="#BE8372"/>
<path d="M142.4 71.8001C142.4 71.8001 143.8 71.3001 143.6 71.0001C143.3 70.6001 142.5 69.2001 143.4 67.7001C143.6 67.4001 144.5 67.2001 144.8 67.0001C145.2 66.9001 145.6 66.7001 146 66.7001C146.6 66.6001 147.2 66.6001 147.8 66.8001C148.6 67.0001 149.4 67.6001 150.3 67.4001C150.9 67.2001 151.6 66.7001 151.8 66.0001C151.9 65.6001 151.8 65.2001 151.6 64.8001C150.5 62.5001 148 62.4001 145.9 62.6001C144.2 62.8001 142.8 63.4001 141.9 65.0001C141.9 65.1001 141.7 65.5001 141.7 65.5001C139.5 65.9001 140.7 70.9001 142.4 71.8001Z" fill="#212144"/>
<path d="M142.9 73.3992C143.728 73.3992 144.4 72.6829 144.4 71.7992C144.4 70.9156 143.728 70.1992 142.9 70.1992C142.071 70.1992 141.4 70.9156 141.4 71.7992C141.4 72.6829 142.071 73.3992 142.9 73.3992Z" fill="#BE8372"/>
<path d="M143.4 67.3008C143.5 68.6008 143.5 70.0008 143.5 71.3008C143.5 71.7008 143.4 71.7008 143.2 71.5008C143 71.3008 142.9 70.9008 142.8 70.5008L142.6 68.4008L143.4 67.3008Z" fill="#212144"/>
<path d="M147.3 69.9023C147.3 70.2023 147.1 70.4023 146.9 70.4023C146.7 70.4023 146.5 70.2023 146.5 69.9023C146.5 69.6023 146.7 69.4023 146.9 69.4023C147.1 69.4023 147.3 69.6023 147.3 69.9023Z" fill="#212144"/>
<path d="M149.5 69.8008C149.5 70.1008 149.3 70.3008 149.1 70.3008C148.9 70.3008 148.7 70.1008 148.7 69.8008C148.7 69.5008 148.9 69.3008 149.1 69.3008C149.3 69.3008 149.5 69.5008 149.5 69.8008Z" fill="#212144"/>
<path d="M148.3 72.4016C148.2 72.3016 148.2 72.2016 148.3 72.2016C148.5 72.1016 148.7 72.0016 148.9 71.9016C149 71.8016 148.9 71.6016 148.7 71.4016C148.5 71.1016 148.2 70.7016 148.1 70.2016C148.1 70.1016 148.1 70.1016 148.2 70.1016C148.3 70.1016 148.3 70.1016 148.3 70.2016C148.3 70.6016 148.6 71.0016 148.8 71.2016C148.9 71.3016 149.2 71.6016 149 71.9016C148.9 72.2016 148.6 72.3016 148.3 72.4016Z" fill="#835D51"/>
<path d="M147.1 72.7031L149.1 73.2031C149.1 73.2031 147.4 74.6031 147.1 72.7031Z" fill="white"/>
<path d="M145.7 69.2016C145.8 69.1016 145.9 69.0016 146.1 68.9016C146.2 68.8016 146.4 68.8016 146.6 68.7016C146.9 68.6016 147.3 68.7016 147.5 69.0016L147.4 69.1016C147.3 69.1016 147.1 69.1016 147 69.1016C146.9 69.1016 146.8 69.1016 146.6 69.1016C146.5 69.1016 146.4 69.1016 146.2 69.2016C146.1 69.2016 146 69.3016 145.8 69.3016L145.7 69.2016Z" fill="#212144"/>
<path d="M149.7 69.1016C149.6 69.1016 149.5 69.0016 149.3 69.0016C149.1 69.0016 149.1 69.0016 149 69.0016C148.9 69.0016 148.8 69.0016 148.7 69.0016C148.6 69.0016 148.5 69.1016 148.4 69.1016L148.3 69.0016C148.4 68.9016 148.5 68.8016 148.6 68.7016C148.7 68.6016 148.9 68.6016 149 68.6016C149.1 68.6016 149.3 68.7016 149.4 68.7016C149.5 68.8016 149.6 68.9016 149.7 69.0016V69.1016Z" fill="#212144"/>
<path opacity="0.2" d="M145.6 72.9031C146.208 72.9031 146.7 72.4106 146.7 71.8031C146.7 71.1956 146.208 70.7031 145.6 70.7031C144.992 70.7031 144.5 71.1956 144.5 71.8031C144.5 72.4106 144.992 72.9031 145.6 72.9031Z" fill="#A44640"/>
<path opacity="0.2" d="M151.2 72.3031C151.1 72.4031 150.9 72.4031 150.8 72.4031C150.2 72.4031 149.7 72.0031 149.7 71.4031C149.7 71.3031 149.7 71.3031 149.7 71.3031C149.7 70.7031 150.2 70.2031 150.8 70.2031C150.9 70.2031 151 70.2031 151 70.2031C151.1 70.9031 151.2 71.6031 151.2 72.3031Z" fill="#A44640"/>
<path d="M143.6 78.1016C150.1 86.9016 146.6 108.702 145.1 112.802L135.4 112.002L138.4 96.0016L133.5 90.5016L143.6 78.1016Z" fill="#EBAE50"/>
<path d="M145.7 95.8008C146.2 94.2008 145.1 92.3008 143 90.3008L141.7 93.0008L145.7 95.8008Z" fill="#212144"/>
<path d="M143 110.202C142.9 110.202 142.9 110.102 142.9 110.102C144.7 104.002 145 95.5016 145.1 89.7016C145.1 89.6016 145.1 89.6016 145.2 89.6016C145.3 89.6016 145.3 89.6016 145.3 89.7016C145.1 101.902 143.9 107.202 143.1 110.202C143.1 110.202 143.1 110.202 143 110.202Z" fill="#212144"/>
<path d="M148.9 90.2007C148.9 89.5007 148.8 88.7007 148.4 88.2007C148.1 87.9007 147.2 88.2007 146.7 88.4007C146.7 88.4007 147.3 85.5007 147.1 85.3007C146.8 85.0007 146.4 85.2007 146.3 85.5007C146 86.0007 145.9 86.6007 145.7 87.1007C145.4 87.9007 145 88.6007 144.4 89.2007C143.9 89.6007 143.3 89.9007 143 90.6007C142.8 91.1007 142.9 91.7007 142.9 92.2007C143 92.8007 143.1 93.4007 143.3 93.9007C143.4 94.2007 143.6 94.4007 143.8 94.6007C144.1 94.7007 144.5 94.5007 144.8 94.4007C145.5 94.1007 146.2 93.9007 146.9 93.7007C147.5 93.5007 148.1 93.2007 148.5 92.7007C148.9 92.2007 148.9 91.7007 148.9 91.0007C148.8 90.8007 148.9 90.5007 148.9 90.2007Z" fill="#BE8372"/>
<path d="M147.2 89.7C147.1 89.7 147.1 89.7 147.1 89.6C147.1 89.5 147.1 89.4 147.2 89.4L148.7 89C148.8 89 148.9 89 148.9 89.1C148.9 89.2 148.9 89.3 148.8 89.3L147.2 89.7Z" fill="#835D51"/>
<path d="M147.3 90.8992C147.2 90.8992 147.2 90.8992 147.2 90.7992C147.2 90.6992 147.2 90.5992 147.3 90.5992L148.8 90.1992C148.9 90.1992 149 90.1992 149 90.2992C149 90.3992 149 90.4992 148.9 90.4992L147.3 90.8992Z" fill="#835D51"/>
<path d="M147.2 92.0984C147.1 92.0984 147.1 92.0984 147.1 91.9984C147.1 91.8984 147.1 91.7984 147.2 91.7984L148.7 91.3984C148.8 91.3984 148.9 91.3984 148.9 91.4984C148.9 91.5984 148.9 91.6984 148.8 91.6984L147.2 92.0984Z" fill="#835D51"/>
<path d="M145.7 95.6984C144 97.2984 142.2 98.7984 140.2 99.9984C138.3 101.198 136.1 102.398 133.9 102.498C130.4 102.698 128.9 98.8984 129 95.8984C129.2 92.4984 130.9 89.3984 132.6 86.4984C134.2 83.5984 136.5 80.9984 139.6 79.5984H139.7L143.6 77.8984V77.9984C143.6 78.5984 143.7 79.1984 144 79.6984L137.8 92.8984L143.1 90.1984C143.5 92.0984 144.4 93.8984 145.7 95.6984Z" fill="#EBAE50"/>
<path d="M134.2 94.5984C134.1 94.4984 134.1 94.3984 134.1 94.3984L142.8 89.8984C142.9 89.8984 142.9 89.8984 142.9 89.8984V89.9984L134.2 94.5984Z" fill="#212144"/>
<path d="M137.3 101.702C137.2 101.602 137.2 101.602 137.2 101.502L145.6 95.6016H145.7V95.7016L137.3 101.702Z" fill="#212144"/>
<path d="M136.6 93.2984C136.5 93.2984 136.5 93.1983 136.5 93.1983L139 87.2984C139 87.2984 139.1 87.1984 139.1 87.2984C139.2 87.2984 139.2 87.3983 139.2 87.3983L136.6 93.2984Z" fill="#212144"/>
<path d="M144.4 89.0008L141 84.1008L142.5 79.4008L142.6 79.3008C142.7 79.3008 142.7 79.4008 142.7 79.4008L141.2 84.0008L144.4 88.8008C144.5 88.9008 144.5 89.0008 144.4 89.0008Z" fill="#212144"/>
<path d="M185.4 79.6984C185.3 80.6984 184.3 80.4984 183.9 81.3984C183.3 82.3984 181.8 83.4984 180.6 82.7984C180 82.3984 179.5 81.7984 179.2 81.0984C178.8 80.0984 179.8 78.5984 180.4 77.8984C180.9 77.0984 182.2 76.8984 183 76.8984C183.6 76.8984 184.2 77.3984 184.6 77.8984C184.9 78.2984 185.4 78.9984 185.4 79.6984Z" fill="#BE8372"/>
<path d="M185.8 79.4999C186 79.8999 185.5 80.2999 184.9 80.4999C184.3 80.7999 183.7 80.8999 183.5 80.4999C183.3 80.0999 183.8 79.6999 184.4 79.4999C185 79.1999 185.5 78.9999 185.8 79.4999Z" fill="#BE8372"/>
<path d="M185.7 78.5974C185.9 78.9974 185.3 79.3974 184.5 79.6974C183.7 79.9974 183 80.1974 182.9 79.7974C182.7 79.3974 183.3 78.9974 184.1 78.6974C184.9 78.2974 185.5 78.0974 185.7 78.5974Z" fill="#BE8372"/>
<path d="M189.721 66.3681L182.444 78.2109L183.126 78.6297L190.403 66.7869L189.721 66.3681Z" fill="#212144"/>
<path d="M180.4 77.9983C180.9 78.0983 181.3 77.4983 181.8 77.5983C182.5 77.7983 183 77.6983 183.8 77.3983C184.2 77.1983 184.8 76.7983 184.8 76.2983C184.8 76.0983 184.8 75.9983 184.6 75.8983C184.4 75.7983 184.2 75.9983 184 76.0983C183 76.7983 181.5 76.1983 180.4 77.9983Z" fill="#BE8372"/>
<path d="M185.1 77.6978C185.3 77.9978 185 78.4978 184.3 78.9978C183.6 79.4978 183.1 79.6978 183 79.2978C182.9 78.9978 182.9 78.5978 183.6 78.0978C184.3 77.4978 184.7 77.1978 185.1 77.6978Z" fill="#BE8372"/>
<path d="M181.5 80.1992C181.4 80.0992 181.4 80.0992 181.4 79.9992C182 79.4992 182.2 78.9992 182 78.2992C182 78.1992 182 78.1992 182.1 78.1992C182.2 78.1992 182.2 78.1992 182.2 78.2992C182.4 78.9992 182.2 79.5992 181.5 80.1992Z" fill="#835D51"/>
<path d="M183.3 79.2C183.2 79.2 183 79.1 182.9 79C182.8 78.9 182.8 78.8 182.8 78.7C182.8 78.6 182.9 78.5 182.9 78.5H183V78.6V78.7V78.8C183.1 78.9 183.1 78.9 183.2 78.9C183.3 78.9 183.8 78.7 183.9 78.7H184V78.8C184 79 183.5 79.2 183.3 79.2Z" fill="#835D51"/>
<path d="M183.7 79.8984C183.6 79.8984 183.5 79.8984 183.4 79.7984C183.3 79.6984 183.3 79.5984 183.3 79.4984C183.3 79.3984 183.5 78.9984 183.6 78.8984H183.7V78.9984C183.6 79.0984 183.5 79.3984 183.4 79.4984V79.5984C183.4 79.5984 183.5 79.6984 183.6 79.5984C183.9 79.5984 184.1 79.4984 184.4 79.3984C184.5 79.3984 184.5 79.3984 184.5 79.4984C184.5 79.4984 184.5 79.5984 184.4 79.5984C184.1 79.6984 183.8 79.7984 183.6 79.7984C183.8 79.8984 183.8 79.8984 183.7 79.8984Z" fill="#835D51"/>
<path d="M184.2 80.6977C184.1 80.6977 184 80.6977 183.9 80.6977C183.8 80.6977 183.7 80.5977 183.7 80.4977C183.6 80.1977 184 79.7977 184.2 79.5977H184.3V79.6977C184.1 79.7977 183.8 80.1977 183.9 80.2977C183.9 80.2977 183.9 80.2977 184 80.2977C184.2 80.2977 184.4 80.2977 184.6 80.2977C184.7 80.2977 184.7 80.2977 184.7 80.3977C184.7 80.4977 184.7 80.4977 184.6 80.4977C184.5 80.6977 184.4 80.6977 184.2 80.6977Z" fill="#835D51"/>
<path d="M158 88.2977L162.7 91.0977C167.3 93.7977 171.8 93.3977 175.9 89.4977L182.3 83.3977L178.3 79.1977C175.5 81.8977 170.1 87.1977 165.6 84.0977L160.6 80.4977C158.7 79.1977 156.5 78.2977 154.1 77.8977L149.5 77.0977C148.9 84.2977 151.4 101.098 154.4 110.798L162.8 107.598C161.6 103.198 159.3 93.5977 158 88.2977Z" fill="#EBAE50"/>
<path d="M159.2 93.6008C159.1 93.6008 159.1 93.6008 159.1 93.5008L157.2 84.4008C157.2 84.4008 157.2 84.3008 157.3 84.3008C157.4 84.3008 157.4 84.3008 157.4 84.4008L159.3 93.5008L159.2 93.6008Z" fill="#212144"/>
<path d="M155.9 108.001C155.8 108.001 155.8 108.001 155.8 107.901L152 87.6008L153.4 83.6008L150.3 77.9008V77.8008C150.4 77.8008 150.4 77.8008 150.4 77.8008L153.5 83.6008L152.1 87.6008L155.9 107.901C156 108.001 156 108.001 155.9 108.001Z" fill="#212144"/>
<path d="M180.5 83.7992C180.4 83.7992 180.4 83.7992 180.5 83.7992L177.6 80.7992V80.6992H177.7L180.5 83.5992C180.6 83.6992 180.6 83.6992 180.5 83.7992Z" fill="#212144"/>
<path d="M143.7 95.5016C142.6 94.7016 142 93.5016 141.6 91.7016C141.6 91.7016 141.6 91.6016 141.7 91.6016C141.8 91.6016 141.8 91.6016 141.8 91.7016C142.1 93.4016 142.8 94.6016 143.7 95.4016C143.8 95.3016 143.9 95.4016 143.7 95.5016C143.8 95.5016 143.8 95.4016 143.7 95.5016Z" fill="#212144"/>
<path d="M148.1 118.599C148 118.599 148 118.499 148 118.499L149.1 112.799C149.1 112.699 149.2 112.699 149.2 112.699C149.3 112.699 149.3 112.799 149.3 112.799L148.1 118.599C148.2 118.599 148.2 118.599 148.1 118.599Z" fill="#212144"/>
<path d="M255.1 122.199H253.8V165.999H255.1V122.199Z" fill="#212144"/>
<path d="M308.2 122.199H306.9V165.999H308.2V122.199Z" fill="#212144"/>
<path d="M331 122.102H234.9V124.502H331V122.102Z" fill="white"/>
<path d="M331.2 124.7H234.8V122H331.2V124.7ZM235.1 124.4H331V122.2H235.1V124.4Z" fill="#212144"/>
<path d="M339.8 153L346.1 159.9L339.7 166.2L339.9 159.8L336.2 156.7L339.8 153Z" fill="#C9C9FC"/>
<path d="M339.8 160.099C339.7 160.099 339.6 159.999 339.6 159.999C339.6 159.899 339.6 159.799 339.7 159.799L341.5 159.199C341.6 159.199 341.7 159.199 341.7 159.299C341.7 159.399 341.7 159.499 341.6 159.499L339.8 160.099Z" fill="#212144"/>
<path d="M339.9 161.599C339.8 161.599 339.7 161.499 339.7 161.499C339.7 161.399 339.7 161.299 339.8 161.299L341.6 160.699C341.7 160.699 341.8 160.699 341.8 160.799C341.8 160.899 341.8 160.999 341.7 160.999L339.9 161.599Z" fill="#212144"/>
<path d="M344.299 161.4C343.499 161.2 343 160.5 343 159.7C343 158.9 343.4 158.3 344.1 158C344.2 158 344.299 158 344.299 158.1C344.299 158.2 344.3 158.3 344.2 158.3C343.4 158.6 343.4 159.3 343.4 159.6C343.4 160.2 343.8 160.8 344.4 161C344.5 161 344.6 161.1 344.5 161.2C344.5 161.4 344.399 161.4 344.299 161.4Z" fill="#212144"/>
<path d="M320.9 106.3L316.2 124.9C315 129.6 316.2 134.6 319.3 138.2L336.4 158L342.3 152.9L327.4 132.9L329.7 103L320.9 106.3Z" fill="#EBAE50"/>
<path d="M320.7 111.898C320.6 111.798 320.6 111.898 320.7 111.898C320.6 111.798 320.6 111.698 320.7 111.698C322.4 110.998 323.2 109.298 322.9 106.498C322.9 106.398 322.9 106.398 323 106.398C323 106.398 323.1 106.398 323.1 106.498C323.3 109.298 322.5 111.098 320.7 111.898Z" fill="#212144"/>
<path d="M336.2 155.9C336.1 155.9 336.1 155.9 336.2 155.9C336.1 155.8 336.1 155.8 336.1 155.7L339.7 153H339.8V153.1L336.2 155.9Z" fill="#212144"/>
<path d="M332.8 157.801L333.2 166.201H322.7L327.4 161.901L327.6 157.801H332.8Z" fill="#C9C9FC"/>
<path d="M329.1 162.902C329 162.902 329 162.902 329.1 162.902L327.3 162.002C327.2 161.902 327.2 161.802 327.2 161.702C327.2 161.602 327.4 161.602 327.5 161.602L329.2 162.502C329.3 162.602 329.3 162.702 329.3 162.802C329.2 162.902 329.1 162.902 329.1 162.902Z" fill="#212144"/>
<path d="M328 164.101L326.2 163.201C326.1 163.101 326.1 163.001 326.1 162.901C326.1 162.801 326.3 162.801 326.4 162.801L328.1 163.701C328.2 163.801 328.2 163.901 328.2 164.001C328.1 164.001 328.1 164.101 328 164.101Z" fill="#212144"/>
<path d="M330.6 166.1C330.5 166.1 330.5 166.1 330.4 166C330 165.3 330.2 164.3 330.8 163.7C331.4 163.1 332.2 162.9 332.9 163.2C333 163.2 333 163.4 333 163.5C333 163.6 332.8 163.6 332.7 163.6C332.1 163.3 331.5 163.5 331 164C330.5 164.5 330.4 165.3 330.7 165.9C330.8 165.9 330.8 166 330.6 166.1Z" fill="#212144"/>
<path d="M327.6 104.699L325 133.099L326.2 159.699L333.9 159.299L337.1 115.399C338.3 111.599 338.6 108.699 338.1 105.199L327.6 104.699Z" fill="#EBAE50"/>
<path d="M335.9 111.701C333.5 111.201 332 108.901 332.2 105.901C332.2 105.801 332.2 105.801 332.3 105.801L332.4 105.901C332.3 107.301 332.6 108.501 333.1 109.501C333.7 110.601 334.7 111.301 335.9 111.501C336 111.501 336 111.601 335.9 111.701C336 111.701 336 111.701 335.9 111.701Z" fill="#212144"/>
<path d="M326.1 159.598C326.1 159.598 326 159.598 326 159.498L324.7 132.098L326.9 109.998C326.9 109.898 326.9 109.898 327 109.898L327.1 109.998L324.9 132.098L326.2 159.398L333.8 159.098L335.6 133.598C335.6 133.498 335.6 133.498 335.7 133.498L335.8 133.598L333.9 159.198C333.9 159.298 333.9 159.298 333.8 159.298L326.1 159.598Z" fill="#212144"/>
<path d="M327.5 158.098C327.5 158.098 327.4 158.098 327.4 157.998C327.4 157.898 327.4 157.898 327.5 157.898L332.8 157.598C332.8 157.598 332.9 157.598 332.9 157.698C332.9 157.698 332.9 157.798 332.8 157.798L327.5 158.098Z" fill="#212144"/>
<path d="M338 85.2995C343.7 79.1995 332.6 78.9995 333.1 73.2995C333.6 67.2995 329.2 67.5995 329.2 67.5995C329.2 67.5995 325.3 64.1995 322.2 67.3995C318.3 71.2995 321.3 73.5995 318.3 76.8995C313.8 81.7995 319.1 87.3995 319.1 87.3995L338 85.2995Z" fill="#212144"/>
<path d="M351 81.5982C351.1 81.4982 354 78.4982 354 78.4982C354 78.4982 355.1 74.0982 355.5 74.5982C355.9 75.0982 355.3 77.8982 355.3 77.8982C355.3 77.8982 357.3 77.8982 357.4 78.2982C357.5 78.6982 357.5 81.4982 353.7 84.4982L351 81.5982Z" fill="#EDBA95"/>
<path d="M354.1 78.8C354 78 353.6 76.5 353.3 76.5C353 76.5 353 77.6 352.9 78.5C352.9 79.9 352.2 81 352.5 81.1C353.1 81.2 354.2 79.4 354.1 78.8Z" fill="#EDBA95"/>
<path d="M355.3 79.7984H355.2C355.1 79.6984 355 79.5984 355 79.3984C355 79.0984 355.1 78.7984 355.2 78.4984L355.3 78.3984L355.4 78.4984C355.3 78.7984 355.2 79.0984 355.2 79.3984C355.2 79.4984 355.2 79.5984 355.3 79.5984H355.4C355.6 79.4984 355.8 79.1984 355.9 78.7984C355.9 78.6984 356 78.6984 356 78.6984L356.1 78.7984C356 79.0984 355.9 79.5984 355.6 79.7984C355.5 79.6984 355.4 79.7984 355.3 79.7984Z" fill="#BE8372"/>
<path d="M355.9 79.9984C355.8 79.9984 355.8 79.9984 355.7 79.8984C355.6 79.7984 355.6 79.6984 355.6 79.5984C355.6 79.3984 355.7 79.0984 355.7 78.8984L355.8 78.7984L355.9 78.8984C355.8 79.0984 355.8 79.2984 355.8 79.4984C355.8 79.5984 355.8 79.5984 355.8 79.5984C355.8 79.5984 355.8 79.5984 355.9 79.5984L356 79.4984C356.2 79.1984 356.4 78.7984 356.5 78.4984C356.5 78.3984 356.6 78.3984 356.6 78.3984L356.7 78.4984C356.6 78.8984 356.4 79.2984 356.2 79.5984C356.2 79.6984 356.1 79.6984 356 79.7984C356 79.9984 355.9 79.9984 355.9 79.9984Z" fill="#BE8372"/>
<path d="M356.6 80C356.5 80 356.5 80 356.4 79.9C356.3 79.8 356.3 79.7 356.3 79.6C356.3 79.5 356.3 79.4 356.3 79.2C356.3 79.1 356.3 79 356.3 78.9C356.3 78.8 356.4 78.8 356.4 78.8C356.5 78.8 356.5 78.9 356.5 78.9C356.5 79 356.5 79.1 356.4 79.2C356.4 79.3 356.4 79.4 356.4 79.6C356.4 79.7 356.4 79.7 356.4 79.7C356.4 79.7 356.4 79.7 356.5 79.7L356.6 79.6C356.8 79.3 357 78.9 357.1 78.6C357.1 78.5 357.2 78.5 357.2 78.5C357.3 78.5 357.3 78.6 357.3 78.6C357.2 79 357 79.4 356.8 79.7C356.8 79.9 356.8 80 356.6 80Z" fill="#BE8372"/>
<path d="M354.4 80.5992C354.3 80.5992 354.3 80.4992 354.3 80.4992C354.5 79.7992 354.4 79.2992 354 78.7992V78.6992H354.1C354.5 79.1992 354.6 79.7992 354.4 80.4992C354.5 80.5992 354.4 80.5992 354.4 80.5992Z" fill="#BE8372"/>
<path d="M332.9 87.7984L340.7 92.8984C342.6 94.2984 345.3 94.2984 347 92.5984C347.5 92.0984 354.9 84.2984 354.9 84.2984L352.1 80.2984L344.4 87.6984L337.2 81.9984C336.6 81.5984 336 81.2984 335.3 81.1984L326.4 79.8984C326.4 79.8984 332.7 87.6984 332.9 87.7984Z" fill="#ABABFF"/>
<path d="M305.1 108.302L303.4 110.602C301 110.802 299.3 111.702 297.9 113.202H307L308.9 108.102L305.1 108.302Z" fill="#EDBA95"/>
<path d="M326.2 80C323.8 81.2 321.6 82.1 319.2 83.5C318.5 83.9 317.7 84.6 317 85.5C316.1 86.5 315.4 87.7 314.9 88.9L311.5 96.5L303.8 110.2L309.2 110.3L316.3 98.6L326.2 80Z" fill="#ABABFF"/>
<path d="M321.4 85.5C316.1 89 320.6 96.5 319.7 106.4C319.6 107.6 320.7 108.6 321.8 108.3C326.4 107.2 332.2 106.9 336.8 107.2C337.9 107.3 338.8 106.4 338.7 105.3C337.2 99.6 336.5 93.3 336.8 86.2L329.1 80L323.6 81.6L321.4 85.5Z" fill="#ABABFF"/>
<path d="M324.8 73.5977V81.1977C324.8 82.8977 326.4 83.3977 327.6 83.3977C328.6 83.3977 330.1 82.7977 330.1 81.1977V73.5977H324.8Z" fill="#EDBA95"/>
<path d="M324.8 77.0977V80.6977C326.2 80.3977 328.1 79.0977 328.7 77.3977L324.8 77.0977Z" fill="#BE8372"/>
<path d="M331.6 69.9L330.2 74.5C329.9 75.8 329.8 76.7 328.7 77.5C327.1 78.7 325.2 79 324.6 78.6C323.5 77.9 323.1 77.3 323 76.4C322.9 75.8 322.9 75.1 323 74.1C323 72.9 323 71.2 322.9 68.9C322.9 68.6 327 67 327 67L331.6 69.9Z" fill="#EDBA95"/>
<path d="M330.4 73.6984C330.1 72.4984 329.2 72.4984 328.7 70.2984C325.8 71.8984 324.2 68.8984 321.7 73.2984L321.8 69.6984L323.4 67.5984L326.5 66.8984L331.6 68.8984L332.4 71.2984L330.4 73.6984Z" fill="#212144"/>
<path d="M331.547 74.373C331.798 73.5834 331.361 72.74 330.572 72.4893C329.782 72.2385 328.939 72.6753 328.688 73.4649C328.437 74.2545 328.874 75.0978 329.664 75.3486C330.453 75.5993 331.296 75.1626 331.547 74.373Z" fill="#EDBA95"/>
<path d="M319.3 96.7969C319.3 96.7969 319.2 96.7969 319.2 96.6969L318.2 89.8969C318.2 89.8969 318.2 89.7969 318.3 89.7969C318.3 89.7969 318.4 89.7969 318.4 89.8969L319.4 96.6969L319.3 96.7969Z" fill="#212144"/>
<path d="M338.9 91.8991L334.4 88.6991V88.5991C334.4 88.5991 334.5 88.4991 334.5 88.5991L338.9 91.7991C339 91.6991 339.1 91.7991 338.9 91.8991C339 91.8991 339 91.8991 338.9 91.8991Z" fill="#212144"/>
<path d="M327.1 84.3984C326.1 84.3984 325.1 83.9984 324.4 83.3984V83.2984H324.5C325.9 84.2984 328 84.7984 329.9 82.8984H330V82.9984C329.1 84.0984 328.1 84.3984 327.1 84.3984Z" fill="#212144"/>
<path d="M330.2 104.398C330.1 104.298 330.1 104.198 330.2 104.198C332.3 103.498 333.8 101.398 334.6 97.9984C334.6 97.8984 334.7 97.8984 334.7 97.8984L334.8 97.9984C333.9 101.598 332.5 103.598 330.2 104.398C330.3 104.398 330.3 104.398 330.2 104.398Z" fill="#212144"/>
<path d="M313.3 97.5992C313.2 97.5992 313.2 97.5992 313.3 97.5992L311.6 96.8992L311.5 96.7992C311.5 96.6992 311.6 96.6992 311.6 96.6992L313.3 97.3992C313.3 97.3992 313.4 97.4992 313.3 97.5992Z" fill="#212144"/>
<path d="M343.2 88.8977C343.1 88.7977 343.1 88.7977 343.1 88.6977L344.3 87.5977H344.4V87.6977L343.2 88.8977Z" fill="#212144"/>
<path d="M323.8 73.2984C323.8 73.4984 324 73.6984 324.1 73.6984C324.3 73.6984 324.4 73.4984 324.4 73.2984C324.4 73.0984 324.2 72.8984 324.1 72.8984C323.9 72.8984 323.8 73.0984 323.8 73.2984Z" fill="#212144"/>
<path d="M325.2 75.3961C325.1 75.3961 325.1 75.3961 325.2 75.3961C325 75.2961 324.7 75.2961 324.6 75.0961C324.4 74.8961 324.6 74.5961 324.7 74.4961C324.9 74.2961 325.1 73.9961 325.1 73.5961C325.1 73.5961 325.1 73.4961 325.2 73.4961C325.3 73.4961 325.3 73.4961 325.3 73.5961C325.3 73.9961 325.1 74.3961 324.9 74.5961C324.8 74.7961 324.7 74.8961 324.8 74.9961C324.9 75.0961 325.1 75.1961 325.3 75.1961L325.4 75.2961C325.2 75.3961 325.2 75.3961 325.2 75.3961Z" fill="#BE8372"/>
<path d="M326.2 75.5977L324.5 75.9977C324.5 75.9977 325.5 77.2977 326.2 75.5977Z" fill="white"/>
<path d="M327 72.2977C326.9 72.1977 326.7 72.1977 326.6 72.0977C326.5 72.0977 326.3 71.9977 326.2 71.9977C326.1 71.9977 326 71.9977 325.8 71.9977C325.6 71.9977 325.6 72.0977 325.5 72.1977L325.4 72.0977C325.5 71.8977 325.6 71.7977 325.7 71.6977C325.8 71.5977 326 71.5977 326.2 71.5977C326.4 71.5977 326.5 71.5977 326.7 71.6977C326.9 71.9977 327 72.0977 327 72.2977Z" fill="#212144"/>
<path d="M323.4 72.5977C323.5 72.2977 323.7 72.0977 324 72.0977C324.1 72.0977 324.3 72.0977 324.4 72.0977C324.5 72.0977 324.6 72.1977 324.7 72.2977L324.6 72.3977C324.5 72.3977 324.4 72.2977 324.3 72.2977C324.2 72.2977 324.1 72.2977 324 72.2977C323.9 72.2977 323.8 72.3977 323.7 72.3977C323.6 72.3977 323.6 72.5977 323.4 72.5977Z" fill="#212144"/>
<path opacity="0.5" d="M324 75.0977C324 75.6977 323.6 76.1977 323 76.2977C322.9 75.7977 322.9 75.0977 323 74.0977C323.5 74.0977 323.9 74.4977 324 75.0977Z" fill="#E59087"/>
<path opacity="0.5" d="M326.5 74.5995C326.5 75.1995 327.1 75.6995 327.7 75.5995C328.3 75.4995 328.8 74.9995 328.7 74.3995C328.7 73.7995 328.1 73.2995 327.5 73.3995C326.9 73.3995 326.5 73.9995 326.5 74.5995Z" fill="#E59087"/>
<path d="M326 73.0992C326 73.2992 326.2 73.4992 326.3 73.4992C326.5 73.4992 326.6 73.2992 326.6 73.0992C326.6 72.8992 326.4 72.6992 326.3 72.6992C326.1 72.6992 326 72.7992 326 73.0992Z" fill="#212144"/>
<path d="M329.9 74.4977C329.9 74.4977 329.8 74.4977 329.8 74.3977C329.8 73.5977 330.1 73.1977 330.7 73.0977C330.7 73.0977 330.8 73.0977 330.8 73.1977C330.8 73.2977 330.8 73.2977 330.7 73.2977C330.1 73.3977 329.9 73.7977 329.9 74.3977C330 74.3977 330 74.4977 329.9 74.4977Z" fill="#BE8372"/>
<path d="M310.3 113.199H293.7V121.999H310.3V113.199Z" fill="white"/>
<path d="M310.5 122.198H293.6V113.098H310.5V122.198ZM293.8 121.898H310.1V113.398H293.8V121.898Z" fill="#212144"/>
<path opacity="0.6" d="M310.3 116.097L293.8 118.597V114.797L310.3 116.097Z" fill="#C9C9FC"/>
<path d="M311.7 113.199H292.3V115.999H311.7V113.199Z" fill="white"/>
<path d="M311.8 116.198H292.1V113.098H311.8V116.198ZM292.4 115.898H311.5V113.398H292.4V115.898Z" fill="#212144"/>
<path d="M284.2 77.8C284.2 74 281.2 71 277.4 71C273.6 71 270.6 74.1 270.6 77.8C270.6 81 272.8 83.6 275.7 84.4L275 87L277.4 84.6C281.2 84.7 284.2 81.6 284.2 77.8Z" fill="#ABABFF"/>
<path d="M274.8 78.4C275.187 78.4 275.5 78.0866 275.5 77.7C275.5 77.3134 275.187 77 274.8 77C274.413 77 274.1 77.3134 274.1 77.7C274.1 78.0866 274.413 78.4 274.8 78.4Z" fill="white"/>
<path d="M277.4 78.4C277.787 78.4 278.1 78.0866 278.1 77.7C278.1 77.3134 277.787 77 277.4 77C277.014 77 276.7 77.3134 276.7 77.7C276.7 78.0866 277.014 78.4 277.4 78.4Z" fill="white"/>
<path d="M280 78.4C280.387 78.4 280.7 78.0866 280.7 77.7C280.7 77.3134 280.387 77 280 77C279.613 77 279.3 77.3134 279.3 77.7C279.3 78.0866 279.613 78.4 280 78.4Z" fill="white"/>
<path d="M311.2 81.4L309.1 80.2C309.4 79.5 309.5 78.7 309.5 77.8C309.5 74 306.5 71 302.7 71C298.9 71 296 74 296 77.8C296 81.6 299 84.6 302.8 84.6C305.1 84.6 307.2 83.4 308.4 81.6L311.2 81.4Z" fill="#ABABFF"/>
<path d="M300.2 78.2984C300.587 78.2984 300.9 77.985 300.9 77.5984C300.9 77.2118 300.587 76.8984 300.2 76.8984C299.813 76.8984 299.5 77.2118 299.5 77.5984C299.5 77.985 299.813 78.2984 300.2 78.2984Z" fill="white"/>
<path d="M302.9 78.2984C303.287 78.2984 303.6 77.985 303.6 77.5984C303.6 77.2118 303.287 76.8984 302.9 76.8984C302.513 76.8984 302.2 77.2118 302.2 77.5984C302.2 77.985 302.513 78.2984 302.9 78.2984Z" fill="white"/>
<path d="M305.5 78.2984C305.887 78.2984 306.2 77.985 306.2 77.5984C306.2 77.2118 305.887 76.8984 305.5 76.8984C305.113 76.8984 304.8 77.2118 304.8 77.5984C304.8 77.985 305.113 78.2984 305.5 78.2984Z" fill="white"/>
<path d="M263.9 166.098H109.7C109.6 166.098 109.5 165.998 109.5 165.998C109.5 165.998 109.6 165.898 109.7 165.898H264C264.1 165.898 264.1 165.998 264.1 165.998C264.1 165.998 264 166.098 263.9 166.098Z" fill="#212144"/>
<path d="M359.3 166.197H270.5C270.4 166.197 270.3 166.097 270.3 165.997C270.3 165.897 270.4 165.797 270.5 165.797H359.3C359.4 165.797 359.5 165.897 359.5 165.997C359.5 166.097 359.4 166.197 359.3 166.197Z" fill="#212144"/>
</g>
<defs>
<linearGradient id="paint0_linear_1517_18151" x1="273.074" y1="170" x2="273.074" y2="92.7179" gradientUnits="userSpaceOnUse">
<stop stop-color="white"/>
<stop offset="1" stop-color="#BCCCFF"/>
</linearGradient>
<linearGradient id="paint1_linear_1517_18151" x1="196.926" y1="169.996" x2="196.926" y2="92.7142" gradientUnits="userSpaceOnUse">
<stop stop-color="white"/>
<stop offset="1" stop-color="#BCCCFF"/>
</linearGradient>
<clipPath id="clip0_1517_18151">
<rect width="470" height="170" fill="white"/>
</clipPath>
</defs>
</svg>
