<?xml version="1.0" encoding="utf-8"?>
<!-- Generator: Adobe Illustrator 27.6.1, SVG Export Plug-In . SVG Version: 6.00 Build 0)  -->
<svg version="1.1" xmlns="http://www.w3.org/2000/svg" xmlns:xlink="http://www.w3.org/1999/xlink" x="0px" y="0px"
	 viewBox="0 0 470 140" style="enable-background:new 0 0 470 140;" xml:space="preserve">
<style type="text/css">
	.st0{fill:#BCCCFF;}
	.st1{opacity:0.5;fill:url(#SVGID_1_);}
	.st2{opacity:0.5;fill:url(#SVGID_00000134951569150084902590000010871647838049650313_);}
	.st3{opacity:0.4;}
	.st4{fill:#E3E3FD;}
	.st5{fill:#C9C9FC;}
	.st6{fill:#212144;}
	.st7{fill:#FFFFFF;}
	.st8{fill:#A44640;}
	.st9{fill:#DD5B53;}
	.st10{fill:#5355C9;}
	.st11{fill:#EDBA95;}
	.st12{fill:#BE8372;}
	.st13{opacity:0.5;fill:#E59087;}
	.st14{fill:#ABABFF;}
	.st15{fill:#835D51;}
	.st16{opacity:0.2;fill:#A44640;}
	.st17{fill:#EBAE50;}
	.st18{fill:none;stroke:#212144;stroke-width:4.2942;stroke-linecap:round;stroke-linejoin:round;stroke-miterlimit:10;}
	.st19{opacity:0.6;fill:#C9C9FC;}
</style>
<g id="BACKGROUND">
	<rect class="st0" width="470" height="140"/>
</g>
<g id="OBJECTS">
	<linearGradient id="SVGID_1_" gradientUnits="userSpaceOnUse" x1="273.0692" y1="140" x2="273.0692" y2="62.7202">
		<stop  offset="0" style="stop-color:#FFFFFF"/>
		<stop  offset="1" style="stop-color:#BCCCFF"/>
	</linearGradient>
	<path class="st1" d="M76.14,140c0,0,1.88-50.02,72.64-36.83s55.5-23.03,97.53-12.37s52.3-24.68,76.59-18.82
		c24.29,5.86,57.06-21.84,75.8-1.98c18.73,19.86,86.81,8.07,68.08,36.81c-18.73,28.74-26.5,33.19-63.51,33.19S76.14,140,76.14,140z"
		/>
	
		<linearGradient id="SVGID_00000035509464098168220870000000140496261733151673_" gradientUnits="userSpaceOnUse" x1="196.9308" y1="140" x2="196.9308" y2="62.7202" gradientTransform="matrix(-1 0 0 1 393.8616 0)">
		<stop  offset="0" style="stop-color:#FFFFFF"/>
		<stop  offset="1" style="stop-color:#BCCCFF"/>
	</linearGradient>
	<path style="opacity:0.5;fill:url(#SVGID_00000035509464098168220870000000140496261733151673_);" d="M393.86,140
		c0,0-1.88-50.02-72.64-36.83s-55.5-23.03-97.53-12.37s-52.3-24.68-76.59-18.82S90.04,50.14,71.3,70s-86.81,8.07-68.08,36.81
		S29.73,140,66.74,140S393.86,140,393.86,140z"/>
	<g>
		<g>
			<g class="st3">
				<path class="st4" d="M347.77,82.97c-4.97,19.47-14.72,39.02-32.04,49.21c-2.41,1.42-4.93,2.63-7.5,3.66h-176.8
					c-8.16-11.03-12.94-24.53-13.55-38.24c-0.46-10.48,1.71-21.54,8.5-29.53c9.16-10.78,24.64-13.78,38.78-13.32
					c14.14,0.46,28.23,3.67,42.32,2.42c16.96-1.51,32.61-9.33,47.85-16.92c15.24-7.59,31.03-15.23,48.02-16.31
					c16.99-1.09,35.65,5.97,43.28,21.19C352.43,56.66,350.96,70.47,347.77,82.97z"/>
			</g>
			<g class="st3">
				<path class="st4" d="M238.35,28.36c-3.25,9.64-9.05,14.59-16.73,15.54c-7.67,0.95-15.32-0.78-22.99-0.46
					c-5.31,0.22-10.84-0.33-14.33-5.05c-3.69-4.99-7.17-13.58-3.66-19.63c3.41-5.91,11.14-7.48,16.59-4.25
					c2.03,1.2,4.41,3.16,6.85,3.03c3.92-0.22,7.7-2.52,11.37-4.76c3.67-2.24,7.47-4.48,11.39-4.56
					C236.9,8.01,241.49,19.05,238.35,28.36z"/>
			</g>
		</g>
		<g>
			<path class="st5" d="M214.78,98.25c-0.78,0-1.42-0.65-1.42-1.45c0-0.8,0.64-1.45,1.42-1.45c0.78,0,1.42,0.65,1.42,1.45
				C216.19,97.6,215.56,98.25,214.78,98.25z M214.78,95.74c-0.57,0-1.03,0.48-1.03,1.06s0.46,1.06,1.03,1.06
				c0.57,0,1.03-0.48,1.03-1.06S215.34,95.74,214.78,95.74z"/>
			<path class="st5" d="M113.19,75.61c-0.97,0-1.77-0.84-1.77-1.87c0-1.03,0.79-1.87,1.77-1.87c0.97,0,1.77,0.84,1.77,1.87
				C114.96,74.77,114.17,75.61,113.19,75.61z M113.19,72.26c-0.76,0-1.38,0.66-1.38,1.48c0,0.81,0.62,1.48,1.38,1.48
				c0.76,0,1.38-0.66,1.38-1.48C114.57,72.92,113.95,72.26,113.19,72.26z"/>
			<ellipse class="st5" cx="186.1" cy="116.99" rx="1.37" ry="1.36"/>
			<ellipse class="st5" cx="358.67" cy="68.81" rx="1.76" ry="1.75"/>
			<path class="st5" d="M244.51,58.87c-0.94,0-1.7-0.8-1.7-1.78c0-0.98,0.76-1.78,1.7-1.78c0.94,0,1.7,0.8,1.7,1.78
				C246.21,58.07,245.45,58.87,244.51,58.87z M244.51,55.7c-0.72,0-1.31,0.62-1.31,1.39c0,0.77,0.59,1.39,1.31,1.39
				s1.31-0.62,1.31-1.39C245.82,56.32,245.23,55.7,244.51,55.7z"/>
			<path class="st5" d="M293,71.1l-1.93-1.98l1.97-2.02l1.93,1.98L293,71.1z M291.62,69.13l1.38,1.42l1.42-1.46l-1.38-1.42
				L291.62,69.13z"/>
			
				<rect x="123.28" y="48.26" transform="matrix(0.7071 0.7071 -0.7071 0.7071 71.4839 -73.5349)" class="st5" width="2.46" height="2.51"/>
			<path class="st5" d="M170.57,99.79l-1.93-1.98l1.97-2.02l1.93,1.98L170.57,99.79z M169.19,97.82l1.38,1.42l1.42-1.46l-1.38-1.42
				L169.19,97.82z"/>
			<path class="st5" d="M352.57,38.36l-1.73-1.73l1.76-1.76l1.73,1.73L352.57,38.36z M351.4,36.63l1.17,1.17l1.21-1.21l-1.17-1.17
				L351.4,36.63z"/>
			<g>
				<path class="st5" d="M228.42,101.89h-18.54c-0.11,0-0.2-0.09-0.2-0.2c0-0.11,0.09-0.2,0.2-0.2h18.54c0.11,0,0.2,0.09,0.2,0.2
					C228.62,101.8,228.53,101.89,228.42,101.89z"/>
				<path class="st5" d="M213.39,105.89h-3.51c-0.11,0-0.2-0.09-0.2-0.2s0.09-0.2,0.2-0.2h3.51c0.11,0,0.2,0.09,0.2,0.2
					S213.5,105.89,213.39,105.89z"/>
				<path class="st5" d="M223.48,105.89h-7.25c-0.11,0-0.2-0.09-0.2-0.2s0.09-0.2,0.2-0.2h7.25c0.11,0,0.2,0.09,0.2,0.2
					S223.59,105.89,223.48,105.89z"/>
				<path class="st5" d="M228.42,109.89h-18.54c-0.11,0-0.2-0.09-0.2-0.2s0.09-0.2,0.2-0.2h18.54c0.11,0,0.2,0.09,0.2,0.2
					S228.53,109.89,228.42,109.89z"/>
			</g>
		</g>
		<g>
			<path class="st6" d="M273.19,136.18c-0.11,0-0.2-0.09-0.2-0.2v-31.08c0-0.11,0.09-0.2,0.2-0.2c0.11,0,0.2,0.09,0.2,0.2v31.08
				C273.39,136.09,273.3,136.18,273.19,136.18z"/>
			<g>
				<path class="st7" d="M279.66,135.99h-12.93l0,0c0-1.53,1.24-2.77,2.77-2.77h7.38C278.42,133.21,279.66,134.45,279.66,135.99
					L279.66,135.99z"/>
				<path class="st6" d="M279.8,136.13h-13.22v-0.21c0-1.57,1.28-2.86,2.86-2.86h7.51c1.57,0,2.86,1.28,2.86,2.86V136.13z
					 M266.87,135.84h12.64c-0.04-1.38-1.18-2.48-2.56-2.48h-7.51C268.05,133.36,266.92,134.46,266.87,135.84z"/>
			</g>
			<path class="st5" d="M281.9,106.23h-17.41v-3.21h14.2C280.46,103.01,281.9,104.45,281.9,106.23L281.9,106.23z"/>
		</g>
		<g>
			<g>
				<g>
					<polygon class="st5" points="247.92,128.54 248.6,135.99 238.41,135.99 242.96,131.52 242.9,128.6 					"/>
					<g>
						<line class="st7" x1="242.12" y1="132.25" x2="243.63" y2="132.98"/>
						<path class="st6" d="M243.63,133.17c-0.03,0-0.06-0.01-0.08-0.02l-1.51-0.73c-0.1-0.05-0.14-0.16-0.09-0.26
							c0.05-0.1,0.16-0.14,0.26-0.09l1.51,0.73c0.1,0.05,0.14,0.16,0.09,0.26C243.78,133.13,243.71,133.17,243.63,133.17z"/>
					</g>
					<g>
						<line class="st7" x1="241.14" y1="133.32" x2="242.66" y2="134.05"/>
						<path class="st6" d="M242.66,134.25c-0.03,0-0.06-0.01-0.08-0.02l-1.51-0.73c-0.1-0.05-0.14-0.16-0.09-0.26
							c0.05-0.1,0.16-0.14,0.26-0.09l1.51,0.73c0.1,0.05,0.14,0.16,0.09,0.26C242.8,134.21,242.73,134.25,242.66,134.25z"/>
					</g>
					<path class="st6" d="M245.49,136.05c-0.1,0-0.18-0.08-0.19-0.18c-0.09-0.92,0.24-1.72,0.93-2.26c0.65-0.51,1.53-0.69,2.19-0.45
						c0.1,0.04,0.15,0.15,0.12,0.25c-0.04,0.1-0.15,0.15-0.25,0.12c-0.53-0.19-1.28-0.03-1.82,0.39c-0.58,0.45-0.86,1.13-0.78,1.92
						c0.01,0.11-0.07,0.2-0.18,0.21C245.5,136.05,245.49,136.05,245.49,136.05z"/>
				</g>
				<path class="st8" d="M261.89,95.11l-12.49,2.96c-4.36,1.21-7.44,5.21-7.57,9.89l-0.28,22.06l7.84,0.11l3.97-22.87L261.89,95.11z
					"/>
			</g>
			<g>
				<g>
					<polygon class="st5" points="265.82,126.92 271.46,133.75 263.24,140 264.41,133.63 261.81,130.05 					"/>
					<g>
						<line class="st7" x1="264.34" y1="134.25" x2="265.99" y2="133.92"/>
						<path class="st6" d="M264.34,134.45c-0.09,0-0.17-0.06-0.19-0.16c-0.02-0.11,0.05-0.21,0.15-0.23l1.65-0.33
							c0.11-0.02,0.21,0.05,0.23,0.15c0.02,0.11-0.05,0.21-0.15,0.23l-1.65,0.33C264.37,134.45,264.35,134.45,264.34,134.45z"/>
					</g>
					<g>
						<line class="st7" x1="264.21" y1="135.7" x2="265.86" y2="135.36"/>
						<path class="st6" d="M264.21,135.89c-0.09,0-0.17-0.06-0.19-0.16c-0.02-0.11,0.05-0.21,0.15-0.23l1.65-0.33
							c0.11-0.02,0.21,0.05,0.23,0.15c0.02,0.11-0.05,0.21-0.15,0.23l-1.65,0.33C264.24,135.89,264.23,135.89,264.21,135.89z"/>
					</g>
					<path class="st6" d="M269.65,135.23c-0.04,0-0.08-0.01-0.11-0.03c-0.71-0.47-0.95-1.51-0.87-2.27
						c0.08-0.72,0.41-1.25,0.91-1.45c0.1-0.04,0.21,0.01,0.25,0.11c0.04,0.1-0.01,0.21-0.11,0.25c-0.36,0.14-0.61,0.57-0.67,1.13
						c-0.07,0.67,0.15,1.54,0.7,1.91c0.09,0.06,0.11,0.18,0.05,0.27C269.78,135.2,269.72,135.23,269.65,135.23z"/>
				</g>
				<path class="st9" d="M277.02,97.16l-0.98,4.01c-0.06,0.3-0.19,0.64-0.36,0.99c-0.87,1.79-2.53,2.96-4.35,3.2l-12.83,3.56
					l10.84,19.14l-6.84,4.69l-12.73-18.06c-2.89-4.15-1.99-10.17,1.96-13.04c1.35-0.98,2.39-1.69,2.55-1.66l8.97-4.93L277.02,97.16z
					"/>
			</g>
			<g>
				<path class="st10" d="M252.84,89.41l-0.27,7.96c7.66-1.31,16.32-1.91,24.44-0.21c1.63-3.56,1.09-6.44-0.34-9.74L252.84,89.41z"
					/>
				<path class="st10" d="M250.96,92.25c0,0-6.66,0.58-7.75-4.15c-0.81-3.51,2.19-9.02,4.86-13.03c2.12-3.2,5.01-5.64,8.3-7.07
					l3.75-1.64l5.36,1.93l8.55,5.2l2.15,18.4C276.17,91.88,250.83,92.25,250.96,92.25z"/>
				<g>
					<path class="st11" d="M269.92,85.6c0,0-1.24,0.2-1.24,0.2c-1.09,0.17-2.79,0.53-3.91,0.86c-2.42,0.71-3.44,3.56-3.44,3.56
						l2.22,0.13l3.86-1.66l3.08,0.14L269.92,85.6z"/>
					<g>
						<path class="st12" d="M263.09,90.18c-0.03,0-0.06-0.02-0.08-0.04c-0.03-0.04-0.02-0.11,0.03-0.14l1.93-1.29
							c0.04-0.03,0.11-0.02,0.14,0.03c0.03,0.04,0.02,0.11-0.03,0.14l-1.93,1.29C263.13,90.18,263.11,90.18,263.09,90.18z"/>
						<path class="st12" d="M262.26,90.14c-0.02,0-0.05-0.01-0.07-0.03c-0.04-0.04-0.04-0.1,0-0.14l1.49-1.49
							c0.04-0.04,0.1-0.04,0.14,0c0.04,0.04,0.04,0.1,0,0.14l-1.49,1.49C262.31,90.13,262.28,90.14,262.26,90.14z"/>
					</g>
				</g>
				<path class="st10" d="M262.96,66.15l6.01,1.55c1.61,0.44,3.67,1.52,4.7,2.54c2.79,2.74,7.88,9.89,8.2,14.58
					c0.17,2.45-1.41,4.46-4.47,4.9l-6.71,0.97l-2.04-4.91l6.18-1.56l-5.63-9.03L262.96,66.15z"/>
				<path class="st6" d="M270.64,90.79l-2.09-5.06l6.14-1.58l-5.94-9.47c-0.03-0.05-0.01-0.11,0.03-0.13
					c0.05-0.03,0.11-0.01,0.13,0.03l6.08,9.7l-6.18,1.59l1.95,4.71l6.64-0.96c0.05-0.01,0.1,0.03,0.11,0.08
					c0.01,0.05-0.03,0.1-0.08,0.11L270.64,90.79z"/>
				<path class="st6" d="M261.2,72.04c-1.27,0-2.54-0.52-3.54-1.47c-0.04-0.04-0.04-0.1,0-0.14c0.04-0.04,0.1-0.04,0.14,0
					c1.09,1.02,2.49,1.53,3.85,1.39c1.41-0.14,2.66-0.93,3.62-2.29c0.03-0.04,0.09-0.05,0.14-0.02c0.04,0.03,0.05,0.09,0.02,0.14
					c-0.99,1.4-2.29,2.22-3.76,2.37C261.51,72.03,261.36,72.04,261.2,72.04z"/>
				<path class="st6" d="M252.06,80.56c-0.01,0-0.03,0-0.04-0.01c-0.05-0.02-0.07-0.08-0.05-0.13l2.47-5.27
					c0.02-0.05,0.08-0.07,0.13-0.05c0.05,0.02,0.07,0.08,0.05,0.13l-2.47,5.27C252.14,80.54,252.1,80.56,252.06,80.56z"/>
				<g>
					<path class="st6" d="M254.53,55.67c-0.37-0.57-0.48-1.3-0.3-1.96c0.18-0.66,0.65-1.23,1.26-1.53c0.49-0.24,1.16-0.28,1.5,0.14
						c0.81-0.8,2.19-0.91,3.12-0.26c0.28,0.2,1.04-0.24,1.33-0.31c0.56-0.14,1.12-0.07,1.57,0.35c0.38,0.35,0.54,0.94,0.31,1.39
						c0.27-0.53,2.19,0.17,2.48,0.4c1.49,1.16,1.4,3.71,0.16,5.02c-0.24,0.26-0.62,0.44-0.72,0.78c-0.12,0.43-0.21,0.22-0.06,0.64
						c0.5,1.4-0.65,2.9-2.13,2.79L254.53,55.67z"/>
					<path class="st11" d="M261.86,70.45c-1.63,0.35-3.2-0.74-3.51-2.44l-0.1-0.53l-0.65-3.52l-0.05-0.28l5.9-1.27l0.8,4.32
						C264.55,68.44,263.48,70.1,261.86,70.45z"/>
					<path class="st12" d="M262.41,64.03c-0.84,1.64-2.18,2.82-4.17,3.45l-0.65-3.52L262.41,64.03z"/>
					<path class="st11" d="M261.13,65c-2.45,1.11-4.71,0.61-5.33-2.74c-0.12-0.63-0.18-1.36-0.17-2.2c0-0.23,0.01-0.48,0.02-0.73
						c0.12-2.29-0.53-3.3,0.09-4.07c1.09-1.37,2.78-0.79,4.23-0.79c2.32,0,3.86,1.17,4.01,4.24C264.1,61.16,263.68,63.85,261.13,65z
						"/>
					<path class="st6" d="M254.9,54.32c-1.78,0.44-1.06,3.19,0.55,3.32c0.71,0.06,2.08-0.69,2.1-1.58c-0.01,0.73,0.52,1.44,1.2,1.58
						c0.68,0.15,1.43-0.28,1.69-0.96c0.11,0.39,0.41,0.71,0.78,0.84c0.37,0.13,0.79,0.06,1.1-0.19c-0.22,0.72,0.16,1.52,0.73,1.98
						c0.57,0.46,1.28,0.65,1.98,0.83l-0.97-5.36c0,0-5.13-1.4-5.27-1.4C258.62,53.4,254.9,54.32,254.9,54.32z"/>
					<ellipse class="st11" cx="264.13" cy="60.33" rx="1.41" ry="1.47"/>
					<g>
						<path class="st6" d="M259.23,59.46c0,0.28,0.16,0.51,0.36,0.51s0.36-0.23,0.36-0.51c0-0.28-0.16-0.51-0.36-0.51
							S259.23,59.18,259.23,59.46z"/>
						<path class="st6" d="M257.06,59.36c0,0.28,0.16,0.51,0.36,0.51s0.36-0.23,0.36-0.51s-0.16-0.51-0.36-0.51
							S257.06,59.08,257.06,59.36z"/>
						<path class="st12" d="M258.23,61.92c-0.01,0-0.02,0-0.03-0.01l-0.02-0.01c-0.21-0.07-0.51-0.17-0.64-0.4
							c-0.16-0.28,0.09-0.57,0.19-0.68c0.22-0.26,0.48-0.6,0.49-1.02c0-0.05,0.05-0.1,0.1-0.09c0.05,0,0.1,0.05,0.09,0.1
							c-0.02,0.48-0.3,0.87-0.54,1.15c-0.18,0.2-0.23,0.35-0.17,0.46c0.09,0.16,0.34,0.25,0.53,0.31l0.02,0.01
							c0.05,0.02,0.08,0.07,0.06,0.12C258.31,61.89,258.27,61.92,258.23,61.92z"/>
						<path class="st7" d="M259.4,62.16l-1.97,0.51C257.43,62.67,258.56,64.23,259.4,62.16z"/>
						<path class="st6" d="M260.6,58.91c-0.1-0.14-0.21-0.26-0.33-0.34c-0.12-0.09-0.26-0.14-0.41-0.17
							c-0.14-0.02-0.29-0.02-0.43,0.02c-0.14,0.04-0.27,0.12-0.38,0.24l-0.13-0.06c0.04-0.2,0.19-0.39,0.38-0.49
							c0.19-0.1,0.42-0.13,0.63-0.09c0.21,0.04,0.41,0.14,0.56,0.29c0.15,0.15,0.24,0.35,0.26,0.54L260.6,58.91z"/>
						<path class="st6" d="M256.61,58.61c0.01-0.17,0.12-0.33,0.25-0.44c0.14-0.11,0.31-0.18,0.49-0.18
							c0.18-0.01,0.36,0.04,0.5,0.14c0.14,0.1,0.25,0.24,0.3,0.39l-0.12,0.09c-0.12-0.08-0.23-0.14-0.34-0.18
							c-0.11-0.04-0.22-0.06-0.33-0.05c-0.11,0-0.22,0.03-0.33,0.08c-0.11,0.05-0.2,0.12-0.29,0.22L256.61,58.61z"/>
						<circle class="st13" cx="261" cy="61.1" r="1.11"/>
						<path class="st13" d="M256.9,61.12c0.02,0.55-0.38,1.04-0.94,1.12c-0.05,0.01-0.11,0.01-0.16,0.01
							c-0.12-0.63-0.18-1.36-0.17-2.2c0.6-0.09,1.15,0.32,1.25,0.91l0,0.02C256.9,61.03,256.9,61.08,256.9,61.12z"/>
					</g>
					<path class="st12" d="M263.7,61.01c-0.05,0-0.09-0.04-0.1-0.09c-0.06-0.72,0.2-1.22,0.76-1.49c0.05-0.02,0.11,0,0.13,0.05
						c0.02,0.05,0,0.11-0.05,0.13c-0.49,0.23-0.7,0.66-0.65,1.3C263.8,60.96,263.76,61.01,263.7,61.01
						C263.7,61.01,263.7,61.01,263.7,61.01z"/>
				</g>
			</g>
			<g>
				<rect x="259.5" y="90.14" class="st6" width="9.44" height="2.2"/>
				<polygon class="st14" points="262.56,92.35 246.96,92.35 241.42,77.42 257.01,77.42 				"/>
			</g>
		</g>
		<g>
			<path class="st6" d="M198.26,128.21C198.26,128.21,198.26,128.21,198.26,128.21c-0.11,0-0.2-0.09-0.2-0.2l0.01-51.13
				c0-0.11,0.09-0.2,0.2-0.2c0,0,0,0,0,0c0.11,0,0.2,0.09,0.2,0.2l-0.01,51.13C198.46,128.12,198.37,128.21,198.26,128.21z"/>
			<path class="st6" d="M212.61,136.13c-0.03,0-0.06-0.01-0.09-0.02l-14.25-7.88l-14.25,7.88c-0.09,0.05-0.21,0.02-0.27-0.08
				c-0.05-0.09-0.02-0.21,0.08-0.27l14.44-7.99l14.44,7.99c0.09,0.05,0.13,0.17,0.08,0.27C212.75,136.1,212.68,136.13,212.61,136.13
				z"/>
			<g>
				<rect x="169.79" y="24.7" class="st7" width="56.96" height="57.13"/>
				<path class="st6" d="M226.9,81.97h-57.25V24.55h57.25V81.97z M169.94,81.68h56.67V24.84h-56.67V81.68z"/>
			</g>
			<g>
				<rect x="176.45" y="66.97" class="st5" width="4.37" height="1.99"/>
				<rect x="182.23" y="67.82" class="st6" width="19.11" height="0.29"/>
				<rect x="176.45" y="70.85" class="st10" width="4.37" height="1.99"/>
				<rect x="182.23" y="71.69" class="st6" width="19.11" height="0.29"/>
			</g>
			<g>
				<g>
					<rect x="178.48" y="48.64" class="st5" width="1.97" height="6.57"/>
					<rect x="182.55" y="46.65" class="st5" width="1.97" height="8.56"/>
					<rect x="186.61" y="43.14" class="st5" width="1.97" height="12.07"/>
					<rect x="190.68" y="39.94" class="st5" width="1.97" height="15.28"/>
					<rect x="194.75" y="36.66" class="st5" width="1.97" height="18.56"/>
					<rect x="198.81" y="35.22" class="st5" width="1.97" height="20"/>
					<rect x="202.88" y="36.77" class="st5" width="1.97" height="18.44"/>
					<rect x="206.95" y="38.57" class="st5" width="1.97" height="16.64"/>
					<rect x="211.01" y="35.22" class="st5" width="1.97" height="20"/>
					<rect x="215.08" y="33.33" class="st5" width="1.97" height="21.88"/>
					<rect x="219.15" y="30.82" class="st5" width="1.97" height="24.39"/>
				</g>
				<polygon class="st6" points="222.39,55.37 175.68,55.37 175.68,29.75 176.07,29.75 176.07,54.98 222.39,54.98 				"/>
				<polygon class="st10" points="179.5,51.75 179.43,51.36 183.45,50.64 187.27,47.47 187.29,47.46 191.46,45.16 195.56,41.84 
					199.88,40.89 203.61,43.94 207.63,46.3 211.96,40.62 216.09,39.3 220.47,37.23 220.64,37.58 216.22,39.67 212.2,40.96 
					207.73,46.81 203.37,44.25 199.78,41.31 195.74,42.2 191.68,45.49 191.66,45.5 187.49,47.8 183.62,51.01 				"/>
			</g>
			<rect x="184.08" y="57.87" class="st5" width="28.38" height="1.43"/>
			<g>
				<path class="st5" d="M214.39,69.94l3.73-5.85c-1.08-0.69-2.35-1.09-3.73-1.09c-3.83,0-6.94,3.11-6.94,6.94
					c0,3.83,3.11,6.94,6.94,6.94c3.83,0,6.94-3.11,6.94-6.94c0-0.13-0.01-0.25-0.02-0.38L214.39,69.94z"/>
				<path class="st10" d="M221.32,69.56c-0.12-2.3-1.36-4.3-3.19-5.47l-3.73,5.85L221.32,69.56z"/>
			</g>
		</g>
		<g>
			<g>
				<polygon class="st5" points="150.98,128.15 150.22,136.01 161.61,136.01 156.53,131.3 156.59,128.22 				"/>
				<path class="st6" d="M155.38,132.73c-0.08,0-0.15-0.04-0.18-0.12c-0.04-0.1,0-0.21,0.1-0.26l1.64-0.71c0.1-0.04,0.21,0,0.26,0.1
					c0.04,0.1,0,0.21-0.1,0.26l-1.64,0.71C155.44,132.73,155.41,132.73,155.38,132.73z"/>
				<path class="st6" d="M156.36,133.84c-0.08,0-0.15-0.04-0.18-0.12c-0.04-0.1,0-0.21,0.1-0.26l1.64-0.71c0.1-0.04,0.21,0,0.26,0.1
					c0.04,0.1,0,0.21-0.1,0.26l-1.64,0.71C156.41,133.84,156.39,133.84,156.36,133.84z"/>
				<path class="st6" d="M150.51,132.69c0.83,0.13,1.65,0.4,2.22,1.05c0.53,0.6,0.73,1.41,0.81,2.18c0.03,0.25,0.42,0.25,0.39,0
					c-0.09-0.87-0.32-1.74-0.9-2.42c-0.61-0.71-1.52-1.05-2.42-1.18C150.37,132.28,150.27,132.66,150.51,132.69L150.51,132.69z"/>
			</g>
			<g>
				<polygon class="st5" points="137.61,128.23 136.73,136.01 126.11,136.01 130.32,131.77 132.08,128.22 				"/>
				<path class="st6" d="M131.96,132.67c-0.03,0-0.05-0.01-0.08-0.02l-1.64-0.71c-0.1-0.04-0.14-0.16-0.1-0.26
					c0.04-0.1,0.16-0.14,0.26-0.1l1.64,0.71c0.1,0.04,0.14,0.16,0.1,0.26C132.11,132.62,132.03,132.67,131.96,132.67z"/>
				<path class="st6" d="M130.98,133.78c-0.03,0-0.05-0.01-0.08-0.02l-1.64-0.71c-0.1-0.04-0.14-0.16-0.1-0.26
					c0.04-0.1,0.16-0.14,0.26-0.1l1.64,0.71c0.1,0.04,0.14,0.16,0.1,0.26C131.13,133.73,131.06,133.78,130.98,133.78z"/>
				<path class="st6" d="M136.95,132.35c-0.9,0.14-1.81,0.47-2.42,1.18c-0.58,0.68-0.81,1.55-0.9,2.42c-0.03,0.25,0.36,0.25,0.39,0
					c0.08-0.77,0.29-1.58,0.81-2.18c0.57-0.64,1.39-0.92,2.22-1.05C137.3,132.69,137.2,132.31,136.95,132.35L136.95,132.35z"/>
			</g>
			<polygon class="st10" points="139.89,75.31 129.08,130.04 139.25,130.04 151.87,71.23 			"/>
			<polygon class="st10" points="147.91,74.56 149.66,129.73 158.6,129.73 158.25,71.73 			"/>
			<polygon class="st7" points="156.84,73.87 141.38,75.88 141.76,49.11 154.33,48.74 			"/>
			<g>
				<path class="st12" d="M149.63,41.2v6.9c0,1.91-0.21,3.35-2.16,3.45c-1.26,0.06-3-0.7-3.51-1.76c-0.25-0.5-0.38-1.07-0.38-1.68
					v-6.9H149.63z"/>
				<path class="st15" d="M149.63,43.99v3.24c-1.7-0.43-3.79-1.76-4.81-3.24H149.63z"/>
				<path class="st12" d="M149.63,45.48c-0.12,0.04-0.25,0.07-0.39,0.09c-1.02,0.15-2.41-0.01-3.69-0.7
					c-0.71-0.38-1.38-0.92-1.93-1.66c-0.02-0.02-0.03-0.04-0.04-0.05c-0.14-0.2-0.28-0.41-0.41-0.63l-0.25-0.89l-0.37-1.32
					l-1.03-3.64l5.06-2.5c0,0,3.85,0.8,4.23,1.05c-0.07,0.7-0.07,1.39-0.05,2.07c0.04,0.98,0.14,1.92,0.24,2.81
					c0.09,0.77,0.17,1.5,0.2,2.15C151.27,43.9,151.01,45.1,149.63,45.48z"/>
				<path class="st6" d="M142.38,41.83c0,0,1.42-0.47,1.23-0.76c-0.28-0.44-1.12-1.76-0.24-3.27c0.18-0.3,1.12-0.54,1.43-0.66
					c0.4-0.15,0.8-0.26,1.22-0.33c0.6-0.09,1.21-0.07,1.81,0.09c0.82,0.22,1.62,0.78,2.49,0.56c0.63-0.16,1.34-0.66,1.51-1.36
					c0.1-0.4,0.01-0.82-0.16-1.19c-1.07-2.26-3.65-2.41-5.74-2.21c-1.7,0.16-3.05,0.85-3.96,2.44c-0.03,0.06-0.21,0.48-0.25,0.48
					C139.5,35.92,140.72,40.91,142.38,41.83z"/>
				<ellipse class="st12" cx="142.93" cy="41.82" rx="1.47" ry="1.56"/>
				<path class="st6" d="M143.42,37.32c0.05,1.31,0.14,2.69,0.07,4c-0.02,0.4-0.15,0.36-0.3,0.19c-0.18-0.21-0.32-0.56-0.36-0.97
					l-0.2-2.09L143.42,37.32z"/>
				<g>
					<path class="st6" d="M147.28,39.92c0,0.29-0.17,0.52-0.37,0.52c-0.21,0-0.37-0.23-0.37-0.52s0.17-0.52,0.37-0.52
						C147.11,39.4,147.28,39.63,147.28,39.92z"/>
					<path class="st6" d="M149.51,39.82c0,0.29-0.17,0.52-0.37,0.52c-0.21,0-0.37-0.23-0.37-0.52s0.17-0.52,0.37-0.52
						C149.34,39.3,149.51,39.53,149.51,39.82z"/>
					<path class="st15" d="M148.31,42.43c-0.04,0-0.08-0.03-0.09-0.07c-0.02-0.05,0.01-0.11,0.06-0.12l0.02-0.01
						c0.2-0.07,0.45-0.15,0.55-0.32c0.06-0.11,0.01-0.26-0.17-0.47c-0.25-0.29-0.54-0.68-0.55-1.17c0-0.05,0.04-0.1,0.09-0.1
						c0.05,0,0.1,0.04,0.1,0.09c0.01,0.43,0.28,0.79,0.51,1.05c0.1,0.11,0.36,0.41,0.19,0.7c-0.13,0.23-0.43,0.33-0.65,0.41
						l-0.02,0.01C148.33,42.43,148.32,42.43,148.31,42.43z"/>
					<path class="st7" d="M147.1,42.69l2.02,0.52C149.12,43.21,147.41,44.57,147.1,42.69z"/>
					<path class="st6" d="M145.69,39.21c0.09-0.13,0.21-0.24,0.35-0.33c0.14-0.08,0.3-0.14,0.46-0.16c0.33-0.05,0.68,0.05,0.9,0.28
						l-0.07,0.14c-0.15-0.02-0.28-0.03-0.41-0.04c-0.13-0.01-0.25,0-0.38,0.01c-0.12,0.01-0.25,0.04-0.37,0.08
						c-0.13,0.04-0.25,0.09-0.39,0.14L145.69,39.21z"/>
					<path class="st6" d="M149.74,39.05c-0.13-0.03-0.25-0.06-0.36-0.09c-0.11-0.03-0.22-0.05-0.32-0.05c-0.1-0.01-0.2,0-0.3,0.02
						c-0.1,0.02-0.21,0.06-0.34,0.09l-0.1-0.12c0.07-0.12,0.18-0.23,0.32-0.3c0.13-0.07,0.3-0.1,0.45-0.09
						c0.15,0.01,0.3,0.06,0.42,0.13c0.12,0.07,0.23,0.16,0.31,0.27L149.74,39.05z"/>
					<circle class="st16" cx="145.57" cy="41.79" r="1.13"/>
					<path class="st16" d="M151.2,42.26c-0.14,0.06-0.29,0.09-0.44,0.09c-0.58,0-1.06-0.43-1.13-0.99c0-0.05-0.01-0.09-0.01-0.14
						V41.2c0.01-0.62,0.52-1.11,1.14-1.11c0.08,0,0.16,0.01,0.24,0.03C151.09,40.88,151.17,41.61,151.2,42.26z"/>
				</g>
			</g>
			<path class="st17" d="M143.57,48.09c6.51,8.75,3.02,30.61,1.52,34.67l-9.71-0.75l3.02-16.02l-4.9-5.47L143.57,48.09z"/>
			<path class="st6" d="M145.69,65.75c0.53-1.64-0.65-3.52-2.68-5.51l-1.26,2.71L145.69,65.75z"/>
			<path class="st6" d="M143.02,80.24c-0.01,0-0.02,0-0.03,0c-0.05-0.02-0.08-0.07-0.07-0.12c1.83-6.1,2.15-14.57,2.23-20.42
				c0-0.05,0.04-0.1,0.1-0.1c0,0,0,0,0,0c0.05,0,0.1,0.05,0.1,0.1c-0.17,12.23-1.36,17.54-2.23,20.47
				C143.11,80.21,143.07,80.24,143.02,80.24z"/>
			<g>
				<path class="st12" d="M148.85,60.18c0.01-0.72-0.08-1.47-0.54-2c-0.26-0.3-1.19,0-1.7,0.24c-0.02,0.01,0.62-2.93,0.35-3.15
					c-0.33-0.27-0.67-0.09-0.83,0.22c-0.26,0.51-0.43,1.11-0.63,1.65c-0.3,0.81-0.67,1.51-1.33,2.08c-0.52,0.45-1.13,0.73-1.39,1.42
					c-0.19,0.52-0.13,1.05-0.07,1.58c0.07,0.59,0.18,1.18,0.42,1.73c0.11,0.26,0.27,0.54,0.54,0.65c0.32,0.14,0.72-0.05,1.02-0.17
					c0.69-0.27,1.4-0.52,2.11-0.74c0.58-0.18,1.17-0.48,1.58-0.95c0.42-0.49,0.4-1.04,0.43-1.65
					C148.83,60.8,148.85,60.49,148.85,60.18z M143.53,62.86C143.54,62.86,143.54,62.86,143.53,62.86
					C143.5,62.91,143.5,62.91,143.53,62.86z"/>
				<g>
					<path class="st15" d="M147.16,59.71c-0.07,0-0.13-0.04-0.14-0.11c-0.02-0.08,0.03-0.16,0.11-0.18l1.46-0.36
						c0.08-0.02,0.16,0.03,0.18,0.11c0.02,0.08-0.03,0.16-0.11,0.18l-1.46,0.36C147.18,59.71,147.17,59.71,147.16,59.71z"/>
					<path class="st15" d="M147.26,60.88c-0.07,0-0.13-0.04-0.14-0.11c-0.02-0.08,0.03-0.16,0.11-0.18l1.46-0.36
						c0.08-0.02,0.16,0.03,0.18,0.11c0.02,0.08-0.03,0.16-0.11,0.18l-1.46,0.36C147.28,60.88,147.27,60.88,147.26,60.88z"/>
					<path class="st15" d="M147.22,62.12c-0.07,0-0.13-0.04-0.14-0.11c-0.02-0.08,0.03-0.16,0.11-0.18l1.46-0.36
						c0.08-0.02,0.16,0.03,0.18,0.11c0.02,0.08-0.03,0.16-0.11,0.18l-1.46,0.36C147.25,62.12,147.23,62.12,147.22,62.12z"/>
				</g>
			</g>
			<path class="st17" d="M145.66,65.7c-1.66,1.62-3.52,3.08-5.48,4.32c-1.88,1.19-4.06,2.41-6.34,2.53
				c-3.52,0.18-5.03-3.56-4.89-6.55c0.16-3.4,1.95-6.52,3.58-9.42c1.62-2.91,3.94-5.51,7.03-6.87c0.02-0.01,0.05-0.02,0.07-0.03
				l3.94-1.71v0.12c0,0.61,0.14,1.18,0.38,1.68l-6.22,13.16l5.28-2.7C143.49,62.14,144.42,63.95,145.66,65.7z"/>
			<path class="st6" d="M134.22,64.63c-0.04,0-0.07-0.02-0.09-0.05c-0.02-0.05-0.01-0.11,0.04-0.13l8.71-4.47
				c0.05-0.02,0.11-0.01,0.13,0.04c0.02,0.05,0.01,0.11-0.04,0.13l-8.71,4.47C134.25,64.62,134.24,64.63,134.22,64.63z"/>
			<path class="st6" d="M137.3,71.7c-0.03,0-0.06-0.01-0.08-0.04c-0.03-0.04-0.02-0.1,0.02-0.14l8.37-5.91
				c0.04-0.03,0.11-0.02,0.14,0.02c0.03,0.04,0.02,0.1-0.02,0.14l-8.37,5.91C137.34,71.7,137.32,71.7,137.3,71.7z"/>
			<path class="st6" d="M136.61,63.31c-0.01,0-0.03,0-0.04-0.01c-0.05-0.02-0.07-0.08-0.05-0.13l2.49-5.91
				c0.02-0.05,0.08-0.07,0.13-0.05c0.05,0.02,0.07,0.08,0.05,0.13l-2.49,5.91C136.69,63.28,136.65,63.31,136.61,63.31z"/>
			<path class="st6" d="M144.39,59.01c-0.03,0-0.06-0.02-0.08-0.04l-3.28-4.86l1.51-4.73c0.02-0.05,0.07-0.08,0.12-0.06
				c0.05,0.02,0.08,0.07,0.06,0.12l-1.48,4.64l3.23,4.78c0.03,0.04,0.02,0.11-0.03,0.14C144.43,59.01,144.41,59.01,144.39,59.01z"/>
			<g>
				<g>
					<path class="st12" d="M185.35,49.65c-0.11,1.04-1.07,0.85-1.53,1.7c-0.55,1.03-2.06,2.11-3.26,1.37
						c-0.64-0.39-1.1-1.03-1.35-1.74c-0.35-1.02,0.65-2.46,1.18-3.23c0.52-0.75,1.78-0.98,2.64-0.99c0.57-0.01,1.22,0.46,1.55,1
						C184.94,48.33,185.41,48.99,185.35,49.65z"/>
					<path class="st12" d="M185.76,49.53c0.17,0.4-0.29,0.75-0.92,1.01c-0.63,0.27-1.2,0.36-1.37-0.04
						c-0.18-0.44,0.29-0.75,0.92-1.01C185.02,49.22,185.53,49,185.76,49.53z"/>
					<path class="st12" d="M185.73,48.58c0.17,0.4-0.41,0.78-1.19,1.11c-0.78,0.33-1.46,0.47-1.63,0.08
						c-0.18-0.43,0.41-0.78,1.19-1.11C184.88,48.32,185.51,48.06,185.73,48.58z"/>
					
						<rect x="186.05" y="35.57" transform="matrix(0.852 0.5235 -0.5235 0.852 49.8473 -91.3096)" class="st6" width="0.78" height="13.9"/>
					<path class="st12" d="M180.43,47.99c0.48,0.09,0.95-0.47,1.44-0.37c0.71,0.15,1.19,0.09,1.96-0.21c0.42-0.16,1-0.6,1.01-1.09
						c0-0.15-0.04-0.31-0.16-0.38c-0.18-0.1-0.39,0.05-0.56,0.16c-1.09,0.74-2.58,0.05-3.75,1.87L180.43,47.99z"/>
					<path class="st12" d="M185.06,47.66c0.25,0.35-0.1,0.77-0.84,1.3c-0.74,0.53-1.17,0.67-1.29,0.26
						c-0.08-0.26-0.1-0.65,0.64-1.18C184.31,47.51,184.74,47.2,185.06,47.66z"/>
					<g>
						<path class="st15" d="M181.52,50.15c-0.03,0-0.06-0.01-0.08-0.04c-0.03-0.04-0.03-0.1,0.02-0.14
							c0.58-0.46,0.78-1.02,0.62-1.72c-0.01-0.05,0.02-0.1,0.07-0.12c0.05-0.01,0.1,0.02,0.12,0.07c0.18,0.78-0.05,1.41-0.69,1.92
							C181.56,50.14,181.54,50.15,181.52,50.15z"/>
						<path class="st15" d="M183.28,49.17c-0.15,0-0.29-0.06-0.37-0.17c-0.05-0.07-0.08-0.18-0.06-0.27
							c0.01-0.09,0.06-0.16,0.13-0.2c0.04-0.03,0.11-0.02,0.14,0.03c0.03,0.04,0.02,0.11-0.03,0.14c-0.03,0.02-0.04,0.06-0.04,0.08
							c-0.01,0.04,0,0.09,0.03,0.12c0.05,0.07,0.15,0.1,0.25,0.09c0.13-0.01,0.59-0.16,0.67-0.21c0.04-0.03,0.11-0.02,0.14,0.02
							c0.03,0.04,0.02,0.11-0.02,0.14c-0.12,0.08-0.63,0.23-0.76,0.25C183.32,49.17,183.3,49.17,183.28,49.17z"/>
						<path class="st15" d="M183.74,49.86c-0.09,0-0.21-0.02-0.29-0.11c-0.07-0.08-0.09-0.19-0.06-0.3
							c0.02-0.07,0.25-0.53,0.33-0.59c0.04-0.03,0.1-0.03,0.14,0.01c0.03,0.04,0.03,0.1-0.01,0.14c-0.05,0.05-0.25,0.43-0.27,0.5
							c-0.01,0.04,0,0.09,0.02,0.11c0.03,0.04,0.11,0.05,0.22,0.04c0.27-0.03,0.54-0.13,0.8-0.23c0.05-0.02,0.11,0.01,0.13,0.06
							c0.02,0.05-0.01,0.11-0.06,0.13c-0.27,0.1-0.55,0.2-0.84,0.24C183.82,49.86,183.79,49.86,183.74,49.86z"/>
						<path class="st15" d="M184.21,50.7c-0.09,0-0.17-0.01-0.26-0.03c-0.11-0.02-0.2-0.08-0.23-0.17c-0.11-0.29,0.3-0.74,0.47-0.86
							c0.04-0.03,0.11-0.02,0.14,0.02c0.03,0.04,0.02,0.11-0.02,0.14c-0.16,0.11-0.46,0.49-0.4,0.63c0.01,0.02,0.04,0.04,0.09,0.05
							c0.2,0.04,0.39,0.03,0.56-0.04c0.05-0.02,0.11,0.01,0.12,0.06c0.02,0.05-0.01,0.11-0.06,0.12
							C184.49,50.68,184.35,50.7,184.21,50.7z"/>
					</g>
				</g>
				<path class="st17" d="M158,58.35l4.68,2.76c4.55,2.66,9.05,2.32,13.19-1.57l6.44-6.09l-3.96-4.24c-2.8,2.67-8.2,7.95-12.72,4.87
					c0,0-4.96-3.64-4.96-3.64c-1.95-1.31-4.15-2.21-6.46-2.64l-4.59-0.76c-0.55,7.19,1.93,23.97,4.89,33.65l8.39-3.2
					C161.58,73.15,159.29,63.6,158,58.35z"/>
				<path class="st6" d="M159.17,63.6c-0.05,0-0.09-0.03-0.1-0.08l-1.95-9.08c-0.01-0.05,0.02-0.1,0.07-0.12
					c0.05-0.01,0.1,0.02,0.12,0.07l1.95,9.08c0.01,0.05-0.02,0.1-0.07,0.12C159.18,63.6,159.18,63.6,159.17,63.6z"/>
				<path class="st6" d="M155.89,78.04c-0.05,0-0.09-0.03-0.1-0.08l-3.76-20.36l1.43-3.95l-3.1-5.69c-0.03-0.05-0.01-0.11,0.04-0.13
					c0.05-0.03,0.11-0.01,0.13,0.04l3.15,5.77l-1.44,3.99l3.75,20.3c0.01,0.05-0.03,0.1-0.08,0.11
					C155.9,78.04,155.9,78.04,155.89,78.04z"/>
				<path class="st6" d="M180.46,53.8c-0.03,0-0.05-0.01-0.07-0.03l-2.8-2.93c-0.04-0.04-0.04-0.1,0-0.14c0.04-0.04,0.1-0.04,0.14,0
					l2.8,2.93c0.04,0.04,0.04,0.1,0,0.14C180.5,53.79,180.48,53.8,180.46,53.8z"/>
			</g>
			<path class="st6" d="M143.74,65.46c-0.02,0-0.04-0.01-0.06-0.02c-0.99-0.78-1.64-2.01-1.99-3.77c-0.01-0.05,0.02-0.1,0.08-0.11
				c0.05-0.01,0.1,0.02,0.11,0.08c0.34,1.71,0.96,2.9,1.92,3.65c0.04,0.03,0.05,0.09,0.02,0.14
				C143.8,65.44,143.77,65.46,143.74,65.46z"/>
			<path class="st6" d="M148.13,88.6c-0.01,0-0.01,0-0.02,0c-0.05-0.01-0.09-0.06-0.08-0.11l1.07-5.66
				c0.01-0.05,0.06-0.09,0.11-0.08c0.05,0.01,0.09,0.06,0.08,0.11l-1.07,5.66C148.22,88.56,148.18,88.6,148.13,88.6z"/>
		</g>
		<g>
			<rect x="253.76" y="92.22" class="st6" width="1.33" height="43.75"/>
			<rect x="306.88" y="92.22" class="st6" width="1.33" height="43.75"/>
			<g>
				<rect x="234.93" y="92.08" class="st7" width="96.15" height="2.44"/>
				<path class="st6" d="M331.22,94.67h-96.44v-2.74h96.44V94.67z M235.07,94.38h95.86v-2.15h-95.86V94.38z"/>
			</g>
		</g>
		<path class="st18" d="M332.49,127.67"/>
		<path class="st18" d="M327.51,128.05"/>
		<g>
			<g>
				<g>
					<polygon class="st5" points="339.81,123.03 346.11,129.91 339.69,136.16 339.93,129.83 336.19,126.66 					"/>
					<g>
						<path class="st6" d="M339.82,130.06c-0.08,0-0.16-0.05-0.19-0.14c-0.03-0.1,0.03-0.21,0.13-0.24l1.82-0.56
							c0.1-0.03,0.21,0.03,0.24,0.13c0.03,0.1-0.03,0.21-0.13,0.24l-1.82,0.56C339.86,130.06,339.84,130.06,339.82,130.06z"/>
						<path class="st6" d="M339.85,131.62c-0.08,0-0.16-0.05-0.19-0.14c-0.03-0.1,0.03-0.21,0.13-0.24l1.82-0.56
							c0.1-0.03,0.21,0.03,0.24,0.13c0.03,0.1-0.03,0.21-0.13,0.24l-1.82,0.56C339.89,131.61,339.87,131.62,339.85,131.62z"/>
						<path class="st6" d="M344.31,131.4c-0.02,0-0.04,0-0.06-0.01c-0.7-0.21-1.21-0.92-1.24-1.72c-0.03-0.76,0.36-1.38,1.06-1.66
							c0.1-0.04,0.21,0.01,0.25,0.11c0.04,0.1-0.01,0.21-0.11,0.25c-0.77,0.31-0.83,1-0.82,1.28c0.03,0.64,0.42,1.2,0.97,1.37
							c0.1,0.03,0.16,0.14,0.13,0.24C344.47,131.35,344.39,131.4,344.31,131.4z"/>
					</g>
				</g>
				<g>
					<path class="st17" d="M320.87,76.29l-4.69,18.62c-1.18,4.69-0.01,9.66,3.15,13.33l17.06,19.82l5.85-5.08l-14.93-19.96
						l2.34-29.91L320.87,76.29z"/>
					<path class="st6" d="M320.68,81.86c-0.04,0-0.08-0.02-0.09-0.06c-0.02-0.05,0-0.11,0.05-0.13c1.71-0.68,2.46-2.42,2.22-5.17
						c0-0.05,0.04-0.1,0.09-0.11c0.05,0,0.1,0.04,0.11,0.09c0.25,2.85-0.54,4.65-2.34,5.37C320.7,81.86,320.69,81.86,320.68,81.86z"
						/>
					<path class="st6" d="M336.17,125.87c-0.03,0-0.06-0.01-0.08-0.04c-0.03-0.04-0.02-0.1,0.02-0.14l3.64-2.74
						c0.04-0.03,0.1-0.02,0.14,0.02c0.03,0.04,0.02,0.1-0.02,0.14l-3.64,2.74C336.21,125.86,336.19,125.87,336.17,125.87z"/>
				</g>
			</g>
			<g>
				<g>
					<polygon class="st5" points="332.79,127.77 333.18,136.18 322.73,136.18 327.39,131.85 327.64,127.83 					"/>
					<g>
						<path class="st6" d="M329.07,132.93c-0.03,0-0.06-0.01-0.09-0.02l-1.68-0.89c-0.1-0.05-0.13-0.17-0.08-0.26
							c0.05-0.1,0.17-0.13,0.26-0.08l1.68,0.89c0.1,0.05,0.13,0.17,0.08,0.26C329.21,132.89,329.14,132.93,329.07,132.93z"/>
						<path class="st6" d="M328,134.05c-0.03,0-0.06-0.01-0.09-0.02l-1.68-0.89c-0.1-0.05-0.13-0.17-0.08-0.26
							c0.05-0.1,0.17-0.13,0.26-0.08l1.68,0.89c0.1,0.05,0.13,0.17,0.08,0.26C328.14,134.01,328.07,134.05,328,134.05z"/>
						<path class="st6" d="M330.61,136.13c-0.07,0-0.14-0.04-0.17-0.1c-0.38-0.71-0.22-1.66,0.37-2.32
							c0.57-0.62,1.36-0.79,2.12-0.47c0.1,0.04,0.15,0.16,0.1,0.26c-0.04,0.1-0.16,0.15-0.26,0.1c-0.6-0.26-1.23-0.12-1.68,0.37
							c-0.49,0.53-0.62,1.3-0.32,1.87c0.05,0.1,0.01,0.21-0.08,0.26C330.67,136.12,330.64,136.13,330.61,136.13z"/>
					</g>
				</g>
				<g>
					<path class="st17" d="M327.65,74.67L325,103.05l1.25,26.56l7.68-0.42l3.25-43.92c1.17-3.81,1.46-6.74,0.98-10.2L327.65,74.67z"
						/>
					<path class="st6" d="M335.91,81.71c-0.01,0-0.01,0-0.02,0c-2.43-0.47-3.86-2.75-3.66-5.81c0-0.05,0.05-0.1,0.1-0.09
						c0.05,0,0.09,0.05,0.09,0.1c-0.09,1.36,0.17,2.64,0.72,3.62c0.61,1.07,1.57,1.76,2.78,1.99c0.05,0.01,0.09,0.06,0.08,0.11
						C336,81.68,335.96,81.71,335.91,81.71z"/>
					<path class="st6" d="M326.14,129.64c-0.05,0-0.1-0.04-0.1-0.09l-1.27-27.37c0,0,0-0.01,0-0.01l2.25-22.07
						c0.01-0.05,0.05-0.09,0.11-0.09c0.05,0.01,0.09,0.05,0.09,0.11l-2.25,22.06l1.26,27.27l7.6-0.34l1.84-25.48
						c0-0.05,0.05-0.09,0.1-0.09c0.05,0,0.09,0.05,0.09,0.1l-1.85,25.56c0,0.05-0.04,0.09-0.09,0.09L326.14,129.64
						C326.15,129.64,326.15,129.64,326.14,129.64z"/>
					<path class="st6" d="M327.51,128.14c-0.05,0-0.09-0.04-0.1-0.09c0-0.05,0.04-0.1,0.09-0.1l5.27-0.28c0.05,0,0.1,0.04,0.1,0.09
						c0,0.05-0.04,0.1-0.09,0.1L327.51,128.14C327.52,128.14,327.51,128.14,327.51,128.14z"/>
				</g>
			</g>
			<path class="st6" d="M338.03,55.35c5.72-6.1-5.35-6.3-4.91-12.01c0.46-6.03-3.86-5.71-3.86-5.71s-3.85-3.41-7.03-0.2
				c-3.89,3.94-0.85,6.15-3.86,9.47c-4.48,4.94,0.78,10.45,0.78,10.45L338.03,55.35z"/>
			<g>
				<g>
					<path class="st11" d="M350.95,51.62c0.14-0.11,2.95-3.1,2.95-3.1s1.12-4.44,1.54-3.93c0.42,0.51-0.21,3.29-0.21,3.29
						s1.97-0.04,2.14,0.44c0.17,0.48,0.09,3.22-3.67,6.15L350.95,51.62z"/>
					<path class="st11" d="M354.07,48.75c-0.11-0.81-0.54-2.27-0.81-2.3c-0.27-0.03-0.34,1.1-0.36,1.95
						c-0.03,1.39-0.66,2.5-0.4,2.59C353.08,51.19,354.16,49.38,354.07,48.75z"/>
					<g>
						<path class="st12" d="M355.33,49.75c-0.04,0-0.08-0.01-0.12-0.03c-0.12-0.06-0.18-0.18-0.18-0.38c0-0.32,0.06-0.65,0.18-0.94
							c0.02-0.05,0.08-0.08,0.14-0.06c0.05,0.02,0.08,0.08,0.06,0.14c-0.11,0.27-0.17,0.57-0.17,0.86c0,0.11,0.02,0.17,0.06,0.19
							c0.02,0.01,0.06,0.01,0.1-0.01c0.18-0.11,0.35-0.42,0.45-0.84c0.01-0.06,0.07-0.09,0.13-0.08c0.06,0.01,0.09,0.07,0.08,0.13
							c-0.07,0.28-0.23,0.78-0.54,0.97C355.46,49.73,355.39,49.75,355.33,49.75z"/>
						<path class="st12" d="M355.86,50.02c-0.06,0-0.12-0.02-0.17-0.06c-0.09-0.08-0.1-0.21-0.1-0.29c0.01-0.24,0.06-0.47,0.15-0.68
							c0.02-0.05,0.08-0.08,0.14-0.06c0.05,0.02,0.08,0.08,0.06,0.14c-0.08,0.19-0.13,0.4-0.14,0.61c0,0.07,0.01,0.11,0.02,0.13
							c0.02,0.01,0.05,0.01,0.08,0c0.04-0.02,0.08-0.06,0.11-0.1c0.25-0.3,0.41-0.65,0.48-1.03c0.01-0.06,0.06-0.09,0.12-0.08
							c0.06,0.01,0.09,0.06,0.08,0.12c-0.07,0.41-0.26,0.81-0.53,1.13c-0.05,0.06-0.11,0.12-0.19,0.16
							C355.95,50.01,355.91,50.02,355.86,50.02z"/>
						<path class="st12" d="M356.61,50.02c-0.06,0-0.12-0.02-0.17-0.06c-0.09-0.08-0.1-0.21-0.1-0.29c0.01-0.14,0.03-0.25,0.05-0.39
							c0.02-0.1,0.04-0.2,0.05-0.32c0.01-0.06,0.06-0.1,0.12-0.09c0.06,0.01,0.1,0.06,0.09,0.12c-0.02,0.13-0.04,0.24-0.06,0.33
							c-0.02,0.13-0.05,0.24-0.05,0.36c0,0.07,0.01,0.11,0.02,0.13c0.02,0.01,0.05,0.01,0.08,0c0.04-0.02,0.08-0.06,0.11-0.1
							c0.25-0.29,0.41-0.65,0.48-1.03c0.01-0.06,0.06-0.09,0.12-0.08c0.06,0.01,0.09,0.06,0.08,0.12c-0.07,0.42-0.26,0.81-0.53,1.13
							c-0.05,0.06-0.11,0.12-0.19,0.16C356.7,50.01,356.65,50.02,356.61,50.02z"/>
						<path class="st12" d="M354.38,50.6c-0.01,0-0.02,0-0.03,0c-0.06-0.02-0.09-0.07-0.07-0.13c0.19-0.68,0.1-1.2-0.28-1.65
							c-0.04-0.04-0.03-0.11,0.01-0.15c0.04-0.04,0.11-0.03,0.15,0.01c0.43,0.5,0.54,1.1,0.32,1.84
							C354.46,50.57,354.42,50.6,354.38,50.6z"/>
					</g>
				</g>
				<path class="st14" d="M332.94,57.82l7.8,5.13c1.93,1.44,4.56,1.37,6.26-0.29c0.46-0.46,7.92-8.3,7.92-8.3l-2.75-4.01l-7.74,7.37
					l-7.2-5.65c-0.58-0.43-1.24-0.7-1.93-0.81l-8.89-1.33C326.39,49.93,332.72,57.65,332.94,57.82z"/>
			</g>
			<g>
				<path class="st11" d="M305.12,78.31l-1.73,2.34c-2.44,0.23-4.1,1.11-5.52,2.59l9.1-0.02l1.92-5.11L305.12,78.31z"/>
				<path class="st14" d="M326.17,50.03c-2.42,1.25-4.65,2.1-6.95,3.48c-0.74,0.44-1.5,1.11-2.24,1.98
					c-0.87,1.02-1.56,2.17-2.11,3.38l-3.42,7.59l-7.68,13.74l5.4,0.13l7.1-11.65L326.17,50.03z"/>
			</g>
			<path class="st14" d="M321.37,55.46c-5.28,3.47-0.75,11.04-1.74,20.86c-0.12,1.19,0.95,2.17,2.12,1.9
				c4.59-1.05,10.4-1.45,15.04-1.1c1.08,0.08,1.97-0.84,1.87-1.92c-1.5-5.66-2.18-11.96-1.85-19.07l-7.73-6.2l-5.5,1.57
				L321.37,55.46z"/>
			<path class="st11" d="M324.78,43.58v7.61c0,1.74,1.61,2.21,2.78,2.15c1-0.05,2.51-0.62,2.5-2.15v-7.61H324.78z"/>
			<path class="st12" d="M324.78,47.14v3.57c1.43-0.32,3.3-1.59,3.93-3.34L324.78,47.14z"/>
			<path class="st11" d="M331.62,39.9l-1.42,4.61c-0.27,1.3-0.41,2.2-1.46,3.01c-1.58,1.22-3.46,1.53-4.12,1.09
				c-1.06-0.71-1.46-1.26-1.6-2.17c-0.09-0.58-0.07-1.31-0.05-2.33c0.02-1.22,0.05-2.86-0.09-5.15c-0.02-0.31,4.06-1.91,4.06-1.91
				L331.62,39.9z"/>
			<path class="st6" d="M330.42,43.68c-0.32-1.17-1.16-1.25-1.71-3.37c-2.88,1.61-4.49-1.37-6.97,3.03l0.11-3.61l1.56-2.15l3.1-0.71
				l5.1,2.03l0.83,2.39L330.42,43.68z"/>
			
				<ellipse transform="matrix(0.3027 -0.9531 0.9531 0.3027 188.2511 345.2153)" class="st11" cx="330.05" cy="43.96" rx="1.49" ry="1.47"/>
			<g>
				<path class="st6" d="M319.26,66.77c-0.05,0-0.09-0.04-0.1-0.08l-0.98-6.84c-0.01-0.05,0.03-0.1,0.08-0.11
					c0.05-0.01,0.1,0.03,0.11,0.08l0.98,6.84c0.01,0.05-0.03,0.1-0.08,0.11C319.27,66.77,319.27,66.77,319.26,66.77z"/>
				<path class="st6" d="M338.94,61.89c-0.02,0-0.04-0.01-0.06-0.02l-4.39-3.17c-0.04-0.03-0.05-0.09-0.02-0.14
					c0.03-0.04,0.09-0.05,0.14-0.02l4.39,3.17c0.04,0.03,0.05,0.09,0.02,0.14C339,61.88,338.97,61.89,338.94,61.89z"/>
				<path class="st6" d="M327.11,54.44c-1.01,0-1.96-0.39-2.69-0.95c-0.04-0.03-0.05-0.09-0.02-0.14c0.03-0.04,0.09-0.05,0.14-0.02
					c1.37,1.04,3.52,1.49,5.44-0.35c0.04-0.04,0.1-0.04,0.14,0c0.04,0.04,0.04,0.1,0,0.14C329.13,54.07,328.09,54.44,327.11,54.44z"
					/>
				<path class="st6" d="M330.25,74.39c-0.04,0-0.08-0.03-0.09-0.07c-0.02-0.05,0.01-0.11,0.06-0.12c2.11-0.72,3.56-2.76,4.43-6.23
					c0.01-0.05,0.07-0.08,0.12-0.07c0.05,0.01,0.08,0.07,0.07,0.12c-0.89,3.54-2.38,5.62-4.55,6.37
					C330.27,74.39,330.26,74.39,330.25,74.39z"/>
				<path class="st6" d="M313.26,67.6c-0.01,0-0.02,0-0.04-0.01l-1.69-0.65c-0.05-0.02-0.08-0.08-0.06-0.13
					c0.02-0.05,0.08-0.08,0.13-0.06l1.69,0.65c0.05,0.02,0.08,0.08,0.06,0.13C313.33,67.58,313.29,67.6,313.26,67.6z"/>
				<path class="st6" d="M343.2,58.95c-0.03,0-0.05-0.01-0.07-0.03c-0.04-0.04-0.03-0.1,0.01-0.14l1.22-1.13
					c0.04-0.04,0.1-0.03,0.14,0.01c0.04,0.04,0.03,0.1-0.01,0.14l-1.22,1.13C343.25,58.94,343.22,58.95,343.2,58.95z"/>
			</g>
			<g>
				<path class="st6" d="M323.77,43.33c0.02,0.23,0.17,0.4,0.34,0.38c0.17-0.01,0.3-0.21,0.28-0.43c-0.02-0.23-0.17-0.4-0.34-0.38
					C323.88,42.91,323.76,43.11,323.77,43.33z"/>
				<path class="st12" d="M325.16,45.39c-0.01,0-0.02,0-0.02,0l-0.02-0.01c-0.19-0.05-0.45-0.12-0.58-0.3
					c-0.16-0.23,0.04-0.51,0.12-0.61c0.17-0.23,0.37-0.54,0.35-0.9c0-0.05,0.04-0.1,0.09-0.1c0.05,0,0.1,0.04,0.1,0.09
					c0.02,0.42-0.2,0.76-0.39,1.02c-0.13,0.18-0.17,0.3-0.11,0.38c0.09,0.13,0.3,0.18,0.47,0.22l0.02,0.01
					c0.05,0.01,0.08,0.07,0.07,0.12C325.25,45.36,325.21,45.39,325.16,45.39z"/>
				<path class="st7" d="M326.22,45.57l-1.68,0.44C324.53,46.01,325.5,47.34,326.22,45.57z"/>
				<path class="st6" d="M327.04,42.29c-0.13-0.06-0.26-0.11-0.38-0.15c-0.13-0.04-0.26-0.06-0.38-0.06c-0.13,0-0.25,0.01-0.37,0.05
					c-0.12,0.04-0.23,0.1-0.34,0.19l-0.09-0.07c0.06-0.15,0.18-0.28,0.33-0.36c0.15-0.08,0.32-0.11,0.48-0.11
					c0.16,0.01,0.32,0.05,0.47,0.12c0.14,0.07,0.27,0.17,0.36,0.3L327.04,42.29z"/>
				<path class="st6" d="M323.43,42.61c0.08-0.26,0.33-0.46,0.61-0.51c0.14-0.03,0.29-0.01,0.42,0.03c0.13,0.05,0.25,0.12,0.33,0.23
					l-0.07,0.09c-0.12-0.04-0.22-0.06-0.33-0.07c-0.1-0.01-0.21-0.01-0.31,0.01c-0.1,0.02-0.2,0.05-0.29,0.1
					c-0.09,0.05-0.18,0.11-0.27,0.19L323.43,42.61z"/>
				<path class="st13" d="M323.97,45.09c0.04,0.59-0.37,1.11-0.95,1.2c-0.09-0.55-0.07-1.25-0.05-2.22
					C323.49,44.11,323.92,44.54,323.97,45.09z"/>
				<path class="st13" d="M326.5,44.58c0.05,0.62,0.59,1.08,1.2,1.03c0.62-0.05,1.08-0.59,1.03-1.2c-0.05-0.62-0.59-1.08-1.2-1.03
					C326.91,43.42,326.45,43.96,326.5,44.58z"/>
				<path class="st6" d="M326.01,43.06c0.02,0.23,0.17,0.4,0.34,0.38c0.17-0.01,0.3-0.21,0.28-0.43c-0.02-0.23-0.17-0.4-0.34-0.38
					C326.12,42.65,325.99,42.84,326.01,43.06z"/>
			</g>
			<path class="st12" d="M329.92,44.49c-0.05,0-0.09-0.04-0.1-0.09c-0.05-0.75,0.26-1.2,0.92-1.34c0.05-0.01,0.1,0.02,0.12,0.08
				s-0.02,0.1-0.08,0.12c-0.57,0.12-0.81,0.48-0.77,1.13C330.02,44.44,329.98,44.49,329.92,44.49
				C329.92,44.49,329.92,44.49,329.92,44.49z"/>
		</g>
		<g>
			<g>
				<rect x="293.67" y="83.25" class="st7" width="16.63" height="8.81"/>
				<path class="st6" d="M310.45,92.21h-16.92v-9.1h16.92V92.21z M293.82,91.92h16.34V83.4h-16.34V91.92z"/>
			</g>
			<polygon class="st19" points="310.3,86.06 293.8,88.57 293.8,84.81 			"/>
			<g>
				<rect x="292.28" y="83.25" class="st7" width="19.41" height="2.83"/>
				<path class="st6" d="M311.84,86.23h-19.71v-3.12h19.71V86.23z M292.43,85.94h19.12V83.4h-19.12V85.94z"/>
			</g>
		</g>
		<g>
			<path class="st14" d="M284.21,47.85c0-3.76-3.05-6.81-6.81-6.81c-3.76,0-6.81,3.05-6.81,6.81c0,3.17,2.17,5.83,5.1,6.59
				l-0.73,2.6l2.44-2.38C281.16,54.66,284.21,51.61,284.21,47.85z"/>
			<g>
				<circle class="st7" cx="274.75" cy="47.71" r="0.71"/>
				<circle class="st7" cx="277.39" cy="47.71" r="0.71"/>
				<circle class="st7" cx="280.03" cy="47.71" r="0.71"/>
			</g>
		</g>
		<g>
			<path class="st14" d="M311.24,51.37l-2.07-1.22c0.28-0.74,0.44-1.55,0.44-2.39c0-3.76-3.05-6.81-6.81-6.81
				c-3.76,0-6.81,3.05-6.81,6.81c0,3.76,3.05,6.81,6.81,6.81c2.34,0,4.41-1.18,5.63-2.98L311.24,51.37z"/>
			<g>
				<circle class="st7" cx="300.22" cy="47.56" r="0.71"/>
				<circle class="st7" cx="302.86" cy="47.56" r="0.71"/>
				<circle class="st7" cx="305.49" cy="47.56" r="0.71"/>
			</g>
		</g>
		<path class="st6" d="M263.94,136.14H109.72c-0.08,0-0.15-0.07-0.15-0.15s0.07-0.15,0.15-0.15h154.23c0.08,0,0.15,0.07,0.15,0.15
			S264.02,136.14,263.94,136.14z"/>
		<path class="st6" d="M359.26,136.18h-88.77c-0.11,0-0.2-0.09-0.2-0.2s0.09-0.2,0.2-0.2h88.77c0.11,0,0.2,0.09,0.2,0.2
			S359.37,136.18,359.26,136.18z"/>
	</g>
</g>
</svg>
