<svg width="410" height="170" viewBox="0 0 410 170" fill="none" xmlns="http://www.w3.org/2000/svg">
<path d="M0 10C0 4.47715 4.47715 0 10 0H400C405.523 0 410 4.47715 410 10V170H0V10Z" fill="#B7CEFF"/>
<g clip-path="url(#clip0_685_1457)">
<path d="M31.0222 169.269C31.0222 169.269 11.4837 107.71 43.4325 86.9046C74.2428 66.8388 104.5 84.4393 115.577 60.8068C122.721 45.5647 164.596 31.307 186.476 62.3016C208.356 93.2962 227.164 93.1403 242.26 87.4063C259.57 80.8312 268.561 58.5388 295.661 62.7215C326.983 67.5579 324.993 96.0858 344.488 94.2768C379.937 90.9892 409.92 137.108 369.982 169.652L31.0222 169.269Z" fill="#C7D9FF"/>
<path d="M158.555 169.145C158.555 169.145 151.97 150.813 177.621 150.888C208.876 150.981 189.611 135.729 211.101 128.088C229.032 121.712 247.812 138.977 247.812 138.977C247.812 138.977 268.687 82.6637 296.167 98.6676C323.647 114.672 286.872 145.007 286.872 145.007C286.872 145.007 305.39 156.458 306.841 169.486L158.555 169.145Z" fill="#D3E2FF"/>
<path d="M296.942 164.967C296.942 164.967 316.472 164.464 314.973 158.691C313.473 152.918 296.942 164.967 296.942 164.967Z" fill="#FA7269"/>
<path d="M299.679 161.458C299.679 161.458 311.973 155.123 309.212 151.903C306.452 148.684 299.679 161.458 299.679 161.458Z" fill="#FA7269"/>
<path d="M190.496 157.746C190.496 157.746 184.85 126.317 175.136 125.106C165.421 123.895 171.991 138.358 190.496 157.746Z" fill="#D3E2FF"/>
<path d="M183.608 154.379C183.608 154.379 172.903 137.784 167.078 139.377C161.253 140.97 168.441 147.671 183.608 154.379Z" fill="#D3E2FF"/>
<path d="M301.78 35H237.819C235.806 35 234.173 36.6205 234.173 38.6194V165.601C234.173 167.6 235.806 169.221 237.819 169.221H301.78C303.794 169.221 305.426 167.6 305.426 165.601V38.6194C305.426 36.6205 303.794 35 301.78 35Z" fill="#9CB9F5"/>
<path d="M294.873 35H230.912C228.899 35 227.267 36.6205 227.267 38.6194V165.601C227.267 167.6 228.899 169.221 230.912 169.221H294.873C296.887 169.221 298.519 167.6 298.519 165.601V38.6194C298.519 36.6205 296.887 35 294.873 35Z" fill="#3662C1"/>
<path d="M295.971 45.7305H229.965V154.491H295.971V45.7305Z" fill="#DFE9FD"/>
<path d="M270.973 40.082H252.452C252.26 40.082 252.077 40.1574 251.942 40.2915C251.807 40.4257 251.731 40.6076 251.731 40.7974C251.731 40.9871 251.807 41.169 251.942 41.3032C252.077 41.4373 252.26 41.5127 252.452 41.5127H270.973C271.164 41.5127 271.348 41.4373 271.483 41.3032C271.618 41.169 271.694 40.9871 271.694 40.7974C271.694 40.6076 271.618 40.4257 271.483 40.2915C271.348 40.1574 271.164 40.082 270.973 40.082Z" fill="#9CB9F5"/>
<path d="M274.26 40.082C274.069 40.082 273.885 40.1574 273.75 40.2915C273.615 40.4257 273.539 40.6076 273.539 40.7974C273.539 40.9871 273.615 41.169 273.75 41.3032C273.885 41.4373 274.069 41.5127 274.26 41.5127C274.451 41.5127 274.634 41.4373 274.769 41.3032C274.904 41.169 274.98 40.9871 274.98 40.7974C274.98 40.6076 274.904 40.4257 274.769 40.2915C274.634 40.1574 274.451 40.082 274.26 40.082Z" fill="#9CB9F5"/>
<path d="M261.427 159.09C260.698 159.09 259.984 159.305 259.377 159.707C258.77 160.11 258.297 160.682 258.018 161.351C257.739 162.021 257.666 162.757 257.808 163.468C257.951 164.179 258.302 164.831 258.818 165.344C259.334 165.856 259.992 166.205 260.708 166.346C261.423 166.488 262.165 166.415 262.84 166.138C263.514 165.861 264.09 165.391 264.496 164.789C264.901 164.186 265.118 163.478 265.118 162.753C265.118 161.782 264.729 160.85 264.037 160.163C263.345 159.476 262.406 159.09 261.427 159.09Z" fill="#9CB9F5"/>
<path d="M295.971 116.188H229.704V155.684H295.971V116.188Z" fill="white"/>
<path d="M260.556 148.606C257.948 148.607 255.398 147.839 253.229 146.401C251.06 144.962 249.37 142.917 248.371 140.525C247.373 138.133 247.112 135.5 247.621 132.96C248.129 130.421 249.385 128.088 251.23 126.257C253.074 124.425 255.424 123.179 257.982 122.673C260.541 122.168 263.193 122.428 265.602 123.419C268.012 124.41 270.072 126.088 271.521 128.241C272.97 130.394 273.743 132.926 273.743 135.515C273.738 138.986 272.348 142.313 269.876 144.767C267.404 147.222 264.052 148.602 260.556 148.606ZM260.556 124.133C258.289 124.133 256.072 124.8 254.186 126.051C252.301 127.302 250.831 129.08 249.963 131.16C249.096 133.239 248.869 135.528 249.311 137.736C249.753 139.944 250.845 141.972 252.449 143.564C254.052 145.156 256.095 146.24 258.319 146.679C260.544 147.118 262.849 146.893 264.944 146.032C267.039 145.17 268.83 143.711 270.09 141.839C271.349 139.967 272.022 137.767 272.022 135.515C272.018 132.498 270.809 129.604 268.66 127.47C266.51 125.337 263.596 124.136 260.556 124.133Z" fill="#3C4BCD"/>
<path d="M266.355 134.457H254.758V136.569H266.355V134.457Z" fill="#FC9C9A"/>
<path d="M259.493 129.756V141.27H261.62V129.756H259.493Z" fill="#FC9C9A"/>
<path d="M251.292 65.7422H282.272L286.237 95.1992H260.436L251.292 65.7422Z" fill="#AF4E4E"/>
<path d="M271.508 68.967H271.5C271.44 68.9662 271.38 68.9535 271.324 68.9296C271.269 68.9058 271.218 68.8713 271.176 68.828C271.134 68.7848 271.101 68.7337 271.079 68.6777C271.057 68.6218 271.046 68.562 271.047 68.5019C271.147 62.0399 270.13 57.7366 268.027 55.71C266.974 54.698 265.674 54.2429 264.048 54.3171C257.89 54.5987 257.421 68.3824 257.417 68.5232C257.414 68.6446 257.362 68.7596 257.273 68.8429C257.184 68.9263 257.065 68.9711 256.943 68.9676C256.821 68.9641 256.705 68.9126 256.621 68.8243C256.537 68.736 256.492 68.6182 256.495 68.4968C256.512 67.8946 257.002 53.7249 264.006 53.4031C265.874 53.3176 267.442 53.8733 268.669 55.055C270.995 57.2941 272.074 61.698 271.969 68.5169C271.967 68.637 271.917 68.7515 271.831 68.8357C271.745 68.9198 271.629 68.967 271.508 68.967Z" fill="#AF4E4E"/>
<path d="M275.785 65.7422H247.085L241.028 95.1992H272.566L275.785 65.7422Z" fill="#ED9696"/>
<path d="M259.779 76.4054C259.483 77.3026 258.928 78.0939 258.183 78.6808C257.411 79.3069 256.574 79.62 255.673 79.62C254.787 79.62 254.156 79.3069 253.78 78.6808C253.405 78.0548 253.362 77.2963 253.654 76.4054C253.955 75.4868 254.519 74.6755 255.278 74.0708C256.063 73.4321 256.911 73.1124 257.824 73.1115C258.736 73.1107 259.372 73.4401 259.731 74.0997C260.063 74.7199 260.079 75.4884 259.779 76.4054ZM256.195 78.0271C256.652 78.022 257.089 77.8418 257.416 77.5242C257.746 77.2105 257.989 76.8178 258.123 76.384C258.269 75.9339 258.282 75.5542 258.162 75.245C258.035 74.8842 257.745 74.7044 257.302 74.7044C257.073 74.7055 256.846 74.7522 256.635 74.8415C256.425 74.9309 256.234 75.0613 256.075 75.2249C255.742 75.5444 255.497 75.9435 255.363 76.384C255.223 76.7514 255.223 77.1568 255.363 77.5242C255.501 77.8595 255.778 78.0271 256.195 78.0271ZM265.389 73.7326C265.271 74.0172 265.105 74.2798 264.899 74.5095L259.453 81.1311C259.16 81.5057 258.706 82.0681 258.093 82.8182C257.344 83.7259 256.223 85.095 254.73 86.9255C254.296 87.456 253.857 87.7212 253.413 87.7212C253.309 87.7295 253.204 87.7116 253.108 87.6692C253.013 87.6268 252.929 87.5613 252.866 87.4786C252.807 87.3886 252.772 87.2859 252.762 87.1792C252.753 87.0725 252.77 86.9651 252.811 86.8664C252.875 86.6715 253.071 86.3748 253.398 85.9725L263.369 73.7879C263.825 73.2314 264.255 72.9531 264.659 72.9531C265.319 72.9556 265.564 73.2155 265.395 73.7326H265.389ZM264.475 84.3608C264.178 85.2665 263.617 86.0642 262.862 86.6526C262.085 87.2754 261.246 87.5863 260.346 87.5855C259.472 87.5855 258.849 87.2682 258.476 86.6338C258.103 85.9993 258.06 85.2417 258.349 84.3608C258.647 83.4394 259.206 82.623 259.96 82.0099C260.665 81.399 261.567 81.0611 262.503 81.0582C263.442 81.0582 264.083 81.3721 264.425 81.9998C264.767 82.6276 264.784 83.4146 264.475 84.3608ZM262.811 84.3017C262.959 83.8491 262.973 83.4674 262.854 83.1564C262.702 82.8195 262.405 82.6535 261.967 82.6535C261.738 82.6575 261.512 82.7076 261.303 82.801C261.094 82.8944 260.906 83.029 260.751 83.1966C260.424 83.5148 260.18 83.9087 260.044 84.3432C259.904 84.7706 259.901 85.1398 260.033 85.4508C260.18 85.8003 260.461 85.975 260.879 85.975C261.342 85.9669 261.783 85.7787 262.108 85.4508C262.437 85.1333 262.678 84.7378 262.811 84.3017Z" fill="white"/>
<path d="M268.522 68.967H268.514C268.453 68.9662 268.394 68.9535 268.338 68.9296C268.282 68.9058 268.232 68.8713 268.19 68.828C268.148 68.7848 268.115 68.7337 268.092 68.6777C268.07 68.6218 268.059 68.562 268.061 68.5019C268.161 62.0399 267.144 57.7366 265.04 55.71C263.988 54.698 262.688 54.2429 261.062 54.3171C254.903 54.5987 254.435 68.3824 254.431 68.5232C254.429 68.5833 254.416 68.6425 254.391 68.6973C254.366 68.7522 254.331 68.8017 254.286 68.8429C254.242 68.8842 254.191 68.9165 254.134 68.9378C254.077 68.9592 254.017 68.9694 253.957 68.9676C253.896 68.9659 253.837 68.9523 253.781 68.9277C253.726 68.9031 253.676 68.868 253.635 68.8243C253.593 68.7805 253.561 68.7291 253.539 68.6729C253.517 68.6168 253.507 68.5569 253.509 68.4968C253.525 67.8946 254.016 53.7249 261.02 53.4031C262.888 53.3176 264.455 53.8733 265.682 55.055C268.009 57.2941 269.088 61.698 268.983 68.5169C268.981 68.637 268.931 68.7515 268.845 68.8357C268.759 68.9198 268.643 68.967 268.522 68.967Z" fill="#AF4E4E"/>
<path d="M279.103 66.8633L276.531 95.1901H283.665L279.103 66.8633Z" fill="#A83F3F"/>
<path d="M239.89 103.707L258.423 103.667C258.606 103.659 258.779 103.582 258.905 103.451C259.032 103.319 259.103 103.144 259.103 102.962C259.103 102.781 259.032 102.606 258.905 102.474C258.779 102.343 258.606 102.265 258.423 102.258L239.89 102.298C239.702 102.299 239.521 102.373 239.389 102.506C239.256 102.638 239.182 102.817 239.182 103.003C239.182 103.19 239.257 103.368 239.39 103.5C239.522 103.632 239.702 103.706 239.89 103.707Z" fill="white"/>
<path d="M237.302 103.707H237.353C237.449 103.711 237.544 103.696 237.634 103.662C237.724 103.628 237.806 103.577 237.875 103.511C237.944 103.445 237.999 103.366 238.037 103.279C238.074 103.191 238.094 103.097 238.094 103.002C238.094 102.907 238.074 102.813 238.037 102.725C237.999 102.638 237.944 102.559 237.875 102.493C237.806 102.427 237.724 102.376 237.634 102.342C237.544 102.309 237.449 102.293 237.353 102.298H237.302C237.119 102.305 236.946 102.383 236.82 102.514C236.693 102.645 236.622 102.82 236.622 103.002C236.622 103.184 236.693 103.359 236.82 103.49C236.946 103.622 237.119 103.699 237.302 103.707Z" fill="white"/>
<path d="M239.894 106.187L258.427 106.146C258.616 106.146 258.796 106.072 258.929 105.94C259.062 105.808 259.137 105.629 259.137 105.442C259.137 105.256 259.062 105.077 258.929 104.944C258.796 104.812 258.616 104.738 258.427 104.738L239.894 104.779C239.706 104.779 239.526 104.854 239.394 104.986C239.261 105.118 239.187 105.297 239.187 105.484C239.188 105.67 239.262 105.848 239.395 105.98C239.528 106.111 239.707 106.186 239.894 106.187Z" fill="white"/>
<path d="M237.307 106.191H237.358C237.454 106.195 237.549 106.18 237.639 106.146C237.729 106.113 237.81 106.061 237.88 105.996C237.949 105.93 238.004 105.851 238.041 105.763C238.079 105.676 238.098 105.582 238.098 105.487C238.098 105.391 238.079 105.297 238.041 105.21C238.004 105.122 237.949 105.043 237.88 104.977C237.81 104.912 237.729 104.86 237.639 104.827C237.549 104.793 237.454 104.778 237.358 104.782H237.307C237.124 104.79 236.951 104.867 236.825 104.998C236.698 105.13 236.627 105.305 236.627 105.487C236.627 105.668 236.698 105.843 236.825 105.975C236.951 106.106 237.124 106.183 237.307 106.191Z" fill="white"/>
<path d="M258.43 107.227L239.897 107.267C239.714 107.275 239.541 107.353 239.414 107.484C239.288 107.615 239.217 107.79 239.217 107.972C239.217 108.154 239.288 108.329 239.414 108.46C239.541 108.591 239.714 108.669 239.897 108.677L258.43 108.636C258.526 108.641 258.622 108.625 258.711 108.592C258.801 108.558 258.883 108.507 258.952 108.441C259.021 108.375 259.076 108.296 259.114 108.209C259.151 108.121 259.171 108.027 259.171 107.932C259.171 107.837 259.151 107.743 259.114 107.655C259.076 107.568 259.021 107.489 258.952 107.423C258.883 107.357 258.801 107.306 258.711 107.272C258.622 107.238 258.526 107.223 258.43 107.227Z" fill="white"/>
<path d="M237.36 107.27H237.31C237.122 107.27 236.941 107.345 236.809 107.477C236.676 107.609 236.601 107.788 236.601 107.975C236.602 108.161 236.677 108.34 236.811 108.472C236.944 108.603 237.124 108.677 237.312 108.678H237.363C237.551 108.678 237.731 108.603 237.864 108.471C237.997 108.339 238.072 108.16 238.072 107.974C238.072 107.787 237.997 107.608 237.864 107.476C237.731 107.344 237.551 107.27 237.363 107.27H237.36Z" fill="white"/>
<path d="M132.681 81.7085C132.681 81.7085 126.396 78.9867 125.348 85.3795C124.841 88.4596 127.566 91.5585 126.889 93.1489C126.211 94.7392 123.623 98.165 125.287 99.7554C125.287 99.7554 125.16 98.2266 126.149 97.0637C126.149 97.0637 124.826 101.294 127.583 101.841C130.34 102.388 134.9 99.9402 134.591 95.6582C134.282 91.3762 132.681 81.7085 132.681 81.7085Z" fill="#0B0754"/>
<path d="M137.176 82.6842C137.176 82.6842 135.821 80.8487 132.246 81.461C128.671 82.0732 129.777 89.4026 132.829 90.6623L137.176 82.6842Z" fill="#0B0754"/>
<path d="M151.963 168.326C151.887 168.554 151.456 169.007 150.347 169.214H147.514C146.914 169.11 146.742 168.986 145.741 169.109C144.222 169.295 142.877 169.295 142.8 168.355C142.786 168.025 142.818 167.695 142.893 167.373C143.007 166.781 143.491 166.328 143.4 165.653C143.201 164.145 141.26 159.552 141.26 159.552L144.595 158.934C144.595 158.934 145.441 164.294 146.368 165.471C147.152 166.478 148.259 167.188 149.505 167.482C149.644 167.516 149.782 167.549 149.922 167.58C151.023 167.843 152.057 168.062 151.963 168.326Z" fill="#EA6B69"/>
<path d="M151.963 168.328C151.887 168.555 151.456 169.009 150.347 169.216H147.514C146.914 169.112 146.742 168.988 145.741 169.111C144.221 169.297 142.877 169.297 142.799 168.357C142.786 168.027 142.818 167.697 142.893 167.375C143.882 167.473 145.347 168.056 146.781 168.188C147.856 168.279 148.936 168.078 149.906 167.608L149.92 167.587C151.023 167.845 152.056 168.064 151.963 168.328Z" fill="#2B276A"/>
<path d="M145.783 162.796C145.783 162.796 144.909 163.369 144.089 163.518C142.857 163.74 142.285 163.494 142.285 163.494C142.285 163.494 136.361 148.727 136.7 143.737C136.707 143.612 136.712 143.486 136.713 143.36C136.724 142.495 136.598 141.341 136.382 140.014C136.302 139.526 136.209 139.017 136.108 138.489C135.87 137.259 135.576 135.931 135.253 134.579C135.112 133.983 134.962 133.382 134.811 132.781C133.322 126.872 131.502 121.059 131.502 121.059C131.502 121.059 142.193 117.593 142.797 120.833C143.029 122.076 143.803 127.052 143.454 134.662C143.173 140.785 143.356 145.563 143.887 151.106C144.263 155.039 144.896 158.944 145.783 162.796Z" fill="#2B276A"/>
<path d="M136.714 143.355C136.724 142.49 136.598 141.336 136.382 140.008C136.302 139.52 136.21 139.011 136.108 138.483C135.87 137.254 135.576 135.926 135.253 134.573C135.112 133.977 134.962 133.377 134.812 132.776C135.023 130.974 135.191 129.738 135.191 129.738C135.191 129.738 139.631 135.722 136.714 143.355Z" fill="#1C1860"/>
<path d="M138.476 168.328C138.401 168.556 137.97 169.01 136.86 169.216H134.027C133.427 169.113 133.256 168.988 132.254 169.112C130.735 169.298 129.389 169.298 129.313 168.357C129.299 168.027 129.33 167.697 129.405 167.375C129.519 166.783 129.912 166.337 129.912 165.656C129.912 163.629 129.439 159.949 129.439 159.949L132.575 161.061C132.575 161.061 131.867 164.719 132.878 165.473C133.944 166.27 134.777 167.186 136.013 167.485L136.43 167.583C137.538 167.846 138.566 168.064 138.476 168.328Z" fill="#EA6B69"/>
<path d="M138.476 168.328C138.401 168.555 137.97 169.009 136.86 169.216H134.027C133.427 169.112 133.256 168.988 132.254 169.111C130.735 169.297 129.389 169.297 129.313 168.357C129.299 168.027 129.33 167.697 129.405 167.375C130.394 167.473 131.861 168.056 133.293 168.188C134.369 168.279 135.449 168.078 136.42 167.608L136.432 167.587C137.538 167.845 138.566 168.064 138.476 168.328Z" fill="#2B276A"/>
<path d="M137.942 119.899C137.942 119.899 134.464 137.108 133.877 146.474C133.289 155.84 132.555 163.593 132.555 163.593C132.029 163.763 131.477 163.839 130.925 163.815C130.363 163.782 129.809 163.669 129.279 163.482C129.279 163.482 125.832 149.39 126.974 143.744C128.116 138.098 127.164 132.901 126.615 128.222C125.83 121.514 128.853 118.396 130.964 116.271C133.1 114.125 137.942 119.899 137.942 119.899Z" fill="#2B276A"/>
<path d="M138.702 97.3774L137.036 99.8591L133.679 99.6944L132.128 95.7154C132.128 95.7154 132.607 95.6262 132.829 90.6641L137.02 91.9326C136.892 92.8309 136.917 93.7441 137.093 94.6342C137.3 95.6174 137.753 96.6684 138.702 97.3774Z" fill="#EB8D8D"/>
<path d="M139.169 95.6253C138.954 95.6253 135.007 94.3141 129.371 96.5934C129.371 96.5934 132.047 111.789 130.897 114.689C130.198 116.461 129.667 118.294 129.311 120.164L141.779 120.318C141.779 120.318 141.604 110.363 142.179 106.839C142.754 103.316 139.169 95.6253 139.169 95.6253Z" fill="#EB8D8D"/>
<path d="M159.876 105.853C159.838 105.42 159.701 105.322 159.701 105.322C155.715 105.903 153.073 105.87 151.779 106.121C150.766 106.317 150.347 106.344 150.172 106.1C144.666 98.4127 140.768 95.9989 140.768 95.9989C140.768 95.9989 140.353 95.7475 138.727 95.5312C138.727 95.5312 138.493 98.4542 136.981 98.7019C134.363 99.1306 132.255 96.7507 131.638 95.7928C131.638 95.7928 128.633 96.5471 127.751 97.544C127.118 98.2606 127.2 99.9779 127.388 101.057C127.429 101.322 127.493 101.584 127.579 101.839C127.765 102.328 128.466 105.911 128.79 107.337C128.797 107.374 128.805 107.407 128.811 107.438C128.834 107.534 128.853 107.618 128.871 107.689C128.889 107.766 128.905 107.825 128.918 107.863C128.93 107.901 128.932 107.911 128.939 107.933C129.403 109.4 129.681 110.897 129.517 112.731C129.489 112.99 129.441 113.247 129.374 113.499C128.956 115.636 127.221 119.833 126.854 121.761C127.062 122.197 127.534 122.542 128.107 122.816C128.857 123.175 129.776 123.414 130.513 123.582C131.321 123.753 132.138 123.882 132.96 123.967C133.493 124.027 134.065 124.078 134.648 124.111L134.894 124.125C138.65 124.309 142.855 124.218 143.402 122.445C143.666 121.594 142.618 116.481 142.479 114.961C142.235 112.291 142.632 108.635 142.812 105.805C145.894 109.177 149.075 110.39 149.075 110.39C149.937 110.336 150.792 110.209 151.632 110.013C152.617 109.795 153.65 109.504 154.637 109.193C156.483 108.597 158.291 107.893 160.053 107.087C160.053 107.087 159.959 106.808 159.876 105.853Z" fill="#6D89CF"/>
<path d="M137.561 118.416C136.849 120.812 136.436 122.784 134.648 124.117C134.066 124.084 133.493 124.033 132.96 123.974C132.138 123.888 131.322 123.759 130.514 123.588C129.78 123.42 128.861 123.182 128.107 122.822C127.533 122.548 127.061 122.203 126.853 121.767C127.215 119.839 128.955 115.636 129.373 113.505C129.411 113.321 129.439 113.134 129.456 112.947C129.591 111.26 129.415 109.564 128.938 107.94L128.87 107.696C128.856 107.643 128.836 107.557 128.81 107.444C128.81 107.413 128.796 107.38 128.789 107.344C128.503 105.992 127.752 101.75 127.56 101.196C127.477 100.92 127.415 100.638 127.374 100.352L128.875 98.918C128.875 98.918 137.486 102.564 139.386 107.605C141.285 112.646 138.583 114.978 137.561 118.416Z" fill="#3662C1"/>
<path d="M154.639 109.196C152.731 109.796 150.657 110.328 149.077 110.397C149.077 110.397 145.911 109.235 142.813 105.812C142.687 105.23 142.494 104.188 143.205 104.469C144.2 104.864 147.883 109.558 149.283 109.656C150.273 109.727 153.109 109.392 154.639 109.196Z" fill="#3662C1"/>
<path d="M147.836 107.857C147.836 107.857 143.591 109.974 139.91 110.849C138.943 111.095 137.956 111.253 136.96 111.321C136.96 111.321 132.974 110.131 129.98 105.915C124.45 98.1201 128.651 96.9258 128.651 96.9258C128.651 96.9258 132.548 99.3396 138.055 107.026C138.247 107.295 138.731 107.235 139.983 106.983C141.32 106.715 143.984 106.747 147.659 106.211C147.719 106.395 147.752 106.586 147.759 106.78C147.841 107.731 147.836 107.857 147.836 107.857Z" fill="#6D89CF"/>
<path d="M160.055 107.09C158.292 107.896 156.484 108.599 154.639 109.196C153.651 109.506 152.613 109.798 151.634 110.015C151.237 108.269 151.507 106.908 151.779 106.118C153.074 105.867 155.84 105.85 159.826 105.27L160.055 107.09Z" fill="#E75755"/>
<path d="M158.83 105.518C159.468 105.387 160.089 105.182 160.679 104.907C161.52 104.49 163.76 104.212 164.236 104.656C164.712 105.099 163.73 106.907 161.687 106.962C159.644 107.018 159.054 107.352 159.054 107.352L158.83 105.518Z" fill="#E75755"/>
<path d="M162.466 99.3584L151.069 101.557C150.819 101.612 150.595 101.747 150.43 101.942C150.266 102.137 150.171 102.38 150.161 102.633V110.454C150.157 110.567 150.179 110.678 150.226 110.78C150.273 110.882 150.344 110.972 150.432 111.043C150.52 111.113 150.623 111.162 150.734 111.186C150.844 111.21 150.959 111.208 151.069 111.18L162.466 108.98C162.715 108.925 162.94 108.79 163.104 108.596C163.268 108.401 163.363 108.158 163.374 107.905V100.084C163.378 99.9716 163.355 99.86 163.308 99.7579C163.261 99.6558 163.191 99.566 163.102 99.4956C163.014 99.4252 162.911 99.3762 162.8 99.3524C162.69 99.3286 162.575 99.3306 162.466 99.3584Z" fill="#A83F3F"/>
<path d="M162.921 99.3585L151.523 101.557C151.274 101.612 151.05 101.748 150.886 101.942C150.722 102.137 150.627 102.38 150.617 102.633V110.454C150.613 110.567 150.635 110.678 150.682 110.78C150.729 110.882 150.799 110.972 150.887 111.043C150.975 111.113 151.078 111.162 151.189 111.186C151.299 111.21 151.414 111.208 151.523 111.18L162.921 108.98C163.17 108.925 163.394 108.79 163.558 108.595C163.722 108.401 163.817 108.158 163.827 107.905V100.084C163.831 99.9717 163.809 99.8601 163.762 99.758C163.715 99.6559 163.645 99.5661 163.557 99.4957C163.469 99.4253 163.366 99.3762 163.255 99.3524C163.145 99.3286 163.03 99.3307 162.921 99.3585Z" fill="#FC9290"/>
<path d="M151.711 102.169C151.607 102.19 151.513 102.245 151.444 102.325C151.375 102.406 151.335 102.507 151.331 102.612C151.329 102.659 151.338 102.705 151.358 102.748C151.377 102.791 151.407 102.828 151.444 102.857C151.481 102.886 151.525 102.906 151.571 102.915C151.617 102.924 151.665 102.923 151.711 102.91C151.813 102.887 151.905 102.831 151.973 102.751C152.04 102.671 152.079 102.571 152.083 102.467C152.085 102.421 152.075 102.375 152.056 102.334C152.037 102.292 152.008 102.255 151.972 102.226C151.936 102.197 151.893 102.177 151.848 102.167C151.803 102.157 151.756 102.158 151.711 102.169Z" fill="#A83F3F"/>
<path d="M152.981 105.257C152.474 104.783 150.081 105.08 149.182 105.525C148.699 105.754 148.195 105.936 147.676 106.068C144.004 106.603 141.319 106.72 139.982 106.988C140.275 107.594 140.421 108.259 140.408 108.932C140.396 109.604 140.224 110.263 139.908 110.858C143.424 110.022 147.543 108.155 147.906 107.989C148.319 107.884 149.046 107.76 150.259 107.727C152.443 107.662 153.49 105.732 152.981 105.257Z" fill="#EA6B69"/>
<path d="M137.093 94.6342C135.361 94.4959 132.83 90.6641 132.83 90.6641L137.02 91.9326C136.892 92.8309 136.917 93.7441 137.093 94.6342Z" fill="#EC7775"/>
<path d="M138.117 92.2142C138.117 92.2142 133.099 93.22 132.521 90.1034C131.942 86.9869 130.903 85.0256 134.082 84.255C137.261 83.4843 138.106 84.558 138.553 85.5499C139 86.5418 139.407 91.8735 138.117 92.2142Z" fill="#EB8D8D"/>
<path d="M135.665 83.4754C135.665 83.4754 135.753 84.5314 134.103 86.3217C132.453 88.1119 133.389 90.9255 133.389 90.9255C133.389 90.9255 130.065 86.1155 131.549 84.4585C133.033 82.8016 135.665 83.4754 135.665 83.4754Z" fill="#0B0754"/>
<path d="M133.647 82.1055C133.647 82.1055 136.142 81.277 138.617 83.6984C139.683 84.7418 139.522 86.7923 138.951 87.9816C138.951 87.9816 138.073 85.432 136.478 84.8763C134.882 84.3207 133.647 82.1055 133.647 82.1055Z" fill="#0B0754"/>
<path d="M136.554 90.6838C136.554 90.6838 136.688 91.0534 137.633 90.8862C137.633 90.8862 138.425 90.7453 138.352 90.3305C138.352 90.3305 137.543 90.1231 136.554 90.6838Z" fill="white"/>
<path d="M183.187 103.285L182.427 104.502C182.035 104.95 181.93 105.2 181.618 105.352C180.867 105.719 179.479 106.661 179.375 108.639C179.375 108.639 179.398 109.758 180.154 109.394C180.91 109.029 180.581 109.064 181.655 108.575C182.729 108.086 183.129 106.532 183.223 106.002L184.099 104.859L183.187 103.285Z" fill="#EB8D8D"/>
<path d="M231.077 85.4692C231.077 85.4692 231.879 83.5181 232.761 83.4389C233.644 83.3597 236.45 82.9209 236.65 83.3131C236.85 83.7054 236.65 85.1436 236.049 85.6615C235.447 86.1795 231.718 87.0155 231.718 87.0155L231.077 85.4692Z" fill="#EB8D8D"/>
<path d="M217.537 167.986C217.438 168.291 216.867 168.905 215.374 169.192H211.47C210.953 169.098 210.661 169.001 209.959 169.048H209.878C209.844 169.048 209.808 169.048 209.773 169.057C209.639 169.069 209.488 169.087 209.322 169.108C209.1 169.137 208.88 169.164 208.666 169.186L208.38 169.213H206.763C206.705 169.205 206.648 169.196 206.593 169.186C206.422 169.157 206.254 169.108 206.094 169.04H206.088C205.901 168.972 205.739 168.851 205.619 168.694C205.5 168.536 205.429 168.347 205.414 168.15C205.391 167.714 205.428 167.276 205.523 166.849C205.532 166.798 205.543 166.747 205.555 166.696C205.71 165.968 206.116 165.729 206.188 164.888C206.325 163.314 205.013 157.848 205.013 157.848H210.012C210.012 157.848 209.877 162.792 210.449 164.458C210.987 166.029 212.62 166.513 214.266 166.897L214.821 167.023L215.021 167.067C216.41 167.381 217.646 167.645 217.537 167.986Z" fill="#EB8D8D"/>
<path d="M199.6 114.712C200.022 117.063 200.625 119.49 201.148 122.02C201.987 126.085 202.621 130.401 201.972 135.05C201.886 135.703 201.84 136.36 201.834 137.018C201.708 145.234 205.407 160.123 205.407 160.123C205.407 160.123 206.411 160.553 208.094 160.47C208.96 160.427 210.29 159.873 210.29 159.873C210.29 159.873 210.64 150.641 210.661 138.227C210.676 129.228 212.456 117.38 212.814 110.418C213.031 106.204 212.56 100.59 212.56 100.59C212.56 100.59 205.19 94.7068 202.542 97.7164C199.925 100.692 198.025 105.916 199.6 114.712Z" fill="#6D89CF"/>
<path d="M201.972 135.047C201.886 135.7 201.84 136.358 201.834 137.016C207.354 129.076 208.575 111.762 208.575 111.762L202.512 114.683C202.512 114.683 201.847 117.929 201.148 122.018C201.988 126.085 202.621 130.398 201.972 135.047Z" fill="#3662C1"/>
<path d="M201.59 168.048C201.498 168.332 200.997 168.885 199.721 169.192H195.196C194.808 169.106 194.409 169.078 194.012 169.11H193.931L193.826 169.117C193.692 169.13 193.541 169.148 193.375 169.17C193.336 169.17 190.223 169.134 190.151 169.102H190.145C189.958 169.034 189.795 168.914 189.676 168.756C189.556 168.598 189.485 168.409 189.471 168.212C189.448 167.776 189.485 167.338 189.58 166.911C189.589 166.86 189.599 166.809 189.612 166.758C189.766 166.03 190.197 165.567 190.273 164.726C190.409 163.152 190.122 157.605 190.122 157.605L194.753 157.983C194.753 157.983 193.935 162.85 194.507 164.52C195.047 166.091 196.679 166.575 198.325 166.96C198.51 167 198.695 167.044 198.879 167.086L199.08 167.131C200.462 167.445 201.698 167.707 201.59 168.048Z" fill="#EB8D8D"/>
<path d="M190.123 160.54C190.123 160.54 191.313 161.1 192.171 161.269C193.028 161.439 194.808 161.107 194.808 161.107C195.307 155.9 196.148 150.731 197.327 145.634C198.974 138.453 201.435 129.965 204.861 121.928C205.593 120.212 208.61 112.088 209.122 110.038C210.671 103.842 209.116 104.506 209.116 104.506L195.582 102.93C195.582 102.93 193.914 103.781 193.147 112.528C192.918 115.148 192.894 126.459 192.543 128.604C192.215 130.634 191.831 132.323 191.38 133.42C188.867 139.55 190.123 160.54 190.123 160.54Z" fill="#6D89CF"/>
<path d="M201.59 168.065C201.498 168.352 200.997 168.911 199.721 169.221H195.196C194.808 169.134 194.409 169.107 194.012 169.139C193.986 169.139 193.958 169.139 193.931 169.139C193.905 169.139 193.861 169.139 193.826 169.148C193.689 169.158 193.539 169.173 193.371 169.192C193.304 169.199 193.237 169.208 193.169 169.214H190.439C190.341 169.193 190.245 169.165 190.151 169.132H190.145C189.957 169.062 189.794 168.94 189.675 168.78C189.555 168.621 189.485 168.431 189.471 168.233C189.448 167.791 189.485 167.349 189.58 166.918C189.589 166.865 189.599 166.815 189.612 166.762C190.974 166.953 192.914 167.717 194.816 167.893C196.28 168.023 197.752 167.763 199.08 167.139C200.462 167.448 201.698 167.721 201.59 168.065Z" fill="#9E332E"/>
<path d="M217.537 168.004C217.438 168.312 216.867 168.933 215.374 169.225H211.47C210.953 169.129 210.661 169.033 209.959 169.079H209.878C209.844 169.079 209.809 169.079 209.773 169.088C209.636 169.098 209.487 169.112 209.319 169.132C209.031 169.167 208.747 169.196 208.471 169.219C207.9 169.275 207.324 169.275 206.753 169.219C206.53 169.194 206.31 169.144 206.098 169.072H206.092C205.905 169.001 205.741 168.879 205.622 168.72C205.503 168.56 205.432 168.37 205.418 168.171C205.395 167.729 205.432 167.286 205.527 166.854C205.536 166.802 205.547 166.751 205.559 166.699C206.921 166.89 208.863 167.656 210.764 167.838C212.227 167.968 213.699 167.707 215.027 167.084C216.41 167.392 217.646 167.66 217.537 168.004Z" fill="#9E332E"/>
<path d="M210.832 62.7049C211.289 58.9987 210.124 53.0673 202.671 54.0152C195.219 54.9631 192.872 62.2334 194.376 65.4656C195.879 68.6979 192.211 69.4773 191.06 72.9534C190.072 75.9392 189.728 79.6479 188.127 81.3112C182.969 86.6768 193.08 94.9265 199.175 93.1865C210.277 90.0184 211.712 89.5407 211.313 80.885C211.112 76.4484 207.641 74.7248 209.841 73.445C215.175 70.3435 209.802 71.0915 210.832 62.7049Z" fill="#9E332E"/>
<path d="M199.879 72.4036L201.933 77.6699L206.365 77.8849L208.575 74.6074C207.182 73.5552 206.591 71.9749 206.375 70.5606C206.242 69.6633 206.215 68.7535 206.297 67.8501C206.326 67.5672 206.355 67.4013 206.355 67.4013L200.832 65.7405L200.812 65.7305C200.744 67.1838 200.665 68.324 200.577 69.2116C200.263 72.3357 199.879 72.4036 199.879 72.4036Z" fill="#EB8D8D"/>
<path d="M208.592 72.2185C208.307 72.2185 203.468 71.2404 195.295 73.316C195.295 73.316 199.77 93.6723 198.251 97.5093C197.326 99.8535 196.623 102.278 196.152 104.752L212.645 104.954C212.645 104.954 212.415 91.7853 213.175 87.1249C213.934 82.4646 208.592 72.2185 208.592 72.2185Z" fill="#EB8D8D"/>
<path d="M231.145 84.4888C231.145 84.4888 221.746 87.9964 220.812 88.063C218.778 88.2063 216.708 78.4569 214.806 75.2083C213.518 73.0083 209.178 72.3067 208.632 72.2275L208.592 72.2188H208.575L208.588 72.269C208.545 72.7153 208.166 76.0494 206.298 76.3549C202.837 76.9294 200.051 73.7739 199.232 72.5066C199.232 72.5066 195.306 72.6613 193.489 74.3421C191.432 76.2417 188.37 87.8619 187.545 93.5204C187.545 93.5204 183.392 101.377 182.07 104.493C182.262 104.791 182.516 105.046 182.814 105.24C183.149 105.443 183.516 105.59 183.899 105.675C183.899 105.675 191.389 97.3775 191.877 96.0637C192.111 95.4351 193.896 92.5625 195.651 88.5395C196.271 90.4944 196.647 92.482 196.428 94.9247C196.188 97.6201 193.651 103.777 194.199 105.089C194.774 106.472 195.573 107.163 197.321 107.562C198.525 107.837 200.18 107.97 202.523 108.086C207.492 108.338 212.817 107.709 213.54 105.366C213.887 104.234 213.754 99.8856 213.57 97.8753C213.328 95.2352 213.562 91.8584 213.795 88.7595L213.828 88.811C214.371 89.6295 214.987 90.507 215.619 91.3254C216.572 92.5474 217.566 93.6198 218.417 94.1075C218.6 94.2198 218.799 94.3045 219.007 94.359C219.658 94.5124 220.85 94.1541 222.266 93.538C222.772 93.3193 223.296 93.0691 223.841 92.795C227.767 90.8276 232.405 87.7424 232.405 87.7424C232.71 85.9459 231.145 84.4888 231.145 84.4888Z" fill="#FA7269"/>
<path d="M194.203 105.091C194.778 106.474 195.577 107.165 197.325 107.564C199.661 107.118 201.201 102.851 201.994 100.751C202.908 98.3312 198.147 85.8876 196.832 86.0008C195.855 86.085 195.667 87.6728 195.636 88.4824C196.269 90.4562 196.649 92.4589 196.432 94.9268C196.192 97.6209 193.655 103.777 194.203 105.091Z" fill="#E75755"/>
<path d="M213.833 88.8094C214.376 89.6279 214.992 90.5054 215.624 91.3238C216.532 92.4339 217.535 93.5063 218.422 94.1059C218.605 94.2182 218.804 94.3029 219.012 94.3574C219.663 94.5108 220.855 94.1525 222.271 93.5364C221.444 93.5892 220.614 93.5771 219.789 93.5C218.365 93.3742 217.951 91.8493 215.7 89.5537C214.361 88.172 213.946 88.3832 213.833 88.8094Z" fill="#E75755"/>
<path d="M200.833 65.7422C201.667 67.0974 203.681 69.8909 206.373 70.5685C206.239 69.6713 206.213 68.7614 206.294 67.858C206.323 67.5752 206.353 67.4092 206.353 67.4092L200.833 65.7422Z" fill="#EC7775"/>
<path d="M207.803 67.7739C207.803 67.7739 201.166 69.0977 200.4 64.9867C199.633 60.8757 198.259 58.2696 202.465 57.25C206.671 56.2305 207.784 57.6511 208.38 58.9623C208.977 60.2736 209.51 67.3238 207.803 67.7739Z" fill="#EB8D8D"/>
<path d="M204.559 56.2192C204.559 56.2192 204.675 57.6159 202.493 59.9907C200.311 62.3655 200.735 67.1504 200.735 67.1504C200.735 67.1504 197.151 59.7179 199.114 57.5266C201.077 55.3354 204.559 56.2192 204.559 56.2192Z" fill="#9E332E"/>
<path d="M201.89 54.3998C201.89 54.3998 205.19 53.3035 208.464 56.5068C209.874 57.8897 209.662 60.6002 208.906 62.1742C208.906 62.1742 207.746 58.8012 205.633 58.0644C203.521 57.3277 201.89 54.3998 201.89 54.3998Z" fill="#9E332E"/>
<path d="M205.735 65.7469C205.735 65.7469 205.912 66.2359 207.162 66.0146C207.162 66.0146 208.211 65.8286 208.114 65.2804C208.114 65.2804 207.044 65.0051 205.735 65.7469Z" fill="white"/>
<path d="M107.187 150.527H35.8713C34.8773 150.527 34.063 151.304 34.063 152.255C34.063 153.204 34.8773 153.981 35.8713 153.981H37.5176V168.108C37.5243 168.405 37.6491 168.687 37.8648 168.893C38.0805 169.099 38.3695 169.212 38.6687 169.207H45.4057C45.7047 169.211 45.9934 169.098 46.2088 168.893C46.4243 168.687 46.5489 168.405 46.5556 168.108V153.981H93.346V168.101C93.353 168.4 93.4786 168.684 93.6954 168.891C93.9122 169.098 94.2027 169.211 94.5035 169.207H101.228C101.528 169.211 101.819 169.097 102.035 168.89C102.252 168.683 102.377 168.4 102.384 168.101V153.981H107.196C108.19 153.981 109.003 153.204 109.003 152.255C109.001 151.304 108.181 150.527 107.187 150.527Z" fill="#93B3F4"/>
<path d="M164.254 37.8047H146.82C142.215 37.8047 138.482 41.5106 138.482 46.082V60.3384C138.482 64.9098 142.215 68.6157 146.82 68.6157H164.254C168.859 68.6157 172.592 64.9098 172.592 60.3384V46.082C172.592 41.5106 168.859 37.8047 164.254 37.8047Z" fill="#D5E3FF"/>
<path d="M146.611 51.582C146.611 51.582 140.055 54.8205 139.931 55.6301L153.633 55.6628C153.633 55.6628 156.865 55.0242 157.511 52.491C158.479 48.6855 160.179 48.9105 160.179 48.9105L160.093 55.6792H162.042C162.042 55.6792 164.967 45.6079 164.972 43.6215C164.977 41.6352 164.144 41.082 164.144 41.082C164.144 41.082 159.03 41.4592 153 50.6555C153 50.6592 151.813 51.7844 146.611 51.582Z" fill="#AF4E4E"/>
<path d="M151.814 57.6715C151.814 57.6715 145.964 62.044 145.988 62.8624L159.466 60.4109C159.466 60.4109 162.527 59.1965 162.695 56.5891C162.949 52.6729 164.659 52.5849 164.659 52.5849L165.819 59.2555L167.738 58.9061C167.738 58.9061 168.76 48.4714 168.4 46.5203C168.041 44.5691 167.126 44.1719 167.126 44.1719C167.126 44.1719 162.167 45.4668 157.935 55.6047C157.93 55.6047 156.97 56.9197 151.814 57.6715Z" fill="#FC9C9A"/>
<path d="M149.641 56.6133C149.641 56.6133 150.193 58.6436 149.059 59.3326C148.434 59.7209 147.74 59.9887 147.014 60.1221C147.014 60.1221 150.307 59.9624 151.05 62.8137C151.05 62.8137 150.05 59.7889 153.023 59.1163C153.023 59.1163 150.917 59.9385 149.641 56.6133Z" fill="#DFE9FD"/>
<path d="M153.956 83.8306C153.86 83.8708 153.779 83.9383 153.722 84.0244C153.666 84.1106 153.636 84.2115 153.637 84.3144C153.638 84.4173 153.669 84.5177 153.728 84.6027C153.786 84.6878 153.869 84.7537 153.965 84.7922C154.061 84.8307 154.167 84.8401 154.268 84.819C154.37 84.798 154.463 84.7476 154.535 84.6741C154.608 84.6007 154.657 84.5074 154.676 84.4063C154.695 84.3052 154.684 84.2006 154.643 84.1059C154.617 84.043 154.577 83.986 154.528 83.9381C154.479 83.8902 154.421 83.8524 154.357 83.8268C154.293 83.8013 154.225 83.7884 154.156 83.7891C154.087 83.7897 154.019 83.8038 153.956 83.8306Z" fill="#E3EDFF"/>
<path d="M157.73 79.5315C157.549 79.6077 157.395 79.7354 157.287 79.8985C157.18 80.0616 157.123 80.2526 157.125 80.4476C157.127 80.6425 157.187 80.8326 157.297 80.9937C157.408 81.1548 157.564 81.2798 157.746 81.3527C157.928 81.4257 158.128 81.4434 158.32 81.4037C158.513 81.3639 158.689 81.2684 158.826 81.1293C158.964 80.9903 159.057 80.8138 159.093 80.6222C159.13 80.4307 159.108 80.2327 159.032 80.0533C158.929 79.8127 158.734 79.6226 158.489 79.5248C158.245 79.4269 157.972 79.4294 157.73 79.5315Z" fill="#E3EDFF"/>
<path d="M162.109 73.2479C161.987 72.9627 161.783 72.7198 161.523 72.5498C161.262 72.3798 160.956 72.2905 160.644 72.293C160.332 72.2956 160.028 72.3899 159.77 72.5642C159.512 72.7384 159.312 72.9847 159.195 73.2718C159.079 73.5589 159.05 73.874 159.114 74.1772C159.177 74.4804 159.33 74.7581 159.553 74.975C159.775 75.192 160.058 75.3385 160.364 75.3961C160.671 75.4536 160.987 75.4196 161.274 75.2984C161.659 75.1363 161.963 74.8292 162.119 74.4447C162.276 74.0602 162.272 73.6297 162.109 73.2479Z" fill="#E3EDFF"/>
<path d="M69.6411 85.9805H58.9214C56.0896 85.9805 53.7939 88.2595 53.7939 91.0708V99.8371C53.7939 102.648 56.0896 104.927 58.9214 104.927H69.6411C72.4729 104.927 74.7685 102.648 74.7685 99.8371V91.0708C74.7685 88.2595 72.4729 85.9805 69.6411 85.9805Z" fill="#ED9696"/>
<path d="M62.8557 91.8887C62.8722 92.6085 62.6144 93.308 62.1339 93.8474C61.9036 94.1115 61.617 94.3213 61.2947 94.4616C60.9725 94.6019 60.6228 94.6691 60.2711 94.6583C59.9196 94.6665 59.5705 94.5982 59.2485 94.4581C58.9264 94.318 58.6392 94.1095 58.407 93.8474C57.9175 93.3124 57.6536 92.6112 57.67 91.8887C57.6501 91.151 57.9105 90.433 58.3994 89.8772C58.6319 89.608 58.9221 89.3939 59.2489 89.2508C59.5757 89.1076 59.9306 89.039 60.2876 89.05C60.6467 89.0402 61.0034 89.1117 61.3306 89.2592C61.6577 89.4067 61.9467 89.6262 62.1757 89.9011C62.629 90.4366 62.8557 91.0992 62.8557 91.8887ZM60.2711 93.2854C60.4443 93.2908 60.6162 93.2542 60.7719 93.1789C60.9277 93.1035 61.0627 92.9917 61.1651 92.853C61.363 92.5647 61.462 92.2208 61.4475 91.8723C61.459 91.5238 61.3603 91.1805 61.1651 90.8905C61.0727 90.7434 60.943 90.6229 60.789 90.5411C60.635 90.4592 60.4621 90.4189 60.2876 90.4241C60.112 90.4167 59.9374 90.4542 59.7807 90.533C59.6239 90.6118 59.4901 90.7293 59.3922 90.8742C59.1932 91.1683 59.0951 91.5184 59.1124 91.8723C59.108 92.2243 59.2181 92.5682 59.4264 92.853C59.5194 92.9896 59.6455 93.1008 59.7931 93.1764C59.9407 93.2519 60.1051 93.2894 60.2711 93.2854ZM66.8637 89.5868C66.8454 89.8213 66.7772 90.0492 66.6637 90.2556L63.8903 95.9582C63.746 96.2817 63.518 96.7661 63.2065 97.4115C62.8224 98.1951 62.2525 99.3744 61.4969 100.949C61.2757 101.407 60.9777 101.636 60.6029 101.636C60.5048 101.638 60.4072 101.62 60.3161 101.584C60.2249 101.548 60.142 101.494 60.0723 101.426C60.0015 101.358 59.9459 101.275 59.9088 101.185C59.8717 101.094 59.8541 100.997 59.857 100.899C59.857 100.731 59.9414 100.475 60.1103 100.13L65.1757 89.6371C65.407 89.1585 65.694 88.9188 66.0368 88.918C66.5877 88.918 66.8637 89.1417 66.8637 89.5868ZM69.0343 98.7403C69.0545 99.4671 68.7934 100.174 68.3048 100.715C68.0711 100.977 67.7824 101.185 67.459 101.324C67.1356 101.462 66.7854 101.529 66.4332 101.519C66.0835 101.526 65.7365 101.456 65.4173 101.314C65.0981 101.172 64.8145 100.961 64.5868 100.698C64.0987 100.162 63.8351 99.4622 63.8498 98.7403C63.8266 98.0015 64.0802 97.2803 64.5615 96.7163C65.0351 96.169 65.6645 95.8958 66.4496 95.8966C67.2348 95.8974 67.8646 96.1677 68.339 96.7075C68.8025 97.2481 69.0343 97.9257 69.0343 98.7403ZM67.6096 98.69C67.6216 98.3399 67.5229 97.9948 67.3272 97.7032C67.2255 97.5634 67.0907 97.4506 66.9349 97.3746C66.779 97.2985 66.6068 97.2616 66.4332 97.2669C66.2582 97.2617 66.0849 97.3025 65.9308 97.385C65.7767 97.4676 65.6473 97.589 65.5556 97.7371C65.3603 98.0284 65.262 98.3731 65.2744 98.7227C65.2659 99.0649 65.3704 99.4005 65.5721 99.6782C65.6664 99.8186 65.7946 99.9334 65.945 100.012C66.0953 100.091 66.2631 100.131 66.4332 100.13C66.6083 100.134 66.7818 100.095 66.9379 100.017C67.0941 99.9377 67.2279 99.8214 67.3272 99.6782C67.5259 99.3875 67.6249 99.041 67.6096 98.69Z" fill="#BF7373"/>
<path d="M69.3219 96.7093C68.8585 96.1687 68.2291 95.8984 67.4338 95.8984C66.6385 95.8984 66.0092 96.1717 65.5457 96.7181C65.0643 97.2821 64.8108 98.0033 64.834 98.7422C64.8192 99.4641 65.0829 100.164 65.571 100.7C65.7986 100.963 66.0823 101.174 66.4015 101.316C66.7207 101.457 67.0676 101.527 67.4173 101.521C67.7695 101.531 68.1197 101.464 68.4431 101.325C68.7666 101.187 69.0553 100.979 69.289 100.717C69.7776 100.176 70.0387 99.4689 70.0184 98.7422C70.0184 97.9292 69.7863 97.2516 69.3219 96.7093ZM68.3089 99.68C68.2094 99.8232 68.0756 99.9394 67.9195 100.018C67.7634 100.097 67.5899 100.136 67.4148 100.131C67.2448 100.133 67.077 100.093 66.9266 100.014C66.7763 99.9353 66.6481 99.8204 66.5537 99.68C66.3515 99.4026 66.2469 99.0669 66.2561 98.7246C66.2436 98.3749 66.342 98.0302 66.5372 97.739C66.6289 97.5909 66.7583 97.4694 66.9124 97.3869C67.0665 97.3043 67.2398 97.2636 67.4148 97.2688C67.5884 97.2635 67.7606 97.3005 67.9165 97.3766C68.0723 97.4526 68.207 97.5654 68.3089 97.705C68.5042 97.9967 68.6025 98.3418 68.59 98.6919C68.6075 99.0441 68.5098 99.3925 68.3114 99.6851L68.3089 99.68Z" fill="white"/>
<path d="M63.1183 93.8481C63.5988 93.3087 63.8565 92.6092 63.8401 91.8894C63.8401 91.099 63.6134 90.4369 63.1601 89.903C62.9311 89.6281 62.6421 89.4086 62.3149 89.2611C61.9878 89.1136 61.6311 89.0421 61.2719 89.0519C60.9149 89.041 60.56 89.1096 60.2333 89.2527C59.9065 89.3959 59.6162 89.6099 59.3838 89.8791C58.8948 90.4349 58.6345 91.153 58.6544 91.8906C58.638 92.6132 58.9019 93.3144 59.3914 93.8493C59.6244 94.1111 59.9125 94.3189 60.2352 94.4581C60.5579 94.5974 60.9075 94.6646 61.2593 94.6552C61.61 94.6659 61.9588 94.599 62.2803 94.4594C62.6018 94.3198 62.8881 94.111 63.1183 93.8481ZM60.4108 92.8536C60.2025 92.5689 60.0924 92.2249 60.0967 91.873C60.0794 91.5191 60.1776 91.169 60.3766 90.8748C60.4744 90.7299 60.6082 90.6123 60.765 90.5335C60.9218 90.4547 61.0963 90.4172 61.2719 90.4247C61.4465 90.4196 61.6194 90.4599 61.7734 90.5417C61.9274 90.6236 62.0571 90.7441 62.1495 90.8912C62.3442 91.1813 62.4425 91.5246 62.4306 91.873C62.4455 92.2214 62.3469 92.5652 62.1495 92.8536C62.047 92.9923 61.9121 93.1042 61.7563 93.1795C61.6006 93.2549 61.4287 93.2915 61.2555 93.2861C61.0894 93.2901 60.9251 93.2526 60.7775 93.177C60.6299 93.1015 60.5038 92.9903 60.4108 92.8536Z" fill="white"/>
<path d="M67.6476 90.2556C67.7611 90.0492 67.8293 89.8213 67.8477 89.5868C67.8477 89.1418 67.5716 88.918 67.0195 88.918C66.6818 88.918 66.3947 89.1577 66.1583 89.6371L61.0929 100.13C60.9241 100.476 60.8397 100.732 60.8397 100.899C60.8368 100.997 60.8544 101.094 60.8915 101.185C60.9285 101.275 60.9842 101.358 61.055 101.426C61.1247 101.494 61.2076 101.548 61.2987 101.584C61.3899 101.62 61.4874 101.638 61.5855 101.636C61.9604 101.636 62.2584 101.407 62.4796 100.949C63.2394 99.3744 63.8093 98.1951 64.1892 97.4115C64.5007 96.7661 64.7282 96.2817 64.8717 95.9582L67.6476 90.2556Z" fill="white"/>
<path d="M63.3056 114.342C63.247 114.366 63.1971 114.408 63.1622 114.46C63.1273 114.513 63.1089 114.575 63.1094 114.638C63.1099 114.701 63.1292 114.763 63.165 114.815C63.2007 114.867 63.2512 114.908 63.3102 114.932C63.3691 114.955 63.4338 114.961 63.4961 114.948C63.5584 114.936 63.6155 114.905 63.6602 114.86C63.7048 114.815 63.735 114.758 63.747 114.696C63.7589 114.634 63.7521 114.57 63.7273 114.511C63.7109 114.473 63.6869 114.438 63.6568 114.408C63.6267 114.379 63.591 114.356 63.5519 114.34C63.5127 114.324 63.4708 114.316 63.4286 114.316C63.3863 114.317 63.3445 114.325 63.3056 114.342Z" fill="#ED9696"/>
<path d="M65.6295 111.697C65.5185 111.744 65.4241 111.823 65.3581 111.923C65.2921 112.023 65.2576 112.141 65.2588 112.261C65.2601 112.38 65.297 112.497 65.3651 112.596C65.4331 112.695 65.5292 112.772 65.6411 112.816C65.753 112.861 65.8758 112.872 65.9939 112.848C66.112 112.823 66.2202 112.764 66.3047 112.679C66.3893 112.593 66.4464 112.485 66.4689 112.367C66.4913 112.25 66.4782 112.128 66.4311 112.018C66.3997 111.944 66.3541 111.878 66.2968 111.822C66.2395 111.766 66.1717 111.722 66.0973 111.692C66.0228 111.663 65.9431 111.648 65.8629 111.648C65.7826 111.649 65.7033 111.666 65.6295 111.697Z" fill="#ED9696"/>
<path d="M68.3213 107.833C68.2465 107.657 68.1208 107.508 67.9603 107.403C67.7997 107.299 67.6115 107.244 67.4196 107.246C67.2276 107.248 67.0405 107.307 66.8821 107.414C66.7237 107.522 66.601 107.674 66.5297 107.851C66.4584 108.028 66.4417 108.222 66.4817 108.408C66.5216 108.594 66.6165 108.765 66.7541 108.898C66.8918 109.03 67.0662 109.12 67.255 109.154C67.4438 109.188 67.6387 109.166 67.8148 109.09C68.0493 108.989 68.2343 108.801 68.3292 108.565C68.4241 108.33 68.4213 108.066 68.3213 107.833Z" fill="#ED9696"/>
<path d="M360.855 78.8125H343.369C338.751 78.8125 335.006 82.5296 335.006 87.1149V101.414C335.006 105.999 338.751 109.717 343.369 109.717H360.855C365.474 109.717 369.218 105.999 369.218 101.414V87.1149C369.218 82.5296 365.474 78.8125 360.855 78.8125Z" fill="#D4E3FF"/>
<path d="M350.521 125.081C350.425 125.121 350.343 125.189 350.286 125.275C350.229 125.361 350.199 125.462 350.2 125.566C350.201 125.669 350.233 125.769 350.291 125.855C350.35 125.94 350.432 126.006 350.529 126.045C350.625 126.084 350.731 126.093 350.833 126.072C350.934 126.051 351.028 126.001 351.1 125.927C351.173 125.853 351.223 125.76 351.242 125.659C351.261 125.557 351.25 125.452 351.21 125.357C351.183 125.294 351.144 125.237 351.094 125.189C351.045 125.141 350.987 125.103 350.923 125.077C350.859 125.051 350.79 125.038 350.721 125.039C350.652 125.04 350.584 125.054 350.521 125.081Z" fill="#E3EDFF"/>
<path d="M354.312 120.762C354.131 120.839 353.976 120.967 353.869 121.13C353.761 121.293 353.704 121.485 353.706 121.68C353.707 121.876 353.767 122.066 353.878 122.228C353.989 122.389 354.145 122.515 354.328 122.588C354.51 122.661 354.71 122.679 354.903 122.639C355.096 122.6 355.272 122.504 355.41 122.365C355.548 122.226 355.642 122.049 355.679 121.857C355.716 121.665 355.694 121.466 355.617 121.286C355.566 121.167 355.492 121.058 355.399 120.967C355.306 120.876 355.195 120.804 355.074 120.756C354.953 120.707 354.823 120.683 354.692 120.684C354.562 120.685 354.432 120.711 354.312 120.762Z" fill="#E3EDFF"/>
<path d="M358.704 114.459C358.582 114.174 358.377 113.93 358.115 113.76C357.854 113.59 357.548 113.501 357.235 113.504C356.922 113.507 356.618 113.602 356.36 113.776C356.101 113.951 355.901 114.198 355.784 114.485C355.667 114.773 355.638 115.089 355.702 115.393C355.766 115.696 355.919 115.975 356.142 116.192C356.365 116.409 356.648 116.556 356.955 116.614C357.262 116.672 357.579 116.638 357.867 116.517C358.253 116.354 358.557 116.046 358.714 115.66C358.871 115.274 358.868 114.842 358.704 114.459Z" fill="#E3EDFF"/>
<path d="M364.744 89.5735L341.655 85.1431C341.443 85.1032 341.225 85.148 341.046 85.2677C340.868 85.3873 340.744 85.5721 340.703 85.7818L338.254 98.3624C338.213 98.5724 338.258 98.7896 338.379 98.9667C338.5 99.1438 338.686 99.2664 338.897 99.3078L361.986 103.738C362.198 103.778 362.417 103.733 362.595 103.614C362.773 103.494 362.897 103.309 362.939 103.099L365.388 90.5176C365.428 90.3078 365.383 90.0907 365.262 89.9138C365.142 89.7369 364.956 89.6145 364.744 89.5735Z" fill="#FC9290"/>
<path d="M340.45 87.0953L339.904 89.8984L364.588 94.6351L365.134 91.832L340.45 87.0953Z" fill="#AF4E4E"/>
<path opacity="0.4" d="M341.598 91.0311L341.169 93.2344L356.272 96.1325L356.701 93.9292L341.598 91.0311Z" fill="#AF4E4E"/>
<path d="M343.315 95.4724L341.44 95.1128C341.36 95.0975 341.279 95.0978 341.2 95.1138C341.121 95.1298 341.046 95.1611 340.979 95.2059C340.912 95.2508 340.855 95.3083 340.811 95.3752C340.766 95.442 340.736 95.5169 340.72 95.5956L340.408 97.2022C340.377 97.361 340.411 97.5253 340.502 97.6592C340.593 97.7931 340.734 97.8856 340.894 97.9163L342.769 98.2759C342.929 98.3065 343.095 98.2728 343.23 98.1823C343.365 98.0918 343.458 97.9518 343.489 97.7931L343.801 96.1864C343.832 96.0277 343.798 95.8634 343.707 95.7295C343.616 95.5956 343.475 95.5031 343.315 95.4724Z" fill="#AF4E4E"/>
<path opacity="0.2" d="M361.651 98.5697L346.814 95.7235C346.784 95.7173 346.752 95.7172 346.721 95.7232C346.691 95.7292 346.662 95.7412 346.636 95.7586C346.61 95.7759 346.588 95.7981 346.57 95.8241C346.553 95.85 346.541 95.879 346.536 95.9095L346.491 96.1358C346.485 96.1663 346.485 96.1977 346.492 96.2281C346.498 96.2585 346.51 96.2875 346.528 96.3132C346.545 96.3389 346.568 96.3609 346.594 96.3779C346.62 96.395 346.649 96.4067 346.68 96.4124L361.512 99.2587C361.542 99.2647 361.574 99.2647 361.604 99.2586C361.635 99.2525 361.664 99.2404 361.69 99.2231C361.716 99.2058 361.738 99.1836 361.755 99.1578C361.772 99.132 361.784 99.103 361.79 99.0726L361.833 98.8463C361.846 98.7856 361.834 98.7224 361.8 98.6706C361.765 98.6187 361.712 98.5824 361.651 98.5697Z" fill="#AF4E4E"/>
<path opacity="0.2" d="M361.397 99.8791L346.556 97.0316C346.525 97.0258 346.494 97.0259 346.464 97.0321C346.434 97.0382 346.405 97.0502 346.38 97.0674C346.354 97.0845 346.332 97.1065 346.315 97.1321C346.298 97.1577 346.287 97.1863 346.281 97.2164L346.239 97.4326C346.233 97.4627 346.233 97.4936 346.24 97.5236C346.246 97.5536 346.258 97.5821 346.275 97.6074C346.292 97.6328 346.315 97.6545 346.34 97.6713C346.366 97.6881 346.395 97.6997 346.425 97.7055L361.267 100.553C361.297 100.559 361.328 100.559 361.359 100.553C361.389 100.547 361.418 100.535 361.443 100.518C361.469 100.5 361.491 100.478 361.508 100.453C361.525 100.427 361.536 100.398 361.542 100.368L361.585 100.152C361.596 100.091 361.583 100.028 361.548 99.9771C361.513 99.9259 361.459 99.8907 361.397 99.8791Z" fill="#AF4E4E"/>
<path opacity="0.2" d="M361.156 101.086L346.328 98.2427C346.297 98.2367 346.265 98.2368 346.234 98.2431C346.202 98.2494 346.173 98.2617 346.146 98.2793C346.12 98.2969 346.098 98.3195 346.08 98.3458C346.062 98.3721 346.05 98.4016 346.044 98.4325L345.996 98.684C345.99 98.715 345.99 98.7469 345.997 98.7779C346.003 98.8089 346.016 98.8383 346.033 98.8645C346.051 98.8907 346.074 98.9131 346.101 98.9304C346.127 98.9478 346.157 98.9597 346.189 98.9656L361.015 101.811C361.046 101.817 361.079 101.816 361.11 101.81C361.141 101.804 361.171 101.791 361.197 101.774C361.224 101.756 361.247 101.733 361.264 101.707C361.282 101.68 361.294 101.651 361.3 101.62L361.347 101.376C361.354 101.344 361.354 101.312 361.348 101.28C361.342 101.248 361.33 101.218 361.312 101.191C361.294 101.164 361.271 101.141 361.245 101.123C361.218 101.105 361.187 101.093 361.156 101.086Z" fill="#AF4E4E"/>
<path d="M30.9019 154.773H42.8094L44.3328 169.457H34.4173L30.9019 154.773Z" fill="#3662C1"/>
<path d="M38.6722 156.358C38.5646 156.358 38.4785 156.31 38.4798 156.251C38.5203 154.491 38.0758 153.36 37.1589 152.881C36.7397 152.679 36.2751 152.589 35.8103 152.618C33.8588 152.677 33.3194 155.258 33.2776 156.255C33.2776 156.313 33.1725 156.366 33.0775 156.358C32.9825 156.351 32.8837 156.309 32.8863 156.25C32.8939 156.097 33.08 152.489 35.7888 152.406C36.3564 152.368 36.9241 152.479 37.435 152.727C38.4481 153.256 38.9192 154.408 38.8761 156.248C38.866 156.312 38.7786 156.358 38.6722 156.358Z" fill="#3662C1"/>
<path d="M29.2863 154.773L26.9575 169.457H39.0803L40.3163 154.773H29.2863Z" fill="#6D89CF"/>
<path d="M37.5253 156.358C37.4176 156.358 37.3315 156.31 37.3315 156.251C37.3733 154.491 36.9288 153.36 36.012 152.881C35.5928 152.679 35.1282 152.589 34.6633 152.618C32.7106 152.677 32.1724 155.258 32.1306 156.255C32.1306 156.313 32.047 156.366 31.9305 156.358C31.814 156.351 31.7368 156.309 31.7393 156.25C31.7469 156.097 31.9318 152.489 34.6418 152.406C35.2095 152.368 35.7772 152.479 36.2881 152.728C37.3011 153.256 37.7722 154.408 37.7292 156.248C37.719 156.312 37.6317 156.358 37.5253 156.358Z" fill="#3662C1"/>
<path d="M71.334 140.523H81.9017L83.2542 150.572H74.453L71.334 140.523Z" fill="#AF4E4E"/>
<path d="M78.228 141.623C78.1865 141.622 78.147 141.605 78.1181 141.575C78.0892 141.545 78.0732 141.506 78.0736 141.464C78.1077 139.259 77.7608 137.791 77.0427 137.101C76.8643 136.929 76.6509 136.798 76.4169 136.716C76.1828 136.634 75.9337 136.602 75.6865 136.624C73.5856 136.721 73.4248 141.423 73.4235 141.471C73.4223 141.512 73.4047 141.551 73.3744 141.58C73.3441 141.608 73.3037 141.623 73.262 141.622C73.2204 141.621 73.1809 141.603 73.1523 141.573C73.1237 141.543 73.1083 141.503 73.1094 141.462C73.1094 141.256 73.2804 136.422 75.6713 136.307C75.9614 136.284 76.2532 136.322 76.5274 136.42C76.8016 136.517 77.0519 136.67 77.2618 136.871C78.0558 137.635 78.4243 139.133 78.3876 141.463C78.3881 141.484 78.3844 141.505 78.3765 141.524C78.3687 141.544 78.357 141.562 78.3421 141.577C78.3272 141.592 78.3094 141.603 78.2898 141.611C78.2702 141.619 78.2492 141.623 78.228 141.623Z" fill="#AF4E4E"/>
<path d="M69.8982 140.523L67.8315 150.572H78.5917L79.6884 140.523H69.8982Z" fill="#FC9290"/>
<path d="M72.2473 141.623C72.2266 141.622 72.2064 141.617 72.1876 141.609C72.1688 141.6 72.1518 141.588 72.1377 141.573C72.1236 141.558 72.1126 141.541 72.1053 141.522C72.098 141.503 72.0946 141.482 72.0953 141.462C72.0953 141.256 72.2663 136.422 74.6571 136.307C74.9473 136.284 75.239 136.323 75.5132 136.42C75.7874 136.517 76.0377 136.67 76.2477 136.87C77.0417 137.635 77.4089 139.133 77.3735 141.463C77.3728 141.504 77.356 141.543 77.3267 141.572C77.2973 141.601 77.2578 141.617 77.2164 141.618C77.1958 141.617 77.1753 141.613 77.1563 141.605C77.1373 141.597 77.1201 141.585 77.1058 141.571C77.0914 141.556 77.0801 141.538 77.0726 141.519C77.065 141.5 77.0614 141.48 77.0619 141.459C77.0949 139.254 76.7492 137.786 76.0311 137.096C75.8526 136.924 75.6389 136.793 75.4046 136.711C75.1704 136.628 74.9211 136.597 74.6736 136.619C73.5959 136.669 73.0387 137.963 72.7614 139.04C72.5657 139.836 72.4486 140.648 72.4119 141.465C72.4119 141.487 72.4076 141.508 72.3993 141.527C72.3909 141.547 72.3787 141.564 72.3633 141.579C72.3479 141.594 72.3297 141.605 72.3098 141.613C72.2898 141.62 72.2686 141.623 72.2473 141.623Z" fill="#AF4E4E"/>
<path d="M80.8205 140.906L79.9429 150.569H82.3768L80.8205 140.906Z" fill="#A83F3F"/>
<path d="M61.3389 136.747C61.3389 136.747 62.5457 136 63.07 136.118C63.5943 136.236 65.0291 136.639 65.0747 137.227C65.1202 137.815 63.0244 138.742 61.4744 138.221C59.9244 137.701 61.3389 136.747 61.3389 136.747Z" fill="#ED9696"/>
<path d="M54.9362 168.034C54.9338 168.152 54.9659 168.268 55.0286 168.368C55.0913 168.469 55.1819 168.549 55.2895 168.599C55.6998 168.823 56.3557 168.651 57.1396 168.617C57.2409 168.617 57.3929 168.806 57.4765 168.806H57.5879C58.3642 168.824 58.2819 169.057 59.7572 169.183C61.4402 169.326 62.0594 168.814 62.1632 168.582C62.2468 168.384 61.5301 168.161 60.7196 167.905L60.6018 167.868L60.2789 167.763C59.319 167.447 58.3794 167.071 58.1375 166.106C57.8842 165.083 58.644 162.228 58.644 162.228L55.9847 161.941C55.9847 161.941 55.7314 164.927 55.5605 165.858C55.4706 166.36 55.2439 166.749 55.1109 167.174L55.0843 167.264C55 167.513 54.9502 167.772 54.9362 168.034Z" fill="#EE8685"/>
<path d="M54.9362 168.033C54.9338 168.151 54.9659 168.267 55.0286 168.368C55.0913 168.468 55.1819 168.548 55.2895 168.599C55.8847 168.976 56.9357 168.45 58.663 169.239C58.7378 169.273 59.3152 169.239 59.7166 169.227C60.2396 169.22 60.9931 169.266 61.1692 169.239C61.9822 169.113 62.1024 168.711 62.1582 168.58C62.2417 168.383 61.525 168.159 60.7145 167.904C59.8886 168.201 58.9982 168.276 58.1337 168.121C57.0117 167.912 55.8961 167.358 55.0944 167.172L55.0679 167.262C54.989 167.512 54.9447 167.771 54.9362 168.033Z" fill="#211D63"/>
<path d="M55.2046 168.492L55.5972 169.221H56.4519V168.687L55.2046 168.492Z" fill="#211D63"/>
<path d="M41.1646 142.583L49.7935 141.766C49.7935 141.766 62.999 141.826 64.2299 143.556C64.2299 143.556 66.5879 145.179 63.9222 151.885C61.2565 158.59 58.1274 165.294 58.1274 165.294C57.5076 165.433 56.8697 165.476 56.2367 165.42C55.8952 165.383 55.5567 165.323 55.2236 165.24C55.2236 165.24 55.8264 155.233 57.1586 151.338C58.4908 147.443 58.9011 148.195 56.5432 148.417C54.1852 148.64 46.5998 150.365 43.1198 149.926C39.6399 149.487 41.1646 142.583 41.1646 142.583Z" fill="#AE5652"/>
<path d="M88.526 168.031C88.5283 168.149 88.4962 168.266 88.4336 168.366C88.3709 168.466 88.2803 168.547 88.1727 168.597C87.7611 168.821 87.0406 168.848 86.2554 168.81C86.1554 168.81 86.0655 168.81 85.9844 168.81H85.873C85.0967 168.828 85.179 169.061 83.7037 169.187C82.0208 169.33 81.4015 168.818 81.2977 168.586C81.2141 168.388 81.9308 168.165 82.7426 167.909L82.8591 167.872L83.182 167.767C84.1419 167.451 85.0815 167.075 85.3234 166.11C85.5767 165.087 84.8169 162.232 84.8169 162.232L87.4825 161.945C87.4825 161.945 87.7358 164.931 87.9068 165.861C87.9967 166.364 88.2233 166.753 88.3563 167.178L88.3829 167.268C88.4649 167.515 88.5131 167.772 88.526 168.031Z" fill="#ED9696"/>
<path d="M88.526 168.034C88.5283 168.153 88.4962 168.269 88.4336 168.369C88.3709 168.47 88.2803 168.55 88.1727 168.6C87.7345 168.801 87.0254 168.83 86.2567 168.808C86.1567 168.808 86.0668 168.808 85.9844 168.808H85.873C85.0967 168.826 85.179 169.059 83.7037 169.185C82.0208 169.328 81.4015 168.816 81.2977 168.584C81.2141 168.386 81.9308 168.163 82.7426 167.907C83.568 168.205 84.458 168.28 85.3221 168.125C86.4454 167.916 87.5598 167.362 88.3614 167.176L88.388 167.266C88.4687 167.515 88.5152 167.773 88.526 168.034Z" fill="#9E332E"/>
<path d="M53.2736 168.034C53.2712 168.152 53.3033 168.268 53.366 168.368C53.4287 168.469 53.5193 168.549 53.6269 168.599C54.0384 168.823 54.6931 168.651 55.4783 168.617C55.5783 168.617 55.7316 168.806 55.8151 168.806H55.9266C56.7029 168.824 56.6205 169.057 58.0958 169.183C59.7776 169.326 60.3981 168.814 60.5019 168.582C60.5855 168.384 59.8687 168.161 59.057 167.905L58.9392 167.868L58.6176 167.763C57.6564 167.447 56.718 167.071 56.4762 166.106C56.2229 165.083 56.9827 162.228 56.9827 162.228L54.317 161.941C54.317 161.941 54.0638 164.927 53.8928 165.858C53.8029 166.36 53.5762 166.749 53.4433 167.174C53.4331 167.204 53.4243 167.234 53.4167 167.264C53.3341 167.513 53.2859 167.772 53.2736 168.034Z" fill="#ED9696"/>
<path d="M71.2315 164.653C71.0833 165.388 70.0284 165.265 68.8495 164.98C67.6705 164.694 67.9504 165.034 66.2724 164.854C64.5945 164.674 64.0867 164.048 64.0361 163.801C63.9892 163.58 64.8187 163.504 65.7077 163.402L66.0445 163.362C67.0487 163.236 67.7832 162.594 68.695 162.066C69.5586 161.563 70.8478 159.527 70.8478 159.527L73.1487 159.708C73.1487 159.708 71.9419 161.529 71.4746 162.32C71.1998 162.786 71.215 163.401 71.2492 163.877C71.2777 164.135 71.2717 164.396 71.2315 164.653Z" fill="#ED9696"/>
<path d="M68.8495 164.98C67.6705 164.693 67.9504 165.034 66.2724 164.854C64.5945 164.675 64.0867 164.049 64.0361 163.801C63.9892 163.581 64.8187 163.504 65.7077 163.402L65.7165 163.419C66.436 163.878 67.2677 164.134 68.1226 164.16C69.2623 164.188 70.4666 163.864 71.253 163.878C71.2819 164.137 71.276 164.4 71.2353 164.658C71.0833 165.389 70.0284 165.265 68.8495 164.98Z" fill="#9E332E"/>
<path d="M76.3513 131.107C76.3513 131.107 75.803 129.773 75.1989 129.724C74.5949 129.675 72.6776 129.371 72.5396 129.643C72.4016 129.914 72.5396 130.9 72.9512 131.248C73.3627 131.596 75.9106 132.173 75.9106 132.173L76.3513 131.107Z" fill="#F2B6B6"/>
<path d="M80.0493 150.05L85.0084 163.3C85.5098 163.337 86.014 163.291 86.5001 163.164C87.1713 162.972 87.9425 162.467 87.9425 162.467C87.9425 162.467 86.7116 149.746 84.4562 147.101C82.2009 144.456 80.0493 150.05 80.0493 150.05Z" fill="#3662C1"/>
<path d="M99.6626 144.692C99.6626 144.692 85.4136 139.915 82.2363 140.92C79.0591 141.926 69.5171 160.784 69.5171 160.784C69.5171 160.784 69.7324 161.068 70.32 161.287C70.867 161.49 72.1904 161.477 72.1904 161.477C72.1904 161.477 80.8016 154.15 81.826 152.012C82.8505 149.875 83.2608 147.84 84.2866 148.044C85.3123 148.247 97.5098 153.031 100.277 150.181C103.044 147.331 102.321 143.63 102.321 143.63L99.6626 144.692Z" fill="#6D89CF"/>
<path d="M90.9552 122.44C90.7273 121.974 90.4728 121.146 90.3487 119.675C90.3676 119.822 90.6234 121.686 91.3453 122.738C94.3085 124.669 99.9881 131.119 99.8767 132.341C99.8767 132.341 101.876 128.973 101.912 128.946C101.912 128.946 105.602 124.295 101.228 121.619C99.0042 120.263 99.0156 118.522 99.1093 117.011C99.203 115.5 98.5027 108.989 94.0439 110.692C94.0439 110.692 93.3296 110.377 93.0093 110.424C93.1548 110.452 93.2908 110.516 93.4044 110.61C92.8877 110.579 92.1494 110.618 91.534 110.965C89.9067 111.88 88.4453 120.146 90.9552 122.44Z" fill="#AE5652"/>
<path d="M91.525 122.824C91.5098 122.824 92.9547 123.578 94.0425 123.28C95.0657 123.003 95.7344 121.687 95.7192 121.685C95.2861 121.599 95.162 121.008 95.1709 118.469L94.9746 118.506L91.682 119.154C91.682 119.154 91.758 120.182 91.7593 121.152C91.758 121.965 91.7086 122.737 91.525 122.824Z" fill="#F2B6B6"/>
<path d="M91.6782 119.154C91.6782 119.154 91.7542 120.183 91.7555 121.152C93.598 121.1 94.5718 119.432 94.9707 118.512L91.6782 119.154Z" fill="#EB8E8E"/>
<path d="M95.3114 118.154C95.3114 118.154 96.2763 116.639 96.5081 115.344C96.6739 114.42 96.1991 110.993 92.7305 111.486C92.0317 111.582 91.3636 111.833 90.7753 112.22C90.0231 112.723 88.9353 113.815 90.151 116.806L90.4663 117.812L95.3114 118.154Z" fill="#AE5652"/>
<path d="M91.0627 120.075C91.0627 120.075 95.4227 120.147 95.4253 117.45C95.4278 114.754 95.9926 112.95 93.2104 112.79C90.4282 112.63 89.885 113.657 89.6646 114.558C89.4443 115.458 89.9293 119.987 91.0627 120.075Z" fill="#F2B6B6"/>
<path d="M91.2246 112.72C91.2246 112.72 92.4175 115.883 94.2499 116.35C96.0823 116.818 96.8763 116.33 96.8763 116.33C95.9722 115.542 95.3723 114.467 95.1794 113.288C95.1794 113.288 92.125 111.215 91.2246 112.72Z" fill="#AE5652"/>
<path d="M91.5249 112.976C91.5249 112.976 90.6384 113.683 90.4168 114.369C90.1952 115.056 90.1015 116.469 89.6874 116.421C89.6874 116.421 88.7883 114.271 89.7988 113.055C90.8651 111.766 91.5249 112.976 91.5249 112.976Z" fill="#AE5652"/>
<path d="M101.228 134.467C101.657 132.677 100.194 129.205 98.6684 126.33C97.283 123.724 95.8444 121.609 95.7153 121.686C92.0618 123.838 91.7326 122.048 91.7326 122.048C91.7326 122.048 88.4135 122.485 87.4739 124.092C86.1733 126.312 84.7588 132.976 83.3671 132.878C82.7339 132.832 76.3046 130.436 76.3046 130.436C76.3046 130.436 75.2346 131.43 75.4397 132.652C75.4397 132.652 78.6056 134.76 81.2941 136.105C82.7124 136.818 83.9952 137.316 84.598 137.174C85.82 136.889 87.7284 134.076 88.7605 132.421C88.7601 132.417 88.7601 132.414 88.7605 132.411C90.0762 139.808 88.2869 141.493 89.1936 142.272C90.1497 143.095 91.5161 141.88 94.5237 143.173C96.4966 144.023 99.2332 145.251 101.076 145.465C102.042 145.577 102.763 145.411 102.998 144.762C103.688 142.88 100.407 137.879 101.228 134.467Z" fill="#93B3F4"/>
<path d="M92.0312 118.438C92.0312 118.438 91.9502 118.78 91.0916 118.728C91.0916 118.728 90.371 118.683 90.3926 118.307C90.3938 118.307 91.0928 118.038 92.0312 118.438Z" fill="white"/>
<path d="M103.004 144.764C102.769 145.413 102.048 145.579 101.082 145.467C99.8067 144.915 94.2981 142.797 94.3589 141.361C94.4501 139.235 95.4188 139.167 94.7388 136.544C94.1905 134.436 99.2799 130.519 100.092 129.668C101.619 132.543 101.661 132.685 101.231 134.469C100.407 137.881 103.688 142.882 103.004 144.764Z" fill="#6D89CF"/>
<path d="M88.7604 132.42C87.7283 134.076 85.8199 136.888 84.5979 137.173C83.9951 137.316 82.7123 136.818 81.2939 136.105C82.3298 136.37 83.3353 136.364 84.3129 136.27C85.3716 136.168 85.6793 134.879 87.3522 132.946C88.44 131.691 88.7059 132.006 88.7604 132.42Z" fill="#6D89CF"/>
<path d="M93.4952 138.387L92.2288 135.206C92.2043 135.154 92.1642 135.11 92.114 135.081C92.0637 135.052 92.0056 135.039 91.9477 135.044L90.1507 135.249C90.1243 135.251 90.0989 135.26 90.0767 135.274C90.0546 135.289 90.0365 135.309 90.0241 135.332L89.8506 135.557L91.4487 139.044L93.176 138.847L93.2862 138.793L93.4863 138.53C93.5002 138.509 93.5083 138.485 93.5099 138.46C93.5115 138.434 93.5064 138.409 93.4952 138.387Z" fill="#AB4545"/>
<path d="M93.3052 138.637L92.0388 135.456C92.0144 135.404 91.9743 135.36 91.924 135.331C91.8737 135.302 91.8156 135.289 91.7577 135.294L89.9607 135.499C89.9361 135.5 89.912 135.506 89.8906 135.519C89.8692 135.531 89.8512 135.548 89.838 135.569C89.8249 135.589 89.8171 135.613 89.8153 135.638C89.8135 135.662 89.8178 135.686 89.8278 135.709L91.0941 138.889C91.1187 138.942 91.1589 138.985 91.2091 139.014C91.2594 139.043 91.3173 139.056 91.3752 139.052L93.1735 138.845C93.198 138.845 93.2219 138.838 93.2432 138.826C93.2644 138.814 93.2823 138.797 93.2953 138.776C93.3083 138.755 93.3161 138.732 93.3178 138.708C93.3195 138.683 93.3152 138.659 93.3052 138.637Z" fill="#ED9696"/>
<path d="M90.6613 135.712C90.6485 135.682 90.6269 135.658 90.5995 135.641C90.5721 135.624 90.5402 135.616 90.5081 135.617L90.0851 135.654C90.0713 135.654 90.0576 135.657 90.0453 135.663C90.0331 135.669 90.0226 135.679 90.0149 135.69C90.0072 135.701 90.0025 135.715 90.0013 135.728C90.0001 135.742 90.0023 135.756 90.0079 135.768C90.0207 135.798 90.0423 135.822 90.0696 135.839C90.097 135.856 90.1289 135.864 90.1611 135.863L90.584 135.826C90.5979 135.826 90.6115 135.823 90.6238 135.817C90.6361 135.811 90.6465 135.801 90.6542 135.79C90.6619 135.778 90.6666 135.765 90.6678 135.752C90.6691 135.738 90.6668 135.724 90.6613 135.712Z" fill="#AB4545"/>
<path d="M93.8637 136.49C93.8637 136.49 92.9405 135.778 92.0693 135.948C91.198 136.118 90.7713 136.711 90.8029 136.983C90.8346 137.254 91.298 138.017 91.9641 138.085C92.6302 138.153 94.5272 137.678 94.5272 137.678L93.8637 136.49Z" fill="#F2B6B6"/>
<path d="M95.7152 121.684C95.7152 121.684 99.2686 121.9 100.498 123.603C102.229 126.001 105.237 135.788 104.416 138.027L93.6067 137.982C93.6067 137.982 93.3459 136.766 93.7093 136.178C94.0728 135.589 99.998 134.64 100.27 134.369C100.543 134.097 96.8511 129.076 96.8511 128.262C96.8511 127.449 95.7152 121.684 95.7152 121.684Z" fill="#93B3F4"/>
<path d="M39.9577 143.191L48.0497 142.512C48.0497 142.512 61.2564 142.57 62.4861 144.245C62.4861 144.245 64.4819 145.486 61.8162 151.982C59.1505 158.478 56.4468 165.624 56.4468 165.624C56.008 165.674 55.5652 165.682 55.1248 165.648C54.2155 165.575 53.9116 165.281 53.9116 165.281C53.9116 165.281 54.1003 156.394 55.4312 152.622C56.7622 148.85 57.2763 149.234 54.9247 149.444C52.5731 149.654 45.9336 151.294 41.3747 150.426C37.9188 149.771 39.9577 143.191 39.9577 143.191Z" fill="#B4625E"/>
<path d="M48.5307 110.69C48.5307 110.69 45.8245 109.314 44.5708 112.842C44.5708 112.842 45.7789 111.35 46.4159 111.418C47.0529 111.486 48.5307 110.69 48.5307 110.69Z" fill="#010117"/>
<path d="M53.2736 168.033C53.2712 168.151 53.3033 168.267 53.366 168.368C53.4287 168.468 53.5193 168.548 53.6269 168.599C54.2221 168.976 55.2731 168.45 57.0017 169.239C57.0764 169.273 57.6539 169.239 58.0553 169.227C58.577 169.22 59.3305 169.266 59.5078 169.239C60.3208 169.113 60.4411 168.711 60.4968 168.58C60.5804 168.383 59.8637 168.159 59.0519 167.904C58.2261 168.201 57.3356 168.276 56.4711 168.121C55.3491 167.912 54.2347 167.358 53.4319 167.172C53.4217 167.202 53.4129 167.232 53.4053 167.262C53.3264 167.512 53.2821 167.771 53.2736 168.033Z" fill="#2B276A"/>
<path d="M53.542 168.492L53.9346 169.221H54.7881V168.687L53.542 168.492Z" fill="#2B276A"/>
<path d="M61.9275 138.295C61.9152 138.368 61.8935 138.44 61.8629 138.508C61.521 139.255 54.4129 140.204 53.5252 139.729C53.1276 139.517 52.5501 135.958 52.0334 132.091C51.4003 127.313 50.8481 122.047 50.8481 122.047C50.8481 122.047 53.7987 122.971 54.1407 124.532C54.4826 126.094 54.551 135.721 55.4399 136.201C56.3289 136.682 60.0875 136.269 61.3918 136.473C61.3855 136.473 62.063 137.54 61.9275 138.295Z" fill="#EA8888"/>
<path d="M51.0419 110.96C50.4885 110.52 49.6869 110.574 49.1715 110.605C49.2846 110.511 49.4202 110.447 49.5653 110.419C49.2449 110.371 48.5307 110.687 48.5307 110.687C44.0782 108.983 43.5463 117 47.3733 117.917C48.8574 118.271 56.6999 115.474 51.0419 110.96Z" fill="#010117"/>
<path d="M51.0599 122.824C51.0751 122.824 49.6289 123.578 48.5411 123.28C47.5192 123.003 46.8505 121.687 46.8645 121.685C47.2976 121.599 47.4229 121.008 47.4128 118.469L47.6091 118.506L50.9016 119.154C50.9016 119.154 50.8269 120.182 50.8244 121.152C50.8218 121.965 50.875 122.737 51.0599 122.824Z" fill="#ED9696"/>
<path d="M50.9014 119.154C50.9014 119.154 50.8267 120.183 50.8242 121.152C48.9816 121.1 48.0078 119.432 47.6089 118.512L50.9014 119.154Z" fill="#EA8888"/>
<path d="M47.2695 118.154C47.2695 118.154 46.3032 116.639 46.0715 115.344C45.9069 114.42 46.3805 110.993 49.8503 111.486C50.5487 111.582 51.2164 111.833 51.8043 112.22C52.5641 112.723 53.6443 113.815 52.4286 116.806L52.1133 117.812L47.2695 118.154Z" fill="#010117"/>
<path d="M51.5168 120.075C51.5168 120.075 47.158 120.147 47.1542 117.45C47.1504 114.754 46.5869 112.95 49.3703 112.79C52.1538 112.63 52.6945 113.657 52.9161 114.558C53.1377 115.458 52.6477 119.987 51.5168 120.075Z" fill="#ED9696"/>
<path d="M51.3563 112.72C51.3563 112.72 50.1621 115.883 48.331 116.35C46.4999 116.818 45.7046 116.33 45.7046 116.33C46.6082 115.542 47.2079 114.467 47.4015 113.288C47.4015 113.288 50.4559 111.215 51.3563 112.72Z" fill="#010117"/>
<path d="M52.5833 126.042C52.5073 125.735 53.1595 125.504 53.319 125.778C53.6192 126.291 53.6787 126.937 53.7977 127.452C54.1396 128.921 53.7977 130.935 53.7977 130.935L52.5833 126.042Z" fill="#BF7373"/>
<path d="M51.0601 112.976C51.0601 112.976 51.9465 113.683 52.1681 114.369C52.3897 115.056 52.4834 116.469 52.8988 116.421C52.8988 116.421 53.7979 114.271 52.7874 113.055C51.716 111.766 51.0601 112.976 51.0601 112.976Z" fill="#010117"/>
<path d="M50.5483 118.438C50.5483 118.438 50.6294 118.78 51.488 118.728C51.488 118.728 52.2085 118.683 52.1857 118.307C52.1857 118.307 51.4867 118.038 50.5483 118.438Z" fill="white"/>
<path d="M61.9277 138.296C61.9154 138.37 61.8937 138.442 61.8631 138.51C61.5212 139.257 54.4131 140.206 53.5254 139.731C53.1278 139.518 52.4313 135.096 52.9315 131.137C53.4697 133.4 53.633 138.042 54.8918 138.261C56.3202 138.51 60.0636 138.036 61.9277 138.296Z" fill="#BF7373"/>
<path d="M54.0647 131.115C52.2918 139.57 53.776 140.868 52.8579 141.7C52.8579 141.7 52.0436 142.051 52.0373 142.056C51.0812 142.879 51.0571 141.881 48.0495 143.175C46.6173 143.792 44.7811 144.609 43.1766 145.092C42.6288 145.265 42.067 145.391 41.4974 145.469C40.5312 145.581 39.8107 145.415 39.5751 144.766C38.8926 142.881 42.1724 137.883 41.348 134.471L41.329 134.383C41.2689 134.048 41.2557 133.705 41.2898 133.366C41.4417 131.463 42.6536 128.696 43.9086 126.334C45.294 123.727 46.7313 121.613 46.8605 121.69C50.5139 123.842 50.8444 122.052 50.8444 122.052C50.8444 122.052 54.6738 128.232 54.0647 131.115Z" fill="#EA8888"/>
<path d="M52.3286 141.935C51.3712 142.76 51.0622 141.88 48.0495 143.174C46.6173 143.791 44.7811 144.608 43.1766 145.091C42.6355 145.287 42.0711 145.414 41.4974 145.468C40.5312 145.58 39.8107 145.414 39.5751 144.765C38.8926 142.879 42.1724 137.882 41.348 134.47C41.348 134.441 42.5333 130.349 43.7541 128.059C43.7946 126.623 50.6633 127.923 49.2209 136.336C48.7764 138.917 51.9487 139.934 52.3286 141.935Z" fill="#BF7373"/>
<path d="M52.0322 142.366C52.0322 142.366 53.3758 142.05 53.9913 142.299C54.6067 142.547 55.8364 143.179 55.7224 143.521C55.6084 143.862 54.1508 144.04 53.5354 143.702C52.9199 143.363 52.4653 143.791 51.7131 143.543C50.9609 143.295 52.0322 142.366 52.0322 142.366Z" fill="#ED9696"/>
<path d="M46.8642 121.684C46.8642 121.684 41.9065 121.749 41.0188 124.124C40.131 126.499 40.4033 134.844 41.7013 137.354C42.9993 139.865 50.3809 143.257 51.199 143.389C52.017 143.521 52.5312 142.269 52.497 142.132C52.4628 141.995 44.7406 135.788 44.7722 135.144C44.8039 134.501 46.8642 121.684 46.8642 121.684Z" fill="#EA8888"/>
<path d="M64.6337 134.22C64.6098 134.192 64.5793 134.171 64.5449 134.158C64.5106 134.145 64.4736 134.142 64.4374 134.147L61.9756 134.398C61.8968 134.409 61.8231 134.443 61.7645 134.496C61.7058 134.549 61.665 134.619 61.6476 134.696L60.8878 139.314C60.881 139.347 60.8829 139.382 60.8933 139.414C60.9037 139.447 60.9223 139.476 60.9473 139.5L61.2905 139.793L61.4551 139.833L63.8207 139.597L64.93 134.472L64.6337 134.22Z" fill="#9E332E"/>
<path d="M64.7644 134.426L62.3013 134.677C62.2223 134.687 62.1482 134.72 62.0896 134.774C62.031 134.827 61.9908 134.898 61.9746 134.975L61.2148 139.593C61.2079 139.625 61.2092 139.659 61.2188 139.692C61.2283 139.724 61.2457 139.753 61.2694 139.777C61.2931 139.8 61.3224 139.818 61.3547 139.828C61.3869 139.838 61.4211 139.839 61.4541 139.833L63.9172 139.581C63.9961 139.571 64.0698 139.537 64.1285 139.484C64.1872 139.43 64.2279 139.361 64.2452 139.283L65.005 134.666C65.0117 134.633 65.0101 134.599 65.0004 134.567C64.9907 134.535 64.9731 134.506 64.9493 134.482C64.9255 134.458 64.8962 134.441 64.864 134.431C64.8317 134.421 64.7975 134.419 64.7644 134.426Z" fill="#B4625E"/>
<path d="M64.6441 134.67L64.0667 134.745C64.0231 134.751 63.9828 134.772 63.9512 134.802C63.9197 134.833 63.8985 134.873 63.8907 134.916C63.8882 134.934 63.8902 134.952 63.8964 134.969C63.9026 134.986 63.9128 135.001 63.9262 135.014C63.9396 135.026 63.9558 135.035 63.9734 135.04C63.991 135.045 64.0096 135.045 64.0274 135.041L64.6036 134.966C64.6471 134.959 64.6874 134.939 64.7191 134.909C64.7508 134.878 64.7724 134.839 64.7809 134.796C64.7833 134.778 64.7814 134.76 64.7752 134.743C64.769 134.726 64.7588 134.71 64.7454 134.698C64.732 134.686 64.7158 134.677 64.6982 134.672C64.6805 134.667 64.662 134.667 64.6441 134.67Z" fill="#9E332E"/>
<path d="M372.742 169.126C372.742 169.126 379.316 169.686 379.597 168.449C379.634 168.284 380.558 162.105 380.558 162.105L381.698 154.21C381.698 154.21 379.776 153.98 379.026 156.221C378.276 158.463 376.067 162.086 372.788 163.03C369.333 164.027 372.742 169.126 372.742 169.126Z" fill="#010117"/>
<path d="M341.518 137.193L342.104 137.4C342.104 137.4 343.638 134.824 346.772 135.865C346.772 135.865 348.025 136.385 347.279 137.066C346.533 137.746 346.719 137.394 345.693 138.373C344.667 139.352 343.268 139.843 342.303 139.512L341.234 139.135L341.518 137.193Z" fill="#ED9696"/>
<path d="M315.102 158.762C315.102 158.762 336.958 142.182 343.176 142.001C349.394 141.82 369.563 169.225 369.563 169.225H362.01C362.01 169.225 348.702 162.194 344.02 155.512C343.912 155.357 343.766 155.232 343.596 155.148C343.427 155.063 343.239 155.021 343.049 155.027C342.859 155.032 342.674 155.084 342.509 155.178C342.344 155.272 342.206 155.404 342.106 155.565C339.686 159.404 333.359 168.82 329.267 169.225C324.876 169.66 315.102 158.762 315.102 158.762Z" fill="#010117"/>
<path d="M317.189 113.645C317.189 113.645 317.051 114.731 316.873 116.073C316.637 117.815 316.321 119.977 316.114 120.654L309.544 122.312L309.06 117.565C309.06 117.565 310.706 114.286 310.697 109.645L317.189 113.645Z" fill="#ED9696"/>
<path d="M311.475 123.528L320.82 134.892L324.087 138.865C324.087 138.865 329.94 139.953 333.012 140.218C335.229 140.408 342.307 139.512 342.307 139.512L342.104 137.4C342.104 137.4 337.711 135.545 335.624 135.11C333.496 134.668 328.119 133.462 328.119 133.462C326.085 132.728 318.358 122.812 318.358 122.812L311.475 123.528Z" fill="#3662C1"/>
<path d="M305.378 164.107L324.488 162.558C324.488 162.558 324.541 162.181 324.63 161.54C324.658 161.334 324.674 161.128 324.678 160.92C324.723 159.026 323.972 156.471 323.649 153.959C323.435 152.301 323.408 150.663 323.918 149.245C324.507 147.61 324.778 144.505 324.897 141.553C325.048 137.857 324.961 134.404 324.963 134.379C325.154 132.025 324.591 129.41 323.646 126.925C321.782 122.022 318.306 119.25 316.672 117.604C316.672 117.604 314.678 118.093 309.493 116.549C309.34 116.503 308.894 117.15 308.697 117.529C308.697 117.529 306.453 120.347 305.531 127.22C304.707 133.378 305.378 164.107 305.378 164.107Z" fill="#6D89CF"/>
<path d="M310.159 130.039C310.197 130.901 317.884 155.201 316.944 156.994C312.386 165.668 323.879 161.759 324.503 159.522C324.282 158.03 323.937 151.163 324.481 149.14C324.93 147.462 324.778 144.504 324.897 141.552C324.705 140.476 324.254 139.363 323.646 138.283C320.788 137.844 309.873 123.348 310.159 130.039Z" fill="#3662C1"/>
<path d="M348.381 134.778L346.011 133.162C345.992 133.148 345.97 133.138 345.948 133.13L345.501 132.949L343.318 139.788L345.225 141.321L345.568 141.469C345.658 141.494 345.753 141.483 345.834 141.438C345.915 141.394 345.976 141.32 346.003 141.232L348.472 135.225C348.51 135.151 348.521 135.067 348.504 134.986C348.488 134.905 348.444 134.832 348.381 134.778Z" fill="#060632"/>
<path d="M347.969 134.613L345.598 133.001C345.437 132.892 345.206 132.993 345.115 133.214L342.755 138.956C342.721 139.026 342.71 139.106 342.723 139.183C342.737 139.26 342.774 139.331 342.83 139.387L345.092 141.272C345.251 141.398 345.501 141.308 345.598 141.075L348.066 135.07C348.106 134.994 348.117 134.907 348.099 134.824C348.082 134.741 348.036 134.667 347.969 134.613Z" fill="#BED2FA"/>
<path d="M343.197 138.644L345.425 140.496L347.665 135.049L345.33 133.457L343.197 138.644Z" fill="white"/>
<path d="M343.978 139.635C343.893 139.6 343.798 139.66 343.767 139.77C343.75 139.818 343.751 139.87 343.769 139.918C343.787 139.966 343.821 140.006 343.866 140.031C343.889 140.038 343.913 140.039 343.936 140.036C343.96 140.032 343.982 140.024 344.002 140.011C344.022 139.998 344.039 139.981 344.052 139.961C344.065 139.941 344.073 139.919 344.076 139.895C344.094 139.847 344.093 139.795 344.075 139.747C344.057 139.699 344.023 139.66 343.978 139.635Z" fill="#060632"/>
<path d="M345.431 133.82L343.466 138.498L345.396 139.992L347.327 135.148L345.431 133.82Z" fill="white"/>
<path d="M345.503 134.5L344.125 137.777L345.478 138.825L346.83 135.43L345.503 134.5Z" fill="white"/>
<path d="M341.794 140.506L342.996 140.467C342.996 140.467 344.194 138.001 346.935 139.17C346.935 139.17 348.036 139.741 347.429 140.377C346.823 141.013 346.964 140.674 346.129 141.591C345.293 142.509 344.113 142.926 343.268 142.557L342.332 142.141L341.794 140.506Z" fill="#ED9696"/>
<path d="M311.936 117.645C311.936 117.645 316.628 119.612 319.064 123.815C320.688 126.616 323.484 131.38 325.169 134.249C325.613 135.004 326.209 135.66 326.921 136.175C327.633 136.69 328.444 137.052 329.304 137.24L335.003 138.484L343 140.469C343.127 140.744 343.177 141.048 343.143 141.349C343.077 142.131 342.562 142.288 342.562 142.288C342.562 142.288 335.096 144.072 332.438 144.269C325.889 144.758 322.785 143.906 321.824 143.555C321.611 143.477 321.413 143.363 321.239 143.219C320.236 142.411 316.389 139.21 314.362 136.153C312.392 133.178 306.958 125.449 306.958 125.449L311.936 117.645Z" fill="#6D89CF"/>
<path d="M305.378 156.762C305.378 156.762 303.363 169.225 309.141 169.225H372.743C372.743 169.225 374.499 168.047 374.622 165.805C374.748 163.426 373.989 162.582 373.989 162.582C373.989 162.582 351.221 161.797 346.599 160.258C323.436 152.55 305.378 156.762 305.378 156.762Z" fill="#0B0754"/>
<path d="M317.189 113.647C317.189 113.647 317.051 114.734 316.873 116.075C310.795 114.315 310.692 109.645 310.692 109.645L317.189 113.647Z" fill="#EA8888"/>
<path d="M318.15 113.997C318.15 113.997 310.765 114.214 310.7 109.645C310.636 105.077 309.637 102.029 314.35 101.698C319.063 101.366 320.003 103.096 320.398 104.616C320.793 106.135 320.07 113.822 318.15 113.997Z" fill="#ED9696"/>
<path d="M310.7 109.645C310.7 109.645 312.613 103.44 319.184 103.763C323.065 103.954 322.523 99.4883 322.523 99.4883C322.523 99.4883 317.331 98.3028 313.107 99.4607C305.883 101.446 310.053 108.668 310.7 109.645Z" fill="#0B0754"/>
</g>
<defs>
<clipPath id="clip0_685_1457">
<rect width="369" height="135" fill="white" transform="translate(20 35)"/>
</clipPath>
</defs>
</svg>
