<svg width="256" height="260" viewBox="0 0 256 260" fill="none" xmlns="http://www.w3.org/2000/svg">
<path d="M254.496 80.4955C253.08 78.6095 250.858 77.5 248.5 77.5H194.871C169.75 77.5 172.758 77.5 150.5 77.5C128.242 77.5 131.5 77.5 106.128 77.5H59.511L49.711 8.4465C49.1865 4.7485 46.021 2 42.2855 2H7.5C3.358 2 0 5.358 0 9.5C0 13.642 3.358 17 7.5 17H35.775L45.5745 86.052V86.054L56.896 165.803C58.1245 174.402 62.306 182.292 68.695 188.145C63.693 192.275 60.5 198.522 60.5 205.5C60.5 215.861 67.5425 224.605 77.0905 227.207C76.068 229.776 75.5 232.572 75.5 235.5C75.5 247.906 85.5935 258 98 258C110.406 258 120.5 247.906 120.5 235.5C120.5 232.871 120.042 230.348 119.21 228H181.79C180.957 230.348 180.5 232.871 180.5 235.5C180.5 247.906 190.593 258 203 258C215.406 258 225.5 247.906 225.5 235.5C225.5 223.094 215.406 213 203 213H83C78.8645 213 75.5 209.635 75.5 205.5C75.5 201.365 78.8645 198 83 198H195.371C212.025 198 226.852 186.816 231.42 170.831L255.703 87.089C256.36 84.8235 255.913 82.381 254.496 80.4955Z" fill="url(#paint0_linear_10_3808)"/>
<g filter="url(#filter0_d_10_3808)">
<circle cx="152" cy="77" r="50" fill="url(#paint1_linear_10_3808)"/>
</g>
<path d="M159.285 101L156.811 93.5778L165.989 85.8128V94.296L159.285 101ZM143.188 63.0106H134.704L128 69.7146L135.422 72.1887L143.188 63.0106ZM168.608 76.609L150.347 92.0613L147.2 81.7999L136.939 78.6533L152.391 60.3919C157.905 53.8759 166.83 51.3729 174.928 54.0721C177.628 62.1703 175.125 71.0954 168.608 76.609ZM166.368 66.6316C166.368 64.4226 164.577 62.6314 162.368 62.6314C160.159 62.6314 158.368 64.4223 158.368 66.6316C158.368 68.841 160.159 70.6314 162.368 70.6314C164.577 70.6314 166.368 68.8407 166.368 66.6316Z" fill="#0177BF"/>
<path opacity="0.3" d="M130.234 98.7653C130.234 98.7653 129.384 90.6773 132.469 87.5919C135.554 84.5066 138.94 85.1237 141.408 87.5919C143.876 90.0602 144.493 93.445 141.408 96.5306C138.322 99.616 130.234 98.7653 130.234 98.7653Z" fill="#0177BF"/>
<rect x="147" y="140.504" width="10" height="48" rx="5" fill="white" fill-opacity="0.2"/>
<rect x="106" y="133.736" width="10" height="56" rx="5" transform="rotate(-10 106 133.736)" fill="white" fill-opacity="0.2"/>
<rect x="188.243" y="132" width="10" height="56" rx="5" transform="rotate(10 188.243 132)" fill="white" fill-opacity="0.2"/>
<defs>
<filter id="filter0_d_10_3808" x="70" y="15" width="164" height="164" filterUnits="userSpaceOnUse" color-interpolation-filters="sRGB">
<feFlood flood-opacity="0" result="BackgroundImageFix"/>
<feColorMatrix in="SourceAlpha" type="matrix" values="0 0 0 0 0 0 0 0 0 0 0 0 0 0 0 0 0 0 127 0" result="hardAlpha"/>
<feOffset dy="20"/>
<feGaussianBlur stdDeviation="16"/>
<feComposite in2="hardAlpha" operator="out"/>
<feColorMatrix type="matrix" values="0 0 0 0 0.105882 0 0 0 0 0.105882 0 0 0 0 0.313726 0 0 0 0.16 0"/>
<feBlend mode="normal" in2="BackgroundImageFix" result="effect1_dropShadow_10_3808"/>
<feBlend mode="normal" in="SourceGraphic" in2="effect1_dropShadow_10_3808" result="shape"/>
</filter>
<linearGradient id="paint0_linear_10_3808" x1="0" y1="258" x2="256" y2="2" gradientUnits="userSpaceOnUse">
<stop stop-color="#3BA4FF"/>
<stop offset="0.847293" stop-color="#33DBBE"/>
</linearGradient>
<linearGradient id="paint1_linear_10_3808" x1="152" y1="27" x2="152" y2="127" gradientUnits="userSpaceOnUse">
<stop stop-color="white"/>
<stop offset="1" stop-color="#C6EBFF"/>
</linearGradient>
</defs>
</svg>
