<?xml version="1.0" encoding="utf-8"?>
<!-- Generator: Adobe Illustrator 27.6.1, SVG Export Plug-In . SVG Version: 6.00 Build 0)  -->
<svg version="1.1" id="Layer_1" xmlns="http://www.w3.org/2000/svg" xmlns:xlink="http://www.w3.org/1999/xlink" x="0px" y="0px"
	 viewBox="0 0 400 170" style="enable-background:new 0 0 400 170;" xml:space="preserve">
<style type="text/css">
	.st0{fill:#D9E0FF;}
	.st1{fill:#6878FF;}
	.st2{opacity:0.2;fill:#6878FF;}
	.st3{fill:#FFFFFF;}
	.st4{opacity:0.2;fill:none;stroke:#6878FF;stroke-miterlimit:10;}
	.st5{fill:#FF597C;}
	.st6{opacity:0.2;fill:#FF597C;}
	.st7{opacity:0.2;fill:none;stroke:#FF597C;stroke-miterlimit:10;}
	.st8{fill:#00CDC2;}
	.st9{opacity:0.2;fill:#00CDC2;}
	.st10{opacity:0.2;fill:none;stroke:#00CDC2;stroke-miterlimit:10;}
	.st11{fill:#6C8BAD;}
	.st12{opacity:0.2;fill:#5475A1;}
	.st13{opacity:0.2;fill:#6C8BAD;}
	.st14{opacity:0.2;fill:none;stroke:#6C8BAD;stroke-miterlimit:10;}
	.st15{fill:#FFB53A;}
	.st16{opacity:0.2;fill:#FFB53A;}
	.st17{opacity:0.2;fill:none;stroke:#FFB53A;stroke-miterlimit:10;}
	.st18{fill:#FFFFFF;stroke:#C0CFFF;stroke-miterlimit:10;}
	.st19{fill:none;stroke:#CDDBFA;stroke-linecap:round;stroke-miterlimit:10;}
	.st20{opacity:0.3;fill:#6878FF;}
	.st21{opacity:0.3;fill:#FF597C;}
	.st22{fill:#CDDBFA;}
	.st23{opacity:0.3;}
	.st24{fill:none;stroke:#3E3E72;stroke-linecap:round;stroke-miterlimit:10;}
	.st25{fill:none;stroke:#3E3E72;stroke-linecap:round;stroke-miterlimit:10;stroke-dasharray:5.7859,5.7859;}
	.st26{fill:none;stroke:#3E3E72;stroke-linecap:round;stroke-miterlimit:10;stroke-dasharray:5.8453,5.8453;}
	.st27{fill:none;stroke:#3E3E72;stroke-linecap:round;stroke-miterlimit:10;stroke-dasharray:4.5785,4.5785;}
</style>
<g>
	<rect x="1306.47" y="185.75" class="st0" width="400" height="170"/>
	<g>
		<path class="st1" d="M1377.62,261.72h-43.96c-1.35,0-2.44-1.09-2.44-2.44v0c0-1.35,1.09-2.44,2.44-2.44h43.96
			c1.35,0,2.44,1.09,2.44,2.44v0C1380.06,260.63,1378.97,261.72,1377.62,261.72z"/>
		<path class="st2" d="M1366.8,270.68h-33.14c-1.35,0-2.44-1.09-2.44-2.44v0c0-1.35,1.09-2.44,2.44-2.44h33.14
			c1.35,0,2.44,1.09,2.44,2.44v0C1369.24,269.58,1368.15,270.68,1366.8,270.68z"/>
		<path class="st2" d="M1385.2,251.14h-50.98c-1.66,0-3-1.34-3-3v-34.7c0-1.66,1.34-3,3-3h50.98c1.66,0,3,1.34,3,3v34.7
			C1388.2,249.8,1386.86,251.14,1385.2,251.14z"/>
		<path class="st1" d="M1332.06,240.73l10.72-10.72c1.11-1.11,2.92-1.11,4.03,0l4.29,4.29c1.11,1.11,2.92,1.11,4.03,0l11.42-11.42
			c1.11-1.11,2.92-1.11,4.03,0l16.83,16.83c0.53,0.53,0.84,1.26,0.84,2.02v6.56c0,1.57-1.28,2.85-2.85,2.85h-51.32
			c-1.57,0-2.85-1.28-2.85-2.85v-5.54C1331.22,241.99,1331.52,241.26,1332.06,240.73z"/>
		<circle class="st1" cx="1353.11" cy="221.56" r="4.42"/>
		<path class="st1" d="M1355.13,291.23h-18.21c-3.13,0-5.69-2.56-5.69-5.69v-0.01c0-3.13,2.56-5.69,5.69-5.69h18.21
			c3.13,0,5.69,2.56,5.69,5.69v0.01C1360.82,288.66,1358.26,291.23,1355.13,291.23z"/>
		<path class="st3" d="M1350.39,287.16h-8.74c-0.9,0-1.63-0.73-1.63-1.63v0c0-0.9,0.73-1.63,1.63-1.63h8.74
			c0.9,0,1.63,0.73,1.63,1.63v0C1352.02,286.43,1351.29,287.16,1350.39,287.16z"/>
		<path class="st4" d="M1388,295.98h-56.53c-2.76,0-5-2.24-5-5v-80.29c0-2.76,2.24-5,5-5H1388c2.76,0,5,2.24,5,5v80.29
			C1393,293.74,1390.76,295.98,1388,295.98z"/>
	</g>
	<g>
		<path class="st5" d="M1450.99,261.72h-43.96c-1.35,0-2.44-1.09-2.44-2.44v0c0-1.35,1.09-2.44,2.44-2.44h43.96
			c1.35,0,2.44,1.09,2.44,2.44v0C1453.43,260.63,1452.34,261.72,1450.99,261.72z"/>
		<path class="st6" d="M1440.17,270.68h-33.14c-1.35,0-2.44-1.09-2.44-2.44v0c0-1.35,1.09-2.44,2.44-2.44h33.14
			c1.35,0,2.44,1.09,2.44,2.44v0C1442.61,269.58,1441.52,270.68,1440.17,270.68z"/>
		<path class="st6" d="M1458.57,251.14h-50.98c-1.66,0-3-1.34-3-3v-34.7c0-1.66,1.34-3,3-3h50.98c1.66,0,3,1.34,3,3v34.7
			C1461.57,249.8,1460.23,251.14,1458.57,251.14z"/>
		<path class="st5" d="M1405.43,240.73l10.72-10.72c1.11-1.11,2.92-1.11,4.03,0l4.29,4.29c1.11,1.11,2.92,1.11,4.03,0l11.42-11.42
			c1.11-1.11,2.92-1.11,4.03,0l16.83,16.83c0.53,0.53,0.84,1.26,0.84,2.02v6.56c0,1.57-1.28,2.85-2.85,2.85h-51.32
			c-1.57,0-2.85-1.28-2.85-2.85v-5.54C1404.59,241.99,1404.89,241.26,1405.43,240.73z"/>
		<circle class="st5" cx="1426.48" cy="221.56" r="4.42"/>
		<path class="st5" d="M1428.5,291.23h-18.21c-3.13,0-5.69-2.56-5.69-5.69v-0.01c0-3.13,2.56-5.69,5.69-5.69h18.21
			c3.13,0,5.69,2.56,5.69,5.69v0.01C1434.19,288.66,1431.63,291.23,1428.5,291.23z"/>
		<path class="st3" d="M1423.76,287.16h-8.74c-0.9,0-1.63-0.73-1.63-1.63v0c0-0.9,0.73-1.63,1.63-1.63h8.74
			c0.9,0,1.63,0.73,1.63,1.63v0C1425.39,286.43,1424.66,287.16,1423.76,287.16z"/>
		<path class="st7" d="M1461.37,295.98h-56.53c-2.76,0-5-2.24-5-5v-80.29c0-2.76,2.24-5,5-5h56.53c2.76,0,5,2.24,5,5v80.29
			C1466.37,293.74,1464.13,295.98,1461.37,295.98z"/>
	</g>
	<g>
		<path class="st8" d="M1597.73,261.72h-43.96c-1.35,0-2.44-1.09-2.44-2.44v0c0-1.35,1.09-2.44,2.44-2.44h43.96
			c1.35,0,2.44,1.09,2.44,2.44v0C1600.17,260.63,1599.07,261.72,1597.73,261.72z"/>
		<path class="st9" d="M1581.45,270.68h-27.68c-1.35,0-2.44-1.09-2.44-2.44v0c0-1.35,1.09-2.44,2.44-2.44h27.68
			c1.35,0,2.44,1.09,2.44,2.44v0C1583.89,269.58,1582.79,270.68,1581.45,270.68z"/>
		<path class="st9" d="M1605.31,251.14h-50.98c-1.66,0-3-1.34-3-3v-34.7c0-1.66,1.34-3,3-3h50.98c1.66,0,3,1.34,3,3v34.7
			C1608.31,249.8,1606.96,251.14,1605.31,251.14z"/>
		<path class="st8" d="M1552.16,240.73l10.72-10.72c1.11-1.11,2.92-1.11,4.03,0l4.29,4.29c1.11,1.11,2.92,1.11,4.03,0l11.42-11.42
			c1.11-1.11,2.92-1.11,4.03,0l16.83,16.83c0.53,0.53,0.84,1.26,0.84,2.02v6.56c0,1.57-1.28,2.85-2.85,2.85h-51.32
			c-1.57,0-2.85-1.28-2.85-2.85v-5.54C1551.33,241.99,1551.63,241.26,1552.16,240.73z"/>
		<circle class="st8" cx="1573.21" cy="221.56" r="4.42"/>
		<path class="st8" d="M1575.23,291.23h-18.21c-3.13,0-5.69-2.56-5.69-5.69v-0.01c0-3.13,2.56-5.69,5.69-5.69h18.21
			c3.13,0,5.69,2.56,5.69,5.69v0.01C1580.93,288.66,1578.36,291.23,1575.23,291.23z"/>
		<path class="st10" d="M1608.1,295.98h-56.53c-2.76,0-5-2.24-5-5v-80.29c0-2.76,2.24-5,5-5h56.53c2.76,0,5,2.24,5,5v80.29
			C1613.1,293.74,1610.87,295.98,1608.1,295.98z"/>
		<path class="st3" d="M1570.5,287.16h-8.74c-0.9,0-1.63-0.73-1.63-1.63v0c0-0.9,0.73-1.63,1.63-1.63h8.74
			c0.9,0,1.63,0.73,1.63,1.63v0C1572.12,286.43,1571.4,287.16,1570.5,287.16z"/>
	</g>
	<g>
		<path class="st11" d="M1671.09,261.72h-43.96c-1.35,0-2.44-1.09-2.44-2.44v0c0-1.35,1.09-2.44,2.44-2.44h43.96
			c1.35,0,2.44,1.09,2.44,2.44v0C1673.53,260.63,1672.44,261.72,1671.09,261.72z"/>
		<path class="st12" d="M1654.81,270.68h-27.68c-1.35,0-2.44-1.09-2.44-2.44v0c0-1.35,1.09-2.44,2.44-2.44h27.68
			c1.35,0,2.44,1.09,2.44,2.44v0C1657.25,269.58,1656.16,270.68,1654.81,270.68z"/>
		<path class="st13" d="M1678.67,251.14h-50.98c-1.66,0-3-1.34-3-3v-34.7c0-1.66,1.34-3,3-3h50.98c1.66,0,3,1.34,3,3v34.7
			C1681.67,249.8,1680.33,251.14,1678.67,251.14z"/>
		<path class="st11" d="M1625.53,240.73l10.72-10.72c1.11-1.11,2.92-1.11,4.03,0l4.29,4.29c1.11,1.11,2.92,1.11,4.03,0l11.42-11.42
			c1.11-1.11,2.92-1.11,4.03,0l16.83,16.83c0.53,0.53,0.84,1.26,0.84,2.02v6.56c0,1.57-1.28,2.85-2.85,2.85h-51.32
			c-1.57,0-2.85-1.28-2.85-2.85v-5.54C1624.69,241.99,1624.99,241.26,1625.53,240.73z"/>
		<circle class="st11" cx="1646.58" cy="221.56" r="4.42"/>
		<path class="st11" d="M1648.6,291.23h-18.21c-3.13,0-5.69-2.56-5.69-5.69v-0.01c0-3.13,2.56-5.69,5.69-5.69h18.21
			c3.13,0,5.69,2.56,5.69,5.69v0.01C1654.29,288.66,1651.73,291.23,1648.6,291.23z"/>
		<path class="st14" d="M1681.47,295.98h-56.53c-2.76,0-5-2.24-5-5v-80.29c0-2.76,2.24-5,5-5h56.53c2.76,0,5,2.24,5,5v80.29
			C1686.47,293.74,1684.23,295.98,1681.47,295.98z"/>
		<path class="st3" d="M1643.86,287.16h-8.74c-0.9,0-1.63-0.73-1.63-1.63v0c0-0.9,0.73-1.63,1.63-1.63h8.74
			c0.9,0,1.63,0.73,1.63,1.63v0C1645.49,286.43,1644.76,287.16,1643.86,287.16z"/>
	</g>
	<g>
		<path class="st15" d="M1524.36,261.72h-43.96c-1.35,0-2.44-1.09-2.44-2.44v0c0-1.35,1.09-2.44,2.44-2.44h43.96
			c1.35,0,2.44,1.09,2.44,2.44v0C1526.8,260.63,1525.71,261.72,1524.36,261.72z"/>
		<path class="st16" d="M1513.54,270.68h-33.14c-1.35,0-2.44-1.09-2.44-2.44v0c0-1.35,1.09-2.44,2.44-2.44h33.14
			c1.35,0,2.44,1.09,2.44,2.44v0C1515.98,269.58,1514.88,270.68,1513.54,270.68z"/>
		<path class="st16" d="M1531.94,251.14h-50.98c-1.66,0-3-1.34-3-3v-34.7c0-1.66,1.34-3,3-3h50.98c1.66,0,3,1.34,3,3v34.7
			C1534.94,249.8,1533.59,251.14,1531.94,251.14z"/>
		<path class="st15" d="M1478.79,240.73l10.72-10.72c1.11-1.11,2.92-1.11,4.03,0l4.29,4.29c1.11,1.11,2.92,1.11,4.03,0l11.42-11.42
			c1.11-1.11,2.92-1.11,4.03,0l16.83,16.83c0.53,0.53,0.84,1.26,0.84,2.02v6.56c0,1.57-1.28,2.85-2.85,2.85h-51.32
			c-1.57,0-2.85-1.28-2.85-2.85v-5.54C1477.96,241.99,1478.26,241.26,1478.79,240.73z"/>
		<circle class="st15" cx="1499.85" cy="221.56" r="4.42"/>
		<path class="st15" d="M1501.87,291.23h-18.21c-3.13,0-5.69-2.56-5.69-5.69v-0.01c0-3.13,2.56-5.69,5.69-5.69h18.21
			c3.13,0,5.69,2.56,5.69,5.69v0.01C1507.56,288.66,1505,291.23,1501.87,291.23z"/>
		<path class="st3" d="M1497.13,287.16h-8.74c-0.9,0-1.63-0.73-1.63-1.63v0c0-0.9,0.73-1.63,1.63-1.63h8.74
			c0.9,0,1.63,0.73,1.63,1.63v0C1498.76,286.43,1498.03,287.16,1497.13,287.16z"/>
		<path class="st17" d="M1534.74,295.98h-56.53c-2.76,0-5-2.24-5-5v-80.29c0-2.76,2.24-5,5-5h56.53c2.76,0,5,2.24,5,5v80.29
			C1539.74,293.74,1537.5,295.98,1534.74,295.98z"/>
	</g>
	<path class="st18" d="M1426.47,335.71h-95c-2.76,0-5-2.24-5-5v-17.13c0-2.76,2.24-5,5-5h95c2.76,0,5,2.24,5,5v17.13
		C1431.47,333.47,1429.23,335.71,1426.47,335.71z"/>
	<g>
		<g>
			<path class="st5" d="M1390.98,320.14h-28.39c-0.83,0-1.5-0.67-1.5-1.5l0,0c0-0.83,0.67-1.5,1.5-1.5h28.39
				c0.83,0,1.5,0.67,1.5,1.5l0,0C1392.48,319.47,1391.81,320.14,1390.98,320.14z"/>
			<path class="st6" d="M1380.52,327.14h-17.92c-0.83,0-1.5-0.67-1.5-1.5l0,0c0-0.83,0.67-1.5,1.5-1.5h17.92
				c0.83,0,1.5,0.67,1.5,1.5l0,0C1382.02,326.47,1381.35,327.14,1380.52,327.14z"/>
		</g>
		<g>
			<line class="st19" x1="1421.13" y1="320.22" x2="1425.13" y2="324.22"/>
			<line class="st19" x1="1425.13" y1="320.22" x2="1421.13" y2="324.22"/>
		</g>
		<g>
			<path class="st6" d="M1355.08,331.52h-22.26c-1.1,0-2-0.9-2-2v-14.76c0-1.1,0.9-2,2-2h22.26c1.1,0,2,0.9,2,2v14.76
				C1357.08,330.63,1356.19,331.52,1355.08,331.52z"/>
			<path class="st5" d="M1331.31,326.6l4.53-4.53c0.67-0.67,1.76-0.67,2.43,0l1.4,1.4c0.67,0.67,1.76,0.67,2.43,0l4.69-4.69
				c0.67-0.67,1.76-0.67,2.43,0l7.35,7.35c0.32,0.32,0.5,0.76,0.5,1.22v2.45c0,0.95-0.77,1.72-1.72,1.72h-22.85
				c-0.95,0-1.72-0.77-1.72-1.72v-1.98C1330.81,327.36,1330.99,326.93,1331.31,326.6z"/>
			<circle class="st5" cx="1340.9" cy="317.89" r="2.04"/>
		</g>
	</g>
</g>
<g>
	<rect x="0" class="st0" width="400" height="170"/>
	<path class="st8" d="M313.84,113.96h-46.25c-1.42,0-2.57-1.15-2.57-2.57v0c0-1.42,1.15-2.57,2.57-2.57h46.25
		c1.42,0,2.57,1.15,2.57,2.57v0C316.41,112.81,315.26,113.96,313.84,113.96z"/>
	<path class="st9" d="M296.71,123.38h-29.12c-1.42,0-2.57-1.15-2.57-2.57v0c0-1.42,1.15-2.57,2.57-2.57h29.12
		c1.42,0,2.57,1.15,2.57,2.57v0C299.28,122.23,298.13,123.38,296.71,123.38z"/>
	<path class="st9" d="M321.98,102.82h-53.95c-1.66,0-3-1.34-3-3V63c0-1.66,1.34-3,3-3h53.95c1.66,0,3,1.34,3,3v36.82
		C324.98,101.48,323.63,102.82,321.98,102.82z"/>
	<path class="st8" d="M265.78,91.99l11.71-11.71c1-1,2.63-1,3.63,0l5.12,5.12c1,1,2.63,1,3.63,0l12.63-12.63c1-1,2.63-1,3.63,0
		l18.14,18.14c0.48,0.48,0.75,1.14,0.75,1.82v7.52c0,1.42-1.15,2.57-2.57,2.57h-54.86c-1.42,0-2.57-1.15-2.57-2.57v-6.44
		C265.03,93.13,265.3,92.48,265.78,91.99z"/>
	<circle class="st1" cx="288.06" cy="71.7" r="4.65"/>
	<path class="st8" d="M290.17,145h-19.15c-3.3,0-6-2.7-6-6v0c0-3.3,2.7-6,6-6h19.15c3.3,0,6,2.7,6,6v0
		C296.17,142.3,293.47,145,290.17,145z"/>
	<path class="st3" d="M285.19,140.72H276c-0.95,0-1.71-0.77-1.71-1.71l0,0c0-0.95,0.77-1.71,1.71-1.71h9.19
		c0.95,0,1.71,0.77,1.71,1.71l0,0C286.91,139.95,286.14,140.72,285.19,140.72z"/>
	<path class="st10" d="M325.03,150h-60c-2.76,0-5-2.24-5-5V60c0-2.76,2.24-5,5-5h60c2.76,0,5,2.24,5,5v85
		C330.03,147.76,327.79,150,325.03,150z"/>
	<path class="st20" d="M130,40H30c-5.5,0-10-4.5-10-10v0c0-5.5,4.5-10,10-10h100c5.5,0,10,4.5,10,10v0C140,35.5,135.5,40,130,40z"/>
	<path class="st21" d="M240,40h-28.64c-5.5,0-10-4.5-10-10v0c0-5.5,4.5-10,10-10H240c5.5,0,10,4.5,10,10v0C250,35.5,245.5,40,240,40
		z"/>
	<path class="st1" d="M77,33H33c-1.66,0-3-1.34-3-3v0c0-1.66,1.34-3,3-3h44c1.66,0,3,1.34,3,3v0C80,31.66,78.66,33,77,33z"/>
	<path class="st5" d="M235.15,33h-18.93c-1.66,0-3-1.34-3-3v0c0-1.66,1.34-3,3-3h18.93c1.66,0,3,1.34,3,3v0
		C238.15,31.66,236.8,33,235.15,33z"/>
	<path class="st18" d="M375,150H275c-2.76,0-5-2.24-5-5V25c0-2.76,2.24-5,5-5h100c2.76,0,5,2.24,5,5v120
		C380,147.76,377.76,150,375,150z"/>
	<g>
		<path class="st1" d="M340.17,37.38h-28.39c-0.83,0-1.5-0.67-1.5-1.5l0,0c0-0.83,0.67-1.5,1.5-1.5h28.39c0.83,0,1.5,0.67,1.5,1.5
			l0,0C341.67,36.71,341,37.38,340.17,37.38z"/>
		<path class="st22" d="M329.71,44.38h-17.92c-0.83,0-1.5-0.67-1.5-1.5l0,0c0-0.83,0.67-1.5,1.5-1.5h17.92c0.83,0,1.5,0.67,1.5,1.5
			l0,0C331.21,43.71,330.54,44.38,329.71,44.38z"/>
	</g>
	<g>
		<path class="st8" d="M340.17,61.14h-28.39c-0.83,0-1.5-0.67-1.5-1.5l0,0c0-0.83,0.67-1.5,1.5-1.5h28.39c0.83,0,1.5,0.67,1.5,1.5
			l0,0C341.67,60.47,341,61.14,340.17,61.14z"/>
		<path class="st9" d="M329.71,68.14h-17.92c-0.83,0-1.5-0.67-1.5-1.5v0c0-0.83,0.67-1.5,1.5-1.5h17.92c0.83,0,1.5,0.67,1.5,1.5v0
			C331.21,67.47,330.54,68.14,329.71,68.14z"/>
	</g>
	<g>
		<path class="st15" d="M340.17,84.9h-28.39c-0.83,0-1.5-0.67-1.5-1.5v0c0-0.83,0.67-1.5,1.5-1.5h28.39c0.83,0,1.5,0.67,1.5,1.5v0
			C341.67,84.23,341,84.9,340.17,84.9z"/>
		<path class="st16" d="M329.71,91.9h-17.92c-0.83,0-1.5-0.67-1.5-1.5v0c0-0.83,0.67-1.5,1.5-1.5h17.92c0.83,0,1.5,0.67,1.5,1.5v0
			C331.21,91.23,330.54,91.9,329.71,91.9z"/>
	</g>
	<g>
		<path class="st5" d="M340.17,108.58h-28.39c-0.83,0-1.5-0.67-1.5-1.5v0c0-0.83,0.67-1.5,1.5-1.5h28.39c0.83,0,1.5,0.67,1.5,1.5v0
			C341.67,107.91,341,108.58,340.17,108.58z"/>
		<path class="st6" d="M329.71,115.58h-17.92c-0.83,0-1.5-0.67-1.5-1.5v0c0-0.83,0.67-1.5,1.5-1.5h17.92c0.83,0,1.5,0.67,1.5,1.5v0
			C331.21,114.91,330.54,115.58,329.71,115.58z"/>
	</g>
	<g>
		<path class="st22" d="M304.27,48.76h-22.26c-1.1,0-2-0.9-2-2V32c0-1.1,0.9-2,2-2h22.26c1.1,0,2,0.9,2,2v14.76
			C306.27,47.86,305.38,48.76,304.27,48.76z"/>
		<path class="st1" d="M280.5,43.84l4.53-4.53c0.67-0.67,1.76-0.67,2.43,0l1.4,1.4c0.67,0.67,1.76,0.67,2.43,0l4.69-4.69
			c0.67-0.67,1.76-0.67,2.43,0l7.35,7.35c0.32,0.32,0.5,0.76,0.5,1.22v2.45c0,0.95-0.77,1.72-1.72,1.72h-22.85
			c-0.95,0-1.72-0.77-1.72-1.72v-1.98C280,44.6,280.18,44.16,280.5,43.84z"/>
		<circle class="st1" cx="290.09" cy="35.12" r="2.04"/>
	</g>
	<g>
		<line class="st19" x1="365.32" y1="37.38" x2="369.32" y2="41.38"/>
		<line class="st19" x1="369.32" y1="37.38" x2="365.32" y2="41.38"/>
	</g>
	<g>
		<line class="st19" x1="365.32" y1="61.14" x2="369.32" y2="65.14"/>
		<line class="st19" x1="369.32" y1="61.14" x2="365.32" y2="65.14"/>
	</g>
	<g>
		<line class="st19" x1="365.32" y1="84.9" x2="369.32" y2="88.9"/>
		<line class="st19" x1="369.32" y1="84.9" x2="365.32" y2="88.9"/>
	</g>
	<g>
		<line class="st19" x1="365.32" y1="108.66" x2="369.32" y2="112.66"/>
		<line class="st19" x1="369.32" y1="108.66" x2="365.32" y2="112.66"/>
	</g>
	<g>
		<path class="st9" d="M304.27,72.52h-22.26c-1.1,0-2-0.9-2-2V55.76c0-1.1,0.9-2,2-2h22.26c1.1,0,2,0.9,2,2v14.76
			C306.27,71.62,305.38,72.52,304.27,72.52z"/>
		<path class="st8" d="M280.5,67.6l4.53-4.53c0.67-0.67,1.76-0.67,2.43,0l1.4,1.4c0.67,0.67,1.76,0.67,2.43,0l4.69-4.69
			c0.67-0.67,1.76-0.67,2.43,0l7.35,7.35c0.32,0.32,0.5,0.76,0.5,1.22v2.45c0,0.95-0.77,1.72-1.72,1.72h-22.85
			c-0.95,0-1.72-0.77-1.72-1.72v-1.98C280,68.36,280.18,67.92,280.5,67.6z"/>
		<circle class="st8" cx="290.09" cy="58.88" r="2.04"/>
	</g>
	<g>
		<path class="st16" d="M304.27,96.28h-22.26c-1.1,0-2-0.9-2-2V79.52c0-1.1,0.9-2,2-2h22.26c1.1,0,2,0.9,2,2v14.76
			C306.27,95.38,305.38,96.28,304.27,96.28z"/>
		<path class="st15" d="M280.5,91.36l4.53-4.53c0.67-0.67,1.76-0.67,2.43,0l1.4,1.4c0.67,0.67,1.76,0.67,2.43,0l4.69-4.69
			c0.67-0.67,1.76-0.67,2.43,0l7.35,7.35c0.32,0.32,0.5,0.76,0.5,1.22v2.45c0,0.95-0.77,1.72-1.72,1.72h-22.85
			c-0.95,0-1.72-0.77-1.72-1.72v-1.98C280,92.12,280.18,91.68,280.5,91.36z"/>
		<circle class="st15" cx="290.09" cy="82.64" r="2.04"/>
	</g>
	<g>
		<path class="st6" d="M304.27,119.96h-22.26c-1.1,0-2-0.9-2-2V103.2c0-1.1,0.9-2,2-2h22.26c1.1,0,2,0.9,2,2v14.76
			C306.27,119.06,305.38,119.96,304.27,119.96z"/>
		<path class="st5" d="M280.5,115.04l4.53-4.53c0.67-0.67,1.76-0.67,2.43,0l1.4,1.4c0.67,0.67,1.76,0.67,2.43,0l4.69-4.69
			c0.67-0.67,1.76-0.67,2.43,0l7.35,7.35c0.32,0.32,0.5,0.76,0.5,1.22v2.45c0,0.95-0.77,1.72-1.72,1.72h-22.85
			c-0.95,0-1.72-0.77-1.72-1.72v-1.98C280,115.8,280.18,115.36,280.5,115.04z"/>
		<circle class="st5" cx="290.09" cy="106.32" r="2.04"/>
	</g>
	<path class="st22" d="M322.64,140H286c-3.3,0-6-2.7-6-6l0,0c0-3.3,2.7-6,6-6h36.64c3.3,0,6,2.7,6,6l0,0
		C328.64,137.3,325.94,140,322.64,140z"/>
	<path class="st1" d="M364,140h-24.36c-3.3,0-6-2.7-6-6l0,0c0-3.3,2.7-6,6-6H364c3.3,0,6,2.7,6,6l0,0C370,137.3,367.3,140,364,140z"
		/>
	<path class="st1" d="M73.82,113.96H27.57c-1.42,0-2.57-1.15-2.57-2.57v0c0-1.42,1.15-2.57,2.57-2.57h46.25
		c1.42,0,2.57,1.15,2.57,2.57v0C76.39,112.81,75.24,113.96,73.82,113.96z"/>
	<path class="st2" d="M62.43,123.38H27.57c-1.42,0-2.57-1.15-2.57-2.57v0c0-1.42,1.15-2.57,2.57-2.57h34.86
		c1.42,0,2.57,1.15,2.57,2.57v0C65,122.23,63.85,123.38,62.43,123.38z"/>
	<path class="st2" d="M81.95,102.82H28c-1.66,0-3-1.34-3-3V63c0-1.66,1.34-3,3-3h53.95c1.66,0,3,1.34,3,3v36.82
		C84.95,101.48,83.61,102.82,81.95,102.82z"/>
	<path class="st1" d="M25.88,91.87l11.27-11.27c1.17-1.17,3.07-1.17,4.24,0l4.51,4.51c1.17,1.17,3.07,1.17,4.24,0l12.02-12.02
		c1.17-1.17,3.07-1.17,4.24,0l17.71,17.71c0.56,0.56,0.88,1.33,0.88,2.12v7.34c0,1.42-1.15,2.57-2.57,2.57H27.57
		c-1.42,0-2.57-1.15-2.57-2.57v-6.26C25,93.19,25.32,92.43,25.88,91.87z"/>
	<circle class="st1" cx="48.03" cy="71.7" r="4.65"/>
	<path class="st1" d="M50.15,145H31c-3.3,0-6-2.7-6-6v0c0-3.3,2.7-6,6-6h19.15c3.3,0,6,2.7,6,6v0C56.14,142.3,53.45,145,50.15,145z"
		/>
	<path class="st3" d="M45.17,140.72h-9.19c-0.95,0-1.71-0.77-1.71-1.71l0,0c0-0.95,0.77-1.71,1.71-1.71h9.19
		c0.95,0,1.71,0.77,1.71,1.71l0,0C46.88,139.95,46.12,140.72,45.17,140.72z"/>
	<path class="st4" d="M85,150H25c-2.76,0-5-2.24-5-5V60c0-2.76,2.24-5,5-5h60c2.76,0,5,2.24,5,5v85C90,147.76,87.76,150,85,150z"/>
	<path class="st5" d="M153.82,113.96h-46.25c-1.42,0-2.57-1.15-2.57-2.57v0c0-1.42,1.15-2.57,2.57-2.57h46.25
		c1.42,0,2.57,1.15,2.57,2.57v0C156.39,112.81,155.24,113.96,153.82,113.96z"/>
	<path class="st6" d="M142.43,123.38h-34.86c-1.42,0-2.57-1.15-2.57-2.57v0c0-1.42,1.15-2.57,2.57-2.57h34.86
		c1.42,0,2.57,1.15,2.57,2.57v0C145,122.23,143.85,123.38,142.43,123.38z"/>
	<path class="st6" d="M161.95,102.82H108c-1.66,0-3-1.34-3-3V63c0-1.66,1.34-3,3-3h53.95c1.66,0,3,1.34,3,3v36.82
		C164.95,101.48,163.61,102.82,161.95,102.82z"/>
	<path class="st5" d="M105.88,91.87l11.27-11.27c1.17-1.17,3.07-1.17,4.24,0l4.51,4.51c1.17,1.17,3.07,1.17,4.24,0l12.02-12.02
		c1.17-1.17,3.07-1.17,4.24,0l17.71,17.71c0.56,0.56,0.88,1.33,0.88,2.12v7.34c0,1.42-1.15,2.57-2.57,2.57h-54.86
		c-1.42,0-2.57-1.15-2.57-2.57v-6.26C105,93.19,105.32,92.43,105.88,91.87z"/>
	<circle class="st5" cx="128.03" cy="71.7" r="4.65"/>
	<path class="st5" d="M130.15,145H111c-3.3,0-6-2.7-6-6v0c0-3.3,2.7-6,6-6h19.15c3.3,0,6,2.7,6,6v0
		C136.14,142.3,133.45,145,130.15,145z"/>
	<path class="st3" d="M125.17,140.72h-9.19c-0.95,0-1.71-0.77-1.71-1.71l0,0c0-0.95,0.77-1.71,1.71-1.71h9.19
		c0.95,0,1.71,0.77,1.71,1.71l0,0C126.88,139.95,126.12,140.72,125.17,140.72z"/>
	<path class="st7" d="M165,150h-60c-2.76,0-5-2.24-5-5V60c0-2.76,2.24-5,5-5h60c2.76,0,5,2.24,5,5v85C170,147.76,167.76,150,165,150
		z"/>
	<path class="st15" d="M233.85,113.96H187.6c-1.42,0-2.57-1.15-2.57-2.57v0c0-1.42,1.15-2.57,2.57-2.57h46.25
		c1.42,0,2.57,1.15,2.57,2.57v0C236.42,112.81,235.26,113.96,233.85,113.96z"/>
	<path class="st16" d="M222.46,123.38H187.6c-1.42,0-2.57-1.15-2.57-2.57v0c0-1.42,1.15-2.57,2.57-2.57h34.86
		c1.42,0,2.57,1.15,2.57,2.57v0C225.03,122.23,223.88,123.38,222.46,123.38z"/>
	<path class="st16" d="M241.98,102.82h-53.95c-1.66,0-3-1.34-3-3V63c0-1.66,1.34-3,3-3h53.95c1.66,0,3,1.34,3,3v36.82
		C244.98,101.48,243.64,102.82,241.98,102.82z"/>
	<path class="st15" d="M185.91,91.87l11.27-11.27c1.17-1.17,3.07-1.17,4.24,0l4.51,4.51c1.17,1.17,3.07,1.17,4.24,0l12.02-12.02
		c1.17-1.17,3.07-1.17,4.24,0l17.71,17.71c0.56,0.56,0.88,1.33,0.88,2.12v7.34c0,1.42-1.15,2.57-2.57,2.57H187.6
		c-1.42,0-2.57-1.15-2.57-2.57v-6.26C185.03,93.19,185.34,92.43,185.91,91.87z"/>
	<circle class="st15" cx="208.06" cy="71.7" r="4.65"/>
	<path class="st15" d="M210.18,145h-19.15c-3.3,0-6-2.7-6-6v0c0-3.3,2.7-6,6-6h19.15c3.3,0,6,2.7,6,6v0
		C216.17,142.3,213.48,145,210.18,145z"/>
	<path class="st3" d="M205.2,140.72H196c-0.95,0-1.71-0.77-1.71-1.71l0,0c0-0.95,0.77-1.71,1.71-1.71h9.19
		c0.95,0,1.71,0.77,1.71,1.71l0,0C206.91,139.95,206.14,140.72,205.2,140.72z"/>
	<path class="st17" d="M245.03,150h-60c-2.76,0-5-2.24-5-5V60c0-2.76,2.24-5,5-5h60c2.76,0,5,2.24,5,5v85
		C250.03,147.76,247.79,150,245.03,150z"/>
	<g class="st23">
		<g>
			<path class="st24" d="M267.11,70.15c-1-0.06-2-0.11-3-0.15"/>
			<path class="st25" d="M258.33,69.88c-68.98-0.27-118.13,43.11-132.13,57.05"/>
			<path class="st24" d="M124.17,128.99c-1.35,1.4-2.04,2.19-2.04,2.19"/>
		</g>
	</g>
	<g class="st23">
		<g>
			<path class="st24" d="M252.64,87.67c0.17-0.95,0.43-1.93,0.76-2.9"/>
			<path class="st26" d="M255.97,79.54c0.59-0.88,1.24-1.73,1.96-2.52c1.22-1.34,2.73-2.6,4.19-3.67"/>
			<path class="st24" d="M264.54,71.69c1.5-0.96,2.57-1.54,2.57-1.54l-2.05-2.19"/>
			<line class="st27" x1="261.92" y1="64.63" x2="257.21" y2="59.63"/>
			<line class="st24" x1="255.65" y1="57.96" x2="253.59" y2="55.77"/>
		</g>
	</g>
</g>
</svg>
