<svg width="148" height="116" viewBox="0 0 148 116" fill="none" xmlns="http://www.w3.org/2000/svg">
<g opacity="0.2" clip-path="url(#clip0_2352_155)">
<path d="M18.0486 55.295C17.9636 55.8691 17.8333 56.0987 17.9091 56.2928C24.5529 71.931 36.5095 84.4363 54.9151 92.9799C59.594 95.1479 64.6786 96.3516 69.8796 96.7176C81.101 97.5104 90.2621 92.6735 93.1616 84.4208C94.6611 80.1454 95.211 75.7817 93.1107 71.1084C90.541 70.0949 87.9538 69.2203 85.5155 68.0834C81.6795 66.2924 78.8247 63.7744 77.5149 60.3708C76.5298 57.8097 77.0355 55.7388 78.9084 54.9864C81.2662 54.0389 83.7739 54.7335 85.6272 56.1822C88.2228 58.2 90.5147 60.5067 92.6724 62.8378C94.0676 64.3451 94.9905 66.1112 96.1 67.7308C106.757 69.3093 113.212 62.9766 111.31 52.7573C109.94 52.0729 108.428 51.4034 107.032 50.5984C102.007 47.7031 98.5284 44.0281 97.745 39.2467C97.4492 37.4522 97.6684 35.6068 99.9118 34.7193C101.648 34.0361 104.251 34.7411 106.495 36.5665C110.053 39.4693 112.164 42.9666 113.819 46.6216C114.393 47.8935 114.863 49.1832 115.36 50.4119C131.812 53.3317 146.137 45.2919 142.646 32.6746C143.792 33.095 144.836 33.2314 145.307 33.7127C145.824 34.2439 146.016 35.104 146.004 35.7732C145.848 42.1163 143.465 47.4474 136.561 50.5391C131.413 52.8394 125.632 53.8293 119.409 53.7939C118.524 53.7912 117.637 53.8027 116.756 53.8236C116.627 53.8269 116.513 53.9246 116.155 54.0857C116.064 54.7187 115.911 55.5089 115.863 56.3121C115.262 66.2611 110.626 70.3159 97.9907 71.6452C98.1215 72.6248 98.2501 73.6491 98.4062 74.6808C99.3366 80.7483 98.0323 86.2397 94.2422 91.0651C88.0143 99.0077 76.4193 102.104 63.6225 99.3027C56.6579 97.7766 50.2546 95.1465 44.375 91.5158C30.1309 82.7045 19.9862 71.8029 15.0621 58.2955C14.8007 57.5832 14.5283 56.8755 14.2448 56.1723C14.2014 56.0776 14.0457 55.9981 13.5048 55.5585C12.1325 57.7447 11.8177 60.0935 11.3325 62.3814C10.8586 64.6271 10.5039 66.9047 10.0634 69.3557C7.72414 68.5098 7.03814 67.2908 6.84939 65.9405C6.63636 64.3873 6.29519 62.762 6.61445 61.3137C7.46052 57.4223 8.39292 53.5389 9.7397 49.7968C10.8034 46.8176 13.1655 46.5513 16.0186 48.7817C22.0538 53.5195 28.0612 58.2876 34.0354 63.0696C34.9747 63.82 35.7053 64.726 36.7965 65.8269C34.4379 66.6306 33.129 65.6451 31.8559 64.7826C27.3654 61.7282 22.9027 58.6434 18.0448 55.3091L18.0486 55.295ZM102.12 37.6309C101.674 42.7098 104.892 46.8439 110.532 48.544C108.59 44.5253 106.921 40.7382 102.12 37.6309ZM81.4829 57.6332C81.6048 62.1316 84.7708 65.0654 90.4906 66.1371C88.319 62.6839 86.1523 59.5796 81.4829 57.6332Z" fill="#F37A50"/>
</g>
<defs>
<clipPath id="clip0_2352_155">
<rect width="84.8835" height="128.827" fill="white" transform="translate(147.158 33.8828) rotate(105)"/>
</clipPath>
</defs>
</svg>
