<svg width="374" height="261" viewBox="0 0 374 261" fill="none" xmlns="http://www.w3.org/2000/svg">
<circle opacity="0.1" cx="79" cy="39" r="33" fill="#0875FF"/>
<path opacity="0.2" d="M79.1897 48.9142L86.7326 84.4453C87.439 87.7727 89.7883 90.5129 92.9688 91.719L130.369 105.902" stroke="#0875FF" stroke-width="1.5"/>
<g filter="url(#filter0_d_207_12)">
<circle cx="79" cy="39" r="25" fill="#0875FF"/>
</g>
<g clip-path="url(#clip0_207_12)">
<path d="M87.4125 28H69.5875C68.9013 28 68.2431 28.2749 67.7579 28.7642C67.2726 29.2535 67 29.9171 67 30.609V42.9382C67 43.6302 67.2726 44.2938 67.7579 44.7831C68.2431 45.2724 68.9013 45.5472 69.5875 45.5472H75.1132L74.2076 48.0635C74.1286 48.2825 74.1031 48.5175 74.1333 48.7486C74.1634 48.9796 74.2484 49.1999 74.381 49.3908C74.5136 49.5817 74.6899 49.7375 74.895 49.8451C75.1 49.9526 75.3277 50.0088 75.5589 50.0087H81.4411C81.6723 50.0088 81.9 49.9526 82.105 49.8451C82.3101 49.7375 82.4864 49.5817 82.619 49.3908C82.7516 49.1999 82.8366 48.9796 82.8667 48.7486C82.8969 48.5175 82.8714 48.2825 82.7924 48.0635L81.8867 45.5559H87.4125C88.0987 45.5559 88.7569 45.2811 89.2421 44.7918C89.7274 44.3025 90 43.6389 90 42.9469V30.609C90 29.9171 89.7274 29.2535 89.2421 28.7642C88.7569 28.2749 88.0987 28 87.4125 28ZM81.03 48.2606H75.97L76.9475 45.5472H80.0525L81.03 48.2606ZM88.275 42.9382C88.275 43.1689 88.1841 43.3901 88.0224 43.5532C87.8606 43.7163 87.6412 43.8079 87.4125 43.8079H69.5875C69.3588 43.8079 69.1394 43.7163 68.9776 43.5532C68.8159 43.3901 68.725 43.1689 68.725 42.9382V30.609C68.725 30.3784 68.8159 30.1572 68.9776 29.9941C69.1394 29.831 69.3588 29.7394 69.5875 29.7394H87.4125C87.6412 29.7394 87.8606 29.831 88.0224 29.9941C88.1841 30.1572 88.275 30.3784 88.275 30.609V42.9382Z" fill="white"/>
<path d="M84.1436 31.9136H81.95C81.7213 31.9136 81.5019 32.0052 81.3401 32.1683C81.1784 32.3314 81.0875 32.5526 81.0875 32.7832C81.0875 33.0139 81.1784 33.2351 81.3401 33.3982C81.5019 33.5613 81.7213 33.6529 81.95 33.6529H82.5595L78.914 37.294L77.971 36.3431C77.6439 36.0144 77.2009 35.8298 76.7391 35.8298C76.2773 35.8298 75.8343 36.0144 75.5071 36.3431L71.7351 40.1494C71.6504 40.229 71.5824 40.3251 71.5353 40.4317C71.4882 40.5384 71.4628 40.6536 71.4608 40.7704C71.4587 40.8871 71.48 41.0031 71.5234 41.1114C71.5668 41.2197 71.6314 41.3181 71.7133 41.4007C71.7952 41.4832 71.8927 41.5483 72.0001 41.5921C72.1075 41.6358 72.2225 41.6573 72.3383 41.6552C72.4542 41.6532 72.5684 41.6276 72.6742 41.5801C72.78 41.5326 72.8752 41.464 72.9541 41.3786L76.752 37.5723L77.695 38.526C78.0224 38.8532 78.4646 39.0367 78.9255 39.0367C79.3864 39.0367 79.8287 38.8532 80.156 38.526L83.7929 34.8792V35.3459C83.7929 35.5765 83.8838 35.7978 84.0455 35.9609C84.2073 36.1239 84.4266 36.2156 84.6554 36.2156C84.8841 36.2156 85.1035 36.1239 85.2653 35.9609C85.427 35.7978 85.5179 35.5765 85.5179 35.3459V33.3021C85.5179 32.9344 85.3732 32.5816 85.1156 32.3213C84.8579 32.061 84.5084 31.9143 84.1436 31.9136Z" fill="white"/>
</g>
<circle opacity="0.1" cx="242" cy="222" r="33" fill="#F37A50"/>
<path opacity="0.2" d="M175.5 164L179.719 210.404C180.167 215.342 184.167 219.205 189.118 219.483L243 222.5" stroke="#F37A50" stroke-width="1.5"/>
<g filter="url(#filter1_d_207_12)">
<circle cx="242" cy="222" r="25" fill="#F37A50"/>
</g>
<g clip-path="url(#clip1_207_12)">
<path d="M251.045 231.019H247.04C247.391 230.105 247.476 229.105 247.283 228.143C247.09 227.18 246.628 226.298 245.955 225.605L242.486 221.998L245.955 218.392C246.671 217.649 247.142 216.692 247.3 215.655C247.319 215.583 247.329 215.509 247.332 215.434C247.425 214.601 247.315 213.757 247.014 212.978H251.045C251.299 212.978 251.541 212.874 251.72 212.688C251.899 212.503 252 212.251 252 211.989C252 211.727 251.899 211.475 251.72 211.29C251.541 211.104 251.299 211 251.045 211H231.955C231.701 211 231.459 211.104 231.28 211.29C231.101 211.475 231 211.727 231 211.989C231 212.251 231.101 212.503 231.28 212.688C231.459 212.874 231.701 212.978 231.955 212.978H235.964C235.613 213.891 235.528 214.891 235.72 215.853C235.912 216.816 236.373 217.698 237.045 218.392L240.514 221.998L237.045 225.605C236.329 226.347 235.858 227.305 235.7 228.342C235.681 228.414 235.671 228.488 235.668 228.562C235.575 229.396 235.685 230.24 235.986 231.019H231.955C231.701 231.019 231.459 231.123 231.28 231.308C231.101 231.494 231 231.745 231 232.008C231 232.27 231.101 232.522 231.28 232.707C231.459 232.892 231.701 232.997 231.955 232.997H251.045C251.299 232.997 251.541 232.892 251.72 232.707C251.899 232.522 252 232.27 252 232.008C252 231.745 251.899 231.494 251.72 231.308C251.541 231.123 251.299 231.019 251.045 231.019ZM241.5 220.221L239.473 218.121C239.623 217.495 239.966 216.578 240.603 216.226C241.099 215.949 241.796 216.034 242.665 216.483C243.257 216.803 243.907 216.992 244.574 217.04L241.5 220.221ZM241.5 223.775L243.527 225.875C243.377 226.492 243.037 227.412 242.4 227.768C241.904 228.048 241.207 227.962 240.335 227.514C239.743 227.194 239.093 227.004 238.426 226.957L241.5 223.775ZM244.863 212.978C245.272 213.528 245.487 214.206 245.471 214.9C245.153 215.068 244.516 215.23 243.514 214.712C242.054 213.961 240.765 213.885 239.696 214.488C238.932 214.946 238.335 215.653 238 216.499C237.668 215.97 237.503 215.347 237.528 214.716C237.552 214.085 237.765 213.478 238.137 212.978H244.863ZM238.137 231.019C237.728 230.469 237.513 229.79 237.529 229.097C237.847 228.928 238.484 228.767 239.486 229.284C240.184 229.672 240.96 229.886 241.751 229.911C242.296 229.916 242.832 229.778 243.31 229.509C244.072 229.049 244.665 228.342 245 227.498C245.333 228.026 245.5 228.65 245.475 229.281C245.45 229.912 245.237 230.519 244.863 231.019H238.137Z" fill="white"/>
</g>
<circle opacity="0.1" cx="35" cy="187" r="33" fill="#8D5AE9"/>
<path opacity="0.2" d="M138.5 159.5L111.895 201.37C109.572 205.026 105.161 206.77 100.966 205.693L36 189" stroke="#8D5AE9" stroke-width="1.5"/>
<g filter="url(#filter2_d_207_12)">
<circle cx="35" cy="187" r="25" fill="#8D5AE9"/>
</g>
<g clip-path="url(#clip2_207_12)">
<path d="M44.0366 176H24.9634C24.4427 176 23.9433 176.21 23.5751 176.583C23.2069 176.956 23 177.463 23 177.991V191.641C23 192.169 23.2069 192.675 23.5751 193.049C23.9433 193.422 24.4427 193.632 24.9634 193.632H31.1959L30.3123 196.1C30.2352 196.315 30.2103 196.546 30.2398 196.772C30.2692 196.999 30.3521 197.215 30.4815 197.402C30.6109 197.59 30.7829 197.743 30.9829 197.848C31.1829 197.954 31.4051 198.009 31.6306 198.009H37.3694C37.5949 198.009 37.8171 197.954 38.0171 197.848C38.2171 197.743 38.3891 197.59 38.5185 197.402C38.6479 197.215 38.7308 196.999 38.7602 196.772C38.7897 196.546 38.7648 196.315 38.6877 196.1L37.8041 193.64H44.0366C44.5573 193.64 45.0567 193.431 45.4249 193.057C45.7931 192.684 46 192.178 46 191.65V177.999C46.0011 177.737 45.9511 177.477 45.853 177.235C45.7548 176.992 45.6103 176.772 45.4279 176.586C45.2455 176.4 45.0287 176.253 44.7899 176.152C44.5511 176.052 44.2951 176 44.0366 176ZM36.9683 196.294H32.0317L32.9854 193.632H36.0146L36.9683 196.294ZM44.3171 191.641C44.3171 191.717 44.2875 191.789 44.2349 191.842C44.1823 191.896 44.111 191.926 44.0366 191.926H24.9634C24.889 191.926 24.8177 191.896 24.7651 191.842C24.7125 191.789 24.6829 191.717 24.6829 191.641V177.991C24.6829 177.915 24.7125 177.843 24.7651 177.79C24.8177 177.736 24.889 177.706 24.9634 177.706H44.0366C44.111 177.706 44.1823 177.736 44.2349 177.79C44.2875 177.843 44.3171 177.915 44.3171 177.991V191.641Z" fill="white"/>
<path d="M34.5 182.256C33.8305 182.256 33.1884 182.526 32.715 183.006C32.2415 183.486 31.9756 184.137 31.9756 184.816V188.229C31.9756 188.907 32.2415 189.558 32.715 190.038C33.1884 190.518 33.8305 190.788 34.5 190.788C35.1695 190.788 35.8116 190.518 36.285 190.038C36.7584 189.558 37.0244 188.907 37.0244 188.229V184.816C37.0244 184.137 36.7584 183.486 36.285 183.006C35.8116 182.526 35.1695 182.256 34.5 182.256ZM35.3414 188.229C35.3414 188.455 35.2528 188.672 35.095 188.832C34.9372 188.992 34.7231 189.082 34.5 189.082C34.2768 189.082 34.0628 188.992 33.905 188.832C33.7472 188.672 33.6585 188.455 33.6585 188.229V184.816C33.6585 184.704 33.6803 184.593 33.7226 184.489C33.7649 184.386 33.8268 184.292 33.905 184.213C33.9831 184.133 34.0759 184.071 34.178 184.028C34.2801 183.985 34.3895 183.963 34.5 183.963C34.6105 183.963 34.7199 183.985 34.822 184.028C34.9241 184.071 35.0168 184.133 35.095 184.213C35.1731 184.292 35.2351 184.386 35.2774 184.489C35.3197 184.593 35.3414 184.704 35.3414 184.816V188.229Z" fill="white"/>
<path d="M40.6708 178.844C40.0012 178.844 39.3592 179.113 38.8857 179.593C38.4123 180.073 38.1464 180.724 38.1464 181.403V188.229C38.1464 188.907 38.4123 189.558 38.8857 190.038C39.3592 190.518 40.0012 190.788 40.6708 190.788C41.3403 190.788 41.9824 190.518 42.4558 190.038C42.9292 189.558 43.1951 188.907 43.1951 188.229V181.403C43.1951 180.724 42.9292 180.073 42.4558 179.593C41.9824 179.113 41.3403 178.844 40.6708 178.844ZM41.5122 188.229C41.5122 188.455 41.4236 188.672 41.2658 188.832C41.108 188.992 40.8939 189.082 40.6708 189.082C40.4476 189.082 40.2336 188.992 40.0757 188.832C39.9179 188.672 39.8293 188.455 39.8293 188.229V181.403C39.8293 181.177 39.9179 180.96 40.0757 180.8C40.2336 180.64 40.4476 180.55 40.6708 180.55C40.8939 180.55 41.108 180.64 41.2658 180.8C41.4236 180.96 41.5122 181.177 41.5122 181.403V188.229Z" fill="white"/>
<path d="M28.3293 185.669C27.83 185.669 27.3419 185.819 26.9268 186.1C26.5117 186.382 26.1881 186.781 25.997 187.249C25.806 187.717 25.756 188.231 25.8534 188.728C25.9508 189.224 26.1912 189.68 26.5442 190.038C26.8973 190.396 27.3471 190.64 27.8368 190.739C28.3265 190.838 28.834 190.787 29.2953 190.593C29.7566 190.399 30.1508 190.071 30.4282 189.651C30.7056 189.23 30.8537 188.735 30.8537 188.229C30.8537 187.55 30.5877 186.899 30.1143 186.419C29.6409 185.939 28.9988 185.669 28.3293 185.669ZM28.3293 189.082C28.1628 189.082 28.0001 189.032 27.8618 188.938C27.7234 188.844 27.6155 188.711 27.5519 188.555C27.4882 188.399 27.4715 188.228 27.504 188.062C27.5364 187.897 27.6166 187.745 27.7343 187.625C27.8519 187.506 28.0019 187.425 28.1651 187.392C28.3283 187.359 28.4975 187.376 28.6513 187.44C28.805 187.505 28.9365 187.614 29.0289 187.755C29.1214 187.895 29.1707 188.06 29.1707 188.229C29.1707 188.455 29.0821 188.672 28.9243 188.832C28.7665 188.992 28.5524 189.082 28.3293 189.082Z" fill="white"/>
</g>
<circle opacity="0.2" cx="283" cy="33" r="33" fill="#FFBE64"/>
<path opacity="0.4" d="M207 88L221.934 49.3477C223.214 46.0354 226.154 43.6502 229.659 43.081L282.5 34.5" stroke="#FFBE64" stroke-width="1.5"/>
<g filter="url(#filter3_d_207_12)">
<circle cx="283" cy="33" r="25" fill="#FFBE64"/>
</g>
<g clip-path="url(#clip3_207_12)">
<path d="M291.413 22H273.587C272.901 22 272.243 22.2697 271.758 22.7496C271.273 23.2296 271 23.8807 271 24.5595V37.0724C271 37.7512 271.273 38.4022 271.758 38.8822C272.243 39.3622 272.901 39.6319 273.587 39.6319H279.113L278.208 42.1003C278.129 42.3151 278.103 42.5457 278.133 42.7723C278.163 42.999 278.248 43.2151 278.381 43.4024C278.514 43.5896 278.69 43.7425 278.895 43.848C279.1 43.9535 279.328 44.0086 279.559 44.0085H285.441C285.672 44.0086 285.9 43.9535 286.105 43.848C286.31 43.7425 286.486 43.5896 286.619 43.4024C286.752 43.2151 286.837 42.999 286.867 42.7723C286.897 42.5457 286.871 42.3151 286.792 42.1003L285.887 39.6404H291.413C292.099 39.6404 292.757 39.3707 293.242 38.8907C293.727 38.4107 294 37.7597 294 37.0809V24.568C294.001 24.2312 293.935 23.8974 293.806 23.5859C293.676 23.2744 293.486 22.9912 293.245 22.7527C293.005 22.5141 292.719 22.3248 292.405 22.1956C292.09 22.0665 291.753 22 291.413 22ZM285.03 42.2937H279.97L280.947 39.6319H284.052L285.03 42.2937ZM292.275 37.0724C292.275 37.2987 292.184 37.5157 292.022 37.6757C291.861 37.8357 291.641 37.9255 291.413 37.9255H273.587C273.359 37.9255 273.139 37.8357 272.978 37.6757C272.816 37.5157 272.725 37.2987 272.725 37.0724V24.5595C272.725 24.3332 272.816 24.1162 272.978 23.9562C273.139 23.7962 273.359 23.7063 273.587 23.7063H291.413C291.641 23.7063 291.861 23.7962 292.022 23.9562C292.184 24.1162 292.275 24.3332 292.275 24.5595V37.0724Z" fill="white"/>
<path d="M288.825 24.8438H274.737C274.509 24.8438 274.289 24.9337 274.128 25.0937C273.966 25.2537 273.875 25.4707 273.875 25.697C273.875 25.9233 273.966 26.1403 274.128 26.3003C274.289 26.4603 274.509 26.5502 274.737 26.5502H288.825C289.054 26.5502 289.273 26.4603 289.435 26.3003C289.597 26.1403 289.688 25.9233 289.688 25.697C289.688 25.4707 289.597 25.2537 289.435 25.0937C289.273 24.9337 289.054 24.8438 288.825 24.8438Z" fill="white"/>
<path d="M283.075 29.394C283.304 29.394 283.523 29.3041 283.685 29.1441C283.847 28.9841 283.938 28.7671 283.938 28.5408C283.938 28.3146 283.847 28.0976 283.685 27.9376C283.523 27.7776 283.304 27.6877 283.075 27.6877H274.737C274.509 27.6877 274.289 27.7776 274.128 27.9376C273.966 28.0976 273.875 28.3146 273.875 28.5408C273.875 28.7671 273.966 28.9841 274.128 29.1441C274.289 29.3041 274.509 29.394 274.737 29.394H283.075Z" fill="white"/>
<path d="M285.493 31.6691H276.396C275.71 31.6691 275.052 31.9387 274.567 32.4187C274.082 32.8987 273.809 33.5497 273.809 34.2285C273.809 34.9074 274.082 35.5584 274.567 36.0384C275.052 36.5183 275.71 36.788 276.396 36.788H285.493C286.179 36.788 286.837 36.5183 287.323 36.0384C287.808 35.5584 288.08 34.9074 288.08 34.2285C288.08 33.5497 287.808 32.8987 287.323 32.4187C286.837 31.9387 286.179 31.6691 285.493 31.6691ZM285.493 35.0817H276.396C276.168 35.0817 275.948 34.9918 275.787 34.8318C275.625 34.6718 275.534 34.4548 275.534 34.2285C275.534 34.0023 275.625 33.7853 275.787 33.6253C275.948 33.4653 276.168 33.3754 276.396 33.3754H285.493C285.722 33.3754 285.941 33.4653 286.103 33.6253C286.265 33.7853 286.355 34.0023 286.355 34.2285C286.355 34.4548 286.265 34.6718 286.103 34.8318C285.941 34.9918 285.722 35.0817 285.493 35.0817Z" fill="white"/>
</g>
<circle opacity="0.1" cx="339" cy="129" r="33" fill="#028189"/>
<path opacity="0.2" d="M212.5 148.5L278.177 172.088C281.48 173.274 285.163 172.642 287.881 170.423L338 129.5" stroke="#028189" stroke-width="1.5"/>
<g filter="url(#filter4_d_207_12)">
<circle cx="339" cy="129" r="25" fill="#028189"/>
</g>
<g clip-path="url(#clip4_207_12)">
<path d="M342.423 127.11L342.989 126.543V125.81L342.213 126.472L342.423 127.11Z" fill="white"/>
<path d="M341.057 123.845H340.324L339.761 124.412L340.397 124.626L341.057 123.845Z" fill="white"/>
<path d="M341.41 125.459L341.68 126.334L343.237 125.01C343.502 124.777 343.693 124.472 343.789 124.131C343.885 123.791 343.88 123.431 343.776 123.093C343.44 122.977 343.078 122.967 342.736 123.063C342.395 123.16 342.091 123.359 341.866 123.634L340.537 125.188L341.41 125.459ZM342.706 123.804C342.751 123.806 342.795 123.816 342.836 123.834C342.877 123.853 342.914 123.879 342.945 123.912C342.976 123.945 343 123.984 343.016 124.026C343.032 124.068 343.039 124.113 343.038 124.158C343.033 124.247 342.997 124.331 342.937 124.396C342.876 124.461 342.794 124.502 342.706 124.512C342.613 124.512 342.523 124.475 342.457 124.409C342.39 124.342 342.353 124.252 342.353 124.158C342.353 124.064 342.39 123.974 342.457 123.908C342.523 123.841 342.613 123.804 342.706 123.804Z" fill="white"/>
<path d="M340.125 125.951C339.855 126.221 339.936 126.921 339.936 126.921C339.936 126.921 340.645 126.991 340.882 126.732C340.938 126.683 340.982 126.623 341.012 126.556C341.043 126.488 341.059 126.415 341.059 126.341C341.059 126.267 341.043 126.194 341.012 126.127C340.982 126.059 340.938 125.999 340.882 125.951C340.836 125.895 340.778 125.85 340.712 125.82C340.647 125.789 340.576 125.773 340.503 125.773C340.431 125.773 340.36 125.789 340.294 125.82C340.229 125.85 340.171 125.895 340.125 125.951Z" fill="white"/>
<path d="M349.458 125.14C349.23 124.859 348.943 124.632 348.617 124.477C348.29 124.322 347.933 124.241 347.572 124.242H347.033C346.843 122.989 346.211 121.845 345.252 121.019C344.293 120.193 343.071 119.739 341.808 119.739C340.544 119.739 339.322 120.193 338.363 121.019C337.405 121.845 336.773 122.989 336.582 124.242H334.221L333.324 119.936C333.211 119.391 332.915 118.901 332.485 118.549C332.056 118.197 331.519 118.003 330.964 118H328.808C328.594 118 328.388 118.085 328.237 118.238C328.085 118.39 328 118.596 328 118.811C328 119.026 328.085 119.232 328.237 119.384C328.388 119.537 328.594 119.622 328.808 119.622H330.964C331.149 119.622 331.329 119.687 331.473 119.805C331.617 119.922 331.716 120.086 331.753 120.268L332.581 124.242L334.321 132.539V132.571C334.395 132.913 334.542 133.235 334.752 133.515C334.962 133.795 335.229 134.026 335.536 134.193C335.412 134.481 335.351 134.792 335.358 135.105C335.365 135.419 335.438 135.727 335.574 136.009C335.71 136.291 335.906 136.541 336.146 136.741C336.387 136.94 336.668 137.086 336.97 137.167C336.869 137.491 336.845 137.834 336.9 138.169C336.954 138.504 337.086 138.822 337.284 139.098C337.482 139.373 337.741 139.598 338.041 139.755C338.341 139.913 338.673 139.998 339.012 140.004C339.35 140.01 339.685 139.937 339.991 139.791C340.296 139.644 340.563 139.429 340.771 139.161C340.979 138.893 341.122 138.58 341.188 138.247C341.255 137.914 341.243 137.57 341.154 137.243H343.358C343.308 137.427 343.283 137.617 343.283 137.808C343.283 138.239 343.411 138.662 343.651 139.02C343.891 139.379 344.231 139.659 344.629 139.824C345.026 139.989 345.464 140.031 345.886 139.947C346.308 139.862 346.696 139.654 347 139.348C347.304 139.043 347.512 138.654 347.595 138.23C347.679 137.806 347.636 137.367 347.471 136.968C347.306 136.569 347.027 136.228 346.669 135.988C346.311 135.749 345.89 135.621 345.46 135.621H337.525C337.376 135.621 337.234 135.561 337.129 135.456C337.023 135.35 336.964 135.207 336.964 135.058C336.964 134.909 337.023 134.766 337.129 134.661C337.234 134.555 337.376 134.496 337.525 134.496H346.443C347 134.495 347.539 134.303 347.97 133.951C348.402 133.599 348.7 133.109 348.814 132.563L349.949 127.156C350.02 126.805 350.014 126.442 349.929 126.093C349.844 125.744 349.683 125.419 349.458 125.14ZM341.804 121.355C342.531 121.354 343.243 121.57 343.849 121.976C344.454 122.381 344.926 122.957 345.205 123.631C345.485 124.306 345.558 125.048 345.417 125.764C345.276 126.481 344.926 127.139 344.412 127.656C343.898 128.173 343.242 128.525 342.529 128.669C341.815 128.812 341.075 128.74 340.402 128.461C339.729 128.183 339.154 127.71 338.749 127.104C338.344 126.497 338.127 125.783 338.126 125.053C338.127 124.075 338.515 123.137 339.204 122.444C339.894 121.752 340.828 121.362 341.804 121.36V121.355ZM339.6 137.816C339.599 137.927 339.565 138.036 339.503 138.128C339.441 138.22 339.353 138.292 339.25 138.334C339.147 138.376 339.034 138.386 338.925 138.363C338.816 138.341 338.717 138.286 338.639 138.207C338.561 138.127 338.509 138.026 338.488 137.917C338.468 137.807 338.48 137.694 338.524 137.591C338.568 137.489 338.641 137.402 338.734 137.341C338.827 137.281 338.936 137.249 339.047 137.251C339.195 137.253 339.336 137.313 339.439 137.419C339.543 137.525 339.6 137.667 339.6 137.816ZM346.031 137.816C346.031 137.927 345.997 138.035 345.935 138.127C345.873 138.219 345.786 138.291 345.683 138.333C345.581 138.375 345.468 138.386 345.36 138.364C345.251 138.342 345.152 138.288 345.073 138.21C344.995 138.131 344.942 138.031 344.921 137.922C344.899 137.813 344.911 137.7 344.953 137.597C344.996 137.495 345.067 137.407 345.16 137.345C345.252 137.284 345.36 137.251 345.471 137.251C345.544 137.251 345.618 137.265 345.686 137.294C345.754 137.322 345.816 137.364 345.868 137.416C345.92 137.469 345.961 137.531 345.989 137.6C346.017 137.668 346.031 137.742 346.031 137.816ZM348.367 126.84L347.233 132.247C347.195 132.428 347.095 132.592 346.952 132.709C346.808 132.826 346.628 132.89 346.443 132.89H336.681C336.496 132.89 336.316 132.827 336.172 132.709C336.027 132.592 335.928 132.429 335.889 132.247L334.561 125.864H336.579C336.77 127.117 337.402 128.261 338.361 129.087C339.319 129.913 340.541 130.367 341.805 130.367C343.069 130.367 344.291 129.913 345.249 129.087C346.208 128.261 346.84 127.117 347.031 125.864H347.57C347.692 125.862 347.812 125.888 347.923 125.939C348.033 125.991 348.131 126.067 348.208 126.161C348.283 126.256 348.337 126.365 348.364 126.483C348.392 126.6 348.393 126.722 348.367 126.84Z" fill="white"/>
</g>
<circle opacity="0.5" cx="176" cy="127" r="65" fill="#C5DAFF"/>
<circle cx="176" cy="127" r="51" fill="#9FC2FF"/>
<path d="M163.061 126.671H150.001C150.001 133.388 152.643 139.837 157.358 144.626C162.074 149.415 168.485 152.16 175.208 152.27V126.671H163.061Z" fill="#1D9BFF"/>
<path d="M175.208 113.39H163.061V126.673H175.208V152.271C175.35 152.271 175.49 152.271 175.633 152.271C180.05 152.277 184.393 151.136 188.237 148.961V113.39H175.208Z" fill="#0875FF"/>
<path d="M176.121 101V113.388H188.237V148.966C192.191 146.736 195.481 143.496 197.77 139.579C200.059 135.661 201.265 131.207 201.264 126.671V101H176.121Z" fill="#1B49F6"/>
<defs>
<filter id="filter0_d_207_12" x="44" y="8" width="70" height="70" filterUnits="userSpaceOnUse" color-interpolation-filters="sRGB">
<feFlood flood-opacity="0" result="BackgroundImageFix"/>
<feColorMatrix in="SourceAlpha" type="matrix" values="0 0 0 0 0 0 0 0 0 0 0 0 0 0 0 0 0 0 127 0" result="hardAlpha"/>
<feOffset dy="4"/>
<feGaussianBlur stdDeviation="5"/>
<feComposite in2="hardAlpha" operator="out"/>
<feColorMatrix type="matrix" values="0 0 0 0 0.0313726 0 0 0 0 0.458824 0 0 0 0 1 0 0 0 0.8 0"/>
<feBlend mode="normal" in2="BackgroundImageFix" result="effect1_dropShadow_207_12"/>
<feBlend mode="normal" in="SourceGraphic" in2="effect1_dropShadow_207_12" result="shape"/>
</filter>
<filter id="filter1_d_207_12" x="207" y="191" width="70" height="70" filterUnits="userSpaceOnUse" color-interpolation-filters="sRGB">
<feFlood flood-opacity="0" result="BackgroundImageFix"/>
<feColorMatrix in="SourceAlpha" type="matrix" values="0 0 0 0 0 0 0 0 0 0 0 0 0 0 0 0 0 0 127 0" result="hardAlpha"/>
<feOffset dy="4"/>
<feGaussianBlur stdDeviation="5"/>
<feComposite in2="hardAlpha" operator="out"/>
<feColorMatrix type="matrix" values="0 0 0 0 0.952941 0 0 0 0 0.478431 0 0 0 0 0.313726 0 0 0 0.8 0"/>
<feBlend mode="normal" in2="BackgroundImageFix" result="effect1_dropShadow_207_12"/>
<feBlend mode="normal" in="SourceGraphic" in2="effect1_dropShadow_207_12" result="shape"/>
</filter>
<filter id="filter2_d_207_12" x="0" y="156" width="70" height="70" filterUnits="userSpaceOnUse" color-interpolation-filters="sRGB">
<feFlood flood-opacity="0" result="BackgroundImageFix"/>
<feColorMatrix in="SourceAlpha" type="matrix" values="0 0 0 0 0 0 0 0 0 0 0 0 0 0 0 0 0 0 127 0" result="hardAlpha"/>
<feOffset dy="4"/>
<feGaussianBlur stdDeviation="5"/>
<feComposite in2="hardAlpha" operator="out"/>
<feColorMatrix type="matrix" values="0 0 0 0 0.552941 0 0 0 0 0.352941 0 0 0 0 0.913725 0 0 0 0.8 0"/>
<feBlend mode="normal" in2="BackgroundImageFix" result="effect1_dropShadow_207_12"/>
<feBlend mode="normal" in="SourceGraphic" in2="effect1_dropShadow_207_12" result="shape"/>
</filter>
<filter id="filter3_d_207_12" x="248" y="2" width="70" height="70" filterUnits="userSpaceOnUse" color-interpolation-filters="sRGB">
<feFlood flood-opacity="0" result="BackgroundImageFix"/>
<feColorMatrix in="SourceAlpha" type="matrix" values="0 0 0 0 0 0 0 0 0 0 0 0 0 0 0 0 0 0 127 0" result="hardAlpha"/>
<feOffset dy="4"/>
<feGaussianBlur stdDeviation="5"/>
<feComposite in2="hardAlpha" operator="out"/>
<feColorMatrix type="matrix" values="0 0 0 0 1 0 0 0 0 0.745098 0 0 0 0 0.392157 0 0 0 0.8 0"/>
<feBlend mode="normal" in2="BackgroundImageFix" result="effect1_dropShadow_207_12"/>
<feBlend mode="normal" in="SourceGraphic" in2="effect1_dropShadow_207_12" result="shape"/>
</filter>
<filter id="filter4_d_207_12" x="304" y="98" width="70" height="70" filterUnits="userSpaceOnUse" color-interpolation-filters="sRGB">
<feFlood flood-opacity="0" result="BackgroundImageFix"/>
<feColorMatrix in="SourceAlpha" type="matrix" values="0 0 0 0 0 0 0 0 0 0 0 0 0 0 0 0 0 0 127 0" result="hardAlpha"/>
<feOffset dy="4"/>
<feGaussianBlur stdDeviation="5"/>
<feComposite in2="hardAlpha" operator="out"/>
<feColorMatrix type="matrix" values="0 0 0 0 0.00784314 0 0 0 0 0.505882 0 0 0 0 0.537255 0 0 0 0.8 0"/>
<feBlend mode="normal" in2="BackgroundImageFix" result="effect1_dropShadow_207_12"/>
<feBlend mode="normal" in="SourceGraphic" in2="effect1_dropShadow_207_12" result="shape"/>
</filter>
<clipPath id="clip0_207_12">
<rect width="23" height="22" fill="white" transform="translate(67 28)"/>
</clipPath>
<clipPath id="clip1_207_12">
<rect width="21" height="22" fill="white" transform="translate(231 211)"/>
</clipPath>
<clipPath id="clip2_207_12">
<rect width="23" height="22" fill="white" transform="translate(23 176)"/>
</clipPath>
<clipPath id="clip3_207_12">
<rect width="23" height="22" fill="white" transform="translate(271 22)"/>
</clipPath>
<clipPath id="clip4_207_12">
<rect width="22" height="22" fill="white" transform="translate(328 118)"/>
</clipPath>
</defs>
</svg>
