<?xml version="1.0" encoding="utf-8"?>
<!-- Generator: Adobe Illustrator 27.6.1, SVG Export Plug-In . SVG Version: 6.00 Build 0)  -->
<svg version="1.1" id="Layer_1" xmlns="http://www.w3.org/2000/svg" xmlns:xlink="http://www.w3.org/1999/xlink" x="0px" y="0px"
	 viewBox="0 0 100 100" style="enable-background:new 0 0 100 100;" xml:space="preserve">
<style type="text/css">
	.st0{fill:#0875FF;}
</style>
<g>
	<path class="st0" d="M88.84,36.92c-0.54-0.73-1.24-1.33-2.05-1.73c-0.81-0.41-1.71-0.62-2.62-0.62h-6.43
		c-0.47-4.85-2.73-9.34-6.34-12.61c-3.61-3.27-8.3-5.08-13.17-5.08c-4.87,0-9.56,1.81-13.17,5.08c-3.61,3.27-5.86,7.77-6.34,12.61
		H30.2l-3.82-18.14c-0.28-1.31-0.99-2.48-2.03-3.32c-1.04-0.84-2.33-1.3-3.67-1.3h-8.74c-0.52,0-1.01,0.2-1.37,0.57
		S10,13.23,10,13.74c0,0.52,0.2,1.01,0.57,1.37s0.86,0.57,1.37,0.57h8.74c0.45-0.01,0.9,0.14,1.25,0.42
		c0.35,0.28,0.6,0.68,0.69,1.12l3.65,17.33l0.3,1.45l0.19,0.89l6.01,28.82c0.17,0.76,0.5,1.48,0.95,2.11
		c0.46,0.63,1.03,1.17,1.7,1.58c-0.93,1.4-1.28,3.1-0.97,4.75c0.28,1.48,1.07,2.81,2.23,3.77c1.16,0.96,2.62,1.48,4.12,1.49
		c-0.4,0.96-0.56,2-0.46,3.04c0.1,1.03,0.45,2.03,1.03,2.89c0.58,0.86,1.36,1.57,2.27,2.06c0.92,0.49,1.94,0.75,2.98,0.75
		c1.04,0,2.06-0.26,2.98-0.75c0.92-0.49,1.7-1.2,2.27-2.06c0.58-0.86,0.93-1.86,1.03-2.89c0.1-1.03-0.06-2.08-0.46-3.04h14.57
		c-0.33,0.77-0.5,1.59-0.5,2.43c0,1.25,0.37,2.47,1.06,3.51c0.69,1.04,1.68,1.85,2.83,2.32c1.15,0.48,2.42,0.6,3.65,0.36
		s2.35-0.84,3.23-1.73c0.88-0.88,1.48-2.01,1.73-3.23c0.24-1.22,0.12-2.49-0.36-3.65c-0.48-1.15-1.29-2.14-2.32-2.83
		c-1.04-0.69-2.26-1.06-3.51-1.06H40.8c-0.69,0-1.35-0.27-1.84-0.76c-0.49-0.49-0.76-1.15-0.76-1.84c0-0.69,0.27-1.35,0.76-1.84
		c0.49-0.49,1.15-0.76,1.84-0.76h36.14c1.25,0,2.47-0.4,3.48-1.15c1.01-0.75,1.74-1.8,2.1-3l7.23-24.14
		c0.26-0.86,0.31-1.78,0.15-2.67S89.39,37.64,88.84,36.92z M49.03,81.88c0,0.48-0.14,0.95-0.41,1.35c-0.27,0.4-0.65,0.71-1.09,0.89
		c-0.44,0.18-0.93,0.23-1.4,0.14c-0.47-0.09-0.9-0.33-1.24-0.66s-0.57-0.77-0.66-1.24c-0.09-0.47-0.05-0.96,0.14-1.4
		c0.18-0.44,0.49-0.82,0.89-1.09c0.4-0.27,0.87-0.41,1.35-0.41c0.32-0.01,0.64,0.05,0.94,0.17c0.3,0.12,0.57,0.3,0.8,0.52
		c0.23,0.23,0.41,0.5,0.54,0.79c0.13,0.3,0.19,0.62,0.19,0.94H49.03z M75.25,81.88c0,0.48-0.14,0.95-0.41,1.35
		c-0.27,0.4-0.65,0.71-1.09,0.89c-0.44,0.18-0.93,0.23-1.4,0.14c-0.47-0.09-0.9-0.33-1.24-0.66c-0.34-0.34-0.57-0.77-0.66-1.24
		c-0.09-0.47-0.05-0.96,0.14-1.4c0.18-0.44,0.5-0.82,0.89-1.09c0.4-0.27,0.87-0.41,1.35-0.41c0.64,0,1.26,0.26,1.72,0.71
		C74.99,80.62,75.25,81.23,75.25,81.88z M58.24,20.79c3.11,0,6.15,0.92,8.73,2.65c2.59,1.73,4.6,4.18,5.79,7.06
		c1.19,2.87,1.5,6.03,0.89,9.08c-0.61,3.05-2.1,5.85-4.3,8.05c-2.2,2.2-5,3.7-8.05,4.3c-3.05,0.61-6.21,0.3-9.08-0.89
		c-2.87-1.19-5.33-3.21-7.06-5.79c-1.73-2.59-2.65-5.63-2.65-8.73c0.01-4.17,1.66-8.16,4.61-11.11
		C50.08,22.45,54.08,20.79,58.24,20.79z M86.04,40.95L78.8,65.09c-0.11,0.41-0.36,0.77-0.69,1.02s-0.75,0.4-1.17,0.4H38.48
		c-0.45,0.01-0.9-0.14-1.25-0.42c-0.35-0.28-0.6-0.68-0.69-1.12l-5.53-26.51h7.77c0.47,4.85,2.73,9.34,6.34,12.61
		c3.61,3.27,8.3,5.08,13.17,5.08s9.56-1.81,13.17-5.08c3.61-3.27,5.86-7.77,6.34-12.61h6.39c0.3,0,0.6,0.07,0.87,0.21
		c0.27,0.14,0.5,0.33,0.68,0.58c0.18,0.24,0.3,0.52,0.35,0.82C86.14,40.35,86.12,40.66,86.04,40.95z"/>
	<path class="st0" d="M55.45,43.51c-0.95,0-1.89-0.36-2.61-1.08l-4.61-4.61c-0.78-0.78-0.78-2.05,0-2.83c0.78-0.78,2.05-0.78,2.83,0
		l4.39,4.39l10-10c0.78-0.78,2.05-0.78,2.83,0c0.78,0.78,0.78,2.05,0,2.83L58.06,42.43C57.34,43.15,56.4,43.51,55.45,43.51z"/>
</g>
</svg>
