<svg width="230" height="256" viewBox="0 0 230 256" fill="none" xmlns="http://www.w3.org/2000/svg">
<rect x="93" y="214" width="44" height="34" fill="#0177BF"/>
<rect x="63.8276" y="244.486" width="102.345" height="11.5138" rx="5.75689" fill="#3CA6FE"/>
<rect y="63" width="230" height="153" rx="12" fill="url(#paint0_linear_1_183)"/>
<rect x="87" y="177" width="56" height="6" rx="3" fill="white" fill-opacity="0.2"/>
<rect x="95" y="189" width="39.1667" height="6" rx="3" fill="white" fill-opacity="0.2"/>
<g filter="url(#filter0_d_1_183)">
<path d="M65.5381 68.1129L57.7806 151.05C57.4721 154.751 60.3927 157.925 64.1058 157.925H165.661C169.375 157.925 172.295 154.751 171.987 151.05L164.229 68.1129C163.955 64.8233 161.205 62.2929 157.904 62.2929H71.8638C68.5624 62.2929 65.8123 64.8233 65.5381 68.1129Z" fill="url(#paint1_linear_1_183)"/>
</g>
<path d="M144.469 114.443L142.864 111.007C142.614 110.483 142.47 109.914 142.441 109.334C142.412 108.754 142.498 108.174 142.695 107.628L144.272 103.29C144.665 102.227 144.84 101.096 144.787 99.9636C144.734 98.8313 144.453 97.7214 143.962 96.6998C143.484 95.6735 142.807 94.752 141.97 93.9883C141.134 93.2246 140.155 92.6338 139.09 92.2499L134.724 90.7008C133.633 90.2919 132.744 89.4735 132.246 88.4195L130.641 84.9271C129.669 82.8581 127.916 81.2596 125.767 80.4831C123.617 79.7067 121.247 79.816 119.178 80.787L115.713 82.3923C115.194 82.6417 114.63 82.7851 114.055 82.8141C113.479 82.8431 112.904 82.7572 112.362 82.5613L108.025 81.0123C105.873 80.2416 103.504 80.3542 101.435 81.3253C99.3662 82.2963 97.766 84.047 96.9842 86.1945L95.4352 90.56C95.0263 91.6516 94.2079 92.5407 93.1538 93.0385L89.6615 94.6438C88.6345 95.1218 87.7121 95.7981 86.9475 96.6339C86.183 97.4697 85.5912 98.4485 85.2064 99.5139C84.8216 100.579 84.6514 101.71 84.7054 102.842C84.7594 103.973 85.0367 105.083 85.5213 106.107L87.1267 109.543C87.3769 110.067 87.5206 110.636 87.5496 111.216C87.5786 111.796 87.4923 112.376 87.2957 112.922L85.7185 117.26C85.3254 118.323 85.1503 119.454 85.2035 120.587C85.2567 121.719 85.5372 122.829 86.0283 123.85C86.5102 124.879 87.1915 125.802 88.0327 126.566C88.8739 127.33 89.8583 127.919 90.9289 128.3L95.2943 129.99C96.3859 130.399 97.275 131.217 97.7728 132.271L99.3782 135.623C100.071 137.107 101.173 138.362 102.555 139.24C103.938 140.118 105.542 140.583 107.18 140.58C108.446 140.585 109.697 140.306 110.841 139.763L114.305 138.158C114.825 137.908 115.389 137.765 115.964 137.736C116.539 137.707 117.115 137.793 117.657 137.989L121.994 139.566C124.146 140.337 126.515 140.224 128.584 139.253C130.653 138.282 132.253 136.531 133.035 134.384L134.724 129.99C135.133 128.898 135.952 128.009 137.006 127.512L140.357 125.906C141.384 125.428 142.307 124.752 143.071 123.916C143.836 123.08 144.427 122.102 144.812 121.036C145.197 119.971 145.367 118.84 145.313 117.708C145.259 116.577 144.982 115.467 144.497 114.443H144.469Z" fill="#0177BF"/>
<path d="M107.743 119.663C107.4 119.666 107.06 119.597 106.745 119.461C106.43 119.325 106.146 119.126 105.912 118.875C105.665 118.638 105.469 118.354 105.334 118.039C105.2 117.725 105.131 117.386 105.131 117.044C105.131 116.702 105.2 116.363 105.334 116.049C105.469 115.734 105.665 115.45 105.912 115.213L119.994 101.131C120.486 100.678 121.135 100.432 121.803 100.446C122.472 100.459 123.11 100.731 123.583 101.204C124.056 101.677 124.328 102.315 124.341 102.984C124.355 103.653 124.109 104.301 123.656 104.793L109.574 118.875C109.34 119.126 109.056 119.325 108.741 119.461C108.426 119.597 108.086 119.666 107.743 119.663Z" fill="white"/>
<path d="M108.616 107.609C110.669 107.609 112.334 105.945 112.334 103.891C112.334 101.838 110.669 100.174 108.616 100.174C106.563 100.174 104.898 101.838 104.898 103.891C104.898 105.945 106.563 107.609 108.616 107.609Z" fill="white"/>
<path d="M120.895 119.889C122.949 119.889 124.613 118.224 124.613 116.171C124.613 114.118 122.949 112.453 120.895 112.453C118.842 112.453 117.178 114.118 117.178 116.171C117.178 118.224 118.842 119.889 120.895 119.889Z" fill="white"/>
<path d="M142.513 47.8158V27.5047C142.513 12.3145 130.199 0 115.008 0C99.8179 0 87.5034 12.3141 87.5034 27.5047V47.8158C87.5034 51.3212 90.3453 54.163 93.8507 54.163C97.356 54.163 100.198 51.3212 100.198 47.8158V27.5047C100.198 19.3252 106.829 12.6945 115.008 12.6945C123.188 12.6945 129.818 19.3252 129.818 27.5047V47.8158C129.818 51.3212 132.66 54.163 136.166 54.163C139.671 54.163 142.513 51.3212 142.513 47.8158Z" fill="#0177BF"/>
<defs>
<filter id="filter0_d_1_183" x="25.7582" y="50.2929" width="178.251" height="159.632" filterUnits="userSpaceOnUse" color-interpolation-filters="sRGB">
<feFlood flood-opacity="0" result="BackgroundImageFix"/>
<feColorMatrix in="SourceAlpha" type="matrix" values="0 0 0 0 0 0 0 0 0 0 0 0 0 0 0 0 0 0 127 0" result="hardAlpha"/>
<feOffset dy="20"/>
<feGaussianBlur stdDeviation="16"/>
<feComposite in2="hardAlpha" operator="out"/>
<feColorMatrix type="matrix" values="0 0 0 0 0.105882 0 0 0 0 0.105882 0 0 0 0 0.313726 0 0 0 0.16 0"/>
<feBlend mode="normal" in2="BackgroundImageFix" result="effect1_dropShadow_1_183"/>
<feBlend mode="normal" in="SourceGraphic" in2="effect1_dropShadow_1_183" result="shape"/>
</filter>
<linearGradient id="paint0_linear_1_183" x1="230" y1="13" x2="47.2127" y2="289.69" gradientUnits="userSpaceOnUse">
<stop stop-color="#33DBBE"/>
<stop offset="1" stop-color="#3BA4FF"/>
</linearGradient>
<linearGradient id="paint1_linear_1_183" x1="114.884" y1="157.925" x2="114.884" y2="52.1373" gradientUnits="userSpaceOnUse">
<stop stop-color="#C7ECFF"/>
<stop offset="1" stop-color="white"/>
</linearGradient>
</defs>
</svg>
