<svg width="19" height="19" viewBox="0 0 19 19" fill="none" xmlns="http://www.w3.org/2000/svg">
<path d="M18.2524 7.12885C18.2553 7.18113 18.2515 7.23433 18.2384 7.28717L17.0664 11.975C17.0073 12.2112 16.7956 12.3773 16.5523 12.3785L9.52053 12.414C9.5196 12.414 9.51875 12.414 9.51783 12.414H2.48598C2.24136 12.414 2.02821 12.2474 1.96911 12.01L0.797148 7.30443C0.783652 7.25017 0.779746 7.19548 0.783155 7.14185C0.329783 6.99901 0 6.57476 0 6.0748C0 5.45792 0.501813 4.9561 1.11869 4.9561C1.73557 4.9561 2.23738 5.45792 2.23738 6.0748C2.23738 6.42219 2.07821 6.73301 1.82897 6.93835L3.29627 8.41673C3.66711 8.79041 4.1817 9.00463 4.70816 9.00463C5.33065 9.00463 5.92416 8.70901 6.29791 8.21373L8.70932 5.01861C8.50674 4.81618 8.38131 4.53647 8.38131 4.22807C8.38131 3.61119 8.88312 3.10938 9.5 3.10938C10.1169 3.10938 10.6187 3.61119 10.6187 4.22807C10.6187 4.52724 10.4999 4.79878 10.3079 4.99972C10.3086 5.00057 10.3094 5.00128 10.31 5.0022L12.7039 8.20613C13.0775 8.70617 13.6732 9.0047 14.2974 9.0047C14.8287 9.0047 15.3283 8.7978 15.704 8.42206L17.1805 6.94553C16.9261 6.74026 16.7626 6.42646 16.7626 6.0748C16.7626 5.45792 17.2644 4.9561 17.8813 4.9561C18.4982 4.9561 19 5.45792 19 6.0748C19 6.56141 18.6871 6.97529 18.2524 7.12885ZM16.952 14.0832C16.952 13.789 16.7135 13.5505 16.4193 13.5505H2.6399C2.3457 13.5505 2.10719 13.789 2.10719 14.0832V15.3617C2.10719 15.6559 2.3457 15.8944 2.6399 15.8944H16.4193C16.7135 15.8944 16.952 15.6559 16.952 15.3617V14.0832Z" fill="white"/>
</svg>
