<svg width="210" height="202" viewBox="0 0 210 202" fill="none" xmlns="http://www.w3.org/2000/svg">
<path d="M159.746 104.5C159.746 104.5 164.224 93.7188 165.927 91.0366C168.16 87.5167 178.648 80.1789 178.648 80.1789C179.643 79.1381 181.378 79.3845 182.039 80.6604C182.362 81.2853 182.345 82.0302 181.992 82.64L177.353 88.7674C177.353 88.7674 191.661 80.3889 194.324 81.1096C196.986 81.8304 194.212 84.9022 194.212 84.9022C194.212 84.9022 197.258 83.3829 198.267 85.1798C199.276 86.9766 195.893 88.7674 195.893 88.7674C195.893 88.7674 198.571 88.194 198.821 90.2957C199.07 92.3974 196.166 93.6734 196.166 93.6734C196.166 93.6734 199.604 93.8389 197.667 96.8622C196.026 99.4253 185.28 102.321 181.48 104.722C179.731 105.827 175.637 110.559 175.637 110.559L159.746 104.5Z" fill="white"/>
<path d="M175.639 110.913C175.596 110.913 175.552 110.905 175.51 110.89L159.618 104.83C159.529 104.796 159.456 104.727 159.419 104.639C159.381 104.551 159.38 104.452 159.417 104.364C159.6 103.922 163.926 93.5239 165.625 90.8458C167.835 87.3622 177.691 80.4141 178.415 79.9063C178.968 79.3441 179.734 79.0877 180.521 79.1977C181.32 79.3107 181.99 79.7842 182.358 80.4959C182.738 81.2307 182.718 82.0968 182.304 82.8136C182.297 82.8257 182.289 82.8388 182.28 82.8499L178.698 87.5812C182.588 85.3695 192.128 80.1486 194.42 80.7654C195.153 80.9642 195.607 81.3458 195.772 81.899C195.992 82.6339 195.62 83.495 195.217 84.1471C196.3 83.8442 197.85 83.7029 198.581 85.0051C198.828 85.4452 198.88 85.9177 198.734 86.4072C198.501 87.1916 197.785 87.8841 197.153 88.3666C197.559 88.4151 197.994 88.5362 198.36 88.7956C198.828 89.1267 199.103 89.6163 199.179 90.2513C199.363 91.8058 198.089 92.9243 197.178 93.5159C197.649 93.6764 198.166 93.9641 198.436 94.4799C198.789 95.1532 198.633 96.0183 197.973 97.05C196.938 98.6651 192.908 100.247 188.641 101.921C185.842 103.02 183.197 104.058 181.676 105.019C179.992 106.083 175.954 110.74 175.913 110.787C175.84 110.869 175.741 110.913 175.639 110.913ZM160.217 104.3L175.532 110.139C176.327 109.23 179.696 105.43 181.288 104.424C182.866 103.427 185.542 102.377 188.374 101.264C192.161 99.7785 196.455 98.0938 197.365 96.6735C197.719 96.1213 198.081 95.349 197.798 94.809C197.431 94.1084 196.161 94.0287 196.149 94.0277C195.984 94.0196 195.845 93.9005 195.814 93.7389C195.784 93.5774 195.869 93.4169 196.02 93.3493C196.047 93.3372 198.681 92.1521 198.465 90.3371C198.413 89.902 198.242 89.587 197.941 89.374C197.332 88.944 196.31 89.0389 195.967 89.1126C195.793 89.1499 195.618 89.0541 195.555 88.8885C195.494 88.7229 195.566 88.5372 195.723 88.4534C195.742 88.4433 197.692 87.3965 198.045 86.2084C198.136 85.9035 198.105 85.6229 197.953 85.3513C197.123 83.8725 194.399 85.204 194.372 85.2181C194.218 85.2938 194.031 85.2514 193.927 85.1172C193.823 84.9819 193.829 84.7931 193.944 84.6659C194.342 84.2238 195.322 82.9014 195.083 82.1019C194.992 81.795 194.712 81.582 194.228 81.4518C192.384 80.9511 183.233 85.7349 177.534 89.0722C177.387 89.158 177.199 89.1298 177.085 89.0036C176.971 88.8784 176.963 88.6896 177.065 88.5544L181.69 82.4451C181.974 81.9414 181.985 81.3357 181.719 80.8209C181.458 80.3172 180.984 79.981 180.417 79.9013C179.849 79.8205 179.3 80.0113 178.906 80.4222C178.89 80.4393 178.872 80.4545 178.853 80.4676C178.749 80.5403 168.398 87.8043 166.229 91.2244C164.731 93.5865 160.988 102.459 160.217 104.3Z" fill="black"/>
<path d="M194.212 84.9022C192.362 85.6875 188.627 88.0022 185.166 90.0938L194.212 84.9022Z" fill="white"/>
<path d="M185.165 90.4471C185.045 90.4471 184.927 90.3865 184.86 90.2775C184.757 90.111 184.81 89.8929 184.979 89.791L186.31 88.9844C189.32 87.1583 192.432 85.2716 194.071 84.5761C194.252 84.4984 194.462 84.5822 194.541 84.7618C194.618 84.9415 194.535 85.1505 194.353 85.2272C192.763 85.9025 189.673 87.7761 186.685 89.5891L185.352 90.3956C185.294 90.431 185.23 90.4471 185.165 90.4471Z" fill="black"/>
<path d="M195.893 88.7664C195.893 88.7664 195.235 88.9077 192.802 90.1432C190.368 91.3788 186.056 94.0438 186.056 94.0438" fill="white"/>
<path d="M186.056 94.3981C185.936 94.3981 185.819 94.3386 185.752 94.2316C185.647 94.066 185.698 93.847 185.866 93.743C185.91 93.7168 190.219 91.0548 192.638 89.8273C195.044 88.6069 195.745 88.4353 195.816 88.4201C196.01 88.3787 196.2 88.4999 196.242 88.6907C196.284 88.8804 196.164 89.0682 195.972 89.1116C195.939 89.1197 195.269 89.2893 192.965 90.4582C190.572 91.6726 186.288 94.3174 186.245 94.3446C186.186 94.381 186.121 94.3981 186.056 94.3981Z" fill="black"/>
<path d="M196.166 93.6733C196.166 93.6733 194.188 94.3658 193.387 94.6838C192.944 94.8595 186.932 97.8979 186.932 97.8979" fill="white"/>
<path d="M186.932 98.2513C186.801 98.2513 186.676 98.1806 186.612 98.0584C186.523 97.8838 186.592 97.6708 186.768 97.582C187.385 97.2701 192.807 94.5314 193.253 94.3547C194.053 94.0388 195.965 93.3685 196.047 93.3402C196.233 93.2746 196.437 93.3715 196.504 93.5563C196.57 93.741 196.472 93.9429 196.285 94.0085C196.266 94.0156 194.306 94.703 193.519 95.0129C193.205 95.1371 189.505 96.9945 187.095 98.2129C187.043 98.2391 186.987 98.2513 186.932 98.2513Z" fill="black"/>
<path d="M94.3611 92.3197C87.4439 94.0186 80.8804 110.94 80.0781 114.445C79.2757 117.95 79.3736 121.784 81.1006 124.944C82.01 126.608 83.3312 128.025 84.2335 129.693C85.567 132.156 85.9085 135.127 85.1704 137.824C84.6301 139.799 83.5474 141.591 82.9642 143.554C82.3821 145.516 82.4035 147.864 83.8267 149.348C85.5598 151.156 88.4909 150.919 90.9672 150.471C95.0982 149.724 99.225 148.76 103.038 147.018C106.851 145.276 110.36 142.705 112.678 139.237C114.997 135.77 116.017 131.347 114.892 127.341C113.619 122.809 109.907 119.411 106.258 116.398C102.61 113.387 98.7153 110.326 96.814 106.017C96.5122 105.334 96.2583 104.615 95.7884 104.032C95.3184 103.45 94.5629 103.021 93.8258 103.174" fill="black"/>
<path d="M125.674 106.383C128.8 108.878 122.201 132.618 136.343 134.816C140.308 135.432 140.012 142.043 139.876 146.016C139.744 149.986 137.886 153.987 134.585 156.244C131.754 158.18 128.185 158.7 124.747 158.825C121.696 158.938 118.562 158.763 115.738 157.613C112.914 156.459 110.427 154.182 109.669 151.252C108.943 148.437 108.439 146.206 108.719 143.312C108.988 140.564 110.077 137.055 109.194 134.439C108.753 132.189 107.318 127.264 107.617 125.765" fill="black"/>
<path d="M114.257 137.333L152.78 134.319L157.457 101.451L185.794 106.383C185.794 106.383 176.67 139.977 168.373 148.879C156.678 161.423 121.688 162.12 122.053 162.12C122.419 162.119 114.257 137.333 114.257 137.333Z" fill="#008DFF"/>
<path d="M152.78 134.674C152.763 134.674 152.746 134.673 152.729 134.671C152.533 134.643 152.396 134.464 152.424 134.27L157.101 101.402C157.115 101.307 157.167 101.221 157.245 101.165C157.324 101.108 157.422 101.085 157.517 101.102L185.854 106.034C186.049 106.068 186.178 106.252 186.144 106.445C186.11 106.638 185.926 106.764 185.73 106.733L157.757 101.864L153.131 134.37C153.109 134.546 152.955 134.674 152.78 134.674Z" fill="black"/>
<path d="M39.4852 106.237C39.4852 106.237 35.0065 95.4561 33.304 92.7739C31.0703 89.2539 20.5828 81.9162 20.5828 81.9162C19.5878 80.8754 17.8527 81.1217 17.192 82.3977C16.8689 83.0225 16.8862 83.7675 17.2389 84.3772L21.8776 90.5047C21.8776 90.5047 7.57011 82.1261 4.90721 82.8469C2.24431 83.5677 5.01833 86.6394 5.01833 86.6394C5.01833 86.6394 1.97313 85.1202 0.963833 86.917C-0.0454587 88.7139 3.33822 90.5047 3.33822 90.5047C3.33822 90.5047 0.660027 89.9313 0.410253 92.033C0.160478 94.1347 3.065 95.4106 3.065 95.4106C3.065 95.4106 -0.373733 95.5762 1.56329 98.5995C3.20467 101.163 13.9511 104.059 17.7507 106.459C19.5001 107.565 23.5934 112.296 23.5934 112.296L39.4852 106.237Z" fill="white"/>
<path d="M23.592 112.65C23.4891 112.65 23.3892 112.607 23.3198 112.526C23.2791 112.48 19.2409 107.822 17.5567 106.758C16.0366 105.797 13.3921 104.759 10.5926 103.661C6.32499 101.986 2.29394 100.404 1.26018 98.7893C0.599553 97.7576 0.443573 96.8925 0.796315 96.2192C1.06648 95.7034 1.58336 95.4157 2.05436 95.2552C1.14396 94.6646 -0.130399 93.5451 0.0541285 91.9906C0.129571 91.3556 0.404832 90.865 0.872777 90.5349C1.23877 90.2755 1.67409 90.1554 2.07985 90.1069C1.44777 89.6234 0.732086 88.9319 0.498623 88.1476C0.352837 87.657 0.403811 87.1856 0.651547 86.7454C1.38354 85.4422 2.93316 85.5866 4.01585 85.8874C3.61316 85.2363 3.24104 84.3742 3.46023 83.6393C3.62539 83.0851 4.0811 82.7035 4.81411 82.5057C7.10082 81.8879 16.6453 87.1098 20.5356 89.3216L16.9531 84.5902C16.944 84.5791 16.9368 84.566 16.9287 84.5539C16.5148 83.8372 16.4944 82.9711 16.8746 82.2362C17.2427 81.5245 17.9125 81.0511 18.7118 80.938C19.4988 80.8239 20.2644 81.0844 20.818 81.6466C21.5419 82.1544 31.3972 89.1025 33.6075 92.5862C35.307 95.2643 39.6327 105.662 39.8162 106.103C39.8529 106.191 39.8518 106.291 39.8141 106.378C39.7764 106.466 39.704 106.535 39.6143 106.569L23.7225 112.629C23.6787 112.643 23.6359 112.65 23.592 112.65ZM2.55493 90.7863C2.15121 90.7863 1.65472 90.8509 1.28669 91.1123C0.986959 91.3253 0.816705 91.6393 0.764711 92.0733C0.549599 93.8894 3.18293 95.0745 3.20944 95.0856C3.36032 95.1522 3.44596 95.3127 3.41538 95.4742C3.38479 95.6347 3.24716 95.7548 3.082 95.7639C2.7262 95.7821 1.7373 95.9588 1.43044 96.5463C1.14906 97.0863 1.51097 97.8575 1.86474 98.4097C2.77412 99.83 7.0682 101.516 10.8566 103.002C13.6887 104.113 16.3639 105.163 17.9421 106.16C19.5335 107.166 22.9029 110.966 23.6991 111.875L39.0138 106.036C38.2431 104.195 34.4995 95.3238 33.0009 92.9617C30.8304 89.5416 20.4806 82.2776 20.3756 82.2049C20.3562 82.1918 20.3389 82.1766 20.3226 82.1594C19.929 81.7476 19.3775 81.5588 18.8117 81.6386C18.2448 81.7193 17.7708 82.0545 17.5098 82.5582C17.2437 83.072 17.2549 83.6777 17.5383 84.1824L22.1637 90.2917C22.2657 90.4269 22.2575 90.6147 22.1434 90.7409C22.0292 90.867 21.8416 90.8953 21.6948 90.8095C15.9958 87.4722 6.84901 82.6854 5.00068 83.1891C4.51642 83.3203 4.23708 83.5333 4.14533 83.8392C3.90575 84.6397 4.8865 85.9611 5.28512 86.4032C5.3993 86.5304 5.40643 86.7192 5.30245 86.8544C5.19846 86.9897 5.01087 87.0311 4.85795 86.9554C4.83043 86.9413 2.10636 85.6098 1.27649 87.0886C1.12459 87.3602 1.09401 87.6398 1.18474 87.9457C1.53748 89.1338 3.48674 90.1806 3.50713 90.1907C3.66413 90.2745 3.73549 90.4592 3.67433 90.6248C3.61316 90.7903 3.43679 90.8832 3.26347 90.8489C3.25634 90.8489 2.95049 90.7863 2.55493 90.7863Z" fill="black"/>
<path d="M5.01807 86.6394C6.86844 87.4248 10.6038 89.7395 14.065 91.8311L5.01807 86.6394Z" fill="white"/>
<path d="M14.0651 92.1844C14.0019 92.1844 13.9377 92.1682 13.8786 92.1329L12.5492 91.3274C9.56003 89.5144 6.46894 87.6398 4.87854 86.9645C4.69707 86.8878 4.61245 86.6788 4.69095 86.4991C4.76945 86.3194 4.97947 86.2356 5.16094 86.3134C6.79925 87.0089 9.91277 88.8976 12.9233 90.7227L14.2527 91.5282C14.4209 91.6302 14.475 91.8482 14.372 92.0158C14.3027 92.1248 14.1854 92.1844 14.0651 92.1844Z" fill="black"/>
<path d="M3.33789 90.5037C3.33789 90.5037 3.99546 90.645 6.42898 91.8806C8.86249 93.1151 13.1749 95.7811 13.1749 95.7811" fill="white"/>
<path d="M13.1751 96.1354C13.1108 96.1354 13.0446 96.1183 12.9864 96.0819C12.9436 96.0557 8.65873 93.4099 6.26701 92.1955C3.94971 91.0205 3.28603 90.8559 3.25952 90.8489C3.06888 90.8034 2.94858 90.6147 2.99242 90.4249C3.03625 90.2361 3.22384 90.117 3.41551 90.1574C3.48789 90.1725 4.18828 90.3442 6.59427 91.5646C9.01351 92.7921 13.3239 95.453 13.3667 95.4793C13.5349 95.5833 13.5859 95.8013 13.4809 95.9679C13.4106 96.0759 13.2943 96.1354 13.1751 96.1354Z" fill="black"/>
<path d="M3.06494 95.4106C3.06494 95.4106 5.04274 96.1031 5.84406 96.4211C6.28754 96.5968 12.2995 99.6352 12.2995 99.6352" fill="white"/>
<path d="M12.2992 99.9885C12.2441 99.9885 12.1891 99.9764 12.1371 99.9501C9.72703 98.7317 6.0263 96.8743 5.71229 96.7502C4.92627 96.4392 2.96579 95.7518 2.94642 95.7447C2.75986 95.6801 2.66199 95.4772 2.72825 95.2925C2.79452 95.1078 2.99842 95.0119 3.18498 95.0765C3.26654 95.1047 5.1791 95.775 5.97838 96.091C6.42491 96.2676 11.8465 99.0063 12.4633 99.3182C12.6397 99.407 12.709 99.6211 12.6193 99.7947C12.5551 99.9178 12.4287 99.9885 12.2992 99.9885Z" fill="black"/>
<path d="M84.9734 139.071L46.4511 136.057L41.7737 103.189L13.437 108.121C13.437 108.121 22.5604 141.715 30.858 150.616C42.5525 163.16 77.5424 163.857 77.1774 163.857C76.8124 163.857 84.9734 139.071 84.9734 139.071Z" fill="#008DFF"/>
<path d="M46.451 136.411C46.2756 136.411 46.1227 136.283 46.0972 136.106L41.4718 103.6L13.4991 108.47C13.3034 108.502 13.1189 108.374 13.0842 108.182C13.0495 107.99 13.18 107.806 13.3747 107.771L41.7114 102.84C41.8072 102.825 41.9051 102.846 41.9836 102.903C42.0621 102.959 42.1141 103.045 42.1273 103.14L46.8047 136.008C46.8323 136.202 46.6957 136.382 46.4999 136.409C46.4846 136.41 46.4673 136.411 46.451 136.411Z" fill="black"/>
<path d="M127.809 144.646L140.205 188.899C133.749 206.027 78.4405 204.701 73.0801 194.085L74.1302 148.879C74.3534 143.432 78.7495 139.06 84.2496 138.814L117.228 137.345C122.016 137.131 126.354 140.124 127.809 144.646Z" fill="#008DFF"/>
<path d="M73.0811 194.439C73.078 194.439 73.076 194.439 73.0729 194.439C72.8751 194.435 72.7191 194.272 72.7232 194.076L73.7733 148.87C73.7774 148.674 73.9364 148.511 74.1393 148.523C74.3371 148.527 74.4931 148.69 74.489 148.886L73.4389 194.092C73.4338 194.286 73.2748 194.439 73.0811 194.439Z" fill="black"/>
<path d="M140.205 189.252C140.048 189.252 139.905 189.149 139.861 188.993L127.465 144.74C127.412 144.551 127.524 144.356 127.714 144.304C127.904 144.252 128.101 144.362 128.154 144.55L140.55 188.803C140.603 188.992 140.491 189.186 140.301 189.239C140.27 189.248 140.237 189.252 140.205 189.252Z" fill="black"/>
<path d="M180.698 30.9768L182.46 66.7612C180.243 69.1849 178.999 70.5396 176.782 72.9633L83.7928 77.4523L71.2786 85.6057L80.8301 93.9641L60.9889 103.567L69.5363 93.9308L55.5479 86.4789L58.8928 78.6546L33.1508 79.8972C30.7071 77.6986 29.3348 76.4701 26.8901 74.2715L25.1284 38.4872C27.3448 36.0635 28.5896 34.7048 30.8059 32.2851L174.439 25.3521C176.882 27.5467 178.254 28.7792 180.698 30.9768Z" fill="#F97328"/>
<path d="M62.7471 52.3484L59.7945 52.4741C59.7242 52.0944 59.5995 51.7597 59.4205 51.4702C59.2414 51.1762 59.0169 50.9291 58.7472 50.729C58.4775 50.5289 58.1694 50.3799 57.8231 50.2821C57.4812 50.1841 57.1125 50.1435 56.717 50.1603C56.0025 50.1907 55.3877 50.3947 54.8726 50.7723C54.3574 51.1454 53.9681 51.6752 53.7049 52.3617C53.4415 53.0437 53.3304 53.8633 53.3714 54.8206C53.4136 55.8047 53.5951 56.6254 53.916 57.2826C54.2413 57.9396 54.6764 58.4276 55.2214 58.7465C55.7663 59.0655 56.3871 59.2102 57.0837 59.1806C57.4746 59.1639 57.8342 59.0969 58.1623 58.9793C58.4949 58.8616 58.7873 58.6984 59.0395 58.4896C59.2915 58.2762 59.4967 58.0221 59.6551 57.7273C59.8181 57.4322 59.9253 57.099 59.9769 56.7276L62.9301 56.6155C62.8809 57.2524 62.7161 57.8717 62.4358 58.4734C62.1597 59.0704 61.7755 59.6113 61.283 60.0959C60.7948 60.5759 60.2037 60.9658 59.5097 61.2654C58.82 61.5604 58.0325 61.7267 57.1472 61.7644C55.9158 61.8167 54.8028 61.585 53.8082 61.069C52.8181 60.5529 52.0195 59.7787 51.4125 58.7465C50.8099 57.7141 50.4765 56.4474 50.4121 54.9465C50.3475 53.441 50.5757 52.1481 51.0967 51.068C51.6176 49.9878 52.3516 49.1507 53.2986 48.5566C54.2454 47.9581 55.3255 47.633 56.5389 47.5814C57.3388 47.5473 58.0852 47.6281 58.7779 47.8238C59.4751 48.0192 60.0982 48.3214 60.647 48.7302C61.1956 49.1346 61.6494 49.6398 62.0086 50.2458C62.3723 50.8517 62.6184 51.5525 62.7471 52.3484ZM77.6156 53.7891C77.6802 55.2946 77.4498 56.5875 76.9243 57.6679C76.4034 58.7481 75.665 59.5876 74.7092 60.1866C73.7577 60.7808 72.673 61.1039 71.4551 61.1557C70.2282 61.2079 69.1152 60.9761 68.1161 60.4603C67.117 59.9445 66.3117 59.1707 65.7002 58.1387C65.0886 57.1067 64.7507 55.8402 64.6863 54.3392C64.6217 52.8337 64.8499 51.5409 65.3709 50.4607C65.8918 49.3805 66.628 48.5433 67.5795 47.9491C68.5308 47.3503 69.6199 47.0249 70.8468 46.9727C72.0647 46.9209 73.1732 47.1528 74.1723 47.6686C75.1757 48.1797 75.9832 48.9512 76.5947 49.9832C77.2108 51.015 77.5511 52.2837 77.6156 53.7891ZM74.6563 53.915C74.6145 52.9399 74.4332 52.1237 74.1123 51.4665C73.796 50.8091 73.3675 50.3186 72.8269 49.9949C72.2862 49.6713 71.6631 49.5244 70.9575 49.5545C70.252 49.5845 69.6437 49.7837 69.1328 50.1521C68.6218 50.5205 68.2346 51.0457 67.9712 51.7278C67.7123 52.4096 67.6038 53.2381 67.6456 54.2133C67.6874 55.1885 67.8665 56.0048 68.1829 56.6621C68.5037 57.3193 68.9344 57.8097 69.4751 58.1334C70.0157 58.4571 70.6388 58.6039 71.3444 58.5739C72.0499 58.5439 72.6582 58.3446 73.1692 57.9762C73.6801 57.6078 74.0651 57.0827 74.324 56.4009C74.5874 55.7188 74.6981 54.8902 74.6563 53.915ZM91.0292 46.3032L91.6213 60.1086L89.1002 60.2159L82.7212 51.7823L82.6201 51.7866L82.9928 60.4757L80.0739 60.5999L79.4818 46.7944L82.0434 46.6854L88.3749 55.1143L88.4962 55.1091L88.1238 46.4268L91.0292 46.3032ZM102.787 50.2736C102.678 49.9496 102.533 49.6654 102.352 49.421C102.17 49.1721 101.952 48.9652 101.697 48.8005C101.447 48.6311 101.162 48.5059 100.843 48.4249C100.529 48.3437 100.183 48.3111 99.8059 48.3272C99.1004 48.3572 98.4877 48.5588 97.9679 48.9321C97.4527 49.3052 97.0611 49.8329 96.7932 50.5151C96.5251 51.1928 96.4117 52.0125 96.453 52.9742C96.4942 53.936 96.6753 54.7476 96.9964 55.4093C97.3174 56.071 97.7529 56.568 98.3029 56.9002C98.8527 57.228 99.4917 57.3764 100.22 57.3454C100.88 57.3173 101.439 57.1765 101.897 56.9229C102.358 56.6647 102.704 56.3146 102.932 55.8726C103.165 55.4305 103.269 54.9151 103.244 54.3264L103.841 54.3888L100.282 54.5402L100.187 52.3426L105.965 52.0969L106.039 53.836C106.091 55.0494 105.88 56.1029 105.405 56.9965C104.93 57.8857 104.253 58.5853 103.374 59.0954C102.496 59.601 101.476 59.8785 100.317 59.9278C99.0227 59.9829 97.8734 59.7459 96.8693 59.2168C95.8649 58.6833 95.0659 57.9001 94.4724 56.8673C93.8831 55.8299 93.5572 54.5832 93.4948 53.1271C93.4468 52.0081 93.5658 51.0036 93.8518 50.1135C94.1421 49.2187 94.5685 48.4532 95.131 47.817C95.6935 47.1807 96.3589 46.6865 97.1271 46.3341C97.8954 45.9818 98.7357 45.7862 99.648 45.7474C100.43 45.7141 101.163 45.7978 101.847 45.9983C102.531 46.1943 103.142 46.4879 103.681 46.8792C104.225 47.2703 104.675 47.7441 105.032 48.3007C105.389 48.8528 105.629 49.4684 105.753 50.1474L102.787 50.2736ZM108.474 59.3917L107.882 45.5862L113.329 45.3545C114.371 45.3101 115.269 45.4588 116.022 45.8004C116.779 46.1374 117.366 46.6369 117.781 47.2991C118.201 47.9565 118.431 48.7414 118.47 49.6537C118.509 50.5705 118.345 51.3676 117.978 52.045C117.611 52.7179 117.06 53.2456 116.324 53.6281C115.593 54.0104 114.697 54.2241 113.637 54.2692L109.99 54.4243L109.889 52.0785L113.064 51.9434C113.621 51.9197 114.081 51.8236 114.443 51.6551C114.805 51.4867 115.069 51.2458 115.236 50.9326C115.407 50.6191 115.483 50.2355 115.463 49.7816C115.444 49.3232 115.335 48.9406 115.137 48.6339C114.944 48.327 114.658 48.1005 114.278 47.9546C113.902 47.804 113.433 47.7407 112.871 47.7646L110.903 47.8483L111.393 59.2675L108.474 59.3917ZM115.66 52.7919L119.361 58.9285L116.139 59.0656L112.512 52.9259L115.66 52.7919ZM123.311 58.7605L120.183 58.8935L124.357 44.8853L128.119 44.7253L133.47 58.3283L130.342 58.4614L126.427 47.9578L126.319 47.9624L123.311 58.7605ZM122.883 53.3423L130.271 53.028L130.369 55.3065L122.981 55.6208L122.883 53.3423ZM132.43 46.9528L132.327 44.5463L143.665 44.0639L143.768 46.4704L139.542 46.6502L140.031 58.0492L137.145 58.1719L136.657 46.773L132.43 46.9528ZM153.192 47.6363C153.115 47.0948 152.865 46.6822 152.443 46.3985C152.021 46.1148 151.46 45.9879 150.759 46.0177C150.283 46.0379 149.883 46.1225 149.561 46.2712C149.238 46.4155 148.995 46.6082 148.829 46.8494C148.669 47.0903 148.595 47.3591 148.607 47.6557C148.609 47.9033 148.67 48.1168 148.79 48.2963C148.915 48.4755 149.081 48.6283 149.289 48.7545C149.497 48.8762 149.736 48.9809 150.005 49.0685C150.274 49.1516 150.561 49.2204 150.865 49.275L152.118 49.5188C152.726 49.628 153.286 49.7843 153.799 49.9876C154.312 50.1908 154.76 50.4487 155.143 50.7611C155.525 51.0734 155.827 51.4478 156.049 51.8841C156.274 52.3202 156.402 52.8258 156.431 53.4008C156.463 54.2459 156.278 54.9876 155.878 55.6259C155.482 56.2595 154.891 56.7642 154.106 57.1397C153.325 57.5106 152.373 57.72 151.249 57.7678C150.135 57.8152 149.157 57.6857 148.315 57.3793C147.478 57.0728 146.814 56.5945 146.322 55.9446C145.835 55.29 145.559 54.4666 145.494 53.4744L148.318 53.3543C148.369 53.8158 148.519 54.1966 148.766 54.4968C149.017 54.7922 149.344 55.0102 149.746 55.1507C150.152 55.2864 150.607 55.3436 151.111 55.3222C151.605 55.3012 152.031 55.211 152.389 55.0517C152.751 54.8922 153.028 54.6801 153.219 54.4154C153.411 54.1506 153.499 53.8519 153.485 53.5194C153.472 53.2093 153.368 52.9526 153.175 52.7492C152.986 52.5456 152.713 52.3772 152.356 52.2438C152.004 52.1102 151.573 51.9934 151.065 51.8935L149.545 51.58C148.369 51.3464 147.431 50.9428 146.731 50.3693C146.032 49.7958 145.662 48.9989 145.623 47.9785C145.582 47.1428 145.773 46.4031 146.196 45.7593C146.623 45.1154 147.225 44.6013 148.001 44.2171C148.777 43.8329 149.668 43.6194 150.674 43.5766C151.699 43.533 152.601 43.6702 153.38 43.9882C154.163 44.3061 154.782 44.7683 155.236 45.3748C155.69 45.9813 155.941 46.6954 155.99 47.5172L153.192 47.6363Z" fill="white"/>
<path d="M111.43 137.99C111.43 137.99 108.642 129.198 111.213 120.695L95.0611 125.676L93.5166 139.283C94.7971 143.565 102.78 141.575 111.43 137.99Z" fill="white"/>
<path d="M97.932 142.07C96.7636 142.07 95.8023 141.89 95.0407 141.533C94.0956 141.089 93.4676 140.365 93.174 139.383C93.1608 139.337 93.1567 139.29 93.1618 139.243L94.7063 125.637C94.7226 125.498 94.8195 125.379 94.9551 125.338L111.107 120.356C111.232 120.318 111.371 120.35 111.465 120.443C111.558 120.535 111.594 120.671 111.555 120.797C109.044 129.1 111.743 137.797 111.77 137.884C111.826 138.058 111.738 138.246 111.568 138.317C105.513 140.826 101.006 142.07 97.932 142.07ZM93.8816 139.248C94.1252 140.006 94.6054 140.544 95.3476 140.893C97.8504 142.069 103.115 141.024 110.998 137.784C110.549 136.178 108.676 128.639 110.688 121.227L95.3904 125.945L93.8816 139.248Z" fill="black"/>
<path d="M95.9044 127.035C91.7703 126.383 87.8586 124.617 85.7758 120.675C77.2111 104.471 103.333 88.6816 103.333 88.6816L117.083 101.569C117.083 101.569 120.54 113.158 120.843 112.993C121.146 112.829 111.079 125.896 111.079 125.896" fill="white"/>
<path d="M95.9054 127.389C95.8861 127.389 95.8677 127.388 95.8483 127.385C90.8314 126.595 87.3356 124.392 85.4587 120.84C81.8814 114.07 83.8245 106.299 91.0782 98.3633C96.51 92.4216 103.082 88.4181 103.147 88.3787C103.284 88.2949 103.462 88.3141 103.579 88.4242L117.329 101.312C117.375 101.355 117.408 101.409 117.426 101.469C118.616 105.458 120.615 111.909 121.051 112.701C121.077 112.718 121.1 112.738 121.12 112.761C121.339 113.013 121.339 113.013 119.648 115.264C118.736 116.479 117.511 118.09 116.284 119.697C113.83 122.91 111.364 126.111 111.364 126.111C111.244 126.268 111.019 126.297 110.862 126.178C110.705 126.059 110.675 125.837 110.795 125.681C114.357 121.058 119.643 114.147 120.432 112.995C120.068 112.285 119.204 109.925 116.767 101.76L103.289 89.1267C102.083 89.8879 96.3887 93.6047 91.5991 98.8488C84.4729 106.65 82.6205 113.938 86.0939 120.511C87.8607 123.854 91.1811 125.932 95.9615 126.686C96.1562 126.717 96.2898 126.898 96.2592 127.092C96.2296 127.265 96.0777 127.389 95.9054 127.389ZM120.723 112.658C120.705 112.664 120.688 112.672 120.671 112.681C120.688 112.672 120.705 112.665 120.723 112.658Z" fill="black"/>
<path d="M92.5044 101.459C93.1008 101.454 93.6962 101.641 94.1641 101.979C94.6321 102.317 94.9705 102.805 95.1071 103.338" fill="white"/>
<path d="M95.1061 103.692C94.946 103.692 94.8002 103.585 94.7594 103.425C94.6453 102.975 94.3506 102.552 93.953 102.265C93.5493 101.973 93.0151 101.798 92.5074 101.813C92.5064 101.813 92.5054 101.813 92.5043 101.813C92.3076 101.813 92.1485 101.656 92.1465 101.461C92.1445 101.265 92.3035 101.106 92.5013 101.104C93.1721 101.102 93.8419 101.307 94.3751 101.691C94.9134 102.08 95.2967 102.633 95.4537 103.25C95.5016 103.44 95.3864 103.633 95.1938 103.68C95.1652 103.689 95.1356 103.692 95.1061 103.692Z" fill="black"/>
<path d="M93.0547 105.128C93.559 104.395 93.5491 103.518 93.0326 103.169C92.516 102.821 91.6885 103.133 91.1841 103.866C90.6798 104.599 90.6897 105.476 91.2063 105.824C91.7228 106.173 92.5504 105.861 93.0547 105.128Z" fill="black"/>
<path d="M100.85 107.466C101.446 107.461 102.042 107.647 102.51 107.985C102.978 108.324 103.316 108.811 103.453 109.344" fill="white"/>
<path d="M103.452 109.699C103.292 109.699 103.146 109.592 103.105 109.431C102.989 108.975 102.702 108.563 102.299 108.271C101.895 107.98 101.377 107.829 100.853 107.82C100.852 107.82 100.851 107.82 100.85 107.82C100.653 107.82 100.494 107.663 100.492 107.469C100.49 107.273 100.649 107.113 100.847 107.111C101.516 107.113 102.188 107.314 102.721 107.699C103.259 108.088 103.642 108.642 103.799 109.257C103.847 109.447 103.731 109.64 103.539 109.687C103.51 109.694 103.48 109.699 103.452 109.699Z" fill="black"/>
<path d="M101.4 111.133C101.904 110.399 101.894 109.523 101.378 109.174C100.861 108.826 100.034 109.138 99.5294 109.871C99.025 110.604 99.0349 111.481 99.5515 111.829C100.068 112.177 100.896 111.866 101.4 111.133Z" fill="black"/>
<path d="M96.8168 106.383C96.7556 107.275 96.2367 108.086 95.5679 108.686C94.8991 109.286 94.0866 109.702 93.2791 110.1C92.54 110.466 91.7581 110.855 91.3228 111.551C90.7447 112.475 91.0149 113.82 91.9049 114.455" fill="white"/>
<path d="M91.9047 114.81C91.8324 114.81 91.759 114.788 91.6957 114.744C90.6497 113.997 90.3398 112.45 91.0188 111.365C91.5112 110.579 92.3656 110.157 93.12 109.784C93.9621 109.368 94.7104 108.978 95.3282 108.425C96.0092 107.814 96.4109 107.081 96.4608 106.36C96.4741 106.165 96.6454 106.023 96.8421 106.03C97.0399 106.043 97.1887 106.213 97.1755 106.408C97.1143 107.312 96.6291 108.215 95.8094 108.95C95.1243 109.563 94.3311 109.978 93.4411 110.418C92.7397 110.765 92.0138 111.123 91.6295 111.739C91.1493 112.506 91.3766 113.641 92.1168 114.169C92.2769 114.283 92.3136 114.506 92.1973 114.664C92.125 114.759 92.0159 114.81 91.9047 114.81Z" fill="black"/>
<path d="M109.748 129.394C109.956 125.514 111.644 122.184 113.627 118.955C113.627 118.955 112.658 119.147 109.308 116.557C105.958 113.971 106.935 108.4 107.955 106.582L94.728 95.9063C94.728 95.9063 92.3587 94.8534 93.318 91.3526C94.2203 88.0577 99.2188 86.2044 102.164 85.6512C108.051 84.5418 114.624 87.132 118.7 91.3556C122.926 95.7357 125.74 101.401 126.799 107.358C127.275 110.015 124.845 122.733 125.56 125.999C126.351 129.613 126.605 132.332 128.094 135.722L109.748 129.394Z" fill="black"/>
<path d="M109.409 117.062C109.409 117.062 115.191 111.974 117.567 117.028C119.942 122.083 115.551 126.262 110.182 125.65" fill="white"/>
<path d="M111.229 126.065C110.871 126.065 110.509 126.045 110.143 126.002C109.946 125.98 109.805 125.804 109.827 125.61C109.85 125.415 110.027 125.277 110.224 125.298C112.973 125.611 115.534 124.632 116.908 122.745C118.065 121.157 118.184 119.179 117.242 117.177C116.718 116.061 115.977 115.398 115.041 115.205C112.655 114.713 109.676 117.3 109.646 117.325C109.498 117.455 109.272 117.442 109.141 117.296C109.01 117.149 109.023 116.925 109.171 116.796C109.303 116.679 112.446 113.946 115.185 114.512C116.355 114.752 117.266 115.548 117.892 116.878C118.947 119.123 118.804 121.354 117.488 123.16C116.148 125 113.814 126.064 111.229 126.065Z" fill="black"/>
<path d="M112.858 118.131C113.603 118.613 114.07 119.49 114.05 120.373C114.031 121.254 113.526 122.111 112.761 122.561" fill="white"/>
<path d="M112.76 122.915C112.638 122.915 112.519 122.854 112.453 122.742C112.352 122.573 112.408 122.356 112.578 122.256C113.239 121.868 113.676 121.125 113.692 120.364C113.709 119.603 113.304 118.843 112.662 118.426C112.496 118.319 112.449 118.099 112.558 117.936C112.666 117.772 112.888 117.727 113.053 117.833C113.898 118.38 114.429 119.379 114.408 120.379C114.385 121.378 113.81 122.354 112.943 122.864C112.886 122.9 112.823 122.915 112.76 122.915Z" fill="black"/>
<path d="M94.5188 120.753C94.321 120.753 94.1242 120.742 93.9285 120.718C92.8733 120.592 91.8671 120.122 91.0963 119.397C90.9526 119.262 90.9475 119.038 91.0831 118.897C91.2187 118.754 91.446 118.749 91.5888 118.884C92.2494 119.504 93.1109 119.906 94.0141 120.014C94.9184 120.123 95.8512 119.936 96.6424 119.489C96.8136 119.391 97.0328 119.451 97.1307 119.621C97.2286 119.791 97.1684 120.008 96.9971 120.105C96.2458 120.53 95.3833 120.753 94.5188 120.753Z" fill="black"/>
<path d="M146.815 101.991C146.611 101.991 146.404 101.934 146.22 101.813C145.727 101.487 145.594 100.826 145.923 100.338C146.444 99.5656 146.985 98.6843 146.796 98.012C146.721 97.7445 146.509 97.4619 146.356 97.2721C145.927 96.7431 145.424 96.2828 144.857 95.9022C144.593 95.7256 144.311 95.5621 144.011 95.3894C143.527 95.1098 143.026 94.8211 142.551 94.4426C141.482 93.5896 140.887 92.4691 140.918 91.3667C140.95 90.2351 141.579 89.3882 142.134 88.6402C142.526 88.1102 142.899 87.6105 142.942 87.1462C142.987 86.6717 142.668 86.1044 142.129 85.7006C141.514 85.2393 140.682 84.9769 139.878 84.7235C139.313 84.5448 139.001 83.9462 139.182 83.387C139.362 82.8277 139.967 82.5188 140.53 82.6975C141.461 82.9912 142.516 83.3254 143.424 84.0058C144.559 84.8567 145.193 86.1367 145.078 87.3451C144.978 88.3949 144.386 89.1944 143.863 89.899C143.441 90.4683 143.076 90.9599 143.063 91.4273C143.051 91.8533 143.361 92.3611 143.896 92.7871C144.244 93.0647 144.655 93.3019 145.089 93.5522C145.407 93.7349 145.735 93.9247 146.058 94.1418C146.803 94.6414 147.467 95.2471 148.03 95.9436C148.323 96.307 148.684 96.8057 148.863 97.4417C149.332 99.1103 148.274 100.677 147.707 101.518C147.503 101.825 147.162 101.991 146.815 101.991Z" fill="#008DFF"/>
<path d="M51.9638 19.3973C51.7589 19.3973 51.5519 19.3398 51.3684 19.2176C50.875 18.8916 50.7424 18.2314 51.0717 17.7428C51.5927 16.9706 52.133 16.0893 51.9444 15.418C51.8863 15.2111 51.7507 14.9829 51.504 14.6781C51.0768 14.1501 50.5722 13.6888 50.0053 13.3093C49.7413 13.1326 49.4589 12.9691 49.1581 12.7965C48.6739 12.5168 48.1733 12.2281 47.6993 11.8496C46.6298 10.9966 46.0355 9.87608 46.0671 8.77375C46.0997 7.64316 46.7277 6.79521 47.2833 6.0472C47.6758 5.51723 48.0479 5.01755 48.0918 4.5532C48.1366 4.07876 47.8175 3.51144 47.2792 3.10765C46.6655 2.64734 45.8326 2.38387 45.0282 2.12949C44.4634 1.95081 44.1514 1.3522 44.3329 0.792964C44.5134 0.233723 45.1169 -0.0761816 45.6827 0.104512C46.6135 0.399274 47.6697 0.733404 48.576 1.41277C49.7117 2.26375 50.3458 3.54374 50.2306 4.75207C50.1307 5.8019 49.5384 6.60139 49.0154 7.306C48.5933 7.87533 48.2284 8.36694 48.2151 8.83432C48.2029 9.26031 48.5138 9.76807 49.048 10.1941C49.3967 10.4717 49.8076 10.7089 50.2419 10.9592C50.5589 11.1419 50.8872 11.3317 51.2114 11.5488C51.9566 12.0484 52.6203 12.6541 53.1831 13.3496C53.4767 13.714 53.8376 14.2127 54.016 14.8487C54.485 16.5173 53.4278 18.084 52.8599 18.9249C52.6509 19.2318 52.3104 19.3973 51.9638 19.3973Z" fill="#F6538A"/>
<path d="M126.172 18.1436C125.963 18.1436 125.77 18.1385 125.602 18.1335C125.01 18.1173 124.543 17.6277 124.559 17.0402C124.576 16.4537 125.069 15.9974 125.663 16.0075C126.601 16.0338 127.642 16.0197 128.116 15.5028C128.262 15.3443 128.384 15.1091 128.515 14.7407C128.74 14.1007 128.865 13.4324 128.889 12.7561C128.9 12.4401 128.889 12.1161 128.878 11.7729C128.859 11.2187 128.84 10.6453 128.911 10.0457C129.072 8.69502 129.715 7.60076 130.675 7.04152C131.659 6.46815 132.718 6.54386 133.653 6.6125C134.315 6.65994 134.94 6.70537 135.36 6.4954C135.79 6.28039 136.106 5.71206 136.165 5.04481C136.232 4.28469 136.015 3.44683 135.805 2.63725C135.657 2.06892 136.004 1.48949 136.578 1.34312C137.153 1.19574 137.737 1.53997 137.885 2.10829C138.127 3.04608 138.404 4.10803 138.305 5.23055C138.18 6.63471 137.423 7.84707 136.328 8.39318C135.377 8.86763 134.379 8.79697 133.497 8.73236C132.786 8.68088 132.172 8.63647 131.765 8.87369C131.394 9.08971 131.125 9.62069 131.045 10.295C130.993 10.7351 131.008 11.2055 131.025 11.7032C131.037 12.0666 131.049 12.4431 131.036 12.8298C131.005 13.7201 130.839 14.5983 130.543 15.4402C130.388 15.8803 130.154 16.4477 129.704 16.9352C128.72 18.0053 127.231 18.1436 126.172 18.1436Z" fill="#8670C5"/>
<path d="M61.3165 128.813C60.9699 128.813 60.6294 128.647 60.4224 128.34C59.8546 127.498 58.7984 125.933 59.2663 124.264C59.4447 123.628 59.8057 123.129 60.0993 122.766C60.662 122.07 61.3247 121.464 62.0699 120.964C62.3941 120.747 62.7214 120.558 63.0384 120.375C63.4727 120.124 63.8836 119.887 64.2323 119.608C64.7655 119.182 65.0774 118.675 65.0652 118.249C65.0519 117.781 64.687 117.29 64.2649 116.721C63.7419 116.016 63.1486 115.217 63.0497 114.167C62.9355 112.959 63.5696 111.679 64.7043 110.828C65.6126 110.148 66.6678 109.814 67.5986 109.52C68.1634 109.341 68.7669 109.65 68.9474 110.209C69.1278 110.769 68.8159 111.367 68.2511 111.545C67.4467 111.799 66.6158 112.062 66.0001 112.523C65.4618 112.927 65.1427 113.494 65.1875 113.969C65.2314 114.432 65.6025 114.933 65.996 115.463C66.5506 116.211 67.1796 117.058 67.2122 118.189C67.2438 119.291 66.6485 120.412 65.58 121.265C65.1049 121.643 64.6044 121.932 64.1201 122.212C63.8204 122.384 63.537 122.548 63.2739 122.725C62.7071 123.104 62.2035 123.565 61.7753 124.094C61.6224 124.284 61.4103 124.567 61.3349 124.834C61.1463 125.507 61.6866 126.387 62.2076 127.16C62.5369 127.649 62.4043 128.308 61.9109 128.635C61.7284 128.755 61.5214 128.813 61.3165 128.813Z" fill="#8670C5"/>
<path d="M131.588 88.3333C133.227 88.3333 134.556 87.0177 134.556 85.3948C134.556 83.7719 133.227 82.4562 131.588 82.4562C129.949 82.4562 128.621 83.7719 128.621 85.3948C128.621 87.0177 129.949 88.3333 131.588 88.3333Z" fill="#8670C5"/>
<path d="M10.8732 64.0437C12.6361 64.0437 14.0652 62.6286 14.0652 60.8831C14.0652 59.1375 12.6361 57.7224 10.8732 57.7224C9.11027 57.7224 7.68115 59.1375 7.68115 60.8831C7.68115 62.6286 9.11027 64.0437 10.8732 64.0437Z" fill="#F6538A"/>
<path d="M97.3501 14.2975C98.2921 14.2975 99.0557 13.5414 99.0557 12.6087C99.0557 11.676 98.2921 10.9199 97.3501 10.9199C96.4082 10.9199 95.6445 11.676 95.6445 12.6087C95.6445 13.5414 96.4082 14.2975 97.3501 14.2975Z" fill="#008DFF"/>
<path d="M144.058 16.0732C145.048 16.0732 145.851 15.2782 145.851 14.2975C145.851 13.3169 145.048 12.5219 144.058 12.5219C143.068 12.5219 142.265 13.3169 142.265 14.2975C142.265 15.2782 143.068 16.0732 144.058 16.0732Z" fill="#F6538A"/>
<path d="M35.2195 19.8455C36.3631 19.8455 37.2901 18.9276 37.2901 17.7953C37.2901 16.663 36.3631 15.7451 35.2195 15.7451C34.076 15.7451 33.1489 16.663 33.1489 17.7953C33.1489 18.9276 34.076 19.8455 35.2195 19.8455Z" fill="#D4E8E8"/>
</svg>
