<svg width="29" height="34" viewBox="0 0 29 34" fill="none" xmlns="http://www.w3.org/2000/svg">
<path d="M21.25 19.8333C21.25 20.2091 21.1007 20.5694 20.835 20.8351C20.5694 21.1008 20.209 21.25 19.8333 21.25H8.49999C8.12427 21.25 7.76393 21.1008 7.49826 20.8351C7.23258 20.5694 7.08333 20.2091 7.08333 19.8333C7.08333 19.4576 7.23258 19.0973 7.49826 18.8316C7.76393 18.5659 8.12427 18.4167 8.49999 18.4167H19.8333C20.209 18.4167 20.5694 18.5659 20.835 18.8316C21.1007 19.0973 21.25 19.4576 21.25 19.8333ZM15.5833 24.0833H8.49999C8.12427 24.0833 7.76393 24.2326 7.49826 24.4983C7.23258 24.764 7.08333 25.1243 7.08333 25.5C7.08333 25.8757 7.23258 26.2361 7.49826 26.5017C7.76393 26.7674 8.12427 26.9167 8.49999 26.9167H15.5833C15.959 26.9167 16.3194 26.7674 16.5851 26.5017C16.8507 26.2361 17 25.8757 17 25.5C17 25.1243 16.8507 24.764 16.5851 24.4983C16.3194 24.2326 15.959 24.0833 15.5833 24.0833ZM28.3333 14.8538V26.9167C28.3311 28.7946 27.5841 30.595 26.2562 31.9229C24.9283 33.2508 23.1279 33.9977 21.25 34H7.08333C5.2054 33.9977 3.40504 33.2508 2.07714 31.9229C0.749249 30.595 0.00224946 28.7946 0 26.9167V7.08336C0.00224946 5.20543 0.749249 3.40507 2.07714 2.07718C3.40504 0.749281 5.2054 0.00228212 7.08333 3.26523e-05H13.4796C14.7824 -0.00332049 16.0729 0.251615 17.2766 0.750099C18.4802 1.24858 19.5731 1.98073 20.4921 2.9042L25.4277 7.84269C26.3517 8.76103 27.0843 9.85359 27.5831 11.0571C28.0818 12.2606 28.3368 13.551 28.3333 14.8538ZM18.4889 4.90736C18.043 4.47551 17.5425 4.104 17 3.80236V9.91669C17 10.2924 17.1492 10.6527 17.4149 10.9184C17.6806 11.1841 18.0409 11.3334 18.4166 11.3334H24.531C24.2292 10.791 23.8572 10.2909 23.4246 9.84586L18.4889 4.90736ZM25.5 14.8538C25.5 14.62 25.4546 14.3962 25.4334 14.1667H18.4166C17.2895 14.1667 16.2085 13.7189 15.4114 12.9219C14.6144 12.1249 14.1667 11.0439 14.1667 9.91669V2.89995C13.9372 2.8787 13.7119 2.83336 13.4796 2.83336H7.08333C5.95616 2.83336 4.87515 3.28113 4.07813 4.07816C3.2811 4.87519 2.83333 5.95619 2.83333 7.08336V26.9167C2.83333 28.0438 3.2811 29.1248 4.07813 29.9219C4.87515 30.7189 5.95616 31.1667 7.08333 31.1667H21.25C22.3771 31.1667 23.4582 30.7189 24.2552 29.9219C25.0522 29.1248 25.5 28.0438 25.5 26.9167V14.8538Z" fill="white"/>
</svg>
