<svg width="30" height="26" viewBox="0 0 30 26" fill="none" xmlns="http://www.w3.org/2000/svg">
<path d="M0 8.095V20.5C0 21.8261 0.526784 23.0979 1.46447 24.0355C2.40215 24.9732 3.67392 25.5 5 25.5H25C26.3261 25.5 27.5979 24.9732 28.5355 24.0355C29.4732 23.0979 30 21.8261 30 20.5V5.5C30 4.17392 29.4732 2.90215 28.5355 1.96447C27.5979 1.02678 26.3261 0.5 25 0.5H5C3.67392 0.5 2.40215 1.02678 1.46447 1.96447C0.526784 2.90215 0 4.17392 0 5.5V8.095ZM5 3H25C25.663 3 26.2989 3.26339 26.7678 3.73223C27.2366 4.20107 27.5 4.83696 27.5 5.5V7.35L15 14.08L2.5 7.35V5.5C2.5 4.83696 2.76339 4.20107 3.23223 3.73223C3.70107 3.26339 4.33696 3 5 3ZM2.5 10.19L14.4075 16.6C14.5896 16.698 14.7932 16.7493 15 16.7493C15.2068 16.7493 15.4104 16.698 15.5925 16.6L27.5 10.19V20.5C27.5 21.163 27.2366 21.7989 26.7678 22.2678C26.2989 22.7366 25.663 23 25 23H5C4.33696 23 3.70107 22.7366 3.23223 22.2678C2.76339 21.7989 2.5 21.163 2.5 20.5V10.19Z" fill="white"/>
</svg>
