<svg width="20" height="20" viewBox="0 0 20 20" fill="none" xmlns="http://www.w3.org/2000/svg">
<rect width="20" height="20" rx="6" fill="#C6D4EE"/>
<path fill-rule="evenodd" clip-rule="evenodd" d="M14.1096 7.10962C14.3635 6.85578 14.3635 6.44422 14.1096 6.19038C13.8558 5.93654 13.4442 5.93654 13.1904 6.19038L10.15 9.23076L7.10962 6.19038C6.85578 5.93654 6.44422 5.93654 6.19038 6.19038C5.93654 6.44422 5.93654 6.85578 6.19038 7.10962L9.23076 10.15L6.19038 13.1904C5.93654 13.4442 5.93654 13.8558 6.19038 14.1096C6.44422 14.3635 6.85578 14.3635 7.10962 14.1096L10.15 11.0692L13.1904 14.1096C13.4442 14.3635 13.8558 14.3635 14.1096 14.1096C14.3635 13.8558 14.3635 13.4442 14.1096 13.1904L11.0692 10.15L14.1096 7.10962Z" fill="white"/>
</svg>
