<svg width="20" height="20" viewBox="0 0 20 20" fill="none" xmlns="http://www.w3.org/2000/svg">
<rect x="0.5" y="0.5" width="19" height="19" rx="5.5" fill="#0875FF"/>
<path d="M13.9759 6.85894C13.9208 6.79781 13.8552 6.74929 13.783 6.71618C13.7107 6.68306 13.6332 6.66602 13.5549 6.66602C13.4767 6.66602 13.3992 6.68306 13.3269 6.71618C13.2546 6.74929 13.1891 6.79781 13.1339 6.85894L8.71641 11.7245L6.86045 9.6765C6.80322 9.61569 6.73566 9.56788 6.66162 9.53578C6.58759 9.50369 6.50853 9.48795 6.42897 9.48947C6.34941 9.49098 6.27089 9.50972 6.19791 9.54461C6.12493 9.5795 6.05892 9.62986 6.00363 9.69281C5.94834 9.75576 5.90487 9.83008 5.87569 9.91151C5.84652 9.99294 5.83221 10.0799 5.83359 10.1674C5.83496 10.2549 5.852 10.3413 5.88372 10.4216C5.91544 10.5018 5.96122 10.5744 6.01845 10.6353L8.29541 13.1398C8.35053 13.2009 8.41611 13.2494 8.48837 13.2825C8.56063 13.3156 8.63813 13.3327 8.71641 13.3327C8.79468 13.3327 8.87219 13.3156 8.94445 13.2825C9.0167 13.2494 9.08228 13.2009 9.13741 13.1398L13.9759 7.81769C14.0361 7.75662 14.0842 7.68249 14.117 7.59999C14.1499 7.51748 14.1668 7.42839 14.1668 7.33832C14.1668 7.24824 14.1499 7.15915 14.117 7.07664C14.0842 6.99414 14.0361 6.92001 13.9759 6.85894Z" fill="white"/>
<rect x="0.5" y="0.5" width="19" height="19" rx="5.5" stroke="#0875FF"/>
</svg>
