<svg width="187" height="186" viewBox="0 0 187 186" fill="none" xmlns="http://www.w3.org/2000/svg">
<g clip-path="url(#clip0_2012_111)">
<path d="M186.5 93.005C186.5 102.474 174.856 109.993 172.077 118.536C169.2 127.391 174.105 140.302 168.742 147.675C163.319 155.125 149.501 154.423 142.05 159.835C134.678 165.199 131.099 178.598 122.244 181.475C113.701 184.255 102.974 175.605 93.4951 175.605C84.0162 175.605 73.2987 184.245 64.7462 181.475C55.8914 178.598 52.3124 165.199 44.9399 159.835C37.4893 154.413 23.6708 155.116 18.2486 147.675C12.885 140.302 17.7903 127.4 14.9135 118.536C12.1341 109.993 0.490234 102.474 0.490234 93.005C0.490234 83.5358 12.1341 76.017 14.9135 67.4743C17.7903 58.6194 12.885 45.7078 18.2486 38.3353C23.6708 30.8847 37.4893 31.5869 44.9399 26.1745C52.3124 20.8109 55.8914 7.41165 64.7462 4.53481C73.289 1.75549 84.0162 10.4055 93.4951 10.4055C102.974 10.4055 113.692 1.76524 122.244 4.53481C131.099 7.41165 134.678 20.8109 142.05 26.1745C149.501 31.5966 163.319 30.8945 168.742 38.3353C174.105 45.7078 169.2 58.6097 172.077 67.4743C174.856 76.017 186.5 83.5358 186.5 93.005Z" fill="#F2E5D7"/>
<path d="M93.505 186.01C84.0358 186.01 76.517 174.366 67.9743 171.587C59.1194 168.71 46.2078 173.615 38.8353 168.251C31.3847 162.829 32.0869 149.011 26.6745 141.56C21.3109 134.188 7.91165 130.609 5.03481 121.754C2.25549 113.211 10.9055 102.484 10.9055 93.0049C10.9055 83.5259 2.26524 72.8085 5.03481 64.256C7.91165 55.4011 21.3109 51.8222 26.6745 44.4496C32.0966 36.9991 31.3945 23.1805 38.8353 17.7584C46.2078 12.3948 59.1097 17.3001 67.9743 14.4232C76.517 11.6439 84.0358 0 93.505 0C102.974 0 110.493 11.6439 119.036 14.4232C127.891 17.3001 140.802 12.3948 148.175 17.7584C155.625 23.1805 154.923 36.9991 160.335 44.4496C165.699 51.8222 179.098 55.4011 181.975 64.256C184.755 72.7987 176.105 83.5259 176.105 93.0049C176.105 102.484 184.745 113.201 181.975 121.754C179.098 130.609 165.699 134.188 160.335 141.56C154.913 149.011 155.616 162.829 148.175 168.251C140.802 173.615 127.9 168.71 119.036 171.587C110.493 174.366 102.974 186.01 93.505 186.01Z" fill="#F5A840"/>
<path d="M93.505 21.4062C53.9606 21.4062 21.9058 53.4611 21.9058 92.9957C21.9058 98.0765 22.4421 103.04 23.4466 107.829C23.5831 108.472 24.0512 108.999 24.6656 109.233L31.7943 111.837C32.4964 112.09 33.2766 111.915 33.8032 111.388L39.4496 105.742C39.908 105.283 40.0933 104.63 39.9665 104.006C38.9328 98.964 38.6012 93.6491 39.0595 88.2172C41.4975 59.7219 66.0433 37.7799 94.6362 38.365C124.292 38.9696 148.155 63.2033 148.155 93.0055C148.155 96.7795 147.775 100.456 147.044 104.006C146.917 104.64 147.102 105.293 147.56 105.751L153.197 111.388C153.724 111.915 154.504 112.09 155.206 111.837L162.335 109.233C162.959 109.009 163.417 108.482 163.554 107.838C164.568 103.06 165.094 98.0863 165.094 93.0055C165.094 53.4708 133.049 21.416 93.505 21.416V21.4062Z" fill="white"/>
<path d="M30.897 91.6973L31.4724 93.4624C31.5406 93.6672 31.7259 93.8037 31.9502 93.8037H33.8031C34.2809 93.8037 34.4857 94.4181 34.0956 94.7009L32.5938 95.7931C32.4183 95.9199 32.35 96.1442 32.4085 96.349L32.9839 98.1141C33.1302 98.5724 32.6036 98.9528 32.2135 98.67L30.7117 97.5777C30.5362 97.451 30.3021 97.451 30.1266 97.5777L28.6248 98.67C28.2347 98.9528 27.7081 98.5724 27.8544 98.1141L28.4297 96.349C28.498 96.1442 28.4297 95.9199 28.2444 95.7931L26.7426 94.7009C26.3526 94.4181 26.5573 93.8037 27.0352 93.8037H28.8881C29.1026 93.8037 29.2977 93.6672 29.3659 93.4624L29.9413 91.6973C30.0876 91.2389 30.741 91.2389 30.8872 91.6973H30.897Z" fill="#F5A840"/>
<path d="M33.1499 72.2715L33.7253 74.0366C33.7935 74.2414 33.9788 74.3779 34.2031 74.3779H36.056C36.5339 74.3779 36.7387 74.9923 36.3486 75.2751L34.8468 76.3673C34.6712 76.4941 34.603 76.7184 34.6615 76.9232L35.2368 78.6883C35.3831 79.1467 34.8565 79.527 34.4664 79.2442L32.9646 78.152C32.7891 78.0252 32.555 78.0252 32.3795 78.152L30.8777 79.2442C30.4876 79.527 29.961 79.1467 30.1073 78.6883L30.6827 76.9232C30.7509 76.7184 30.6827 76.4941 30.4974 76.3673L28.9956 75.2751C28.6055 74.9923 28.8103 74.3779 29.2881 74.3779H31.141C31.3555 74.3779 31.5506 74.2414 31.6189 74.0366L32.1942 72.2715C32.3405 71.8131 32.9939 71.8131 33.1402 72.2715H33.1499Z" fill="#F5A840"/>
<path opacity="0.7" d="M119.504 54.7574L119.933 56.1227C119.981 56.2788 120.128 56.386 120.284 56.386H121.659C122.02 56.386 122.166 56.8639 121.873 57.0784L120.762 57.9171C120.635 58.0146 120.576 58.1902 120.625 58.3462L121.054 59.7115C121.161 60.0625 120.771 60.3648 120.489 60.1405L119.377 59.3019C119.25 59.2044 119.075 59.2044 118.948 59.3019L117.836 60.1405C117.543 60.3551 117.163 60.0625 117.27 59.7115L117.7 58.3462C117.748 58.1902 117.7 58.0146 117.563 57.9171L116.451 57.0784C116.159 56.8639 116.315 56.386 116.666 56.386H118.041C118.197 56.386 118.343 56.2788 118.392 56.1227L118.821 54.7574C118.928 54.4064 119.416 54.4064 119.523 54.7574H119.504Z" fill="#231F20"/>
<path opacity="0.7" d="M68.1887 54.7574L68.6178 56.1227C68.6665 56.2788 68.8128 56.386 68.9688 56.386H70.3439C70.7047 56.386 70.851 56.8639 70.5584 57.0784L69.4467 57.9171C69.3199 58.0146 69.2614 58.1902 69.3102 58.3462L69.7393 59.7115C69.8465 60.0625 69.4564 60.3648 69.1736 60.1405L68.0619 59.3019C67.9351 59.2044 67.7596 59.2044 67.6328 59.3019L66.5211 60.1405C66.2285 60.3551 65.8482 60.0625 65.9555 59.7115L66.3846 58.3462C66.4333 58.1902 66.3846 58.0146 66.248 57.9171L65.1363 57.0784C64.8437 56.8639 64.9998 56.386 65.3508 56.386H66.7259C66.8819 56.386 67.0282 56.2788 67.077 56.1227L67.506 54.7574C67.6133 54.4064 68.1009 54.4064 68.2082 54.7574H68.1887Z" fill="#231F20"/>
<path d="M94.2755 131.106L95.2214 134.002C95.3287 134.344 95.6408 134.568 96.0016 134.568H99.054C99.8439 134.568 100.175 135.582 99.5318 136.05L97.0646 137.845C96.7818 138.05 96.655 138.42 96.772 138.761L97.718 141.658C97.9618 142.409 97.1036 143.033 96.4599 142.575L93.9927 140.78C93.7099 140.575 93.3198 140.575 93.0272 140.78L90.56 142.575C89.9163 143.043 89.0582 142.418 89.302 141.658L90.2479 138.761C90.3552 138.42 90.2382 138.059 89.9554 137.845L87.4881 136.05C86.8445 135.582 87.176 134.568 87.9659 134.568H91.0183C91.3694 134.568 91.6815 134.344 91.7985 134.002L92.7444 131.106C92.9882 130.355 94.0512 130.355 94.295 131.106H94.2755Z" fill="#40403F"/>
<path d="M94.2755 43.8444L95.2214 46.7408C95.3287 47.0821 95.6408 47.3064 96.0016 47.3064H99.054C99.8439 47.3064 100.175 48.3206 99.5318 48.7887L97.0646 50.5831C96.7818 50.7879 96.655 51.1584 96.772 51.4998L97.718 54.3961C97.9618 55.147 97.1036 55.7711 96.4599 55.3128L93.9927 53.5184C93.7099 53.3136 93.3198 53.3136 93.0272 53.5184L90.56 55.3128C89.9163 55.7809 89.0582 55.1568 89.302 54.3961L90.2479 51.4998C90.3552 51.1584 90.2382 50.7976 89.9554 50.5831L87.4881 48.7887C86.8445 48.3206 87.176 47.3064 87.9659 47.3064H91.0183C91.3694 47.3064 91.6815 47.0821 91.7985 46.7408L92.7444 43.8444C92.9882 43.0935 94.0512 43.0935 94.295 43.8444H94.2755Z" fill="#40403F"/>
<path opacity="0.7" d="M119.504 125.791L119.933 127.098C119.981 127.254 120.128 127.351 120.284 127.351H121.659C122.02 127.351 122.166 127.81 121.873 128.015L120.762 128.824C120.635 128.922 120.576 129.087 120.625 129.234L121.054 130.54C121.161 130.882 120.771 131.164 120.489 130.95L119.377 130.141C119.25 130.043 119.075 130.043 118.948 130.141L117.836 130.95C117.543 131.155 117.163 130.882 117.27 130.54L117.7 129.234C117.748 129.078 117.7 128.912 117.563 128.824L116.451 128.015C116.159 127.81 116.315 127.351 116.666 127.351H118.041C118.197 127.351 118.343 127.244 118.392 127.098L118.821 125.791C118.928 125.45 119.416 125.45 119.523 125.791H119.504Z" fill="#231F20"/>
<path opacity="0.7" d="M68.1887 125.791L68.6178 127.098C68.6665 127.254 68.8128 127.351 68.9688 127.351H70.3439C70.7047 127.351 70.851 127.81 70.5584 128.015L69.4467 128.824C69.3199 128.922 69.2614 129.087 69.3102 129.234L69.7393 130.54C69.8465 130.882 69.4564 131.164 69.1736 130.95L68.0619 130.141C67.9351 130.043 67.7596 130.043 67.6328 130.141L66.5211 130.95C66.2285 131.155 65.8482 130.882 65.9555 130.54L66.3846 129.234C66.4333 129.078 66.3846 128.912 66.248 128.824L65.1363 128.015C64.8437 127.81 64.9998 127.351 65.3508 127.351H66.7259C66.8819 127.351 67.0282 127.244 67.077 127.098L67.506 125.791C67.6133 125.45 68.1009 125.45 68.2082 125.791H68.1887Z" fill="#231F20"/>
<path d="M156.279 91.6973L155.703 93.4624C155.635 93.6672 155.45 93.8037 155.225 93.8037H153.373C152.895 93.8037 152.69 94.4181 153.08 94.7009L154.582 95.7931C154.757 95.9199 154.826 96.1442 154.767 96.349L154.192 98.1141C154.045 98.5724 154.572 98.9528 154.962 98.67L156.464 97.5777C156.64 97.451 156.874 97.451 157.049 97.5777L158.551 98.67C158.941 98.9528 159.468 98.5724 159.321 98.1141L158.746 96.349C158.678 96.1442 158.746 95.9199 158.931 95.7931L160.433 94.7009C160.823 94.4181 160.618 93.8037 160.14 93.8037H158.288C158.073 93.8037 157.878 93.6672 157.81 93.4624L157.234 91.6973C157.088 91.2389 156.435 91.2389 156.288 91.6973H156.279Z" fill="#F5A840"/>
<path d="M153.87 72.2715L153.295 74.0366C153.226 74.2414 153.041 74.3779 152.817 74.3779H150.964C150.486 74.3779 150.281 74.9923 150.671 75.2751L152.173 76.3673C152.349 76.4941 152.417 76.7184 152.358 76.9232L151.783 78.6883C151.637 79.1467 152.163 79.527 152.553 79.2442L154.055 78.152C154.231 78.0252 154.465 78.0252 154.64 78.152L156.142 79.2442C156.532 79.527 157.059 79.1467 156.913 78.6883L156.337 76.9232C156.269 76.7184 156.337 76.4941 156.523 76.3673L158.024 75.2751C158.414 74.9923 158.21 74.3779 157.732 74.3779H155.879C155.664 74.3779 155.469 74.2414 155.401 74.0366L154.826 72.2715C154.679 71.8131 154.026 71.8131 153.88 72.2715H153.87Z" fill="#F5A840"/>
<path d="M55.716 40.6383L55.6868 40.6578L55.9306 41.8866L56.4084 44.939L53.6096 43.7005L52.4101 43.1056L52.3809 43.1251L55.4917 47.1527L54.2532 48.1084L49.582 42.0621L50.9766 40.9797L54.6433 42.6668H54.6628L53.9412 38.6879L55.3455 37.6055L60.0167 43.6517L58.7782 44.6074L55.716 40.6383Z" fill="#40403F"/>
<path d="M65.7802 40.4627C65.3316 40.6968 64.8927 40.843 64.4441 40.882C63.9955 40.9308 63.5665 40.882 63.1569 40.7163C62.7473 40.5505 62.3475 40.2969 61.9769 39.9361C61.6063 39.5753 61.265 39.1072 60.9627 38.5318C60.6604 37.9564 60.4653 37.4201 60.3775 36.9032C60.2898 36.3961 60.2995 35.928 60.397 35.4892C60.5043 35.0601 60.6994 34.67 60.9822 34.3287C61.2747 33.9874 61.6356 33.6948 62.0841 33.4608C62.5327 33.2267 62.9716 33.0804 63.4202 33.0414C63.8688 32.9927 64.2978 33.0414 64.7074 33.2072C65.117 33.3632 65.5169 33.6265 65.8874 33.9874C66.258 34.3482 66.5993 34.8163 66.9016 35.3917C67.2039 35.967 67.399 36.5034 67.4868 37.0202C67.5745 37.5273 67.5648 38.0052 67.4673 38.4343C67.36 38.8634 67.1649 39.2535 66.8821 39.5948C66.5896 39.9361 66.2288 40.2287 65.7802 40.4627ZM65.0878 39.1559C65.5364 38.9219 65.7997 38.5903 65.8972 38.171C65.9947 37.7516 65.8972 37.264 65.6144 36.7277L65.078 35.7232C64.7952 35.1771 64.4441 34.826 64.0443 34.67C63.6445 34.514 63.2154 34.553 62.7765 34.787C62.3377 35.0211 62.0646 35.3527 61.9671 35.772C61.8696 36.1913 61.9671 36.6789 62.2499 37.2153L62.7863 38.2197C63.0691 38.7659 63.4202 39.1169 63.82 39.273C64.2198 39.429 64.6489 39.39 65.0878 39.1559Z" fill="#40403F"/>
<path d="M72.7822 33.3426L71.6023 32.1236H71.573L73.2016 37.0093L71.7193 37.5067L69.3008 30.2609L71.0269 29.6856L74.1475 32.4551L75.3275 33.6741H75.3568L73.7282 28.7884L75.2105 28.291L77.629 35.5368L75.9029 36.1121L72.7822 33.3426Z" fill="#40403F"/>
<path d="M81.11 34.7187L79.8423 27.1804L84.9718 26.3223L85.2156 27.7753L81.7342 28.3604L81.9877 29.8915L84.9816 29.3844L85.2254 30.8374L82.2315 31.3445L82.5046 32.9731L85.9861 32.388L86.2299 33.8411L81.1003 34.6992L81.11 34.7187Z" fill="#40403F"/>
<path d="M91.4571 33.5087L91.3986 30.5246L88.6875 25.9217L90.5501 25.8827L92.247 28.896H92.2665L93.778 25.8242L95.5822 25.7852L93.0564 30.4759L93.1149 33.4795L91.4376 33.5087H91.4571Z" fill="#40403F"/>
<path d="M104.759 26.7207L108.387 27.4911C109.011 27.6276 109.45 27.9007 109.723 28.32C109.996 28.7394 110.074 29.2465 109.947 29.8218C109.889 30.1046 109.801 30.3387 109.684 30.524C109.567 30.7093 109.43 30.8458 109.274 30.9531C109.118 31.0506 108.952 31.1189 108.777 31.1481C108.592 31.1774 108.406 31.1676 108.211 31.1384V31.2066C108.377 31.2456 108.553 31.3139 108.738 31.4212C108.923 31.5284 109.079 31.665 109.216 31.8405C109.352 32.016 109.45 32.2208 109.508 32.4646C109.567 32.7084 109.567 32.9912 109.508 33.3131C109.45 33.6056 109.342 33.8689 109.186 34.1127C109.03 34.3565 108.855 34.5516 108.64 34.7076C108.426 34.8636 108.192 34.9709 107.928 35.0294C107.665 35.0879 107.402 35.0879 107.119 35.0294L103.16 34.1907L104.749 26.7207H104.759ZM105.091 33.1668L106.963 33.5666C107.177 33.6154 107.363 33.5861 107.509 33.4983C107.655 33.4106 107.753 33.2545 107.802 33.04L107.88 32.6792C107.928 32.4646 107.899 32.2891 107.802 32.1428C107.704 31.9965 107.548 31.899 107.334 31.86L105.461 31.4602L105.1 33.1765L105.091 33.1668ZM105.734 30.1242L107.353 30.4655C107.568 30.5142 107.753 30.485 107.899 30.3875C108.045 30.2899 108.143 30.1339 108.192 29.9194L108.26 29.5975C108.309 29.383 108.279 29.1977 108.182 29.0514C108.084 28.9052 107.928 28.8076 107.714 28.7589L106.095 28.4176L105.734 30.1047V30.1242Z" fill="#40403F"/>
<path d="M116.344 37.9945L116.481 36.1026L114.101 35.1957L112.941 36.6975L111.361 36.0928L116.432 29.8516L118.353 30.583L117.953 38.6089L116.334 37.9945H116.344ZM116.841 31.6264L116.793 31.6069L114.969 34.0157L116.607 34.6398L116.841 31.6264Z" fill="#40403F"/>
<path d="M122.946 41.418C122.498 41.1645 122.127 40.8622 121.844 40.5111C121.562 40.16 121.376 39.7797 121.279 39.3506C121.181 38.9215 121.181 38.4632 121.279 37.9561C121.376 37.4587 121.591 36.9223 121.903 36.3567C122.215 35.8009 122.566 35.3425 122.956 34.9817C123.346 34.6209 123.746 34.3673 124.165 34.221C124.585 34.065 125.023 34.0163 125.472 34.065C125.921 34.1138 126.369 34.2698 126.818 34.5234C127.432 34.8744 127.871 35.284 128.134 35.7619C128.388 36.2397 128.495 36.8151 128.427 37.488L126.808 37.4295C126.876 37.0979 126.867 36.7956 126.769 36.5225C126.672 36.2495 126.447 36.0057 126.086 35.8009C125.657 35.5571 125.238 35.5083 124.828 35.6351C124.419 35.7619 124.058 36.0934 123.765 36.62L123.161 37.683C122.868 38.2096 122.761 38.6875 122.868 39.1068C122.966 39.5261 123.229 39.8577 123.658 40.1015C124.019 40.3063 124.351 40.3648 124.672 40.2965C124.994 40.2185 125.287 40.082 125.54 39.8577L126.33 41.2132C125.794 41.5838 125.248 41.7886 124.692 41.8374C124.136 41.8861 123.541 41.7398 122.927 41.3888L122.946 41.418Z" fill="#40403F"/>
<path d="M132.211 43.4851L130.68 43.807L129.363 45.4746L128.057 44.4408L132.796 38.4434L134.103 39.4771L131.85 42.3247L131.899 42.3637L133.664 41.8761L136.346 41.2519L137.818 42.4222L133.849 43.2901L133.254 48.5562L131.714 47.3372L132.191 43.4754L132.211 43.4851Z" fill="#40403F"/>
<path d="M52.8295 144.963L52.7807 144.924C52.4492 145.226 52.0298 145.363 51.552 145.343C51.0644 145.324 50.567 145.1 50.0599 144.67C49.6698 144.349 49.3773 143.968 49.1627 143.549C48.9482 143.12 48.8409 142.662 48.8312 142.154C48.8214 141.647 48.9287 141.13 49.1432 140.584C49.3578 140.038 49.7089 139.473 50.177 138.907C50.645 138.341 51.1424 137.903 51.6593 137.581C52.1761 137.269 52.6832 137.074 53.2001 136.996C53.7169 136.918 54.224 136.966 54.7214 137.122C55.2285 137.278 55.7063 137.551 56.1647 137.932C56.7693 138.439 57.1789 139.004 57.4032 139.629C57.6275 140.253 57.6372 140.935 57.4617 141.667L55.6966 141.355C55.8136 141.004 55.8429 140.643 55.7746 140.282C55.7063 139.911 55.482 139.57 55.0822 139.239C54.6239 138.858 54.1558 138.683 53.6584 138.722C53.1611 138.761 52.6832 139.063 52.2151 139.629L51.3082 140.711C50.8401 141.267 50.6353 141.803 50.6743 142.291C50.7231 142.788 50.9766 143.217 51.435 143.598C51.6105 143.744 51.8055 143.871 52.0006 143.959C52.1956 144.046 52.3907 144.105 52.5857 144.124C52.7807 144.144 52.966 144.115 53.1318 144.046C53.2976 143.978 53.4536 143.861 53.5999 143.695L53.8827 143.354L52.6247 142.31L53.6487 141.082L56.3012 143.295L53.1708 147.05L51.9323 146.016L52.8295 144.943V144.963Z" fill="#40403F"/>
<path d="M63.4882 143.325L60.8552 148.016C60.5529 148.552 60.4261 149.02 60.4944 149.41C60.5529 149.8 60.8357 150.132 61.333 150.405C61.8304 150.688 62.2595 150.746 62.6203 150.6C62.9811 150.454 63.3127 150.112 63.615 149.566L66.2481 144.875L67.8669 145.782L65.3314 150.298C65.0193 150.863 64.6877 151.322 64.3464 151.673C64.0051 152.024 63.6443 152.267 63.2542 152.404C62.8641 152.531 62.4448 152.56 61.9864 152.472C61.5378 152.385 61.0307 152.189 60.4846 151.877C59.9385 151.565 59.5094 151.244 59.1974 150.902C58.8853 150.561 58.6903 150.19 58.5927 149.79C58.505 149.391 58.5147 148.952 58.6415 148.474C58.7683 148.006 58.9926 147.479 59.3046 146.923L61.8402 142.408L63.459 143.315L63.4882 143.325Z" fill="#40403F"/>
<path d="M73.3088 157.299L73.3966 155.125L70.627 154.159L69.3495 155.924L67.5161 155.291L73.1333 147.947L75.3665 148.727L75.1812 157.963L73.2991 157.309L73.3088 157.299ZM73.6599 149.966L73.6014 149.946L71.5925 152.775L73.4941 153.438L73.6599 149.966Z" fill="#40403F"/>
<path d="M81.6858 159.327L79.7939 159.035L81.1495 150.355L85.2648 150.999C85.6647 151.058 86.0157 151.184 86.318 151.37C86.6204 151.555 86.8642 151.779 87.0592 152.062C87.2445 152.345 87.381 152.667 87.4493 153.018C87.5175 153.369 87.5273 153.759 87.459 154.178C87.3713 154.763 87.1567 155.261 86.8251 155.661C86.4936 156.06 86.0547 156.314 85.4891 156.431L86.6594 160.098L84.5627 159.766L83.5387 156.343L82.1832 156.129L81.6858 159.308V159.327ZM84.4164 154.861C84.6992 154.91 84.9333 154.861 85.1185 154.744C85.3038 154.627 85.4209 154.422 85.4599 154.139L85.5476 153.593C85.5964 153.31 85.5476 153.086 85.4013 152.911C85.2648 152.745 85.0503 152.637 84.7675 152.589L82.7781 152.277L82.427 154.539L84.4164 154.851V154.861Z" fill="#40403F"/>
<path d="M97.0842 160.285L96.4113 158.207L93.476 158.276L92.8908 160.382L90.9502 160.421L93.6515 151.576L96.0115 151.527L99.0639 160.246L97.0745 160.294L97.0842 160.285ZM94.851 153.292H94.7925L93.8953 156.647L95.9042 156.598L94.851 153.292Z" fill="#40403F"/>
<path d="M105.539 155.057L104.359 153.506H104.32L105.519 159.299L103.754 159.67L101.97 151.068L104.018 150.639L107.216 154.218L108.396 155.769H108.435L107.236 149.976L109.001 149.605L110.786 158.207L108.738 158.636L105.539 155.057Z" fill="#40403F"/>
<path d="M116.734 148.629L119.367 155.202L117.592 155.914L114.969 149.341L112.765 150.229L112.131 148.649L118.324 146.172L118.958 147.752L116.754 148.629H116.734Z" fill="#40403F"/>
<path d="M125.765 152.2L121.23 144.681L126.35 141.6L127.227 143.053L123.746 145.149L124.672 146.68L127.657 144.886L128.534 146.339L125.55 148.133L126.525 149.762L130.007 147.665L130.884 149.118L125.765 152.2Z" fill="#40403F"/>
<path d="M134.98 146.134L129.285 139.454L133.83 135.582L134.932 136.879L131.84 139.512L133.001 140.868L135.653 138.605L136.755 139.902L134.103 142.165L135.331 143.608L138.423 140.975L139.525 142.272L134.98 146.143V146.134Z" fill="#40403F"/>
<path d="M102.564 85.2051H106.27C107.479 85.2051 108.377 85.5269 108.981 86.1803C109.586 86.8337 109.888 87.7796 109.888 89.0279V96.8392C109.888 98.0875 109.586 99.0334 108.981 99.6868C108.377 100.33 107.47 100.662 106.27 100.662H102.564V85.2246V85.2051ZM106.221 98.4385C106.621 98.4385 106.924 98.3215 107.138 98.0875C107.353 97.8534 107.46 97.4731 107.46 96.9367V88.9108C107.46 88.3842 107.353 88.0039 107.138 87.7601C106.924 87.5261 106.621 87.409 106.221 87.409H104.983V98.4385H106.221Z" fill="#40403F"/>
<path d="M113.35 85.2051H116.636L119.152 100.643H116.724L116.285 97.5804V97.6194H113.526L113.087 100.643H110.834L113.35 85.2051ZM115.993 95.5227L114.91 87.8966H114.862L113.799 95.5227H115.983H115.993Z" fill="#40403F"/>
<path d="M121.532 94.0697L118.597 85.2051H121.181L122.839 90.871H122.878L124.536 85.2051H126.896L123.96 94.0697V100.643H121.532V94.0697Z" fill="#40403F"/>
<path d="M128.124 99.8621C127.52 99.1989 127.217 98.2335 127.217 96.9852V96.1075H129.509V97.1705C129.509 98.175 129.928 98.6723 130.767 98.6723C131.177 98.6723 131.489 98.5553 131.703 98.3115C131.918 98.0677 132.025 97.6776 132.025 97.1315C132.025 96.4879 131.879 95.9125 131.586 95.4249C131.294 94.9373 130.748 94.3424 129.958 93.65C128.953 92.7724 128.261 91.9727 127.861 91.2608C127.461 90.5489 127.266 89.7395 127.266 88.8423C127.266 87.6233 127.578 86.6773 128.192 86.0045C128.807 85.3316 129.704 85 130.884 85C132.064 85 132.922 85.3316 133.517 86.0045C134.112 86.6773 134.405 87.633 134.405 88.8813V89.5249H132.113V88.7253C132.113 88.1987 132.006 87.8086 131.801 87.5648C131.596 87.321 131.294 87.204 130.894 87.204C130.084 87.204 129.685 87.7013 129.685 88.6863C129.685 89.2421 129.831 89.7687 130.133 90.2563C130.435 90.7439 130.982 91.3291 131.771 92.0214C132.786 92.8991 133.488 93.7085 133.868 94.4204C134.248 95.1421 134.444 95.9905 134.444 96.956C134.444 98.2237 134.131 99.1892 133.507 99.8621C132.883 100.535 131.976 100.876 130.787 100.876C129.597 100.876 128.719 100.545 128.114 99.8718L128.124 99.8621Z" fill="#40403F"/>
<path d="M61.3666 81.5859H55V77.0817C56.7347 77.0817 58.1187 76.9277 59.1522 76.6197C60.2225 76.3117 61.0714 75.8113 61.6988 75.1183C62.3262 74.3869 62.8799 73.3474 63.3597 72H67.4565V112.423H61.3666V81.5859Z" fill="#40403F"/>
<path d="M83.9206 113C80.968 113 78.7166 112.134 77.1664 110.401C75.6163 108.631 74.8412 106.109 74.8412 102.837V99.6606H80.5989V103.299C80.5989 105.916 81.6508 107.225 83.7545 107.225C85.8583 107.225 86.9102 105.916 86.9102 103.299V94.2324C86.9102 91.5761 85.8583 90.2479 83.7545 90.2479C81.6508 90.2479 80.5989 91.5761 80.5989 94.2324V94.5789H74.8412L75.9485 72H92.0035V77.7746H81.374L80.8757 87.4183H80.9864C82.1306 85.4549 83.8837 84.4732 86.2458 84.4732C88.4603 84.4732 90.1396 85.2624 91.2838 86.8408C92.4279 88.4193 93 90.7099 93 93.7127V102.837C93 106.109 92.2249 108.631 90.6748 110.401C89.1247 112.134 86.8733 113 83.9206 113Z" fill="#40403F"/>
</g>
<defs>
<clipPath id="clip0_2012_111">
<rect width="186" height="186" fill="white" transform="translate(0.5)"/>
</clipPath>
</defs>
</svg>
