<svg width="22" height="18" viewBox="0 0 22 18" fill="none" xmlns="http://www.w3.org/2000/svg">
<g clip-path="url(#clip0_874_3796)">
<path d="M22 10.2008C21.8733 7.47728 20.6602 4.90576 18.6133 3.02162C16.5663 1.13748 13.8432 0.0859375 11.011 0.0859375C8.17874 0.0859375 5.45564 1.13748 3.40867 3.02162C1.36169 4.90576 0.148602 7.47728 0.0219727 10.2008V16.4108C0.0219727 16.832 0.195811 17.236 0.505246 17.5338C0.814681 17.8317 1.23437 17.999 1.67197 17.999H3.07447C4.01174 17.9941 4.90883 17.6321 5.56952 16.9922C6.23021 16.3522 6.60071 15.4865 6.59997 14.5843V13.6128C6.59997 13.1645 6.50819 12.7206 6.32988 12.3065C6.15157 11.8923 5.89022 11.5161 5.56077 11.1992C5.23132 10.8823 4.84022 10.6311 4.40983 10.4597C3.97945 10.2884 3.51821 10.2004 3.05247 10.2008H2.19997C2.31282 8.03025 3.28805 5.98451 4.92394 4.48669C6.55983 2.98887 8.73122 2.15358 10.989 2.15358C13.2467 2.15358 15.4181 2.98887 17.054 4.48669C18.6899 5.98451 19.6651 8.03025 19.778 10.2008H18.9475C18.4817 10.2004 18.0205 10.2884 17.5901 10.4597C17.1597 10.6311 16.7686 10.8823 16.4392 11.1992C16.1097 11.5161 15.8484 11.8923 15.6701 12.3065C15.4917 12.7206 15.4 13.1645 15.4 13.6128V14.5843C15.3996 15.0328 15.4911 15.477 15.6693 15.8915C15.8474 16.3059 16.1087 16.6825 16.4382 16.9996C16.7677 17.3168 17.1589 17.5683 17.5895 17.7398C18.02 17.9113 18.4815 17.9994 18.9475 17.999H20.35C20.7876 17.999 21.2073 17.8317 21.5167 17.5338C21.8261 17.236 22 16.832 22 16.4108V10.2008ZM4.39997 13.6128V14.5843C4.39925 14.9281 4.25704 15.2576 4.0045 15.5007C3.75195 15.7438 3.40963 15.8807 3.05247 15.8814H2.19997V12.3184H3.05247C3.40938 12.3184 3.7517 12.4547 4.00433 12.6974C4.25695 12.9401 4.39924 13.2693 4.39997 13.6128ZM19.8 15.8814H18.9475C18.5903 15.8807 18.248 15.7438 17.9954 15.5007C17.7429 15.2576 17.6007 14.9281 17.6 14.5843V13.6128C17.6007 13.2693 17.743 12.9401 17.9956 12.6974C18.2482 12.4547 18.5906 12.3184 18.9475 12.3184H19.8V15.8814Z" fill="white"/>
</g>
<defs>
<clipPath id="clip0_874_3796">
<rect width="22" height="18" fill="white"/>
</clipPath>
</defs>
</svg>
