<svg xmlns="http://www.w3.org/2000/svg" width="152" height="26" viewBox="0 0 152 26" fill="none">
<g clip-path="url(#clip0_119_11)">
<g clip-path="url(#clip1_119_11)">
<path fill-rule="evenodd" clip-rule="evenodd" d="M6.32428 20.6203C5.93619 20.6203 5.62158 20.3057 5.62158 19.9176L5.62158 17.1068C5.62158 16.7187 5.93619 16.4041 6.32429 16.4041L8.43239 16.4041C8.82048 16.4041 9.1351 16.7187 9.1351 17.1068L9.1351 19.9176C9.1351 20.3057 8.82048 20.6203 8.43239 20.6203L6.32428 20.6203Z" fill="#1B49F6"/>
<path fill-rule="evenodd" clip-rule="evenodd" d="M11.5945 20.6203C11.2065 20.6203 10.8918 20.3057 10.8918 19.9176L10.8918 13.2419C10.8918 12.8539 11.2065 12.5392 11.5945 12.5392L13.7027 12.5392C14.0907 12.5392 14.4054 12.8539 14.4054 13.2419L14.4054 19.9176C14.4054 20.3057 14.0907 20.6203 13.7027 20.6203L11.5945 20.6203Z" fill="#1B49F6"/>
<path fill-rule="evenodd" clip-rule="evenodd" d="M16.8648 20.6203C16.4767 20.6203 16.1621 20.3057 16.1621 19.9176L16.1621 9.7284C16.1621 9.34031 16.4767 9.0257 16.8648 9.0257L18.9729 9.0257C19.361 9.0257 19.6756 9.34031 19.6756 9.7284L19.6756 19.9176C19.6756 20.3057 19.361 20.6203 18.9729 20.6203L16.8648 20.6203Z" fill="#1B49F6"/>
<path fill-rule="evenodd" clip-rule="evenodd" d="M3.51351 4.56757C3.51351 3.98543 3.98543 3.51351 4.56757 3.51351H18.4227C18.5461 3.51351 18.6605 3.44876 18.724 3.34293L20.4105 0.53212C20.551 0.297936 20.3823 0 20.1092 0H4.56757C2.04497 0 0 2.04497 0 4.56757V21.4324C0 23.955 2.04497 26 4.56757 26H20.7297C23.2523 26 25.2973 23.955 25.2973 21.4324V7.02703H26.9993C27.2664 7.02703 27.4359 6.74068 27.3073 6.50653L23.8485 0.209336C23.7151 -0.0336056 23.366 -0.0336056 23.2326 0.209336L19.7739 6.50653C19.6453 6.74068 19.8147 7.02703 20.0818 7.02703H21.7838V21.4324C21.7838 22.0146 21.3119 22.4865 20.7297 22.4865H4.56757C3.98543 22.4865 3.51351 22.0146 3.51351 21.4324V4.56757Z" fill="url(#paint0_linear_119_11)"/>
</g>
<path d="M34.4324 17.592L36.9525 15.9888C37.703 17.4898 38.912 18.1352 40.1823 18.1352C41.5372 18.1352 42.3695 17.4694 42.3695 16.4678C42.3695 15.0106 40.8276 14.5521 39.0375 14.0936C36.789 13.5096 35.3493 12.1984 35.3493 9.99075C35.3493 7.36548 37.411 5.63672 40.4947 5.63672C42.7666 5.63672 44.2238 6.63543 45.3072 8.34375L42.8075 9.88562C42.0979 8.76134 41.4321 8.23862 40.3487 8.23862C39.1806 8.23862 38.3279 8.86355 38.3279 9.84181C38.3279 10.9252 39.3704 11.2786 40.6407 11.6757C42.349 12.2159 45.3481 12.9664 45.3481 16.3013C45.3481 18.947 43.3273 20.7371 40.0158 20.7371C37.703 20.7371 35.7027 19.8202 34.4324 17.592Z" fill="#030013"/>
<path d="M47.2258 17.1131V12.029H45.7043V9.63447H47.2258V7.44723L50.0379 7.15521V9.63447H52.3303V12.029H50.0379V16.9671C50.0379 17.6534 50.3708 17.9658 50.914 17.9658H52.0792V20.4655H50.5373C48.3909 20.4655 47.2258 19.4668 47.2258 17.1131Z" fill="#030013"/>
<path d="M52.5581 15.0719C52.5581 11.9472 54.9731 9.38623 58.3284 9.38623C61.6837 9.38623 64.0988 11.9472 64.0988 15.0719C64.0988 18.1965 61.6837 20.7371 58.3284 20.7371C54.9731 20.7371 52.5581 18.1965 52.5581 15.0719ZM58.3284 18.176C60.1185 18.176 61.2866 16.7597 61.2866 15.0719C61.2866 13.384 60.1214 11.9472 58.3284 11.9472C56.5354 11.9472 55.3703 13.384 55.3703 15.0719C55.3703 16.7597 56.5354 18.176 58.3284 18.176Z" fill="#030013"/>
<path d="M65.3486 9.63444H68.0761V11.6961C68.4499 10.1338 69.5537 9.2811 71.4285 9.3833V12.029H71.0313C69.4077 12.029 68.1579 13.1124 68.1579 14.9259V20.4684H65.3457V9.63736L65.3486 9.63444Z" fill="#030013"/>
<path d="M71.4314 15.0719C71.4314 11.9473 73.7851 9.36292 77.0353 9.36292C80.2854 9.36292 82.534 11.9473 82.534 15.0719C82.534 15.3844 82.5136 15.7173 82.4493 16.0706H74.3457C74.6582 17.3409 75.616 18.2374 77.0323 18.2374C78.2413 18.2374 79.1787 17.6125 79.678 16.7802L81.8653 18.4272C80.9892 19.7822 79.1787 20.74 77.0323 20.74C73.6799 20.74 71.4285 18.1995 71.4285 15.0748L71.4314 15.0719ZM79.7014 13.9681C79.3889 12.7591 78.3669 11.7808 76.9944 11.7808C75.6219 11.7808 74.6611 12.6773 74.3487 13.9681H79.7014Z" fill="#030013"/>
<path d="M83.4539 13.1971C83.4539 9.00954 86.7245 5.61334 91.0581 5.61334C93.5373 5.61334 95.2048 6.42516 96.4108 7.9057L94.3287 9.69871C93.5373 8.84601 92.413 8.32329 91.0581 8.32329C88.2459 8.32329 86.4763 10.531 86.4763 13.1971C86.4763 15.8633 88.2459 18.0709 91.0581 18.0709C93.3709 18.0709 94.8281 16.9875 95.161 14.7185L90.3689 14.7594V12.1342H97.9731C98.0344 12.5722 98.0782 13.3022 98.0782 13.7578C98.0782 17.7994 95.4325 20.7371 91.0581 20.7371C86.6836 20.7371 83.4539 17.3613 83.4539 13.1971Z" fill="#030013"/>
<path d="M99.4333 9.63444H102.161V11.6961C102.535 10.1338 103.638 9.2811 105.516 9.3833V12.029H105.119C103.495 12.029 102.246 13.1124 102.246 14.9259V20.4684H99.4333V9.63736V9.63444Z" fill="#030013"/>
<path d="M105.516 15.0719C105.516 11.9472 107.931 9.38623 111.286 9.38623C114.642 9.38623 117.057 11.9472 117.057 15.0719C117.057 18.1965 114.639 20.7371 111.286 20.7371C107.934 20.7371 105.516 18.1965 105.516 15.0719ZM111.286 18.176C113.077 18.176 114.245 16.7597 114.245 15.0719C114.245 13.384 113.077 11.9472 111.286 11.9472C109.496 11.9472 108.328 13.384 108.328 15.0719C108.328 16.7597 109.496 18.176 111.286 18.176Z" fill="#030013"/>
<path d="M116.785 9.63446H120.076L121.472 15.7786C121.598 16.2984 121.723 16.8824 121.805 17.4256C121.89 16.8853 122.012 16.2808 122.158 15.7581L123.741 9.63446H126.971L128.659 15.7581C128.805 16.2779 128.93 16.8824 129.012 17.4256C129.097 16.8853 129.219 16.3013 129.345 15.7786L130.846 9.63446H133.909L130.533 20.4655H127.491L125.721 14.298C125.555 13.7782 125.429 13.2146 125.347 12.6744C125.263 13.2146 125.16 13.7782 125.014 14.298L123.391 20.4655H120.161L116.785 9.63446Z" fill="#030013"/>
<path d="M135.536 17.1131V12.029H134.014V9.63447H135.536V7.44723L138.348 7.15521V9.63447H140.64V12.029H138.348V16.9671C138.348 17.6534 138.681 17.9658 139.224 17.9658H140.392V20.4655H138.85C136.704 20.4655 135.539 19.4668 135.539 17.1131H135.536Z" fill="#030013"/>
<path d="M141.578 5.26001H144.39V11.1355C144.974 9.9703 146.037 9.38626 147.66 9.38626C149.994 9.38626 151.784 11.115 151.784 13.8454V20.4684H148.972V14.5317C148.972 12.6569 148.034 11.8451 146.638 11.8451C145.45 11.8451 144.39 12.6569 144.39 14.5317V20.4684H141.578V5.26293V5.26001Z" fill="#030013"/>
</g>
<defs>
<linearGradient id="paint0_linear_119_11" x1="2.50807" y1="0.702702" x2="22.2766" y2="26.9434" gradientUnits="userSpaceOnUse">
<stop stop-color="#1B4BF6"/>
<stop offset="1" stop-color="#00E9F8"/>
</linearGradient>
<clipPath id="clip0_119_11">
<rect width="151.784" height="26" fill="white"/>
</clipPath>
<clipPath id="clip1_119_11">
<rect width="27.4054" height="26" fill="white"/>
</clipPath>
</defs>
</svg>
