<?xml version="1.0" encoding="utf-8"?>
<!-- Generator: Adobe Illustrator 26.0.3, SVG Export Plug-In . SVG Version: 6.00 Build 0)  -->
<svg version="1.1" id="Layer_1" xmlns="http://www.w3.org/2000/svg" xmlns:xlink="http://www.w3.org/1999/xlink" x="0px" y="0px"
	 viewBox="0 0 1505.35 234.36" style="enable-background:new 0 0 1505.35 234.36;" xml:space="preserve">
<g>
	<g>
		<path fill="#1D9BFF" d="M59.63,117.33H0c0,43.77,24.04,81.9,59.63,101.98c16.44,9.27,35.33,14.68,55.47,15.01V117.33H59.63z"/>
		<path fill="#0875FF" d="M115.09,56.62H59.63v60.71h55.47v116.98c0.65,0.01,1.29,0.05,1.94,0.05c20.92,0,40.55-5.52,57.55-15.14
			V117.33V56.62H115.09z"/>
		<path fill="#1B49F6" d="M119.26,0v56.62h55.32v60.71v101.89c35.5-20.1,59.48-58.18,59.48-101.89V0H119.26z"/>
	</g>
	<g>
		<g>
			<path fill="#102F50" d="M384.04,123.85c-4.35-3.51-9.18-6.39-14.34-8.54c-6.21-2.61-12.66-4.61-19.26-6
				c-4.48-0.86-8.88-2.08-13.17-3.62c-3.15-1.09-6.1-2.67-8.75-4.68c-2.05-1.63-3.7-3.72-4.81-6.09c-1.07-2.39-1.6-4.97-1.57-7.58
				c-0.06-3.57,1.07-7.07,3.24-9.92c2.34-2.95,5.43-5.21,8.94-6.57c4.26-1.65,8.8-2.46,13.36-2.36c4.3-0.03,8.56,0.74,12.58,2.25
				c3.98,1.54,7.64,3.8,10.8,6.68c3.47,3.2,6.44,6.89,8.85,10.94l14.92-14.73c-2.91-5.11-6.78-9.62-11.4-13.26
				c-4.68-3.67-10.01-6.43-15.7-8.15c-6.3-1.9-12.87-2.82-19.45-2.74c-6.33-0.05-12.63,0.9-18.66,2.84
				c-5.46,1.74-10.56,4.48-15.04,8.06c-4.15,3.35-7.56,7.53-10.01,12.28c-2.43,4.75-3.68,10-3.64,15.32
				c-0.07,5.19,0.79,10.36,2.56,15.24c1.71,4.54,4.37,8.66,7.81,12.09c3.85,3.74,8.35,6.74,13.28,8.85
				c5.92,2.58,12.11,4.48,18.46,5.69c3.99,0.68,7.93,1.63,11.79,2.86c3.11,0.98,6.1,2.25,8.94,3.82c2.3,1.26,4.39,2.84,6.24,4.68
				c1.59,1.64,2.81,3.57,3.62,5.7c0.8,2.14,1.2,4.4,1.18,6.69c0.01,3.45-1.25,6.79-3.54,9.37c-2.61,2.94-5.92,5.17-9.62,6.48
				c-4.34,1.63-8.93,2.43-13.56,2.36c-7.35,0.2-14.63-1.63-21.02-5.29c-5.88-3.54-12.04-9.9-18.46-19.06l-14.54,16.69
				c3.81,5.64,8.49,10.65,13.86,14.84c5.17,4,11.03,7.02,17.28,8.93c6.72,2.03,13.71,3.02,20.73,2.95
				c9.17,0.23,18.29-1.55,26.7-5.21c7.09-3.14,13.11-8.3,17.29-14.82c4.19-6.85,6.29-14.77,6.09-22.8
				c0.01-4.57-1.06-9.08-3.12-13.16C390.75,130.62,387.73,126.86,384.04,123.85z"/>
			<path fill="#102F50" d="M453.98,59.4h-20.24v26.34h-21.42v19.65h21.42v83.49h20.24v-83.49h23.97V85.74h-23.97V59.4z"/>
			<path fill="#102F50" d="M568.61,90.55c-8.23-4.58-17.49-6.98-26.91-6.98c-9.42,0-18.68,2.4-26.92,6.98
				c-7.83,4.57-14.31,11.14-18.75,19.06c-4.51,8.5-6.87,17.98-6.87,27.61c0,9.62,2.36,19.1,6.87,27.61
				c4.43,7.9,10.92,14.49,18.75,19.05c8.24,4.58,17.5,6.99,26.92,6.99c9.42,0,18.68-2.41,26.91-6.99
				c7.84-4.56,14.31-11.14,18.75-19.05c4.52-8.51,6.89-17.98,6.89-27.61s-2.37-19.11-6.89-27.61
				C582.92,101.69,576.45,95.12,568.61,90.55z M569.69,155.18c-2.6,5.14-6.52,9.49-11.38,12.59c-4.93,3.13-10.67,4.76-16.51,4.68
				c-5.87,0.06-11.63-1.57-16.6-4.68c-4.91-3.07-8.88-7.43-11.5-12.59c-2.58-5.64-3.92-11.77-3.92-17.97
				c0-6.19,1.34-12.32,3.92-17.96c2.62-5.16,6.6-9.51,11.5-12.59c5-3,10.71-4.59,16.55-4.61c5.83-0.01,11.55,1.55,16.57,4.52
				c4.87,3.04,8.81,7.36,11.38,12.49c2.82,5.63,4.18,11.88,3.94,18.18C573.85,143.47,572.5,149.63,569.69,155.18z"/>
			<path fill="#102F50" d="M668.18,83.52c-4.9,0.02-9.73,1.24-14.05,3.55c-4.59,2.4-8.66,5.66-12,9.62c-2.17,2.52-3.99,5.33-5.41,8.34
				V85.69h-20.47v103.08h20.43v-56.83c-0.04-3.61,0.7-7.21,2.17-10.51c1.4-3.15,3.37-6.01,5.8-8.44c2.42-2.43,5.29-4.37,8.44-5.7
				c3.2-1.38,6.65-2.08,10.13-2.07c1.88,0.01,3.76,0.24,5.59,0.69c1.78,0.43,3.52,0.99,5.2,1.67l5.31-22.01
				c-1.55-0.62-3.16-1.09-4.81-1.37C672.43,83.77,670.31,83.55,668.18,83.52z"/>
			<path fill="#102F50" d="M771.17,97.72c-4.27-4.46-9.37-8.03-15.02-10.51c-5.91-2.58-12.3-3.88-18.75-3.82
				c-7.24-0.07-14.43,1.3-21.14,4.03c-6.3,2.57-12,6.45-16.69,11.38c-4.74,5.04-8.45,10.95-10.94,17.4
				c-2.69,7.08-4.02,14.61-3.92,22.2c-0.2,9.5,2.21,18.88,6.96,27.12c4.62,7.82,11.28,14.24,19.27,18.57
				c8.63,4.62,18.31,6.95,28.1,6.77c5.02-0.02,10.01-0.72,14.84-2.06c4.96-1.36,9.77-3.24,14.34-5.61c4.22-2.15,8.1-4.93,11.49-8.25
				l-10.21-14.35c-4.19,3.87-9,7-14.25,9.24c-4.54,1.73-9.38,2.6-14.24,2.54c-6.62,0.15-13.16-1.34-19.07-4.32
				c-5.37-2.75-9.8-7.02-12.76-12.28c-2.34-4.21-3.78-8.86-4.25-13.65h78.9l0.19-8.64c0.22-6.79-0.88-13.56-3.23-19.94
				C778.7,107.68,775.42,102.29,771.17,97.72z M719.64,106.08c5.52-2.85,11.67-4.24,17.88-4.03c4.25-0.04,8.44,0.93,12.25,2.84
				c3.8,1.9,7.09,4.67,9.62,8.1c2.47,3.39,3.97,7.39,4.32,11.58v1.39h-57.7c0.55-2.82,1.45-5.57,2.69-8.16
				c2.31-4.95,6.13-9.06,10.91-11.72H719.64z"/>
			<path fill="#102F50" d="M936.01,119.13c-0.2-2.1-0.35-3.85-0.5-5.3h-63.65v24.55h35.28c-0.08,3.34-0.9,6.63-2.4,9.63
				c-1.67,3.3-4.02,6.22-6.89,8.56c-3.04,2.47-6.5,4.36-10.22,5.59c-4.03,1.34-8.25,2-12.49,1.96c-5.93,0.05-11.81-1.12-17.27-3.43
				c-8.04-3.41-14.87-9.12-19.67-16.41c-4.79-7.29-7.31-15.84-7.26-24.56c-0.05-5.98,1.05-11.92,3.25-17.49
				c2.07-5.22,5.17-9.97,9.14-13.95c3.92-3.92,8.56-7.05,13.65-9.23c5.38-2.26,11.17-3.4,16.99-3.34c4.3,0,8.57,0.63,12.67,1.88
				c4.11,1.24,8.05,3.02,11.69,5.3c3.82,2.41,7.37,5.2,10.6,8.35l18.28-19.26c-3.91-4.65-8.56-8.63-13.76-11.78
				c-11.82-7.24-25.43-11.05-39.28-11.01c-10.01-0.11-19.95,1.69-29.29,5.31c-8.65,3.38-16.56,8.41-23.26,14.82
				c-6.61,6.33-11.82,13.96-15.33,22.4c-3.66,8.88-5.49,18.4-5.4,28c-0.09,9.62,1.67,19.16,5.2,28.12
				c3.34,8.46,8.4,16.15,14.83,22.58c6.54,6.51,14.32,11.62,22.88,15.05c9.29,3.68,19.19,5.52,29.18,5.4
				c8.58,0.07,17.1-1.42,25.14-4.42c7.47-2.79,14.32-7.04,20.15-12.49c5.72-5.43,10.27-11.99,13.35-19.26
				c3.27-7.77,4.9-16.12,4.82-24.55c0-1.18,0-2.78-0.09-4.83C936.26,123.27,936.2,121.23,936.01,119.13z"/>
			<path fill="#102F50" d="M1017.06,82.79c-5.24,0-10.41,1.28-15.05,3.73c-4.83,2.53-9.09,6.06-12.49,10.32
				c-1.26,1.56-2.4,3.21-3.42,4.93l-0.5-16.82h-26.91v103.92h28.12v-53.82c-0.03-3.1,0.53-6.16,1.67-9.03
				c1.07-2.68,2.67-5.12,4.68-7.19c1.97-2.03,4.34-3.61,6.96-4.68c2.78-1.12,5.75-1.69,8.76-1.66c2.35,0,4.69,0.29,6.98,0.88
				c1.93,0.46,3.81,1.15,5.59,2.06l7.47-30.64c-1.72-0.6-3.5-1.06-5.3-1.38C1021.46,83.01,1019.27,82.8,1017.06,82.79z"/>
			<path fill="#102F50" d="M1116.96,89.77c-8.72-4.59-18.44-6.98-28.29-6.98s-19.57,2.39-28.29,6.98c-8.16,4.49-14.96,11.1-19.65,19.15
				c-4.7,8.55-7.18,18.14-7.18,27.9c0,9.75,2.47,19.36,7.18,27.91c4.7,8.03,11.49,14.64,19.65,19.14
				c8.72,4.59,18.44,6.98,28.29,6.98s19.57-2.39,28.29-6.98c8.14-4.48,14.9-11.1,19.56-19.14c4.63-8.58,7.05-18.17,7.05-27.91
				s-2.42-19.33-7.05-27.9C1131.86,100.86,1125.1,94.25,1116.96,89.77z M1112.03,152.05c-2.13,4.35-5.43,8.03-9.52,10.61
				c-4.12,2.57-8.89,3.89-13.75,3.83c-4.91,0.08-9.75-1.25-13.94-3.83c-4.11-2.61-7.45-6.27-9.64-10.61
				c-2.19-4.8-3.33-10.01-3.33-15.28c0-5.28,1.14-10.48,3.33-15.28c2.23-4.31,5.56-7.97,9.64-10.6c4.15-2.57,8.94-3.93,13.82-3.95
				c4.89-0.01,9.69,1.32,13.87,3.85c4.09,2.59,7.39,6.25,9.52,10.6c2.36,4.79,3.47,10.08,3.25,15.41
				C1115.49,142.09,1114.37,147.32,1112.03,152.05z"/>
			<path fill="#102F50" d="M1257.36,149.08l-21.63-49.19h-16.51l-20.94,49.47l-19.32-64.6l-29.09,0.21l34.78,103.92h20.05l22.49-55.13
				l22.88,55.13h20.24l35.36-103.92h-29.07L1257.36,149.08z"/>
			<path fill="#102F50" d="M1370.31,58.62h-27.91v26.34h-19.44v24.94h19.44v78.99h27.91V109.9h21.42V84.96h-21.42V58.62z"/>
			<path fill="#102F50" d="M1501.23,101.75c-2.32-5.93-6.53-10.94-11.98-14.24c-6.03-3.31-12.86-4.93-19.74-4.68
				c-5.69-0.01-11.32,1.19-16.5,3.53c-5.05,2.23-9.61,5.41-13.45,9.37c-0.81,0.84-1.56,1.7-2.26,2.58V43.49h-27.5v145.4h27.89
				v-62.47c-0.01-2.65,0.56-5.27,1.67-7.68c1.11-2.34,2.65-4.46,4.52-6.24c1.97-1.88,4.32-3.32,6.89-4.24c2.8-1,5.75-1.5,8.73-1.46
				c3.43-0.25,6.85,0.44,9.93,1.96c2.74,1.52,4.86,3.96,5.98,6.88c1.42,3.76,2.09,7.76,1.97,11.78v61.51h27.97v-63.7
				C1505.55,117.2,1504.15,109.22,1501.23,101.75z"/>
		</g>
	</g>
</g>
</svg>
