<svg width="50" height="50" viewBox="0 0 50 50" fill="none" xmlns="http://www.w3.org/2000/svg">
<g clip-path="url(#clip0_0_217)">
<path d="M14.0564 37.384C15.8768 35.9665 17.0509 33.7563 17.0509 31.2759C17.0509 27.0077 13.578 23.5352 9.30977 23.5352C5.0415 23.5352 1.56898 27.0077 1.56898 31.2759C1.56898 33.7563 2.74315 35.9665 4.56314 37.384C1.99432 38.9122 0 41.7984 0 45.3972V48.5352C0 49.3443 0.655746 50 1.46484 50H17.1551C17.9638 50 18.6199 49.3443 18.6199 48.5352V45.3972C18.6199 41.7992 16.626 38.9126 14.0564 37.384ZM4.49867 31.2759C4.49867 28.6232 6.65703 26.4648 9.31015 26.4648C11.9629 26.4648 14.1212 28.6232 14.1212 31.2759C14.1212 33.9291 11.9629 36.0874 9.31015 36.0874C6.65703 36.0874 4.49867 33.9291 4.49867 31.2759ZM15.6902 47.0703H2.92969V45.3972C2.92969 41.8732 5.78079 39.0171 9.30977 39.0171C12.8338 39.0171 15.6898 41.8682 15.6898 45.3972V47.0703H15.6902Z" fill="#F37A50"/>
<path d="M43.8282 0H25C21.5912 0 18.8282 2.75803 18.8282 6.1718V34.4139C18.8282 35.6121 20.2022 36.3129 21.1719 35.5858L27.0573 31.1718H43.8282C47.237 31.1718 50 28.4138 50 25V6.1718C50 2.76299 47.242 0 43.8282 0ZM47.0703 25C47.0703 26.7921 45.6211 28.2421 43.8282 28.2421H26.569C26.252 28.2421 25.9437 28.3451 25.6901 28.5351L21.7579 31.4842V6.1718C21.7579 4.37965 23.2071 2.92969 25 2.92969H43.8282C45.6203 2.92969 47.0703 4.37889 47.0703 6.1718V25Z" fill="#F37A50"/>
<path d="M42.2592 7.84491H26.569C25.7599 7.84491 25.1041 8.50104 25.1041 9.30975C25.1041 10.1189 25.7599 10.7746 26.569 10.7746H42.2592C43.0679 10.7746 43.724 10.1189 43.724 9.30975C43.724 8.50104 43.0683 7.84491 42.2592 7.84491Z" fill="#F37A50"/>
<path d="M42.2592 14.1212H26.569C25.7599 14.1212 25.1041 14.777 25.1041 15.5861C25.1041 16.3948 25.7599 17.0509 26.569 17.0509H42.2592C43.0679 17.0509 43.724 16.3948 43.724 15.5861C43.724 14.777 43.0683 14.1212 42.2592 14.1212Z" fill="#F37A50"/>
<path d="M34.4139 20.3972H26.569C25.7599 20.3972 25.1041 21.053 25.1041 21.8621C25.1041 22.6712 25.7599 23.3269 26.569 23.3269H34.4139C35.223 23.3269 35.8787 22.6712 35.8787 21.8621C35.8787 21.053 35.223 20.3972 34.4139 20.3972Z" fill="#F37A50"/>
</g>
<defs>
<clipPath id="clip0_0_217">
<rect width="50" height="50" fill="white"/>
</clipPath>
</defs>
</svg>
