<svg width="70" height="70" viewBox="0 0 70 70" fill="none" xmlns="http://www.w3.org/2000/svg">
<circle cx="35" cy="35" r="35" fill="#0875FF"/>
<g clip-path="url(#clip0_34_1386)">
<path d="M27.9961 42.9258C29.1611 42.0186 29.9126 40.604 29.9126 39.0166C29.9126 36.2849 27.6899 34.0625 24.9583 34.0625C22.2266 34.0625 20.0042 36.2849 20.0042 39.0166C20.0042 40.604 20.7556 42.0186 21.9204 42.9258C20.2764 43.9038 19 45.751 19 48.0542V50.0625C19 50.5803 19.4197 51 19.9375 51H29.9792C30.4968 51 30.9167 50.5803 30.9167 50.0625V48.0542C30.9167 45.7515 29.6406 43.9041 27.9961 42.9258ZM21.8792 39.0166C21.8792 37.3188 23.2605 35.9375 24.9585 35.9375C26.6562 35.9375 28.0376 37.3188 28.0376 39.0166C28.0376 40.7146 26.6562 42.0959 24.9585 42.0959C23.2605 42.0959 21.8792 40.7146 21.8792 39.0166ZM29.0417 49.125H20.875V48.0542C20.875 45.7988 22.6997 43.9709 24.9583 43.9709C27.2136 43.9709 29.0415 45.7957 29.0415 48.0542V49.125H29.0417Z" fill="white"/>
<path d="M47.05 19H35C32.8184 19 31.05 20.7651 31.05 22.95V41.0249C31.05 41.7917 31.9294 42.2402 32.55 41.7749L36.3167 38.95H47.05C49.2317 38.95 51 37.1848 51 35V22.95C51 20.7683 49.2349 19 47.05 19ZM49.125 35C49.125 36.147 48.1975 37.075 47.05 37.075H36.0042C35.8013 37.075 35.604 37.1409 35.4417 37.2625L32.925 39.1499V22.95C32.925 21.803 33.8525 20.875 35 20.875H47.05C48.197 20.875 49.125 21.8025 49.125 22.95V35Z" fill="white"/>
<path d="M46.0459 24.0215H36.0042C35.4863 24.0215 35.0667 24.4414 35.0667 24.959C35.0667 25.4768 35.4863 25.8965 36.0042 25.8965H46.0459C46.5635 25.8965 46.9834 25.4768 46.9834 24.959C46.9834 24.4414 46.5637 24.0215 46.0459 24.0215Z" fill="white"/>
<path d="M46.0459 28.0371H36.0042C35.4863 28.0371 35.0667 28.4568 35.0667 28.9746C35.0667 29.4922 35.4863 29.9121 36.0042 29.9121H46.0459C46.5635 29.9121 46.9834 29.4922 46.9834 28.9746C46.9834 28.4568 46.5637 28.0371 46.0459 28.0371Z" fill="white"/>
<path d="M41.0249 32.0547H36.0042C35.4863 32.0547 35.0667 32.4744 35.0667 32.9922C35.0667 33.51 35.4863 33.9297 36.0042 33.9297H41.0249C41.5427 33.9297 41.9624 33.51 41.9624 32.9922C41.9624 32.4744 41.5427 32.0547 41.0249 32.0547Z" fill="white"/>
</g>
<defs>
<clipPath id="clip0_34_1386">
<rect width="32" height="32" fill="white" transform="translate(19 19)"/>
</clipPath>
</defs>
</svg>
