<svg width="18" height="18" viewBox="0 0 18 18" fill="none" xmlns="http://www.w3.org/2000/svg">
<g clip-path="url(#clip0_1_1474)">
<mask id="mask0_1_1474" style="mask-type:luminance" maskUnits="userSpaceOnUse" x="0" y="0" width="18" height="18">
<path d="M0 1.90735e-06H18V18H0V1.90735e-06Z" fill="white"/>
</mask>
<g mask="url(#mask0_1_1474)">
<path d="M9.00004 6.23436C7.47264 6.23436 6.2344 7.47257 6.2344 9C6.2344 10.5274 7.47264 11.7656 9.00004 11.7656C10.5274 11.7656 11.7657 10.5274 11.7657 9C11.7657 7.47257 10.5274 6.23436 9.00004 6.23436ZM16.7626 7.02643L16.0138 7.64286C15.1597 8.34602 15.1597 9.65394 16.0138 10.3571L16.7626 10.9735C17.028 11.192 17.0965 11.5703 16.9246 11.8679L15.4461 14.4289C15.2742 14.7266 14.9123 14.8564 14.5905 14.7358L13.6822 14.3955C12.6462 14.0074 11.5135 14.6614 11.3316 15.7526L11.1722 16.7093C11.1157 17.0484 10.8223 17.2969 10.4786 17.2969H7.52144C7.17775 17.2969 6.88441 17.0484 6.82791 16.7093L6.66844 15.7526C6.48658 14.6614 5.35388 14.0074 4.31786 14.3955L3.40963 14.7358C3.08774 14.8564 2.72588 14.7266 2.554 14.4289L1.07544 11.8679C0.903591 11.5703 0.972111 11.192 1.23747 10.9735L1.9863 10.3571C2.84042 9.65394 2.84042 8.34602 1.9863 7.64286L1.23747 7.02643C0.972111 6.80797 0.903591 6.42969 1.07544 6.13202L2.554 3.57107C2.72588 3.2734 3.08774 3.1436 3.40963 3.26419L4.31786 3.60443C5.35388 3.99256 6.48658 3.33862 6.66844 2.24733L6.82791 1.29062C6.88441 0.951611 7.17775 0.703127 7.52144 0.703127H10.4786C10.8223 0.703127 11.1157 0.951611 11.1722 1.29062L11.3316 2.24733C11.5135 3.33862 12.6462 3.99256 13.6822 3.60443L14.5905 3.26419C14.9123 3.1436 15.2742 3.2734 15.4461 3.57107L16.9246 6.13202C17.0965 6.42969 17.028 6.80797 16.7626 7.02643Z" stroke="#989FAB" stroke-width="1.5" stroke-miterlimit="10" stroke-linecap="round" stroke-linejoin="round"/>
</g>
</g>
<defs>
<clipPath id="clip0_1_1474">
<rect width="18" height="18" fill="white"/>
</clipPath>
</defs>
</svg>
