<svg width="485" height="400" viewBox="0 0 485 400" fill="none" xmlns="http://www.w3.org/2000/svg">
<path d="M165.07 133.789L131.212 82.3307C124.103 70.8958 112.972 62.4984 99.982 58.771C86.9924 55.0436 73.0731 56.2529 60.9303 62.1636C59.3887 62.8935 57.8691 63.7292 56.3716 64.6708L11.965 91.8778C6.46422 95.2319 2.47603 100.566 0.829763 106.77C-0.816507 112.974 0.00609788 119.57 3.12655 125.186C6.24699 130.802 11.4249 135.005 17.583 136.922C23.7412 138.838 30.4051 138.32 36.1888 135.475C36.9045 135.125 37.6093 134.73 38.303 134.314L82.7094 107.096C82.8231 107.024 82.9408 106.958 83.0618 106.899C84.0141 106.438 85.1047 106.345 86.122 106.639C87.1393 106.932 88.0107 107.59 88.5672 108.487L122.425 159.945C127.989 168.94 134.247 177.491 141.144 185.521C142.518 181.348 144.922 177.583 148.136 174.572L175.608 148.777C171.798 143.994 168.279 138.989 165.07 133.789Z" fill="#3BA4FF"/>
<path fill-rule="evenodd" clip-rule="evenodd" d="M173.289 196.85C173.289 260.704 225.053 312.468 288.907 312.468C352.76 312.468 404.524 260.704 404.524 196.85C404.524 132.996 352.76 81.2324 288.907 81.2324C225.053 81.2324 173.289 132.996 173.289 196.85ZM288.907 33.9883C198.96 33.9883 126.045 106.904 126.045 196.85C126.045 286.796 198.96 359.712 288.907 359.712C378.853 359.712 451.768 286.796 451.768 196.85C451.768 106.904 378.853 33.9883 288.907 33.9883Z" fill="#3BA4FF"/>
<path d="M434.839 316.461C432.917 310.122 429.062 304.577 423.837 300.638C418.612 296.699 412.291 294.572 405.799 294.568C404.877 294.568 403.854 294.568 402.877 294.709C398.886 294.901 394.971 295.894 391.356 297.633C387.74 299.371 384.495 301.821 381.806 304.842C379.117 307.862 377.035 311.395 375.682 315.238C374.328 319.08 373.727 323.158 373.915 327.238C374.103 331.318 375.075 335.32 376.775 339.016C378.476 342.712 380.872 346.029 383.827 348.779C386.781 351.528 390.237 353.656 393.996 355.04C397.755 356.424 401.744 357.037 405.735 356.846C406.656 356.846 407.671 356.799 408.657 356.704C416.318 355.958 423.418 352.271 428.526 346.386C433.635 340.501 436.371 332.856 436.185 324.99C436.185 324.246 436.185 323.501 436.093 322.757C435.891 320.619 435.471 318.509 434.839 316.461Z" fill="#0177BF"/>
<path d="M283.307 353.282C281.385 346.943 277.53 341.398 272.305 337.459C267.08 333.52 260.759 331.393 254.267 331.389C253.345 331.389 252.322 331.389 251.345 331.53C247.354 331.722 243.439 332.715 239.824 334.454C236.208 336.192 232.963 338.642 230.274 341.663C227.585 344.683 225.504 348.216 224.15 352.059C222.796 355.901 222.196 359.979 222.383 364.059C222.571 368.139 223.543 372.141 225.243 375.837C226.944 379.533 229.34 382.851 232.295 385.6C235.25 388.349 238.705 390.477 242.464 391.861C246.223 393.245 250.212 393.858 254.203 393.667C255.125 393.667 256.139 393.62 257.125 393.525C264.787 392.779 271.887 389.092 276.995 383.207C282.103 377.322 284.839 369.677 284.653 361.811C284.653 361.067 284.653 360.322 284.561 359.578C284.36 357.44 283.939 355.33 283.307 353.282Z" fill="#0177BF"/>
<path fill-rule="evenodd" clip-rule="evenodd" d="M405.684 288.268L405.801 288.268C413.672 288.273 421.32 290.853 427.627 295.608C433.928 300.358 438.555 307.024 440.861 314.618C441.61 317.048 442.11 319.55 442.355 322.083C442.483 323.183 442.483 324.222 442.482 324.89L442.482 324.92C442.685 334.309 439.412 343.453 433.282 350.515C427.131 357.601 418.555 362.069 409.266 362.974L409.254 362.975C408.124 363.083 406.965 363.139 405.885 363.144C401.098 363.354 396.32 362.608 391.818 360.951C387.269 359.276 383.096 356.704 379.534 353.39C375.973 350.076 373.092 346.086 371.051 341.649C369.01 337.213 367.846 332.415 367.621 327.527C367.396 322.64 368.115 317.753 369.739 313.144C371.363 308.535 373.862 304.289 377.1 300.653C380.338 297.016 384.252 294.058 388.624 291.956C392.912 289.893 397.555 288.696 402.295 288.431C403.617 288.267 404.888 288.268 405.684 288.268ZM405.793 300.867C404.797 300.867 404.23 300.878 403.777 300.943L403.479 300.986L403.177 301.001C400.032 301.152 396.942 301.935 394.084 303.31C391.225 304.684 388.65 306.626 386.509 309.03C384.368 311.435 382.705 314.254 381.621 317.331C380.537 320.407 380.055 323.676 380.206 326.948C380.356 330.221 381.136 333.427 382.496 336.383C383.856 339.339 385.768 341.982 388.116 344.167C390.464 346.351 393.202 348.035 396.171 349.128C399.139 350.221 402.285 350.705 405.431 350.553L405.582 350.546H405.733C406.452 350.546 407.264 350.509 408.051 350.434C414.083 349.845 419.704 346.939 423.768 342.257C427.837 337.569 430.035 331.453 429.886 325.139L429.884 325.065V324.99C429.884 324.181 429.876 323.826 429.84 323.531L429.828 323.439L429.82 323.347C429.659 321.639 429.323 319.953 428.818 318.319L428.814 318.304L428.809 318.288C427.269 313.21 424.188 308.793 420.043 305.668C415.9 302.545 410.908 300.87 405.795 300.867M254.152 325.089C254.191 325.089 254.229 325.089 254.266 325.089H254.27C262.14 325.094 269.788 327.674 276.095 332.429C282.396 337.179 287.023 343.845 289.329 351.438C290.078 353.868 290.579 356.37 290.823 358.903C290.952 360.004 290.951 361.043 290.951 361.711C290.951 361.721 290.951 361.731 290.951 361.741C291.154 371.13 287.88 380.274 281.75 387.336C275.599 394.422 267.023 398.89 257.734 399.795L257.723 399.796C256.592 399.904 255.434 399.96 254.353 399.965C249.567 400.175 244.788 399.429 240.286 397.772C235.737 396.097 231.564 393.525 228.002 390.211C224.441 386.897 221.561 382.907 219.519 378.47C217.478 374.034 216.314 369.236 216.089 364.348C215.864 359.461 216.583 354.574 218.207 349.965C219.831 345.356 222.33 341.11 225.568 337.474C228.806 333.837 232.72 330.879 237.092 328.777C241.381 326.715 246.023 325.517 250.763 325.252C252.085 325.088 253.356 325.089 254.152 325.089ZM254.262 337.688C253.266 337.688 252.698 337.699 252.245 337.764L251.947 337.807L251.646 337.822C248.5 337.973 245.411 338.756 242.552 340.131C239.693 341.505 237.118 343.447 234.977 345.851C232.836 348.256 231.173 351.075 230.089 354.152C229.005 357.228 228.524 360.497 228.674 363.769C228.825 367.042 229.604 370.248 230.964 373.204C232.324 376.16 234.236 378.803 236.584 380.988C238.932 383.172 241.67 384.856 244.639 385.949C247.608 387.042 250.754 387.526 253.899 387.374L254.05 387.367H254.201C254.92 387.367 255.732 387.33 256.519 387.255C262.551 386.666 268.172 383.76 272.236 379.078C276.305 374.39 278.504 368.274 278.354 361.96L278.352 361.886V361.811C278.352 361.002 278.344 360.647 278.308 360.352L278.297 360.26L278.288 360.168C278.127 358.46 277.791 356.775 277.287 355.14L277.282 355.125L277.277 355.11C275.737 350.031 272.656 345.614 268.511 342.489C264.368 339.366 259.375 337.691 254.262 337.688Z" fill="white"/>
<path d="M245.713 178.172L184.109 263.144L215.265 302.089L271.913 223.49L301.653 244.733C319.214 258.329 333.989 248.51 339.182 241.901L447.52 90.3685L467.347 104.53C471.879 107.929 473.956 105.003 474.428 103.114L484.341 6.81328C485.474 -0.550907 481.037 -0.5037 478.677 0.440426L389.457 40.8018C383.792 43.0677 385.68 46.4666 387.332 47.8828L408.575 62.7528L313.691 194.458L286.075 173.924C266.248 157.496 250.906 169.911 245.713 178.172Z" fill="url(#paint0_linear_8_160)"/>
<defs>
<linearGradient id="paint0_linear_8_160" x1="484.336" y1="-5.40322e-06" x2="184.104" y2="301.648" gradientUnits="userSpaceOnUse">
<stop offset="0.432316" stop-color="#32DBBE"/>
<stop offset="0.914648" stop-color="#3BA4FF"/>
</linearGradient>
</defs>
</svg>
