<svg xmlns="http://www.w3.org/2000/svg" width="20" height="20" viewBox="0 0 20 20" fill="none">
<g clip-path="url(#clip0_119_2)">
<path fill-rule="evenodd" clip-rule="evenodd" d="M5.39166 14.6894C5.15283 14.6894 4.95923 14.4958 4.95923 14.257L4.95923 12.5273C4.95923 12.2885 5.15284 12.0948 5.39166 12.0948L6.68896 12.0948C6.92778 12.0948 7.12139 12.2885 7.12139 12.5273L7.12139 14.257C7.12139 14.4958 6.92778 14.6894 6.68896 14.6894L5.39166 14.6894Z" fill="#9CA2A7"/>
<path fill-rule="evenodd" clip-rule="evenodd" d="M8.63507 14.6894C8.39624 14.6894 8.20264 14.4958 8.20264 14.257L8.20264 10.1489C8.20264 9.91004 8.39624 9.71643 8.63507 9.71643L9.93236 9.71643C10.1712 9.71643 10.3648 9.91004 10.3648 10.1489L10.3648 14.257C10.3648 14.4958 10.1712 14.6894 9.93236 14.6894L8.63507 14.6894Z" fill="#9CA2A7"/>
<path fill-rule="evenodd" clip-rule="evenodd" d="M11.8785 14.6894C11.6397 14.6894 11.446 14.4958 11.446 14.257L11.446 7.98669C11.446 7.74787 11.6397 7.55426 11.8785 7.55426L13.1758 7.55426C13.4146 7.55426 13.6082 7.74787 13.6082 7.98669L13.6082 14.257C13.6082 14.4958 13.4146 14.6894 13.1758 14.6894L11.8785 14.6894Z" fill="#9CA2A7"/>
<path fill-rule="evenodd" clip-rule="evenodd" d="M3.66216 4.81081C3.66216 4.45257 3.95257 4.16216 4.31081 4.16216H12.837C12.913 4.16216 12.9833 4.12231 13.0224 4.05718L14.0603 2.32746C14.1467 2.18334 14.0429 2 13.8749 2H4.31081C2.75844 2 1.5 3.25844 1.5 4.81081V15.1892C1.5 16.7415 2.75844 18 4.31081 18H14.2567C15.8091 18 17.0675 16.7415 17.0675 15.1892V6.3243H18.1149C18.2793 6.3243 18.3836 6.14809 18.3044 6.00399L16.176 2.1288C16.0939 1.9793 15.8791 1.9793 15.797 2.1288L13.6685 6.00399C13.5894 6.14809 13.6936 6.3243 13.858 6.3243H14.9054V15.1892C14.9054 15.5474 14.615 15.8378 14.2567 15.8378H4.31081C3.95257 15.8378 3.66216 15.5474 3.66216 15.1892V4.81081Z" fill="#9CA2A7"/>
</g>
<defs>
<clipPath id="clip0_119_2">
<rect width="16.8648" height="16" fill="white" transform="translate(1.5 2)"/>
</clipPath>
</defs>
</svg>
