<svg width="224" height="228" viewBox="0 0 224 228" fill="none" xmlns="http://www.w3.org/2000/svg">
<g id="download 1">
<path id="Vector" d="M179.002 117.916C179.002 117.916 183.993 105.854 185.89 102.853C188.379 98.9147 200.065 90.7051 200.065 90.7051C201.174 89.5407 203.107 89.8163 203.843 91.2438C204.203 91.9429 204.184 92.7764 203.791 93.4586L198.622 100.314C198.622 100.314 214.565 90.94 217.532 91.7464C220.499 92.5528 217.408 95.9896 217.408 95.9896C217.408 95.9896 220.802 94.2898 221.926 96.3001C223.051 98.3105 219.28 100.314 219.28 100.314C219.28 100.314 222.265 99.6725 222.543 102.024C222.821 104.375 219.585 105.803 219.585 105.803C219.585 105.803 223.417 105.988 221.258 109.371C219.429 112.238 207.455 115.478 203.221 118.164C201.271 119.401 196.71 124.694 196.71 124.694L179.002 117.916Z" fill="white"/>
<path id="Vector_2" d="M196.712 125.091C196.664 125.091 196.615 125.082 196.568 125.065L178.86 118.285C178.76 118.247 178.68 118.17 178.638 118.071C178.596 117.973 178.595 117.863 178.636 117.763C178.84 117.27 183.66 105.636 185.554 102.639C188.017 98.7419 198.998 90.9682 199.805 90.4001C200.422 89.7711 201.275 89.4842 202.152 89.6073C203.042 89.7338 203.789 90.2635 204.199 91.0597C204.623 91.8819 204.6 92.8509 204.139 93.6528C204.131 93.6663 204.122 93.681 204.111 93.6934L200.121 98.9869C204.456 96.5124 215.085 90.6712 217.639 91.3613C218.456 91.5837 218.962 92.0107 219.146 92.6296C219.391 93.4518 218.976 94.4151 218.527 95.1447C219.734 94.8059 221.462 94.6478 222.276 96.1047C222.551 96.5971 222.609 97.1257 222.446 97.6734C222.186 98.551 221.389 99.3257 220.685 99.8656C221.137 99.9198 221.622 100.055 222.03 100.346C222.551 100.716 222.858 101.264 222.942 101.974C223.147 103.713 221.727 104.965 220.713 105.627C221.238 105.806 221.814 106.128 222.115 106.705C222.508 107.459 222.334 108.426 221.598 109.581C220.445 111.388 215.954 113.157 211.2 115.03C208.081 116.26 205.134 117.421 203.439 118.496C201.562 119.686 197.063 124.898 197.017 124.949C196.936 125.042 196.825 125.091 196.712 125.091ZM179.527 117.692L196.592 124.224C197.478 123.208 201.233 118.956 203.006 117.831C204.765 116.715 207.747 115.54 210.902 114.296C215.123 112.633 219.906 110.748 220.921 109.159C221.315 108.542 221.718 107.678 221.404 107.073C220.995 106.29 219.579 106.2 219.566 106.199C219.382 106.19 219.227 106.057 219.193 105.876C219.159 105.696 219.254 105.516 219.422 105.44C219.452 105.427 222.387 104.101 222.147 102.07C222.089 101.583 221.898 101.231 221.563 100.993C220.884 100.512 219.745 100.618 219.363 100.7C219.169 100.742 218.974 100.635 218.904 100.449C218.836 100.264 218.916 100.056 219.091 99.9627C219.112 99.9514 221.285 98.7802 221.679 97.4509C221.78 97.1099 221.746 96.7959 221.576 96.4921C220.652 94.8375 217.616 96.3272 217.586 96.343C217.414 96.4277 217.206 96.3803 217.09 96.2301C216.974 96.0787 216.981 95.8675 217.108 95.7252C217.553 95.2306 218.644 93.7511 218.378 92.8566C218.276 92.5132 217.965 92.2749 217.425 92.1292C215.37 91.5691 205.174 96.9213 198.823 100.655C198.66 100.751 198.451 100.719 198.324 100.578C198.196 100.438 198.187 100.227 198.301 100.076L203.455 93.2406C203.771 92.677 203.783 91.9994 203.487 91.4234C203.196 90.8598 202.668 90.4837 202.036 90.3945C201.403 90.3041 200.791 90.5176 200.352 90.9773C200.334 90.9965 200.315 91.0134 200.293 91.0281C200.177 91.1094 188.644 99.2365 186.226 103.063C184.557 105.706 180.386 115.632 179.527 117.692Z" fill="black"/>
<path id="Vector_3" d="M217.408 95.9895C215.346 96.8682 211.184 99.4579 207.327 101.798L217.408 95.9895Z" fill="white"/>
<path id="Vector_4" d="M207.327 102.193C207.193 102.193 207.062 102.126 206.987 102.004C206.872 101.817 206.931 101.573 207.12 101.459L208.603 100.557C211.957 98.5137 215.425 96.4029 217.25 95.6247C217.453 95.5378 217.687 95.6315 217.774 95.8326C217.86 96.0336 217.767 96.2674 217.565 96.3532C215.793 97.1088 212.35 99.2049 209.02 101.233L207.535 102.136C207.471 102.175 207.399 102.193 207.327 102.193Z" fill="black"/>
<path id="Vector_5" d="M219.28 100.313C219.28 100.313 218.548 100.471 215.836 101.853C213.124 103.236 208.319 106.217 208.319 106.217" fill="white"/>
<path id="Vector_6" d="M208.319 106.614C208.186 106.614 208.056 106.547 207.981 106.427C207.864 106.242 207.92 105.997 208.108 105.881C208.157 105.851 212.959 102.873 215.654 101.5C218.335 100.134 219.116 99.9424 219.195 99.9255C219.411 99.8792 219.622 100.015 219.67 100.228C219.717 100.44 219.583 100.651 219.369 100.699C219.332 100.708 218.585 100.898 216.018 102.206C213.352 103.564 208.578 106.523 208.53 106.554C208.465 106.595 208.392 106.614 208.319 106.614Z" fill="black"/>
<path id="Vector_7" d="M219.585 105.803C219.585 105.803 217.381 106.578 216.488 106.933C215.994 107.13 209.295 110.529 209.295 110.529" fill="white"/>
<path id="Vector_8" d="M209.295 110.925C209.15 110.925 209.01 110.846 208.939 110.709C208.839 110.514 208.917 110.275 209.113 110.176C209.801 109.827 215.842 106.763 216.339 106.565C217.23 106.212 219.361 105.462 219.452 105.43C219.66 105.357 219.887 105.465 219.961 105.672C220.035 105.879 219.926 106.104 219.718 106.178C219.696 106.186 217.512 106.955 216.636 107.302C216.286 107.44 212.162 109.519 209.477 110.882C209.419 110.911 209.356 110.925 209.295 110.925Z" fill="black"/>
<path id="Vector_9" d="M106.145 104.288C98.4373 106.189 91.1237 125.121 90.2297 129.042C89.3356 132.964 89.4447 137.253 91.3691 140.789C92.3824 142.65 93.8546 144.236 94.86 146.102C96.3459 148.858 96.7265 152.181 95.904 155.199C95.3019 157.408 94.0955 159.414 93.4457 161.61C92.797 163.805 92.8209 166.432 94.4067 168.092C96.3379 170.115 99.6039 169.85 102.363 169.348C106.966 168.513 111.565 167.434 115.814 165.486C120.062 163.536 123.972 160.66 126.556 156.78C129.139 152.901 130.276 147.953 129.022 143.47C127.604 138.401 123.468 134.598 119.402 131.228C115.336 127.859 110.997 124.434 108.878 119.613C108.542 118.848 108.259 118.044 107.735 117.393C107.212 116.741 106.37 116.261 105.549 116.433" fill="black"/>
<path id="Vector_10" d="M141.036 120.023C144.52 122.814 137.167 149.375 152.924 151.834C157.343 152.523 157.013 159.919 156.862 164.364C156.714 168.806 154.644 173.282 150.966 175.807C147.811 177.973 143.834 178.555 140.004 178.695C136.603 178.822 133.111 178.626 129.965 177.339C126.818 176.048 124.047 173.501 123.202 170.222C122.393 167.073 121.832 164.577 122.143 161.339C122.443 158.264 123.658 154.339 122.673 151.412C122.182 148.895 120.582 143.385 120.916 141.707" fill="black"/>
<path id="Vector_11" d="M128.315 154.65L171.24 151.278L176.452 114.505L208.027 120.023C208.027 120.023 197.861 157.608 188.615 167.567C175.584 181.602 136.596 182.381 137.002 182.381C137.41 182.38 128.315 154.65 128.315 154.65Z" fill="#008DFF"/>
<path id="Vector_12" d="M171.24 151.674C171.222 151.674 171.203 151.673 171.183 151.671C170.965 151.64 170.813 151.439 170.844 151.223L176.056 114.449C176.07 114.343 176.128 114.247 176.216 114.184C176.303 114.121 176.413 114.095 176.519 114.114L208.094 119.632C208.311 119.671 208.455 119.876 208.418 120.092C208.379 120.308 208.175 120.449 207.956 120.414L176.786 114.967L171.632 151.334C171.607 151.532 171.436 151.674 171.24 151.674Z" fill="black"/>
<path id="Vector_13" d="M44.9976 119.859C44.9976 119.859 40.0071 107.797 38.11 104.797C35.621 100.858 23.935 92.6488 23.935 92.6488C22.8263 91.4844 20.8928 91.7599 20.1567 93.1875C19.7966 93.8866 19.8159 94.7201 20.2089 95.4022L25.3777 102.258C25.3777 102.258 9.4351 92.8837 6.46787 93.6901C3.50064 94.4965 6.59169 97.9332 6.59169 97.9332C6.59169 97.9332 3.19846 96.2335 2.07382 98.2438C0.949184 100.254 4.71957 102.258 4.71957 102.258C4.71957 102.258 1.7353 101.616 1.45698 103.968C1.17866 106.319 4.41512 107.747 4.41512 107.747C4.41512 107.747 0.583392 107.932 2.74179 111.314C4.57075 114.182 16.5453 117.422 20.7792 120.108C22.7286 121.344 27.2896 126.638 27.2896 126.638L44.9976 119.859Z" fill="white"/>
<path id="Vector_14" d="M27.2885 127.034C27.1737 127.034 27.0624 126.986 26.9852 126.895C26.9397 126.844 22.44 121.632 20.5634 120.442C18.8696 119.367 15.9228 118.206 12.8033 116.977C8.04805 115.103 3.55631 113.334 2.40441 111.527C1.66828 110.372 1.49447 109.405 1.88753 108.651C2.18857 108.074 2.76452 107.752 3.28935 107.573C2.2749 106.912 0.854903 105.659 1.06052 103.92C1.14458 103.21 1.4513 102.661 1.97273 102.292C2.38055 102.001 2.86562 101.867 3.31775 101.813C2.61343 101.272 1.81596 100.498 1.55581 99.6206C1.39337 99.0717 1.45017 98.5442 1.72621 98.0518C2.54186 96.5938 4.26858 96.7553 5.47501 97.0918C5.02629 96.3634 4.61165 95.3989 4.85589 94.5767C5.03992 93.9566 5.54772 93.5297 6.3645 93.3084C8.91255 92.6172 19.5478 98.4595 23.8828 100.934L19.8909 95.6406C19.8806 95.6281 19.8727 95.6135 19.8636 95.5999C19.4024 94.798 19.3797 93.829 19.8034 93.0068C20.2135 92.2106 20.9598 91.6809 21.8505 91.5544C22.7274 91.4268 23.5806 91.7182 24.1974 92.3472C25.004 92.9153 35.9857 100.689 38.4485 104.587C40.3423 107.583 45.1623 119.216 45.3668 119.709C45.4077 119.807 45.4065 119.919 45.3645 120.017C45.3225 120.116 45.2418 120.192 45.1419 120.231L27.4339 127.011C27.385 127.026 27.3373 127.034 27.2885 127.034ZM3.84713 102.573C3.39727 102.573 2.84404 102.645 2.43394 102.938C2.09996 103.176 1.91025 103.527 1.85231 104.013C1.61261 106.045 4.5469 107.37 4.57644 107.383C4.74456 107.457 4.83999 107.637 4.80591 107.818C4.77183 107.997 4.61847 108.132 4.43444 108.142C4.03797 108.162 2.93605 108.36 2.59412 109.017C2.28058 109.621 2.68386 110.484 3.07805 111.102C4.09136 112.691 8.8762 114.577 13.0976 116.24C16.2534 117.483 19.2342 118.658 20.9928 119.773C22.7661 120.898 26.5205 125.151 27.4078 126.167L44.4728 119.635C43.6139 117.575 39.4426 107.649 37.7726 105.007C35.3541 101.18 23.8214 93.0531 23.7044 92.9718C23.6828 92.9571 23.6635 92.9402 23.6453 92.921C23.2068 92.4602 22.5923 92.249 21.9618 92.3382C21.3302 92.4286 20.8019 92.8035 20.5111 93.3671C20.2146 93.942 20.2271 94.6196 20.5429 95.1843L25.6969 102.019C25.8106 102.171 25.8015 102.381 25.6742 102.522C25.547 102.663 25.338 102.695 25.1744 102.599C18.8241 98.865 8.63196 93.5094 6.57239 94.073C6.03279 94.2198 5.72152 94.4581 5.61928 94.8003C5.35232 95.6959 6.44516 97.1743 6.88933 97.669C7.01657 97.8113 7.02452 98.0225 6.90864 98.1738C6.79277 98.3251 6.58375 98.3714 6.41335 98.2867C6.38268 98.2709 3.34729 96.7812 2.42258 98.4358C2.25332 98.7396 2.21924 99.0525 2.32034 99.3947C2.7134 100.724 4.88543 101.895 4.90815 101.906C5.08309 102 5.16261 102.207 5.09445 102.392C5.02629 102.577 4.82976 102.681 4.63664 102.643C4.62869 102.643 4.28789 102.573 3.84713 102.573Z" fill="black"/>
<path id="Vector_15" d="M6.59167 97.9332C8.65351 98.8119 12.8158 101.402 16.6725 103.742L6.59167 97.9332Z" fill="white"/>
<path id="Vector_16" d="M16.6725 104.137C16.6021 104.137 16.5305 104.119 16.4647 104.079L14.9833 103.178C11.6526 101.15 8.2082 99.0525 6.43604 98.2969C6.23384 98.2111 6.13955 97.9773 6.22702 97.7762C6.31449 97.5752 6.54851 97.4815 6.75072 97.5684C8.57627 98.3466 12.0456 100.46 15.4002 102.502L16.8816 103.403C17.069 103.517 17.1292 103.761 17.0145 103.948C16.9372 104.07 16.8066 104.137 16.6725 104.137Z" fill="black"/>
<path id="Vector_17" d="M4.71954 102.257C4.71954 102.257 5.45226 102.415 8.1639 103.797C10.8755 105.178 15.6808 108.161 15.6808 108.161" fill="white"/>
<path id="Vector_18" d="M15.6808 108.557C15.6093 108.557 15.5354 108.538 15.4707 108.498C15.4229 108.468 10.6483 105.508 7.98328 104.149C5.40115 102.835 4.66162 102.651 4.63208 102.643C4.41965 102.592 4.2856 102.381 4.33445 102.168C4.3833 101.957 4.59233 101.824 4.80589 101.869C4.88655 101.886 5.66698 102.078 8.34794 103.444C11.0437 104.817 15.8467 107.794 15.8944 107.823C16.0818 107.94 16.1386 108.184 16.0216 108.37C15.9432 108.491 15.8137 108.557 15.6808 108.557Z" fill="black"/>
<path id="Vector_19" d="M4.4151 107.747C4.4151 107.747 6.61894 108.521 7.51183 108.877C8.00599 109.074 14.705 112.473 14.705 112.473" fill="white"/>
<path id="Vector_20" d="M14.705 112.868C14.6437 112.868 14.5823 112.855 14.5244 112.825C11.8389 111.462 7.71522 109.384 7.36533 109.245C6.48947 108.897 4.30494 108.128 4.28336 108.12C4.07547 108.048 3.96641 107.821 4.04025 107.614C4.11409 107.408 4.34129 107.3 4.54918 107.373C4.64006 107.404 6.7712 108.154 7.66182 108.508C8.15939 108.705 14.2006 111.769 14.8879 112.118C15.0844 112.218 15.1617 112.457 15.0617 112.651C14.9902 112.789 14.8493 112.868 14.705 112.868Z" fill="black"/>
<path id="Vector_21" d="M95.6848 156.594L52.7599 153.222L47.5479 116.449L15.9728 121.967C15.9728 121.967 26.1388 159.552 35.3847 169.511C48.4158 183.546 87.4045 184.325 86.9978 184.325C86.5911 184.325 95.6848 156.594 95.6848 156.594Z" fill="#008DFF"/>
<path id="Vector_22" d="M52.7598 153.618C52.5645 153.618 52.3941 153.475 52.3657 153.277L47.2116 116.909L16.0421 122.358C15.8239 122.394 15.6183 122.25 15.5797 122.036C15.5411 121.82 15.6865 121.614 15.9035 121.576L47.4786 116.059C47.5854 116.042 47.6944 116.066 47.7819 116.129C47.8694 116.192 47.9273 116.288 47.9421 116.394L53.154 153.167C53.1847 153.384 53.0325 153.585 52.8144 153.616C52.7973 153.617 52.778 153.618 52.7598 153.618Z" fill="black"/>
<path id="Vector_23" d="M143.416 162.832L157.229 212.342C150.034 231.506 88.4053 230.022 82.4322 218.145L83.6023 167.567C83.8511 161.473 88.7495 156.582 94.8782 156.307L131.626 154.663C136.961 154.423 141.795 157.772 143.416 162.832Z" fill="#008DFF"/>
<path id="Vector_24" d="M82.4333 218.54C82.4299 218.54 82.4276 218.54 82.4242 218.54C82.2038 218.536 82.03 218.354 82.0346 218.135L83.2047 167.557C83.2092 167.338 83.3864 167.156 83.6125 167.17C83.8329 167.174 84.0067 167.356 84.0021 167.575L82.832 218.153C82.8264 218.37 82.6491 218.54 82.4333 218.54Z" fill="black"/>
<path id="Vector_25" d="M157.229 212.737C157.054 212.737 156.894 212.622 156.845 212.447L143.032 162.937C142.973 162.726 143.098 162.508 143.309 162.449C143.522 162.391 143.741 162.514 143.8 162.724L157.613 212.235C157.672 212.446 157.547 212.664 157.335 212.723C157.3 212.733 157.264 212.737 157.229 212.737Z" fill="black"/>
<path id="Vector_26" d="M202.093 35.6572L204.056 75.6932C201.586 78.4048 200.199 79.9205 197.729 82.6322L94.1126 87.6546L80.1682 96.7767L90.8113 106.128L68.7025 116.872L78.2267 106.091L62.6397 97.7536L66.3669 88.9997L37.6829 90.39C34.9599 87.9302 33.4309 86.5557 30.7067 84.0959L28.7437 44.0599C31.2134 41.3482 32.6004 39.8281 35.0701 37.1209L195.119 29.3642C197.841 31.8195 199.37 33.1985 202.093 35.6572Z" fill="#F97328"/>
<path id="Vector_27" d="M50.3606 72.1028L45.0566 53.9738L48.8702 53.7885L52.2691 66.2526L55.0239 53.4904L59.4543 53.2758L63.3167 65.9307L65.5205 52.981L69.2705 52.7992L65.6898 71.3586L61.7388 71.5505L57.3913 58.0159L54.4002 71.9074L50.3606 72.1028Z" fill="white"/>
<path id="Vector_28" d="M72.0696 71.0514L71.1699 52.7089L84.8496 52.0459L85.0019 55.1483L75.0471 55.6306L75.247 59.6964L84.51 59.2481L84.6611 62.3381L75.3981 62.7864L75.6435 67.7784L85.9504 67.2792L86.1015 70.3692L72.0696 71.0514Z" fill="white"/>
<path id="Vector_29" d="M89.3606 70.2133L88.4689 52.021L92.1938 51.8403L92.9345 66.9415L102.197 66.492L102.349 69.582L89.3606 70.2133Z" fill="white"/>
<path id="Vector_30" d="M116.478 62.1393L120.145 63.1027C119.69 65.1311 118.842 66.6625 117.602 67.6971C116.361 68.7316 114.751 69.2963 112.771 69.3923C110.322 69.5109 108.267 68.7768 106.609 67.1888C104.95 65.6009 104.049 63.3647 103.908 60.478C103.758 57.4252 104.435 55.0151 105.938 53.2498C107.441 51.4834 109.484 50.5381 112.069 50.4128C114.325 50.3032 116.192 50.8781 117.666 52.1351C118.543 52.8794 119.228 53.9749 119.72 55.4228L116.076 56.4776C115.811 55.5368 115.319 54.8084 114.6 54.2911C113.881 53.7739 113.026 53.5401 112.036 53.5875C110.669 53.6542 109.583 54.1963 108.779 55.2127C107.975 56.2303 107.628 57.8307 107.734 60.0172C107.848 62.3358 108.349 63.9667 109.236 64.9108C110.123 65.8539 111.238 66.2943 112.58 66.2288C113.57 66.1803 114.407 65.8268 115.09 65.1661C115.769 64.5065 116.233 63.4968 116.478 62.1393Z" fill="white"/>
<path id="Vector_31" d="M122.417 59.5315C122.325 57.6635 122.53 56.0812 123.029 54.7858C123.403 53.8315 123.935 52.9652 124.624 52.1871C125.314 51.41 126.082 50.8205 126.928 50.4207C128.054 49.882 129.368 49.5748 130.87 49.5025C133.589 49.3703 135.804 50.1045 137.518 51.7014C139.231 53.2984 140.163 55.5911 140.308 58.5772C140.453 61.5385 139.757 63.8944 138.22 65.6449C136.683 67.3966 134.559 68.3374 131.849 68.4684C129.106 68.6017 126.884 67.8755 125.182 66.2898C123.483 64.703 122.56 62.451 122.417 59.5315ZM126.25 59.2198C126.351 61.2968 126.911 62.8474 127.929 63.8729C128.946 64.8984 130.198 65.375 131.682 65.3027C133.167 65.2304 134.36 64.6398 135.261 63.5307C136.16 62.4205 136.559 60.8032 136.455 58.6754C136.351 56.5736 135.811 55.0286 134.834 54.0381C133.856 53.0488 132.599 52.5914 131.063 52.6659C129.527 52.7405 128.316 53.3244 127.428 54.4165C126.539 55.5086 126.147 57.1101 126.25 59.2198Z" fill="white"/>
<path id="Vector_32" d="M143.615 67.5841L142.715 49.2416L148.291 48.9717L152.251 61.3216L154.946 48.6498L160.534 48.3787L161.434 66.7212L157.974 66.8895L157.266 52.4513L154.313 67.0668L150.726 67.2408L146.369 52.9788L147.076 67.4169L143.615 67.5841Z" fill="white"/>
<path id="Vector_33" d="M165.134 66.5406L164.234 48.198L177.914 47.5351L178.066 50.6375L168.112 51.1198L168.312 55.1856L177.574 54.7361L177.726 57.8261L168.463 58.2756L168.708 63.2676L179.015 62.7684L179.166 65.8584L165.134 66.5406Z" fill="white"/>
<path id="Vector_34" d="M125.165 155.384C125.165 155.384 122.058 145.549 124.923 136.034L106.925 141.608L105.204 156.831C106.631 161.622 115.526 159.396 125.165 155.384Z" fill="white"/>
<path id="Vector_35" d="M110.124 159.949C108.823 159.949 107.751 159.748 106.903 159.349C105.85 158.852 105.15 158.042 104.823 156.943C104.808 156.892 104.803 156.839 104.809 156.787L106.53 141.564C106.548 141.408 106.656 141.276 106.807 141.23L124.805 135.656C124.945 135.613 125.099 135.649 125.204 135.753C125.308 135.856 125.348 136.009 125.305 136.149C122.507 145.439 125.514 155.169 125.545 155.266C125.606 155.461 125.508 155.671 125.318 155.75C118.572 158.558 113.55 159.949 110.124 159.949ZM105.611 156.793C105.883 157.64 106.418 158.242 107.245 158.633C110.034 159.948 115.9 158.779 124.683 155.154C124.184 153.357 122.097 144.923 124.338 136.63L107.292 141.908L105.611 156.793Z" fill="black"/>
<g id="Group">
<path id="Vector_36" d="M107.865 143.128C103.258 142.399 98.8997 140.423 96.5788 136.013C87.0353 117.883 116.143 100.218 116.143 100.218L131.464 114.637C131.464 114.637 135.316 127.602 135.654 127.418C135.991 127.234 124.774 141.854 124.774 141.854" fill="white"/>
<path id="Vector_37" d="M107.866 143.525C107.845 143.525 107.824 143.524 107.803 143.52C102.212 142.636 98.3169 140.171 96.2255 136.197C92.2393 128.623 94.4045 119.928 102.487 111.05C108.54 104.402 115.862 99.9232 115.935 99.8792C116.088 99.7854 116.286 99.8069 116.417 99.93L131.738 114.349C131.789 114.398 131.827 114.457 131.846 114.525C133.172 118.987 135.399 126.205 135.886 127.091C135.914 127.11 135.94 127.133 135.963 127.159C136.206 127.44 136.206 127.44 134.322 129.958C133.306 131.318 131.941 133.121 130.574 134.919C127.839 138.514 125.091 142.095 125.091 142.095C124.957 142.27 124.707 142.303 124.532 142.169C124.357 142.036 124.323 141.788 124.457 141.614C128.427 136.441 134.317 128.709 135.196 127.421C134.79 126.626 133.827 123.985 131.112 114.85L116.093 100.716C114.749 101.568 108.405 105.726 103.068 111.593C95.127 120.321 93.0629 128.475 96.9333 135.829C98.9019 139.57 102.602 141.894 107.929 142.737C108.146 142.772 108.294 142.975 108.26 143.191C108.227 143.386 108.058 143.525 107.866 143.525ZM135.52 127.043C135.5 127.05 135.481 127.059 135.462 127.069C135.481 127.059 135.5 127.051 135.52 127.043Z" fill="black"/>
<path id="Vector_38" d="M104.076 114.514C104.741 114.508 105.404 114.717 105.926 115.096C106.447 115.474 106.824 116.019 106.977 116.616" fill="white"/>
<path id="Vector_39" d="M106.976 117.012C106.797 117.012 106.635 116.892 106.589 116.713C106.462 116.209 106.134 115.736 105.691 115.415C105.241 115.089 104.646 114.893 104.08 114.909C104.079 114.909 104.078 114.909 104.076 114.909C103.857 114.909 103.68 114.734 103.678 114.516C103.675 114.297 103.853 114.119 104.073 114.116C104.821 114.114 105.567 114.343 106.161 114.774C106.761 115.208 107.188 115.827 107.363 116.517C107.416 116.73 107.288 116.945 107.073 116.999C107.041 117.009 107.008 117.012 106.976 117.012Z" fill="black"/>
<path id="Vector_40" d="M104.69 118.618C105.252 117.798 105.241 116.817 104.665 116.427C104.09 116.037 103.167 116.386 102.606 117.207C102.044 118.027 102.055 119.008 102.63 119.397C103.206 119.787 104.128 119.438 104.69 118.618Z" fill="black"/>
<path id="Vector_41" d="M113.376 121.234C114.04 121.228 114.704 121.437 115.225 121.815C115.747 122.194 116.124 122.739 116.276 123.336" fill="white"/>
<path id="Vector_42" d="M116.275 123.732C116.096 123.732 115.934 123.612 115.889 123.433C115.759 122.922 115.44 122.461 114.99 122.135C114.54 121.81 113.963 121.64 113.379 121.63C113.378 121.63 113.377 121.63 113.376 121.63C113.156 121.63 112.979 121.455 112.977 121.237C112.975 121.018 113.152 120.84 113.372 120.837C114.117 120.84 114.866 121.064 115.46 121.495C116.06 121.931 116.487 122.55 116.662 123.238C116.716 123.451 116.586 123.667 116.372 123.72C116.34 123.727 116.307 123.732 116.275 123.732Z" fill="black"/>
<path id="Vector_43" d="M113.988 125.336C114.55 124.516 114.539 123.535 113.964 123.146C113.388 122.756 112.466 123.105 111.904 123.925C111.342 124.745 111.353 125.726 111.929 126.116C112.504 126.505 113.426 126.157 113.988 125.336Z" fill="black"/>
<path id="Vector_44" d="M108.882 120.023C108.814 121.02 108.235 121.928 107.49 122.599C106.745 123.27 105.839 123.735 104.94 124.182C104.116 124.59 103.245 125.026 102.76 125.804C102.116 126.838 102.417 128.343 103.408 129.054" fill="white"/>
<path id="Vector_45" d="M103.408 129.451C103.328 129.451 103.246 129.426 103.176 129.377C102.01 128.541 101.665 126.811 102.421 125.597C102.97 124.717 103.922 124.245 104.763 123.828C105.701 123.363 106.535 122.926 107.223 122.307C107.982 121.623 108.43 120.803 108.485 119.997C108.5 119.779 108.691 119.62 108.91 119.628C109.131 119.642 109.296 119.832 109.282 120.05C109.213 121.062 108.673 122.072 107.759 122.894C106.996 123.581 106.112 124.045 105.12 124.537C104.339 124.925 103.53 125.326 103.102 126.015C102.567 126.873 102.82 128.143 103.645 128.734C103.823 128.862 103.864 129.11 103.735 129.288C103.654 129.394 103.532 129.451 103.408 129.451Z" fill="black"/>
<path id="Vector_46" d="M123.291 145.768C123.522 141.426 125.404 137.7 127.613 134.089C127.613 134.089 126.533 134.303 122.8 131.405C119.067 128.512 120.157 122.28 121.293 120.246L106.554 108.301C106.554 108.301 103.914 107.123 104.983 103.206C105.988 99.52 111.558 97.4464 114.84 96.8275C121.399 95.5863 128.724 98.4844 133.266 103.21C137.975 108.11 141.11 114.448 142.29 121.113C142.821 124.087 140.113 138.315 140.91 141.969C141.792 146.013 142.074 149.054 143.733 152.848L123.291 145.768Z" fill="black"/>
<path id="Vector_47" d="M122.912 131.97C122.912 131.97 129.356 126.278 132.003 131.933C134.65 137.587 129.757 142.263 123.775 141.579" fill="white"/>
<path id="Vector_48" d="M124.941 142.043C124.543 142.043 124.138 142.02 123.73 141.973C123.511 141.948 123.354 141.752 123.379 141.534C123.404 141.316 123.602 141.161 123.821 141.185C126.884 141.535 129.738 140.44 131.269 138.328C132.558 136.552 132.691 134.339 131.641 132.099C131.058 130.851 130.232 130.109 129.189 129.893C126.529 129.342 123.21 132.236 123.177 132.265C123.012 132.41 122.76 132.396 122.615 132.232C122.468 132.068 122.483 131.817 122.648 131.673C122.795 131.542 126.297 128.484 129.349 129.117C130.653 129.386 131.668 130.277 132.365 131.764C133.541 134.276 133.382 136.772 131.915 138.792C130.423 140.851 127.821 142.042 124.941 142.043Z" fill="black"/>
<path id="Vector_49" d="M126.756 133.166C127.586 133.706 128.106 134.687 128.085 135.674C128.063 136.66 127.501 137.619 126.648 138.123" fill="white"/>
<path id="Vector_50" d="M126.648 138.519C126.511 138.519 126.378 138.45 126.305 138.325C126.192 138.136 126.255 137.893 126.444 137.782C127.18 137.347 127.668 136.516 127.686 135.665C127.704 134.814 127.253 133.963 126.537 133.497C126.353 133.377 126.301 133.131 126.422 132.948C126.542 132.765 126.79 132.714 126.974 132.833C127.915 133.445 128.507 134.563 128.483 135.681C128.458 136.799 127.818 137.891 126.851 138.462C126.787 138.502 126.717 138.519 126.648 138.519Z" fill="black"/>
<g id="Group_2">
<path id="Vector_51" d="M106.321 136.1C106.101 136.1 105.882 136.088 105.663 136.06C104.488 135.919 103.366 135.394 102.508 134.583C102.347 134.432 102.342 134.181 102.493 134.023C102.644 133.864 102.897 133.858 103.056 134.008C103.792 134.703 104.752 135.152 105.759 135.273C106.766 135.395 107.806 135.186 108.687 134.686C108.878 134.576 109.123 134.643 109.232 134.834C109.341 135.024 109.274 135.267 109.083 135.375C108.246 135.85 107.284 136.1 106.321 136.1Z" fill="black"/>
</g>
</g>
<g id="Group_3">
<path id="Vector_52" d="M164.595 115.109C164.366 115.109 164.136 115.045 163.931 114.909C163.381 114.544 163.234 113.806 163.601 113.259C164.181 112.395 164.783 111.409 164.573 110.657C164.489 110.358 164.253 110.041 164.082 109.829C163.605 109.237 163.044 108.722 162.412 108.297C162.118 108.099 161.803 107.916 161.469 107.723C160.93 107.41 160.372 107.087 159.843 106.663C158.651 105.709 157.989 104.455 158.023 103.222C158.059 101.956 158.76 101.009 159.378 100.172C159.815 99.5788 160.23 99.0197 160.279 98.5002C160.329 97.9694 159.973 97.3347 159.372 96.8829C158.687 96.3668 157.76 96.0731 156.864 95.7896C156.235 95.5897 155.887 94.92 156.088 94.2943C156.289 93.6686 156.963 93.323 157.591 93.5229C158.628 93.8516 159.804 94.2254 160.815 94.9866C162.081 95.9387 162.787 97.3708 162.659 98.7227C162.547 99.8973 161.887 100.792 161.305 101.58C160.834 102.217 160.428 102.767 160.413 103.29C160.399 103.767 160.746 104.335 161.341 104.811C161.73 105.122 162.187 105.387 162.671 105.667C163.025 105.872 163.39 106.084 163.75 106.327C164.581 106.886 165.32 107.564 165.948 108.343C166.275 108.749 166.677 109.307 166.876 110.019C167.398 111.886 166.22 113.639 165.587 114.579C165.36 114.923 164.981 115.109 164.595 115.109Z" fill="#008DFF"/>
</g>
<g id="Group_4">
<path id="Vector_53" d="M58.9022 22.7019C58.6739 22.7019 58.4433 22.6376 58.2388 22.5009C57.689 22.1361 57.5413 21.3975 57.9082 20.8509C58.4887 19.9869 59.0908 19.0009 58.8806 18.2499C58.8159 18.0183 58.6648 17.7631 58.3899 17.422C57.9139 16.8313 57.3516 16.3152 56.7199 15.8906C56.4257 15.6929 56.111 15.51 55.7759 15.3168C55.2363 15.004 54.6786 14.681 54.1503 14.2575C52.9586 13.3031 52.2964 12.0495 52.3316 10.8162C52.3679 9.55126 53.0677 8.60257 53.6868 7.76569C54.1242 7.17275 54.5388 6.61371 54.5877 6.09418C54.6377 5.56337 54.2821 4.92865 53.6823 4.47689C52.9984 3.96188 52.0703 3.66711 51.174 3.3825C50.5446 3.1826 50.197 2.51287 50.3992 1.88718C50.6003 1.2615 51.2728 0.914775 51.9033 1.11694C52.9405 1.44672 54.1174 1.82055 55.1273 2.58063C56.3928 3.53271 57.0994 4.96479 56.971 6.31667C56.8597 7.49125 56.1997 8.38573 55.6169 9.17404C55.1466 9.81102 54.7399 10.361 54.7251 10.884C54.7115 11.3606 55.058 11.9286 55.6532 12.4052C56.0418 12.7158 56.4996 12.9812 56.9835 13.2613C57.3368 13.4657 57.7026 13.6781 58.0638 13.9209C58.8943 14.4799 59.6338 15.1576 60.2609 15.9357C60.588 16.3434 60.9902 16.9014 61.189 17.6129C61.7115 19.4798 60.5335 21.2326 59.9007 22.1734C59.6679 22.5167 59.2884 22.7019 58.9022 22.7019Z" fill="#F6538A"/>
</g>
<g id="Group_5">
<path id="Vector_54" d="M141.592 21.2992C141.359 21.2992 141.144 21.2936 140.957 21.2879C140.297 21.2699 139.776 20.7221 139.795 20.0648C139.814 19.4086 140.363 18.8981 141.025 18.9094C142.07 18.9388 143.23 18.923 143.758 18.3447C143.92 18.1674 144.057 17.9043 144.202 17.492C144.453 16.776 144.593 16.0283 144.619 15.2716C144.632 14.9181 144.619 14.5556 144.607 14.1716C144.586 13.5516 144.565 12.9101 144.644 12.2392C144.824 10.7281 145.539 9.50383 146.609 8.87814C147.706 8.23665 148.886 8.32135 149.928 8.39815C150.666 8.45123 151.362 8.50205 151.83 8.26714C152.309 8.02658 152.661 7.39073 152.727 6.6442C152.802 5.79376 152.56 4.85636 152.326 3.95059C152.161 3.31474 152.547 2.66647 153.187 2.5027C153.828 2.33781 154.478 2.72294 154.643 3.35879C154.914 4.408 155.221 5.59612 155.111 6.85201C154.973 8.423 154.129 9.7794 152.909 10.3904C151.849 10.9212 150.736 10.8422 149.754 10.7699C148.962 10.7123 148.277 10.6626 147.824 10.928C147.41 11.1697 147.11 11.7637 147.022 12.5182C146.964 13.0106 146.981 13.5369 146.999 14.0937C147.013 14.5003 147.026 14.9215 147.012 15.3541C146.977 16.3502 146.792 17.3328 146.463 18.2747C146.29 18.7671 146.029 19.4018 145.528 19.9473C144.431 21.1445 142.772 21.2992 141.592 21.2992Z" fill="#8670C5"/>
</g>
<g id="Group_6">
<path id="Vector_55" d="M69.3239 145.117C68.9377 145.117 68.5582 144.932 68.3276 144.589C67.6949 143.647 66.518 141.895 67.0394 140.028C67.2382 139.317 67.6404 138.759 67.9675 138.352C68.5946 137.574 69.333 136.895 70.1634 136.336C70.5247 136.093 70.8893 135.882 71.2426 135.676C71.7265 135.396 72.1844 135.131 72.5729 134.819C73.167 134.343 73.5146 133.775 73.501 133.298C73.4862 132.775 73.0795 132.225 72.6092 131.589C72.0265 130.8 71.3653 129.906 71.2551 128.732C71.1279 127.38 71.8345 125.948 73.0988 124.996C74.111 124.235 75.2868 123.861 76.3239 123.532C76.9533 123.332 77.6258 123.678 77.8269 124.303C78.0279 124.929 77.6803 125.599 77.051 125.798C76.1547 126.082 75.2288 126.376 74.5427 126.892C73.9429 127.344 73.5873 127.979 73.6373 128.509C73.6861 129.028 74.0997 129.588 74.5381 130.181C75.1561 131.018 75.857 131.966 75.8934 133.231C75.9286 134.465 75.2652 135.718 74.0747 136.673C73.5453 137.096 72.9875 137.419 72.4479 137.732C72.1139 137.925 71.7981 138.108 71.505 138.306C70.8734 138.73 70.3122 139.247 69.8351 139.838C69.6647 140.051 69.4284 140.367 69.3444 140.666C69.1342 141.418 69.7363 142.403 70.3168 143.268C70.6837 143.815 70.536 144.552 69.9862 144.918C69.7829 145.053 69.5522 145.117 69.3239 145.117Z" fill="#8670C5"/>
</g>
<g id="Group_7">
<path id="Vector_56" d="M147.627 99.8284C149.454 99.8284 150.934 98.3564 150.934 96.5407C150.934 94.725 149.454 93.253 147.627 93.253C145.801 93.253 144.32 94.725 144.32 96.5407C144.32 98.3564 145.801 99.8284 147.627 99.8284Z" fill="#8670C5"/>
</g>
<g id="Group_8">
<path id="Vector_57" d="M13.1158 72.6528C15.0802 72.6528 16.6726 71.0697 16.6726 69.1167C16.6726 67.1637 15.0802 65.5806 13.1158 65.5806C11.1514 65.5806 9.55896 67.1637 9.55896 69.1167C9.55896 71.0697 11.1514 72.6528 13.1158 72.6528Z" fill="#F6538A"/>
</g>
<g id="Group_9">
<path id="Vector_58" d="M109.476 16.9962C110.525 16.9962 111.376 16.1503 111.376 15.1068C111.376 14.0632 110.525 13.2173 109.476 13.2173C108.426 13.2173 107.575 14.0632 107.575 15.1068C107.575 16.1503 108.426 16.9962 109.476 16.9962Z" fill="#008DFF"/>
</g>
<g id="Group_10">
<path id="Vector_59" d="M161.522 18.9829C162.625 18.9829 163.52 18.0934 163.52 16.9962C163.52 15.8991 162.625 15.0096 161.522 15.0096C160.418 15.0096 159.523 15.8991 159.523 16.9962C159.523 18.0934 160.418 18.9829 161.522 18.9829Z" fill="#F6538A"/>
</g>
<g id="Group_11">
<path id="Vector_60" d="M40.2445 23.2034C41.5188 23.2034 42.5517 22.1764 42.5517 20.9096C42.5517 19.6428 41.5188 18.6158 40.2445 18.6158C38.9703 18.6158 37.9373 19.6428 37.9373 20.9096C37.9373 22.1764 38.9703 23.2034 40.2445 23.2034Z" fill="#D4E8E8"/>
</g>
</g>
</svg>
