<svg width="18" height="20" viewBox="0 0 18 20" fill="none" xmlns="http://www.w3.org/2000/svg">
<g clip-path="url(#clip0_1_6182)">
<path d="M17.0085 4.27966L9.99146 0.263438C9.69002 0.0908565 9.34808 0 9 0C8.65192 0 8.30998 0.0908565 8.00854 0.263438L0.991463 4.27966C0.689955 4.45228 0.439592 4.70057 0.26555 4.99958C0.0915085 5.29858 -7.81384e-05 5.63775 5.00207e-08 5.98299V14.0179C0.000356721 14.3627 0.0921496 14.7014 0.26617 14.9999C0.44019 15.2984 0.690318 15.5464 0.991463 15.7188L8.00854 19.735C8.31063 19.9057 8.65232 19.9954 9 19.9954C9.34768 19.9954 9.68937 19.9057 9.99146 19.735L17.0085 15.7188C17.3097 15.5464 17.5598 15.2984 17.7338 14.9999C17.9078 14.7014 17.9996 14.3627 18 14.0179V5.98299C18.0001 5.63775 17.9085 5.29858 17.7344 4.99958C17.5604 4.70057 17.31 4.45228 17.0085 4.27966ZM9 1.96677L15.0256 5.40784L9 8.86366L2.97439 5.42259L9 1.96677ZM1.98292 14.0179V7.11854L8.00854 10.567V17.4663L1.98292 14.0179ZM9.99146 17.4663V10.567L16.0171 7.12592V14.0179L9.99146 17.4663Z" fill="#073B4C"/>
</g>
<defs>
<clipPath id="clip0_1_6182">
<rect width="18" height="20" fill="white"/>
</clipPath>
</defs>
</svg>
