<?xml version="1.0" encoding="utf-8"?>
<!-- Generator: Adobe Illustrator 27.6.1, SVG Export Plug-In . SVG Version: 6.00 Build 0)  -->
<svg version="1.1" id="Layer_1" xmlns="http://www.w3.org/2000/svg" xmlns:xlink="http://www.w3.org/1999/xlink" x="0px" y="0px"
	 viewBox="0 0 400 170" style="enable-background:new 0 0 400 170;" xml:space="preserve">
<style type="text/css">
	.st0{fill:#D9E0FF;}
	.st1{fill:#6878FF;}
	.st2{fill:#F3FAFF;}
	.st3{fill:#FFFFFF;}
	.st4{opacity:0.2;fill:#6878FF;}
	.st5{opacity:0.2;fill:none;stroke:#6878FF;stroke-miterlimit:10;}
	.st6{fill:#FF597C;}
	.st7{opacity:0.2;fill:#FF597C;}
	.st8{opacity:0.2;fill:none;stroke:#FF597C;stroke-miterlimit:10;}
	.st9{fill:#00CDC2;}
	.st10{opacity:0.2;fill:#00CDC2;}
	.st11{opacity:0.2;fill:none;stroke:#00CDC2;stroke-miterlimit:10;}
	.st12{fill:#6C8BAD;}
	.st13{opacity:0.2;fill:#5475A1;}
	.st14{opacity:0.2;fill:#6C8BAD;}
	.st15{opacity:0.2;fill:none;stroke:#6C8BAD;stroke-miterlimit:10;}
	.st16{fill:#FFB53A;}
	.st17{opacity:0.2;fill:#FFB53A;}
	.st18{opacity:0.2;fill:none;stroke:#FFB53A;stroke-miterlimit:10;}
</style>
<g>
	<rect class="st0" width="400" height="170"/>
	<path class="st1" d="M377.17,45H22.89c-1.65,0-3-1.35-3-3V23c0-1.65,1.35-3,3-3h354.29c1.65,0,3,1.35,3,3v19
		C380.17,43.65,378.82,45,377.17,45z"/>
	<g>
		<g>
			<path class="st2" d="M369.5,35c-0.13,0-0.26-0.05-0.35-0.15l-4-4c-0.2-0.2-0.2-0.51,0-0.71s0.51-0.2,0.71,0l4,4
				c0.2,0.2,0.2,0.51,0,0.71C369.76,34.95,369.63,35,369.5,35z"/>
		</g>
		<g>
			<path class="st2" d="M365.5,35c-0.13,0-0.26-0.05-0.35-0.15c-0.2-0.2-0.2-0.51,0-0.71l4-4c0.2-0.2,0.51-0.2,0.71,0
				s0.2,0.51,0,0.71l-4,4C365.76,34.95,365.63,35,365.5,35z"/>
		</g>
	</g>
	<path class="st2" d="M47.5,34.92h-15c-1.38,0-2.5-1.12-2.5-2.5v0c0-1.38,1.12-2.5,2.5-2.5h15c1.38,0,2.5,1.12,2.5,2.5v0
		C50,33.8,48.88,34.92,47.5,34.92z"/>
	<g>
		<path class="st3" d="M214.35,29.18c-0.12-0.12-0.28-0.19-0.45-0.19h-1.27c-0.35,0-0.64,0.29-0.64,0.64v2.9
			c0,0.35,0.29,0.64,0.64,0.64h3.4c0.35,0,0.64-0.29,0.64-0.64v-0.54c0-0.31-0.12-0.61-0.34-0.83L214.35,29.18z M215.96,32.45h-3.26
			V29.7h1.17l1.96,1.96c0.09,0.09,0.14,0.21,0.14,0.33V32.45z"/>
		<path class="st3" d="M218.27,30.59l-3.39-3.39c-0.22-0.22-0.52-0.34-0.83-0.34h-2.84c-0.35,0-0.64,0.29-0.64,0.64v6.2
			c0,0.1-0.08,0.18-0.18,0.18h-0.71v0l0,0v-7.46c0-0.49-0.4-0.89-0.89-0.89h-13.54c-0.49,0-0.89,0.4-0.89,0.89v7.46h0v2.05
			c0,0.49,0.4,0.89,0.89,0.89h1.9c-0.01,0.1-0.02,0.21-0.02,0.32c0,1.29,1.05,2.35,2.35,2.35s2.35-1.05,2.35-2.35
			c0-0.11-0.01-0.22-0.02-0.32h7.27c-0.01,0.1-0.02,0.21-0.02,0.32c0,1.29,1.05,2.35,2.35,2.35c1.29,0,2.35-1.05,2.35-2.35
			c0-0.11-0.01-0.22-0.02-0.32h4c0.49,0,0.89-0.4,0.89-0.89V34.9v-0.07v-0.71V34.1v-0.94V32.9v-1.48
			C218.62,31.11,218.49,30.81,218.27,30.59z M195.08,26.41c0-0.1,0.08-0.18,0.18-0.18h13.54c0.1,0,0.18,0.08,0.18,0.18v7.46h-3.91
			v-4.73c0-0.36-0.29-0.66-0.66-0.66h-3.27c-0.36,0-0.66,0.29-0.66,0.66v0.84h-1.53c-0.44,0-0.8,0.36-0.8,0.8v2.98
			c0,0.04,0.02,0.07,0.02,0.11h-3.09V26.41z M198.74,33.76v-2.98c0-0.11,0.09-0.2,0.2-0.2h2.98c0.11,0,0.2,0.09,0.2,0.2v2.98
			c0,0.04-0.02,0.08-0.05,0.11h-3.29C198.77,33.84,198.74,33.8,198.74,33.76z M204.46,33.87h-1.76c0.01-0.04,0.02-0.07,0.02-0.11
			v-2.98c0-0.44-0.36-0.8-0.8-0.8h-0.85v-0.84c0-0.03,0.03-0.06,0.06-0.06h3.27c0.03,0,0.06,0.03,0.06,0.06V33.87z M199.48,38.77
			c-0.9,0-1.64-0.73-1.64-1.64s0.73-1.64,1.64-1.64s1.64,0.73,1.64,1.64S200.39,38.77,199.48,38.77z M211.41,38.77
			c-0.9,0-1.64-0.73-1.64-1.64s0.73-1.64,1.64-1.64s1.64,0.73,1.64,1.64S212.31,38.77,211.41,38.77z M217.91,34.1v0.02h-0.66
			c-0.12,0-0.23-0.1-0.23-0.23s0.1-0.23,0.23-0.23h0.66V34.1z M217.91,32.9v0.05h-0.66c-0.52,0-0.94,0.42-0.94,0.94
			s0.42,0.94,0.94,0.94h0.66v0.07v1.02c0,0.1-0.08,0.18-0.18,0.18h-4.22c-0.38-0.78-1.18-1.31-2.11-1.31
			c-0.92,0-1.72,0.54-2.11,1.31h-7.71c-0.38-0.78-1.18-1.31-2.11-1.31s-1.72,0.54-2.11,1.31h-2.12c-0.1,0-0.18-0.08-0.18-0.18v-1.34
			h14.6h0.71c0.49,0,0.89-0.4,0.89-0.89v-5.95c0-0.1,0.08-0.18,0.18-0.18h2.6c0.12,0,0.24,0.05,0.33,0.14l3.39,3.39
			c0.09,0.09,0.14,0.21,0.14,0.33V32.9z"/>
		<path class="st3" d="M191.9,27.68h-6.3c-0.2,0-0.37,0.17-0.37,0.37s0.17,0.37,0.37,0.37h6.3c0.2,0,0.37-0.17,0.37-0.37
			S192.1,27.68,191.9,27.68z"/>
		<path class="st3" d="M191.9,29.58h-10.09c-0.2,0-0.37,0.17-0.37,0.37s0.17,0.37,0.37,0.37h10.09c0.2,0,0.37-0.17,0.37-0.37
			S192.1,29.58,191.9,29.58z"/>
		<path class="st3" d="M191.9,31.28h-4.54c-0.2,0-0.37,0.17-0.37,0.37s0.17,0.37,0.37,0.37h4.54c0.2,0,0.37-0.17,0.37-0.37
			S192.1,31.28,191.9,31.28z"/>
		<path class="st3" d="M191.9,33.13h-9.16c-0.2,0-0.37,0.17-0.37,0.37s0.17,0.37,0.37,0.37h9.16c0.2,0,0.37-0.17,0.37-0.37
			S192.1,33.13,191.9,33.13z"/>
	</g>
	<g>
		<g>
			<path class="st1" d="M71.15,111.03H27.19c-1.35,0-2.44-1.09-2.44-2.44v0c0-1.35,1.09-2.44,2.44-2.44h43.96
				c1.35,0,2.44,1.09,2.44,2.44v0C73.59,109.94,72.5,111.03,71.15,111.03z"/>
			<path class="st4" d="M60.33,119.99H27.19c-1.35,0-2.44-1.09-2.44-2.44v0c0-1.35,1.09-2.44,2.44-2.44h33.14
				c1.35,0,2.44,1.09,2.44,2.44v0C62.77,118.89,61.68,119.99,60.33,119.99z"/>
			<path class="st4" d="M78.73,100.45H27.75c-1.66,0-3-1.34-3-3v-34.7c0-1.66,1.34-3,3-3h50.98c1.66,0,3,1.34,3,3v34.7
				C81.73,99.11,80.39,100.45,78.73,100.45z"/>
			<path class="st1" d="M25.59,90.04L36.3,79.33c1.11-1.11,2.92-1.11,4.03,0l4.29,4.29c1.11,1.11,2.92,1.11,4.03,0l11.42-11.42
				c1.11-1.11,2.92-1.11,4.03,0l16.83,16.83c0.53,0.53,0.84,1.26,0.84,2.02v6.56c0,1.57-1.28,2.85-2.85,2.85H27.6
				c-1.57,0-2.85-1.28-2.85-2.85v-5.54C24.75,91.3,25.05,90.58,25.59,90.04z"/>
			<circle class="st1" cx="46.64" cy="70.87" r="4.42"/>
			<path class="st1" d="M48.66,140.54H30.45c-3.13,0-5.69-2.56-5.69-5.69v-0.01c0-3.13,2.56-5.69,5.69-5.69h18.21
				c3.13,0,5.69,2.56,5.69,5.69v0.01C54.35,137.98,51.79,140.54,48.66,140.54z"/>
			<path class="st3" d="M43.92,136.47h-8.74c-0.9,0-1.63-0.73-1.63-1.63v0c0-0.9,0.73-1.63,1.63-1.63h8.74
				c0.9,0,1.63,0.73,1.63,1.63v0C45.55,135.74,44.82,136.47,43.92,136.47z"/>
			<path class="st5" d="M81.53,145.29H25c-2.76,0-5-2.24-5-5V60c0-2.76,2.24-5,5-5h56.53c2.76,0,5,2.24,5,5v80.29
				C86.53,143.05,84.29,145.29,81.53,145.29z"/>
		</g>
		<g>
			<path class="st6" d="M144.52,111.03h-43.96c-1.35,0-2.44-1.09-2.44-2.44v0c0-1.35,1.09-2.44,2.44-2.44h43.96
				c1.35,0,2.44,1.09,2.44,2.44v0C146.96,109.94,145.87,111.03,144.52,111.03z"/>
			<path class="st7" d="M133.7,119.99h-33.14c-1.35,0-2.44-1.09-2.44-2.44v0c0-1.35,1.09-2.44,2.44-2.44h33.14
				c1.35,0,2.44,1.09,2.44,2.44v0C136.14,118.89,135.04,119.99,133.7,119.99z"/>
			<path class="st7" d="M152.1,100.45h-50.98c-1.66,0-3-1.34-3-3v-34.7c0-1.66,1.34-3,3-3h50.98c1.66,0,3,1.34,3,3v34.7
				C155.1,99.11,153.76,100.45,152.1,100.45z"/>
			<path class="st6" d="M98.95,90.04l10.72-10.72c1.11-1.11,2.92-1.11,4.03,0l4.29,4.29c1.11,1.11,2.92,1.11,4.03,0l11.42-11.42
				c1.11-1.11,2.92-1.11,4.03,0l16.83,16.83c0.53,0.53,0.84,1.26,0.84,2.02v6.56c0,1.57-1.28,2.85-2.85,2.85h-51.32
				c-1.57,0-2.85-1.28-2.85-2.85v-5.54C98.12,91.3,98.42,90.58,98.95,90.04z"/>
			<circle class="st6" cx="120.01" cy="70.87" r="4.42"/>
			<path class="st6" d="M122.03,140.54h-18.21c-3.13,0-5.69-2.56-5.69-5.69v-0.01c0-3.13,2.56-5.69,5.69-5.69h18.21
				c3.13,0,5.69,2.56,5.69,5.69v0.01C127.72,137.98,125.16,140.54,122.03,140.54z"/>
			<path class="st3" d="M117.29,136.47h-8.74c-0.9,0-1.63-0.73-1.63-1.63v0c0-0.9,0.73-1.63,1.63-1.63h8.74
				c0.9,0,1.63,0.73,1.63,1.63v0C118.92,135.74,118.19,136.47,117.29,136.47z"/>
			<path class="st8" d="M154.9,145.29H98.37c-2.76,0-5-2.24-5-5V60c0-2.76,2.24-5,5-5h56.53c2.76,0,5,2.24,5,5v80.29
				C159.9,143.05,157.66,145.29,154.9,145.29z"/>
		</g>
		<g>
			<path class="st9" d="M291.25,111.03H247.3c-1.35,0-2.44-1.09-2.44-2.44v0c0-1.35,1.09-2.44,2.44-2.44h43.96
				c1.35,0,2.44,1.09,2.44,2.44v0C293.69,109.94,292.6,111.03,291.25,111.03z"/>
			<path class="st10" d="M274.97,119.99H247.3c-1.35,0-2.44-1.09-2.44-2.44v0c0-1.35,1.09-2.44,2.44-2.44h27.68
				c1.35,0,2.44,1.09,2.44,2.44v0C277.41,118.89,276.32,119.99,274.97,119.99z"/>
			<path class="st10" d="M298.83,100.45h-50.98c-1.66,0-3-1.34-3-3v-34.7c0-1.66,1.34-3,3-3h50.98c1.66,0,3,1.34,3,3v34.7
				C301.83,99.11,300.49,100.45,298.83,100.45z"/>
			<path class="st9" d="M245.69,90.04l10.72-10.72c1.11-1.11,2.92-1.11,4.03,0l4.29,4.29c1.11,1.11,2.92,1.11,4.03,0l11.42-11.42
				c1.11-1.11,2.92-1.11,4.03,0l16.83,16.83c0.53,0.53,0.84,1.26,0.84,2.02v6.56c0,1.57-1.28,2.85-2.85,2.85h-51.32
				c-1.57,0-2.85-1.28-2.85-2.85v-5.54C244.86,91.3,245.16,90.58,245.69,90.04z"/>
			<circle class="st9" cx="266.74" cy="70.87" r="4.42"/>
			<path class="st9" d="M268.76,140.54h-18.21c-3.13,0-5.69-2.56-5.69-5.69v-0.01c0-3.13,2.56-5.69,5.69-5.69h18.21
				c3.13,0,5.69,2.56,5.69,5.69v0.01C274.46,137.98,271.89,140.54,268.76,140.54z"/>
			<path class="st11" d="M301.63,145.29H245.1c-2.76,0-5-2.24-5-5V60c0-2.76,2.24-5,5-5h56.53c2.76,0,5,2.24,5,5v80.29
				C306.63,143.05,304.39,145.29,301.63,145.29z"/>
			<path class="st3" d="M264.03,136.47h-8.74c-0.9,0-1.63-0.73-1.63-1.63v0c0-0.9,0.73-1.63,1.63-1.63h8.74
				c0.9,0,1.63,0.73,1.63,1.63v0C265.65,135.74,264.92,136.47,264.03,136.47z"/>
		</g>
		<g>
			<path class="st12" d="M364.62,111.03h-43.96c-1.35,0-2.44-1.09-2.44-2.44v0c0-1.35,1.09-2.44,2.44-2.44h43.96
				c1.35,0,2.44,1.09,2.44,2.44v0C367.06,109.94,365.97,111.03,364.62,111.03z"/>
			<path class="st13" d="M348.34,119.99h-27.68c-1.35,0-2.44-1.09-2.44-2.44v0c0-1.35,1.09-2.44,2.44-2.44h27.68
				c1.35,0,2.44,1.09,2.44,2.44v0C350.78,118.89,349.69,119.99,348.34,119.99z"/>
			<path class="st14" d="M372.2,100.45h-50.98c-1.66,0-3-1.34-3-3v-34.7c0-1.66,1.34-3,3-3h50.98c1.66,0,3,1.34,3,3v34.7
				C375.2,99.11,373.86,100.45,372.2,100.45z"/>
			<path class="st12" d="M319.06,90.04l10.72-10.72c1.11-1.11,2.92-1.11,4.03,0l4.29,4.29c1.11,1.11,2.92,1.11,4.03,0l11.42-11.42
				c1.11-1.11,2.92-1.11,4.03,0l16.83,16.83c0.53,0.53,0.84,1.26,0.84,2.02v6.56c0,1.57-1.28,2.85-2.85,2.85h-51.32
				c-1.57,0-2.85-1.28-2.85-2.85v-5.54C318.22,91.3,318.52,90.58,319.06,90.04z"/>
			<circle class="st12" cx="340.11" cy="70.87" r="4.42"/>
			<path class="st12" d="M342.13,140.54h-18.21c-3.13,0-5.69-2.56-5.69-5.69v-0.01c0-3.13,2.56-5.69,5.69-5.69h18.21
				c3.13,0,5.69,2.56,5.69,5.69v0.01C347.82,137.98,345.26,140.54,342.13,140.54z"/>
			<path class="st15" d="M375,145.29h-56.53c-2.76,0-5-2.24-5-5V60c0-2.76,2.24-5,5-5H375c2.76,0,5,2.24,5,5v80.29
				C380,143.05,377.76,145.29,375,145.29z"/>
			<path class="st3" d="M337.39,136.47h-8.74c-0.9,0-1.63-0.73-1.63-1.63v0c0-0.9,0.73-1.63,1.63-1.63h8.74
				c0.9,0,1.63,0.73,1.63,1.63v0C339.02,135.74,338.29,136.47,337.39,136.47z"/>
		</g>
		<g>
			<path class="st16" d="M217.89,111.03h-43.96c-1.35,0-2.44-1.09-2.44-2.44v0c0-1.35,1.09-2.44,2.44-2.44h43.96
				c1.35,0,2.44,1.09,2.44,2.44v0C220.33,109.94,219.23,111.03,217.89,111.03z"/>
			<path class="st17" d="M207.06,119.99h-33.14c-1.35,0-2.44-1.09-2.44-2.44v0c0-1.35,1.09-2.44,2.44-2.44h33.14
				c1.35,0,2.44,1.09,2.44,2.44v0C209.5,118.89,208.41,119.99,207.06,119.99z"/>
			<path class="st17" d="M225.47,100.45h-50.98c-1.66,0-3-1.34-3-3v-34.7c0-1.66,1.34-3,3-3h50.98c1.66,0,3,1.34,3,3v34.7
				C228.47,99.11,227.12,100.45,225.47,100.45z"/>
			<path class="st16" d="M172.32,90.04l10.72-10.72c1.11-1.11,2.92-1.11,4.03,0l4.29,4.29c1.11,1.11,2.92,1.11,4.03,0l11.42-11.42
				c1.11-1.11,2.92-1.11,4.03,0l16.83,16.83c0.53,0.53,0.84,1.26,0.84,2.02v6.56c0,1.57-1.28,2.85-2.85,2.85h-51.32
				c-1.57,0-2.85-1.28-2.85-2.85v-5.54C171.49,91.3,171.79,90.58,172.32,90.04z"/>
			<circle class="st16" cx="193.38" cy="70.87" r="4.42"/>
			<path class="st16" d="M195.39,140.54h-18.21c-3.13,0-5.69-2.56-5.69-5.69v-0.01c0-3.13,2.56-5.69,5.69-5.69h18.21
				c3.13,0,5.69,2.56,5.69,5.69v0.01C201.09,137.98,198.53,140.54,195.39,140.54z"/>
			<path class="st3" d="M190.66,136.47h-8.74c-0.9,0-1.63-0.73-1.63-1.63v0c0-0.9,0.73-1.63,1.63-1.63h8.74
				c0.9,0,1.63,0.73,1.63,1.63v0C192.28,135.74,191.56,136.47,190.66,136.47z"/>
			<path class="st18" d="M228.26,145.29h-56.53c-2.76,0-5-2.24-5-5V60c0-2.76,2.24-5,5-5h56.53c2.76,0,5,2.24,5,5v80.29
				C233.26,143.05,231.03,145.29,228.26,145.29z"/>
		</g>
	</g>
</g>
</svg>
