<svg width="347" height="170" viewBox="0 0 347 170" fill="none" xmlns="http://www.w3.org/2000/svg">
<path d="M0 10C0 4.47715 4.47715 0 10 0H337C342.523 0 347 4.47715 347 10V170H0V10Z" fill="url(#paint0_linear_2248_167)"/>
<rect opacity="0.4" x="28.5" y="49.5" width="289" height="99" rx="4.5" stroke="white"/>
<path opacity="0.4" d="M141.104 68H57.8965C55.1922 68 53 70.0461 53 72.57V125.43C53 127.954 55.1922 130 57.8965 130H141.104C143.808 130 146 127.954 146 125.43V72.57C146 70.0461 143.808 68 141.104 68Z" fill="white"/>
<path d="M54.3698 113.57L71.8511 96.6508C73.6612 94.8989 76.6128 94.8989 78.4229 96.6508L85.4187 103.421C87.2288 105.173 90.1804 105.173 91.9905 103.421L110.613 85.3979C112.423 83.646 115.375 83.646 117.185 85.3979L144.63 111.96C145.494 112.796 146 113.948 146 115.148V125.501C146 127.979 143.913 129.999 141.352 129.999H57.6476C55.0873 129.999 53 127.979 53 125.501V116.758C53 115.558 53.4892 114.422 54.3698 113.57Z" fill="white"/>
<path d="M89.3448 92.628C92.8871 92.628 95.7586 89.7596 95.7586 86.2212C95.7586 82.6829 92.8871 79.8145 89.3448 79.8145C85.8026 79.8145 82.931 82.6829 82.931 86.2212C82.931 89.7596 85.8026 92.628 89.3448 92.628Z" fill="white"/>
<rect x="162" y="71" width="90" height="10" rx="5" fill="white"/>
<rect opacity="0.4" x="162" y="87" width="130" height="5" rx="2.5" fill="white"/>
<rect opacity="0.4" x="162" y="96" width="100" height="5" rx="2.5" fill="white"/>
<rect opacity="0.4" x="162" y="108" width="50" height="18" rx="9" fill="white"/>
<rect x="173" y="114" width="27" height="6" rx="3" fill="white"/>
<circle cx="28" cy="99" r="9.5" fill="white" stroke="white"/>
<path d="M29 96L26.7071 98.2929C26.3166 98.6834 26.3166 99.3166 26.7071 99.7071L29 102" stroke="#373853" stroke-linecap="round"/>
<circle cx="318" cy="99" r="9.5" fill="white" stroke="white"/>
<path d="M317 102L319.293 99.7071C319.683 99.3166 319.683 98.6834 319.293 98.2929L317 96" stroke="#373853" stroke-linecap="round"/>
<path d="M0 10C0 4.47715 4.47715 0 10 0H337C342.523 0 347 4.47715 347 10V28H0V10Z" fill="#373853"/>
<g clip-path="url(#clip0_2248_167)">
<path d="M34.5414 11.4346H34.4428L32.8509 9.07262C32.4675 8.50421 31.9505 8.03862 31.3452 7.71675C30.7398 7.39487 30.0647 7.22655 29.3792 7.22656H18.7255C18.3816 7.22656 18.0519 7.36315 17.8088 7.60627C17.5657 7.84938 17.4291 8.17913 17.4291 8.52295V8.95335H16.3271C16.1896 8.95335 16.0577 9.00798 15.9605 9.10523C15.8632 9.20248 15.8086 9.33437 15.8086 9.4719C15.8086 9.60943 15.8632 9.74133 15.9605 9.83858C16.0577 9.93582 16.1896 9.99046 16.3271 9.99046H17.4291V12.0647H15.8734C15.7359 12.0647 15.604 12.1193 15.5067 12.2166C15.4095 12.3138 15.3549 12.4457 15.3549 12.5832C15.3549 12.7208 15.4095 12.8527 15.5067 12.9499C15.604 13.0471 15.7359 13.1018 15.8734 13.1018H17.4291V15.176H15.8734C15.7359 15.176 15.604 15.2306 15.5067 15.3279C15.4095 15.4251 15.3549 15.557 15.3549 15.6946C15.3549 15.8321 15.4095 15.964 15.5067 16.0612C15.604 16.1585 15.7359 16.2131 15.8734 16.2131H17.4291V17.5976C17.4291 17.9415 17.5657 18.2712 17.8088 18.5143C18.0519 18.7574 18.3816 18.894 18.7255 18.894H19.5033C19.6191 19.4268 19.9137 19.904 20.3382 20.2462C20.7627 20.5884 21.2915 20.775 21.8368 20.775C22.382 20.775 22.9109 20.5884 23.3354 20.2462C23.7599 19.904 24.0545 19.4268 24.1703 18.894H29.1977C29.3134 19.4268 29.6081 19.904 30.0326 20.2462C30.4571 20.5884 30.9859 20.775 31.5312 20.775C32.0764 20.775 32.6052 20.5884 33.0297 20.2462C33.4543 19.904 33.7489 19.4268 33.8646 18.894H34.8006C35.1445 18.894 35.4742 18.7574 35.7173 18.5143C35.9604 18.2712 36.097 17.9415 36.097 17.5976V12.9903C36.097 12.5777 35.9331 12.182 35.6414 11.8903C35.3496 11.5985 34.9539 11.4346 34.5414 11.4346ZM29.8977 8.30775C30.3197 8.37782 30.7229 8.53332 31.0827 8.7647C31.4425 8.99609 31.7513 9.2985 31.9901 9.6534L33.1931 11.4346H30.157C30.1018 11.4335 30.0484 11.4148 30.0045 11.3812C29.9607 11.3477 29.9287 11.301 29.9133 11.248C29.9042 11.2248 29.8989 11.2002 29.8977 11.1754V8.30775ZM21.8368 19.7133C21.5697 19.7164 21.3076 19.6402 21.0838 19.4944C20.86 19.3486 20.6844 19.1396 20.5793 18.894C20.5108 18.7297 20.4756 18.5535 20.4756 18.3755C20.4756 18.1975 20.5108 18.0212 20.5793 17.8569C20.6827 17.6116 20.8562 17.4022 21.078 17.255C21.2999 17.1078 21.5602 17.0293 21.8264 17.0293C22.0926 17.0293 22.353 17.1078 22.5748 17.255C22.7966 17.4022 22.9701 17.6116 23.0735 17.8569C23.142 18.0212 23.1772 18.1975 23.1772 18.3755C23.1772 18.5535 23.142 18.7297 23.0735 18.894C22.9698 19.1364 22.7975 19.3431 22.5777 19.4887C22.3579 19.6342 22.1004 19.7123 21.8368 19.7133ZM31.5389 19.7133C31.2718 19.7164 31.0098 19.6402 30.7859 19.4944C30.5621 19.3486 30.3865 19.1396 30.2814 18.894C30.213 18.7297 30.1777 18.5535 30.1777 18.3755C30.1777 18.1975 30.213 18.0212 30.2814 17.8569C30.3849 17.6116 30.5584 17.4022 30.7802 17.255C31.002 17.1078 31.2623 17.0293 31.5286 17.0293C31.7948 17.0293 32.0551 17.1078 32.2769 17.255C32.4988 17.4022 32.6723 17.6116 32.7757 17.8569C32.8441 18.0212 32.8794 18.1975 32.8794 18.3755C32.8794 18.5535 32.8441 18.7297 32.7757 18.894C32.6713 19.138 32.4973 19.3458 32.2755 19.4915C32.0537 19.6372 31.7939 19.7144 31.5286 19.7133H31.5389ZM35.0599 17.5976C35.0599 17.6664 35.0326 17.7324 34.984 17.781C34.9354 17.8296 34.8694 17.8569 34.8006 17.8569H33.8595C33.7437 17.3241 33.4491 16.847 33.0246 16.5048C32.6 16.1626 32.0712 15.976 31.526 15.976C30.9807 15.976 30.4519 16.1626 30.0274 16.5048C29.6029 16.847 29.3082 17.3241 29.1925 17.8569H24.1703C24.0545 17.3241 23.7599 16.847 23.3354 16.5048C22.9109 16.1626 22.382 15.976 21.8368 15.976C21.2915 15.976 20.7627 16.1626 20.3382 16.5048C19.9137 16.847 19.6191 17.3241 19.5033 17.8569H18.7255C18.6567 17.8569 18.5907 17.8296 18.5421 17.781C18.4935 17.7324 18.4662 17.6664 18.4662 17.5976V13.1096H21.3727C21.5102 13.1096 21.6421 13.0549 21.7394 12.9577C21.8366 12.8604 21.8912 12.7285 21.8912 12.591C21.8912 12.4535 21.8366 12.3216 21.7394 12.2243C21.6421 12.1271 21.5102 12.0725 21.3727 12.0725H18.4662V9.99823H19.4385C19.576 9.99823 19.7079 9.9436 19.8051 9.84635C19.9024 9.74911 19.957 9.61721 19.957 9.47968C19.957 9.34215 19.9024 9.21026 19.8051 9.11301C19.7079 9.01576 19.576 8.96113 19.4385 8.96113H18.4662V8.52295C18.4662 8.45418 18.4935 8.38824 18.5421 8.33961C18.5907 8.29099 18.6567 8.26367 18.7255 8.26367H28.8606V11.1754C28.8606 11.5192 28.9972 11.8489 29.2403 12.092C29.4834 12.3352 29.8132 12.4717 30.157 12.4717H34.5414C34.6789 12.4717 34.8108 12.5264 34.908 12.6236C35.0053 12.7209 35.0599 12.8528 35.0599 12.9903V17.5976Z" fill="white"/>
</g>
<path d="M102.128 17.5H101.076L103.439 10.9311H104.585L106.948 17.5H105.896L104.039 12.1243H103.988L102.128 17.5ZM102.304 14.9276H105.717V15.7615H102.304V14.9276ZM109.585 17.5962C109.187 17.5962 108.832 17.4947 108.52 17.2915C108.21 17.0862 107.966 16.7944 107.789 16.4159C107.613 16.0353 107.526 15.5787 107.526 15.0463C107.526 14.5138 107.615 14.0584 107.792 13.6799C107.972 13.3014 108.218 13.0117 108.53 12.8107C108.842 12.6097 109.196 12.5092 109.591 12.5092C109.897 12.5092 110.143 12.5605 110.329 12.6631C110.517 12.7636 110.663 12.8812 110.765 13.0159C110.87 13.1507 110.951 13.2693 111.009 13.372H111.067V10.9311H112.026V17.5H111.089V16.7334H111.009C110.951 16.8382 110.868 16.9579 110.759 17.0927C110.652 17.2274 110.504 17.345 110.316 17.4455C110.128 17.546 109.884 17.5962 109.585 17.5962ZM109.797 16.7783C110.073 16.7783 110.306 16.7056 110.496 16.5602C110.688 16.4127 110.834 16.2085 110.932 15.9476C111.033 15.6867 111.083 15.3831 111.083 15.0367C111.083 14.6945 111.034 14.3952 110.935 14.1386C110.837 13.882 110.693 13.682 110.502 13.5388C110.312 13.3955 110.077 13.3239 109.797 13.3239C109.508 13.3239 109.267 13.3987 109.075 13.5484C108.883 13.6981 108.737 13.9023 108.639 14.161C108.543 14.4198 108.494 14.7116 108.494 15.0367C108.494 15.366 108.544 15.6621 108.642 15.9251C108.74 16.1881 108.886 16.3966 109.078 16.5506C109.273 16.7024 109.512 16.7783 109.797 16.7783ZM115.239 17.5962C114.841 17.5962 114.486 17.4947 114.174 17.2915C113.864 17.0862 113.62 16.7944 113.443 16.4159C113.267 16.0353 113.18 15.5787 113.18 15.0463C113.18 14.5138 113.269 14.0584 113.446 13.6799C113.626 13.3014 113.872 13.0117 114.184 12.8107C114.496 12.6097 114.85 12.5092 115.245 12.5092C115.551 12.5092 115.797 12.5605 115.983 12.6631C116.171 12.7636 116.317 12.8812 116.419 13.0159C116.524 13.1507 116.605 13.2693 116.663 13.372H116.721V10.9311H117.68V17.5H116.743V16.7334H116.663C116.605 16.8382 116.522 16.9579 116.413 17.0927C116.306 17.2274 116.158 17.345 115.97 17.4455C115.782 17.546 115.538 17.5962 115.239 17.5962ZM115.451 16.7783C115.727 16.7783 115.96 16.7056 116.15 16.5602C116.342 16.4127 116.488 16.2085 116.586 15.9476C116.687 15.6867 116.737 15.3831 116.737 15.0367C116.737 14.6945 116.688 14.3952 116.589 14.1386C116.491 13.882 116.347 13.682 116.156 13.5388C115.966 13.3955 115.731 13.3239 115.451 13.3239C115.162 13.3239 114.921 13.3987 114.729 13.5484C114.537 13.6981 114.391 13.9023 114.293 14.161C114.197 14.4198 114.148 14.7116 114.148 15.0367C114.148 15.366 114.198 15.6621 114.296 15.9251C114.394 16.1881 114.54 16.3966 114.732 16.5506C114.927 16.7024 115.166 16.7783 115.451 16.7783ZM121.439 17.5V12.5733H122.36V13.3752H122.421C122.523 13.1036 122.691 12.8919 122.924 12.7401C123.157 12.5861 123.436 12.5092 123.761 12.5092C124.091 12.5092 124.366 12.5861 124.589 12.7401C124.813 12.8941 124.979 13.1058 125.086 13.3752H125.137C125.255 13.1122 125.442 12.9026 125.699 12.7465C125.955 12.5883 126.261 12.5092 126.616 12.5092C127.063 12.5092 127.427 12.6492 127.71 12.9293C127.994 13.2095 128.136 13.6318 128.136 14.1963V17.5H127.177V14.2861C127.177 13.9525 127.086 13.7109 126.905 13.5612C126.723 13.4115 126.506 13.3367 126.253 13.3367C125.941 13.3367 125.699 13.4329 125.525 13.6254C125.352 13.8157 125.266 14.0605 125.266 14.3599V17.5H124.31V14.2252C124.31 13.9579 124.226 13.743 124.06 13.5805C123.893 13.4179 123.676 13.3367 123.408 13.3367C123.227 13.3367 123.059 13.3848 122.905 13.481C122.753 13.5751 122.63 13.7066 122.536 13.8755C122.444 14.0445 122.398 14.2401 122.398 14.4625V17.5H121.439ZM131.497 17.5994C131.035 17.5994 130.632 17.4936 130.288 17.2819C129.943 17.0702 129.676 16.774 129.486 16.3934C129.295 16.0128 129.2 15.568 129.2 15.0591C129.2 14.5481 129.295 14.1011 129.486 13.7184C129.676 13.3356 129.943 13.0384 130.288 12.8267C130.632 12.615 131.035 12.5092 131.497 12.5092C131.959 12.5092 132.362 12.615 132.706 12.8267C133.05 13.0384 133.318 13.3356 133.508 13.7184C133.698 14.1011 133.793 14.5481 133.793 15.0591C133.793 15.568 133.698 16.0128 133.508 16.3934C133.318 16.774 133.05 17.0702 132.706 17.2819C132.362 17.4936 131.959 17.5994 131.497 17.5994ZM131.5 16.7944C131.799 16.7944 132.048 16.7152 132.244 16.557C132.441 16.3988 132.586 16.1881 132.68 15.9251C132.777 15.6621 132.825 15.3724 132.825 15.0559C132.825 14.7416 132.777 14.4529 132.68 14.1899C132.586 13.9247 132.441 13.712 132.244 13.5516C132.048 13.3912 131.799 13.311 131.5 13.311C131.199 13.311 130.948 13.3912 130.75 13.5516C130.553 13.712 130.406 13.9247 130.31 14.1899C130.216 14.4529 130.169 14.7416 130.169 15.0559C130.169 15.3724 130.216 15.6621 130.31 15.9251C130.406 16.1881 130.553 16.3988 130.75 16.557C130.948 16.7152 131.199 16.7944 131.5 16.7944ZM134.864 17.5V12.5733H135.791V13.3559H135.842C135.932 13.0908 136.09 12.8823 136.317 12.7305C136.546 12.5765 136.804 12.4995 137.093 12.4995C137.153 12.4995 137.224 12.5017 137.305 12.506C137.388 12.5102 137.453 12.5156 137.5 12.522V13.4393C137.462 13.4286 137.394 13.4169 137.295 13.4041C137.197 13.3891 137.098 13.3816 137 13.3816C136.773 13.3816 136.571 13.4297 136.394 13.5259C136.219 13.62 136.08 13.7515 135.977 13.9205C135.874 14.0872 135.823 14.2776 135.823 14.4914V17.5H134.864ZM140.277 17.5994C139.792 17.5994 139.374 17.4957 139.023 17.2883C138.675 17.0788 138.405 16.7847 138.215 16.4063C138.027 16.0256 137.933 15.5798 137.933 15.0687C137.933 14.5641 138.027 14.1193 138.215 13.7344C138.405 13.3495 138.67 13.0491 139.01 12.8331C139.353 12.6171 139.752 12.5092 140.21 12.5092C140.488 12.5092 140.757 12.5551 141.018 12.6471C141.279 12.739 141.513 12.8834 141.721 13.0801C141.928 13.2768 142.092 13.5323 142.211 13.8467C142.331 14.1589 142.391 14.5384 142.391 14.9853V15.3253H138.475V14.6069H141.451C141.451 14.3545 141.4 14.1311 141.297 13.9365C141.195 13.7398 141.05 13.5847 140.864 13.4714C140.68 13.3581 140.464 13.3014 140.216 13.3014C139.947 13.3014 139.712 13.3677 139.511 13.5003C139.312 13.6307 139.158 13.8018 139.049 14.0135C138.942 14.223 138.889 14.4508 138.889 14.6967V15.258C138.889 15.5873 138.946 15.8674 139.062 16.0983C139.179 16.3293 139.343 16.5057 139.552 16.6276C139.762 16.7473 140.007 16.8072 140.287 16.8072C140.469 16.8072 140.634 16.7815 140.784 16.7302C140.934 16.6767 141.063 16.5976 141.172 16.4929C141.281 16.3881 141.365 16.2587 141.422 16.1047L142.33 16.2683C142.257 16.5356 142.127 16.7698 141.939 16.9708C141.753 17.1696 141.519 17.3247 141.236 17.4359C140.956 17.5449 140.637 17.5994 140.277 17.5994ZM147.86 18.3211V10.11H148.386V18.3211H147.86ZM149.505 12.6567C149.471 12.3531 149.33 12.1179 149.082 11.9511C148.834 11.7821 148.522 11.6977 148.145 11.6977C147.876 11.6977 147.643 11.7404 147.446 11.826C147.249 11.9094 147.096 12.0248 146.987 12.1724C146.88 12.3178 146.827 12.4835 146.827 12.6695C146.827 12.8256 146.863 12.9603 146.936 13.0737C147.011 13.187 147.108 13.2822 147.228 13.3591C147.35 13.434 147.48 13.4971 147.619 13.5484C147.758 13.5976 147.892 13.6382 148.02 13.6703L148.662 13.8371C148.871 13.8884 149.086 13.9579 149.306 14.0455C149.527 14.1332 149.731 14.2487 149.919 14.392C150.107 14.5352 150.259 14.7127 150.375 14.9244C150.492 15.1361 150.551 15.3895 150.551 15.6846C150.551 16.0566 150.455 16.387 150.262 16.6757C150.072 16.9644 149.795 17.1921 149.432 17.3589C149.07 17.5257 148.633 17.6091 148.12 17.6091C147.628 17.6091 147.202 17.531 146.843 17.3749C146.484 17.2188 146.203 16.9975 146 16.711C145.796 16.4223 145.684 16.0802 145.663 15.6846H146.657C146.676 15.9219 146.753 16.1197 146.888 16.278C147.025 16.434 147.199 16.5506 147.411 16.6276C147.625 16.7024 147.859 16.7398 148.113 16.7398C148.393 16.7398 148.642 16.696 148.861 16.6083C149.081 16.5185 149.254 16.3945 149.38 16.2363C149.506 16.0759 149.569 15.8888 149.569 15.6749C149.569 15.4804 149.514 15.3211 149.403 15.197C149.294 15.073 149.145 14.9704 148.957 14.8891C148.771 14.8079 148.56 14.7362 148.325 14.6742L147.549 14.4625C147.023 14.3193 146.606 14.1086 146.298 13.8306C145.992 13.5527 145.839 13.1849 145.839 12.7273C145.839 12.3488 145.942 12.0184 146.147 11.7362C146.352 11.4539 146.63 11.2347 146.981 11.0786C147.332 10.9204 147.727 10.8413 148.168 10.8413C148.613 10.8413 149.005 10.9193 149.345 11.0754C149.687 11.2315 149.956 11.4464 150.153 11.7201C150.35 11.9917 150.453 12.3039 150.461 12.6567H149.505ZM151.508 16.217V15.4151L154.346 10.9311H154.978V12.1114H154.577L152.547 15.3253V15.3766H156.437V16.217H151.508ZM154.622 17.5V15.9732L154.628 15.6076V10.9311H155.568V17.5H154.622ZM159.74 10.8413C160.032 10.8434 160.321 10.8969 160.606 11.0016C160.89 11.1064 161.147 11.2775 161.375 11.5148C161.606 11.7522 161.79 12.0729 161.927 12.4771C162.066 12.8791 162.137 13.3795 162.139 13.9782C162.139 14.5534 162.081 15.0655 161.966 15.5146C161.85 15.9615 161.684 16.3389 161.468 16.6468C161.255 16.9547 160.995 17.1889 160.689 17.3492C160.383 17.5096 160.039 17.5898 159.656 17.5898C159.265 17.5898 158.917 17.5128 158.614 17.3589C158.31 17.2049 158.063 16.9921 157.873 16.7206C157.682 16.4469 157.564 16.1325 157.517 15.7776H158.495C158.559 16.0598 158.69 16.2886 158.886 16.464C159.085 16.6372 159.342 16.7238 159.656 16.7238C160.137 16.7238 160.513 16.5142 160.782 16.0951C161.051 15.6739 161.187 15.0858 161.189 14.331H161.138C161.027 14.5149 160.888 14.6731 160.721 14.8057C160.556 14.9383 160.371 15.0409 160.166 15.1136C159.961 15.1863 159.742 15.2227 159.509 15.2227C159.13 15.2227 158.786 15.1297 158.476 14.9436C158.166 14.7576 157.919 14.5021 157.735 14.1771C157.551 13.852 157.459 13.481 157.459 13.0641C157.459 12.6492 157.553 12.2729 157.741 11.935C157.932 11.5972 158.197 11.3299 158.537 11.1332C158.879 10.9343 159.28 10.837 159.74 10.8413ZM159.743 11.6752C159.493 11.6752 159.267 11.7372 159.066 11.8613C158.867 11.9831 158.71 12.1489 158.594 12.3584C158.479 12.5658 158.421 12.7968 158.421 13.0512C158.421 13.3057 158.477 13.5366 158.588 13.744C158.701 13.9493 158.855 14.1129 159.05 14.2348C159.247 14.3545 159.471 14.4144 159.723 14.4144C159.912 14.4144 160.087 14.3781 160.25 14.3054C160.412 14.2326 160.554 14.1321 160.676 14.0038C160.798 13.8734 160.893 13.7259 160.962 13.5612C161.03 13.3966 161.064 13.2234 161.064 13.0416C161.064 12.8 161.006 12.5755 160.891 12.368C160.778 12.1606 160.622 11.9938 160.423 11.8677C160.224 11.7394 159.997 11.6752 159.743 11.6752ZM168 12.5733V13.3431H165.309V12.5733H168ZM166.031 11.393H166.99V16.0534C166.99 16.2395 167.018 16.3795 167.073 16.4736C167.129 16.5656 167.201 16.6286 167.288 16.6628C167.378 16.6949 167.475 16.711 167.58 16.711C167.657 16.711 167.725 16.7056 167.782 16.6949C167.84 16.6842 167.885 16.6757 167.917 16.6693L168.09 17.4615C168.035 17.4829 167.955 17.5043 167.853 17.5257C167.75 17.5492 167.622 17.562 167.468 17.5641C167.216 17.5684 166.98 17.5235 166.762 17.4294C166.544 17.3353 166.368 17.1899 166.233 16.9932C166.098 16.7965 166.031 16.5495 166.031 16.2523V11.393ZM171.084 17.5994C170.622 17.5994 170.219 17.4936 169.874 17.2819C169.53 17.0702 169.263 16.774 169.073 16.3934C168.882 16.0128 168.787 15.568 168.787 15.0591C168.787 14.5481 168.882 14.1011 169.073 13.7184C169.263 13.3356 169.53 13.0384 169.874 12.8267C170.219 12.615 170.622 12.5092 171.084 12.5092C171.545 12.5092 171.949 12.615 172.293 12.8267C172.637 13.0384 172.904 13.3356 173.095 13.7184C173.285 14.1011 173.38 14.5481 173.38 15.0591C173.38 15.568 173.285 16.0128 173.095 16.3934C172.904 16.774 172.637 17.0702 172.293 17.2819C171.949 17.4936 171.545 17.5994 171.084 17.5994ZM171.087 16.7944C171.386 16.7944 171.634 16.7152 171.831 16.557C172.028 16.3988 172.173 16.1881 172.267 15.9251C172.363 15.6621 172.411 15.3724 172.411 15.0559C172.411 14.7416 172.363 14.4529 172.267 14.1899C172.173 13.9247 172.028 13.712 171.831 13.5516C171.634 13.3912 171.386 13.311 171.087 13.311C170.785 13.311 170.535 13.3912 170.336 13.5516C170.14 13.712 169.993 13.9247 169.897 14.1899C169.803 14.4529 169.756 14.7416 169.756 15.0559C169.756 15.3724 169.803 15.6621 169.897 15.9251C169.993 16.1881 170.14 16.3988 170.336 16.557C170.535 16.7152 170.785 16.7944 171.087 16.7944ZM178.907 19.4501C178.515 19.4501 178.179 19.3988 177.896 19.2962C177.616 19.1935 177.387 19.0578 177.21 18.8888C177.032 18.7199 176.9 18.5349 176.812 18.3339L177.636 17.994C177.694 18.088 177.771 18.1875 177.867 18.2922C177.966 18.3992 178.098 18.49 178.265 18.5649C178.434 18.6397 178.651 18.6771 178.916 18.6771C179.28 18.6771 179.58 18.5884 179.818 18.4109C180.055 18.2356 180.174 17.9555 180.174 17.5706V16.6019H180.113C180.055 16.7067 179.972 16.8232 179.862 16.9515C179.756 17.0798 179.608 17.191 179.42 17.2851C179.232 17.3792 178.987 17.4262 178.685 17.4262C178.296 17.4262 177.945 17.3353 177.633 17.1536C177.323 16.9697 177.077 16.6992 176.896 16.3421C176.716 15.9829 176.626 15.5413 176.626 15.0174C176.626 14.4935 176.715 14.0445 176.892 13.6703C177.072 13.2961 177.318 13.0095 177.63 12.8107C177.942 12.6097 178.296 12.5092 178.692 12.5092C178.998 12.5092 179.244 12.5605 179.433 12.6631C179.621 12.7636 179.767 12.8812 179.872 13.0159C179.979 13.1507 180.061 13.2693 180.119 13.372H180.19V12.5733H181.129V17.6091C181.129 18.0324 181.031 18.3799 180.834 18.6515C180.638 18.9231 180.371 19.1241 180.036 19.2545C179.702 19.3849 179.326 19.4501 178.907 19.4501ZM178.897 16.6308C179.173 16.6308 179.406 16.5666 179.596 16.4383C179.789 16.3079 179.934 16.1219 180.032 15.8802C180.133 15.6365 180.183 15.3446 180.183 15.0046C180.183 14.6731 180.134 14.3813 180.036 14.1289C179.937 13.8766 179.793 13.6799 179.603 13.5388C179.412 13.3955 179.177 13.3239 178.897 13.3239C178.608 13.3239 178.368 13.3987 178.175 13.5484C177.983 13.6959 177.837 13.8969 177.739 14.1514C177.643 14.4059 177.595 14.6902 177.595 15.0046C177.595 15.3275 177.644 15.6108 177.742 15.8546C177.841 16.0983 177.986 16.2886 178.179 16.4255C178.373 16.5623 178.613 16.6308 178.897 16.6308ZM184.539 17.5994C184.054 17.5994 183.636 17.4957 183.285 17.2883C182.936 17.0788 182.667 16.7847 182.477 16.4063C182.288 16.0256 182.194 15.5798 182.194 15.0687C182.194 14.5641 182.288 14.1193 182.477 13.7344C182.667 13.3495 182.932 13.0491 183.272 12.8331C183.614 12.6171 184.014 12.5092 184.472 12.5092C184.75 12.5092 185.019 12.5551 185.28 12.6471C185.541 12.739 185.775 12.8834 185.982 13.0801C186.19 13.2768 186.353 13.5323 186.473 13.8467C186.593 14.1589 186.653 14.5384 186.653 14.9853V15.3253H182.736V14.6069H185.713C185.713 14.3545 185.662 14.1311 185.559 13.9365C185.456 13.7398 185.312 13.5847 185.126 13.4714C184.942 13.3581 184.726 13.3014 184.478 13.3014C184.209 13.3014 183.973 13.3677 183.772 13.5003C183.574 13.6307 183.42 13.8018 183.31 14.0135C183.204 14.223 183.15 14.4508 183.15 14.6967V15.258C183.15 15.5873 183.208 15.8674 183.323 16.0983C183.441 16.3293 183.605 16.5057 183.814 16.6276C184.024 16.7473 184.268 16.8072 184.549 16.8072C184.73 16.8072 184.896 16.7815 185.046 16.7302C185.195 16.6767 185.325 16.5976 185.434 16.4929C185.543 16.3881 185.626 16.2587 185.684 16.1047L186.592 16.2683C186.519 16.5356 186.389 16.7698 186.2 16.9708C186.014 17.1696 185.78 17.3247 185.498 17.4359C185.218 17.5449 184.898 17.5994 184.539 17.5994ZM190.017 12.5733V13.3431H187.325V12.5733H190.017ZM188.047 11.393H189.006V16.0534C189.006 16.2395 189.034 16.3795 189.09 16.4736C189.145 16.5656 189.217 16.6286 189.304 16.6628C189.394 16.6949 189.492 16.711 189.596 16.711C189.673 16.711 189.741 16.7056 189.798 16.6949C189.856 16.6842 189.901 16.6757 189.933 16.6693L190.106 17.4615C190.051 17.4829 189.972 17.5043 189.869 17.5257C189.766 17.5492 189.638 17.562 189.484 17.5641C189.232 17.5684 188.997 17.5235 188.778 17.4294C188.56 17.3353 188.384 17.1899 188.249 16.9932C188.114 16.7965 188.047 16.5495 188.047 16.2523V11.393ZM193.545 17.5V10.9311H197.618V11.7843H194.536V13.7857H197.326V14.6357H194.536V17.5H193.545ZM198.837 17.5V10.9311H201.179C201.687 10.9311 202.11 11.0188 202.446 11.1941C202.783 11.3694 203.036 11.6121 203.202 11.9222C203.369 12.2301 203.453 12.5861 203.453 12.9903C203.453 13.3923 203.368 13.7462 203.199 14.052C203.032 14.3556 202.78 14.5919 202.442 14.7608C202.107 14.9297 201.684 15.0142 201.175 15.0142H199.402V14.161H201.086C201.406 14.161 201.667 14.115 201.868 14.0231C202.071 13.9311 202.22 13.7975 202.314 13.6222C202.408 13.4468 202.455 13.2362 202.455 12.9903C202.455 12.7422 202.407 12.5273 202.311 12.3456C202.217 12.1638 202.068 12.0248 201.865 11.9286C201.664 11.8302 201.4 11.7811 201.073 11.7811H199.828V17.5H198.837ZM202.08 14.5363L203.703 17.5H202.574L200.983 14.5363H202.08ZM204.659 17.5V10.9311H208.777V11.7843H205.65V13.7857H208.562V14.6357H205.65V16.6468H208.816V17.5H204.659ZM210.101 17.5V10.9311H214.219V11.7843H211.092V13.7857H214.004V14.6357H211.092V16.6468H214.258V17.5H210.101ZM221.516 12.6567C221.482 12.3531 221.341 12.1179 221.093 11.9511C220.845 11.7821 220.533 11.6977 220.156 11.6977C219.887 11.6977 219.654 11.7404 219.457 11.826C219.26 11.9094 219.108 12.0248 218.998 12.1724C218.892 12.3178 218.838 12.4835 218.838 12.6695C218.838 12.8256 218.874 12.9603 218.947 13.0737C219.022 13.187 219.119 13.2822 219.239 13.3591C219.361 13.434 219.491 13.4971 219.63 13.5484C219.769 13.5976 219.903 13.6382 220.031 13.6703L220.673 13.8371C220.882 13.8884 221.097 13.9579 221.318 14.0455C221.538 14.1332 221.742 14.2487 221.93 14.392C222.118 14.5352 222.27 14.7127 222.386 14.9244C222.503 15.1361 222.562 15.3895 222.562 15.6846C222.562 16.0566 222.466 16.387 222.273 16.6757C222.083 16.9644 221.806 17.1921 221.443 17.3589C221.081 17.5257 220.644 17.6091 220.131 17.6091C219.639 17.6091 219.213 17.531 218.854 17.3749C218.495 17.2188 218.214 16.9975 218.011 16.711C217.807 16.4223 217.695 16.0802 217.674 15.6846H218.668C218.687 15.9219 218.764 16.1197 218.899 16.278C219.036 16.434 219.21 16.5506 219.422 16.6276C219.636 16.7024 219.87 16.7398 220.124 16.7398C220.404 16.7398 220.654 16.696 220.872 16.6083C221.092 16.5185 221.265 16.3945 221.391 16.2363C221.517 16.0759 221.581 15.8888 221.581 15.6749C221.581 15.4804 221.525 15.3211 221.414 15.197C221.305 15.073 221.156 14.9704 220.968 14.8891C220.782 14.8079 220.571 14.7362 220.336 14.6742L219.56 14.4625C219.034 14.3193 218.617 14.1086 218.309 13.8306C218.003 13.5527 217.85 13.1849 217.85 12.7273C217.85 12.3488 217.953 12.0184 218.158 11.7362C218.363 11.4539 218.641 11.2347 218.992 11.0786C219.343 10.9204 219.738 10.8413 220.179 10.8413C220.624 10.8413 221.016 10.9193 221.356 11.0754C221.698 11.2315 221.968 11.4464 222.164 11.7201C222.361 11.9917 222.464 12.3039 222.472 12.6567H221.516ZM223.746 17.5V10.9311H224.737V13.7857H228.012V10.9311H229.007V17.5H228.012V14.6357H224.737V17.5H223.746ZM231.441 10.9311V17.5H230.45V10.9311H231.441ZM232.884 17.5V10.9311H235.226C235.737 10.9311 236.16 11.0241 236.496 11.2101C236.832 11.3962 237.083 11.6506 237.25 11.9735C237.417 12.2943 237.5 12.6556 237.5 13.0576C237.5 13.4618 237.416 13.8253 237.247 14.1482C237.08 14.4689 236.828 14.7234 236.49 14.9116C236.154 15.0976 235.732 15.1906 235.223 15.1906H233.613V14.3503H235.133C235.456 14.3503 235.718 14.2947 235.919 14.1835C236.12 14.0701 236.267 13.9162 236.361 13.7216C236.455 13.527 236.502 13.3057 236.502 13.0576C236.502 12.8096 236.455 12.5894 236.361 12.3969C236.267 12.2045 236.119 12.0537 235.916 11.9446C235.715 11.8356 235.449 11.7811 235.12 11.7811H233.876V17.5H232.884ZM238.662 17.5V10.9311H241.003C241.514 10.9311 241.938 11.0241 242.274 11.2101C242.609 11.3962 242.861 11.6506 243.027 11.9735C243.194 12.2943 243.278 12.6556 243.278 13.0576C243.278 13.4618 243.193 13.8253 243.024 14.1482C242.857 14.4689 242.605 14.7234 242.267 14.9116C241.931 15.0976 241.509 15.1906 241 15.1906H239.39V14.3503H240.91C241.233 14.3503 241.495 14.2947 241.696 14.1835C241.897 14.0701 242.045 13.9162 242.139 13.7216C242.233 13.527 242.28 13.3057 242.28 13.0576C242.28 12.8096 242.233 12.5894 242.139 12.3969C242.045 12.2045 241.896 12.0537 241.693 11.9446C241.492 11.8356 241.227 11.7811 240.898 11.7811H239.653V17.5H238.662ZM245.431 10.9311V17.5H244.439V10.9311H245.431ZM252.176 10.9311V17.5H251.265L247.926 12.6824H247.865V17.5H246.874V10.9311H247.791L251.133 15.7551H251.194V10.9311H252.176ZM258.067 13.0063C258.005 12.8117 257.922 12.6375 257.817 12.4835C257.714 12.3274 257.591 12.1948 257.448 12.0858C257.305 11.9746 257.141 11.8901 256.957 11.8324C256.776 11.7747 256.576 11.7458 256.358 11.7458C255.988 11.7458 255.654 11.8409 255.357 12.0313C255.06 12.2216 254.824 12.5006 254.651 12.8684C254.48 13.2341 254.395 13.682 254.395 14.2123C254.395 14.7448 254.481 15.1949 254.654 15.5627C254.828 15.9305 255.065 16.2095 255.366 16.3998C255.668 16.5901 256.011 16.6853 256.396 16.6853C256.753 16.6853 257.064 16.6126 257.329 16.4672C257.597 16.3218 257.803 16.1165 257.949 15.8514C258.096 15.5841 258.17 15.2697 258.17 14.9084L258.426 14.9565H256.547V14.1386H259.129V14.8859C259.129 15.4376 259.011 15.9166 258.776 16.3229C258.543 16.727 258.22 17.0392 257.807 17.2594C257.397 17.4797 256.926 17.5898 256.396 17.5898C255.802 17.5898 255.28 17.453 254.831 17.1793C254.384 16.9055 254.035 16.5174 253.785 16.0149C253.535 15.5103 253.41 14.9116 253.41 14.2188C253.41 13.6949 253.483 13.2244 253.628 12.8075C253.773 12.3905 253.978 12.0366 254.241 11.7458C254.506 11.4528 254.817 11.2294 255.174 11.0754C255.533 10.9193 255.926 10.8413 256.351 10.8413C256.706 10.8413 257.037 10.8937 257.342 10.9984C257.65 11.1032 257.924 11.2518 258.163 11.4443C258.405 11.6367 258.605 11.8655 258.763 12.1307C258.921 12.3937 259.028 12.6856 259.084 13.0063H258.067Z" fill="white"/>
<g clip-path="url(#clip1_2248_167)">
<path d="M324.772 17.6145C324.703 17.6145 324.634 17.5939 324.576 17.5551C324.518 17.5163 324.473 17.4612 324.446 17.3967C324.42 17.3323 324.413 17.2613 324.426 17.1929C324.44 17.1244 324.473 17.0615 324.523 17.0122L331.043 10.492C331.109 10.4258 331.199 10.3887 331.292 10.3887C331.386 10.3887 331.476 10.4258 331.542 10.492C331.608 10.5582 331.645 10.648 331.645 10.7415C331.645 10.8351 331.608 10.9249 331.542 10.9911L325.022 17.5112C324.989 17.544 324.95 17.57 324.907 17.5878C324.865 17.6055 324.819 17.6146 324.772 17.6145Z" fill="white"/>
<path d="M331.292 17.6145C331.246 17.6146 331.2 17.6055 331.157 17.5878C331.115 17.57 331.076 17.544 331.043 17.5112L324.523 10.9911C324.457 10.9249 324.419 10.8351 324.419 10.7415C324.419 10.648 324.457 10.5582 324.523 10.492C324.589 10.4258 324.679 10.3887 324.772 10.3887C324.866 10.3887 324.956 10.4258 325.022 10.492L331.542 17.0122C331.591 17.0615 331.625 17.1244 331.639 17.1929C331.652 17.2613 331.645 17.3323 331.618 17.3967C331.592 17.4612 331.547 17.5163 331.489 17.5551C331.43 17.5939 331.362 17.6145 331.292 17.6145Z" fill="white"/>
</g>
<defs>
<linearGradient id="paint0_linear_2248_167" x1="5.1707e-06" y1="170" x2="347" y2="9.83459e-06" gradientUnits="userSpaceOnUse">
<stop stop-color="#F3D387"/>
<stop offset="0.515625" stop-color="#ED85C8"/>
<stop offset="1" stop-color="#4A87FA"/>
</linearGradient>
<clipPath id="clip0_2248_167">
<rect width="20.7422" height="13.5484" fill="white" transform="translate(15.3549 7.22656)"/>
</clipPath>
<clipPath id="clip1_2248_167">
<rect width="7.22581" height="7.22581" fill="white" transform="translate(324.419 10.3887)"/>
</clipPath>
</defs>
</svg>
