<svg width="38" height="36" viewBox="0 0 38 36" fill="none" xmlns="http://www.w3.org/2000/svg">
<g clip-path="url(#clip0_646_3090)">
<path d="M35.15 0.015625H2.85C2.09413 0.015625 1.36923 0.317601 0.834751 0.855126C0.300272 1.39265 0 2.12169 0 2.88187V25.8118C0 26.572 0.300272 27.301 0.834751 27.8385C1.36923 28.3761 2.09413 28.678 2.85 28.678H14.079L12.3548 33.4551C12.2503 33.7435 12.2165 34.053 12.2562 34.3573C12.2959 34.6617 12.4079 34.9519 12.5828 35.2035C12.7584 35.4549 12.9917 35.6599 13.2629 35.8013C13.5342 35.9427 13.8353 36.0162 14.1408 36.0156H23.8593C24.1647 36.0162 24.4658 35.9427 24.7371 35.8013C25.0083 35.6599 25.2416 35.4549 25.4173 35.2035C25.5921 34.9519 25.7041 34.6617 25.7438 34.3573C25.7835 34.053 25.7497 33.7435 25.6453 33.4551L23.921 28.678H35.15C35.9059 28.678 36.6308 28.3761 37.1653 27.8385C37.6997 27.301 38 26.572 38 25.8118V2.88187C38 2.12169 37.6997 1.39265 37.1653 0.855126C36.6308 0.317601 35.9059 0.015625 35.15 0.015625ZM2.85 1.92645H35.15C35.402 1.92645 35.6436 2.02711 35.8218 2.20629C35.9999 2.38546 36.1 2.62848 36.1 2.88187V21.0347H1.9V2.88187C1.9 2.62848 2.0001 2.38546 2.17826 2.20629C2.35641 2.02711 2.59804 1.92645 2.85 1.92645ZM23.864 34.1048H14.1408L16.1025 28.678H21.8975L23.864 34.1048ZM35.15 26.7672H2.85C2.59804 26.7672 2.35641 26.6666 2.17826 26.4874C2.0001 26.3082 1.9 26.0652 1.9 25.8118V22.9456H36.1V25.8118C36.1 26.0652 35.9999 26.3082 35.8218 26.4874C35.6436 26.6666 35.402 26.7672 35.15 26.7672Z" fill="#0875FF"/>
<path d="M15.5422 17.4893C15.6865 17.5735 15.8504 17.618 16.0172 17.6183C16.1838 17.6181 16.3474 17.5739 16.4917 17.49C16.6359 17.4062 16.7557 17.2857 16.839 17.1406L22.805 6.75044C22.9307 6.53121 22.9648 6.27075 22.8998 6.02624C22.8348 5.78173 22.676 5.57316 22.4582 5.4463C22.3501 5.38293 22.2305 5.34168 22.1065 5.32492C21.9824 5.30815 21.8563 5.3162 21.7354 5.34861C21.6144 5.38101 21.5011 5.43714 21.4018 5.51375C21.3024 5.59036 21.2192 5.68595 21.1567 5.79503L15.1955 16.1852C15.0697 16.4044 15.0356 16.6649 15.1006 16.9094C15.1656 17.1539 15.3244 17.3624 15.5422 17.4893Z" fill="#0875FF"/>
<path d="M14.6918 11.0489C15.4477 11.0489 16.1726 10.7469 16.7071 10.2094C17.2415 9.67186 17.5418 8.94282 17.5418 8.18265C17.5418 7.42247 17.2415 6.69343 16.7071 6.15591C16.1726 5.61838 15.4477 5.31641 14.6918 5.31641C13.9359 5.31641 13.211 5.61838 12.6765 6.15591C12.1421 6.69343 11.8418 7.42247 11.8418 8.18265C11.8418 8.94282 12.1421 9.67186 12.6765 10.2094C13.211 10.7469 13.9359 11.0489 14.6918 11.0489ZM14.6918 7.22723C14.9438 7.22723 15.1854 7.32789 15.3635 7.50707C15.5417 7.68624 15.6418 7.92926 15.6418 8.18265C15.6418 8.43604 15.5417 8.67905 15.3635 8.85823C15.1854 9.0374 14.9438 9.13806 14.6918 9.13806C14.4398 9.13806 14.1982 9.0374 14.02 8.85823C13.8419 8.67905 13.7418 8.43604 13.7418 8.18265C13.7418 7.92926 13.8419 7.68624 14.02 7.50707C14.1982 7.32789 14.4398 7.22723 14.6918 7.22723Z" fill="#0875FF"/>
<path d="M20.4678 14.753C20.4678 15.5131 20.768 16.2422 21.3025 16.7797C21.837 17.3172 22.5619 17.6192 23.3178 17.6192C24.0736 17.6192 24.7985 17.3172 25.333 16.7797C25.8675 16.2422 26.1678 15.5131 26.1678 14.753C26.1678 13.9928 25.8675 13.2637 25.333 12.7262C24.7985 12.1887 24.0736 11.8867 23.3178 11.8867C22.5619 11.8867 21.837 12.1887 21.3025 12.7262C20.768 13.2637 20.4678 13.9928 20.4678 14.753ZM23.3178 13.7975C23.5697 13.7975 23.8114 13.8982 23.9895 14.0774C24.1677 14.2566 24.2678 14.4996 24.2678 14.753C24.2678 15.0064 24.1677 15.2494 23.9895 15.4285C23.8114 15.6077 23.5697 15.7084 23.3178 15.7084C23.0658 15.7084 22.8242 15.6077 22.646 15.4285C22.4679 15.2494 22.3678 15.0064 22.3678 14.753C22.3678 14.4996 22.4679 14.2566 22.646 14.0774C22.8242 13.8982 23.0658 13.7975 23.3178 13.7975Z" fill="#0875FF"/>
</g>
<defs>
<clipPath id="clip0_646_3090">
<rect width="38" height="36" fill="white"/>
</clipPath>
</defs>
</svg>
