<svg width="58" height="58" viewBox="0 0 58 58" fill="none" xmlns="http://www.w3.org/2000/svg">
    <rect x="0.307617" y="0.53125" width="56.7696" height="56.7696" rx="28.3848" fill="#008DFF"/>
    <path d="M36.4066 24.807L34.5133 19.3487C33.8702 17.4973 32.1872 16.3008 30.2259 16.3008H27.1579C25.1946 16.3008 23.5115 17.4974 22.8706 19.3489L20.9757 24.8069H14.0205V26.2989H15.4904L17.8934 38.468C18.2499 40.2719 19.7842 41.5317 21.6247 41.5317H35.7596C37.6013 41.5317 39.135 40.2715 39.489 38.468L41.8937 26.2989H43.3636V24.8069H36.4066V24.807ZM24.1188 36.7254H22.6267V29.6133H24.1188V36.7254ZM29.4106 37.3415H27.9186V28.9973H29.4106V37.3415ZM34.7009 36.7254H33.2089V29.6133H34.7009V36.7254ZM22.5551 24.807L24.2802 19.8377C24.7103 18.5955 25.8399 17.7929 27.1579 17.7929H30.2259C31.5425 17.7929 32.6722 18.5958 33.1038 19.8381L34.8273 24.807H22.5551Z" fill="white"/>
</svg>
