<svg width="58" height="58" viewBox="0 0 58 58" fill="none" xmlns="http://www.w3.org/2000/svg">
    <rect x="0.773352" y="0.986242" width="56.5659" height="56.5659" rx="5.97527" fill="#EBF6FF"/>
    <g clip-path="url(#clip0_219_4807)">
        <path d="M29.8218 30.0918H28.2909C24.32 30.0964 20.5132 31.6759 17.7054 34.4837C14.8975 37.2915 13.3181 41.0984 13.3135 45.0692V46.0046C13.3148 47.0579 13.7338 48.0676 14.4786 48.8124C15.2233 49.5572 16.2331 49.9762 17.2864 49.9775H40.8263C41.8796 49.9764 42.8894 49.5574 43.6343 48.8126C44.3791 48.0678 44.798 47.0579 44.7992 46.0046V45.0692C44.7946 41.0984 43.2151 37.2915 40.4073 34.4837C37.5995 31.6759 33.7926 30.0964 29.8218 30.0918Z" fill="#008DFF"/>
        <path d="M29.0576 26.7794C34.0913 26.7794 38.1719 22.6987 38.1719 17.6651C38.1719 12.6314 34.0913 8.55078 29.0576 8.55078C24.024 8.55078 19.9434 12.6314 19.9434 17.6651C19.9434 22.6987 24.024 26.7794 29.0576 26.7794Z" fill="#008DFF"/>
    </g>
    <rect x="0.773352" y="0.986242" width="56.5659" height="56.5659" rx="5.97527" stroke="#CCE8FF" stroke-width="0.796703"/>
    <defs>
        <clipPath id="clip0_219_4807">
            <rect width="41.4286" height="41.4286" fill="white" transform="translate(8.3418 8.55469)"/>
        </clipPath>
    </defs>
</svg>
