<svg width="58" height="58" viewBox="0 0 58 58" fill="none" xmlns="http://www.w3.org/2000/svg">
    <path d="M29.1882 57.4155C44.9913 57.4155 57.8022 44.6046 57.8022 28.8015C57.8022 12.9984 44.9913 0.1875 29.1882 0.1875C13.3851 0.1875 0.574219 12.9984 0.574219 28.8015C0.574219 44.6046 13.3851 57.4155 29.1882 57.4155Z" fill="#FE6A16"/>
    <path d="M30.0793 57.3905C43.465 56.9857 54.5391 47.3878 57.2023 34.6956L50.626 28.1191L8.66016 35.9713L30.0793 57.3905Z" fill="#E83C00"/>
    <path d="M26.1446 17.4375L29.3333 18.802L30.2514 19.6767L31.6526 19.7946L33.7112 20.6756L34.6612 21.4855L36.0067 21.658L37.9984 22.5103L38.983 23.2945L40.293 23.4924L49.5732 27.4638C51.0675 28.1033 52.0366 29.5721 52.0366 31.1975V34.1775L43.8036 35.1161L8.27051 34.1775V18.8341C8.27051 18.8341 9.62039 17.8385 10.891 18.9238C14.6457 22.131 21.6859 23.1479 26.1446 17.4375Z" fill="white"/>
    <path d="M49.5752 27.4621L40.295 23.4907L38.985 23.2929L38.0004 22.5087L36.0087 21.6563L34.6632 21.4839L33.7132 20.674L31.6546 19.793L30.2534 19.6751L29.3353 18.8005L29.2129 18.748V34.729L43.8057 35.1145L52.0387 34.1758V31.1958C52.0386 29.5704 51.0695 28.1016 49.5752 27.4621Z" fill="#E9EDF5"/>
    <path d="M8.27025 30.6543C8.27025 30.6543 15.8971 29.4809 21.9202 30.6543C27.9434 31.8277 39.2077 35.4651 52.0364 32.6621V34.7681C52.0364 35.9091 51.1114 36.8341 49.9704 36.8341H10.8233C8.81514 36.8341 7.32163 34.9773 7.75206 33.0159L8.27025 30.6543Z" fill="#CDD2E1"/>
    <path d="M29.2119 32.248V36.8327H49.9718C51.1128 36.8327 52.0377 35.9077 52.0377 34.7668V32.6607C43.3227 34.5649 35.3304 33.4967 29.2119 32.248Z" fill="#AFB4C8"/>
    <path d="M29.3396 18.8047L27.2197 22.0917L29.5474 23.0242L31.6351 19.7871L29.3396 18.8047Z" fill="#CDD2E1"/>
    <path d="M31.6354 19.7871L29.3399 18.8047L29.2119 19.0031V22.8898L29.5477 23.0242L31.6354 19.7871Z" fill="#AFB4C8"/>
    <path d="M33.71 20.6777L31.6514 23.8699L33.979 24.8024L36.0055 21.6601L33.71 20.6777Z" fill="#AFB4C8"/>
    <path d="M37.9976 22.5117L35.999 25.6109L38.3267 26.5434L40.2931 23.4941L37.9976 22.5117Z" fill="#AFB4C8"/>
</svg>
