<?xml version="1.0" encoding="utf-8"?>
<!-- Generator: Adobe Illustrator 27.6.1, SVG Export Plug-In . SVG Version: 6.00 Build 0)  -->
<svg version="1.1" id="Layer_1" xmlns="http://www.w3.org/2000/svg" xmlns:xlink="http://www.w3.org/1999/xlink" x="0px" y="0px"
	 viewBox="0 0 400 170" style="enable-background:new 0 0 400 170;" xml:space="preserve">
<style type="text/css">
	.st0{fill:#D9E0FF;}
	.st1{fill:#6878FF;}
	.st2{opacity:0.2;fill:#6878FF;}
	.st3{fill:#FFFFFF;}
	.st4{opacity:0.2;fill:none;stroke:#6878FF;stroke-miterlimit:10;}
	.st5{fill:#FF597C;}
	.st6{opacity:0.2;fill:#FF597C;}
	.st7{opacity:0.2;fill:none;stroke:#FF597C;stroke-miterlimit:10;}
	.st8{fill:#00CDC2;}
	.st9{opacity:0.2;fill:#00CDC2;}
	.st10{opacity:0.2;fill:none;stroke:#00CDC2;stroke-miterlimit:10;}
	.st11{fill:#6C8BAD;}
	.st12{opacity:0.2;fill:#5475A1;}
	.st13{opacity:0.2;fill:#6C8BAD;}
	.st14{opacity:0.2;fill:none;stroke:#6C8BAD;stroke-miterlimit:10;}
	.st15{fill:#FFB53A;}
	.st16{opacity:0.2;fill:#FFB53A;}
	.st17{opacity:0.2;fill:none;stroke:#FFB53A;stroke-miterlimit:10;}
	.st18{fill:#FFFFFF;stroke:#C0CFFF;stroke-miterlimit:10;}
	.st19{fill:none;stroke:#CDDBFA;stroke-linecap:round;stroke-miterlimit:10;}
</style>
<g>
	<rect x="1306.47" y="185.75" class="st0" width="400" height="170"/>
	<g>
		<path class="st1" d="M1377.62,261.72h-43.96c-1.35,0-2.44-1.09-2.44-2.44v0c0-1.35,1.09-2.44,2.44-2.44h43.96
			c1.35,0,2.44,1.09,2.44,2.44v0C1380.06,260.63,1378.97,261.72,1377.62,261.72z"/>
		<path class="st2" d="M1366.8,270.68h-33.14c-1.35,0-2.44-1.09-2.44-2.44v0c0-1.35,1.09-2.44,2.44-2.44h33.14
			c1.35,0,2.44,1.09,2.44,2.44v0C1369.24,269.58,1368.15,270.68,1366.8,270.68z"/>
		<path class="st2" d="M1385.2,251.14h-50.98c-1.66,0-3-1.34-3-3v-34.7c0-1.66,1.34-3,3-3h50.98c1.66,0,3,1.34,3,3v34.7
			C1388.2,249.8,1386.86,251.14,1385.2,251.14z"/>
		<path class="st1" d="M1332.06,240.73l10.72-10.72c1.11-1.11,2.92-1.11,4.03,0l4.29,4.29c1.11,1.11,2.92,1.11,4.03,0l11.42-11.42
			c1.11-1.11,2.92-1.11,4.03,0l16.83,16.83c0.53,0.53,0.84,1.26,0.84,2.02v6.56c0,1.57-1.28,2.85-2.85,2.85h-51.32
			c-1.57,0-2.85-1.28-2.85-2.85v-5.54C1331.22,241.99,1331.52,241.26,1332.06,240.73z"/>
		<circle class="st1" cx="1353.11" cy="221.56" r="4.42"/>
		<path class="st1" d="M1355.13,291.23h-18.21c-3.13,0-5.69-2.56-5.69-5.69v-0.01c0-3.13,2.56-5.69,5.69-5.69h18.21
			c3.13,0,5.69,2.56,5.69,5.69v0.01C1360.82,288.66,1358.26,291.23,1355.13,291.23z"/>
		<path class="st3" d="M1350.39,287.16h-8.74c-0.9,0-1.63-0.73-1.63-1.63v0c0-0.9,0.73-1.63,1.63-1.63h8.74
			c0.9,0,1.63,0.73,1.63,1.63v0C1352.02,286.43,1351.29,287.16,1350.39,287.16z"/>
		<path class="st4" d="M1388,295.98h-56.53c-2.76,0-5-2.24-5-5v-80.29c0-2.76,2.24-5,5-5H1388c2.76,0,5,2.24,5,5v80.29
			C1393,293.74,1390.76,295.98,1388,295.98z"/>
	</g>
	<g>
		<path class="st5" d="M1450.99,261.72h-43.96c-1.35,0-2.44-1.09-2.44-2.44v0c0-1.35,1.09-2.44,2.44-2.44h43.96
			c1.35,0,2.44,1.09,2.44,2.44v0C1453.43,260.63,1452.34,261.72,1450.99,261.72z"/>
		<path class="st6" d="M1440.17,270.68h-33.14c-1.35,0-2.44-1.09-2.44-2.44v0c0-1.35,1.09-2.44,2.44-2.44h33.14
			c1.35,0,2.44,1.09,2.44,2.44v0C1442.61,269.58,1441.52,270.68,1440.17,270.68z"/>
		<path class="st6" d="M1458.57,251.14h-50.98c-1.66,0-3-1.34-3-3v-34.7c0-1.66,1.34-3,3-3h50.98c1.66,0,3,1.34,3,3v34.7
			C1461.57,249.8,1460.23,251.14,1458.57,251.14z"/>
		<path class="st5" d="M1405.43,240.73l10.72-10.72c1.11-1.11,2.92-1.11,4.03,0l4.29,4.29c1.11,1.11,2.92,1.11,4.03,0l11.42-11.42
			c1.11-1.11,2.92-1.11,4.03,0l16.83,16.83c0.53,0.53,0.84,1.26,0.84,2.02v6.56c0,1.57-1.28,2.85-2.85,2.85h-51.32
			c-1.57,0-2.85-1.28-2.85-2.85v-5.54C1404.59,241.99,1404.89,241.26,1405.43,240.73z"/>
		<circle class="st5" cx="1426.48" cy="221.56" r="4.42"/>
		<path class="st5" d="M1428.5,291.23h-18.21c-3.13,0-5.69-2.56-5.69-5.69v-0.01c0-3.13,2.56-5.69,5.69-5.69h18.21
			c3.13,0,5.69,2.56,5.69,5.69v0.01C1434.19,288.66,1431.63,291.23,1428.5,291.23z"/>
		<path class="st3" d="M1423.76,287.16h-8.74c-0.9,0-1.63-0.73-1.63-1.63v0c0-0.9,0.73-1.63,1.63-1.63h8.74
			c0.9,0,1.63,0.73,1.63,1.63v0C1425.39,286.43,1424.66,287.16,1423.76,287.16z"/>
		<path class="st7" d="M1461.37,295.98h-56.53c-2.76,0-5-2.24-5-5v-80.29c0-2.76,2.24-5,5-5h56.53c2.76,0,5,2.24,5,5v80.29
			C1466.37,293.74,1464.13,295.98,1461.37,295.98z"/>
	</g>
	<g>
		<path class="st8" d="M1597.73,261.72h-43.96c-1.35,0-2.44-1.09-2.44-2.44v0c0-1.35,1.09-2.44,2.44-2.44h43.96
			c1.35,0,2.44,1.09,2.44,2.44v0C1600.17,260.63,1599.07,261.72,1597.73,261.72z"/>
		<path class="st9" d="M1581.45,270.68h-27.68c-1.35,0-2.44-1.09-2.44-2.44v0c0-1.35,1.09-2.44,2.44-2.44h27.68
			c1.35,0,2.44,1.09,2.44,2.44v0C1583.89,269.58,1582.79,270.68,1581.45,270.68z"/>
		<path class="st9" d="M1605.31,251.14h-50.98c-1.66,0-3-1.34-3-3v-34.7c0-1.66,1.34-3,3-3h50.98c1.66,0,3,1.34,3,3v34.7
			C1608.31,249.8,1606.96,251.14,1605.31,251.14z"/>
		<path class="st8" d="M1552.16,240.73l10.72-10.72c1.11-1.11,2.92-1.11,4.03,0l4.29,4.29c1.11,1.11,2.92,1.11,4.03,0l11.42-11.42
			c1.11-1.11,2.92-1.11,4.03,0l16.83,16.83c0.53,0.53,0.84,1.26,0.84,2.02v6.56c0,1.57-1.28,2.85-2.85,2.85h-51.32
			c-1.57,0-2.85-1.28-2.85-2.85v-5.54C1551.33,241.99,1551.63,241.26,1552.16,240.73z"/>
		<circle class="st8" cx="1573.21" cy="221.56" r="4.42"/>
		<path class="st8" d="M1575.23,291.23h-18.21c-3.13,0-5.69-2.56-5.69-5.69v-0.01c0-3.13,2.56-5.69,5.69-5.69h18.21
			c3.13,0,5.69,2.56,5.69,5.69v0.01C1580.93,288.66,1578.36,291.23,1575.23,291.23z"/>
		<path class="st10" d="M1608.1,295.98h-56.53c-2.76,0-5-2.24-5-5v-80.29c0-2.76,2.24-5,5-5h56.53c2.76,0,5,2.24,5,5v80.29
			C1613.1,293.74,1610.87,295.98,1608.1,295.98z"/>
		<path class="st3" d="M1570.5,287.16h-8.74c-0.9,0-1.63-0.73-1.63-1.63v0c0-0.9,0.73-1.63,1.63-1.63h8.74
			c0.9,0,1.63,0.73,1.63,1.63v0C1572.12,286.43,1571.4,287.16,1570.5,287.16z"/>
	</g>
	<g>
		<path class="st11" d="M1671.09,261.72h-43.96c-1.35,0-2.44-1.09-2.44-2.44v0c0-1.35,1.09-2.44,2.44-2.44h43.96
			c1.35,0,2.44,1.09,2.44,2.44v0C1673.53,260.63,1672.44,261.72,1671.09,261.72z"/>
		<path class="st12" d="M1654.81,270.68h-27.68c-1.35,0-2.44-1.09-2.44-2.44v0c0-1.35,1.09-2.44,2.44-2.44h27.68
			c1.35,0,2.44,1.09,2.44,2.44v0C1657.25,269.58,1656.16,270.68,1654.81,270.68z"/>
		<path class="st13" d="M1678.67,251.14h-50.98c-1.66,0-3-1.34-3-3v-34.7c0-1.66,1.34-3,3-3h50.98c1.66,0,3,1.34,3,3v34.7
			C1681.67,249.8,1680.33,251.14,1678.67,251.14z"/>
		<path class="st11" d="M1625.53,240.73l10.72-10.72c1.11-1.11,2.92-1.11,4.03,0l4.29,4.29c1.11,1.11,2.92,1.11,4.03,0l11.42-11.42
			c1.11-1.11,2.92-1.11,4.03,0l16.83,16.83c0.53,0.53,0.84,1.26,0.84,2.02v6.56c0,1.57-1.28,2.85-2.85,2.85h-51.32
			c-1.57,0-2.85-1.28-2.85-2.85v-5.54C1624.69,241.99,1624.99,241.26,1625.53,240.73z"/>
		<circle class="st11" cx="1646.58" cy="221.56" r="4.42"/>
		<path class="st11" d="M1648.6,291.23h-18.21c-3.13,0-5.69-2.56-5.69-5.69v-0.01c0-3.13,2.56-5.69,5.69-5.69h18.21
			c3.13,0,5.69,2.56,5.69,5.69v0.01C1654.29,288.66,1651.73,291.23,1648.6,291.23z"/>
		<path class="st14" d="M1681.47,295.98h-56.53c-2.76,0-5-2.24-5-5v-80.29c0-2.76,2.24-5,5-5h56.53c2.76,0,5,2.24,5,5v80.29
			C1686.47,293.74,1684.23,295.98,1681.47,295.98z"/>
		<path class="st3" d="M1643.86,287.16h-8.74c-0.9,0-1.63-0.73-1.63-1.63v0c0-0.9,0.73-1.63,1.63-1.63h8.74
			c0.9,0,1.63,0.73,1.63,1.63v0C1645.49,286.43,1644.76,287.16,1643.86,287.16z"/>
	</g>
	<g>
		<path class="st15" d="M1524.36,261.72h-43.96c-1.35,0-2.44-1.09-2.44-2.44v0c0-1.35,1.09-2.44,2.44-2.44h43.96
			c1.35,0,2.44,1.09,2.44,2.44v0C1526.8,260.63,1525.71,261.72,1524.36,261.72z"/>
		<path class="st16" d="M1513.54,270.68h-33.14c-1.35,0-2.44-1.09-2.44-2.44v0c0-1.35,1.09-2.44,2.44-2.44h33.14
			c1.35,0,2.44,1.09,2.44,2.44v0C1515.98,269.58,1514.88,270.68,1513.54,270.68z"/>
		<path class="st16" d="M1531.94,251.14h-50.98c-1.66,0-3-1.34-3-3v-34.7c0-1.66,1.34-3,3-3h50.98c1.66,0,3,1.34,3,3v34.7
			C1534.94,249.8,1533.59,251.14,1531.94,251.14z"/>
		<path class="st15" d="M1478.79,240.73l10.72-10.72c1.11-1.11,2.92-1.11,4.03,0l4.29,4.29c1.11,1.11,2.92,1.11,4.03,0l11.42-11.42
			c1.11-1.11,2.92-1.11,4.03,0l16.83,16.83c0.53,0.53,0.84,1.26,0.84,2.02v6.56c0,1.57-1.28,2.85-2.85,2.85h-51.32
			c-1.57,0-2.85-1.28-2.85-2.85v-5.54C1477.96,241.99,1478.26,241.26,1478.79,240.73z"/>
		<circle class="st15" cx="1499.85" cy="221.56" r="4.42"/>
		<path class="st15" d="M1501.87,291.23h-18.21c-3.13,0-5.69-2.56-5.69-5.69v-0.01c0-3.13,2.56-5.69,5.69-5.69h18.21
			c3.13,0,5.69,2.56,5.69,5.69v0.01C1507.56,288.66,1505,291.23,1501.87,291.23z"/>
		<path class="st3" d="M1497.13,287.16h-8.74c-0.9,0-1.63-0.73-1.63-1.63v0c0-0.9,0.73-1.63,1.63-1.63h8.74
			c0.9,0,1.63,0.73,1.63,1.63v0C1498.76,286.43,1498.03,287.16,1497.13,287.16z"/>
		<path class="st17" d="M1534.74,295.98h-56.53c-2.76,0-5-2.24-5-5v-80.29c0-2.76,2.24-5,5-5h56.53c2.76,0,5,2.24,5,5v80.29
			C1539.74,293.74,1537.5,295.98,1534.74,295.98z"/>
	</g>
	<path class="st18" d="M1426.47,335.71h-95c-2.76,0-5-2.24-5-5v-17.13c0-2.76,2.24-5,5-5h95c2.76,0,5,2.24,5,5v17.13
		C1431.47,333.47,1429.23,335.71,1426.47,335.71z"/>
	<g>
		<g>
			<path class="st5" d="M1390.98,320.14h-28.39c-0.83,0-1.5-0.67-1.5-1.5l0,0c0-0.83,0.67-1.5,1.5-1.5h28.39
				c0.83,0,1.5,0.67,1.5,1.5l0,0C1392.48,319.47,1391.81,320.14,1390.98,320.14z"/>
			<path class="st6" d="M1380.52,327.14h-17.92c-0.83,0-1.5-0.67-1.5-1.5l0,0c0-0.83,0.67-1.5,1.5-1.5h17.92
				c0.83,0,1.5,0.67,1.5,1.5l0,0C1382.02,326.47,1381.35,327.14,1380.52,327.14z"/>
		</g>
		<g>
			<line class="st19" x1="1421.13" y1="320.22" x2="1425.13" y2="324.22"/>
			<line class="st19" x1="1425.13" y1="320.22" x2="1421.13" y2="324.22"/>
		</g>
		<g>
			<path class="st6" d="M1355.08,331.52h-22.26c-1.1,0-2-0.9-2-2v-14.76c0-1.1,0.9-2,2-2h22.26c1.1,0,2,0.9,2,2v14.76
				C1357.08,330.63,1356.19,331.52,1355.08,331.52z"/>
			<path class="st5" d="M1331.31,326.6l4.53-4.53c0.67-0.67,1.76-0.67,2.43,0l1.4,1.4c0.67,0.67,1.76,0.67,2.43,0l4.69-4.69
				c0.67-0.67,1.76-0.67,2.43,0l7.35,7.35c0.32,0.32,0.5,0.76,0.5,1.22v2.45c0,0.95-0.77,1.72-1.72,1.72h-22.85
				c-0.95,0-1.72-0.77-1.72-1.72v-1.98C1330.81,327.36,1330.99,326.93,1331.31,326.6z"/>
			<circle class="st5" cx="1340.9" cy="317.89" r="2.04"/>
		</g>
	</g>
</g>
<g>
	<rect y="0.14" class="st0" width="400" height="170"/>
	<g>
		<path class="st1" d="M71.15,76.1H27.19c-1.35,0-2.44-1.09-2.44-2.44v0c0-1.35,1.09-2.44,2.44-2.44h43.96
			c1.35,0,2.44,1.09,2.44,2.44v0C73.59,75.01,72.5,76.1,71.15,76.1z"/>
		<path class="st2" d="M60.33,85.06H27.19c-1.35,0-2.44-1.09-2.44-2.44v0c0-1.35,1.09-2.44,2.44-2.44h33.14
			c1.35,0,2.44,1.09,2.44,2.44v0C62.77,83.97,61.68,85.06,60.33,85.06z"/>
		<path class="st2" d="M78.73,65.52H27.75c-1.66,0-3-1.34-3-3v-34.7c0-1.66,1.34-3,3-3h50.98c1.66,0,3,1.34,3,3v34.7
			C81.73,64.18,80.39,65.52,78.73,65.52z"/>
		<path class="st1" d="M25.59,55.11L36.3,44.4c1.11-1.11,2.92-1.11,4.03,0l4.29,4.29c1.11,1.11,2.92,1.11,4.03,0l11.42-11.42
			c1.11-1.11,2.92-1.11,4.03,0l16.83,16.83c0.53,0.53,0.84,1.26,0.84,2.02v6.56c0,1.57-1.28,2.85-2.85,2.85H27.6
			c-1.57,0-2.85-1.28-2.85-2.85v-5.54C24.75,56.37,25.05,55.65,25.59,55.11z"/>
		<circle class="st1" cx="46.64" cy="35.94" r="4.42"/>
		<path class="st1" d="M48.66,105.61H30.45c-3.13,0-5.69-2.56-5.69-5.69v-0.01c0-3.13,2.56-5.69,5.69-5.69h18.21
			c3.13,0,5.69,2.56,5.69,5.69v0.01C54.35,103.05,51.79,105.61,48.66,105.61z"/>
		<path class="st3" d="M43.92,101.54h-8.74c-0.9,0-1.63-0.73-1.63-1.63v0c0-0.9,0.73-1.63,1.63-1.63h8.74c0.9,0,1.63,0.73,1.63,1.63
			v0C45.55,100.81,44.82,101.54,43.92,101.54z"/>
		<path class="st4" d="M81.53,110.36H25c-2.76,0-5-2.24-5-5V25.07c0-2.76,2.24-5,5-5h56.53c2.76,0,5,2.24,5,5v80.29
			C86.53,108.12,84.29,110.36,81.53,110.36z"/>
	</g>
	<g>
		<path class="st5" d="M144.52,76.1h-43.96c-1.35,0-2.44-1.09-2.44-2.44v0c0-1.35,1.09-2.44,2.44-2.44h43.96
			c1.35,0,2.44,1.09,2.44,2.44v0C146.96,75.01,145.87,76.1,144.52,76.1z"/>
		<path class="st6" d="M133.7,85.06h-33.14c-1.35,0-2.44-1.09-2.44-2.44v0c0-1.35,1.09-2.44,2.44-2.44h33.14
			c1.35,0,2.44,1.09,2.44,2.44v0C136.14,83.97,135.04,85.06,133.7,85.06z"/>
		<path class="st6" d="M152.1,65.52h-50.98c-1.66,0-3-1.34-3-3v-34.7c0-1.66,1.34-3,3-3h50.98c1.66,0,3,1.34,3,3v34.7
			C155.1,64.18,153.76,65.52,152.1,65.52z"/>
		<path class="st5" d="M98.95,55.11l10.72-10.72c1.11-1.11,2.92-1.11,4.03,0l4.29,4.29c1.11,1.11,2.92,1.11,4.03,0l11.42-11.42
			c1.11-1.11,2.92-1.11,4.03,0l16.83,16.83c0.53,0.53,0.84,1.26,0.84,2.02v6.56c0,1.57-1.28,2.85-2.85,2.85h-51.32
			c-1.57,0-2.85-1.28-2.85-2.85v-5.54C98.12,56.37,98.42,55.65,98.95,55.11z"/>
		<circle class="st5" cx="120.01" cy="35.94" r="4.42"/>
		<path class="st5" d="M122.03,105.61h-18.21c-3.13,0-5.69-2.56-5.69-5.69v-0.01c0-3.13,2.56-5.69,5.69-5.69h18.21
			c3.13,0,5.69,2.56,5.69,5.69v0.01C127.72,103.05,125.16,105.61,122.03,105.61z"/>
		<path class="st3" d="M117.29,101.54h-8.74c-0.9,0-1.63-0.73-1.63-1.63v0c0-0.9,0.73-1.63,1.63-1.63h8.74
			c0.9,0,1.63,0.73,1.63,1.63v0C118.92,100.81,118.19,101.54,117.29,101.54z"/>
		<path class="st7" d="M154.9,110.36H98.37c-2.76,0-5-2.24-5-5V25.07c0-2.76,2.24-5,5-5h56.53c2.76,0,5,2.24,5,5v80.29
			C159.9,108.12,157.66,110.36,154.9,110.36z"/>
	</g>
	<g>
		<path class="st8" d="M291.25,76.1H247.3c-1.35,0-2.44-1.09-2.44-2.44v0c0-1.35,1.09-2.44,2.44-2.44h43.96
			c1.35,0,2.44,1.09,2.44,2.44v0C293.69,75.01,292.6,76.1,291.25,76.1z"/>
		<path class="st9" d="M274.97,85.06H247.3c-1.35,0-2.44-1.09-2.44-2.44v0c0-1.35,1.09-2.44,2.44-2.44h27.68
			c1.35,0,2.44,1.09,2.44,2.44v0C277.41,83.97,276.32,85.06,274.97,85.06z"/>
		<path class="st9" d="M298.83,65.52h-50.98c-1.66,0-3-1.34-3-3v-34.7c0-1.66,1.34-3,3-3h50.98c1.66,0,3,1.34,3,3v34.7
			C301.83,64.18,300.49,65.52,298.83,65.52z"/>
		<path class="st8" d="M245.69,55.11l10.72-10.72c1.11-1.11,2.92-1.11,4.03,0l4.29,4.29c1.11,1.11,2.92,1.11,4.03,0l11.42-11.42
			c1.11-1.11,2.92-1.11,4.03,0l16.83,16.83c0.53,0.53,0.84,1.26,0.84,2.02v6.56c0,1.57-1.28,2.85-2.85,2.85h-51.32
			c-1.57,0-2.85-1.28-2.85-2.85v-5.54C244.86,56.37,245.16,55.65,245.69,55.11z"/>
		<circle class="st8" cx="266.74" cy="35.94" r="4.42"/>
		<path class="st8" d="M268.76,105.61h-18.21c-3.13,0-5.69-2.56-5.69-5.69v-0.01c0-3.13,2.56-5.69,5.69-5.69h18.21
			c3.13,0,5.69,2.56,5.69,5.69v0.01C274.46,103.05,271.89,105.61,268.76,105.61z"/>
		<path class="st10" d="M301.63,110.36H245.1c-2.76,0-5-2.24-5-5V25.07c0-2.76,2.24-5,5-5h56.53c2.76,0,5,2.24,5,5v80.29
			C306.63,108.12,304.39,110.36,301.63,110.36z"/>
		<path class="st3" d="M264.03,101.54h-8.74c-0.9,0-1.63-0.73-1.63-1.63v0c0-0.9,0.73-1.63,1.63-1.63h8.74
			c0.9,0,1.63,0.73,1.63,1.63v0C265.65,100.81,264.92,101.54,264.03,101.54z"/>
	</g>
	<g>
		<path class="st11" d="M364.62,76.1h-43.96c-1.35,0-2.44-1.09-2.44-2.44v0c0-1.35,1.09-2.44,2.44-2.44h43.96
			c1.35,0,2.44,1.09,2.44,2.44v0C367.06,75.01,365.97,76.1,364.62,76.1z"/>
		<path class="st12" d="M348.34,85.06h-27.68c-1.35,0-2.44-1.09-2.44-2.44v0c0-1.35,1.09-2.44,2.44-2.44h27.68
			c1.35,0,2.44,1.09,2.44,2.44v0C350.78,83.97,349.69,85.06,348.34,85.06z"/>
		<path class="st13" d="M372.2,65.52h-50.98c-1.66,0-3-1.34-3-3v-34.7c0-1.66,1.34-3,3-3h50.98c1.66,0,3,1.34,3,3v34.7
			C375.2,64.18,373.86,65.52,372.2,65.52z"/>
		<path class="st11" d="M319.06,55.11l10.72-10.72c1.11-1.11,2.92-1.11,4.03,0l4.29,4.29c1.11,1.11,2.92,1.11,4.03,0l11.42-11.42
			c1.11-1.11,2.92-1.11,4.03,0l16.83,16.83c0.53,0.53,0.84,1.26,0.84,2.02v6.56c0,1.57-1.28,2.85-2.85,2.85h-51.32
			c-1.57,0-2.85-1.28-2.85-2.85v-5.54C318.22,56.37,318.52,55.65,319.06,55.11z"/>
		<circle class="st11" cx="340.11" cy="35.94" r="4.42"/>
		<path class="st11" d="M342.13,105.61h-18.21c-3.13,0-5.69-2.56-5.69-5.69v-0.01c0-3.13,2.56-5.69,5.69-5.69h18.21
			c3.13,0,5.69,2.56,5.69,5.69v0.01C347.82,103.05,345.26,105.61,342.13,105.61z"/>
		<path class="st14" d="M375,110.36h-56.53c-2.76,0-5-2.24-5-5V25.07c0-2.76,2.24-5,5-5H375c2.76,0,5,2.24,5,5v80.29
			C380,108.12,377.76,110.36,375,110.36z"/>
		<path class="st3" d="M337.39,101.54h-8.74c-0.9,0-1.63-0.73-1.63-1.63v0c0-0.9,0.73-1.63,1.63-1.63h8.74
			c0.9,0,1.63,0.73,1.63,1.63v0C339.02,100.81,338.29,101.54,337.39,101.54z"/>
	</g>
	<g>
		<path class="st15" d="M217.89,76.1h-43.96c-1.35,0-2.44-1.09-2.44-2.44v0c0-1.35,1.09-2.44,2.44-2.44h43.96
			c1.35,0,2.44,1.09,2.44,2.44v0C220.33,75.01,219.23,76.1,217.89,76.1z"/>
		<path class="st16" d="M207.06,85.06h-33.14c-1.35,0-2.44-1.09-2.44-2.44v0c0-1.35,1.09-2.44,2.44-2.44h33.14
			c1.35,0,2.44,1.09,2.44,2.44v0C209.5,83.97,208.41,85.06,207.06,85.06z"/>
		<path class="st16" d="M225.47,65.52h-50.98c-1.66,0-3-1.34-3-3v-34.7c0-1.66,1.34-3,3-3h50.98c1.66,0,3,1.34,3,3v34.7
			C228.47,64.18,227.12,65.52,225.47,65.52z"/>
		<path class="st15" d="M172.32,55.11l10.72-10.72c1.11-1.11,2.92-1.11,4.03,0l4.29,4.29c1.11,1.11,2.92,1.11,4.03,0l11.42-11.42
			c1.11-1.11,2.92-1.11,4.03,0l16.83,16.83c0.53,0.53,0.84,1.26,0.84,2.02v6.56c0,1.57-1.28,2.85-2.85,2.85h-51.32
			c-1.57,0-2.85-1.28-2.85-2.85v-5.54C171.49,56.37,171.79,55.65,172.32,55.11z"/>
		<circle class="st15" cx="193.38" cy="35.94" r="4.42"/>
		<path class="st15" d="M195.39,105.61h-18.21c-3.13,0-5.69-2.56-5.69-5.69v-0.01c0-3.13,2.56-5.69,5.69-5.69h18.21
			c3.13,0,5.69,2.56,5.69,5.69v0.01C201.09,103.05,198.53,105.61,195.39,105.61z"/>
		<path class="st3" d="M190.66,101.54h-8.74c-0.9,0-1.63-0.73-1.63-1.63v0c0-0.9,0.73-1.63,1.63-1.63h8.74
			c0.9,0,1.63,0.73,1.63,1.63v0C192.28,100.81,191.56,101.54,190.66,101.54z"/>
		<path class="st17" d="M228.26,110.36h-56.53c-2.76,0-5-2.24-5-5V25.07c0-2.76,2.24-5,5-5h56.53c2.76,0,5,2.24,5,5v80.29
			C233.26,108.12,231.03,110.36,228.26,110.36z"/>
	</g>
	<path class="st18" d="M120,150.09H25c-2.76,0-5-2.24-5-5v-17.13c0-2.76,2.24-5,5-5h95c2.76,0,5,2.24,5,5v17.13
		C125,147.85,122.76,150.09,120,150.09z"/>
	<g>
		<g>
			<path class="st5" d="M84.51,134.52H56.12c-0.83,0-1.5-0.67-1.5-1.5l0,0c0-0.83,0.67-1.5,1.5-1.5h28.39c0.83,0,1.5,0.67,1.5,1.5
				l0,0C86.01,133.85,85.34,134.52,84.51,134.52z"/>
			<path class="st6" d="M74.05,141.52H56.12c-0.83,0-1.5-0.67-1.5-1.5l0,0c0-0.83,0.67-1.5,1.5-1.5h17.92c0.83,0,1.5,0.67,1.5,1.5
				l0,0C75.55,140.85,74.87,141.52,74.05,141.52z"/>
		</g>
		<g>
			<line class="st19" x1="114.66" y1="134.6" x2="118.66" y2="138.6"/>
			<line class="st19" x1="118.66" y1="134.6" x2="114.66" y2="138.6"/>
		</g>
		<g>
			<path class="st6" d="M48.61,145.9H26.35c-1.1,0-2-0.9-2-2v-14.76c0-1.1,0.9-2,2-2h22.26c1.1,0,2,0.9,2,2v14.76
				C50.61,145.01,49.72,145.9,48.61,145.9z"/>
			<path class="st5" d="M24.84,140.99l4.53-4.53c0.67-0.67,1.76-0.67,2.43,0l1.4,1.4c0.67,0.67,1.76,0.67,2.43,0l4.69-4.69
				c0.67-0.67,1.76-0.67,2.43,0l7.35,7.35c0.32,0.32,0.5,0.76,0.5,1.22v2.45c0,0.95-0.77,1.72-1.72,1.72H26.06
				c-0.95,0-1.72-0.77-1.72-1.72v-1.98C24.34,141.75,24.52,141.31,24.84,140.99z"/>
			<circle class="st5" cx="34.43" cy="132.27" r="2.04"/>
		</g>
	</g>
</g>
</svg>
