<svg width="256" height="226" viewBox="0 0 256 226" fill="none" xmlns="http://www.w3.org/2000/svg">
<rect x="28" width="228" height="200" rx="12" fill="url(#paint0_linear_1_199)"/>
<path d="M28 12C28 5.37258 33.3726 0 40 0H244C250.627 0 256 5.37258 256 12V40H28V12Z" fill="#EAF6FF" fill-opacity="0.2"/>
<rect x="50" y="15" width="80" height="10" rx="5" fill="#EAF6FF"/>
<rect x="184" y="15" width="10" height="10" rx="5" fill="#EAF6FF"/>
<rect x="204" y="15" width="10" height="10" rx="5" fill="#EAF6FF"/>
<rect x="224" y="15" width="10" height="10" rx="5" fill="#EAF6FF"/>
<rect y="175.117" width="120" height="50" rx="25" fill="#0177BF"/>
<rect x="51" y="191.117" width="47" height="6" rx="3" fill="white" fill-opacity="0.2"/>
<rect x="51" y="203.117" width="39.1667" height="6" rx="3" fill="white" fill-opacity="0.2"/>
<path d="M38.8696 196.485H36.2531L32.9285 190.128C32.4561 189.224 31.307 188.858 30.3619 189.31C29.4169 189.762 29.0339 190.86 29.5064 191.764L31.9755 196.485H22.8072L25.2763 191.764C25.7488 190.86 25.3658 189.762 24.4208 189.31C23.4762 188.859 22.3268 189.224 21.8542 190.128L18.5296 196.485H15.9131C15.2982 196.485 14.7206 196.768 14.3611 197.244C14.0016 197.721 13.9038 198.334 14.0981 198.892L17.9242 209.866C18.1848 210.613 18.9158 211.117 19.7392 211.117H35.0435C35.8669 211.117 36.5979 210.613 36.8584 209.866L40.6845 198.892C40.8788 198.335 40.7811 197.721 40.4215 197.245C40.0618 196.768 39.4845 196.485 38.8696 196.485Z" fill="#98CDEC"/>
<g filter="url(#filter0_d_1_199)">
<path d="M169.741 80.2525C157.37 68.055 137.654 65.4118 122.559 74.1051C110.493 81.0415 103 94.0028 103 107.936V142.692C103 145.093 104.943 147.036 107.344 147.036H142.1C163.661 147.036 181.201 129.497 181.201 107.936C181.201 97.5795 177.145 87.7621 169.741 80.2525ZM129.067 90.558C131.466 90.558 133.411 92.5028 133.411 94.9024C133.411 97.3018 131.466 99.2469 129.067 99.2469C126.668 99.2469 124.722 97.3018 124.722 94.9024C124.722 92.5025 126.668 90.558 129.067 90.558ZM155.134 125.314C152.735 125.314 150.789 123.369 150.789 120.969C150.789 118.57 152.735 116.625 155.134 116.625C157.533 116.625 159.478 118.57 159.478 120.969C159.478 123.369 157.533 125.314 155.134 125.314ZM158.206 97.974L132.139 124.041C130.442 125.738 127.692 125.738 125.995 124.041C124.298 122.344 124.298 119.594 125.995 117.898L152.062 91.8306C153.759 90.1336 156.509 90.1336 158.206 91.8306C159.903 93.5276 159.903 96.277 158.206 97.974Z" fill="url(#paint1_linear_1_199)"/>
</g>
<defs>
<filter id="filter0_d_1_199" x="71" y="57" width="142.201" height="142.036" filterUnits="userSpaceOnUse" color-interpolation-filters="sRGB">
<feFlood flood-opacity="0" result="BackgroundImageFix"/>
<feColorMatrix in="SourceAlpha" type="matrix" values="0 0 0 0 0 0 0 0 0 0 0 0 0 0 0 0 0 0 127 0" result="hardAlpha"/>
<feOffset dy="20"/>
<feGaussianBlur stdDeviation="16"/>
<feComposite in2="hardAlpha" operator="out"/>
<feColorMatrix type="matrix" values="0 0 0 0 0.105882 0 0 0 0 0.105882 0 0 0 0 0.313726 0 0 0 0.16 0"/>
<feBlend mode="normal" in2="BackgroundImageFix" result="effect1_dropShadow_1_199"/>
<feBlend mode="normal" in="SourceGraphic" in2="effect1_dropShadow_1_199" result="shape"/>
</filter>
<linearGradient id="paint0_linear_1_199" x1="293.5" y1="-35.5" x2="-40.5" y2="259.5" gradientUnits="userSpaceOnUse">
<stop stop-color="#33DBBE"/>
<stop offset="1" stop-color="#3BA4FF"/>
</linearGradient>
<linearGradient id="paint1_linear_1_199" x1="136.957" y1="147.102" x2="138.898" y2="69.9702" gradientUnits="userSpaceOnUse">
<stop stop-color="#CAEEFF"/>
<stop offset="1" stop-color="white"/>
</linearGradient>
</defs>
</svg>
