<svg width="410" height="170" viewBox="0 0 410 170" fill="none" xmlns="http://www.w3.org/2000/svg">
<path d="M0 10C0 4.47715 4.47715 0 10 0H400C405.523 0 410 4.47715 410 10V170H0V10Z" fill="#B7CEFF"/>
<g clip-path="url(#clip0_687_1463)">
<path d="M364.332 164.533C364.332 164.533 411.046 99.2198 375.907 74.1842C356.036 60.0273 335.628 55.9688 317.578 40.888C299.528 25.8073 262.269 25.239 228.384 46.5007C194.499 67.7624 165.494 53.9901 137.403 50.9691C109.313 47.9481 34.9939 57.695 37.1445 89.8245C39.2951 121.954 18.4099 124.901 21.2695 140.035C24.1292 155.17 45.9452 162.336 45.9452 162.336L364.332 164.533Z" fill="#C7D9FF"/>
<path d="M37.1483 160.13C37.1483 160.13 25.2253 146.163 31.3541 144.674C37.4829 143.185 41.859 154.324 41.859 154.324C41.859 154.324 38.3573 147.785 41.859 148.398C45.3606 149.011 48.9011 160.129 48.9011 160.129L57.7222 158.899C57.7222 158.899 66.5025 152.843 71.1071 152.822C75.7118 152.8 76.1193 156.214 76.1193 156.214C76.1193 156.214 86.5619 148.581 90.3291 148.943C94.0962 149.305 96.2049 157.462 96.2049 157.462C96.2049 157.462 97.5939 145.979 101.244 146.768C104.895 147.557 118.663 157.462 118.663 157.462L153.674 157.314C153.674 157.314 156.549 131.453 162.094 133.095C167.638 134.737 164.146 147.127 164.146 147.127C164.146 147.127 167.903 139.058 170.105 140.248C172.308 141.438 170.105 148.945 170.105 148.945C170.105 148.945 173.164 146.834 175.65 148.945C178.136 151.056 181.12 151.455 181.12 151.455L192.808 153.748C192.808 153.748 190.243 139.247 193.821 139.469C197.4 139.692 197.968 146.057 197.968 146.057C197.968 146.057 197.596 131.075 199.986 131.009C202.376 130.943 206.665 133.096 206.665 133.096L295.554 154.706C295.554 154.706 306.403 151.152 308.665 153.872C310.928 156.592 311.027 159.214 311.027 159.214L339.251 162.323C339.251 162.323 356.729 151.089 360.523 152.816C364.318 154.543 359.648 161.17 359.648 161.17C359.648 161.17 370.298 152.241 372.924 154.514C375.55 156.787 362.27 166.829 362.27 166.829C362.27 166.829 304.792 164.42 298.375 163.418C291.959 162.415 251.894 160.755 251.894 160.755L162.094 163.327L107.634 161.848L37.1483 160.13Z" fill="#9CD499"/>
<path d="M104.984 156.543C71.038 156.348 26.1007 154.512 27.2679 160.651C28.4351 166.789 65.5502 169.005 90.329 165.757C115.108 162.51 119.801 170.496 164.146 168.126C208.491 165.757 240.658 163.437 269.81 163.641C298.962 163.844 351.2 173.57 364.624 168.572C378.048 163.574 355.749 160.704 334.798 160.401C313.847 160.098 304.315 157.26 289.382 156.403C274.449 155.545 162.351 152.006 144.859 154.445C127.366 156.885 104.984 156.543 104.984 156.543Z" fill="#C4E7F2"/>
<path d="M144.97 131.406C159.569 116.915 163.043 110.521 164.376 91.3314C165.708 72.1417 182.507 46.397 174.297 51.6648C166.086 56.9327 153.55 75.7844 156.851 91.4606C160.152 107.137 158.63 112.066 156.643 116.129C154.656 120.192 144.859 130.117 144.859 130.117L144.97 131.406Z" fill="#9CD499"/>
<path d="M153.944 121.765L154.09 121.584C154.861 120.099 158.78 112.427 159.374 108.738C160.034 104.642 157.272 94.7954 160.125 86.8281C162.978 78.8608 163.714 71.6599 164.772 66.1094C166.171 58.7822 172.717 52.3002 176.467 51.323C176.442 51.2599 176.407 51.2012 176.364 51.1491L175.391 51.0859C175.007 51.2397 174.64 51.4335 174.297 51.6639C166.083 56.9317 153.55 75.7834 156.851 91.4596C160.152 107.136 158.63 112.065 156.643 116.128C156.106 117.225 155.002 118.751 153.674 120.387L153.944 121.765Z" fill="#74B570"/>
<path d="M137.414 152.656C152.121 133.774 155.618 126.27 160.971 107.271C166.325 88.2729 218.421 69.1998 213.584 75.0339C208.747 80.8681 195.92 94.9017 181.702 99.9606C167.483 105.02 161.913 112.763 158.247 122.303C154.581 131.842 140.533 150.698 140.533 150.698L137.407 153.721L137.414 152.656Z" fill="#9CD499"/>
<path d="M143.749 144.966C143.692 144.965 143.636 144.948 143.589 144.917C143.524 144.874 143.479 144.808 143.464 144.732C143.448 144.657 143.464 144.578 143.506 144.514C143.547 144.453 147.591 138.336 150.599 133.127C153.606 127.919 157.577 118.265 158.575 114.724C159.1 112.854 160.568 109.576 163.113 105.982C166.223 101.592 170.154 97.8443 174.688 94.944C179.94 91.6141 183.644 89.7461 188.775 87.1603C193.845 84.6065 200.155 81.4291 210.708 75.4891C210.775 75.4521 210.854 75.4432 210.928 75.4643C211.002 75.4854 211.065 75.5348 211.103 75.6017C211.14 75.6687 211.15 75.7478 211.13 75.8218C211.109 75.8958 211.06 75.9589 210.994 75.9972C200.429 81.942 194.113 85.1282 189.038 87.681C183.921 90.259 180.224 92.1212 175.001 95.4356C164.609 102.029 160.022 111.706 159.133 114.879C158.132 118.447 154.137 128.17 151.106 133.416C148.09 138.639 144.034 144.77 143.994 144.832C143.968 144.873 143.932 144.907 143.889 144.93C143.846 144.953 143.798 144.966 143.749 144.966Z" fill="#74B570"/>
<path d="M152.049 135.676C153.288 109.767 187.117 98.844 188.301 108.83C189.485 118.816 184.694 147.06 183.123 145.505C181.552 143.951 178.089 114.81 177.366 115.707C176.642 116.605 156.815 119.037 154.266 128.036C151.716 137.035 152.93 153.268 152.93 153.268C152.93 153.268 150.967 158.313 152.049 135.676Z" fill="#9CD499"/>
<path d="M152.523 154.04C152.49 154.04 152.457 154.037 152.425 154.03C152.072 153.954 151.681 153.609 151.513 150.43C151.353 147.405 151.436 142.437 151.76 135.665C151.971 131.132 153.222 126.707 155.417 122.733C157.363 119.186 160.024 115.962 163.321 113.15C168.975 108.328 176.268 105.088 181.899 104.888C185.843 104.752 188.281 106.176 188.591 108.799C189.094 113.043 188.571 121.155 187.19 130.499C186.607 134.419 185.94 138.1 185.297 140.862C184.234 145.437 183.677 145.708 183.467 145.81C183.377 145.856 183.275 145.871 183.176 145.854C183.076 145.836 182.985 145.787 182.917 145.713C182.041 144.852 180.856 137.571 179.271 127.379C178.493 122.375 177.69 117.212 177.305 116.09C176.891 116.284 176.047 116.498 174.41 116.902C168.587 118.338 156.47 121.325 154.547 128.116C152.04 136.962 153.209 153.08 153.221 153.246C153.224 153.29 153.218 153.334 153.202 153.375C153.138 153.539 152.911 154.04 152.523 154.04ZM182.413 105.46C182.251 105.46 182.087 105.463 181.92 105.469C172.085 105.814 153.259 116.497 152.341 135.691C152.034 142.103 151.944 146.894 152.072 149.935C152.179 152.469 152.415 153.197 152.529 153.403C152.57 153.345 152.605 153.283 152.634 153.219C152.552 152.036 151.537 136.599 153.984 127.957C156.001 120.84 168.34 117.798 174.27 116.336C175.645 115.997 176.943 115.677 177.146 115.517C177.186 115.468 177.239 115.432 177.3 115.413C177.36 115.394 177.424 115.392 177.485 115.408C177.727 115.472 177.901 115.519 178.544 119.184C178.919 121.315 179.37 124.217 179.848 127.29C180.455 131.19 181.142 135.611 181.768 139.044C182.601 143.609 183.055 144.897 183.272 145.229C183.44 145.034 183.926 144.193 184.742 140.663C185.38 137.908 186.048 134.245 186.622 130.349C187.984 121.077 188.507 113.045 188.011 108.86C187.754 106.687 185.723 105.46 182.413 105.46Z" fill="#74B570"/>
<path d="M157.927 122.066C156.975 123.133 156.161 124.315 155.504 125.585C160.597 118.896 175.924 116.822 177.182 115.981L177.437 115.747C173.124 112.628 162.932 116.536 157.927 122.066Z" fill="#74B570"/>
<path d="M183.386 145.122H183.353C183.276 145.113 183.206 145.074 183.158 145.014C183.11 144.953 183.088 144.876 183.096 144.799L184.077 136.16C184.142 135.61 184.207 135.052 184.271 134.486C185.195 126.41 186.345 116.359 185.327 111.327C185.161 110.512 183.69 108.947 181.056 108.18C177.478 107.141 169.864 107.069 159.073 118.275C159.047 118.302 159.015 118.325 158.98 118.34C158.945 118.355 158.907 118.364 158.869 118.364C158.83 118.365 158.792 118.358 158.756 118.344C158.721 118.33 158.688 118.31 158.661 118.283C158.633 118.257 158.611 118.225 158.595 118.19C158.58 118.155 158.572 118.117 158.571 118.079C158.57 118.04 158.577 118.002 158.591 117.967C158.605 117.931 158.626 117.898 158.652 117.871C169.656 106.443 177.514 106.544 181.218 107.621C184.115 108.463 185.698 110.228 185.898 111.215C186.934 116.337 185.827 126.016 184.85 134.555C184.785 135.121 184.72 135.678 184.656 136.228L183.675 144.873C183.665 144.942 183.63 145.006 183.577 145.051C183.524 145.097 183.456 145.122 183.386 145.122Z" fill="#74B570"/>
<path d="M181.124 130.268C181.074 130.268 181.025 130.256 180.982 130.231C180.938 130.207 180.902 130.172 180.875 130.129C180.849 130.087 180.835 130.038 180.833 129.989C180.831 129.939 180.842 129.889 180.864 129.845C180.902 129.771 184.645 122.329 185.622 113.414C185.63 113.337 185.669 113.266 185.729 113.217C185.79 113.168 185.868 113.146 185.945 113.154C186.022 113.162 186.093 113.201 186.142 113.262C186.191 113.322 186.214 113.4 186.205 113.477C185.217 122.502 181.426 130.034 181.388 130.109C181.364 130.158 181.326 130.198 181.279 130.227C181.232 130.255 181.179 130.269 181.124 130.268Z" fill="#74B570"/>
<path d="M180.496 124.576C180.446 124.576 180.397 124.563 180.354 124.539C180.31 124.514 180.273 124.479 180.247 124.437C180.221 124.394 180.207 124.345 180.205 124.295C180.203 124.246 180.214 124.196 180.237 124.152C180.272 124.084 183.729 117.279 185.327 111.192C185.336 111.155 185.352 111.119 185.375 111.088C185.398 111.056 185.427 111.03 185.461 111.01C185.494 110.99 185.531 110.977 185.57 110.972C185.608 110.966 185.647 110.968 185.685 110.978C185.723 110.988 185.758 111.006 185.789 111.029C185.819 111.053 185.845 111.083 185.864 111.116C185.884 111.15 185.896 111.187 185.9 111.226C185.905 111.265 185.902 111.304 185.891 111.341C184.277 117.488 180.791 124.348 180.757 124.417C180.733 124.465 180.695 124.505 180.649 124.533C180.603 124.561 180.55 124.576 180.496 124.576Z" fill="#74B570"/>
<path d="M190.099 87.801C189.269 87.801 188.784 87.7563 188.765 87.7543C188.688 87.7467 188.617 87.7087 188.568 87.6487C188.518 87.5887 188.495 87.5115 188.502 87.4343C188.51 87.357 188.548 87.2859 188.608 87.2366C188.668 87.1873 188.745 87.1639 188.823 87.1715C188.896 87.1783 196.157 87.8417 203.047 83.8037C203.08 83.7814 203.118 83.7661 203.157 83.7588C203.196 83.7515 203.237 83.7524 203.276 83.7613C203.315 83.7703 203.352 83.7872 203.384 83.8109C203.416 83.8346 203.443 83.8647 203.463 83.8993C203.483 83.9338 203.496 83.9722 203.5 84.0118C203.505 84.0515 203.501 84.0917 203.49 84.1299C203.478 84.1682 203.459 84.2036 203.433 84.234C203.407 84.2645 203.375 84.2893 203.339 84.3069C198.06 87.4046 192.564 87.801 190.099 87.801Z" fill="#74B570"/>
<path d="M188.56 93.4404C183.436 93.4404 180.39 92.3786 180.229 92.3203C180.191 92.3089 180.156 92.29 180.126 92.2647C180.096 92.2393 180.071 92.2081 180.053 92.173C180.036 92.1378 180.025 92.0994 180.023 92.0601C180.02 92.0208 180.026 91.9813 180.039 91.9442C180.052 91.907 180.072 91.8729 180.099 91.8439C180.126 91.815 180.158 91.7917 180.194 91.7756C180.23 91.7594 180.269 91.7507 180.309 91.75C180.348 91.7493 180.387 91.7567 180.424 91.7715C180.475 91.79 185.659 93.5909 193.783 92.5001C193.822 92.493 193.862 92.4939 193.901 92.5026C193.939 92.5114 193.975 92.5279 194.007 92.551C194.039 92.5742 194.066 92.6036 194.086 92.6374C194.106 92.6712 194.12 92.7088 194.125 92.7479C194.13 92.7869 194.127 92.8266 194.117 92.8646C194.106 92.9026 194.088 92.938 194.064 92.9688C194.039 92.9995 194.008 93.025 193.974 93.0436C193.939 93.0622 193.901 93.0736 193.861 93.0771C192.104 93.3161 190.333 93.4375 188.56 93.4404Z" fill="#74B570"/>
<path d="M180.195 98.6347C174.808 98.6347 172.536 97.065 172.426 96.9834C172.364 96.938 172.323 96.8701 172.311 96.7944C172.299 96.7187 172.317 96.6413 172.362 96.5789C172.406 96.5166 172.474 96.4743 172.549 96.4613C172.625 96.4482 172.703 96.4655 172.766 96.5093C172.795 96.5297 175.848 98.6114 183.208 97.8945C183.247 97.8908 183.285 97.8947 183.322 97.9059C183.359 97.9172 183.393 97.9355 183.423 97.96C183.453 97.9844 183.477 98.0145 183.495 98.0484C183.513 98.0823 183.525 98.1195 183.528 98.1578C183.532 98.196 183.528 98.2347 183.517 98.2714C183.506 98.3082 183.487 98.3424 183.463 98.3721C183.438 98.4018 183.408 98.4263 183.374 98.4444C183.34 98.4625 183.303 98.4737 183.265 98.4774C182.15 98.5871 181.128 98.6347 180.195 98.6347Z" fill="#74B570"/>
<path d="M118.431 147.829C104.637 120.567 90.0823 109.673 70.6357 105.534C51.1891 101.395 48.9023 98.7109 48.9023 98.7109C48.9023 98.7109 63.6364 119.938 75.5058 123.445C87.3753 126.953 101.55 126.496 105.413 129.616C109.275 132.735 116.369 146.537 116.369 146.537L118.76 148.405L118.431 147.829Z" fill="#9CD499"/>
<path d="M115.854 150.952C115.796 150.435 101.047 126.357 89.4088 129.898C77.7708 133.44 76.3965 137.16 68.3457 139.418C62.6021 141.026 57.7231 141.221 57.7231 141.221C57.7231 141.221 63.8947 147.132 75.0201 145.606C82.8851 144.527 90.2911 136.94 95.9559 135.423C101.621 133.905 109.503 143.894 109.503 143.894L113.102 149.32L115.854 150.952Z" fill="#9CD499"/>
<path d="M117.681 146.461C117.624 146.461 117.569 146.445 117.522 146.414C117.475 146.384 117.437 146.34 117.414 146.289C117.394 146.244 115.344 141.75 111.516 136.215C107.989 131.116 102.187 124.061 94.5757 119.423C87.0414 114.834 80.7483 113.246 74.6603 111.713C68.8992 110.262 63.4581 108.896 57.7135 105.047C57.6816 105.025 57.6541 104.998 57.6328 104.966C57.6115 104.934 57.5966 104.898 57.5891 104.861C57.5816 104.823 57.5816 104.784 57.5891 104.747C57.5966 104.709 57.6114 104.673 57.6328 104.642C57.6541 104.61 57.6815 104.582 57.7134 104.561C57.7454 104.54 57.7812 104.525 57.8188 104.517C57.8565 104.51 57.8953 104.51 57.9329 104.517C57.9706 104.525 58.0064 104.54 58.0384 104.561C63.6983 108.349 69.0928 109.709 74.8033 111.146C80.9311 112.689 87.2681 114.284 94.8773 118.923C102.58 123.619 108.441 130.743 112.001 135.893C115.857 141.469 117.924 146.002 117.944 146.047C117.964 146.091 117.973 146.14 117.969 146.189C117.966 146.237 117.95 146.284 117.924 146.325C117.897 146.366 117.861 146.4 117.818 146.423C117.775 146.446 117.727 146.459 117.679 146.459L117.681 146.461Z" fill="#74B570"/>
<path d="M111.579 143.953C111.537 143.953 111.496 143.945 111.458 143.928C111.42 143.911 111.386 143.886 111.358 143.855C104.035 135.414 98.1988 131.23 93.0057 130.685C88.4342 130.206 84.9608 132.616 81.2782 135.169C80.3493 135.814 79.3874 136.481 78.4089 137.097C69.8358 142.493 64.4841 142.316 64.2604 142.306C64.2221 142.304 64.1845 142.295 64.1497 142.279C64.115 142.263 64.0838 142.24 64.0579 142.211C64.032 142.183 64.012 142.15 63.9989 142.114C63.9859 142.078 63.98 142.04 63.9817 142.002C63.9835 141.963 63.9927 141.926 64.009 141.891C64.0252 141.856 64.0482 141.825 64.0765 141.799C64.1048 141.773 64.1379 141.753 64.174 141.74C64.2101 141.727 64.2483 141.722 64.2867 141.723C64.3392 141.723 69.6986 141.888 78.0986 136.603C79.0664 135.994 80.0225 135.331 80.9466 134.69C84.7205 132.074 88.2844 129.602 93.068 130.104C98.4177 130.666 104.371 134.913 111.801 143.47C111.851 143.528 111.876 143.604 111.871 143.681C111.865 143.759 111.829 143.83 111.77 143.881C111.717 143.927 111.649 143.953 111.579 143.953Z" fill="#74B570"/>
<path d="M66.6999 115.265C66.6305 115.266 66.563 115.242 66.5097 115.198C66.4564 115.153 66.4207 115.091 66.409 115.023C66.3973 114.955 66.4103 114.885 66.4458 114.825C66.4813 114.765 66.5369 114.72 66.6026 114.698C74.4589 112.036 81.7763 113.025 81.8453 113.036C81.8838 113.041 81.9209 113.053 81.9545 113.072C81.9881 113.092 82.0176 113.117 82.0411 113.148C82.0647 113.179 82.0819 113.214 82.0917 113.251C82.1016 113.289 82.1038 113.328 82.0984 113.366C82.093 113.404 82.08 113.441 82.0601 113.474C82.0403 113.508 82.014 113.537 81.9829 113.56C81.9517 113.583 81.9163 113.599 81.8786 113.608C81.841 113.618 81.8019 113.619 81.7636 113.613C81.6926 113.602 74.5095 112.635 66.7903 115.25C66.7612 115.26 66.7307 115.265 66.6999 115.265Z" fill="#74B570"/>
<path d="M96.4859 120.553C96.4352 120.553 96.3853 120.54 96.341 120.515C89.2113 116.448 84.0066 117.336 72.9152 119.73C72.8772 119.74 72.8376 119.742 72.7989 119.736C72.7601 119.73 72.723 119.716 72.6896 119.696C72.6563 119.675 72.6274 119.648 72.6048 119.616C72.5821 119.584 72.5662 119.548 72.5579 119.51C72.5496 119.471 72.5491 119.432 72.5564 119.393C72.5638 119.355 72.5788 119.318 72.6006 119.286C72.6224 119.253 72.6506 119.225 72.6834 119.204C72.7163 119.183 72.7531 119.168 72.7917 119.161C84.0357 116.733 89.3154 115.836 96.6308 120.008C96.687 120.04 96.731 120.089 96.756 120.149C96.781 120.208 96.7856 120.274 96.769 120.336C96.7524 120.399 96.7157 120.454 96.6644 120.493C96.6132 120.532 96.5504 120.553 96.4859 120.553Z" fill="#74B570"/>
<path d="M294.507 142.46C294.988 141.751 319.505 123.956 324.023 104.879C327.183 91.5206 335.189 78.3398 335.189 78.3398C335.189 78.3398 319.681 84.2779 313.33 105.086C309.422 117.894 308.768 121.732 306.939 125.04C305.109 128.349 292.984 142.876 292.984 142.876L294.507 142.46Z" fill="#9CD499"/>
<path d="M292.984 143.166C292.929 143.166 292.874 143.15 292.827 143.12C292.781 143.091 292.743 143.048 292.72 142.998C292.696 142.948 292.687 142.892 292.694 142.837C292.701 142.782 292.724 142.73 292.759 142.688C292.881 142.543 304.889 128.144 306.683 124.898C307.879 122.736 308.553 120.389 310.031 115.244C310.788 112.61 311.729 109.331 313.046 105C314.505 100.226 316.567 95.8407 319.174 91.9649C321.228 88.9045 323.671 86.1229 326.441 83.6897C331.097 79.6167 334.916 78.1275 335.076 78.0663C335.133 78.0445 335.196 78.0409 335.255 78.0562C335.314 78.0715 335.366 78.1048 335.405 78.1515C335.444 78.1982 335.468 78.256 335.472 78.3166C335.477 78.3773 335.462 78.4379 335.431 78.4898C335.351 78.621 327.412 91.7862 324.298 104.945C322.611 112.074 317.976 119.846 310.514 128.043C304.557 134.589 298.498 139.532 295.912 141.643C295.323 142.121 294.815 142.536 294.735 142.629C294.696 142.683 294.64 142.722 294.575 142.739L293.052 143.155C293.03 143.162 293.007 143.165 292.984 143.166ZM334.479 78.9736C333.105 79.6293 330.15 81.2233 326.813 84.1462C322.587 87.8472 316.866 94.4993 313.61 105.17C312.29 109.497 311.348 112.773 310.594 115.404C309.103 120.593 308.423 122.961 307.196 125.18C305.586 128.094 296.283 139.362 293.802 142.349L294.351 142.199C294.496 142.054 294.821 141.788 295.553 141.191C311.652 128.058 321.134 115.817 323.741 104.811C326.436 93.4103 332.725 82.016 334.479 78.9736Z" fill="#74B570"/>
<path d="M301.119 146.403C300.165 147.472 299.089 149.437 298.038 151.712L296.856 151.439C305.583 132.328 316.862 122.535 332.053 116.641C350.865 109.345 352.72 106.285 352.72 106.285C352.72 106.285 341.406 129.941 330.082 135.378C318.759 140.815 304.484 142.655 301.119 146.403Z" fill="#9CD499"/>
<path d="M305.864 149.337C304.405 149.063 300.383 150.654 298.904 151.577V149.954C302.704 145.921 307.148 142.895 311.451 143.855C322.301 146.277 323.812 149.571 331.304 151.068C336.654 152.137 341.109 151.977 341.109 151.977C341.109 151.977 335.894 157.79 325.651 157.169C318.403 156.729 311.127 150.329 305.864 149.337Z" fill="#9CD499"/>
<path d="M296.003 153.772C295.954 153.772 295.906 153.759 295.862 153.736C295.819 153.712 295.783 153.677 295.757 153.636C295.73 153.594 295.715 153.546 295.712 153.497C295.71 153.448 295.719 153.399 295.741 153.354C299.679 145.202 304.456 138.686 309.942 133.995C316.812 128.115 322.902 125.489 328.791 122.951C334.28 120.585 339.464 118.35 344.52 113.635C344.548 113.607 344.581 113.585 344.617 113.569C344.654 113.554 344.693 113.547 344.732 113.547C344.772 113.547 344.811 113.556 344.847 113.572C344.883 113.587 344.916 113.611 344.943 113.639C344.97 113.668 344.991 113.702 345.004 113.739C345.017 113.777 345.023 113.816 345.021 113.855C345.019 113.895 345.008 113.933 344.991 113.969C344.973 114.004 344.948 114.035 344.918 114.061C339.788 118.844 334.559 121.099 329.022 123.483C323.173 126.009 317.125 128.612 310.321 134.435C304.971 139.011 300.115 145.639 296.267 153.604C296.244 153.654 296.206 153.697 296.16 153.726C296.113 153.756 296.059 153.772 296.003 153.772Z" fill="#74B570"/>
<path d="M334.486 153.477C332.82 153.477 328.422 153.088 321.956 149.673C321.02 149.178 320.098 148.637 319.206 148.118C316.056 146.273 313.078 144.524 309.552 144.693C305.555 144.888 301.443 147.498 296.616 152.925C296.564 152.983 296.492 153.018 296.414 153.022C296.337 153.027 296.261 153 296.203 152.949C296.145 152.897 296.11 152.825 296.105 152.747C296.101 152.67 296.127 152.594 296.179 152.536C301.122 146.985 305.364 144.307 309.529 144.11C313.232 143.935 316.278 145.722 319.506 147.614C320.392 148.135 321.309 148.672 322.229 149.16C330.241 153.392 335.107 152.873 335.155 152.869C335.232 152.859 335.31 152.881 335.372 152.929C335.433 152.977 335.473 153.047 335.482 153.124C335.492 153.202 335.47 153.28 335.422 153.341C335.374 153.402 335.303 153.442 335.226 153.451C334.98 153.474 334.733 153.482 334.486 153.477Z" fill="#74B570"/>
<path d="M322.123 126.551C322.053 126.551 321.986 126.526 321.933 126.481C321.88 126.435 321.845 126.372 321.834 126.303C321.824 126.234 321.839 126.163 321.876 126.104C321.914 126.045 321.971 126.001 322.038 125.981C322.109 125.958 329.276 123.783 337.579 125.176C337.656 125.189 337.724 125.232 337.769 125.295C337.813 125.358 337.831 125.436 337.818 125.513C337.806 125.589 337.763 125.657 337.7 125.702C337.637 125.746 337.558 125.764 337.482 125.752C329.312 124.381 322.281 126.516 322.211 126.537C322.183 126.546 322.153 126.551 322.123 126.551Z" fill="#74B570"/>
<path d="M308.545 135.884C308.485 135.884 308.426 135.865 308.377 135.83C308.328 135.795 308.291 135.746 308.271 135.689C308.25 135.633 308.249 135.571 308.265 135.513C308.281 135.455 308.315 135.404 308.362 135.366C315.013 130.001 320.448 130.045 332.107 130.655C332.184 130.659 332.256 130.693 332.308 130.751C332.36 130.808 332.387 130.884 332.383 130.961C332.379 131.038 332.344 131.11 332.287 131.162C332.229 131.214 332.154 131.241 332.077 131.237C320.572 130.634 315.212 130.589 308.732 135.82C308.679 135.862 308.613 135.885 308.545 135.884Z" fill="#74B570"/>
<path d="M154.763 67.8398H104.754C102.816 67.8398 101.245 69.409 101.245 71.3446V156.341C101.245 158.276 102.816 159.846 104.754 159.846H154.763C156.701 159.846 158.272 158.276 158.272 156.341V71.3446C158.272 69.409 156.701 67.8398 154.763 67.8398Z" fill="#3E6BAB"/>
<path d="M151.488 73.2695H108.148C106.401 73.2695 104.984 74.6838 104.984 76.4285V151.224C104.984 152.969 106.401 154.383 108.148 154.383H151.488C153.235 154.383 154.651 152.969 154.651 151.224V76.4285C154.651 74.6838 153.235 73.2695 151.488 73.2695Z" fill="#EBEFF2"/>
<path d="M134.377 157.316H124.002C123.83 157.31 123.668 157.237 123.548 157.113C123.429 156.989 123.362 156.824 123.362 156.652C123.362 156.48 123.429 156.315 123.548 156.191C123.668 156.068 123.83 155.995 124.002 155.988H134.377C134.549 155.995 134.711 156.068 134.831 156.191C134.95 156.315 135.017 156.48 135.017 156.652C135.017 156.824 134.95 156.989 134.831 157.113C134.711 157.237 134.549 157.31 134.377 157.316Z" fill="#2A538C"/>
<path d="M131.889 71.4304H124.002C123.826 71.4304 123.657 71.3604 123.532 71.2358C123.407 71.1112 123.337 70.9422 123.337 70.766C123.337 70.5898 123.407 70.4208 123.532 70.2962C123.657 70.1716 123.826 70.1016 124.002 70.1016H131.889C131.976 70.1016 132.063 70.1188 132.143 70.1521C132.224 70.1855 132.297 70.2345 132.359 70.2962C132.421 70.3579 132.47 70.4311 132.503 70.5117C132.537 70.5923 132.554 70.6787 132.554 70.766C132.554 70.8532 132.537 70.9396 132.503 71.0203C132.47 71.1009 132.421 71.1741 132.359 71.2358C132.297 71.2975 132.224 71.3465 132.143 71.3798C132.063 71.4132 131.976 71.4304 131.889 71.4304Z" fill="#2A538C"/>
<path d="M135.744 70.7653C135.744 70.9231 135.698 71.0773 135.61 71.2086C135.522 71.3399 135.398 71.4423 135.252 71.5028C135.106 71.5633 134.945 71.5792 134.79 71.5486C134.635 71.5179 134.493 71.442 134.381 71.3305C134.269 71.219 134.193 71.0769 134.162 70.9222C134.131 70.7675 134.147 70.6071 134.208 70.4613C134.268 70.3155 134.37 70.1909 134.502 70.1032C134.633 70.0155 134.788 69.9688 134.946 69.9688C135.157 69.9687 135.36 70.0526 135.51 70.202C135.66 70.3513 135.744 70.5539 135.744 70.7653Z" fill="#2A538C"/>
<path d="M149.311 85.8887H122.181C122.085 85.8887 121.994 85.8508 121.926 85.7832C121.858 85.7156 121.82 85.6239 121.82 85.5283C121.82 85.4328 121.858 85.3411 121.926 85.2735C121.994 85.2059 122.085 85.168 122.181 85.168H149.311C149.407 85.168 149.498 85.2059 149.566 85.2735C149.634 85.3411 149.672 85.4328 149.672 85.5283C149.672 85.6239 149.634 85.7156 149.566 85.7832C149.498 85.8508 149.407 85.8887 149.311 85.8887Z" fill="#63ACC2"/>
<path d="M145.039 85.1696H136.154C136.002 85.1691 135.852 85.1347 135.715 85.0689C135.578 85.0031 135.458 84.9075 135.362 84.7892C135.267 84.6708 135.2 84.5327 135.165 84.3849C135.13 84.2371 135.128 84.0834 135.16 83.935L136.036 79.8668C136.085 79.6391 136.211 79.4351 136.393 79.2887C136.574 79.1424 136.8 79.0626 137.034 79.0625H144.567C144.818 79.0623 145.06 79.1543 145.247 79.3209C145.434 79.4876 145.553 79.7171 145.582 79.9659L146.052 84.0331C146.069 84.1758 146.055 84.3204 146.011 84.4574C145.968 84.5944 145.896 84.7207 145.8 84.828C145.705 84.9353 145.587 85.0212 145.456 85.0801C145.325 85.1389 145.183 85.1694 145.039 85.1696Z" fill="#D54A41"/>
<path d="M143.493 85.1715H135.244C135.114 85.1716 134.986 85.1426 134.869 85.0867C134.752 85.0308 134.649 84.9494 134.567 84.8485C134.486 84.7476 134.428 84.6298 134.398 84.5036C134.368 84.3775 134.367 84.2462 134.394 84.1195L135.34 79.7483C135.381 79.5541 135.489 79.3802 135.643 79.2554C135.798 79.1306 135.991 79.0625 136.19 79.0625H143.817C143.937 79.0633 144.055 79.0885 144.164 79.1366C144.274 79.1846 144.372 79.2545 144.453 79.342C144.535 79.4294 144.597 79.5326 144.637 79.645C144.677 79.7575 144.693 79.877 144.685 79.996L144.359 84.3672C144.343 84.5857 144.245 84.79 144.085 84.9392C143.924 85.0884 143.713 85.1714 143.493 85.1715Z" fill="#F37168"/>
<path d="M139.594 79.2026C139.594 79.2026 138.633 78.5022 139.134 78.3817C139.635 78.2613 139.972 79.2026 139.972 79.2026C139.972 79.2026 140.736 78.202 141.14 78.4818C141.543 78.7616 140.859 79.2026 140.859 79.2026H139.594Z" fill="#F37168"/>
<path d="M145.132 79.793C144.945 79.793 144.792 80.03 144.792 80.3233C144.792 80.6167 144.945 80.8537 145.132 80.8537C145.32 80.8537 145.473 80.6157 145.473 80.3233C145.473 80.031 145.32 79.793 145.132 79.793ZM145.132 80.5934C145.035 80.5934 144.959 80.472 144.959 80.3233C144.959 80.1747 145.037 80.0533 145.132 80.0533C145.228 80.0533 145.306 80.1737 145.306 80.3233C145.306 80.4729 145.228 80.5934 145.132 80.5934Z" fill="#F37168"/>
<path d="M129.727 88.1345C129.657 88.1345 129.586 88.1345 129.515 88.1345C126.71 87.9936 126.12 85.4797 126.12 84.991C126.119 84.9497 126.128 84.9087 126.145 84.8708C126.161 84.833 126.186 84.7991 126.217 84.7715C126.314 84.6744 126.434 84.688 126.595 84.7006C126.898 84.7259 127.605 84.7832 129.253 84.5063C131.749 84.0954 134.88 80.8267 135.686 79.255C135.7 79.2252 135.719 79.1985 135.743 79.1765C135.768 79.1544 135.796 79.1375 135.827 79.1268C135.858 79.116 135.891 79.1116 135.924 79.1138C135.956 79.1161 135.988 79.1249 136.017 79.1398C136.047 79.1547 136.073 79.1753 136.094 79.2005C136.115 79.2256 136.13 79.2547 136.14 79.2861C136.149 79.3175 136.152 79.3504 136.149 79.383C136.145 79.4155 136.135 79.447 136.119 79.4755C135.253 81.1667 132.018 84.5432 129.332 84.9862C127.768 85.2436 127.009 85.2135 126.647 85.1873C126.777 85.7876 127.349 87.5341 129.545 87.6439C131.393 87.741 133.233 86.4064 134.448 85.5263C135.04 85.096 135.432 84.8123 135.712 84.7667C135.933 84.7307 136.568 84.7365 137.766 84.7521C139.043 84.7676 140.631 84.788 141.983 84.7365C144.153 84.654 144.452 84.4228 144.489 84.3771C144.853 83.7729 144.905 81.293 144.894 80.3886C144.894 80.3567 144.9 80.3251 144.911 80.2955C144.923 80.2659 144.941 80.2389 144.963 80.2161C144.986 80.1932 145.012 80.175 145.042 80.1625C145.071 80.1499 145.102 80.1432 145.134 80.1429C145.166 80.1425 145.198 80.1484 145.228 80.1602C145.257 80.1721 145.284 80.1896 145.307 80.2119C145.33 80.2342 145.348 80.2608 145.361 80.2901C145.373 80.3194 145.38 80.3509 145.38 80.3828C145.38 80.7296 145.407 83.7962 144.903 84.6316C144.551 85.2145 142.221 85.2931 137.761 85.2378C136.804 85.2251 135.98 85.2154 135.791 85.2456C135.626 85.2727 135.172 85.6011 134.735 85.9187C133.507 86.8075 131.673 88.1345 129.727 88.1345Z" fill="#F5CE5C"/>
<path d="M136.133 80.8149C136.522 80.4516 136.904 79.3093 136.962 79.0664H136.184C135.985 79.0664 135.792 79.1345 135.637 79.2593C135.482 79.3841 135.375 79.558 135.333 79.7522L134.957 81.491C135.38 81.3251 135.777 81.0972 136.133 80.8149Z" fill="#F37168"/>
<path d="M122.6 122.875C122.6 123.426 120.611 123.874 118.157 123.874C115.703 123.874 113.714 123.426 113.714 122.875C113.714 122.136 114.836 121.539 118.157 121.539C121.141 121.538 122.6 122.156 122.6 122.875Z" fill="#63ACC2"/>
<path d="M118.157 123.389C120.428 123.389 122.268 122.975 122.268 122.464C122.268 121.953 120.428 121.539 118.157 121.539C115.887 121.539 114.047 121.953 114.047 122.464C114.047 122.975 115.887 123.389 118.157 123.389Z" fill="#9BD6E8"/>
<path d="M118.202 114.773H118.111C117.971 114.773 117.857 114.887 117.857 115.027V121.993C117.857 122.133 117.971 122.246 118.111 122.246H118.202C118.342 122.246 118.456 122.133 118.456 121.993V115.027C118.456 114.887 118.342 114.773 118.202 114.773Z" fill="#4490A6"/>
<path d="M117.025 92.7859C117.048 93.8631 115.822 94.7471 114.868 94.8598C113.914 94.9724 113.947 94.5955 114.982 98.0362C116.016 101.477 116.496 102.482 114.868 105.117C113.239 107.751 114.047 115.542 114.047 116.942C114.047 118.343 122.056 117.952 122.276 117.447C122.495 116.943 123.6 108.86 121.796 105.396C120.193 102.318 121.038 100.52 121.74 98.2227C122.441 95.9254 123.279 95.2172 122.266 94.9151C120.196 94.2993 119.542 93.7631 119.483 92.8976C119.42 92.0486 117.015 92.3002 117.025 92.7859Z" fill="#63ACC2"/>
<path d="M119.392 92.8561C119.392 93.096 118.877 93.2903 118.242 93.2903C117.607 93.2903 117.091 93.096 117.091 92.8561C117.091 92.6161 117.606 92.4219 118.242 92.4219C118.878 92.4219 119.392 92.6161 119.392 92.8561Z" fill="#9BD6E8"/>
<path d="M118.541 90.9164C118.541 90.7511 118.407 90.6172 118.241 90.6172C118.076 90.6172 117.942 90.7511 117.942 90.9164V92.6348C117.942 92.8 118.076 92.9339 118.241 92.9339C118.407 92.9339 118.541 92.8 118.541 92.6348V90.9164Z" fill="#4490A6"/>
<path d="M114.376 106.31C113.516 108.888 113.553 115.352 113.553 115.352C114.862 115.688 116.206 115.863 117.557 115.875C119.69 115.875 120.592 115.787 120.592 115.787L120.876 111.541C120.876 111.541 121.397 115.756 121.425 115.758C121.649 115.773 122.301 115.688 123.132 115.577C123.132 113.222 122.983 107.991 122.383 106.87C121.784 105.749 117.707 104.312 117.707 104.312L114.376 106.31Z" fill="#F37168"/>
<path opacity="0.5" d="M115.443 108.89C117.04 108.621 119.016 107.462 119.016 107.462C119.016 107.462 120.562 108.291 122.698 108.025C122.611 107.507 122.504 107.103 122.383 106.873C122.242 106.609 119.854 104.01 119.428 103.734L116.884 104.317L114.376 106.314C114.139 107.027 113.97 108.038 113.849 109.131C114.135 109.094 114.626 109.028 115.443 108.89Z" fill="#D54A41"/>
<path d="M120.668 94.2969C120.853 96.2396 119.083 99.1888 118.698 99.9241C118.551 100.204 117.822 105.837 119.087 106.918C120.157 107.835 122.853 107.307 122.853 107.307C122.853 107.307 121.472 103.551 121.528 102.038C121.585 100.524 122.853 95.0312 122.853 95.0312L120.668 94.2969Z" fill="#F37168"/>
<path d="M115.804 94.3984C116.096 97.4564 117.961 100.065 117.961 100.065C117.961 100.065 119.167 106.02 117.766 106.777C116.366 107.534 113.753 107.113 113.753 107.113C113.753 107.113 115.577 103.218 115.156 101.368C114.736 99.5186 114.031 94.9201 114.031 94.9201L115.804 94.3984Z" fill="#F37168"/>
<path d="M115.309 94.533L115.554 96.8022L116.332 97.419L115.943 98.54C115.943 98.54 117.543 99.695 117.861 100.928C118.179 102.16 118.413 104.313 118.413 104.313C118.406 104.394 118.389 101.612 119.124 100.348C119.579 99.5862 120.173 98.9161 120.875 98.3719L120.52 97.4744L121.381 96.7458L121.129 94.4563L120.316 94.1328C120.316 94.1328 120.147 95.2091 119.296 97.1946C118.78 98.405 118.455 99.6879 118.332 100.998C118.332 100.998 118.072 98.982 117.256 97.251C116.808 96.2998 116.421 95.3213 116.096 94.3213L115.309 94.533Z" fill="#D54A41"/>
<path d="M116.382 104.074L114.712 104.508C114.712 104.508 113.661 105.517 113.927 105.601C114.194 105.686 115.094 105.504 115.62 105.013C115.919 104.74 116.176 104.423 116.382 104.074Z" fill="#D54A41"/>
<path d="M120.268 104.074L121.937 104.508C121.937 104.508 122.99 105.517 122.723 105.601C122.457 105.686 121.556 105.504 121.03 105.013C120.73 104.739 120.474 104.423 120.268 104.074Z" fill="#D54A41"/>
<path d="M114.031 94.9202C113.642 94.9105 113.722 94.8357 113.498 97.34C113.274 99.8442 111.758 105.859 111.402 107.653L111.047 109.446C111.047 109.446 111.945 109.671 112.319 109.614C112.694 109.558 113.815 105.62 114.031 104.311C114.247 103.001 114.777 100.597 114.913 100.192C115.049 99.7869 114.031 94.9202 114.031 94.9202Z" fill="#F37168"/>
<path d="M122.795 95.0177C123.184 95.0089 123.104 94.9341 123.329 97.4374C123.554 99.9406 125.068 105.956 125.424 107.751L125.779 109.544C125.779 109.544 124.881 109.768 124.507 109.712C124.132 109.655 123.011 105.717 122.795 104.408C122.579 103.099 121.904 100.636 121.768 100.231C121.632 99.826 122.795 95.0177 122.795 95.0177Z" fill="#F37168"/>
<path d="M148.04 133.898H112.021C110.741 133.898 109.704 134.934 109.704 136.212V147.522C109.704 148.8 110.741 149.836 112.021 149.836H148.04C149.32 149.836 150.357 148.8 150.357 147.522V136.212C150.357 134.934 149.32 133.898 148.04 133.898Z" fill="#9BD6E8"/>
<path d="M111.419 77.7148H121.621C122.076 77.7148 122.513 77.8955 122.835 78.217C123.157 78.5385 123.338 78.9746 123.338 79.4293V82.2804C123.338 82.7348 123.157 83.1707 122.835 83.492C122.513 83.8133 122.077 83.9939 121.622 83.9939H111.419C110.965 83.9926 110.53 83.8115 110.209 83.4903C109.888 83.1692 109.708 82.7341 109.708 82.2804V79.4293C109.708 78.9755 109.888 78.5401 110.209 78.2187C110.53 77.8973 110.965 77.7161 111.419 77.7148Z" fill="#D54A41"/>
<path d="M117.944 81.2726H114.61C114.554 81.2726 114.5 81.2533 114.456 81.2179C114.413 81.1825 114.383 81.1332 114.372 81.0783L114.023 79.3774C114.017 79.3461 114.017 79.3139 114.023 79.2826C114.029 79.2513 114.041 79.2215 114.059 79.1949C114.076 79.1683 114.099 79.1454 114.126 79.1275C114.152 79.1097 114.182 79.0972 114.213 79.0908C114.244 79.0845 114.277 79.0843 114.308 79.0904C114.339 79.0964 114.369 79.1086 114.396 79.1262C114.423 79.1438 114.445 79.1665 114.463 79.1929C114.481 79.2193 114.494 79.249 114.5 79.2803L114.805 80.7898H117.944C118.009 80.7898 118.071 80.8154 118.116 80.8609C118.162 80.9065 118.187 80.9682 118.187 81.0326C118.187 81.097 118.162 81.1588 118.116 81.2044C118.071 81.2499 118.009 81.2755 117.944 81.2755V81.2726Z" fill="white"/>
<path d="M118.13 79.5716H114.262C114.197 79.5716 114.135 79.546 114.09 79.5005C114.044 79.455 114.019 79.3932 114.019 79.3288C114.019 79.2644 114.044 79.2026 114.09 79.1571C114.135 79.1115 114.197 79.0859 114.262 79.0859H118.13C118.195 79.0859 118.256 79.1115 118.302 79.1571C118.348 79.2026 118.373 79.2644 118.373 79.3288C118.373 79.3932 118.348 79.455 118.302 79.5005C118.256 79.546 118.195 79.5716 118.13 79.5716Z" fill="white"/>
<path d="M118.002 80.4255H114.547C114.444 80.4255 114.345 80.3846 114.272 80.3117C114.199 80.2389 114.158 80.14 114.158 80.037C114.158 79.9339 114.199 79.8351 114.272 79.7622C114.345 79.6894 114.444 79.6484 114.547 79.6484H118.002C118.105 79.6484 118.204 79.6894 118.277 79.7622C118.35 79.8351 118.391 79.9339 118.391 80.037C118.391 80.14 118.35 80.2389 118.277 80.3117C118.204 80.3846 118.105 80.4255 118.002 80.4255Z" fill="white"/>
<path d="M117.716 82.4137H114.832C114.767 82.4137 114.705 82.3881 114.66 82.3426C114.614 82.297 114.588 82.2353 114.588 82.1709C114.588 82.1065 114.614 82.0447 114.66 81.9991C114.705 81.9536 114.767 81.928 114.832 81.928H117.526L118.357 78.5019C118.369 78.449 118.399 78.4018 118.442 78.3681C118.485 78.3344 118.538 78.3162 118.593 78.3164H119.912C119.976 78.3164 120.038 78.342 120.084 78.3875C120.129 78.4331 120.155 78.4948 120.155 78.5593C120.155 78.6237 120.129 78.6854 120.084 78.731C120.038 78.7765 119.976 78.8021 119.912 78.8021H118.784L117.953 82.2282C117.94 82.2812 117.91 82.3283 117.867 82.362C117.824 82.3957 117.771 82.4139 117.716 82.4137Z" fill="white"/>
<path d="M115.242 83.3292C115.491 83.3292 115.693 83.1278 115.693 82.8794C115.693 82.631 115.491 82.4297 115.242 82.4297C114.994 82.4297 114.792 82.631 114.792 82.8794C114.792 83.1278 114.994 83.3292 115.242 83.3292Z" fill="white"/>
<path d="M117.757 82.8746C117.757 82.9636 117.731 83.0506 117.681 83.1247C117.632 83.1988 117.562 83.2566 117.479 83.2908C117.397 83.325 117.306 83.334 117.219 83.3168C117.132 83.2995 117.051 83.2568 116.988 83.1939C116.925 83.131 116.882 83.0509 116.865 82.9636C116.847 82.8764 116.856 82.7859 116.89 82.7036C116.924 82.6214 116.982 82.5511 117.056 82.5016C117.13 82.4522 117.217 82.4258 117.306 82.4258C117.426 82.4258 117.54 82.473 117.624 82.5572C117.709 82.6413 117.756 82.7554 117.757 82.8746Z" fill="white"/>
<path d="M145.696 138.73H135.496C134.548 138.73 133.779 139.498 133.779 140.445V143.295C133.779 144.242 134.548 145.01 135.496 145.01H145.696C146.645 145.01 147.413 144.242 147.413 143.295V140.445C147.413 139.498 146.645 138.73 145.696 138.73Z" fill="#D54A41"/>
<path d="M142.015 142.288H138.681C138.625 142.288 138.57 142.268 138.527 142.233C138.484 142.198 138.454 142.148 138.442 142.093L138.099 140.39C138.086 140.326 138.099 140.261 138.135 140.207C138.17 140.153 138.226 140.115 138.289 140.103C138.353 140.09 138.418 140.102 138.472 140.138C138.526 140.174 138.564 140.229 138.577 140.292L138.88 141.802H142.015C142.08 141.802 142.141 141.828 142.187 141.873C142.233 141.919 142.258 141.98 142.258 142.045C142.258 142.109 142.233 142.171 142.187 142.217C142.141 142.262 142.08 142.288 142.015 142.288Z" fill="white"/>
<path d="M142.206 140.583H138.338C138.274 140.583 138.212 140.558 138.166 140.512C138.121 140.467 138.095 140.405 138.095 140.341C138.095 140.276 138.121 140.214 138.166 140.169C138.212 140.123 138.274 140.098 138.338 140.098H142.206C142.27 140.098 142.332 140.123 142.378 140.169C142.423 140.214 142.449 140.276 142.449 140.341C142.449 140.405 142.423 140.467 142.378 140.512C142.332 140.558 142.27 140.583 142.206 140.583Z" fill="white"/>
<path d="M142.078 141.441H138.622C138.519 141.441 138.42 141.4 138.347 141.327C138.274 141.254 138.233 141.156 138.233 141.053C138.233 140.95 138.274 140.851 138.347 140.778C138.42 140.705 138.519 140.664 138.622 140.664H142.078C142.181 140.664 142.28 140.705 142.353 140.778C142.426 140.851 142.467 140.95 142.467 141.053C142.467 141.156 142.426 141.254 142.353 141.327C142.28 141.4 142.181 141.441 142.078 141.441Z" fill="white"/>
<path d="M141.793 143.425H138.907C138.843 143.425 138.781 143.4 138.735 143.354C138.69 143.309 138.664 143.247 138.664 143.183C138.664 143.118 138.69 143.056 138.735 143.011C138.781 142.965 138.843 142.94 138.907 142.94H141.602L142.432 139.514C142.445 139.461 142.475 139.414 142.518 139.38C142.561 139.346 142.614 139.328 142.669 139.328H143.987C144.052 139.328 144.114 139.354 144.159 139.399C144.205 139.445 144.231 139.507 144.231 139.571C144.231 139.635 144.205 139.697 144.159 139.743C144.114 139.788 144.052 139.814 143.987 139.814H142.86L142.029 143.24C142.016 143.293 141.986 143.34 141.943 143.373C141.9 143.407 141.848 143.425 141.793 143.425Z" fill="white"/>
<path d="M139.768 143.891C139.768 143.98 139.741 144.067 139.692 144.141C139.643 144.215 139.572 144.273 139.49 144.307C139.408 144.341 139.317 144.35 139.23 144.332C139.142 144.315 139.062 144.272 138.999 144.209C138.936 144.146 138.893 144.066 138.876 143.979C138.858 143.892 138.867 143.801 138.901 143.719C138.936 143.637 138.993 143.567 139.067 143.517C139.141 143.468 139.228 143.441 139.318 143.441C139.437 143.441 139.552 143.489 139.636 143.573C139.72 143.657 139.768 143.772 139.768 143.891Z" fill="white"/>
<path d="M141.832 143.891C141.832 143.98 141.805 144.067 141.756 144.141C141.706 144.215 141.636 144.273 141.554 144.307C141.471 144.341 141.381 144.35 141.293 144.332C141.206 144.315 141.126 144.272 141.063 144.209C141 144.146 140.957 144.066 140.94 143.978C140.922 143.891 140.931 143.801 140.966 143.718C141 143.636 141.058 143.566 141.132 143.517C141.206 143.467 141.293 143.441 141.382 143.441C141.442 143.441 141.5 143.453 141.555 143.476C141.609 143.498 141.659 143.531 141.701 143.573C141.742 143.615 141.775 143.665 141.798 143.719C141.82 143.774 141.832 143.832 141.832 143.891Z" fill="white"/>
<path d="M149.294 99.8359H147.822C147.234 99.8359 146.758 100.312 146.758 100.899V102.368C146.758 102.955 147.234 103.431 147.822 103.431H149.294C149.881 103.431 150.358 102.955 150.358 102.368V100.899C150.358 100.312 149.881 99.8359 149.294 99.8359Z" fill="#9BD6E8"/>
<path d="M149.294 106.09H147.822C147.234 106.09 146.758 106.566 146.758 107.153V108.622C146.758 109.209 147.234 109.685 147.822 109.685H149.294C149.881 109.685 150.358 109.209 150.358 108.622V107.153C150.358 106.566 149.881 106.09 149.294 106.09Z" fill="#3E6BAB"/>
<path d="M149.294 93.5859H147.822C147.234 93.5859 146.758 94.0617 146.758 94.6486V96.1183C146.758 96.7052 147.234 97.181 147.822 97.181H149.294C149.881 97.181 150.358 96.7052 150.358 96.1183V94.6486C150.358 94.0617 149.881 93.5859 149.294 93.5859Z" fill="#F37168"/>
<path d="M143.895 103.675H142.423C142.077 103.674 141.745 103.536 141.5 103.292C141.255 103.047 141.117 102.715 141.116 102.369V100.899C141.117 100.553 141.255 100.221 141.5 99.9767C141.745 99.732 142.077 99.5943 142.423 99.5938H143.895C144.242 99.5943 144.574 99.732 144.819 99.9767C145.064 100.221 145.202 100.553 145.202 100.899V102.369C145.202 102.715 145.064 103.047 144.819 103.292C144.574 103.536 144.242 103.674 143.895 103.675ZM142.423 100.08C142.206 100.081 141.997 100.167 141.843 100.321C141.689 100.475 141.603 100.683 141.603 100.9V102.37C141.603 102.587 141.689 102.796 141.843 102.95C141.997 103.103 142.206 103.19 142.423 103.19H143.895C144.113 103.19 144.321 103.103 144.475 102.949C144.629 102.796 144.716 102.587 144.716 102.37V100.899C144.716 100.682 144.629 100.474 144.475 100.32C144.321 100.166 144.113 100.08 143.895 100.079L142.423 100.08Z" fill="#BDCCD4"/>
<path d="M143.895 109.925H142.423C142.077 109.924 141.745 109.786 141.5 109.542C141.255 109.297 141.117 108.965 141.116 108.619V107.149C141.117 106.803 141.255 106.471 141.5 106.227C141.745 105.982 142.077 105.844 142.423 105.844H143.895C144.242 105.844 144.574 105.982 144.819 106.227C145.064 106.471 145.202 106.803 145.202 107.149V108.616C145.203 108.963 145.065 109.295 144.82 109.541C144.575 109.786 144.242 109.924 143.895 109.925ZM142.423 106.33C142.206 106.331 141.997 106.417 141.843 106.571C141.689 106.725 141.603 106.933 141.603 107.15V108.616C141.603 108.833 141.689 109.042 141.843 109.196C141.997 109.349 142.206 109.436 142.423 109.436H143.895C144.113 109.436 144.321 109.349 144.475 109.196C144.629 109.042 144.716 108.833 144.716 108.616V107.149C144.716 106.932 144.629 106.724 144.475 106.57C144.321 106.416 144.113 106.33 143.895 106.329L142.423 106.33Z" fill="#BDCCD4"/>
<path d="M143.895 97.4245H142.423C142.077 97.424 141.745 97.2863 141.5 97.0416C141.255 96.7969 141.117 96.4651 141.116 96.119V94.6493C141.117 94.3032 141.255 93.9714 141.5 93.7267C141.745 93.482 142.077 93.3443 142.423 93.3438H143.895C144.242 93.3443 144.574 93.482 144.819 93.7267C145.064 93.9714 145.202 94.3032 145.202 94.6493V96.119C145.202 96.4651 145.064 96.7969 144.819 97.0416C144.574 97.2863 144.242 97.424 143.895 97.4245ZM142.423 93.8304C142.206 93.8304 141.997 93.9168 141.843 94.0705C141.689 94.2243 141.603 94.4328 141.603 94.6503V96.12C141.603 96.3373 141.689 96.5457 141.843 96.6994C141.997 96.8531 142.206 96.9396 142.423 96.9398H143.895C144.113 96.9396 144.321 96.8531 144.475 96.6994C144.629 96.5457 144.716 96.3373 144.716 96.12V94.6493C144.716 94.4319 144.629 94.2235 144.475 94.0699C144.321 93.9162 144.113 93.8297 143.895 93.8294L142.423 93.8304Z" fill="#BDCCD4"/>
<path d="M143.159 96.3779H143.117C143.059 96.3716 143.004 96.3526 142.955 96.3222C142.905 96.2918 142.863 96.2507 142.832 96.2021L141.877 94.7265C141.821 94.64 141.801 94.5347 141.823 94.4339C141.845 94.333 141.906 94.2449 141.992 94.1889C142.079 94.1328 142.184 94.1135 142.285 94.1351C142.386 94.1567 142.474 94.2174 142.531 94.304L143.225 95.3783L145.477 93.1441C145.55 93.0715 145.649 93.0309 145.752 93.0313C145.856 93.0316 145.955 93.0729 146.027 93.1461C146.1 93.2193 146.141 93.3183 146.14 93.4214C146.14 93.5245 146.099 93.6232 146.025 93.6959L143.433 96.2672C143.36 96.3387 143.261 96.3785 143.159 96.3779Z" fill="#D54A41"/>
<path d="M126.401 140.421H115.118C115 140.421 114.887 140.374 114.804 140.291C114.721 140.208 114.674 140.096 114.674 139.978C114.674 139.861 114.721 139.748 114.804 139.665C114.887 139.582 115 139.535 115.118 139.535H126.401C126.518 139.535 126.631 139.582 126.714 139.665C126.798 139.748 126.844 139.861 126.844 139.978C126.844 140.096 126.798 140.208 126.714 140.291C126.631 140.374 126.518 140.421 126.401 140.421Z" fill="#7396C7"/>
<path d="M126.401 142.311H115.118C115.004 142.306 114.896 142.257 114.817 142.175C114.739 142.092 114.695 141.983 114.695 141.869C114.695 141.755 114.739 141.645 114.817 141.563C114.896 141.481 115.004 141.432 115.118 141.426H126.401C126.46 141.423 126.52 141.433 126.577 141.454C126.633 141.475 126.684 141.507 126.728 141.548C126.771 141.59 126.805 141.639 126.829 141.694C126.853 141.75 126.865 141.809 126.865 141.869C126.865 141.929 126.853 141.988 126.829 142.043C126.805 142.098 126.771 142.148 126.728 142.189C126.684 142.231 126.633 142.263 126.577 142.284C126.52 142.305 126.46 142.314 126.401 142.311Z" fill="#7396C7"/>
<path d="M122.778 144.202H115.114C114.996 144.202 114.883 144.156 114.8 144.073C114.717 143.99 114.67 143.877 114.67 143.759C114.67 143.642 114.717 143.529 114.8 143.446C114.883 143.363 114.996 143.316 115.114 143.316H122.778C122.895 143.316 123.008 143.363 123.091 143.446C123.174 143.529 123.221 143.642 123.221 143.759C123.221 143.877 123.174 143.99 123.091 144.073C123.008 144.156 122.895 144.202 122.778 144.202Z" fill="#7396C7"/>
<g style="mix-blend-mode:screen" opacity="0.5">
<path d="M154.651 76.4272C154.65 75.9942 154.56 75.5659 154.386 75.1692C154.213 74.7725 153.959 74.4157 153.641 74.1211L104.984 140.799V151.223C104.987 152.06 105.321 152.862 105.914 153.454C106.506 154.046 107.309 154.379 108.148 154.382H115.234L154.651 101.029V76.4272Z" fill="#4D4D4D"/>
</g>
<g style="mix-blend-mode:screen" opacity="0.5">
<path d="M154.651 122.009V106.621L119.796 154.382H131.026L154.651 122.009Z" fill="#4D4D4D"/>
</g>
<path d="M239.727 77.6322C239.706 77.632 239.685 77.6273 239.666 77.6186C239.648 77.6105 239.633 77.5991 239.62 77.585C239.607 77.5708 239.597 77.5543 239.59 77.5362C239.583 77.5181 239.58 77.499 239.581 77.4798C239.582 77.4606 239.587 77.4417 239.595 77.4243C241.857 72.5217 244.855 64.8429 243.843 63.7793C243.54 63.4616 242.353 63.3713 237.812 66.3398C235.186 68.0563 232.703 69.9815 232.677 70C232.647 70.0237 232.608 70.0343 232.57 70.0295C232.531 70.0247 232.496 70.0048 232.473 69.9743C232.449 69.9437 232.438 69.905 232.443 69.8667C232.448 69.8283 232.468 69.7935 232.498 69.7698C232.524 69.7513 235.017 67.8192 237.653 66.096C239.205 65.0819 240.502 64.3368 241.511 63.8812C242.845 63.28 243.677 63.1799 244.057 63.5791C244.436 63.9784 244.426 64.9041 244.062 66.4496C243.781 67.6395 243.284 69.187 242.581 71.051C241.354 74.3062 239.922 77.4156 239.858 77.5457C239.846 77.571 239.828 77.5926 239.805 77.6079C239.782 77.6232 239.755 77.6316 239.727 77.6322Z" fill="#D54A41"/>
<path d="M234.507 66.9453C234.507 66.9453 239.188 73.8635 240.538 74.7621L241.887 75.6616L236.914 88.7908L233.068 89.3435C233.068 89.3435 232.437 89.7913 228.388 87.2648C224.339 84.7382 222.983 78.16 222.983 78.16L234.507 66.9453Z" fill="#3E6BAB"/>
<path d="M237.788 77.1013C237.661 77.3015 237.454 77.3928 237.326 77.316C237.198 77.2393 237.198 77.0071 237.326 76.808C237.453 76.6089 237.66 76.5166 237.787 76.5933C237.914 76.6701 237.914 76.9022 237.788 77.1013Z" fill="#2E5B9A"/>
<path d="M237.658 76.8847C237.632 76.8848 237.607 76.8785 237.585 76.8662C237.552 76.8471 237.528 76.8162 237.518 76.78C237.508 76.7438 237.512 76.7051 237.53 76.672C237.549 76.6399 239.37 73.445 241.002 70.1821C244.017 64.1596 243.677 63.3203 243.502 63.2066C243.424 63.1551 243.288 63.1794 243.188 63.2066C240.993 63.8555 233.434 72.7068 233.204 73.2284C233.188 73.2634 233.16 73.2911 233.125 73.3059C233.089 73.3207 233.05 73.3215 233.014 73.3081C232.979 73.2945 232.951 73.2679 232.935 73.2338C232.919 73.1996 232.918 73.1608 232.93 73.1254C233.111 72.6397 240.678 63.7263 243.061 62.9405C243.313 62.8579 243.516 62.8637 243.662 62.9599C244.051 63.2154 243.963 64.043 243.37 65.6429C242.933 66.8173 242.224 68.388 241.263 70.3055C239.628 73.5752 237.803 76.7769 237.785 76.8138C237.772 76.8357 237.753 76.8538 237.731 76.8663C237.708 76.8787 237.683 76.8851 237.658 76.8847Z" fill="#D54A41"/>
<path d="M236.914 71.7648C236.891 71.7649 236.868 71.7592 236.847 71.7482C236.826 71.7372 236.808 71.7212 236.795 71.7017C236.784 71.686 236.776 71.6683 236.772 71.6497C236.768 71.631 236.768 71.6118 236.771 71.593C236.775 71.5742 236.782 71.5563 236.792 71.5403C236.803 71.5242 236.816 71.5104 236.832 71.4996C239.394 69.7317 243.417 65.7587 243.535 64.2016C243.548 64.1271 243.543 64.0507 243.52 63.9786C243.498 63.9064 243.459 63.8404 243.407 63.7859C243.208 63.5984 242.273 63.3546 237.906 65.1409C235.474 66.1356 233.155 67.278 233.133 67.2916C233.098 67.3088 233.058 67.3116 233.021 67.2993C232.984 67.287 232.954 67.2607 232.937 67.226C232.919 67.1914 232.917 67.1513 232.929 67.1146C232.941 67.0779 232.968 67.0475 233.002 67.0303C233.026 67.0186 235.353 65.8705 237.794 64.8719C242.807 62.8203 243.409 63.3876 243.607 63.5741C243.692 63.658 243.756 63.7604 243.794 63.8732C243.832 63.986 243.843 64.1061 243.826 64.2239C243.687 66.0599 239.326 70.1329 236.997 71.7396C236.973 71.7563 236.944 71.7651 236.914 71.7648Z" fill="#497EC9"/>
<path d="M234.507 64.4414L218.397 70.2095C218.397 70.2095 219.388 74.5807 221.996 78.9811C224.605 83.3815 225.229 83.9245 225.229 83.9245L238.375 72.57L234.507 64.4414Z" fill="#F5CE5C"/>
<path d="M239.322 72.1505C239.322 72.1505 230.547 85.1826 228.388 85.1826C226.229 85.1826 225.484 84.4356 224.613 83.132C223.743 81.8284 237.924 71.6172 237.924 71.6172L239.322 72.1505Z" fill="#DBB64C"/>
<path d="M234.507 64.4414L239.322 72.1503C239.322 72.1503 238.148 72.0882 237.924 71.617L234.507 64.4414Z" fill="#DBB64C"/>
<path d="M240.093 74.9375C240.093 74.9375 232.145 89.3393 232.604 89.3393C233.062 89.3393 236.735 89.2528 236.912 88.7865C237.088 88.3203 241.884 75.6573 241.884 75.6573L240.093 74.9375Z" fill="#497EC9"/>
<path d="M233.165 66.1725C233.254 66.292 233.165 66.5115 232.957 66.6641C232.749 66.8166 232.515 66.8428 232.426 66.7243C232.336 66.6058 232.426 66.3843 232.634 66.2318C232.842 66.0793 233.075 66.0531 233.165 66.1725Z" fill="#DBB64C"/>
<path d="M235.16 70.6991C235.249 70.8186 235.16 71.0391 234.951 71.1916C234.743 71.3441 234.51 71.3703 234.42 71.2508C234.331 71.1314 234.42 70.9118 234.628 70.7593C234.837 70.6068 235.07 70.5806 235.16 70.6991Z" fill="#DBB64C"/>
<path d="M234.997 70.9876C234.954 70.9887 234.912 70.9768 234.877 70.9536C234.847 70.9337 234.826 70.9036 234.817 70.8691C234.808 70.8346 234.812 70.798 234.828 70.7663C234.845 70.7346 234.872 70.71 234.905 70.697C234.939 70.6841 234.975 70.6838 235.009 70.6962C235.314 70.669 237.136 69.482 239.312 67.7879C241.68 65.9422 243.256 64.4512 243.424 63.8916C243.431 63.8674 243.446 63.811 243.424 63.7945C242.623 63.2651 239.125 63.8499 233.122 66.3483C233.104 66.3557 233.085 66.3595 233.066 66.3596C233.047 66.3597 233.028 66.356 233.01 66.3487C232.992 66.3414 232.976 66.3308 232.963 66.3173C232.949 66.3038 232.938 66.2878 232.931 66.2701C232.923 66.2524 232.92 66.2335 232.919 66.2143C232.919 66.1952 232.923 66.1762 232.93 66.1584C232.938 66.1407 232.948 66.1246 232.962 66.111C232.975 66.0974 232.991 66.0866 233.009 66.0792C238.376 63.845 242.528 62.8532 243.586 63.5536C243.633 63.5849 243.672 63.6286 243.696 63.6799C243.721 63.7313 243.731 63.7884 243.725 63.845C243.683 64.525 241.755 66.2026 240.146 67.4935C238.281 68.9895 236.236 70.432 235.391 70.8497C235.271 70.9231 235.137 70.9701 234.997 70.9876Z" fill="#497EC9"/>
<path d="M306.221 69.8932C306.189 69.8933 306.158 69.8827 306.133 69.863C305.063 69.0461 303.096 67.0227 301.454 65.0518C300.032 63.3451 298.422 61.1662 298.828 60.4863C298.951 60.2774 299.278 59.7218 304.844 60.8748C307.548 61.4353 310.208 62.1376 310.234 62.1444C310.272 62.1543 310.304 62.1787 310.323 62.2121C310.343 62.2455 310.348 62.2853 310.338 62.3227C310.328 62.36 310.304 62.3919 310.27 62.4113C310.237 62.4307 310.197 62.436 310.159 62.4261C310.133 62.4193 307.48 61.7189 304.783 61.1633C299.81 60.1327 299.16 60.4989 299.08 60.6359C298.902 60.937 299.477 62.227 301.681 64.8711C303.284 66.7954 305.28 68.845 306.312 69.6377C306.336 69.6562 306.353 69.6818 306.362 69.7109C306.371 69.74 306.371 69.7712 306.361 69.8C306.351 69.8288 306.333 69.8538 306.308 69.8716C306.283 69.8893 306.254 69.8989 306.223 69.899L306.221 69.8932Z" fill="#497EC9"/>
<path d="M308.304 69.1507C308.275 69.1505 308.246 69.1413 308.222 69.1244C307.336 68.5056 299.574 63.0299 299.556 61.3291C299.553 61.2485 299.57 61.1684 299.605 61.096C299.641 61.0236 299.694 60.9611 299.759 60.9143C301.218 59.8457 309.331 63.1611 310.251 63.5428C310.285 63.5582 310.313 63.5866 310.327 63.622C310.341 63.6573 310.341 63.6968 310.326 63.732C310.312 63.7671 310.284 63.7952 310.249 63.8101C310.214 63.8251 310.174 63.8257 310.139 63.8119C307.682 62.7929 301.058 60.3266 299.932 61.1493C299.903 61.1688 299.88 61.1954 299.866 61.2265C299.851 61.2575 299.845 61.2919 299.848 61.3261C299.861 62.6385 306.018 67.2273 308.389 68.8855C308.414 68.9033 308.434 68.9288 308.444 68.9582C308.454 68.9877 308.454 69.0196 308.444 69.0492C308.435 69.0788 308.416 69.1047 308.391 69.1229C308.366 69.1412 308.335 69.1509 308.304 69.1507Z" fill="#497EC9"/>
<path d="M318.12 79.161C318.12 79.161 321.44 80.6559 322.205 80.043C322.97 79.43 327.229 69.7871 327.71 64.9923C328.192 60.1976 308.306 61.6993 308.306 61.6993C308.306 61.6993 309.295 63.4206 305.605 68.0133C301.916 72.6061 318.12 79.161 318.12 79.161Z" fill="#F39892"/>
<path d="M304.549 71.763C304.526 71.763 304.502 71.7572 304.481 71.7462C304.461 71.7352 304.443 71.7193 304.429 71.6999C304.413 71.6766 302.782 69.3015 301.253 66.7837C298.123 61.6295 298.455 60.9078 298.565 60.6708C298.597 60.5978 298.649 60.535 298.714 60.4893C298.78 60.4435 298.856 60.4166 298.936 60.4114C300.843 60.2084 308.433 66.0833 308.755 66.3368C308.785 66.3605 308.805 66.3954 308.81 66.4338C308.815 66.4721 308.804 66.5108 308.781 66.5413C308.757 66.5718 308.722 66.5917 308.684 66.5965C308.645 66.6014 308.607 66.5908 308.576 66.5671C305.879 64.4728 300.406 60.5503 298.967 60.7048C298.938 60.7048 298.909 60.7135 298.885 60.7297C298.86 60.746 298.841 60.769 298.83 60.7961C298.375 61.7849 302.073 67.7619 304.666 71.5386C304.688 71.5706 304.696 71.6099 304.689 71.6479C304.682 71.6859 304.66 71.7196 304.628 71.7416C304.604 71.7563 304.577 71.7637 304.549 71.763Z" fill="#F37168"/>
<path d="M308.305 64.4414L322.205 75.7309C322.205 75.7309 315.232 85.4525 310.102 87.2593C303.082 80.5091 299.842 72.1503 299.842 72.1503L308.305 64.4414Z" fill="#9BD6E8"/>
<path d="M309.025 63.6797C309.295 64.0682 322.789 72.1521 322.789 72.1521C322.789 72.1521 323.136 74.497 322.205 75.7326C321.274 76.9682 308.306 64.4432 308.306 64.4432L309.025 63.6797Z" fill="#63ACC2"/>
<path d="M308.306 61.0312C308.935 61.2741 327.713 61.0312 327.713 61.0312C327.713 61.0312 328.222 64.2145 327.713 64.9916C327.205 65.7687 308.306 63.0109 308.306 63.0109V61.0312Z" fill="#F37168"/>
<path d="M302.443 74.1079C302.318 73.8544 302.351 73.5814 302.516 73.4998C302.682 73.4182 302.918 73.5581 303.044 73.8126C303.169 74.0671 303.141 74.3391 302.971 74.4207C302.8 74.5023 302.569 74.3624 302.443 74.1079Z" fill="#63ACC2"/>
<path d="M307.73 68.4009C307.605 68.1464 307.633 67.8744 307.803 67.7928C307.974 67.7112 308.205 67.8511 308.331 68.1056C308.456 68.3601 308.428 68.6321 308.258 68.7137C308.087 68.7953 307.856 68.6544 307.73 68.4009Z" fill="#63ACC2"/>
<path d="M302.725 73.9381C302.698 73.9384 302.671 73.9307 302.648 73.9158C301.666 73.3048 299.449 66.7732 299.095 62.7925C298.952 61.1829 299.123 60.1474 299.605 59.7141C299.649 59.6758 299.701 59.6473 299.757 59.6305C299.813 59.6138 299.872 59.6091 299.93 59.617C301.486 59.7481 307.31 67.086 307.97 67.9224C307.982 67.9373 307.992 67.9547 307.997 67.9733C308.003 67.992 308.005 68.0116 308.003 68.031C308.001 68.0504 307.995 68.0691 307.985 68.0862C307.976 68.1033 307.963 68.1183 307.948 68.1303C307.932 68.1423 307.915 68.1511 307.896 68.1562C307.877 68.1613 307.857 68.1626 307.838 68.16C307.819 68.1573 307.8 68.1509 307.783 68.1409C307.767 68.131 307.752 68.1178 307.74 68.1021C305.971 65.8582 301.114 60.0094 299.905 59.9065C299.833 59.9007 299.807 59.923 299.8 59.9298C299.518 60.1843 299.217 60.8818 299.386 62.7662C299.75 66.8519 301.969 73.1494 302.802 73.6691C302.829 73.6859 302.849 73.7108 302.861 73.7403C302.872 73.7698 302.873 73.8021 302.865 73.8324C302.856 73.8627 302.838 73.8894 302.813 73.9085C302.788 73.9276 302.757 73.938 302.725 73.9381Z" fill="#F37168"/>
<path d="M259.312 67.5384C258.098 66.5796 258.287 64.3678 259.312 64.1278C260.337 63.8879 260.457 62.9942 260.576 61.6994C260.696 60.4045 262.147 58.6997 264.601 59.1038C267.055 59.5079 267.656 58.7289 268.016 58.3092C268.376 57.8896 269.996 58.3393 271.076 59.1038C272.157 59.8683 272.633 58.9095 273.897 58.7289C275.162 58.5482 278.397 58.7289 279.052 60.7056C279.708 62.6824 280.706 63.2225 281.589 63.2827C282.472 63.3429 283.729 66.6981 282.412 66.8176C281.095 66.9371 282.052 68.7351 281.872 69.2742C281.692 69.8133 280.316 69.4685 280.431 70.7264C280.547 71.9844 280.552 72.1932 278.875 72.8004C277.198 73.4075 276.17 74.2477 275.903 74.7266C275.635 75.2055 262.495 76.5849 261.776 74.9665C261.056 73.3482 260.575 73.049 259.795 72.5701C259.015 72.0912 258.47 71.0159 259.248 69.9115C259.802 69.1305 259.832 67.9502 259.312 67.5384Z" fill="#D54A41"/>
<path d="M278.036 66.6395C279.236 65.3767 280.079 66.5249 279.236 66.9416C278.394 67.3584 278.276 67.5342 278.216 68.4648C278.156 69.3954 276.776 69.0359 276.296 69.339C275.815 69.6421 277.259 71.4819 276.356 71.7956C275.453 72.1094 268.196 74.77 265.559 73.8929C262.923 73.0157 262.739 71.9151 263.1 71.2565C263.46 70.5979 262.38 70.8971 262.259 70.2978C262.139 69.6984 262.079 69.0952 262.619 68.4677C263.159 67.8402 261.899 66.9426 262.259 66.2228C262.619 65.503 265.38 64.7852 265.38 64.7852L275.279 65.4438L278.036 66.6395Z" fill="#B83B34"/>
<path d="M295.554 62.1562C296.065 62.0862 297.85 59.8394 298.374 59.9744C298.899 60.1094 301.374 59.2439 302.094 59.9686C302.814 60.6932 301.914 62.536 300.519 62.7604C299.124 62.9847 298.585 62.7604 298.585 62.7604C298.585 62.7604 298.494 64.0232 297.01 64.7828C295.526 65.5424 295.554 62.1562 295.554 62.1562Z" fill="#F09959"/>
<path d="M247.198 65.9954C247.198 65.9954 246.387 62.9841 245.892 62.8044C245.397 62.6247 242.112 62.31 242.112 62.8044C242.112 63.2989 241.797 64.2877 242.923 64.7822C244.048 65.2766 244.635 65.2766 244.635 65.2766C244.635 65.2766 244.542 66.9843 245.488 67.3884C246.433 67.7925 247.198 65.9954 247.198 65.9954Z" fill="#F09959"/>
<path d="M268.939 72.3091C268.939 72.3091 260.259 73.3903 257.066 72.4908C253.873 71.5913 247.223 65.4414 247.223 65.4414C247.223 65.4414 244.716 67.0112 244.913 67.3385C245.111 67.6659 251.58 75.7303 254.527 77.4458C257.251 79.0311 267.522 80.9136 267.522 80.9136L268.939 72.3091Z" fill="#C1C765"/>
<path d="M267.522 80.9116L267.965 78.9504L268.937 72.5703C268.937 72.5703 264.308 77.7789 261.103 79.5507C264.376 80.3346 267.522 80.9116 267.522 80.9116Z" fill="#A1A654"/>
<path d="M272.127 71.0721C278.426 73.7687 284.723 72.0134 287.683 69.4072C290.743 66.7135 296.04 61.6992 296.04 61.6992L298.375 64.1277C298.375 64.1277 292.194 71.4335 290.399 73.9503C288.603 76.4672 282.701 78.8927 280.049 80.6908C277.396 82.4888 279.104 93.0186 279.104 93.0186L268.437 93.2693C268.437 93.2693 265.713 86.589 264.602 82.2926C263.49 77.9962 269.246 71.9726 269.246 71.9726L272.127 71.0721Z" fill="#C1C765"/>
<path d="M274.196 74.3086C274.196 74.3086 271.498 79.0684 272.127 81.4968C272.756 83.9253 275.86 94.3386 275.86 94.3386H279.776L278.824 83.1327C278.824 83.1327 278.046 84.6587 276.266 82.6674C273.926 80.0437 274.196 74.3086 274.196 74.3086Z" fill="#A1A654"/>
<path d="M270.875 63.6797L272.599 71.6334C272.599 71.6334 271.042 76.7419 268.942 76.7419C266.842 76.7419 269.069 72.8797 269.069 72.8797L267.691 66.2199L270.875 63.6797Z" fill="#F09959"/>
<path d="M271.931 68.5552L271.042 64.4414L267.689 66.2181L269.051 72.8002C270.287 71.9201 271.278 70.7991 271.931 68.5552Z" fill="#E38540"/>
<path d="M270.527 67.4319C269.588 69.6224 267.557 70.8551 265.989 70.1848C264.421 69.5145 263.912 67.1968 264.85 65.0063C265.789 62.8159 267.821 61.5832 269.389 62.2525C270.957 62.9217 271.465 65.2424 270.527 67.4319Z" fill="#F09959"/>
<path d="M262.256 62.563C262.917 65.0196 262.856 66.2173 266.276 64.125C267.218 63.5489 267.657 64.1201 268.016 64.5398C268.376 64.9594 268.856 63.7695 269.516 64.125C270.177 64.4805 269.089 67.8046 270.878 67.654C272.478 67.519 272.337 68.6516 274.717 67.4529C276.589 66.5097 271.621 61.6635 269.34 61.1244C267.059 60.5853 262.256 62.563 262.256 62.563Z" fill="#D54A41"/>
<path d="M279.056 65.4393C277.616 67.5365 276.916 67.3597 276.305 67.2373C275.693 67.1149 274.397 67.5929 273.735 67.6541C273.072 67.7153 274.436 63.7617 274.436 63.7617L279.056 65.4393Z" fill="#D54A41"/>
<path d="M296.998 157.464H205.015C204.447 157.464 203.887 157.332 203.379 157.078C202.871 156.824 202.429 156.456 202.089 156.002C201.748 155.548 201.519 155.021 201.417 154.463C201.316 153.905 201.347 153.331 201.506 152.787L218.088 96.2611C218.408 95.1686 219.074 94.209 219.986 93.526C220.897 92.8431 222.006 92.4735 223.146 92.4727H313.917C314.486 92.4716 315.047 92.6033 315.556 92.8571C316.065 93.1109 316.507 93.4799 316.848 93.9347C317.189 94.3895 317.419 94.9175 317.52 95.4767C317.621 96.0359 317.589 96.6108 317.428 97.1557L300.504 154.844C300.281 155.6 299.819 156.264 299.187 156.736C298.555 157.209 297.787 157.464 296.998 157.464Z" fill="#2E5B9A"/>
<path d="M292.746 148.944H211.476C210.975 148.944 210.48 148.827 210.031 148.603C209.583 148.379 209.192 148.053 208.892 147.652C208.591 147.251 208.388 146.786 208.299 146.292C208.209 145.799 208.236 145.292 208.377 144.812L221.741 99.6033C222.024 98.6375 222.614 97.7894 223.42 97.1863C224.227 96.5831 225.208 96.2573 226.215 96.2578H306.413C306.915 96.2576 307.41 96.3743 307.858 96.5984C308.307 96.8226 308.698 97.1481 308.998 97.5492C309.299 97.9502 309.502 98.4158 309.592 98.9089C309.681 99.4021 309.654 99.9092 309.513 100.39L295.848 146.628C295.651 147.297 295.242 147.884 294.683 148.302C294.124 148.719 293.444 148.945 292.746 148.944Z" fill="#EBEFF2"/>
<path d="M298.708 150.902H166.925C165.39 150.902 164.146 152.145 164.146 153.678V155.367C164.146 156.9 165.39 158.142 166.925 158.142H298.708C300.243 158.142 301.487 156.9 301.487 155.367V153.678C301.487 152.145 300.243 150.902 298.708 150.902Z" fill="#6087BD"/>
<path d="M299.267 150.902H250.216C248.989 150.902 247.995 151.895 247.995 153.12V155.924C247.995 157.149 248.989 158.142 250.216 158.142H299.267C300.494 158.142 301.488 157.149 301.488 155.924V153.12C301.488 151.895 300.494 150.902 299.267 150.902Z" fill="#4170B3"/>
<path d="M237.278 114.629C237.278 114.629 237.048 118.07 239.921 117.947C241.477 117.88 243.677 114.629 243.677 114.629C243.677 114.629 248.129 115.612 250.012 120.036L251.895 124.46C251.895 124.46 250.197 126.143 248.353 127.18C247.276 127.777 246.123 128.225 244.926 128.512L243.839 125.316L240.976 137.605C240.976 137.605 237.587 138.841 231.763 138.834C226.761 138.834 225.109 137.237 225.109 137.237L230.636 125.07L227.156 129.003C227.156 129.003 224.591 127.611 222.779 126.053C223.039 125.316 225.999 122.224 228.242 119.748C231.255 116.432 237.278 114.629 237.278 114.629Z" fill="#C1C765"/>
<path d="M231.348 122.966H244.638L244.997 121.906H231.706L231.348 122.966Z" fill="#F5CE5C"/>
<path d="M229.116 128.423H243.116L243.356 127.363H229.597L229.116 128.423Z" fill="#F5CE5C"/>
<path d="M244.33 123.875H231.041L230.636 125.077L230.009 126.456H243.575L243.839 125.322L244.33 123.875Z" fill="#F5CE5C"/>
<path d="M279.491 114.164C279.491 114.164 275.818 115.36 273.316 116.617C270.813 117.874 260.685 129.067 260.685 129.067C260.685 129.067 262.307 131.923 263.221 131.923C264.136 131.923 272.118 124.866 272.118 124.866C272.118 124.866 272.444 128.153 269.578 133.659C267.884 136.91 266.749 138.776 266.749 138.776C266.749 138.776 269.293 139.347 273.827 139.456C278.362 139.565 283.151 138.315 283.151 138.315C283.151 138.315 283.09 133.631 284.447 129.953C285.128 128.122 286.323 124.151 286.323 124.151C286.323 124.151 290.311 132.057 290.618 132.171C290.924 132.284 295.104 129.405 295.104 129.405C295.104 129.405 292.741 118.935 291.477 115.955C290.925 114.653 286.385 113.996 286.385 113.996C286.385 113.996 284.49 118.305 281.666 118.554C279.069 118.787 279.491 114.164 279.491 114.164Z" fill="#F39892"/>
<path d="M266.749 138.774C266.749 138.774 268.454 139.157 271.559 139.357L279.621 116.529C279.476 115.75 279.432 114.955 279.491 114.164C279.491 114.164 275.818 115.36 273.316 116.617C270.813 117.874 260.685 129.067 260.685 129.067C260.685 129.067 262.307 131.923 263.221 131.923C264.136 131.923 272.118 124.866 272.118 124.866C272.118 124.866 272.444 128.153 269.578 133.659C267.884 136.908 266.749 138.774 266.749 138.774Z" fill="#F37168"/>
<path d="M272.148 139.395C272.358 139.406 272.573 139.416 272.794 139.426L280.331 118.081C280.154 117.89 280.01 117.669 279.905 117.43L272.148 139.395Z" fill="#F37168"/>
<path d="M247.088 108.56H236.073C235.054 108.56 234.517 107.727 234.874 106.714L235.961 103.635C236.32 102.617 237.448 101.789 238.468 101.789H249.483C250.502 101.789 251.039 102.622 250.682 103.635L249.595 106.714C249.236 107.727 248.108 108.56 247.088 108.56Z" fill="#D54A41"/>
<path d="M244.242 105.607H240.644C240.608 105.607 240.574 105.6 240.542 105.585C240.51 105.571 240.482 105.549 240.459 105.523C240.436 105.496 240.419 105.465 240.41 105.432C240.4 105.398 240.397 105.363 240.402 105.328L240.682 103.483C240.694 103.421 240.729 103.366 240.781 103.33C240.832 103.294 240.896 103.278 240.958 103.288C241.02 103.297 241.076 103.331 241.114 103.38C241.153 103.43 241.17 103.493 241.163 103.556L240.925 105.121H244.242C244.307 105.121 244.369 105.147 244.414 105.193C244.46 105.238 244.486 105.3 244.486 105.364C244.486 105.429 244.46 105.49 244.414 105.536C244.369 105.582 244.307 105.607 244.242 105.607Z" fill="white"/>
<path d="M245.098 103.759H240.922C240.857 103.759 240.796 103.734 240.75 103.688C240.704 103.642 240.679 103.581 240.679 103.516C240.679 103.452 240.704 103.39 240.75 103.345C240.796 103.299 240.857 103.273 240.922 103.273H245.098C245.162 103.273 245.224 103.299 245.269 103.345C245.315 103.39 245.341 103.452 245.341 103.516C245.341 103.581 245.315 103.642 245.269 103.688C245.224 103.734 245.162 103.759 245.098 103.759Z" fill="white"/>
<path d="M244.689 104.676H240.959C240.856 104.676 240.757 104.635 240.684 104.562C240.611 104.489 240.57 104.39 240.57 104.287C240.57 104.184 240.611 104.085 240.684 104.012C240.757 103.939 240.856 103.898 240.959 103.898H244.689C244.792 103.898 244.891 103.939 244.964 104.012C245.037 104.085 245.078 104.184 245.078 104.287C245.078 104.39 245.037 104.489 244.964 104.562C244.891 104.635 244.792 104.676 244.689 104.676Z" fill="white"/>
<path d="M243.569 106.83H240.456C240.392 106.83 240.33 106.805 240.284 106.759C240.239 106.713 240.213 106.652 240.213 106.587C240.213 106.523 240.239 106.461 240.284 106.416C240.33 106.37 240.392 106.344 240.456 106.344H243.433L245.685 102.564C245.707 102.528 245.737 102.498 245.774 102.477C245.811 102.456 245.852 102.445 245.894 102.445H247.319C247.384 102.445 247.446 102.471 247.491 102.516C247.537 102.562 247.562 102.624 247.562 102.688C247.562 102.753 247.537 102.814 247.491 102.86C247.446 102.905 247.384 102.931 247.319 102.931H246.032L243.781 106.712C243.759 106.748 243.728 106.778 243.69 106.799C243.653 106.82 243.611 106.831 243.569 106.83Z" fill="white"/>
<path d="M241.111 107.357C241.06 107.492 240.971 107.61 240.854 107.696C240.738 107.782 240.599 107.833 240.455 107.842C240.186 107.842 240.045 107.625 240.14 107.357C240.191 107.221 240.281 107.104 240.397 107.018C240.514 106.932 240.653 106.881 240.797 106.871C241.066 106.871 241.207 107.088 241.111 107.357Z" fill="white"/>
<path d="M243.341 107.357C243.289 107.492 243.2 107.61 243.083 107.696C242.967 107.782 242.828 107.833 242.683 107.842C242.415 107.842 242.275 107.625 242.369 107.357C242.421 107.222 242.51 107.104 242.626 107.018C242.743 106.932 242.881 106.881 243.026 106.871C243.294 106.871 243.435 107.088 243.341 107.357Z" fill="white"/>
<path d="M289.155 108.56H278.143C277.125 108.56 276.587 107.727 276.944 106.714L278.031 103.635C278.39 102.617 279.519 101.789 280.538 101.789H291.553C292.573 101.789 293.11 102.622 292.753 103.635L291.663 106.709C291.302 107.727 290.174 108.56 289.155 108.56Z" fill="#D54A41"/>
<path d="M286.314 105.607H282.715C282.68 105.607 282.645 105.6 282.613 105.585C282.581 105.571 282.553 105.55 282.53 105.523C282.507 105.497 282.491 105.465 282.481 105.432C282.471 105.398 282.469 105.363 282.475 105.328L282.754 103.483C282.765 103.421 282.801 103.366 282.852 103.33C282.903 103.294 282.967 103.278 283.029 103.288C283.091 103.297 283.147 103.331 283.186 103.38C283.224 103.43 283.241 103.493 283.234 103.556L282.992 105.121H286.314C286.378 105.121 286.44 105.147 286.486 105.193C286.531 105.238 286.557 105.3 286.557 105.364C286.557 105.429 286.531 105.49 286.486 105.536C286.44 105.582 286.378 105.607 286.314 105.607Z" fill="white"/>
<path d="M287.163 103.759H282.988C282.923 103.759 282.861 103.734 282.816 103.688C282.77 103.642 282.745 103.581 282.745 103.516C282.745 103.452 282.77 103.39 282.816 103.345C282.861 103.299 282.923 103.273 282.988 103.273H287.163C287.228 103.273 287.29 103.299 287.335 103.345C287.381 103.39 287.407 103.452 287.407 103.516C287.407 103.581 287.381 103.642 287.335 103.688C287.29 103.734 287.228 103.759 287.163 103.759Z" fill="white"/>
<path d="M286.756 104.676H283.025C282.922 104.676 282.823 104.635 282.75 104.562C282.677 104.489 282.636 104.39 282.636 104.287C282.636 104.184 282.677 104.085 282.75 104.012C282.823 103.939 282.922 103.898 283.025 103.898H286.756C286.859 103.898 286.958 103.939 287.031 104.012C287.104 104.085 287.145 104.184 287.145 104.287C287.145 104.39 287.104 104.489 287.031 104.562C286.958 104.635 286.859 104.676 286.756 104.676Z" fill="white"/>
<path d="M285.633 106.83H282.52C282.456 106.83 282.394 106.805 282.348 106.759C282.302 106.713 282.277 106.652 282.277 106.587C282.277 106.523 282.302 106.461 282.348 106.416C282.394 106.37 282.456 106.344 282.52 106.344H285.497L287.749 102.564C287.771 102.528 287.801 102.498 287.838 102.477C287.875 102.456 287.916 102.445 287.958 102.445H289.383C289.448 102.445 289.51 102.471 289.555 102.516C289.601 102.562 289.626 102.624 289.626 102.688C289.626 102.753 289.601 102.814 289.555 102.86C289.51 102.905 289.448 102.931 289.383 102.931H288.097L285.845 106.712C285.823 106.748 285.792 106.778 285.754 106.799C285.717 106.82 285.675 106.831 285.633 106.83Z" fill="white"/>
<path d="M283.178 107.357C283.127 107.492 283.037 107.61 282.921 107.696C282.804 107.782 282.665 107.833 282.521 107.842C282.252 107.842 282.111 107.625 282.207 107.357C282.258 107.222 282.347 107.104 282.463 107.018C282.58 106.932 282.719 106.881 282.863 106.871C283.132 106.871 283.273 107.088 283.178 107.357Z" fill="white"/>
<path d="M285.407 107.357C285.355 107.492 285.266 107.61 285.149 107.696C285.033 107.782 284.894 107.833 284.749 107.842C284.482 107.842 284.341 107.625 284.435 107.357C284.487 107.221 284.576 107.104 284.692 107.018C284.809 106.931 284.948 106.881 285.093 106.871C285.361 106.871 285.502 107.088 285.407 107.357Z" fill="white"/>
<g style="mix-blend-mode:screen">
<path d="M298.665 137.085L305.289 114.672L263.812 148.943H284.313L298.665 137.085Z" fill="#4D4D4D"/>
</g>
<g style="mix-blend-mode:screen">
<path d="M306.411 96.2578H285.287L219.68 148.944H252.417L308.666 103.02L309.604 99.9695C309.674 99.5101 309.644 99.041 309.516 98.5943C309.387 98.1476 309.164 97.7339 308.861 97.3815C308.557 97.029 308.182 96.7461 307.759 96.5522C307.336 96.3582 306.876 96.2578 306.411 96.2578Z" fill="#4D4D4D"/>
</g>
<path d="M208.812 85.7476C208.697 88.3451 210.111 90.5948 211.971 90.5968C215.054 90.5968 216.871 90.5968 216.303 85.8943C215.991 83.3133 214.244 81.2754 212.385 81.1938C210.526 81.1122 208.926 83.1511 208.812 85.7476Z" fill="#F3B570"/>
<path d="M208.805 84.5352L207.616 92.1333C207.616 92.1333 210.057 94.6852 211.079 94.5715C212.102 94.4579 212.265 94.3452 212.215 94.0042C212.166 93.6633 213.237 86.9733 213.237 86.9733L208.805 84.5352Z" fill="#F3B570"/>
<path d="M210.171 87.5977C210.171 87.5977 210.549 88.8265 211.401 89.556C211.969 90.0417 213.197 90.0417 215.502 90.0135C214.854 90.5079 213.884 90.5866 212.672 90.5963C212.471 91.9145 212.283 93.2132 212.228 93.7543C211.808 93.0083 211.364 92.1797 211.136 91.6231C210.625 90.3758 210.171 87.5977 210.171 87.5977Z" fill="#E38540"/>
<path d="M220.642 159.24C221.517 160.525 226.672 161.698 226.347 162.22C226.023 162.742 222.559 163.395 220.796 162.803C219.034 162.211 217.426 162.699 216.598 162.28C215.771 161.862 217.14 158.629 217.14 158.629L220.642 159.24Z" fill="#2E2D3D"/>
<path d="M199.51 159.479C199.968 160.588 206.231 162.153 201.924 162.349C197.617 162.545 197.485 161.863 195.82 161.863C194.155 161.863 195.723 158.695 196.18 158.172C196.637 157.649 199.51 159.479 199.51 159.479Z" fill="#2E2D3D"/>
<path d="M201.923 114.945C200.358 132.353 201.813 134.664 199.91 141.921C198.008 149.177 195.266 158.476 195.922 159.239C196.579 160.001 199.066 159.608 199.514 159.48C199.963 159.353 208.087 147.351 210.419 138.873C213.337 128.258 212.638 116.92 212.638 116.92L201.923 114.945Z" fill="#3A384D"/>
<path d="M204.949 151.102C204.177 147.209 205.701 140.193 201.17 126.731C201.254 124.264 201.404 121.269 201.709 117.475C201.825 116.759 201.942 115.936 202.057 114.969L212.635 116.923C212.635 116.923 213.334 128.257 210.415 138.876C209.362 142.703 207.126 147.253 204.949 151.102Z" fill="#2E2D3D"/>
<path d="M216.598 116.925C215.247 124.794 216.684 144.221 218.381 150.873C220.078 157.525 220.796 159.742 220.796 159.742C220.796 159.742 218.593 160.889 216.598 159.24C214.603 157.591 207.31 145.129 208.083 141.922C208.857 138.716 205.193 134.571 204.016 128.047C203.311 124.165 202.832 120.246 202.579 116.309L216.598 116.925Z" fill="#3A384D"/>
<path d="M206.233 92.1719C201.795 96.0302 197.16 107.181 196.768 109.137C196.376 111.093 200.618 113.843 202.579 114.705C204.54 115.567 206.233 92.1719 206.233 92.1719Z" fill="#7DC1D6"/>
<path d="M207.722 90.9609C207.722 90.9609 202.858 93.4865 202.734 102.027C202.555 114.095 201.399 118.396 201.399 118.396C201.399 118.396 213.05 120.609 216.201 120.622C218.251 120.631 219.302 113.829 219.302 106.136C219.302 98.4426 213.288 93.7459 212.112 93.3544C210.936 92.963 207.722 90.9609 207.722 90.9609Z" fill="#9BD6E8"/>
<path opacity="0.5" d="M212.708 110.543C209.517 107.061 208.26 98.6371 209.761 95.0508L218.967 103.03C219.19 104.051 219.303 105.093 219.302 106.138C219.302 109.301 219.183 112.281 218.825 114.706C217.536 114.236 215.017 113.064 212.708 110.543Z" fill="#7DC1D6"/>
<path d="M234.533 103.724C235.992 103.031 237.728 100.422 237.704 101.287C237.702 101.749 237.64 102.208 237.521 102.654C237.521 102.654 241.101 100.605 241.606 101.3C242.111 101.994 240.89 104.171 239.917 104.634C238.944 105.096 234.221 105.784 234.221 105.784L234.533 103.724Z" fill="#F3B570"/>
<path d="M209.305 94.7907C207.36 100.182 214.47 108.42 219.302 110.18C224.135 111.941 235.772 106.229 235.772 106.229C235.772 106.229 235.331 103.462 234.548 103.528C233.765 103.594 222.429 104.441 222.429 104.441C222.429 104.441 216.879 97.1327 214.268 95.3104C211.508 93.3967 209.451 94.3837 209.305 94.7907Z" fill="#9BD6E8"/>
<path d="M216.407 80.1718C218.129 83.6581 215.123 84.9918 214.559 84.9918C213.995 84.9918 214.915 88.143 214.149 88.1391C213.384 88.1352 213.857 85.5164 212.965 85.7563C212.072 85.9962 211.816 89.5622 210.712 90.2247C209.608 90.8872 208.349 90.5375 207.988 89.805C207.627 89.0726 207.494 87.226 206.829 85.8972C205.694 83.629 206.999 78.9809 209.552 78.6399C212.106 78.299 212.676 79.1509 214.265 78.9809C215.854 78.8109 216.184 79.7133 216.407 80.1718Z" fill="#2E2D3D"/>
<path d="M211.752 86.83C211.993 87.4915 212.57 87.8908 213.041 87.7198C213.513 87.5488 213.701 86.8737 213.46 86.2112C213.218 85.5488 212.642 85.1505 212.171 85.3205C211.7 85.4905 211.515 86.1675 211.752 86.83Z" fill="#F3B570"/>
<path d="M324.047 159.105C324.047 159.105 322.88 160.746 321.299 161.407C319.719 162.067 316.873 162.99 317.941 163.359C319.009 163.728 321.902 163.553 323.254 163.359C324.606 163.165 325.064 164.029 325.776 163.574C326.488 163.118 326.336 160.174 326.336 160.174L324.047 159.105Z" fill="#58556E"/>
<path d="M344.638 160.754C344.755 161.27 344.742 161.808 344.6 162.318C344.458 162.828 344.191 163.295 343.824 163.678C342.553 165.049 340.467 165.761 342.4 166.065C344.334 166.369 346.725 165.304 347.182 164.643C347.639 163.983 347.843 163.856 348.199 163.437C348.555 163.018 348.199 160.02 348.199 160.02L344.638 160.754Z" fill="#58556E"/>
<path d="M330.464 83.3886C327.203 85.4285 327.002 90.5866 329.274 92.4429C331.547 94.2992 337.348 94.7742 340.061 93.8145C342.807 92.8431 345.411 92.1097 346.878 93.3696C349.058 95.2376 350.489 95.9564 352.27 95.5416C355.444 94.8034 356.239 95.3386 356.798 97.2192C357.357 99.0998 358.274 97.5038 359.8 99.0124C361.326 100.521 360.003 102.237 359.494 102.624C358.986 103.011 362.801 104.281 362.903 99.8604C363.006 95.4396 358.833 98.1333 358.376 96.9142C357.919 95.6951 359.037 92.2904 357.154 92.1884C355.271 92.0864 353.75 92.7518 353.491 91.1199C353.232 89.488 349.98 88.6283 348.505 89.6949C347.03 90.7614 346.065 88.7011 345.437 87.4607C344.718 86.0376 342.705 86.6981 341.078 86.0891C339.45 85.48 340.232 83.0516 336.531 81.815C334.7 81.2117 332.479 82.1287 330.464 83.3886Z" fill="#58556E"/>
<path d="M335.408 88.0234C335.408 88.0234 337.075 92.5414 339.694 94.1257C342.312 95.71 345.01 95.6974 344.693 98.1258C344.376 100.554 344.381 113.879 344.381 113.879C344.381 113.879 338.859 116.655 337.43 116.61C336.001 116.566 329.695 104.642 330.171 102.677C330.648 100.712 334.96 95.2369 334.708 93.8896C334.456 92.5423 332.868 90.2693 332.868 90.2693L335.408 88.0234Z" fill="#F09959"/>
<path d="M334.697 94.2218C334.72 94.1127 334.724 94.0001 334.707 93.8896C334.456 92.5423 332.868 90.2693 332.868 90.2693L335.408 88.0234C335.727 88.8441 336.102 89.6419 336.53 90.4111C336.079 91.7522 335.463 93.0323 334.697 94.2218Z" fill="#E38540"/>
<path d="M329.132 89.7716C329.509 91.7843 330.488 93.6445 332.161 93.3327C333.834 93.0209 335.566 90.6536 335.191 88.6419C334.817 86.6301 333.149 85.2517 331.479 85.5635C329.81 85.8754 328.756 87.7618 329.132 89.7716Z" fill="#F09959"/>
<path d="M337.639 113.574C337.639 113.574 336.942 127.007 330.15 145.705C327.312 153.511 323.258 160.017 323.258 160.017C323.258 160.017 326.744 163.155 327.101 162.445C327.458 161.735 341.047 147.724 344.991 130.363C347.363 119.925 341.083 111.293 341.083 111.293L337.639 113.574Z" fill="#F37168"/>
<path opacity="0.5" d="M337.619 113.627C337.619 113.627 337.467 116.541 336.62 121.538C340.33 131.232 337.447 144.2 334.447 153.03C338.435 147.239 342.955 139.263 344.965 130.414C347.337 119.975 341.058 111.344 341.058 111.344L337.619 113.627Z" fill="#D54A41"/>
<path d="M343.495 112.348C343.495 112.348 352.183 112.273 352.303 121.517C352.423 130.76 351.233 144.934 349.922 153.136C348.611 161.339 348.582 162.445 348.582 162.445C348.582 162.445 345.163 162.325 344.296 161.969C344.296 159.588 343.873 148.758 342.851 141.844C341.828 134.929 339.21 115.157 339.21 115.157L343.495 112.348Z" fill="#F37168"/>
<path d="M333.859 96.0664C325.601 97.742 320.964 99.9519 319.767 100.975C318.068 102.432 318.879 105.904 319.49 106.034C322.077 106.587 334.166 105.055 334.166 105.055L333.859 96.0664Z" fill="#DBB64C"/>
<path d="M339.693 94.1289C341.833 95.1683 344.613 95.6171 345.17 96.5768C345.726 97.5365 343.899 109.504 345.17 111.011C345.962 111.932 346.953 112.663 348.069 113.148C348.069 113.148 345.452 119.33 340.668 119.884C335.884 120.439 335.707 118.611 335.707 118.611C335.707 118.611 329.774 107.058 330.171 102.68C330.334 100.872 333.898 96.0678 333.898 96.0678C333.898 96.0678 333.355 97.9746 334.7 98.3117C336.044 98.6488 339.693 94.1289 339.693 94.1289Z" fill="#F5CE5C"/>
<path d="M345.257 98.494C345.091 102.178 344.175 109.827 345.174 111.011C345.967 111.933 346.958 112.664 348.074 113.148C347.666 114.048 347.175 114.907 346.605 115.714C346.137 115.551 345.444 115.508 344.723 115.057C341.542 113.07 340.214 110.422 339.115 107.759C338.016 105.097 340.254 101.578 342.856 96.2695L345.257 98.494Z" fill="#DBB64C"/>
<path d="M332.868 94.6131C332.868 94.6131 335.008 96.4131 338.121 95.9129C339.638 95.669 339.774 95.9129 339.774 95.9129C339.774 95.9129 343.237 103.131 344.719 107.347C346.201 111.563 346.757 111.246 346.201 111.564C345.646 111.881 340.922 113.471 340.922 113.471L338.426 102.624C338.426 102.624 336.942 103.467 336.941 107.997C336.941 111.808 342.485 117.661 343.824 118.085C344.324 118.242 344.91 120.354 338.296 122.183C332.436 123.803 325.568 120.565 325.568 120.565C325.568 120.565 328.662 104.312 329.615 102.43C330.567 100.547 325.335 111.816 325.335 111.816C325.335 111.816 322.732 112.011 325.017 107.057C327.302 102.103 328.791 97.6526 329.561 96.2674C330.51 94.5539 330.083 93.7729 332.868 94.6131Z" fill="#3E6BAB"/>
<path d="M343.869 95.7969C341.691 96.744 342.627 102.678 342.627 102.678C342.627 102.678 352.961 109.149 352.881 109.974C352.801 110.8 350.229 114.673 346.029 116.831C345.738 116.174 343.332 116.443 341.837 116.607L342.242 117.044C342.499 117.132 343.446 117.511 343.446 117.511C343.446 117.511 341.186 117.624 340.668 118.015C339.528 118.877 343.926 119.744 346.407 118.423C348.264 117.437 352.638 116.341 355.971 111.292C359.803 105.496 343.869 95.7969 343.869 95.7969Z" fill="#F09959"/>
<path d="M342.323 95.1406C347.63 96.3471 355.119 103.96 356.225 106.661C357.003 108.569 356.517 109.49 354.454 110.725C352.391 111.959 351.2 111.292 351.2 111.292C351.2 111.292 348.97 107.724 346.434 105.992C343.899 104.26 342.316 103.908 342.316 103.908C342.316 103.908 341.285 101.125 341.602 98.5385C341.919 95.9517 342.323 95.1406 342.323 95.1406Z" fill="#F5CE5C"/>
<path d="M340.54 104.986C340.065 104.335 340.033 103.616 340.074 102.502C340.131 100.941 340.196 100.028 340.834 98.1719C341.939 100.564 343.645 104.363 344.622 107.075C343.048 106.913 341.591 106.168 340.54 104.986Z" fill="#3E6BAB"/>
<path d="M318.761 103.954C319.16 106.351 319.48 106.543 320.668 106.673C322.552 106.868 325.132 104.494 325.905 103.107C326.678 101.719 326.577 101.113 326.577 101.113L318.761 103.954Z" fill="#F5CE5C"/>
<path d="M326.894 100.391C325.489 104.195 320.808 105.83 319.854 105.384C318.9 104.937 318.564 103.074 318.687 102.998C318.809 102.922 326.894 100.391 326.894 100.391Z" fill="#E38540"/>
<path d="M325.925 98.6045C325.191 98.248 324.708 98.5598 324.708 98.5598L322.029 99.5895L325.925 98.6045Z" fill="#F5CE5C"/>
<path d="M319.854 100.601C317.984 102.032 318.425 104.487 319.854 104.471C321.283 104.456 330.408 99.4987 331.202 98.5661C331.996 97.6336 336.52 98.0047 336.916 97.1877C337.312 96.3708 332.953 95.6831 332.115 96.0658C331.276 96.4485 330.152 97.4558 330.152 97.4558C330.152 97.4558 321.68 99.2043 319.854 100.601Z" fill="#F09959"/>
<path d="M328.766 87.0424C329.681 90.2937 335.028 88.4675 335.028 88.4675C335.507 89.7966 336.338 90.9714 337.432 91.8673C339.246 93.3409 340.058 91.0543 340.058 91.0543L335.02 85.1094C335.02 85.1094 330.747 85.2619 330.492 85.3639C330.237 85.4659 328.766 87.0424 328.766 87.0424Z" fill="#58556E"/>
<path d="M334.772 88.847C334.539 89.5979 334.744 90.3264 335.227 90.476C335.71 90.6256 336.29 90.137 336.522 89.3861C336.753 88.6353 336.55 87.9058 336.066 87.7571C335.583 87.6085 335.003 88.0961 334.772 88.847Z" fill="#F09959"/>
<path d="M79.4732 84.8641C80.5062 90.198 78.2292 92.2642 74.0263 93.0325C69.8234 93.8009 67.1787 89.4772 63.2812 90.774C59.3837 92.0708 72.6188 83.375 72.6188 83.375L79.4732 84.8641Z" fill="#303C60"/>
<path d="M86.6651 156.648C89.1668 158.426 91.0908 159.147 92.4379 159.339C93.7851 159.532 92.6791 160.444 90.1765 160.732C87.6738 161.021 87.8197 160.246 86.3276 160.3C84.8355 160.353 83.7802 160.793 84.0185 159.291C84.1603 158.417 84.2406 157.534 84.2587 156.648H86.6651Z" fill="#D54A41"/>
<path d="M52.4086 155.737C51.7355 157.322 52.3113 159.243 53.4669 159.773C54.6224 160.302 53.6614 160.734 51.3017 160.589C48.942 160.444 48.5598 159.243 48.6561 157.803C48.7523 156.362 47.7904 156.601 47.8867 155.737C47.983 154.872 50.9175 153.43 50.9175 153.43L52.4086 155.737Z" fill="#D54A41"/>
<path d="M74.0273 93.2383C80.9557 95.928 93.0751 95.0587 93.0751 95.0587L87.3918 99.1317C87.3918 99.1317 83.8737 101.085 79.2535 100.539C74.6333 99.9933 74.0273 93.2383 74.0273 93.2383Z" fill="#D54A41"/>
<path d="M72.9953 112.451C72.9953 112.451 83.8892 132.015 84.6071 135.462C85.3249 138.91 87.6817 157.079 87.6817 157.079C87.6817 157.079 84.9806 158.03 83.9709 157.742C82.9613 157.453 77.6758 140.928 77.5348 138.19C77.3938 135.452 69.8196 128.677 65.7781 124.095C61.7367 119.513 65.7781 110.062 65.7781 110.062L72.9953 112.451Z" fill="#3E6BAB"/>
<path d="M76.0999 118.24C74.8034 115.797 73.7509 113.844 73.2724 112.961L65.5426 110.656C64.7401 112.805 62.3483 120.2 65.778 124.089C68.0345 126.647 71.5848 129.82 74.3559 133.196C73.9883 129.417 74.4503 125.105 76.0999 118.24Z" fill="#2E5B9A"/>
<path d="M73.6002 114.985C70.2834 128.961 65.4113 136.717 62.5244 141.645C59.6375 146.573 52.9864 155.524 52.5536 155.783C52.1207 156.043 49.5704 154.967 49.7144 153.67C49.8583 152.373 53.7879 138.968 56.3859 136.865C58.9839 134.762 59.2786 132.436 60.5081 125.326C61.7375 118.215 65.0563 111.297 66.3558 111.297C67.6553 111.297 73.6002 114.985 73.6002 114.985Z" fill="#3E6BAB"/>
<path d="M72.6176 87.8427C72.6176 87.8427 70.9067 92.4723 70.041 92.8269C69.1754 93.1814 65.8751 94.7696 65.2973 101.958C64.7195 109.146 64.7468 113.243 64.7468 113.243C64.7468 113.243 71.5798 116.676 73.5981 114.984C75.6164 113.292 79.8747 103.859 79.4419 101.315C79.009 98.7708 75.9247 93.9556 74.8762 93.1134C73.8276 92.2712 75.5454 88.1798 75.5454 88.1798L72.6585 85.6289L72.6176 87.8427Z" fill="#F09959"/>
<path d="M70.0411 92.8242C72.4232 95.2877 75.1875 96.8545 75.5455 95.5762C75.9034 94.2978 74.281 92.4803 74.8763 93.1108C74.9736 93.2079 75.1593 93.3672 75.386 93.6373C76.5862 95.0662 79.2766 98.604 79.9293 100.864C80.6987 103.552 76.6572 111.295 75.5455 113.243C74.7917 114.563 76.3334 118.683 76.3334 118.683C76.3334 118.683 73.2899 119.713 70.0411 117.872C67.3371 116.341 66.2866 116.448 64.7469 116.448H62.5098C62.5098 116.448 63.8326 112.572 64.4016 110.061C65.1671 106.688 65.0436 97.788 66.3022 95.6626C67.7661 93.1943 70.0411 92.8242 70.0411 92.8242Z" fill="#F37168"/>
<path d="M75.3861 93.6399C75.2324 93.4495 75.0618 93.2733 74.8764 93.1134C73.8279 92.2703 75.5456 88.1798 75.5456 88.1798L72.6588 85.6289L71.7581 87.7465C71.7581 87.7465 71.6443 88.3808 71.4565 89.2036C72.6772 93.4651 74.1742 94.114 75.3861 93.6399Z" fill="#E38540"/>
<path opacity="0.5" d="M79.691 103.791C77.2797 105.456 74.6603 104.185 72.11 101.2C69.44 98.0772 67.8516 95.6157 66.5074 97.4477C65.1632 99.2798 64.9735 106.138 67.5919 110.659C69.5879 114.104 73.1712 117.397 75.3461 118.889C75.6806 118.848 76.0109 118.778 76.3333 118.679C76.3333 118.679 74.7916 114.562 75.5455 113.24C76.3683 111.803 78.7981 107.183 79.691 103.791Z" fill="#D54A41"/>
<path d="M109.275 95.0844L91.183 120.833C91.1056 120.943 91.0073 121.037 90.8935 121.109C90.7798 121.182 90.6529 121.231 90.5201 121.254C90.3873 121.277 90.2512 121.274 90.1196 121.245C89.9881 121.216 89.8635 121.161 89.7532 121.084L75.4705 111.078C75.2478 110.922 75.0962 110.684 75.0492 110.416C75.0021 110.148 75.0634 109.873 75.2195 109.65L93.3112 83.9008C93.3887 83.7906 93.4871 83.6968 93.6009 83.6246C93.7147 83.5524 93.8416 83.5033 93.9743 83.4802C94.1071 83.457 94.2432 83.4601 94.3747 83.4895C94.5063 83.5188 94.6308 83.5738 94.741 83.6512L109.024 93.6564C109.134 93.7337 109.228 93.8319 109.301 93.9455C109.373 94.0591 109.422 94.1859 109.445 94.3185C109.469 94.4511 109.466 94.587 109.436 94.7184C109.407 94.8498 109.352 94.9742 109.275 95.0844Z" fill="#9BD6E8"/>
<path d="M85.9307 109.093L83.0254 113.149C82.8953 113.33 82.6989 113.452 82.479 113.488C82.2592 113.525 82.0338 113.473 81.8523 113.343L80.6112 112.457C80.4302 112.327 80.3081 112.13 80.2716 111.911C80.2351 111.691 80.2873 111.466 80.4167 111.285L83.323 107.229C83.4532 107.048 83.6494 106.927 83.869 106.89C84.0885 106.854 84.3136 106.906 84.4951 107.034L85.7362 107.921C85.9172 108.051 86.0393 108.247 86.0758 108.467C86.1122 108.686 86.0601 108.911 85.9307 109.093Z" fill="#63ACC2"/>
<path opacity="0.5" d="M93.5301 109.521L87.8458 117.147C87.7954 117.22 87.7309 117.283 87.6559 117.33C87.5809 117.378 87.497 117.41 87.4094 117.424C87.3217 117.439 87.232 117.436 87.1457 117.415C87.0593 117.394 86.9781 117.355 86.9069 117.302C86.8356 117.249 86.7758 117.183 86.731 117.106C86.6863 117.029 86.6575 116.944 86.6463 116.856C86.6352 116.768 86.6419 116.679 86.6662 116.594C86.6905 116.508 86.7317 116.429 86.7875 116.36L92.4718 108.734C92.5763 108.594 92.7322 108.501 92.9053 108.476C93.0785 108.45 93.2545 108.495 93.3949 108.599C93.5352 108.703 93.6283 108.859 93.6536 109.032C93.679 109.205 93.6346 109.381 93.5301 109.521Z" fill="#3E6BAB"/>
<path opacity="0.5" d="M96.8293 108.375L89.4176 118.317C89.3672 118.39 89.3026 118.452 89.2276 118.5C89.1526 118.548 89.0688 118.58 88.9811 118.594C88.8935 118.609 88.8038 118.605 88.7174 118.584C88.6311 118.563 88.5499 118.525 88.4786 118.472C88.4074 118.419 88.3476 118.352 88.3028 118.276C88.2581 118.199 88.2292 118.114 88.2181 118.026C88.207 117.938 88.2137 117.849 88.238 117.763C88.2622 117.678 88.3035 117.598 88.3593 117.529L95.7672 107.587C95.8183 107.516 95.8832 107.456 95.9579 107.41C96.0326 107.364 96.1157 107.334 96.2023 107.32C96.2889 107.307 96.3774 107.311 96.4625 107.332C96.5475 107.353 96.6276 107.391 96.6979 107.443C96.7682 107.495 96.8274 107.561 96.872 107.636C96.9166 107.712 96.9457 107.795 96.9577 107.882C96.9696 107.969 96.9642 108.057 96.9416 108.142C96.9191 108.226 96.8799 108.306 96.8264 108.375H96.8293Z" fill="#3E6BAB"/>
<path d="M90.1492 103.206L87.2429 107.262C87.1128 107.443 86.9164 107.565 86.6965 107.602C86.4767 107.638 86.2513 107.586 86.0698 107.457L84.8287 106.57C84.6481 106.44 84.5263 106.244 84.4899 106.024C84.4535 105.805 84.5053 105.58 84.6342 105.398L87.5405 101.342C87.6708 101.162 87.8673 101.04 88.087 101.004C88.3067 100.967 88.5319 101.019 88.7135 101.148L89.9547 102.034C90.1355 102.165 90.2574 102.361 90.2939 102.58C90.3303 102.8 90.2783 103.025 90.1492 103.206Z" fill="#63ACC2"/>
<path d="M91.4591 95.3728L88.5616 99.4139C88.2924 99.7894 88.379 100.312 88.7549 100.581L89.9919 101.465C90.3678 101.734 90.8908 101.647 91.16 101.272L94.0575 97.2309C94.3267 96.8555 94.2401 96.3332 93.8642 96.0643L92.6273 95.1798C92.2513 94.9109 91.7283 94.9974 91.4591 95.3728Z" fill="#63ACC2"/>
<path d="M98.7283 91.2294L95.822 95.2859C95.6919 95.4667 95.4955 95.5887 95.2756 95.6251C95.0558 95.6615 94.8304 95.6094 94.6489 95.4802L93.4078 94.5933C93.2272 94.4632 93.1054 94.267 93.069 94.0476C93.0326 93.8282 93.0844 93.6033 93.2133 93.4218L96.1196 89.3653C96.2499 89.185 96.4464 89.0634 96.6661 89.027C96.8858 88.9906 97.111 89.0424 97.2926 89.1711L98.5338 90.0638C98.7131 90.1935 98.8341 90.3886 98.8705 90.6067C98.9069 90.8249 98.8558 91.0486 98.7283 91.2294Z" fill="#63ACC2"/>
<path d="M87.3821 120.259C87.3821 120.259 92.1102 119.875 92.2376 120.515C92.3651 121.155 91.2319 123.783 89.806 123.721C88.38 123.658 86.5874 122.361 86.5874 122.361L87.3821 120.259Z" fill="#F09959"/>
<path d="M68.767 94.3255C66.0494 95.0054 65.7838 99.4204 67.3236 105.474C68.8633 111.528 77.2351 117.967 81.7891 120.142C83.9737 121.185 87.4306 122.862 87.4306 122.862L88.6815 120.142C88.6815 120.142 78.3293 113.033 76.0961 109.061C73.8628 105.089 71.4613 93.6513 68.767 94.3255Z" fill="#F37168"/>
<path d="M108.053 96.8216C106.227 96.7478 105.243 99.7756 105.64 100.255C106.037 100.735 108.266 98.8392 108.604 98.2156C108.941 97.5919 109.491 96.8799 108.053 96.8216Z" fill="#F09959"/>
<path d="M78.912 86.2686C79.6464 88.6621 78.6299 91.1605 77.276 91.5141C75.6166 91.9444 73.7131 90.4815 72.9778 88.0871C72.2424 85.6926 72.9778 83.3447 74.6138 82.8416C76.2498 82.3384 78.1767 83.8742 78.912 86.2686Z" fill="#F09959"/>
<path d="M75.7915 81.013C75.7915 81.013 74.2518 78.7623 70.5469 79.6278C66.842 80.4933 66.1203 83.2307 64.0037 82.9431C61.8872 82.6556 58.5188 83.2346 57.0754 87.7117C55.6319 92.1888 60.1062 94.4142 60.1062 94.4142C60.1062 94.4142 59.5294 93.7576 60.4438 92.3335C61.3581 90.9095 65.0153 90.7307 66.842 91.1679C68.6686 91.605 69.1034 91.7896 71.4563 91.1679C73.8092 90.5462 74.8286 87.1852 74.8286 87.1852C74.8286 87.1852 75.6806 87.0715 76.4685 86.9579C76.4374 86.4207 76.6572 85.6368 76.6572 85.6368L77.1571 86.8549C77.303 86.8326 77.4334 86.8112 77.5345 86.7937C77.7294 86.7584 77.921 86.7071 78.1074 86.6402L77.1892 83.6639C77.1892 83.6639 78.1035 85.0132 78.4868 86.4809C79.0658 86.2009 79.5884 85.8169 80.0285 85.3483C80.0285 85.3483 79.0626 80.1582 75.7915 81.013Z" fill="#303C60"/>
</g>
<defs>
<clipPath id="clip0_687_1463">
<rect width="368" height="140" fill="white" transform="translate(21 30)"/>
</clipPath>
</defs>
</svg>
