<svg xmlns="http://www.w3.org/2000/svg" viewBox="0 0 100 100" fill="#757d9e" xmlns:v="https://vecta.io/nano"><path d="M11.2 48V10.1h22c2.5 0 4.7.4 6.5 1.3s3.2 2 4.1 3.7 1.4 3.4 1.4 5.7c0 1.8-.5 3.3-1.4 4.8s-2.4 2.8-4.5 3.7v-3.2c1.9.8 3.3 1.7 4.5 2.7 1.1 1 1.9 2.2 2.3 3.6.4 1.3.6 2.7.6 4.1 0 3.7-1.1 6.5-3.6 8.5-2.4 2-5.7 3.1-9.9 3.1h-22V48zM18 24.8h15.5c1.4 0 2.5-.4 3.4-1.3s1.3-1.9 1.3-3.2-.4-2.4-1.3-3.2S35 16 33.6 16H18v8.8zm0 17h15.8c1.8 0 3.2-.5 4.3-1.5 1-1 1.7-2.3 1.7-3.9 0-1.7-.5-3.1-1.7-4.1-1-1-2.5-1.5-4.3-1.5H18v11zM29.6 90c-2.7 0-5.1-.5-7.3-1.4-2.3-.9-4.2-2.3-5.9-3.9-1.7-1.7-2.9-3.7-3.9-6a20.42 20.42 0 0 1-1.4-7.5 20.42 20.42 0 0 1 1.4-7.5c.9-2.3 2.2-4.3 3.8-6 1.7-1.7 3.6-3.1 5.9-3.9 2.3-.9 4.7-1.4 7.3-1.4 2.7 0 5 .4 7.1 1.3 2 .9 3.8 2 5.4 3.6 1.4 1.4 2.4 3.1 3.1 4.8l-6 2.8c-.6-1.9-1.9-3.4-3.4-4.6-1.5-1.1-3.7-1.8-6-1.8s-4.3.5-6.1 1.7-3.2 2.5-4.1 4.5c-1 1.9-1.4 4.2-1.4 6.8 0 2.5.5 4.8 1.5 6.8a11.38 11.38 0 0 0 4.2 4.5c1.8 1.1 3.8 1.7 6.1 1.7a12.74 12.74 0 0 0 5.2-1.1c1.5-.8 2.8-1.8 3.8-3.2.9-1.4 1.4-2.9 1.4-4.8v-2.8l3.1 2.7H29.5v-5.7h17.3v3.7c0 2.8-.5 5.4-1.4 7.5-.9 2.2-2.3 3.9-3.8 5.5-1.7 1.5-3.4 2.5-5.5 3.3l-6.5.4zM77 50.5c-1.4-1-10.4-6.4-14-10.1-1.8-1.8-5.4-5.5-5.4-10.3V29c0-.9.1-1.8.3-2.7 0-.1 0-.3.1-.4.1-.8.4-1.4.6-2.2.6-1.5 1.4-2.8 2.5-3.9.1 0 .1-.1.1-.1 1.1-1.1 2.4-2 3.9-2.7 1.5-.6 3.2-.9 5-.9s3.4.4 5 .9c1.5.6 2.8 1.5 3.9 2.7 1.1 1.1 2 2.5 2.7 4.1.6 1.5.9 3.2.9 5.1s-.4 3.6-.9 5.1c-.6 1.5-1.5 2.9-2.7 4.1s-2.4 2-3.9 2.7c-1 .5-2 .6-3.2.8 1.8 1.4 3.8 2.9 6.4 4.6 2.2-.9 3.9-2.2 5.6-3.7 1.8-1.7 3.1-3.7 4.1-6s1.5-4.8 1.5-7.5a20.42 20.42 0 0 0-1.4-7.5c-1-2.3-2.3-4.3-4.1-6-1.8-1.8-3.8-3.1-6.1-3.9-2.3-.9-4.8-1.4-7.6-1.4-2.7 0-5.2.5-7.6 1.4-2.3.9-4.3 2.3-6.1 3.9-.4.3-.4.3-.5.3-1.7 1.7-3.1 3.6-3.9 5.9-.4 1-.8 2.2-1 3.3 0 .3-.1.4-.1.6-.5 2.2-.5 4.6 0 7 0 .3.1.6.1.8.3 1.1.6 2.3 1 3.3.6 1.7 1.5 3.2 2.7 4.6l.1.1c2.3 2.6 6.7 6.6 10 8.7 1.1.8 2.3 1.4 3.3 2 8.4 5.6 11.5 10.7 11.8 11.3v.1c.5.8.9 1.5 1.1 2.3.6 1.5.9 3.2.9 5.1 0 1.5-.3 2.8-.6 4.1-.1.4-.3.6-.4 1-.6 1.5-1.5 2.9-2.7 4.1-1.1 1.1-2.4 2-3.9 2.7-1.5.6-3.2.9-5 .9s-3.4-.4-5-.9c-1.5-.6-2.8-1.5-3.9-2.7-1.1-1.1-2-2.5-2.7-4.1-.6-1.7-.9-3.3-.9-5.1s.3-3.6.9-5.1 1.5-2.9 2.7-4.1c1.1-1.1 2.4-2 3.9-2.7 1.5-.6 3.1-.9 4.7-.9a61.9 61.9 0 0 0-6.6-4.5c-.1-.1-.4-.3-.5-.4-.1 0-.3.1-.4.1-2.3.9-4.3 2.3-6.1 3.9-1.8 1.8-3.2 3.7-4.1 6a20.42 20.42 0 0 0-1.4 7.5c0 2.7.5 5.2 1.5 7.5.9 2.3 2.3 4.3 4.1 6 1.8 1.8 3.8 3.1 6.1 3.9a20.42 20.42 0 0 0 7.5 1.4c2.8 0 5.2-.5 7.5-1.4s4.3-2.3 6.1-3.9c.8-.8 1.4-1.7 2-2.4.8-1.1 1.5-2.3 2-3.6l.1-.1c.1-.1.3-.6.4-1.1.3-.6.4-1.4.6-2.3.1-.6.3-1.3.3-1.9 1.6-5.3.3-13.9-11.3-22.3zm-6.6-15.4c-.8 0-1.4-.1-2-.4s-1.1-.6-1.7-1.1c-.5-.5-.8-1-1-1.7l1.8-.8c.3.6.6 1.1 1.3 1.5.5.4 1.1.6 1.8.6.4 0 .8 0 1-.1.3-.1.5-.3.6-.5.1-.3.3-.5.3-.8 0-.4-.1-.6-.3-.9a1.62 1.62 0 0 0-.9-.5l-2.3-.7c-.9-.3-1.7-.8-2-1.3-.5-.5-.6-1.3-.6-2 0-.6.1-1.3.5-1.8s.8-.9 1.4-1.1c.6-.3 1.3-.4 2-.4s1.4.1 1.9.4c.6.3 1.1.6 1.5 1s.8.9.9 1.5l-1.8.8a5.02 5.02 0 0 0-1-1.4c-.5-.4-1-.5-1.7-.5-.4 0-.6 0-.9.1s-.5.3-.6.5c-.1.3-.3.5-.3.8 0 .4.1.6.3.9.3.3.5.4 1 .6l2.2.6c.9.3 1.7.8 2 1.3.5.5.8 1.1.8 2 0 .6-.1 1.3-.5 1.8s-.8.9-1.4 1.3c-.8.2-1.5.3-2.3.3zm-.8 1.4V21.6H71v14.9h-1.4zm.8 40.6c-.8 0-1.4-.1-2-.4s-1.1-.6-1.7-1.1c-.5-.5-.8-1-1-1.7l1.8-.8c.3.6.6 1.1 1.3 1.5.5.4 1.1.6 1.8.6.4 0 .8 0 1-.1.3-.1.5-.3.6-.5.1-.3.3-.5.3-.8 0-.4-.1-.6-.3-.9a1.62 1.62 0 0 0-.9-.5l-2.3-.6c-.9-.3-1.7-.8-2-1.3-.5-.5-.6-1.3-.6-2 0-.6.1-1.3.5-1.8s.8-.9 1.4-1.1 1.3-.4 2-.4 1.4.1 1.9.4c.6.3 1.1.6 1.5 1s.8.9.9 1.5l-1.8.8a5.02 5.02 0 0 0-1-1.4c-.4-.4-1-.5-1.7-.5-.4 0-.6 0-.9.1s-.5.3-.6.5c-.1.3-.3.5-.3.8 0 .4.1.6.3.9.1.3.5.4 1 .6l2.2.6c.9.3 1.7.8 2 1.3.5.5.8 1.1.8 2 0 .6-.1 1.3-.5 1.8s-.8.9-1.4 1.3l-2.3.2zm-.8 1.4V63.6H71v14.9h-1.4z"/></svg>