<svg width="17" height="18" viewBox="0 0 17 18" fill="none" xmlns="http://www.w3.org/2000/svg">
<g clip-path="url(#clip0_1_6211)">
<path d="M16.2273 16.3788H12.9844C13.269 15.6317 13.3375 14.8135 13.1813 14.0259C13.0251 13.2384 12.6512 12.5163 12.1061 11.9496L9.29848 8.99865L12.1061 6.04765C12.6858 5.44049 13.0672 4.65679 13.1956 3.80878C13.2105 3.7497 13.2191 3.6891 13.2214 3.62805C13.2963 2.94618 13.2078 2.2555 12.9638 1.61846H16.2273C16.4322 1.61846 16.6288 1.5332 16.7737 1.38144C16.9186 1.22968 17 1.02385 17 0.809231C17 0.59461 16.9186 0.388779 16.7737 0.237019C16.6288 0.0852584 16.4322 0 16.2273 0H0.772727C0.567787 0 0.371241 0.0852584 0.226326 0.237019C0.081412 0.388779 0 0.59461 0 0.809231C0 1.02385 0.081412 1.22968 0.226326 1.38144C0.371241 1.5332 0.567787 1.61846 0.772727 1.61846H4.01818C3.73394 2.36543 3.66541 3.18336 3.82109 3.97075C3.97678 4.75814 4.34983 5.48032 4.89394 6.04765L7.70152 8.99865L4.89394 11.9496C4.31423 12.5568 3.93284 13.3405 3.80439 14.1885C3.78953 14.2476 3.78089 14.3082 3.77864 14.3692C3.7037 15.0511 3.79222 15.7418 4.03621 16.3788H0.772727C0.567787 16.3788 0.371241 16.4641 0.226326 16.6159C0.081412 16.7676 0 16.9734 0 17.1881C0 17.4027 0.081412 17.6085 0.226326 17.7603C0.371241 17.912 0.567787 17.9973 0.772727 17.9973H16.2273C16.4322 17.9973 16.6288 17.912 16.7737 17.7603C16.9186 17.6085 17 17.4027 17 17.1881C17 16.9734 16.9186 16.7676 16.7737 16.6159C16.6288 16.4641 16.4322 16.3788 16.2273 16.3788ZM8.5 7.54473L6.85924 5.82646C6.9803 5.31395 7.25848 4.56406 7.77364 4.27544C8.17545 4.04885 8.73954 4.11899 9.44273 4.48584C9.92244 4.74753 10.4486 4.90273 10.9882 4.9417L8.5 7.54473ZM8.5 10.4526L10.1408 12.1708C10.0197 12.6753 9.74409 13.4278 9.22894 13.7192C8.82712 13.9484 8.26303 13.8783 7.55727 13.5115C7.07756 13.2498 6.55143 13.0946 6.01182 13.0556L8.5 10.4526ZM11.2226 1.61846C11.5535 2.06828 11.7272 2.62336 11.7145 3.19107C11.457 3.32864 10.9418 3.46081 10.1305 3.03731C8.94818 2.4223 7.905 2.36026 7.03955 2.85389C6.42095 3.22853 5.93821 3.80711 5.66667 4.49933C5.39818 4.06617 5.26465 3.55644 5.28449 3.04044C5.30433 2.52445 5.47656 2.02761 5.77742 1.61846H11.2226ZM5.77742 16.3788C5.44645 15.929 5.2728 15.3739 5.28545 14.8062C5.54303 14.6687 6.05818 14.5365 6.86954 14.96C7.4348 15.277 8.06256 15.4524 8.70348 15.4725C9.14407 15.477 9.57846 15.3637 9.96561 15.1434C10.5818 14.7672 11.0625 14.1889 11.3333 13.498C11.6033 13.9306 11.7377 14.4406 11.7178 14.957C11.698 15.4733 11.5249 15.9704 11.2226 16.3788H5.77742Z" fill="white"/>
</g>
<defs>
<clipPath id="clip0_1_6211">
<rect width="17" height="18" fill="white"/>
</clipPath>
</defs>
</svg>
