<svg width="19" height="19" viewBox="0 0 19 19" fill="none" xmlns="http://www.w3.org/2000/svg">
<path d="M18.7265 6.73116C18.5982 6.55904 18.432 6.41757 18.2396 6.32325C18.0472 6.22658 17.8334 6.17706 17.6173 6.17706H16.09C15.9783 5.0335 15.4415 3.97481 14.5841 3.20379C13.7266 2.43276 12.6126 2.00599 11.4559 2.00599C10.2991 2.00599 9.18511 2.43276 8.32764 3.20379C7.47018 3.97481 6.93574 5.03585 6.82173 6.17706H4.79801L3.89067 1.89988C3.82416 1.591 3.65552 1.31513 3.40849 1.11707C3.16146 0.919009 2.85506 0.810547 2.53677 0.810547H0.460799C0.337286 0.810547 0.220899 0.857704 0.135389 0.944946C0.0498803 1.03219 0 1.14536 0 1.26562C0 1.38823 0.047505 1.50376 0.135389 1.58864C0.223274 1.67353 0.339661 1.72304 0.460799 1.72304H2.53677C2.64366 1.72069 2.75054 1.75605 2.83368 1.82207C2.91681 1.88809 2.97619 1.98241 2.99757 2.08616L3.86454 6.17235L3.9358 6.51424L3.98093 6.72409L5.40845 13.5195C5.44883 13.6987 5.52722 13.8684 5.6341 14.017C5.74337 14.1655 5.87875 14.2929 6.0379 14.3895C5.817 14.7196 5.73386 15.1205 5.8075 15.5095C5.874 15.8585 6.06165 16.1721 6.33718 16.3984C6.61271 16.6248 6.9595 16.7474 7.31578 16.7498C7.22077 16.9761 7.18277 17.2213 7.20652 17.4666C7.23027 17.7094 7.31341 17.9452 7.45117 18.148C7.58894 18.3508 7.77421 18.5182 7.99036 18.6337C8.20888 18.7492 8.45115 18.8105 8.69818 18.8105C8.94521 18.8105 9.18748 18.7492 9.40601 18.6337C9.62453 18.5182 9.8098 18.3508 9.94519 18.148C10.083 17.9452 10.1661 17.7094 10.1898 17.4666C10.2136 17.2237 10.1756 16.9761 10.0806 16.7498H13.5413C13.4629 16.9313 13.4226 17.1247 13.4226 17.3227C13.4226 17.6175 13.5104 17.9051 13.6743 18.1503C13.8382 18.3956 14.0734 18.5865 14.3465 18.6974C14.6197 18.8105 14.9213 18.8388 15.2135 18.7823C15.5057 18.7257 15.7717 18.5842 15.9807 18.3743C16.1897 18.1668 16.3322 17.9004 16.3916 17.6127C16.4486 17.3251 16.4201 17.0256 16.3061 16.7521C16.1921 16.481 15.9997 16.2475 15.7551 16.0848C15.508 15.9222 15.2183 15.8349 14.9213 15.8349H7.31578C7.15189 15.8349 6.99512 15.7712 6.87874 15.6557C6.76235 15.5402 6.69822 15.3846 6.69822 15.2219C6.69822 15.0592 6.76235 14.9036 6.87874 14.788C6.99512 14.6725 7.15189 14.6088 7.31578 14.6088H15.9C16.1969 14.6088 16.4866 14.5145 16.7265 14.3377C16.9664 14.1608 17.1398 13.9132 17.2253 13.6303L18.9427 7.9384C19.0044 7.73562 19.0163 7.51869 18.9783 7.30884C18.9403 7.09899 18.8571 6.90093 18.7265 6.73116ZM9.27062 17.3322C9.27062 17.4453 9.23736 17.5562 9.17323 17.6505C9.1091 17.7448 9.01884 17.8179 8.91433 17.8603C8.80982 17.9028 8.69343 17.9146 8.58179 17.8933C8.47016 17.8721 8.36802 17.8155 8.28726 17.7377C8.2065 17.6599 8.15187 17.5562 8.1305 17.4453C8.10912 17.3345 8.11862 17.219 8.16375 17.1152C8.2065 17.0115 8.28014 16.9219 8.37515 16.8582C8.47016 16.7946 8.58179 16.7616 8.69581 16.7616C8.77181 16.7592 8.84782 16.7733 8.91908 16.8016C8.99034 16.8299 9.05447 16.8724 9.1091 16.9242C9.16373 16.9785 9.20649 17.0421 9.23736 17.1105C9.26824 17.1813 9.28249 17.2567 9.28249 17.3322H9.27062ZM15.4985 17.3322C15.4985 17.4453 15.4653 17.5562 15.4011 17.6505C15.337 17.7448 15.2468 17.8179 15.1422 17.8603C15.0377 17.9028 14.9213 17.9146 14.8097 17.8933C14.6981 17.8721 14.5959 17.8155 14.5152 17.7377C14.4344 17.6575 14.3798 17.5562 14.3584 17.4453C14.337 17.3345 14.3465 17.219 14.3917 17.1152C14.4344 17.0115 14.5104 16.9219 14.6031 16.8582C14.6981 16.7946 14.8097 16.7616 14.9237 16.7616C15.0757 16.7616 15.223 16.8229 15.3323 16.929C15.4368 17.0351 15.4985 17.1789 15.4985 17.3322ZM11.4582 2.92792C12.1969 2.92792 12.919 3.14484 13.5318 3.55275C14.147 3.96066 14.6244 4.53834 14.9071 5.21741C15.1898 5.89412 15.2634 6.63921 15.1185 7.35836C14.9736 8.07751 14.6197 8.73771 14.0971 9.25645C13.5746 9.77518 12.9095 10.1289 12.1851 10.2703C11.4606 10.4142 10.71 10.3411 10.0283 10.0605C9.34663 9.77989 8.76231 9.3036 8.35139 8.69527C7.94048 8.08458 7.72195 7.36779 7.72195 6.63685C7.72433 5.65362 8.11624 4.71283 8.81694 4.01725C9.52002 3.31932 10.4701 2.92792 11.4582 2.92792ZM18.0614 7.68139L16.3418 13.3733C16.3156 13.47 16.2562 13.5548 16.1779 13.6138C16.0995 13.6727 15.9997 13.7081 15.9 13.7081H6.76472C6.65784 13.7105 6.55095 13.6751 6.46782 13.6091C6.38468 13.5431 6.3253 13.4487 6.30393 13.345L4.99041 7.09428H6.83598C6.94762 8.23784 7.48443 9.29653 8.34189 10.0676C9.19936 10.8386 10.3134 11.2654 11.4701 11.2654C12.6269 11.2654 13.7408 10.8386 14.5983 10.0676C15.4558 9.29653 15.9902 8.23549 16.1042 7.09428H17.622C17.6933 7.09428 17.7645 7.11078 17.8287 7.14379C17.8928 7.1768 17.9474 7.2216 17.9902 7.28055C18.0329 7.33714 18.0614 7.40316 18.0733 7.47389C18.0852 7.53991 18.0804 7.61301 18.0614 7.68139Z" fill="white"/>
<path d="M10.7955 8.28406C10.5699 8.28406 10.3466 8.19918 10.1756 8.02941L9.0806 6.94243C8.89533 6.75852 8.89533 6.45907 9.0806 6.27516C9.26587 6.09124 9.56753 6.09124 9.7528 6.27516L10.7955 7.31026L13.1708 4.95239C13.3561 4.76847 13.6577 4.76847 13.843 4.95239C14.0283 5.1363 14.0283 5.43575 13.843 5.61967L11.4155 8.02941C11.2445 8.19918 11.0212 8.28406 10.7955 8.28406Z" fill="white"/>
</svg>
