<svg width="19" height="18" viewBox="0 0 19 18" fill="none" xmlns="http://www.w3.org/2000/svg">
<g clip-path="url(#clip0_1_6222)">
<path d="M16.8625 0H2.1375C1.5706 0 1.02692 0.220629 0.626059 0.61335C0.2252 1.00607 0 1.53871 0 2.09411V12.332C0 12.8873 0.2252 13.42 0.626059 13.8127C1.02692 14.2054 1.5706 14.4261 2.1375 14.4261H6.70225L5.95413 16.4457C5.88883 16.6215 5.86775 16.8101 5.89269 16.9955C5.91763 17.181 5.98785 17.3578 6.09738 17.511C6.20692 17.6642 6.35256 17.7893 6.52193 17.8757C6.69131 17.962 6.87944 18.007 7.07038 18.007H11.9296C12.1206 18.007 12.3087 17.962 12.4781 17.8757C12.6474 17.7893 12.7931 17.6642 12.9026 17.511C13.0122 17.3578 13.0824 17.181 13.1073 16.9955C13.1322 16.8101 13.1112 16.6215 13.0459 16.4457L12.2978 14.433H16.8625C17.4294 14.433 17.9731 14.2124 18.3739 13.8197C18.7748 13.427 19 12.8943 19 12.3389V2.10109C19.0009 1.8255 18.9463 1.55244 18.8393 1.29756C18.7323 1.04269 18.575 0.811011 18.3765 0.615815C18.1779 0.42062 17.9419 0.265744 17.6821 0.16007C17.4223 0.0543947 17.1438 -1.53103e-06 16.8625 0ZM11.59 16.6039H7.41L8.2175 14.4261H10.7825L11.59 16.6039ZM17.575 12.332C17.575 12.5171 17.4999 12.6946 17.3663 12.8255C17.2327 12.9564 17.0515 13.03 16.8625 13.03H2.1375C1.94853 13.03 1.76731 12.9564 1.63369 12.8255C1.50007 12.6946 1.425 12.5171 1.425 12.332V2.09411C1.425 1.90898 1.50007 1.73143 1.63369 1.60052C1.76731 1.46961 1.94853 1.39607 2.1375 1.39607H16.8625C17.0515 1.39607 17.2327 1.46961 17.3663 1.60052C17.4999 1.73143 17.575 1.90898 17.575 2.09411V12.332Z" fill="#757D9E"/>
<path d="M11.5947 3.61068C11.5129 3.56573 11.4228 3.53705 11.3297 3.52629C11.2365 3.51552 11.1421 3.52289 11.0518 3.54797C10.9616 3.57305 10.8773 3.61534 10.8037 3.67242C10.7302 3.7295 10.6689 3.80024 10.6234 3.88059L7.13924 9.86275C7.0458 10.0235 7.02132 10.2141 7.0712 10.3925C7.12108 10.571 7.24122 10.7227 7.40524 10.8144C7.51243 10.8739 7.63354 10.9052 7.75674 10.9052C7.88252 10.9054 8.00613 10.873 8.11501 10.8113C8.22388 10.7496 8.31414 10.6608 8.37662 10.5538L11.8607 4.56466C11.9074 4.48496 11.9375 4.39701 11.9494 4.30587C11.9612 4.21473 11.9546 4.1222 11.9299 4.03357C11.9052 3.94494 11.8629 3.86196 11.8054 3.78939C11.7478 3.71682 11.6763 3.65609 11.5947 3.61068Z" fill="#757D9E"/>
<path d="M8.7209 5.38096C8.7209 5.0128 8.60947 4.65292 8.40069 4.34681C8.19192 4.0407 7.89518 3.80211 7.548 3.66122C7.20082 3.52034 6.81879 3.48348 6.45023 3.5553C6.08166 3.62712 5.74312 3.80441 5.4774 4.06473C5.21168 4.32506 5.03072 4.65673 4.95741 5.01781C4.8841 5.37889 4.92172 5.75317 5.06553 6.0933C5.20933 6.43343 5.45286 6.72414 5.76532 6.92868C6.07777 7.13322 6.44512 7.24239 6.8209 7.24239C7.32481 7.24239 7.80808 7.04627 8.1644 6.69719C8.52072 6.3481 8.7209 5.87464 8.7209 5.38096ZM6.8209 5.84632C6.72695 5.84632 6.63512 5.81902 6.557 5.76789C6.47889 5.71675 6.41801 5.64408 6.38206 5.55904C6.3461 5.47401 6.3367 5.38044 6.35503 5.29017C6.37335 5.1999 6.41859 5.11698 6.48502 5.0519C6.55145 4.98682 6.63609 4.9425 6.72823 4.92454C6.82037 4.90659 6.91588 4.9158 7.00267 4.95103C7.08947 4.98625 7.16365 5.04589 7.21585 5.12242C7.26804 5.19895 7.2959 5.28892 7.2959 5.38096C7.2959 5.50438 7.24585 5.62274 7.15677 5.71002C7.06769 5.79729 6.94688 5.84632 6.8209 5.84632Z" fill="#757D9E"/>
<path d="M12.1788 7.18359C11.803 7.18359 11.4357 7.29276 11.1232 7.4973C10.8108 7.70184 10.5672 7.99255 10.4234 8.33268C10.2796 8.67282 10.242 9.04709 10.3153 9.40817C10.3886 9.76925 10.5696 10.1009 10.8353 10.3612C11.101 10.6216 11.4396 10.7989 11.8081 10.8707C12.1767 10.9425 12.5587 10.9056 12.9059 10.7648C13.2531 10.6239 13.5498 10.3853 13.7586 10.0792C13.9674 9.77306 14.0788 9.41318 14.0788 9.04502C14.0788 8.55134 13.8786 8.07788 13.5223 7.72879C13.166 7.37971 12.6827 7.18359 12.1788 7.18359ZM12.1788 9.51038C12.0849 9.51038 11.993 9.48309 11.9149 9.43195C11.8368 9.38082 11.7759 9.30814 11.74 9.22311C11.704 9.13807 11.6946 9.04451 11.7129 8.95423C11.7313 8.86396 11.7765 8.78105 11.8429 8.71596C11.9094 8.65088 11.994 8.60656 12.0861 8.58861C12.1783 8.57065 12.2738 8.57987 12.3606 8.61509C12.4474 8.65031 12.5216 8.70996 12.5738 8.78648C12.626 8.86301 12.6538 8.95298 12.6538 9.04502C12.6538 9.16844 12.6038 9.28681 12.5147 9.37408C12.4256 9.46135 12.3048 9.51038 12.1788 9.51038Z" fill="#757D9E"/>
</g>
<defs>
<clipPath id="clip0_1_6222">
<rect width="19" height="18" fill="white"/>
</clipPath>
</defs>
</svg>
