<svg width="18" height="16" viewBox="0 0 18 16" fill="none" xmlns="http://www.w3.org/2000/svg">
<g clip-path="url(#clip0_1959_132)">
<path d="M11.944 6.1343C12.2521 6.13569 12.5537 6.04558 12.8106 5.8754C13.0674 5.70522 13.268 5.46263 13.3869 5.17835C13.5057 4.89408 13.5376 4.58092 13.4783 4.27855C13.419 3.97617 13.2714 3.69819 13.054 3.47982C12.8366 3.26146 12.5593 3.11253 12.2572 3.05191C11.9551 2.99128 11.6418 3.0217 11.357 3.13929C11.0722 3.25688 10.8287 3.45637 10.6573 3.71247C10.486 3.96857 10.3945 4.26976 10.3945 4.57789C10.3951 4.98928 10.5584 5.38375 10.8486 5.67531C11.1388 5.96686 11.5326 6.13185 11.944 6.1343ZM11.944 4.16377C12.0259 4.16377 12.1059 4.18806 12.174 4.23356C12.2421 4.27907 12.2952 4.34374 12.3266 4.41941C12.3579 4.49508 12.3661 4.57835 12.3501 4.65868C12.3341 4.73901 12.2947 4.81279 12.2368 4.87071C12.1789 4.92862 12.1051 4.96806 12.0248 4.98404C11.9444 5.00002 11.8612 4.99182 11.7855 4.96048C11.7098 4.92913 11.6451 4.87606 11.5996 4.80796C11.5541 4.73986 11.5299 4.65979 11.5299 4.57789C11.5299 4.5235 11.5406 4.46966 11.5614 4.41941C11.5822 4.36917 11.6127 4.32352 11.6511 4.28506C11.6896 4.24661 11.7353 4.21611 11.7855 4.1953C11.8357 4.17448 11.8896 4.16377 11.944 4.16377Z" fill="#757D9E"/>
<path d="M9.31047 8.60158C9.00234 8.6002 8.70074 8.6903 8.44388 8.86048C8.18701 9.03066 7.98643 9.27325 7.86756 9.55753C7.74869 9.8418 7.71687 10.155 7.77613 10.4573C7.8354 10.7597 7.98308 11.0377 8.20046 11.2561C8.41785 11.4744 8.69517 11.6234 8.99727 11.684C9.29937 11.7446 9.61267 11.7142 9.89748 11.5966C10.1823 11.479 10.4258 11.2795 10.5971 11.0234C10.7684 10.7673 10.8599 10.4661 10.8599 10.158C10.8593 9.7466 10.6961 9.35213 10.4058 9.06058C10.1156 8.76902 9.72185 8.60403 9.31047 8.60158ZM9.31047 10.5721C9.22856 10.5721 9.1485 10.5478 9.0804 10.5023C9.0123 10.4568 8.95922 10.3921 8.92788 10.3165C8.89653 10.2408 8.88833 10.1575 8.90431 10.0772C8.92029 9.99688 8.95973 9.92309 9.01764 9.86517C9.07556 9.80726 9.14935 9.76782 9.22968 9.75184C9.31001 9.73586 9.39327 9.74406 9.46894 9.7754C9.54461 9.80675 9.60929 9.85983 9.65479 9.92793C9.70029 9.99603 9.72458 10.0761 9.72458 10.158C9.72458 10.2678 9.68095 10.3732 9.60329 10.4508C9.52563 10.5285 9.4203 10.5721 9.31047 10.5721Z" fill="#757D9E"/>
<path d="M14.5684 6.79883H6.68864C6.53747 6.79883 6.39249 6.85888 6.2856 6.96577C6.1787 7.07267 6.11865 7.21765 6.11865 7.36882C6.11865 7.51999 6.1787 7.66497 6.2856 7.77186C6.39249 7.87875 6.53747 7.9388 6.68864 7.9388H14.5684C14.7196 7.9388 14.8646 7.87875 14.9715 7.77186C15.0784 7.66497 15.1384 7.51999 15.1384 7.36882C15.1384 7.21765 15.0784 7.07267 14.9715 6.96577C14.8646 6.85888 14.7196 6.79883 14.5684 6.79883Z" fill="#757D9E"/>
<path d="M17.993 6.90701L17.6068 2.0749C17.5731 1.64208 17.3858 1.23559 17.0786 0.928829C16.7714 0.622069 16.3646 0.435267 15.9318 0.402158L11.0927 0.00432961C10.8281 -0.0176993 10.562 0.0183613 10.3128 0.109987C10.0637 0.201613 9.83753 0.34659 9.65028 0.534768L9.20126 0.979126L7.08416 0.80464C6.81935 0.783684 6.55313 0.820237 6.30376 0.911793C6.05439 1.00335 5.82776 1.14774 5.63942 1.33508L1.13069 5.8438C0.406575 6.57068 0 7.55489 0 8.58091C0 9.60693 0.406575 10.5911 1.13069 11.318L4.91821 15.1032C5.26188 15.446 5.72748 15.6385 6.2129 15.6385C6.69831 15.6385 7.16391 15.446 7.50758 15.1032L7.81468 14.7984L8.12178 15.1055C8.46545 15.4483 8.93105 15.6409 9.41646 15.6409C9.90188 15.6409 10.3675 15.4483 10.7112 15.1055L17.458 8.35873C17.6481 8.17076 17.7946 7.94329 17.8871 7.69241C17.9795 7.44154 18.0157 7.17341 17.993 6.90701ZM6.51883 14.1191C6.47861 14.1596 6.43076 14.1918 6.37806 14.2137C6.32535 14.2357 6.26883 14.247 6.21173 14.247C6.15464 14.247 6.09811 14.2357 6.04541 14.2137C5.9927 14.1918 5.94486 14.1596 5.90464 14.1191L2.11712 10.3293C1.65682 9.86519 1.39853 9.23804 1.39853 8.5844C1.39853 7.93076 1.65682 7.3036 2.11712 6.83954L6.62817 2.32383C6.67241 2.27887 6.72594 2.24412 6.78501 2.22202C6.84409 2.19991 6.90728 2.19099 6.97017 2.19588L7.90076 2.27265L2.89184 7.28622C2.5496 7.63019 2.35747 8.09568 2.35747 8.58091C2.35747 9.06614 2.5496 9.53163 2.89184 9.8756L6.82592 13.8097L6.51883 14.1191ZM9.7224 14.1191C9.68217 14.1596 9.63433 14.1918 9.58163 14.2137C9.52892 14.2357 9.47239 14.247 9.4153 14.247C9.35821 14.247 9.30168 14.2357 9.24898 14.2137C9.19627 14.1918 9.14843 14.1596 9.1082 14.1191L3.8806 8.88917C3.80267 8.80776 3.75917 8.69942 3.75917 8.58673C3.75917 8.47403 3.80267 8.36569 3.8806 8.28428L10.6274 1.53748C10.672 1.49319 10.7257 1.45904 10.7847 1.43736C10.8437 1.41568 10.9067 1.40698 10.9694 1.41185L15.8061 1.7934C15.9104 1.79932 16.0089 1.84294 16.0834 1.91613C16.1579 1.98932 16.2032 2.08709 16.211 2.19122L16.6088 7.021C16.6132 7.084 16.6043 7.14723 16.5827 7.20656C16.5611 7.2659 16.5271 7.31999 16.4832 7.36532L9.7224 14.1191Z" fill="#757D9E"/>
</g>
<defs>
<clipPath id="clip0_1959_132">
<rect width="18" height="15.6409" fill="white"/>
</clipPath>
</defs>
</svg>
