<svg width="20" height="13" viewBox="0 0 20 13" fill="none" xmlns="http://www.w3.org/2000/svg">
<g clip-path="url(#clip0_0_4)">
<path d="M18.3224 3.94247L16.9024 1.83999C16.5218 1.2732 16.0076 0.808844 15.405 0.487939C14.8024 0.167034 14.1301 -0.000545941 13.4474 1.33616e-06H3.47748C3.08539 0.000663642 2.70959 0.156883 2.43258 0.434363C2.15557 0.711843 1.99999 1.08791 1.99999 1.47999V2.02749H1.22749C1.02858 2.02749 0.837816 2.1065 0.697165 2.24716C0.556514 2.38781 0.477497 2.57857 0.477497 2.77748C0.477497 2.97639 0.556514 3.16716 0.697165 3.30781C0.837816 3.44846 1.02858 3.52748 1.22749 3.52748H1.99999V4.42247H0.749995C0.551084 4.42247 0.36032 4.50149 0.219668 4.64214C0.0790171 4.78279 0 4.97356 0 5.17247C0 5.37138 0.0790171 5.56214 0.219668 5.70279C0.36032 5.84344 0.551084 5.92246 0.749995 5.92246H1.99999V7.31745H0.749995C0.551084 7.31745 0.36032 7.39647 0.219668 7.53712C0.0790171 7.67777 0 7.86854 0 8.06745C0 8.26636 0.0790171 8.45712 0.219668 8.59777C0.36032 8.73842 0.551084 8.81744 0.749995 8.81744H1.99999V9.74993C1.99734 9.94576 2.03358 10.1402 2.10662 10.3219C2.17965 10.5036 2.28802 10.669 2.42545 10.8085C2.56288 10.948 2.72663 11.0589 2.90722 11.1347C3.08781 11.2104 3.28164 11.2496 3.47748 11.2499H4.11247C4.27081 11.7748 4.59396 12.2348 5.03408 12.5618C5.47421 12.8887 6.00792 13.0653 6.55621 13.0653C7.10449 13.0653 7.6382 12.8887 8.07833 12.5618C8.51845 12.2348 8.8416 11.7748 8.99994 11.2499H12.9749C13.1352 11.7719 13.4588 12.2288 13.8979 12.5533C14.3371 12.8778 14.8688 13.053 15.4149 13.053C15.961 13.053 16.4927 12.8778 16.9318 12.5533C17.371 12.2288 17.6945 11.7719 17.8549 11.2499H18.5299C18.7251 11.2486 18.9181 11.2087 19.0978 11.1325C19.2775 11.0563 19.4404 10.9453 19.577 10.8059C19.7137 10.6664 19.8214 10.5014 19.8939 10.3201C19.9665 10.1389 20.0025 9.94513 19.9999 9.74993V5.65996C19.9987 5.21169 19.8229 4.78152 19.5096 4.46083C19.1964 4.14013 18.7705 3.95418 18.3224 3.94247ZM14.1974 1.60749C14.7948 1.78257 15.3122 2.16109 15.6599 2.67748L16.4999 3.92747H14.1974V1.60749ZM6.55246 11.5399C6.30769 11.5374 6.07143 11.4498 5.88414 11.2922C5.69685 11.1346 5.57019 10.9168 5.52586 10.6761C5.48152 10.4354 5.52227 10.1867 5.64112 9.97272C5.75997 9.75874 5.94953 9.59274 6.17733 9.50317C6.40512 9.4136 6.65698 9.40602 6.88974 9.48174C7.12251 9.55746 7.32171 9.71175 7.45321 9.9182C7.58471 10.1247 7.64033 10.3704 7.61055 10.6134C7.58077 10.8563 7.46743 11.0814 7.28995 11.2499C7.09173 11.4397 6.82683 11.5438 6.55246 11.5399ZM15.4074 11.5399C15.1626 11.5374 14.9264 11.4498 14.7391 11.2922C14.5518 11.1346 14.4251 10.9168 14.3808 10.6761C14.3365 10.4354 14.3772 10.1867 14.4961 9.97272C14.6149 9.75874 14.8045 9.59274 15.0323 9.50317C15.2601 9.4136 15.5119 9.40602 15.7447 9.48174C15.9775 9.55746 16.1766 9.71175 16.3082 9.9182C16.4397 10.1247 16.4953 10.3704 16.4655 10.6134C16.4357 10.8563 16.3224 11.0814 16.1449 11.2499C15.9467 11.4397 15.6818 11.5438 15.4074 11.5399ZM18.4999 9.74993H17.8474C17.6856 9.22924 17.3616 8.77395 16.9226 8.45061C16.4836 8.12727 15.9526 7.95286 15.4074 7.95286C14.8622 7.95286 14.3312 8.12727 13.8922 8.45061C13.4532 8.77395 13.1291 9.22924 12.9674 9.74993H8.99994C8.8382 9.22924 8.51414 8.77395 8.07513 8.45061C7.63612 8.12727 7.10519 7.95286 6.55996 7.95286C6.01472 7.95286 5.48379 8.12727 5.04478 8.45061C4.60577 8.77395 4.28171 9.22924 4.11997 9.74993H3.49998V5.92246H6.05246C6.25137 5.92246 6.44213 5.84344 6.58279 5.70279C6.72344 5.56214 6.80245 5.37138 6.80245 5.17247C6.80245 4.97356 6.72344 4.78279 6.58279 4.64214C6.44213 4.50149 6.25137 4.42247 6.05246 4.42247H3.49998V3.52748H4.22747C4.42638 3.52748 4.61715 3.44846 4.7578 3.30781C4.89845 3.16716 4.97747 2.97639 4.97747 2.77748C4.97747 2.57857 4.89845 2.38781 4.7578 2.24716C4.61715 2.1065 4.42638 2.02749 4.22747 2.02749H3.49998V1.49999H12.6974V3.96247C12.6981 4.35456 12.8543 4.73036 13.1318 5.00737C13.4093 5.28438 13.7853 5.43997 14.1774 5.43996H18.2799C18.3382 5.43996 18.3942 5.46314 18.4354 5.5044C18.4767 5.54566 18.4999 5.60162 18.4999 5.65996V9.74993Z" fill="white"/>
</g>
<defs>
<clipPath id="clip0_0_4">
<rect width="20" height="13" fill="white"/>
</clipPath>
</defs>
</svg>
