<?xml version="1.0" encoding="utf-8"?>
<!-- Generator: Adobe Illustrator 26.0.0, SVG Export Plug-In . SVG Version: 6.00 Build 0)  -->
<svg version="1.1" id="Layer_1" xmlns="http://www.w3.org/2000/svg" xmlns:xlink="http://www.w3.org/1999/xlink" x="0px" y="0px"
	 viewBox="0 0 100 100" style="enable-background:new 0 0 100 100;" xml:space="preserve">
<style type="text/css">
	.st0{fill:#757D9E;}
</style>
<g>
	<g>
		<path class="st0" d="M50,74.4c-16.3,0-31.5-8.8-39.6-22.9L9.5,50l0.9-1.5C18.6,34.4,33.7,25.6,50,25.6c16.3,0,31.4,8.8,39.6,22.9
			l0.9,1.5l-0.9,1.5C81.5,65.6,66.3,74.4,50,74.4z M16.5,50C23.8,61.4,36.4,68.4,50,68.4c13.6,0,26.2-7,33.5-18.4
			C76.2,38.6,63.5,31.6,50,31.6C36.4,31.6,23.8,38.6,16.5,50z"/>
	</g>
	<g>
		<path class="st0" d="M50,61c-7.2,0-13-5.8-13-13c0-7.2,5.8-13,13-13c7.2,0,13,5.8,13,13C63,55.2,57.2,61,50,61z M50,41
			c-3.9,0-7,3.1-7,7c0,3.9,3.1,7,7,7c3.9,0,7-3.1,7-7C57,44.1,53.9,41,50,41z"/>
	</g>
	<g>
		<path class="st0" d="M62.2,63.4c-0.8,0-1.5-0.3-2.1-0.9l-5.2-5.2c-1.2-1.2-1.2-3.1,0-4.2c1.2-1.2,3.1-1.2,4.2,0l5.2,5.2
			c1.2,1.2,1.2,3.1,0,4.2C63.7,63.1,63,63.4,62.2,63.4z"/>
	</g>
</g>
</svg>
