<svg width="18" height="18" viewBox="0 0 18 18" fill="none" xmlns="http://www.w3.org/2000/svg">
<g clip-path="url(#clip0_1_6239)">
<path d="M11.8009 7.45452L12.2638 6.99004V6.39062L11.6289 6.93253L11.8009 7.45452Z" fill="#757D9E"/>
<path d="M10.6829 4.78125H10.0833L9.62256 5.24574L10.1428 5.42047L10.6829 4.78125Z" fill="#757D9E"/>
<path d="M10.9721 6.10313L11.1925 6.81977L12.4668 5.73597C12.6833 5.54519 12.8402 5.29558 12.9184 5.0173C12.9966 4.73902 12.9929 4.44396 12.9077 4.16777C12.6332 4.07291 12.3365 4.06445 12.0571 4.14351C11.7778 4.22257 11.5292 4.38538 11.3446 4.61014L10.2578 5.88195L10.9721 6.10313ZM12.0325 4.74948C12.0692 4.75063 12.1054 4.75903 12.139 4.77421C12.1725 4.7894 12.2027 4.81106 12.2279 4.83797C12.2531 4.86488 12.2727 4.89651 12.2857 4.93104C12.2987 4.96558 12.3048 5.00234 12.3036 5.03923C12.2999 5.11192 12.2706 5.18093 12.221 5.23398C12.1713 5.28704 12.1045 5.3207 12.0325 5.32899C11.9559 5.32899 11.8824 5.29846 11.8283 5.24412C11.7741 5.18978 11.7437 5.11608 11.7437 5.03923C11.7437 4.96239 11.7741 4.88869 11.8283 4.83435C11.8824 4.78001 11.9559 4.74948 12.0325 4.74948Z" fill="#757D9E"/>
<path d="M9.92045 6.50479C9.7 6.72598 9.76614 7.29884 9.76614 7.29884C9.76614 7.29884 10.3459 7.35635 10.5399 7.14402C10.5853 7.10416 10.6217 7.05502 10.6467 6.99989C10.6716 6.94477 10.6845 6.88494 10.6845 6.8244C10.6845 6.76387 10.6716 6.70404 10.6467 6.64891C10.6217 6.59379 10.5853 6.54465 10.5399 6.50479C10.5021 6.45927 10.4547 6.42265 10.4012 6.39753C10.3477 6.3724 10.2893 6.35938 10.2302 6.35938C10.1711 6.35938 10.1127 6.3724 10.0592 6.39753C10.0057 6.42265 9.95832 6.45927 9.92045 6.50479Z" fill="#757D9E"/>
<path d="M17.5569 5.84148C17.3704 5.61151 17.1351 5.42624 16.8681 5.29919C16.6011 5.17214 16.3092 5.10653 16.0137 5.10715H15.5728C15.4167 4.08167 14.8996 3.14623 14.1152 2.47034C13.3308 1.79446 12.3311 1.42284 11.2971 1.42284C10.2632 1.42284 9.26343 1.79446 8.47905 2.47034C7.69468 3.14623 7.17757 4.08167 7.02143 5.10715H5.09026L4.35615 1.58368C4.26337 1.1379 4.02104 0.737517 3.66961 0.449317C3.31817 0.161117 2.87887 0.00252657 2.42498 0H0.661359C0.485956 0 0.317737 0.06991 0.193708 0.194351C0.0696788 0.318791 0 0.487568 0 0.663554C0 0.839539 0.0696788 1.00832 0.193708 1.13276C0.317737 1.2572 0.485956 1.32711 0.661359 1.32711H2.42498C2.57676 1.32748 2.72379 1.38022 2.8414 1.47647C2.95902 1.57273 3.04005 1.70664 3.07091 1.85574L3.7477 5.10715L5.17183 11.8953V11.9218C5.2326 12.2018 5.35289 12.4653 5.52448 12.6944C5.69607 12.9234 5.91492 13.1126 6.16607 13.249C6.06457 13.4843 6.01482 13.7389 6.02021 13.9953C6.02559 14.2517 6.08599 14.504 6.19729 14.7349C6.30858 14.9658 6.46816 15.1699 6.66516 15.3333C6.86216 15.4968 7.09195 15.6157 7.33889 15.682C7.25656 15.9472 7.23692 16.2281 7.28152 16.5022C7.32612 16.7764 7.43373 17.0364 7.59584 17.2616C7.75794 17.4868 7.97008 17.6711 8.21546 17.7998C8.46084 17.9285 8.73271 17.9981 9.00955 18.0031C9.28639 18.0081 9.56059 17.9484 9.81043 17.8286C10.0603 17.7089 10.2789 17.5324 10.449 17.3132C10.6191 17.094 10.736 16.8381 10.7904 16.5657C10.8448 16.2933 10.8353 16.012 10.7625 15.7439H12.5658C12.525 15.8946 12.5043 16.05 12.5041 16.2062C12.5045 16.5596 12.6094 16.9049 12.8054 17.1985C13.0014 17.4921 13.2797 17.7208 13.6052 17.8557C13.9308 17.9907 14.2888 18.0258 14.6342 17.9565C14.9796 17.8873 15.2968 17.717 15.5457 17.4669C15.7946 17.2169 15.964 16.8984 16.0326 16.5518C16.1011 16.2052 16.0657 15.846 15.9308 15.5196C15.7959 15.1931 15.5676 14.9141 15.2747 14.7178C14.9819 14.5216 14.6376 14.4168 14.2854 14.4168H7.79302C7.67141 14.4168 7.55477 14.3683 7.46878 14.2821C7.38279 14.1958 7.33448 14.0788 7.33448 13.9567C7.33448 13.8347 7.38279 13.7177 7.46878 13.6314C7.55477 13.5452 7.67141 13.4967 7.79302 13.4967H15.09C15.5451 13.4963 15.9862 13.3389 16.3394 13.051C16.6926 12.7631 16.9365 12.3621 17.03 11.9152L17.9581 7.49152C18.0167 7.20382 18.0111 6.90669 17.9417 6.62142C17.8723 6.33615 17.7409 6.0698 17.5569 5.84148ZM11.2938 2.7449C11.8893 2.74446 12.4716 2.92118 12.967 3.25271C13.4624 3.58425 13.8487 4.05571 14.0771 4.6075C14.3055 5.15929 14.3657 5.76663 14.2501 6.35274C14.1345 6.93886 13.8483 7.47743 13.4277 7.90037C13.0071 8.32332 12.4709 8.61165 11.887 8.7289C11.3031 8.84616 10.6976 8.78709 10.1472 8.55915C9.59671 8.33121 9.12596 7.94465 8.79444 7.44832C8.46291 6.95199 8.2855 6.36818 8.28463 5.77071C8.28579 4.97013 8.60314 4.20264 9.16715 3.63634C9.73117 3.07004 10.4959 2.75108 11.2938 2.74932V2.7449ZM9.49051 16.2128C9.49006 16.304 9.46262 16.393 9.41167 16.4685C9.36073 16.544 9.28857 16.6026 9.20436 16.6369C9.12015 16.6712 9.02768 16.6796 8.93871 16.661C8.84973 16.6425 8.76825 16.5978 8.70462 16.5327C8.64098 16.4676 8.59806 16.385 8.5813 16.2954C8.56453 16.2058 8.57469 16.1132 8.61048 16.0294C8.64626 15.9456 8.70606 15.8743 8.78228 15.8247C8.8585 15.775 8.94771 15.7492 9.03858 15.7506C9.15942 15.7523 9.2747 15.8018 9.35933 15.8884C9.44396 15.975 9.4911 16.0916 9.49051 16.2128ZM14.7527 16.2128C14.7523 16.3037 14.725 16.3925 14.6744 16.4678C14.6237 16.5432 14.552 16.6018 14.4681 16.6363C14.3843 16.6708 14.2922 16.6796 14.2034 16.6616C14.1146 16.6436 14.0331 16.5996 13.9692 16.5352C13.9053 16.4707 13.8618 16.3887 13.8443 16.2996C13.8268 16.2104 13.836 16.118 13.8708 16.0341C13.9055 15.9501 13.9643 15.8784 14.0397 15.8279C14.115 15.7775 14.2036 15.7506 14.2942 15.7506C14.3546 15.7506 14.4144 15.7625 14.4702 15.7858C14.5259 15.809 14.5766 15.8431 14.6192 15.8861C14.6618 15.929 14.6955 15.98 14.7185 16.0361C14.7414 16.0922 14.753 16.1522 14.7527 16.2128ZM16.6641 7.23274L15.7359 11.6564C15.7046 11.8051 15.6234 11.9385 15.5058 12.0343C15.3883 12.1302 15.2415 12.1826 15.09 12.1828H7.103C6.95115 12.1831 6.80385 12.1309 6.68582 12.035C6.5678 11.9392 6.48625 11.8055 6.45487 11.6564L5.36803 6.43426H7.01923C7.17537 7.45974 7.69247 8.39518 8.47685 9.07107C9.26122 9.74695 10.261 10.1186 11.2949 10.1186C12.3289 10.1186 13.3286 9.74695 14.113 9.07107C14.8974 8.39518 15.4145 7.45974 15.5706 6.43426H16.0115C16.1112 6.43266 16.2101 6.45371 16.3005 6.49584C16.391 6.53798 16.4708 6.6001 16.534 6.67756C16.5954 6.75458 16.639 6.84438 16.6615 6.94041C16.684 7.03645 16.6849 7.13632 16.6641 7.23274Z" fill="#757D9E"/>
</g>
<defs>
<clipPath id="clip0_1_6239">
<rect width="18" height="18" fill="white"/>
</clipPath>
</defs>
</svg>
