<svg width="19" height="18" viewBox="0 0 19 18" fill="none" xmlns="http://www.w3.org/2000/svg">
<g clip-path="url(#clip0_1_6231)">
<path d="M16.8625 0H2.1375C1.5706 0 1.02692 0.220629 0.626059 0.613349C0.2252 1.00607 0 1.53871 0 2.09411V12.332C0 12.8873 0.2252 13.42 0.626059 13.8127C1.02692 14.2054 1.5706 14.4261 2.1375 14.4261H6.70225L5.95413 16.4457C5.88883 16.6215 5.86775 16.8101 5.89269 16.9955C5.91763 17.181 5.98785 17.3578 6.09738 17.511C6.20692 17.6642 6.35256 17.7893 6.52193 17.8757C6.69131 17.962 6.87944 18.007 7.07038 18.007H11.9296C12.1206 18.007 12.3087 17.962 12.4781 17.8757C12.6474 17.7893 12.7931 17.6642 12.9026 17.511C13.0122 17.3578 13.0824 17.181 13.1073 16.9955C13.1322 16.8101 13.1112 16.6215 13.0459 16.4457L12.2978 14.433H16.8625C17.4294 14.433 17.9731 14.2124 18.3739 13.8197C18.7748 13.427 19 12.8943 19 12.3389V2.10109C19.0009 1.8255 18.9463 1.55244 18.8393 1.29756C18.7323 1.04269 18.575 0.811011 18.3765 0.615815C18.1779 0.42062 17.9419 0.265744 17.6821 0.16007C17.4223 0.0543947 17.1438 -1.53103e-06 16.8625 0ZM11.59 16.6039H7.41L8.2175 14.4261H10.7825L11.59 16.6039ZM17.575 12.332C17.575 12.5171 17.4999 12.6946 17.3663 12.8255C17.2327 12.9564 17.0515 13.03 16.8625 13.03H2.1375C1.94853 13.03 1.76731 12.9564 1.63369 12.8255C1.50007 12.6946 1.425 12.5171 1.425 12.332V2.09411C1.425 1.90898 1.50007 1.73143 1.63369 1.60052C1.76731 1.46961 1.94853 1.39607 2.1375 1.39607H16.8625C17.0515 1.39607 17.2327 1.46961 17.3663 1.60052C17.4999 1.73143 17.575 1.90898 17.575 2.09411V12.332Z" fill="white"/>
<path d="M14.725 2.32617H3.0875C2.89853 2.32617 2.71731 2.39971 2.58369 2.53062C2.45007 2.66153 2.375 2.83908 2.375 3.02421C2.375 3.20934 2.45007 3.38689 2.58369 3.51779C2.71731 3.6487 2.89853 3.72224 3.0875 3.72224H14.725C14.914 3.72224 15.0952 3.6487 15.2288 3.51779C15.3624 3.38689 15.4375 3.20934 15.4375 3.02421C15.4375 2.83908 15.3624 2.66153 15.2288 2.53062C15.0952 2.39971 14.914 2.32617 14.725 2.32617Z" fill="white"/>
<path d="M9.975 6.05037C10.164 6.05037 10.3452 5.97682 10.4788 5.84592C10.6124 5.71501 10.6875 5.53746 10.6875 5.35233C10.6875 5.1672 10.6124 4.98965 10.4788 4.85875C10.3452 4.72784 10.164 4.6543 9.975 4.6543H3.0875C2.89853 4.6543 2.71731 4.72784 2.58369 4.85875C2.45007 4.98965 2.375 5.1672 2.375 5.35233C2.375 5.53746 2.45007 5.71501 2.58369 5.84592C2.71731 5.97682 2.89853 6.05037 3.0875 6.05037H9.975Z" fill="white"/>
<path d="M11.9723 7.91016H4.45781C3.89091 7.91016 3.34723 8.13078 2.94637 8.52351C2.54551 8.91623 2.32031 9.44887 2.32031 10.0043C2.32031 10.5597 2.54551 11.0923 2.94637 11.485C3.34723 11.8777 3.89091 12.0984 4.45781 12.0984H11.9723C12.5392 12.0984 13.0829 11.8777 13.4838 11.485C13.8846 11.0923 14.1098 10.5597 14.1098 10.0043C14.1098 9.44887 13.8846 8.91623 13.4838 8.52351C13.0829 8.13078 12.5392 7.91016 11.9723 7.91016ZM11.9723 10.7023H4.45781C4.26885 10.7023 4.08762 10.6288 3.954 10.4978C3.82038 10.3669 3.74531 10.1894 3.74531 10.0043C3.74531 9.81913 3.82038 9.64158 3.954 9.51068C4.08762 9.37977 4.26885 9.30623 4.45781 9.30623H11.9723C12.1613 9.30623 12.3425 9.37977 12.4761 9.51068C12.6097 9.64158 12.6848 9.81913 12.6848 10.0043C12.6848 10.1894 12.6097 10.3669 12.4761 10.4978C12.3425 10.6288 12.1613 10.7023 11.9723 10.7023Z" fill="white"/>
</g>
<defs>
<clipPath id="clip0_1_6231">
<rect width="19" height="18" fill="white"/>
</clipPath>
</defs>
</svg>
