<svg width="19" height="18" viewBox="0 0 19 18" fill="none" xmlns="http://www.w3.org/2000/svg">
<g clip-path="url(#clip0_1_6216)">
<path d="M17.378 0H1.62195C1.19178 0 0.779233 0.1716 0.475059 0.47705C0.170884 0.782499 0 1.19678 0 1.62875V12.7973C0 13.2293 0.170884 13.6436 0.475059 13.949C0.779233 14.2545 1.19178 14.4261 1.62195 14.4261H6.77049L6.04061 16.4457C5.9769 16.6215 5.95634 16.8101 5.98068 16.9955C6.00501 17.181 6.07351 17.3578 6.18038 17.511C6.28724 17.6642 6.42932 17.7893 6.59457 17.8757C6.75982 17.962 6.94336 18.007 7.12963 18.007H11.8704C12.0566 18.007 12.2402 17.962 12.4054 17.8757C12.5707 17.7893 12.7128 17.6642 12.8196 17.511C12.9265 17.3578 12.995 17.181 13.0193 16.9955C13.0437 16.8101 13.0231 16.6215 12.9594 16.4457L12.2295 14.433H17.378C17.8082 14.433 18.2208 14.2614 18.5249 13.956C18.8291 13.6505 19 13.2363 19 12.8043V1.63573C19.0009 1.42125 18.9596 1.20871 18.8785 1.01029C18.7974 0.811875 18.6781 0.631498 18.5274 0.479515C18.3767 0.327531 18.1976 0.206934 18.0004 0.124646C17.8031 0.0423571 17.5916 -1.96964e-06 17.378 0ZM11.539 16.6039H7.46098L8.24878 14.4261H10.7512L11.539 16.6039ZM17.6098 12.7973C17.6098 12.859 17.5853 12.9182 17.5419 12.9618C17.4984 13.0055 17.4395 13.03 17.378 13.03H1.62195C1.5605 13.03 1.50156 13.0055 1.45811 12.9618C1.41466 12.9182 1.39024 12.859 1.39024 12.7973V1.62875C1.39024 1.56704 1.41466 1.50786 1.45811 1.46422C1.50156 1.42058 1.5605 1.39607 1.62195 1.39607H17.378C17.4395 1.39607 17.4984 1.42058 17.5419 1.46422C17.5853 1.50786 17.6098 1.56704 17.6098 1.62875V12.7973Z" fill="white"/>
<path d="M9.49992 5.11914C8.94684 5.11914 8.41642 5.33977 8.02534 5.73249C7.63426 6.12521 7.41455 6.65785 7.41455 7.21325V10.0054C7.41455 10.5608 7.63426 11.0934 8.02534 11.4861C8.41642 11.8789 8.94684 12.0995 9.49992 12.0995C10.053 12.0995 10.5834 11.8789 10.9745 11.4861C11.3656 11.0934 11.5853 10.5608 11.5853 10.0054V7.21325C11.5853 6.65785 11.3656 6.12521 10.9745 5.73249C10.5834 5.33977 10.053 5.11914 9.49992 5.11914ZM10.195 10.0054C10.195 10.1905 10.1218 10.3681 9.99144 10.499C9.86108 10.6299 9.68427 10.7034 9.49992 10.7034C9.31556 10.7034 9.13875 10.6299 9.00839 10.499C8.87803 10.3681 8.80479 10.1905 8.80479 10.0054V7.21325C8.80479 7.12158 8.82277 7.03081 8.85771 6.94612C8.89264 6.86143 8.94384 6.78448 9.00839 6.71966C9.07294 6.65484 9.14957 6.60343 9.2339 6.56835C9.31824 6.53327 9.40863 6.51521 9.49992 6.51521C9.5912 6.51521 9.68159 6.53327 9.76593 6.56835C9.85026 6.60343 9.92689 6.65484 9.99144 6.71966C10.056 6.78448 10.1072 6.86143 10.1421 6.94612C10.1771 7.03081 10.195 7.12158 10.195 7.21325V10.0054Z" fill="white"/>
<path d="M14.5976 2.32617C14.0445 2.32617 13.5141 2.5468 13.123 2.93952C12.7319 3.33224 12.5122 3.86489 12.5122 4.42028V10.0046C12.5122 10.5599 12.7319 11.0926 13.123 11.4853C13.5141 11.878 14.0445 12.0987 14.5976 12.0987C15.1506 12.0987 15.6811 11.878 16.0721 11.4853C16.4632 11.0926 16.6829 10.5599 16.6829 10.0046V4.42028C16.6829 3.86489 16.4632 3.33224 16.0721 2.93952C15.6811 2.5468 15.1506 2.32617 14.5976 2.32617ZM15.2927 10.0046C15.2927 10.1897 15.2195 10.3672 15.0891 10.4981C14.9587 10.6291 14.7819 10.7026 14.5976 10.7026C14.4132 10.7026 14.2364 10.6291 14.106 10.4981C13.9757 10.3672 13.9025 10.1897 13.9025 10.0046V4.42028C13.9025 4.23515 13.9757 4.0576 14.106 3.92669C14.2364 3.79578 14.4132 3.72224 14.5976 3.72224C14.7819 3.72224 14.9587 3.79578 15.0891 3.92669C15.2195 4.0576 15.2927 4.23515 15.2927 4.42028V10.0046Z" fill="white"/>
<path d="M4.40226 7.91016C3.98982 7.91016 3.58663 8.03297 3.24369 8.26308C2.90076 8.49318 2.63347 8.82023 2.47563 9.20288C2.3178 9.58553 2.2765 10.0066 2.35697 10.4128C2.43743 10.819 2.63604 11.1922 2.92769 11.485C3.21933 11.7779 3.59091 11.9773 3.99543 12.0581C4.39995 12.1389 4.81925 12.0975 5.2003 11.939C5.58135 11.7805 5.90704 11.5121 6.13618 11.1677C6.36532 10.8233 6.48763 10.4184 6.48763 10.0043C6.48763 9.44887 6.26792 8.91623 5.87684 8.52351C5.48576 8.13078 4.95533 7.91016 4.40226 7.91016ZM4.40226 10.7023C4.26478 10.7023 4.13038 10.6614 4.01607 10.5847C3.90176 10.508 3.81266 10.3989 3.76005 10.2714C3.70744 10.1438 3.69367 10.0035 3.7205 9.86808C3.74732 9.73268 3.81352 9.6083 3.91074 9.51068C4.00795 9.41305 4.13181 9.34657 4.26665 9.31964C4.40149 9.29271 4.54126 9.30653 4.66827 9.35936C4.79529 9.41219 4.90385 9.50166 4.98023 9.61645C5.05662 9.73125 5.09738 9.8662 5.09738 10.0043C5.09738 10.1894 5.02415 10.3669 4.89379 10.4978C4.76343 10.6288 4.58662 10.7023 4.40226 10.7023Z" fill="white"/>
</g>
<defs>
<clipPath id="clip0_1_6216">
<rect width="19" height="18" fill="white"/>
</clipPath>
</defs>
</svg>
