<svg width="19" height="18" viewBox="0 0 19 18" fill="none" xmlns="http://www.w3.org/2000/svg">
<path d="M1.9 12.5293C0.8512 12.5293 0 13.2853 0 14.2168V16.3115C0 17.243 0.8512 17.999 1.9 17.999C2.9488 17.999 3.8 17.243 3.8 16.3115V14.2168C3.8 13.283 2.9488 12.5293 1.9 12.5293ZM2.53333 16.3115C2.53333 16.622 2.2496 16.874 1.9 16.874C1.5504 16.874 1.26667 16.622 1.26667 16.3115V14.2168C1.26667 13.9063 1.5504 13.6543 1.9 13.6543C2.2496 13.6543 2.53333 13.9063 2.53333 14.2168V16.3115Z" fill="white"/>
<path d="M6.96665 10.5234C5.91785 10.5234 5.06665 11.2794 5.06665 12.2109V16.3059C5.06665 17.2374 5.91785 17.9934 6.96665 17.9934C8.01545 17.9934 8.86665 17.2374 8.86665 16.3059V12.2109C8.86665 11.2794 8.01545 10.5234 6.96665 10.5234ZM7.59998 16.3082C7.59998 16.6187 7.31625 16.8707 6.96665 16.8707C6.61705 16.8707 6.33332 16.6187 6.33332 16.3082V12.2132C6.33332 11.9027 6.61705 11.6507 6.96665 11.6507C7.31625 11.6507 7.59998 11.9027 7.59998 12.2132V16.3082Z" fill="white"/>
<path d="M12.0333 7.53906C10.9845 7.53906 10.1333 8.29506 10.1333 9.22656V16.3118C10.1333 17.2433 10.9845 17.9993 12.0333 17.9993C13.0821 17.9993 13.9333 17.2433 13.9333 16.3118V9.22656C13.9333 8.29506 13.0821 7.53906 12.0333 7.53906ZM12.6666 16.3118C12.6666 16.6223 12.3829 16.8743 12.0333 16.8743C11.6837 16.8743 11.4 16.6223 11.4 16.3118V9.22656C11.4 8.91606 11.6837 8.66406 12.0333 8.66406C12.3829 8.66406 12.6666 8.91606 12.6666 9.22656V16.3118Z" fill="white"/>
<path d="M17.1 4.5C16.0512 4.5 15.2 5.256 15.2 6.1875V16.3125C15.2 17.244 16.0512 18 17.1 18C18.1488 18 19 17.244 19 16.3125V6.1875C19 5.25375 18.1488 4.5 17.1 4.5ZM17.7333 16.3125C17.7333 16.623 17.4496 16.875 17.1 16.875C16.7504 16.875 16.4666 16.623 16.4666 16.3125V6.1875C16.4666 5.877 16.7504 5.625 17.1 5.625C17.4496 5.625 17.7333 5.877 17.7333 6.1875V16.3125Z" fill="white"/>
<path d="M0.643389 11.6618C0.805522 11.6618 0.967655 11.6078 1.09179 11.4975L5.20846 7.84125C5.28699 7.7715 5.38072 7.76025 5.42886 7.76025C5.47699 7.76025 5.57072 7.7715 5.64926 7.84125L6.52072 8.61525C6.81966 8.88075 7.21486 9.027 7.63792 9.027C8.06099 9.027 8.45619 8.88075 8.75512 8.61525L16.4666 1.7685V3.48975C16.4666 3.80025 16.7503 4.05225 17.0999 4.05225C17.4495 4.05225 17.7333 3.80025 17.7333 3.48975V0.71325C17.7333 0.3555 17.4343 0.063 17.0493 0.01125C17.0366 0.00900004 17.0265 0.00899999 17.0138 0.00899999C16.9859 0.00674999 16.9606 0 16.9327 0H13.5127C13.1631 0 12.8794 0.252 12.8794 0.5625C12.8794 0.873 13.1631 1.125 13.5127 1.125H15.3975L7.86086 7.821C7.78232 7.89075 7.68859 7.902 7.64046 7.902C7.59232 7.902 7.49859 7.89075 7.42006 7.821L6.54859 7.047C6.24966 6.7815 5.85446 6.63525 5.43139 6.63525C5.00832 6.63525 4.61312 6.7815 4.31419 7.047L0.194989 10.701C-0.0532776 10.9215 -0.0532776 11.277 0.194989 11.4975C0.319122 11.6078 0.481256 11.6618 0.643389 11.6618Z" fill="white"/>
</svg>
