<svg width="19" height="18" viewBox="0 0 19 18" fill="none" xmlns="http://www.w3.org/2000/svg">
<g clip-path="url(#clip0_1_6205)">
<path d="M16.8625 0H2.1375C1.5706 0 1.02692 0.224902 0.626059 0.62523C0.2252 1.02556 0 1.56852 0 2.13467V12.2222C0 12.7883 0.2252 13.3313 0.626059 13.7316C1.02692 14.1319 1.5706 14.3568 2.1375 14.3568H6.70225L5.95412 16.4156C5.88883 16.5948 5.86775 16.787 5.89269 16.9761C5.91763 17.1651 5.98785 17.3454 6.09738 17.5016C6.20692 17.6577 6.35256 17.7852 6.52193 17.8732C6.69131 17.9613 6.87944 18.0072 7.07037 18.0071H11.9296C12.1206 18.0072 12.3087 17.9613 12.4781 17.8732C12.6474 17.7852 12.7931 17.6577 12.9026 17.5016C13.0122 17.3454 13.0824 17.1651 13.1073 16.9761C13.1322 16.787 13.1112 16.5948 13.0459 16.4156L12.2977 14.3639H16.8625C17.4294 14.3639 17.9731 14.139 18.3739 13.7387C18.7748 13.3384 19 12.7954 19 12.2293V2.13467C19 1.56852 18.7748 1.02556 18.3739 0.62523C17.9731 0.224902 17.4294 0 16.8625 0ZM11.59 16.5769H7.41L8.2175 14.3568H10.7825L11.59 16.5769ZM17.575 12.2222C17.575 12.4109 17.4999 12.5919 17.3663 12.7253C17.2327 12.8588 17.0515 12.9337 16.8625 12.9337H2.1375C1.94853 12.9337 1.76731 12.8588 1.63369 12.7253C1.50007 12.5919 1.425 12.4109 1.425 12.2222V2.13467C1.425 1.94595 1.50007 1.76497 1.63369 1.63152C1.76731 1.49808 1.94853 1.42311 2.1375 1.42311H16.8625C17.0515 1.42311 17.2327 1.49808 17.3663 1.63152C17.4999 1.76497 17.575 1.94595 17.575 2.13467V12.2222Z" fill="white"/>
<path d="M14.1623 3.20117H12.3502C12.1612 3.20117 11.98 3.27614 11.8464 3.40958C11.7128 3.54302 11.6377 3.72401 11.6377 3.91273C11.6377 4.10144 11.7128 4.28243 11.8464 4.41587C11.98 4.54932 12.1612 4.62428 12.3502 4.62428H12.8537L9.84221 7.60333L9.06321 6.82536C8.79299 6.5564 8.42703 6.40537 8.04552 6.40537C7.66401 6.40537 7.29805 6.5564 7.02783 6.82536L3.91183 9.93961C3.84183 10.0048 3.78568 10.0833 3.74674 10.1706C3.7078 10.2579 3.68686 10.3521 3.68517 10.4476C3.68348 10.5432 3.70108 10.6381 3.73691 10.7267C3.77275 10.8153 3.82609 10.8958 3.89374 10.9633C3.9614 11.0309 4.04199 11.0842 4.13071 11.12C4.21943 11.1557 4.31446 11.1733 4.41013 11.1716C4.5058 11.17 4.60014 11.149 4.68754 11.1101C4.77494 11.0713 4.8536 11.0152 4.91883 10.9453L8.05621 7.83103L8.83521 8.61137C9.10563 8.87904 9.47096 9.02921 9.85171 9.02921C10.2324 9.02921 10.5978 8.87904 10.8682 8.61137L13.8726 5.62758V6.00945C13.8726 6.19816 13.9476 6.37915 14.0813 6.51259C14.2149 6.64604 14.3961 6.721 14.5851 6.721C14.774 6.721 14.9553 6.64604 15.0889 6.51259C15.2225 6.37915 15.2976 6.19816 15.2976 6.00945V4.33729C15.2976 4.03638 15.1781 3.74777 14.9652 3.53477C14.7524 3.32177 14.4636 3.2018 14.1623 3.20117Z" fill="white"/>
</g>
<defs>
<clipPath id="clip0_1_6205">
<rect width="19" height="18" fill="white"/>
</clipPath>
</defs>
</svg>
