<svg xmlns="http://www.w3.org/2000/svg" width="200" height="132" fill="none"><style><![CDATA[.B{fill:#fff}.C{fill:#c0d3e9}.D{fill:#ecf3f8}]]></style><rect width="200" height="132" rx="3" fill="#eef6ff"/><path d="M0 3a3 3 0 0 1 3-3h194a3 3 0 0 1 3 3v22.385H0V3z" fill="#bbd9ff"/><g class="B"><ellipse cx="14.237" cy="12.77" rx="4.237" ry="4.231"/><ellipse cx="30.712" cy="12.77" rx="4.237" ry="4.231"/><ellipse cx="47.186" cy="12.77" rx="4.237" ry="4.231"/><path fill-rule="evenodd" d="M184.898 7.695c0-.936-.759-1.695-1.695-1.695s-1.695.759-1.695 1.695v3.38h-3.392a1.69 1.69 0 0 0 0 3.385h3.392v3.384c0 .936.759 1.695 1.695 1.695s1.695-.759 1.695-1.695V14.46h3.393c.934 0 1.692-.758 1.692-1.692s-.758-1.692-1.692-1.692h-3.393v-3.38z"/><rect x="9" y="34" width="54" height="38" rx="2"/></g><g class="C"><ellipse cx="26.119" cy="44.771" rx="3.39" ry="3.385"/><path d="M17.703 54.673L9 63.471V70a2 2 0 0 0 2 2h50a2 2 0 0 0 2-2v-6.529L44.172 44.437a2 2 0 0 0-2.844 0L27.297 58.622a2 2 0 0 1-2.844 0l-3.906-3.949a2 2 0 0 0-2.844 0z"/></g><rect x="73" y="34" width="54" height="38" rx="2" class="B"/><g class="C"><ellipse cx="90.119" cy="44.771" rx="3.39" ry="3.385"/><path d="M81.703 54.673L73 63.471V70a2 2 0 0 0 2 2h50a2 2 0 0 0 2-2v-6.529l-18.828-19.033a2 2 0 0 0-2.844 0L91.297 58.622a2 2 0 0 1-2.844 0l-3.906-3.949a2 2 0 0 0-2.844 0z"/></g><rect x="137" y="34" width="54" height="38" rx="2" class="B"/><g class="C"><ellipse cx="154.119" cy="44.771" rx="3.39" ry="3.385"/><path d="M145.703 54.673L137 63.471V70a2 2 0 0 0 2 2h50a2 2 0 0 0 2-2v-6.529l-18.828-19.033a2 2 0 0 0-2.844 0l-14.031 14.184a2 2 0 0 1-2.844 0l-3.906-3.949a2 2 0 0 0-2.844 0z"/></g><rect x="9" y="82" width="54" height="38" rx="2" class="B"/><g class="C"><ellipse cx="26.119" cy="92.771" rx="3.39" ry="3.385"/><path d="M17.703 102.673L9 111.471V118a2 2 0 0 0 2 2h50a2 2 0 0 0 2-2v-6.529L44.172 92.437a2 2 0 0 0-2.844 0l-14.031 14.184a2 2 0 0 1-2.844 0l-3.906-3.948a2 2 0 0 0-2.844 0z"/></g><rect x="73" y="82" width="54" height="38" rx="2" class="B"/><g class="C"><ellipse cx="90.119" cy="92.771" rx="3.39" ry="3.385"/><path d="M81.703 102.673L73 111.471V118a2 2 0 0 0 2 2h50a2 2 0 0 0 2-2v-6.529l-18.828-19.034a2 2 0 0 0-2.844 0l-14.031 14.184a2 2 0 0 1-2.844 0l-3.906-3.948a2 2 0 0 0-2.844 0z"/></g><rect x="137" y="82" width="54" height="38" rx="2" class="B"/><g class="C"><ellipse cx="154.119" cy="92.771" rx="3.39" ry="3.385"/><path d="M145.703 102.673L137 111.471V118a2 2 0 0 0 2 2h50a2 2 0 0 0 2-2v-6.529l-18.828-19.034a2 2 0 0 0-2.844 0l-14.031 14.184a2 2 0 0 1-2.844 0l-3.906-3.948a2 2 0 0 0-2.844 0z"/></g><rect x="35" y="43" width="130" height="68" rx="3" fill="#e6ebf1"/><rect x="51" y="53" width="97" height="16" rx="2" class="B"/><rect x="55" y="57" width="12" height="8" rx="1" class="D"/><g class="C"><circle cx="58.5" cy="59.5" r=".5"/><path d="M56.565 61.763L55 63.235V64a1 1 0 0 0 1 1h10a1 1 0 0 0 1-1v-.765l-3.815-3.59a1 1 0 0 0-1.371 0l-2.379 2.239a1 1 0 0 1-1.371 0l-.129-.122a1 1 0 0 0-1.371 0z"/></g><g class="D"><rect x="70" y="58" width="17" height="2" rx="1"/><rect x="70" y="62" width="12" height="2" rx="1"/><rect x="138" y="58" width="6" height="2" rx="1"/><rect x="138" y="62" width="6" height="2" rx="1"/></g><rect x="51" y="72" width="97" height="16" rx="2" class="B"/><rect x="55" y="76" width="12" height="8" rx="1" class="D"/><g class="C"><circle cx="58.5" cy="78.5" r=".5"/><path d="M56.565 80.763L55 82.235V83a1 1 0 0 0 1 1h10a1 1 0 0 0 1-1v-.765l-3.815-3.59a1 1 0 0 0-1.371 0l-2.379 2.239a1 1 0 0 1-1.371 0l-.129-.122a1 1 0 0 0-1.371 0z"/></g><g class="D"><rect x="70" y="77" width="17" height="2" rx="1"/><rect x="70" y="81" width="12" height="2" rx="1"/><rect x="138" y="77" width="6" height="2" rx="1"/><rect x="138" y="81" width="6" height="2" rx="1"/></g><rect x="51" y="91" width="31" height="10" rx="1" class="C"/><rect x="60" y="94" width="13" height="4" rx="2" class="B"/><rect x="87" y="91" width="27" height="10" rx="1" fill="#0875ff"/><rect x="94" y="94" width="13" height="4" rx="2" class="B"/></svg>
