<svg width="38" height="36" viewBox="0 0 38 36" fill="none" xmlns="http://www.w3.org/2000/svg">
<g clip-path="url(#clip0_646_2517)">
<path d="M23.9449 15.6048L23.533 14.3782L25.0524 13.0968V14.4972L23.9449 15.6048ZM21.2858 9.33017H19.8854L18.7778 10.4377L19.9998 10.845L21.2858 9.33017ZM25.4826 11.591L22.4666 14.1448L21.9495 12.4515L20.2515 11.9114L22.8053 8.89539C23.2506 8.37003 23.8429 7.98993 24.5059 7.80397C25.169 7.61801 25.8726 7.63471 26.5261 7.85191C26.7486 8.50779 26.768 9.21554 26.5819 9.88264C26.3957 10.5497 26.0126 11.1451 25.4826 11.591ZM25.1119 9.94344C25.111 9.8133 25.0716 9.68633 24.9986 9.57856C24.9257 9.47078 24.8224 9.38702 24.7019 9.33784C24.5814 9.28866 24.4491 9.27626 24.3215 9.30221C24.194 9.32815 24.077 9.39128 23.9853 9.48363C23.8936 9.57597 23.8313 9.69341 23.8062 9.82112C23.7811 9.94884 23.7945 10.0811 23.8445 10.2013C23.8945 10.3214 23.9789 10.4241 24.0872 10.4963C24.1955 10.5685 24.3227 10.6071 24.4529 10.6071C24.5414 10.6071 24.629 10.5893 24.7105 10.5548C24.792 10.5203 24.8657 10.4697 24.9272 10.406C24.9887 10.3424 25.0367 10.267 25.0685 10.1844C25.1002 10.1018 25.115 10.0136 25.1119 9.92514V9.94344Z" fill="#0875FF"/>
<path d="M19.1443 15.2547C19.1443 15.2547 19.007 13.9183 19.5151 13.424C19.7105 13.228 19.9758 13.1176 20.2526 13.1172C20.5294 13.1168 20.795 13.2263 20.991 13.4217C21.1871 13.6171 21.2974 13.8824 21.2979 14.1592C21.2983 14.436 21.1887 14.7017 20.9933 14.8977C20.4807 15.3782 19.1443 15.2547 19.1443 15.2547Z" fill="#0875FF"/>
<path d="M37.1623 11.8352C36.9085 11.4903 36.5769 11.2102 36.1943 11.0177C35.8118 10.8252 35.3892 10.7259 34.9609 10.7277H31.9312C31.7088 8.444 30.6443 6.32485 28.945 4.78302C27.2458 3.24119 25.0334 2.3871 22.7389 2.3871C20.4445 2.3871 18.2321 3.24119 16.5329 4.78302C14.8336 6.32485 13.7691 8.444 13.5467 10.7277H9.52384L7.72522 2.17849C7.59508 1.56239 7.25715 1.00973 6.76806 0.613124C6.27896 0.216514 5.66841 4.91653e-05 5.03872 0H0.919726C0.676965 0 0.444147 0.0964366 0.272489 0.268095C0.100831 0.439753 0.00439453 0.672571 0.00439453 0.915332C0.00439453 1.15809 0.100831 1.39091 0.272489 1.56257C0.444147 1.73423 0.676965 1.83066 0.919726 1.83066H5.03872C5.25222 1.82614 5.46057 1.8964 5.62773 2.02929C5.79489 2.16218 5.91032 2.34933 5.95405 2.55835L7.67487 10.7277L7.81675 11.4096L7.90828 11.8307L10.7412 25.4142C10.8224 25.773 10.9748 26.1118 11.1894 26.4106C11.4041 26.7093 11.6765 26.9619 11.9907 27.1533C11.5515 27.8108 11.3872 28.6142 11.533 29.3913C11.6669 30.0873 12.0388 30.715 12.5849 31.1668C13.1311 31.6186 13.8174 31.8662 14.5261 31.8673C14.3378 32.3193 14.2639 32.8109 14.3112 33.2984C14.3584 33.7858 14.5253 34.2541 14.7969 34.6616C15.0686 35.0691 15.4366 35.4032 15.8684 35.6343C16.3002 35.8654 16.7824 35.9863 17.2721 35.9863C17.7619 35.9863 18.244 35.8654 18.6758 35.6343C19.1076 35.4032 19.4757 35.0691 19.7473 34.6616C20.019 34.2541 20.1858 33.7858 20.2331 33.2984C20.2803 32.8109 20.2065 32.3193 20.0181 31.8673H26.8831C26.7287 32.2289 26.6493 32.6182 26.6497 33.0114C26.6497 33.5998 26.8242 34.175 27.1511 34.6642C27.4779 35.1534 27.9425 35.5347 28.4861 35.7598C29.0297 35.985 29.6278 36.0439 30.2049 35.9291C30.782 35.8143 31.312 35.531 31.7281 35.115C32.1441 34.6989 32.4274 34.1689 32.5422 33.5918C32.657 33.0147 32.5981 32.4166 32.3729 31.873C32.1478 31.3294 31.7665 30.8648 31.2773 30.538C30.788 30.2111 30.2129 30.0366 29.6245 30.0366H14.5216C14.1963 30.0366 13.8843 29.9074 13.6543 29.6774C13.4242 29.4473 13.295 29.1354 13.295 28.8101C13.295 28.4848 13.4242 28.1728 13.6543 27.9428C13.8843 27.7127 14.1963 27.5835 14.5216 27.5835H31.5513C32.1423 27.5837 32.7177 27.3932 33.1918 27.0403C33.6659 26.6874 34.0135 26.1909 34.1829 25.6247L37.5925 14.2471C37.7146 13.8395 37.7392 13.4089 37.6645 12.99C37.5898 12.5711 37.4178 12.1755 37.1623 11.8352ZM18.398 33.0252C18.398 33.2515 18.3309 33.4727 18.2052 33.6608C18.0794 33.849 17.9007 33.9956 17.6917 34.0822C17.4826 34.1688 17.2526 34.1915 17.0306 34.1474C16.8087 34.1032 16.6048 33.9942 16.4448 33.8342C16.2848 33.6742 16.1758 33.4703 16.1316 33.2484C16.0875 33.0264 16.1102 32.7964 16.1968 32.5873C16.2833 32.3783 16.43 32.1996 16.6182 32.0738C16.8063 31.9481 17.0275 31.881 17.2538 31.881C17.406 31.878 17.5572 31.9053 17.6987 31.9614C17.8402 32.0176 17.969 32.1014 18.0777 32.2079C18.1864 32.3145 18.2727 32.4416 18.3316 32.582C18.3906 32.7223 18.4209 32.873 18.4209 33.0252H18.398ZM30.755 33.0252C30.755 33.2515 30.6879 33.4727 30.5621 33.6608C30.4364 33.849 30.2577 33.9956 30.0487 34.0822C29.8396 34.1688 29.6095 34.1915 29.3876 34.1474C29.1656 34.1032 28.9618 33.9942 28.8018 33.8342C28.6417 33.6742 28.5328 33.4703 28.4886 33.2484C28.4445 33.0264 28.4671 32.7964 28.5537 32.5873C28.6403 32.3783 28.787 32.1996 28.9751 32.0738C29.1633 31.9481 29.3845 31.881 29.6108 31.881C29.9143 31.881 30.2053 32.0016 30.4198 32.2161C30.6344 32.4307 30.755 32.7217 30.755 33.0252ZM22.7412 4.23341C24.2067 4.23341 25.6393 4.66797 26.8578 5.48215C28.0763 6.29633 29.026 7.45356 29.5868 8.80748C30.1476 10.1614 30.2944 11.6512 30.0085 13.0886C29.7226 14.5259 29.0169 15.8462 27.9806 16.8824C26.9444 17.9187 25.6241 18.6244 24.1868 18.9103C22.7495 19.1962 21.2596 19.0494 19.9057 18.4886C18.5518 17.9278 17.3945 16.9781 16.5804 15.7596C15.7662 14.5411 15.3316 13.1085 15.3316 11.643C15.334 9.67861 16.1155 7.79536 17.5045 6.40631C18.8936 5.01726 20.7768 4.23583 22.7412 4.23341ZM35.8396 13.7346L32.43 25.1121C32.3762 25.304 32.2613 25.473 32.1027 25.5936C31.9441 25.7142 31.7505 25.7798 31.5513 25.7803H13.4277C13.2142 25.7848 13.0059 25.7146 12.8387 25.5817C12.6716 25.4488 12.5561 25.2617 12.5124 25.0526L9.90828 12.5584H13.5696C13.792 14.842 14.8565 16.9612 16.5557 18.503C18.255 20.0448 20.4673 20.8989 22.7618 20.8989C25.0563 20.8989 27.2687 20.0448 28.9679 18.503C30.6672 16.9612 31.7317 14.842 31.9541 12.5584H34.9655C35.1077 12.5589 35.2479 12.5925 35.3748 12.6566C35.5018 12.7207 35.6121 12.8135 35.6969 12.9277C35.7818 13.0418 35.8388 13.1742 35.8636 13.3143C35.8884 13.4543 35.8802 13.5982 35.8396 13.7346Z" fill="#0875FF"/>
</g>
<defs>
<clipPath id="clip0_646_2517">
<rect width="37.7117" height="36" fill="white"/>
</clipPath>
</defs>
</svg>
