<svg xmlns="http://www.w3.org/2000/svg" width="200" height="132" fill="none"><style><![CDATA[.B{fill:#fff}.C{fill:#c0d3e9}.D{fill:#ecf3f8}]]></style><rect width="200" height="131.999" rx="3" fill="#eef6ff"/><path d="M0 3a3 3 0 0 1 3-3h194a3 3 0 0 1 3 3v22.384H0V3z" fill="#bbd9ff"/><g class="B"><ellipse cx="14.407" cy="11.844" rx="4.237" ry="4.231"/><ellipse cx="30.881" cy="11.844" rx="4.237" ry="4.231"/><ellipse cx="47.356" cy="11.844" rx="4.237" ry="4.231"/><path fill-rule="evenodd" d="M185.068 6.769c0-.936-.759-1.695-1.695-1.695s-1.695.759-1.695 1.695v3.383h-3.392c-.935 0-1.693.758-1.693 1.692s.758 1.692 1.693 1.692h3.392v3.381c0 .936.759 1.695 1.695 1.695s1.695-.759 1.695-1.695v-3.381h3.392c.935 0 1.693-.758 1.693-1.692s-.758-1.692-1.693-1.692h-3.392V6.769z"/><rect x="10" y="34" width="54" height="38" rx="2"/></g><g class="C"><ellipse cx="27.119" cy="44.771" rx="3.39" ry="3.385"/><path d="M18.703 54.673L10 63.471V70a2 2 0 0 0 2 2h50a2 2 0 0 0 2-2v-6.529L45.172 44.437a2 2 0 0 0-2.844 0L28.297 58.622a2 2 0 0 1-2.844 0l-3.906-3.949a2 2 0 0 0-2.844 0z"/></g><rect x="74" y="34" width="54" height="38" rx="2" class="B"/><g class="C"><ellipse cx="91.119" cy="44.771" rx="3.39" ry="3.385"/><path d="M82.703 54.673L74 63.471V70a2 2 0 0 0 2 2h50a2 2 0 0 0 2-2v-6.529l-18.828-19.033a2 2 0 0 0-2.844 0L92.297 58.622a2 2 0 0 1-2.844 0l-3.906-3.949a2 2 0 0 0-2.844 0z"/></g><rect x="10" y="82" width="54" height="38" rx="2" class="B"/><g class="C"><ellipse cx="27.119" cy="92.771" rx="3.39" ry="3.385"/><path d="M18.703 102.673L10 111.471V118a2 2 0 0 0 2 2h50a2 2 0 0 0 2-2v-6.529L45.172 92.437a2 2 0 0 0-2.844 0l-14.031 14.184a2 2 0 0 1-2.844 0l-3.906-3.948a2 2 0 0 0-2.844 0z"/></g><rect x="74" y="82" width="54" height="38" rx="2" class="B"/><g class="C"><ellipse cx="91.119" cy="92.771" rx="3.39" ry="3.385"/><path d="M82.703 102.673L74 111.471V118a2 2 0 0 0 2 2h50a2 2 0 0 0 2-2v-6.529l-18.828-19.034a2 2 0 0 0-2.844 0l-14.031 14.184a2 2 0 0 1-2.844 0l-3.906-3.948a2 2 0 0 0-2.844 0z"/></g><path d="M124 25h76v104a3 3 0 0 1-3 3h-73V25z" fill="#e6ebf1"/><rect x="131" y="34" width="62" height="16" rx="2" class="B"/><rect x="134" y="38" width="12" height="8" rx="1" class="D"/><g class="C"><path d="M135.565 42.763L134 44.235V45a1 1 0 0 0 1 1h10a1 1 0 0 0 1-1v-.765l-3.815-3.59a1 1 0 0 0-1.37 0l-2.38 2.239a1 1 0 0 1-1.37 0l-.13-.122a1 1 0 0 0-1.37 0z"/><circle cx="137.5" cy="40.5" r=".5"/></g><g class="D"><rect x="149" y="39" width="17" height="2" rx="1"/><rect x="149" y="43" width="12" height="2" rx="1"/><rect x="183" y="39" width="7" height="2" rx="1"/><rect x="183" y="43" width="7" height="2" rx="1"/></g><rect x="131" y="53" width="62" height="16" rx="2" class="B"/><rect x="134" y="57" width="12" height="8" rx="1" class="D"/><g class="C"><path d="M135.565 61.763L134 63.235V64a1 1 0 0 0 1 1h10a1 1 0 0 0 1-1v-.765l-3.815-3.59a1 1 0 0 0-1.37 0l-2.38 2.239a1 1 0 0 1-1.37 0l-.13-.122a1 1 0 0 0-1.37 0z"/><circle cx="137.5" cy="59.5" r=".5"/></g><g class="D"><rect x="149" y="58" width="17" height="2" rx="1"/><rect x="149" y="62" width="12" height="2" rx="1"/><rect x="183" y="58" width="7" height="2" rx="1"/><rect x="183" y="62" width="7" height="2" rx="1"/></g><rect x="131" y="72" width="62" height="16" rx="2" class="B"/><rect x="134" y="76" width="12" height="8" rx="1" class="D"/><g class="C"><path d="M135.565 80.763L134 82.235V83a1 1 0 0 0 1 1h10a1 1 0 0 0 1-1v-.765l-3.815-3.59a1 1 0 0 0-1.37 0l-2.38 2.239a1 1 0 0 1-1.37 0l-.13-.122a1 1 0 0 0-1.37 0z"/><circle cx="137.5" cy="78.5" r=".5"/></g><g class="D"><rect x="149" y="77" width="17" height="2" rx="1"/><rect x="149" y="81" width="12" height="2" rx="1"/><rect x="183" y="77" width="7" height="2" rx="1"/><rect x="183" y="81" width="7" height="2" rx="1"/></g><rect x="131" y="91" width="62" height="16" rx="2" class="B"/><rect x="134" y="95" width="12" height="8" rx="1" class="D"/><g class="C"><path d="M135.565 99.763L134 101.235V102a1 1 0 0 0 1 1h10a1 1 0 0 0 1-1v-.765l-3.815-3.59a1 1 0 0 0-1.37 0l-2.38 2.239a1 1 0 0 1-1.37 0l-.13-.122a1 1 0 0 0-1.37 0z"/><circle cx="137.5" cy="97.5" r=".5"/></g><g class="D"><rect x="149" y="96" width="17" height="2" rx="1"/><rect x="149" y="100" width="12" height="2" rx="1"/><rect x="183" y="96" width="7" height="2" rx="1"/><rect x="183" y="100" width="7" height="2" rx="1"/></g><rect x="131" y="110" width="31" height="10" rx="1" class="C"/><rect x="139" y="113" width="14" height="4" rx="2" class="B"/><rect x="166" y="110" width="27" height="10" rx="1" fill="#0875ff"/><rect x="172.898" y="113.004" width="13" height="4" rx="2" class="B"/></svg>
