<svg width="200" height="132" viewBox="0 0 200 132" fill="none" xmlns="http://www.w3.org/2000/svg">
<rect width="200" height="132" fill="#EEF6FF"/>
<rect x="46.4884" y="27" width="48.9767" height="34.4651" rx="1.81395" fill="white"/>
<ellipse cx="62.0146" cy="36.769" rx="3.0745" ry="3.06975" fill="#C0D3E9"/>
<path d="M54.382 45.7489L46.4884 53.7285V59.6505C46.4884 60.6523 47.3005 61.4644 48.3024 61.4644H93.6512C94.653 61.4644 95.4651 60.6523 95.4651 59.6505V53.7285L78.3885 36.4657C77.6785 35.7481 76.5192 35.7481 75.8093 36.4657L63.0832 49.3304C62.3733 50.0481 61.214 50.0481 60.504 49.3304L56.9611 45.7489C56.2512 45.0312 55.0919 45.0312 54.382 45.7489Z" fill="#C0D3E9"/>
<rect x="104.535" y="27" width="48.9767" height="34.4651" rx="1.81395" fill="white"/>
<ellipse cx="120.061" cy="36.769" rx="3.0745" ry="3.06975" fill="#C0D3E9"/>
<path d="M112.428 45.7489L104.535 53.7285V59.6505C104.535 60.6523 105.347 61.4644 106.349 61.4644H151.698C152.7 61.4644 153.512 60.6523 153.512 59.6505V53.7285L136.435 36.4657C135.725 35.7481 134.566 35.7481 133.856 36.4657L121.13 49.3304C120.42 50.0481 119.261 50.0481 118.551 49.3304L115.008 45.7489C114.298 45.0312 113.138 45.0312 112.428 45.7489Z" fill="#C0D3E9"/>
<rect x="46.4884" y="70.5352" width="48.9767" height="34.4651" rx="1.81395" fill="white"/>
<ellipse cx="62.0146" cy="80.3041" rx="3.0745" ry="3.06975" fill="#C0D3E9"/>
<path d="M54.382 89.2841L46.4884 97.2636V103.186C46.4884 104.187 47.3005 105 48.3024 105H93.6512C94.653 105 95.4651 104.187 95.4651 103.186V97.2636L78.3885 80.0009C77.6785 79.2832 76.5192 79.2832 75.8093 80.0009L63.0832 92.8656C62.3733 93.5833 61.214 93.5833 60.504 92.8656L56.9611 89.2841C56.2512 88.5664 55.0919 88.5664 54.382 89.2841Z" fill="#C0D3E9"/>
<rect x="104.535" y="70.5352" width="48.9767" height="34.4651" rx="1.81395" fill="white"/>
<ellipse cx="120.061" cy="80.3041" rx="3.0745" ry="3.06975" fill="#C0D3E9"/>
<path d="M112.428 89.2841L104.535 97.2636V103.186C104.535 104.187 105.347 105 106.349 105H151.698C152.7 105 153.512 104.187 153.512 103.186V97.2636L136.435 80.0009C135.725 79.2832 134.566 79.2832 133.856 80.0009L121.13 92.8656C120.42 93.5833 119.261 93.5833 118.551 92.8656L115.008 89.2841C114.298 88.5664 113.138 88.5664 112.428 89.2841Z" fill="#C0D3E9"/>
<rect x="11" y="95" width="25.9999" height="26.0034" rx="12.9999" fill="#0875FF"/>
<path fill-rule="evenodd" clip-rule="evenodd" d="M29.3842 105.468C29.5669 105.555 29.7279 105.681 29.8555 105.839C29.9814 105.995 30.0713 106.177 30.1188 106.372C30.1663 106.568 30.1701 106.771 30.13 106.968L29.495 109.995C29.431 110.3 29.2642 110.575 29.0225 110.772C28.7808 110.969 28.479 111.076 28.1676 111.077H23.1747C23.0915 111.077 23.0117 111.11 22.9528 111.169C22.894 111.228 22.8609 111.308 22.8609 111.392C22.8609 111.475 22.894 111.555 22.9528 111.614C23.0117 111.673 23.0915 111.706 23.1747 111.706H27.617C27.858 111.706 28.0936 111.778 28.294 111.912C28.4944 112.047 28.6506 112.238 28.7429 112.461C28.8352 112.684 28.8594 112.93 28.8125 113.167C28.7656 113.404 28.6497 113.622 28.4794 113.793C28.3091 113.964 28.092 114.081 27.8557 114.128C27.6194 114.176 27.3744 114.152 27.1516 114.059C26.9289 113.967 26.7384 113.811 26.6043 113.61C26.4702 113.409 26.3985 113.172 26.3982 112.931C26.3983 112.824 26.4125 112.717 26.4404 112.614H25.2065C25.2563 112.798 25.2628 112.99 25.2256 113.177C25.1884 113.363 25.1084 113.538 24.992 113.688C24.8756 113.838 24.726 113.959 24.5551 114.041C24.3841 114.123 24.1965 114.164 24.0071 114.16C23.8177 114.157 23.6316 114.109 23.4637 114.021C23.2958 113.933 23.1507 113.807 23.0398 113.653C22.9289 113.499 22.8552 113.321 22.8247 113.133C22.7942 112.946 22.8076 112.754 22.864 112.572C22.695 112.527 22.5378 112.445 22.403 112.333C22.2682 112.222 22.159 112.082 22.0828 111.924C22.0067 111.766 21.9654 111.593 21.9617 111.418C21.958 111.242 21.992 111.068 22.0615 110.907C21.8896 110.814 21.7399 110.684 21.6225 110.528C21.5051 110.371 21.4228 110.191 21.3812 109.999V109.981L20.4067 105.336L19.9436 103.112C19.9225 103.01 19.8671 102.918 19.7866 102.852C19.7061 102.786 19.6055 102.75 19.5017 102.75H18.2949C18.1749 102.75 18.0598 102.702 17.9749 102.617C17.8901 102.532 17.8424 102.416 17.8424 102.296C17.8424 102.175 17.8901 102.06 17.9749 101.975C18.0598 101.89 18.1749 101.842 18.2949 101.842H19.5017C19.8122 101.844 20.1128 101.952 20.3533 102.149C20.5938 102.346 20.7596 102.62 20.8231 102.925L21.3254 105.336H22.6467C22.7536 104.635 23.1074 103.995 23.6441 103.532C24.1808 103.07 24.8649 102.815 25.5723 102.815C26.2798 102.815 26.9639 103.07 27.5006 103.532C28.0373 103.995 28.3911 104.635 28.4979 105.336H28.7996C29.0018 105.336 29.2015 105.381 29.3842 105.468ZM26.7149 104.067C26.3759 103.841 25.9775 103.72 25.5701 103.72V103.723C25.0241 103.724 24.5008 103.942 24.1149 104.33C23.729 104.717 23.5119 105.243 23.5111 105.79C23.5117 106.199 23.6331 106.599 23.8599 106.938C24.0867 107.278 24.4088 107.542 24.7855 107.698C25.1621 107.854 25.5764 107.895 25.976 107.814C26.3755 107.734 26.7424 107.537 27.0302 107.248C27.318 106.958 27.5138 106.59 27.5929 106.189C27.672 105.788 27.6308 105.372 27.4745 104.994C27.3182 104.617 27.0539 104.294 26.7149 104.067ZM24.2822 113.11C24.3171 113.059 24.3359 112.998 24.3362 112.935C24.3366 112.852 24.3043 112.772 24.2464 112.713C24.1885 112.654 24.1096 112.62 24.027 112.619C23.9648 112.618 23.9037 112.636 23.8516 112.67C23.7994 112.704 23.7585 112.752 23.734 112.81C23.7095 112.867 23.7026 112.93 23.7141 112.992C23.7255 113.053 23.7549 113.11 23.7984 113.154C23.842 113.199 23.8977 113.229 23.9586 113.242C24.0195 113.255 24.0828 113.249 24.1404 113.225C24.198 113.202 24.2474 113.162 24.2822 113.11ZM27.8832 113.11C27.9178 113.058 27.9365 112.997 27.9368 112.935C27.937 112.894 27.929 112.853 27.9133 112.814C27.8977 112.776 27.8746 112.741 27.8454 112.712C27.8163 112.682 27.7816 112.659 27.7435 112.643C27.7053 112.627 27.6644 112.619 27.623 112.619C27.561 112.619 27.5005 112.637 27.4489 112.672C27.3973 112.706 27.3571 112.755 27.3333 112.813C27.3095 112.87 27.3032 112.934 27.3152 112.995C27.3272 113.056 27.3569 113.112 27.4007 113.156C27.4444 113.2 27.5001 113.23 27.5609 113.242C27.6217 113.255 27.6847 113.249 27.7421 113.225C27.7994 113.201 27.8485 113.161 27.8832 113.11ZM28.6095 109.818L29.2446 106.791C29.2588 106.725 29.2582 106.656 29.2428 106.591C29.2275 106.525 29.1976 106.464 29.1556 106.411C29.1124 106.358 29.0578 106.315 28.9959 106.287C28.934 106.258 28.8663 106.243 28.7981 106.244H28.4964C28.3896 106.946 28.0358 107.586 27.4991 108.049C26.9624 108.511 26.2783 108.765 25.5708 108.765C24.8634 108.765 24.1793 108.511 23.6426 108.049C23.1059 107.586 22.7521 106.946 22.6452 106.244H21.5154L22.2591 109.818C22.2806 109.92 22.3364 110.011 22.4171 110.077C22.4979 110.142 22.5987 110.178 22.7026 110.178H28.1676C28.2712 110.178 28.3717 110.142 28.4521 110.076C28.5326 110.011 28.5881 109.919 28.6095 109.818ZM25.5007 106.508L25.3498 106.018L24.8611 105.866L25.6048 104.996C25.7311 104.842 25.9012 104.731 26.0923 104.677C26.2834 104.623 26.4865 104.629 26.6742 104.694C26.7326 104.883 26.7351 105.084 26.6816 105.275C26.6281 105.465 26.5207 105.636 26.3726 105.767L25.5007 106.508ZM26.1483 105.108C26.1253 105.098 26.1006 105.092 26.0754 105.092C26.023 105.092 25.9727 105.112 25.9357 105.15C25.8986 105.187 25.8778 105.237 25.8778 105.29C25.8778 105.342 25.8986 105.393 25.9357 105.43C25.9727 105.467 26.023 105.488 26.0754 105.488C26.1247 105.482 26.1704 105.459 26.2044 105.423C26.2384 105.387 26.2584 105.34 26.2609 105.29C26.2617 105.265 26.2576 105.239 26.2487 105.216C26.2398 105.192 26.2264 105.171 26.2091 105.152C26.1919 105.134 26.1712 105.119 26.1483 105.108ZM25.1523 105.113H24.742L24.4267 105.431L24.7827 105.551L25.1523 105.113ZM25.917 106.942L26.2338 106.625V106.215L25.7994 106.585L25.917 106.942ZM24.6303 106.293C24.4794 106.444 24.5247 106.836 24.5247 106.836C24.5247 106.836 24.9214 106.875 25.0541 106.73C25.0852 106.703 25.1101 106.669 25.1272 106.631C25.1442 106.594 25.1531 106.553 25.1531 106.511C25.1531 106.47 25.1442 106.429 25.1272 106.391C25.1101 106.354 25.0852 106.32 25.0541 106.293C25.0282 106.261 24.9958 106.236 24.9592 106.219C24.9226 106.202 24.8826 106.193 24.8422 106.193C24.8018 106.193 24.7618 106.202 24.7252 106.219C24.6886 106.236 24.6562 106.261 24.6303 106.293Z" fill="white"/>
</svg>
