<svg width="200" height="132" viewBox="0 0 200 132" fill="none" xmlns="http://www.w3.org/2000/svg">
<rect width="200" height="132" fill="#EEF6FF"/>
<rect x="46.4884" y="27" width="48.9767" height="34.4651" rx="1.81395" fill="white"/>
<ellipse cx="62.0146" cy="36.769" rx="3.0745" ry="3.06975" fill="#C0D3E9"/>
<path d="M54.382 45.7489L46.4884 53.7285V59.6505C46.4884 60.6523 47.3005 61.4644 48.3024 61.4644H93.6512C94.653 61.4644 95.4651 60.6523 95.4651 59.6505V53.7285L78.3885 36.4657C77.6785 35.7481 76.5192 35.7481 75.8093 36.4657L63.0832 49.3304C62.3733 50.0481 61.214 50.0481 60.504 49.3304L56.9611 45.7489C56.2512 45.0312 55.0919 45.0312 54.382 45.7489Z" fill="#C0D3E9"/>
<rect x="104.535" y="27" width="48.9767" height="34.4651" rx="1.81395" fill="white"/>
<ellipse cx="120.061" cy="36.769" rx="3.0745" ry="3.06975" fill="#C0D3E9"/>
<path d="M112.428 45.7489L104.535 53.7285V59.6505C104.535 60.6523 105.347 61.4644 106.349 61.4644H151.698C152.7 61.4644 153.512 60.6523 153.512 59.6505V53.7285L136.435 36.4657C135.725 35.7481 134.566 35.7481 133.856 36.4657L121.13 49.3304C120.42 50.0481 119.261 50.0481 118.551 49.3304L115.008 45.7489C114.298 45.0312 113.138 45.0312 112.428 45.7489Z" fill="#C0D3E9"/>
<rect x="46.4884" y="70.5352" width="48.9767" height="34.4651" rx="1.81395" fill="white"/>
<ellipse cx="62.0146" cy="80.3041" rx="3.0745" ry="3.06975" fill="#C0D3E9"/>
<path d="M54.382 89.2841L46.4884 97.2636V103.186C46.4884 104.187 47.3005 105 48.3024 105H93.6512C94.653 105 95.4651 104.187 95.4651 103.186V97.2636L78.3885 80.0009C77.6785 79.2832 76.5192 79.2832 75.8093 80.0009L63.0832 92.8656C62.3733 93.5833 61.214 93.5833 60.504 92.8656L56.9611 89.2841C56.2512 88.5664 55.0919 88.5664 54.382 89.2841Z" fill="#C0D3E9"/>
<rect x="104.535" y="70.5352" width="48.9767" height="34.4651" rx="1.81395" fill="white"/>
<ellipse cx="120.061" cy="80.3041" rx="3.0745" ry="3.06975" fill="#C0D3E9"/>
<path d="M112.428 89.2841L104.535 97.2636V103.186C104.535 104.187 105.347 105 106.349 105H151.698C152.7 105 153.512 104.187 153.512 103.186V97.2636L136.435 80.0009C135.725 79.2832 134.566 79.2832 133.856 80.0009L121.13 92.8656C120.42 93.5833 119.261 93.5833 118.551 92.8656L115.008 89.2841C114.298 88.5664 113.138 88.5664 112.428 89.2841Z" fill="#C0D3E9"/>
<rect x="163" y="95" width="25.9999" height="26.0034" rx="12.9999" fill="#0875FF"/>
<path fill-rule="evenodd" clip-rule="evenodd" d="M181.384 105.468C181.567 105.555 181.728 105.681 181.856 105.839C181.981 105.995 182.071 106.177 182.119 106.372C182.166 106.568 182.17 106.771 182.13 106.968L181.495 109.995C181.431 110.3 181.264 110.575 181.022 110.772C180.781 110.969 180.479 111.076 180.168 111.077H175.175C175.091 111.077 175.012 111.11 174.953 111.169C174.894 111.228 174.861 111.308 174.861 111.392C174.861 111.475 174.894 111.555 174.953 111.614C175.012 111.673 175.091 111.706 175.175 111.706H179.617C179.858 111.706 180.094 111.778 180.294 111.912C180.494 112.047 180.651 112.238 180.743 112.461C180.835 112.684 180.859 112.93 180.813 113.167C180.766 113.404 180.65 113.622 180.479 113.793C180.309 113.964 180.092 114.081 179.856 114.128C179.619 114.176 179.374 114.152 179.152 114.059C178.929 113.967 178.738 113.811 178.604 113.61C178.47 113.409 178.398 113.172 178.398 112.931C178.398 112.824 178.413 112.717 178.44 112.614H177.207C177.256 112.798 177.263 112.99 177.226 113.177C177.188 113.363 177.108 113.538 176.992 113.688C176.876 113.838 176.726 113.959 176.555 114.041C176.384 114.123 176.197 114.164 176.007 114.16C175.818 114.157 175.632 114.109 175.464 114.021C175.296 113.933 175.151 113.807 175.04 113.653C174.929 113.499 174.855 113.321 174.825 113.133C174.794 112.946 174.808 112.754 174.864 112.572C174.695 112.527 174.538 112.445 174.403 112.333C174.268 112.222 174.159 112.082 174.083 111.924C174.007 111.766 173.965 111.593 173.962 111.418C173.958 111.242 173.992 111.068 174.061 110.907C173.89 110.814 173.74 110.684 173.622 110.528C173.505 110.371 173.423 110.191 173.381 109.999V109.981L172.407 105.336L171.944 103.112C171.923 103.01 171.867 102.918 171.787 102.852C171.706 102.786 171.606 102.75 171.502 102.75H170.295C170.175 102.75 170.06 102.702 169.975 102.617C169.89 102.532 169.842 102.416 169.842 102.296C169.842 102.175 169.89 102.06 169.975 101.975C170.06 101.89 170.175 101.842 170.295 101.842H171.502C171.812 101.844 172.113 101.952 172.353 102.149C172.594 102.346 172.76 102.62 172.823 102.925L173.325 105.336H174.647C174.754 104.635 175.107 103.995 175.644 103.532C176.181 103.07 176.865 102.815 177.572 102.815C178.28 102.815 178.964 103.07 179.501 103.532C180.037 103.995 180.391 104.635 180.498 105.336H180.8C181.002 105.336 181.202 105.381 181.384 105.468ZM178.715 104.067C178.376 103.841 177.978 103.72 177.57 103.72V103.723C177.024 103.724 176.501 103.942 176.115 104.33C175.729 104.717 175.512 105.243 175.511 105.79C175.512 106.199 175.633 106.599 175.86 106.938C176.087 107.278 176.409 107.542 176.785 107.698C177.162 107.854 177.576 107.895 177.976 107.814C178.376 107.734 178.742 107.537 179.03 107.248C179.318 106.958 179.514 106.59 179.593 106.189C179.672 105.788 179.631 105.372 179.475 104.994C179.318 104.617 179.054 104.294 178.715 104.067ZM176.282 113.11C176.317 113.059 176.336 112.998 176.336 112.935C176.337 112.852 176.304 112.772 176.246 112.713C176.189 112.654 176.11 112.62 176.027 112.619C175.965 112.618 175.904 112.636 175.852 112.67C175.799 112.704 175.759 112.752 175.734 112.81C175.71 112.867 175.703 112.93 175.714 112.992C175.726 113.053 175.755 113.11 175.798 113.154C175.842 113.199 175.898 113.229 175.959 113.242C176.019 113.255 176.083 113.249 176.14 113.225C176.198 113.202 176.247 113.162 176.282 113.11ZM179.883 113.11C179.918 113.058 179.936 112.997 179.937 112.935C179.937 112.894 179.929 112.853 179.913 112.814C179.898 112.776 179.875 112.741 179.845 112.712C179.816 112.682 179.782 112.659 179.743 112.643C179.705 112.627 179.664 112.619 179.623 112.619C179.561 112.619 179.5 112.637 179.449 112.672C179.397 112.706 179.357 112.755 179.333 112.813C179.31 112.87 179.303 112.934 179.315 112.995C179.327 113.056 179.357 113.112 179.401 113.156C179.444 113.2 179.5 113.23 179.561 113.242C179.622 113.255 179.685 113.249 179.742 113.225C179.799 113.201 179.849 113.161 179.883 113.11ZM180.61 109.818L181.245 106.791C181.259 106.725 181.258 106.656 181.243 106.591C181.227 106.525 181.198 106.464 181.156 106.411C181.112 106.358 181.058 106.315 180.996 106.287C180.934 106.258 180.866 106.243 180.798 106.244H180.496C180.39 106.946 180.036 107.586 179.499 108.049C178.962 108.511 178.278 108.765 177.571 108.765C176.863 108.765 176.179 108.511 175.643 108.049C175.106 107.586 174.752 106.946 174.645 106.244H173.515L174.259 109.818C174.281 109.92 174.336 110.011 174.417 110.077C174.498 110.142 174.599 110.178 174.703 110.178H180.168C180.271 110.178 180.372 110.142 180.452 110.076C180.533 110.011 180.588 109.919 180.61 109.818ZM177.501 106.508L177.35 106.018L176.861 105.866L177.605 104.996C177.731 104.842 177.901 104.731 178.092 104.677C178.283 104.623 178.486 104.629 178.674 104.694C178.733 104.883 178.735 105.084 178.682 105.275C178.628 105.465 178.521 105.636 178.373 105.767L177.501 106.508ZM178.148 105.108C178.125 105.098 178.101 105.092 178.075 105.092C178.023 105.092 177.973 105.112 177.936 105.15C177.899 105.187 177.878 105.237 177.878 105.29C177.878 105.342 177.899 105.393 177.936 105.43C177.973 105.467 178.023 105.488 178.075 105.488C178.125 105.482 178.17 105.459 178.204 105.423C178.238 105.387 178.258 105.34 178.261 105.29C178.262 105.265 178.258 105.239 178.249 105.216C178.24 105.192 178.226 105.171 178.209 105.152C178.192 105.134 178.171 105.119 178.148 105.108ZM177.152 105.113H176.742L176.427 105.431L176.783 105.551L177.152 105.113ZM177.917 106.942L178.234 106.625V106.215L177.799 106.585L177.917 106.942ZM176.63 106.293C176.479 106.444 176.525 106.836 176.525 106.836C176.525 106.836 176.921 106.875 177.054 106.73C177.085 106.703 177.11 106.669 177.127 106.631C177.144 106.594 177.153 106.553 177.153 106.511C177.153 106.47 177.144 106.429 177.127 106.391C177.11 106.354 177.085 106.32 177.054 106.293C177.028 106.261 176.996 106.236 176.959 106.219C176.923 106.202 176.883 106.193 176.842 106.193C176.802 106.193 176.762 106.202 176.725 106.219C176.689 106.236 176.656 106.261 176.63 106.293Z" fill="white"/>
</svg>
