<svg width="200" height="132" viewBox="0 0 200 132" fill="none" xmlns="http://www.w3.org/2000/svg">
<rect width="200" height="132" fill="#EEF6FF"/>
<rect x="46.4884" y="27" width="48.9767" height="34.4651" rx="1.81395" fill="white"/>
<ellipse cx="62.0146" cy="36.769" rx="3.0745" ry="3.06975" fill="#C0D3E9"/>
<path d="M54.382 45.7489L46.4884 53.7285V59.6505C46.4884 60.6523 47.3005 61.4644 48.3024 61.4644H93.6512C94.653 61.4644 95.4651 60.6523 95.4651 59.6505V53.7285L78.3885 36.4657C77.6785 35.7481 76.5192 35.7481 75.8093 36.4657L63.0832 49.3304C62.3733 50.0481 61.214 50.0481 60.504 49.3304L56.9611 45.7489C56.2512 45.0312 55.0919 45.0312 54.382 45.7489Z" fill="#C0D3E9"/>
<rect x="104.535" y="27" width="48.9767" height="34.4651" rx="1.81395" fill="white"/>
<ellipse cx="120.061" cy="36.769" rx="3.0745" ry="3.06975" fill="#C0D3E9"/>
<path d="M112.428 45.7489L104.535 53.7285V59.6505C104.535 60.6523 105.347 61.4644 106.349 61.4644H151.698C152.7 61.4644 153.512 60.6523 153.512 59.6505V53.7285L136.435 36.4657C135.725 35.7481 134.566 35.7481 133.856 36.4657L121.13 49.3304C120.42 50.0481 119.261 50.0481 118.551 49.3304L115.008 45.7489C114.298 45.0312 113.138 45.0312 112.428 45.7489Z" fill="#C0D3E9"/>
<rect x="46.4884" y="70.5352" width="48.9767" height="34.4651" rx="1.81395" fill="white"/>
<ellipse cx="62.0146" cy="80.3041" rx="3.0745" ry="3.06975" fill="#C0D3E9"/>
<path d="M54.382 89.2841L46.4884 97.2636V103.186C46.4884 104.187 47.3005 105 48.3024 105H93.6512C94.653 105 95.4651 104.187 95.4651 103.186V97.2636L78.3885 80.0009C77.6785 79.2832 76.5192 79.2832 75.8093 80.0009L63.0832 92.8656C62.3733 93.5833 61.214 93.5833 60.504 92.8656L56.9611 89.2841C56.2512 88.5664 55.0919 88.5664 54.382 89.2841Z" fill="#C0D3E9"/>
<rect x="104.535" y="70.5352" width="48.9767" height="34.4651" rx="1.81395" fill="white"/>
<ellipse cx="120.061" cy="80.3041" rx="3.0745" ry="3.06975" fill="#C0D3E9"/>
<path d="M112.428 89.2841L104.535 97.2636V103.186C104.535 104.187 105.347 105 106.349 105H151.698C152.7 105 153.512 104.187 153.512 103.186V97.2636L136.435 80.0009C135.725 79.2832 134.566 79.2832 133.856 80.0009L121.13 92.8656C120.42 93.5833 119.261 93.5833 118.551 92.8656L115.008 89.2841C114.298 88.5664 113.138 88.5664 112.428 89.2841Z" fill="#C0D3E9"/>
<rect x="163" y="53" width="25.9999" height="26.0034" rx="12.9999" fill="#0875FF"/>
<path fill-rule="evenodd" clip-rule="evenodd" d="M181.384 63.4677C181.567 63.5546 181.728 63.6814 181.856 63.8388C181.981 63.995 182.071 64.1772 182.119 64.3724C182.166 64.5676 182.17 64.7709 182.13 64.9678L181.495 67.9946C181.431 68.3004 181.264 68.5748 181.022 68.7718C180.781 68.9688 180.479 69.0765 180.168 69.0767H175.175C175.091 69.0767 175.012 69.1099 174.953 69.169C174.894 69.228 174.861 69.3081 174.861 69.3915C174.861 69.475 174.894 69.5551 174.953 69.6141C175.012 69.6732 175.091 69.7063 175.175 69.7063H179.617C179.858 69.7063 180.094 69.778 180.294 69.9123C180.494 70.0466 180.651 70.2375 180.743 70.4609C180.835 70.6842 180.859 70.93 180.813 71.1672C180.766 71.4044 180.65 71.6223 180.479 71.7933C180.309 71.9644 180.092 72.081 179.856 72.1284C179.619 72.1757 179.374 72.1517 179.152 72.0594C178.929 71.9671 178.738 71.8106 178.604 71.6097C178.47 71.4088 178.398 71.1725 178.398 70.9307C178.398 70.8239 178.413 70.7175 178.44 70.6144H177.207C177.256 70.7978 177.263 70.9903 177.226 71.1767C177.188 71.3631 177.108 71.5382 176.992 71.6882C176.876 71.8382 176.726 71.9589 176.555 72.0408C176.384 72.1228 176.197 72.1636 176.007 72.1602C175.818 72.1568 175.632 72.1092 175.464 72.0211C175.296 71.933 175.151 71.807 175.04 71.6529C174.929 71.4988 174.855 71.3209 174.825 71.1333C174.794 70.9457 174.808 70.7535 174.864 70.572C174.695 70.5266 174.538 70.4453 174.403 70.3334C174.268 70.2216 174.159 70.082 174.083 69.924C174.007 69.766 173.965 69.5934 173.962 69.4179C173.958 69.2425 173.992 69.0683 174.061 68.9072C173.89 68.8139 173.74 68.6845 173.622 68.5278C173.505 68.3711 173.423 68.1908 173.381 67.9992V67.981L172.407 63.3363L171.944 61.1116C171.923 61.0095 171.867 60.9179 171.787 60.8521C171.706 60.7862 171.606 60.7501 171.502 60.7499H170.295C170.175 60.7499 170.06 60.702 169.975 60.6169C169.89 60.5317 169.842 60.4162 169.842 60.2958C169.842 60.1754 169.89 60.0599 169.975 59.9748C170.06 59.8896 170.175 59.8418 170.295 59.8418H171.502C171.812 59.8435 172.113 59.952 172.353 60.1492C172.594 60.3464 172.76 60.6204 172.823 60.9254L173.325 63.3363H174.647C174.754 62.6346 175.107 61.9946 175.644 61.5321C176.181 61.0696 176.865 60.8154 177.572 60.8154C178.28 60.8154 178.964 61.0696 179.501 61.5321C180.037 61.9946 180.391 62.6346 180.498 63.3363H180.8C181.002 63.3359 181.202 63.3808 181.384 63.4677ZM178.715 62.0674C178.376 61.8406 177.978 61.7197 177.57 61.72V61.723C177.024 61.7242 176.501 61.9424 176.115 62.3299C175.729 62.7174 175.512 63.2426 175.511 63.7903C175.512 64.1992 175.633 64.5986 175.86 64.9382C176.087 65.2778 176.409 65.5423 176.785 65.6983C177.162 65.8543 177.576 65.8947 177.976 65.8145C178.376 65.7342 178.742 65.5369 179.03 65.2475C179.318 64.9581 179.514 64.5896 179.593 64.1886C179.672 63.7875 179.631 63.372 179.475 62.9944C179.318 62.6169 179.054 62.2943 178.715 62.0674ZM176.282 71.1102C176.317 71.0585 176.336 70.9976 176.336 70.9352C176.337 70.8523 176.304 70.7725 176.246 70.7133C176.189 70.654 176.11 70.6201 176.027 70.6189C175.965 70.618 175.904 70.6357 175.852 70.6697C175.799 70.7036 175.759 70.7524 175.734 70.8097C175.71 70.8671 175.703 70.9304 175.714 70.9918C175.726 71.0531 175.755 71.1096 175.798 71.1541C175.842 71.1987 175.898 71.2292 175.959 71.2419C176.019 71.2546 176.083 71.2489 176.14 71.2254C176.198 71.2019 176.247 71.1618 176.282 71.1102ZM179.883 71.1097C179.918 71.0582 179.936 70.9974 179.937 70.9352C179.937 70.8938 179.929 70.8527 179.913 70.8143C179.898 70.7759 179.875 70.7411 179.845 70.7117C179.816 70.6823 179.782 70.659 179.743 70.643C179.705 70.6271 179.664 70.6189 179.623 70.6189C179.561 70.6189 179.5 70.6374 179.449 70.6719C179.397 70.7064 179.357 70.7555 179.333 70.8129C179.31 70.8703 179.303 70.9336 179.315 70.9946C179.327 71.0556 179.357 71.1117 179.401 71.1558C179.444 71.1999 179.5 71.23 179.561 71.2423C179.622 71.2546 179.685 71.2486 179.742 71.225C179.799 71.2014 179.849 71.1613 179.883 71.1097ZM180.61 67.8176L181.245 64.7907C181.259 64.7247 181.258 64.6564 181.243 64.5907C181.227 64.525 181.198 64.4635 181.156 64.4108C181.112 64.3578 181.058 64.3153 180.996 64.2865C180.934 64.2577 180.866 64.2433 180.798 64.2444H180.496C180.39 64.946 180.036 65.5861 179.499 66.0486C178.962 66.511 178.278 66.7653 177.571 66.7653C176.863 66.7653 176.179 66.511 175.643 66.0486C175.106 65.5861 174.752 64.946 174.645 64.2444H173.515L174.259 67.8176C174.281 67.9196 174.336 68.011 174.417 68.0766C174.498 68.1422 174.599 68.1779 174.703 68.1778H180.168C180.271 68.1776 180.372 68.1417 180.452 68.0762C180.533 68.0106 180.588 67.9193 180.61 67.8176ZM177.501 64.5081L177.35 64.0178L176.861 63.8665L177.605 62.9962C177.731 62.8424 177.901 62.731 178.092 62.6769C178.283 62.6229 178.486 62.6286 178.674 62.6935C178.733 62.8825 178.735 63.0844 178.682 63.2748C178.628 63.4652 178.521 63.636 178.373 63.7666L177.501 64.5081ZM178.148 63.1085C178.125 63.0981 178.101 63.0924 178.075 63.0916C178.023 63.0916 177.973 63.1125 177.936 63.1496C177.899 63.1868 177.878 63.2373 177.878 63.2898C177.878 63.3424 177.899 63.3928 177.936 63.43C177.973 63.4672 178.023 63.4881 178.075 63.4881C178.125 63.4824 178.17 63.4594 178.204 63.4231C178.238 63.3868 178.258 63.3396 178.261 63.2898C178.262 63.2646 178.258 63.2394 178.249 63.2158C178.24 63.1922 178.226 63.1705 178.209 63.1521C178.192 63.1337 178.171 63.1189 178.148 63.1085ZM177.152 63.1133H176.742L176.427 63.4311L176.783 63.5507L177.152 63.1133ZM177.917 64.9425L178.234 64.6246V64.2145L177.799 64.5853L177.917 64.9425ZM176.63 64.2926C176.479 64.444 176.525 64.8359 176.525 64.8359C176.525 64.8359 176.921 64.8753 177.054 64.73C177.085 64.7027 177.11 64.6691 177.127 64.6314C177.144 64.5937 177.153 64.5527 177.153 64.5113C177.153 64.4699 177.144 64.429 177.127 64.3912C177.11 64.3535 177.085 64.3199 177.054 64.2926C177.028 64.2615 176.996 64.2364 176.959 64.2192C176.923 64.202 176.883 64.1931 176.842 64.1931C176.802 64.1931 176.762 64.202 176.725 64.2192C176.689 64.2364 176.656 64.2615 176.63 64.2926Z" fill="white"/>
</svg>
