<svg width="200" height="132" viewBox="0 0 200 132" fill="none" xmlns="http://www.w3.org/2000/svg">
<rect width="200" height="132" fill="#EEF6FF"/>
<rect x="46.4884" y="27" width="48.9767" height="34.4651" rx="1.81395" fill="white"/>
<ellipse cx="62.0146" cy="36.769" rx="3.0745" ry="3.06975" fill="#C0D3E9"/>
<path d="M54.382 45.7489L46.4884 53.7285V59.6505C46.4884 60.6523 47.3005 61.4644 48.3024 61.4644H93.6512C94.653 61.4644 95.4651 60.6523 95.4651 59.6505V53.7285L78.3885 36.4657C77.6785 35.7481 76.5192 35.7481 75.8093 36.4657L63.0832 49.3304C62.3733 50.0481 61.214 50.0481 60.504 49.3304L56.9611 45.7489C56.2512 45.0312 55.0919 45.0312 54.382 45.7489Z" fill="#C0D3E9"/>
<rect x="104.535" y="27" width="48.9767" height="34.4651" rx="1.81395" fill="white"/>
<ellipse cx="120.061" cy="36.769" rx="3.0745" ry="3.06975" fill="#C0D3E9"/>
<path d="M112.428 45.7489L104.535 53.7285V59.6505C104.535 60.6523 105.347 61.4644 106.349 61.4644H151.698C152.7 61.4644 153.512 60.6523 153.512 59.6505V53.7285L136.435 36.4657C135.725 35.7481 134.566 35.7481 133.856 36.4657L121.13 49.3304C120.42 50.0481 119.261 50.0481 118.551 49.3304L115.008 45.7489C114.298 45.0312 113.138 45.0312 112.428 45.7489Z" fill="#C0D3E9"/>
<rect x="46.4884" y="70.5352" width="48.9767" height="34.4651" rx="1.81395" fill="white"/>
<ellipse cx="62.0146" cy="80.3041" rx="3.0745" ry="3.06975" fill="#C0D3E9"/>
<path d="M54.382 89.2841L46.4884 97.2636V103.186C46.4884 104.187 47.3005 105 48.3024 105H93.6512C94.653 105 95.4651 104.187 95.4651 103.186V97.2636L78.3885 80.0009C77.6785 79.2832 76.5192 79.2832 75.8093 80.0009L63.0832 92.8656C62.3733 93.5833 61.214 93.5833 60.504 92.8656L56.9611 89.2841C56.2512 88.5664 55.0919 88.5664 54.382 89.2841Z" fill="#C0D3E9"/>
<rect x="104.535" y="70.5352" width="48.9767" height="34.4651" rx="1.81395" fill="white"/>
<ellipse cx="120.061" cy="80.3041" rx="3.0745" ry="3.06975" fill="#C0D3E9"/>
<path d="M112.428 89.2841L104.535 97.2636V103.186C104.535 104.187 105.347 105 106.349 105H151.698C152.7 105 153.512 104.187 153.512 103.186V97.2636L136.435 80.0009C135.725 79.2832 134.566 79.2832 133.856 80.0009L121.13 92.8656C120.42 93.5833 119.261 93.5833 118.551 92.8656L115.008 89.2841C114.298 88.5664 113.138 88.5664 112.428 89.2841Z" fill="#C0D3E9"/>
<rect x="11" y="53" width="25.9999" height="26.0034" rx="12.9999" fill="#0875FF"/>
<path fill-rule="evenodd" clip-rule="evenodd" d="M29.3842 63.4677C29.5669 63.5546 29.7279 63.6814 29.8555 63.8388C29.9814 63.995 30.0713 64.1772 30.1188 64.3724C30.1663 64.5676 30.1701 64.7709 30.13 64.9678L29.495 67.9946C29.431 68.3004 29.2642 68.5748 29.0225 68.7718C28.7808 68.9688 28.479 69.0765 28.1676 69.0767H23.1747C23.0915 69.0767 23.0117 69.1099 22.9528 69.169C22.894 69.228 22.8609 69.3081 22.8609 69.3915C22.8609 69.475 22.894 69.5551 22.9528 69.6141C23.0117 69.6732 23.0915 69.7063 23.1747 69.7063H27.617C27.858 69.7063 28.0936 69.778 28.294 69.9123C28.4944 70.0466 28.6506 70.2375 28.7429 70.4609C28.8352 70.6842 28.8594 70.93 28.8125 71.1672C28.7656 71.4044 28.6497 71.6223 28.4794 71.7933C28.3091 71.9644 28.092 72.081 27.8557 72.1284C27.6194 72.1757 27.3744 72.1517 27.1516 72.0594C26.9289 71.9671 26.7384 71.8106 26.6043 71.6097C26.4702 71.4088 26.3985 71.1725 26.3982 70.9307C26.3983 70.8239 26.4125 70.7175 26.4404 70.6144H25.2065C25.2563 70.7978 25.2628 70.9903 25.2256 71.1767C25.1884 71.3631 25.1084 71.5382 24.992 71.6882C24.8756 71.8382 24.726 71.9589 24.5551 72.0408C24.3841 72.1228 24.1965 72.1636 24.0071 72.1602C23.8177 72.1568 23.6316 72.1092 23.4637 72.0211C23.2958 71.933 23.1507 71.807 23.0398 71.6529C22.9289 71.4988 22.8552 71.3209 22.8247 71.1333C22.7942 70.9457 22.8076 70.7535 22.864 70.572C22.695 70.5266 22.5378 70.4453 22.403 70.3334C22.2682 70.2216 22.159 70.082 22.0828 69.924C22.0067 69.766 21.9654 69.5934 21.9617 69.4179C21.958 69.2425 21.992 69.0683 22.0615 68.9072C21.8896 68.8139 21.7399 68.6845 21.6225 68.5278C21.5051 68.3711 21.4228 68.1908 21.3812 67.9992V67.981L20.4067 63.3363L19.9436 61.1116C19.9225 61.0095 19.8671 60.9179 19.7866 60.8521C19.7061 60.7862 19.6055 60.7501 19.5017 60.7499H18.2949C18.1749 60.7499 18.0598 60.702 17.9749 60.6169C17.8901 60.5317 17.8424 60.4162 17.8424 60.2958C17.8424 60.1754 17.8901 60.0599 17.9749 59.9748C18.0598 59.8896 18.1749 59.8418 18.2949 59.8418H19.5017C19.8122 59.8435 20.1128 59.952 20.3533 60.1492C20.5938 60.3464 20.7596 60.6204 20.8231 60.9254L21.3254 63.3363H22.6467C22.7536 62.6346 23.1074 61.9946 23.6441 61.5321C24.1808 61.0696 24.8649 60.8154 25.5723 60.8154C26.2798 60.8154 26.9639 61.0696 27.5006 61.5321C28.0373 61.9946 28.3911 62.6346 28.4979 63.3363H28.7996C29.0018 63.3359 29.2015 63.3808 29.3842 63.4677ZM26.7149 62.0674C26.3759 61.8406 25.9775 61.7197 25.5701 61.72V61.723C25.0241 61.7242 24.5008 61.9424 24.1149 62.3299C23.729 62.7174 23.5119 63.2426 23.5111 63.7903C23.5117 64.1992 23.6331 64.5986 23.8599 64.9382C24.0867 65.2778 24.4088 65.5423 24.7855 65.6983C25.1621 65.8543 25.5764 65.8947 25.976 65.8145C26.3755 65.7342 26.7424 65.5369 27.0302 65.2475C27.318 64.9581 27.5138 64.5896 27.5929 64.1886C27.672 63.7875 27.6308 63.372 27.4745 62.9944C27.3182 62.6169 27.0539 62.2943 26.7149 62.0674ZM24.2822 71.1102C24.3171 71.0585 24.3359 70.9976 24.3362 70.9352C24.3366 70.8523 24.3043 70.7725 24.2464 70.7133C24.1885 70.654 24.1096 70.6201 24.027 70.6189C23.9648 70.618 23.9037 70.6357 23.8516 70.6697C23.7994 70.7036 23.7585 70.7524 23.734 70.8097C23.7095 70.8671 23.7026 70.9304 23.7141 70.9918C23.7255 71.0531 23.7549 71.1096 23.7984 71.1541C23.842 71.1987 23.8977 71.2292 23.9586 71.2419C24.0195 71.2546 24.0828 71.2489 24.1404 71.2254C24.198 71.2019 24.2474 71.1618 24.2822 71.1102ZM27.8832 71.1097C27.9178 71.0582 27.9365 70.9974 27.9368 70.9352C27.937 70.8938 27.929 70.8527 27.9133 70.8143C27.8977 70.7759 27.8746 70.7411 27.8454 70.7117C27.8163 70.6823 27.7816 70.659 27.7435 70.643C27.7053 70.6271 27.6644 70.6189 27.623 70.6189C27.561 70.6189 27.5005 70.6374 27.4489 70.6719C27.3973 70.7064 27.3571 70.7555 27.3333 70.8129C27.3095 70.8703 27.3032 70.9336 27.3152 70.9946C27.3272 71.0556 27.3569 71.1117 27.4007 71.1558C27.4444 71.1999 27.5001 71.23 27.5609 71.2423C27.6217 71.2546 27.6847 71.2486 27.7421 71.225C27.7994 71.2014 27.8485 71.1613 27.8832 71.1097ZM28.6095 67.8176L29.2446 64.7907C29.2588 64.7247 29.2582 64.6564 29.2428 64.5907C29.2275 64.525 29.1976 64.4635 29.1556 64.4108C29.1124 64.3578 29.0578 64.3153 28.9959 64.2865C28.934 64.2577 28.8663 64.2433 28.7981 64.2444H28.4964C28.3896 64.946 28.0358 65.5861 27.4991 66.0486C26.9624 66.511 26.2783 66.7653 25.5708 66.7653C24.8634 66.7653 24.1793 66.511 23.6426 66.0486C23.1059 65.5861 22.7521 64.946 22.6452 64.2444H21.5154L22.2591 67.8176C22.2806 67.9196 22.3364 68.011 22.4171 68.0766C22.4979 68.1422 22.5987 68.1779 22.7026 68.1778H28.1676C28.2712 68.1776 28.3717 68.1417 28.4521 68.0762C28.5326 68.0106 28.5881 67.9193 28.6095 67.8176ZM25.5007 64.5081L25.3498 64.0178L24.8611 63.8665L25.6048 62.9962C25.7311 62.8424 25.9012 62.731 26.0923 62.6769C26.2834 62.6229 26.4865 62.6286 26.6742 62.6935C26.7326 62.8825 26.7351 63.0844 26.6816 63.2748C26.6281 63.4652 26.5207 63.636 26.3726 63.7666L25.5007 64.5081ZM26.1483 63.1085C26.1253 63.0981 26.1006 63.0924 26.0754 63.0916C26.023 63.0916 25.9727 63.1125 25.9357 63.1496C25.8986 63.1868 25.8778 63.2373 25.8778 63.2898C25.8778 63.3424 25.8986 63.3928 25.9357 63.43C25.9727 63.4672 26.023 63.4881 26.0754 63.4881C26.1247 63.4824 26.1704 63.4594 26.2044 63.4231C26.2384 63.3868 26.2584 63.3396 26.2609 63.2898C26.2617 63.2646 26.2576 63.2394 26.2487 63.2158C26.2398 63.1922 26.2264 63.1705 26.2091 63.1521C26.1919 63.1337 26.1712 63.1189 26.1483 63.1085ZM25.1523 63.1133H24.742L24.4267 63.4311L24.7827 63.5507L25.1523 63.1133ZM25.917 64.9425L26.2338 64.6246V64.2145L25.7994 64.5853L25.917 64.9425ZM24.6303 64.2926C24.4794 64.444 24.5247 64.8359 24.5247 64.8359C24.5247 64.8359 24.9214 64.8753 25.0541 64.73C25.0852 64.7027 25.1101 64.6691 25.1272 64.6314C25.1442 64.5937 25.1531 64.5527 25.1531 64.5113C25.1531 64.4699 25.1442 64.429 25.1272 64.3912C25.1101 64.3535 25.0852 64.3199 25.0541 64.2926C25.0282 64.2615 24.9958 64.2364 24.9592 64.2192C24.9226 64.202 24.8826 64.1931 24.8422 64.1931C24.8018 64.1931 24.7618 64.202 24.7252 64.2192C24.6886 64.2364 24.6562 64.2615 24.6303 64.2926Z" fill="white"/>
</svg>
