<svg width="200" height="132" viewBox="0 0 200 132" fill="none" xmlns="http://www.w3.org/2000/svg">
<rect width="200" height="132" fill="#EEF6FF"/>
<rect x="46.4884" y="27" width="48.9767" height="34.4651" rx="1.81395" fill="white"/>
<ellipse cx="62.0146" cy="36.769" rx="3.0745" ry="3.06975" fill="#C0D3E9"/>
<path d="M54.382 45.7489L46.4884 53.7285V59.6505C46.4884 60.6523 47.3005 61.4644 48.3024 61.4644H93.6512C94.653 61.4644 95.4651 60.6523 95.4651 59.6505V53.7285L78.3885 36.4657C77.6785 35.7481 76.5192 35.7481 75.8093 36.4657L63.0832 49.3304C62.3733 50.0481 61.214 50.0481 60.504 49.3304L56.9611 45.7489C56.2512 45.0312 55.0919 45.0312 54.382 45.7489Z" fill="#C0D3E9"/>
<rect x="104.535" y="27" width="48.9767" height="34.4651" rx="1.81395" fill="white"/>
<ellipse cx="120.061" cy="36.769" rx="3.0745" ry="3.06975" fill="#C0D3E9"/>
<path d="M112.428 45.7489L104.535 53.7285V59.6505C104.535 60.6523 105.347 61.4644 106.349 61.4644H151.698C152.7 61.4644 153.512 60.6523 153.512 59.6505V53.7285L136.435 36.4657C135.725 35.7481 134.566 35.7481 133.856 36.4657L121.13 49.3304C120.42 50.0481 119.261 50.0481 118.551 49.3304L115.008 45.7489C114.298 45.0312 113.138 45.0312 112.428 45.7489Z" fill="#C0D3E9"/>
<rect x="46.4884" y="70.5352" width="48.9767" height="34.4651" rx="1.81395" fill="white"/>
<ellipse cx="62.0146" cy="80.3041" rx="3.0745" ry="3.06975" fill="#C0D3E9"/>
<path d="M54.382 89.2841L46.4884 97.2636V103.186C46.4884 104.187 47.3005 105 48.3024 105H93.6512C94.653 105 95.4651 104.187 95.4651 103.186V97.2636L78.3885 80.0009C77.6785 79.2832 76.5192 79.2832 75.8093 80.0009L63.0832 92.8656C62.3733 93.5833 61.214 93.5833 60.504 92.8656L56.9611 89.2841C56.2512 88.5664 55.0919 88.5664 54.382 89.2841Z" fill="#C0D3E9"/>
<rect x="104.535" y="70.5352" width="48.9767" height="34.4651" rx="1.81395" fill="white"/>
<ellipse cx="120.061" cy="80.3041" rx="3.0745" ry="3.06975" fill="#C0D3E9"/>
<path d="M112.428 89.2841L104.535 97.2636V103.186C104.535 104.187 105.347 105 106.349 105H151.698C152.7 105 153.512 104.187 153.512 103.186V97.2636L136.435 80.0009C135.725 79.2832 134.566 79.2832 133.856 80.0009L121.13 92.8656C120.42 93.5833 119.261 93.5833 118.551 92.8656L115.008 89.2841C114.298 88.5664 113.138 88.5664 112.428 89.2841Z" fill="#C0D3E9"/>
<rect x="163" y="11" width="25.9999" height="26.0034" rx="12.9999" fill="#0875FF"/>
<path fill-rule="evenodd" clip-rule="evenodd" d="M181.384 21.4677C181.567 21.5546 181.728 21.6814 181.856 21.8388C181.981 21.995 182.071 22.1772 182.119 22.3724C182.166 22.5676 182.17 22.7709 182.13 22.9678L181.495 25.9946C181.431 26.3004 181.264 26.5748 181.022 26.7718C180.781 26.9688 180.479 27.0765 180.168 27.0767H175.175C175.091 27.0767 175.012 27.1099 174.953 27.169C174.894 27.228 174.861 27.3081 174.861 27.3915C174.861 27.475 174.894 27.5551 174.953 27.6141C175.012 27.6732 175.091 27.7063 175.175 27.7063H179.617C179.858 27.7063 180.094 27.778 180.294 27.9123C180.494 28.0466 180.651 28.2375 180.743 28.4609C180.835 28.6842 180.859 28.93 180.813 29.1672C180.766 29.4044 180.65 29.6223 180.479 29.7933C180.309 29.9644 180.092 30.081 179.856 30.1284C179.619 30.1757 179.374 30.1517 179.152 30.0594C178.929 29.9671 178.738 29.8106 178.604 29.6097C178.47 29.4088 178.398 29.1725 178.398 28.9307C178.398 28.8239 178.413 28.7175 178.44 28.6144H177.207C177.256 28.7978 177.263 28.9903 177.226 29.1767C177.188 29.3631 177.108 29.5382 176.992 29.6882C176.876 29.8382 176.726 29.9589 176.555 30.0408C176.384 30.1228 176.197 30.1636 176.007 30.1602C175.818 30.1568 175.632 30.1092 175.464 30.0211C175.296 29.933 175.151 29.807 175.04 29.6529C174.929 29.4988 174.855 29.3209 174.825 29.1333C174.794 28.9457 174.808 28.7535 174.864 28.572C174.695 28.5266 174.538 28.4453 174.403 28.3334C174.268 28.2216 174.159 28.082 174.083 27.924C174.007 27.766 173.965 27.5934 173.962 27.4179C173.958 27.2425 173.992 27.0683 174.061 26.9072C173.89 26.8139 173.74 26.6845 173.622 26.5278C173.505 26.3711 173.423 26.1908 173.381 25.9992V25.981L172.407 21.3363L171.944 19.1116C171.923 19.0095 171.867 18.9179 171.787 18.8521C171.706 18.7862 171.606 18.7501 171.502 18.7499H170.295C170.175 18.7499 170.06 18.702 169.975 18.6169C169.89 18.5317 169.842 18.4162 169.842 18.2958C169.842 18.1754 169.89 18.0599 169.975 17.9748C170.06 17.8896 170.175 17.8418 170.295 17.8418H171.502C171.812 17.8435 172.113 17.952 172.353 18.1492C172.594 18.3464 172.76 18.6204 172.823 18.9254L173.325 21.3363H174.647C174.754 20.6346 175.107 19.9946 175.644 19.5321C176.181 19.0696 176.865 18.8154 177.572 18.8154C178.28 18.8154 178.964 19.0696 179.501 19.5321C180.037 19.9946 180.391 20.6346 180.498 21.3363H180.8C181.002 21.3359 181.202 21.3808 181.384 21.4677ZM178.715 20.0674C178.376 19.8406 177.978 19.7197 177.57 19.72V19.723C177.024 19.7242 176.501 19.9424 176.115 20.3299C175.729 20.7174 175.512 21.2426 175.511 21.7903C175.512 22.1992 175.633 22.5986 175.86 22.9382C176.087 23.2778 176.409 23.5423 176.785 23.6983C177.162 23.8543 177.576 23.8947 177.976 23.8145C178.376 23.7342 178.742 23.5369 179.03 23.2475C179.318 22.9581 179.514 22.5896 179.593 22.1886C179.672 21.7875 179.631 21.372 179.475 20.9944C179.318 20.6169 179.054 20.2943 178.715 20.0674ZM176.282 29.1102C176.317 29.0585 176.336 28.9976 176.336 28.9352C176.337 28.8523 176.304 28.7725 176.246 28.7133C176.189 28.654 176.11 28.6201 176.027 28.6189C175.965 28.618 175.904 28.6357 175.852 28.6697C175.799 28.7036 175.759 28.7524 175.734 28.8097C175.71 28.8671 175.703 28.9304 175.714 28.9918C175.726 29.0531 175.755 29.1096 175.798 29.1541C175.842 29.1987 175.898 29.2292 175.959 29.2419C176.019 29.2546 176.083 29.2489 176.14 29.2254C176.198 29.2019 176.247 29.1618 176.282 29.1102ZM179.883 29.1097C179.918 29.0582 179.936 28.9974 179.937 28.9352C179.937 28.8938 179.929 28.8527 179.913 28.8143C179.898 28.7759 179.875 28.7411 179.845 28.7117C179.816 28.6823 179.782 28.659 179.743 28.643C179.705 28.6271 179.664 28.6189 179.623 28.6189C179.561 28.6189 179.5 28.6374 179.449 28.6719C179.397 28.7064 179.357 28.7555 179.333 28.8129C179.31 28.8703 179.303 28.9336 179.315 28.9946C179.327 29.0556 179.357 29.1117 179.401 29.1558C179.444 29.1999 179.5 29.23 179.561 29.2423C179.622 29.2546 179.685 29.2486 179.742 29.225C179.799 29.2014 179.849 29.1613 179.883 29.1097ZM180.61 25.8176L181.245 22.7907C181.259 22.7247 181.258 22.6564 181.243 22.5907C181.227 22.525 181.198 22.4635 181.156 22.4108C181.112 22.3578 181.058 22.3153 180.996 22.2865C180.934 22.2577 180.866 22.2433 180.798 22.2444H180.496C180.39 22.946 180.036 23.5861 179.499 24.0486C178.962 24.511 178.278 24.7653 177.571 24.7653C176.863 24.7653 176.179 24.511 175.643 24.0486C175.106 23.5861 174.752 22.946 174.645 22.2444H173.515L174.259 25.8176C174.281 25.9196 174.336 26.011 174.417 26.0766C174.498 26.1422 174.599 26.1779 174.703 26.1778H180.168C180.271 26.1776 180.372 26.1417 180.452 26.0762C180.533 26.0106 180.588 25.9193 180.61 25.8176ZM177.501 22.5081L177.35 22.0178L176.861 21.8665L177.605 20.9962C177.731 20.8424 177.901 20.731 178.092 20.6769C178.283 20.6229 178.486 20.6286 178.674 20.6935C178.733 20.8825 178.735 21.0844 178.682 21.2748C178.628 21.4652 178.521 21.636 178.373 21.7666L177.501 22.5081ZM178.148 21.1085C178.125 21.0981 178.101 21.0924 178.075 21.0916C178.023 21.0916 177.973 21.1125 177.936 21.1496C177.899 21.1868 177.878 21.2373 177.878 21.2898C177.878 21.3424 177.899 21.3928 177.936 21.43C177.973 21.4672 178.023 21.4881 178.075 21.4881C178.125 21.4824 178.17 21.4594 178.204 21.4231C178.238 21.3868 178.258 21.3396 178.261 21.2898C178.262 21.2646 178.258 21.2394 178.249 21.2158C178.24 21.1922 178.226 21.1705 178.209 21.1521C178.192 21.1337 178.171 21.1189 178.148 21.1085ZM177.152 21.1133H176.742L176.427 21.4311L176.783 21.5507L177.152 21.1133ZM177.917 22.9425L178.234 22.6246V22.2145L177.799 22.5853L177.917 22.9425ZM176.63 22.2926C176.479 22.444 176.525 22.8359 176.525 22.8359C176.525 22.8359 176.921 22.8753 177.054 22.73C177.085 22.7027 177.11 22.6691 177.127 22.6314C177.144 22.5937 177.153 22.5527 177.153 22.5113C177.153 22.4699 177.144 22.429 177.127 22.3912C177.11 22.3535 177.085 22.3199 177.054 22.2926C177.028 22.2615 176.996 22.2364 176.959 22.2192C176.923 22.202 176.883 22.1931 176.842 22.1931C176.802 22.1931 176.762 22.202 176.725 22.2192C176.689 22.2364 176.656 22.2615 176.63 22.2926Z" fill="white"/>
</svg>
