<svg width="200" height="132" viewBox="0 0 200 132" fill="none" xmlns="http://www.w3.org/2000/svg">
<rect width="200" height="132" fill="#EEF6FF"/>
<rect x="46.4884" y="27" width="48.9767" height="34.4651" rx="1.81395" fill="white"/>
<ellipse cx="62.0146" cy="36.769" rx="3.0745" ry="3.06975" fill="#C0D3E9"/>
<path d="M54.382 45.7489L46.4884 53.7285V59.6505C46.4884 60.6523 47.3005 61.4644 48.3024 61.4644H93.6512C94.653 61.4644 95.4651 60.6523 95.4651 59.6505V53.7285L78.3885 36.4657C77.6785 35.7481 76.5192 35.7481 75.8093 36.4657L63.0832 49.3304C62.3733 50.0481 61.214 50.0481 60.504 49.3304L56.9611 45.7489C56.2512 45.0312 55.0919 45.0312 54.382 45.7489Z" fill="#C0D3E9"/>
<rect x="104.535" y="27" width="48.9767" height="34.4651" rx="1.81395" fill="white"/>
<ellipse cx="120.061" cy="36.769" rx="3.0745" ry="3.06975" fill="#C0D3E9"/>
<path d="M112.428 45.7489L104.535 53.7285V59.6505C104.535 60.6523 105.347 61.4644 106.349 61.4644H151.698C152.7 61.4644 153.512 60.6523 153.512 59.6505V53.7285L136.435 36.4657C135.725 35.7481 134.566 35.7481 133.856 36.4657L121.13 49.3304C120.42 50.0481 119.261 50.0481 118.551 49.3304L115.008 45.7489C114.298 45.0312 113.138 45.0312 112.428 45.7489Z" fill="#C0D3E9"/>
<rect x="46.4884" y="70.5352" width="48.9767" height="34.4651" rx="1.81395" fill="white"/>
<ellipse cx="62.0146" cy="80.3041" rx="3.0745" ry="3.06975" fill="#C0D3E9"/>
<path d="M54.382 89.2841L46.4884 97.2636V103.186C46.4884 104.187 47.3005 105 48.3024 105H93.6512C94.653 105 95.4651 104.187 95.4651 103.186V97.2636L78.3885 80.0009C77.6785 79.2832 76.5192 79.2832 75.8093 80.0009L63.0832 92.8656C62.3733 93.5833 61.214 93.5833 60.504 92.8656L56.9611 89.2841C56.2512 88.5664 55.0919 88.5664 54.382 89.2841Z" fill="#C0D3E9"/>
<rect x="104.535" y="70.5352" width="48.9767" height="34.4651" rx="1.81395" fill="white"/>
<ellipse cx="120.061" cy="80.3041" rx="3.0745" ry="3.06975" fill="#C0D3E9"/>
<path d="M112.428 89.2841L104.535 97.2636V103.186C104.535 104.187 105.347 105 106.349 105H151.698C152.7 105 153.512 104.187 153.512 103.186V97.2636L136.435 80.0009C135.725 79.2832 134.566 79.2832 133.856 80.0009L121.13 92.8656C120.42 93.5833 119.261 93.5833 118.551 92.8656L115.008 89.2841C114.298 88.5664 113.138 88.5664 112.428 89.2841Z" fill="#C0D3E9"/>
<rect x="11" y="11" width="25.9999" height="26.0034" rx="12.9999" fill="#0875FF"/>
<path fill-rule="evenodd" clip-rule="evenodd" d="M29.3842 21.4677C29.5669 21.5546 29.7279 21.6814 29.8555 21.8388C29.9814 21.995 30.0713 22.1772 30.1188 22.3724C30.1663 22.5676 30.1701 22.7709 30.13 22.9678L29.495 25.9946C29.431 26.3004 29.2642 26.5748 29.0225 26.7718C28.7808 26.9688 28.479 27.0765 28.1676 27.0767H23.1747C23.0915 27.0767 23.0117 27.1099 22.9528 27.169C22.894 27.228 22.8609 27.3081 22.8609 27.3915C22.8609 27.475 22.894 27.5551 22.9528 27.6141C23.0117 27.6732 23.0915 27.7063 23.1747 27.7063H27.617C27.858 27.7063 28.0936 27.778 28.294 27.9123C28.4944 28.0466 28.6506 28.2375 28.7429 28.4609C28.8352 28.6842 28.8594 28.93 28.8125 29.1672C28.7656 29.4044 28.6497 29.6223 28.4794 29.7933C28.3091 29.9644 28.092 30.081 27.8557 30.1284C27.6194 30.1757 27.3744 30.1517 27.1516 30.0594C26.9289 29.9671 26.7384 29.8106 26.6043 29.6097C26.4702 29.4088 26.3985 29.1725 26.3982 28.9307C26.3983 28.8239 26.4125 28.7175 26.4404 28.6144H25.2065C25.2563 28.7978 25.2628 28.9903 25.2256 29.1767C25.1884 29.3631 25.1084 29.5382 24.992 29.6882C24.8756 29.8382 24.726 29.9589 24.5551 30.0408C24.3841 30.1228 24.1965 30.1636 24.0071 30.1602C23.8177 30.1568 23.6316 30.1092 23.4637 30.0211C23.2958 29.933 23.1507 29.807 23.0398 29.6529C22.9289 29.4988 22.8552 29.3209 22.8247 29.1333C22.7942 28.9457 22.8076 28.7535 22.864 28.572C22.695 28.5266 22.5378 28.4453 22.403 28.3334C22.2682 28.2216 22.159 28.082 22.0828 27.924C22.0067 27.766 21.9654 27.5934 21.9617 27.4179C21.958 27.2425 21.992 27.0683 22.0615 26.9072C21.8896 26.8139 21.7399 26.6845 21.6225 26.5278C21.5051 26.3711 21.4228 26.1908 21.3812 25.9992V25.981L20.4067 21.3363L19.9436 19.1116C19.9225 19.0095 19.8671 18.9179 19.7866 18.8521C19.7061 18.7862 19.6055 18.7501 19.5017 18.7499H18.2949C18.1749 18.7499 18.0598 18.702 17.9749 18.6169C17.8901 18.5317 17.8424 18.4162 17.8424 18.2958C17.8424 18.1754 17.8901 18.0599 17.9749 17.9748C18.0598 17.8896 18.1749 17.8418 18.2949 17.8418H19.5017C19.8122 17.8435 20.1128 17.952 20.3533 18.1492C20.5938 18.3464 20.7596 18.6204 20.8231 18.9254L21.3254 21.3363H22.6467C22.7536 20.6346 23.1074 19.9946 23.6441 19.5321C24.1808 19.0696 24.8649 18.8154 25.5723 18.8154C26.2798 18.8154 26.9639 19.0696 27.5006 19.5321C28.0373 19.9946 28.3911 20.6346 28.4979 21.3363H28.7996C29.0018 21.3359 29.2015 21.3808 29.3842 21.4677ZM26.7149 20.0674C26.3759 19.8406 25.9775 19.7197 25.5701 19.72V19.723C25.0241 19.7242 24.5008 19.9424 24.1149 20.3299C23.729 20.7174 23.5119 21.2426 23.5111 21.7903C23.5117 22.1992 23.6331 22.5986 23.8599 22.9382C24.0867 23.2778 24.4088 23.5423 24.7855 23.6983C25.1621 23.8543 25.5764 23.8947 25.976 23.8145C26.3755 23.7342 26.7424 23.5369 27.0302 23.2475C27.318 22.9581 27.5138 22.5896 27.5929 22.1886C27.672 21.7875 27.6308 21.372 27.4745 20.9944C27.3182 20.6169 27.0539 20.2943 26.7149 20.0674ZM24.2822 29.1102C24.3171 29.0585 24.3359 28.9976 24.3362 28.9352C24.3366 28.8523 24.3043 28.7725 24.2464 28.7133C24.1885 28.654 24.1096 28.6201 24.027 28.6189C23.9648 28.618 23.9037 28.6357 23.8516 28.6697C23.7994 28.7036 23.7585 28.7524 23.734 28.8097C23.7095 28.8671 23.7026 28.9304 23.7141 28.9918C23.7255 29.0531 23.7549 29.1096 23.7984 29.1541C23.842 29.1987 23.8977 29.2292 23.9586 29.2419C24.0195 29.2546 24.0828 29.2489 24.1404 29.2254C24.198 29.2019 24.2474 29.1618 24.2822 29.1102ZM27.8832 29.1097C27.9178 29.0582 27.9365 28.9974 27.9368 28.9352C27.937 28.8938 27.929 28.8527 27.9133 28.8143C27.8977 28.7759 27.8746 28.7411 27.8454 28.7117C27.8163 28.6823 27.7816 28.659 27.7435 28.643C27.7053 28.6271 27.6644 28.6189 27.623 28.6189C27.561 28.6189 27.5005 28.6374 27.4489 28.6719C27.3973 28.7064 27.3571 28.7555 27.3333 28.8129C27.3095 28.8703 27.3032 28.9336 27.3152 28.9946C27.3272 29.0556 27.3569 29.1117 27.4007 29.1558C27.4444 29.1999 27.5001 29.23 27.5609 29.2423C27.6217 29.2546 27.6847 29.2486 27.7421 29.225C27.7994 29.2014 27.8485 29.1613 27.8832 29.1097ZM28.6095 25.8176L29.2446 22.7907C29.2588 22.7247 29.2582 22.6564 29.2428 22.5907C29.2275 22.525 29.1976 22.4635 29.1556 22.4108C29.1124 22.3578 29.0578 22.3153 28.9959 22.2865C28.934 22.2577 28.8663 22.2433 28.7981 22.2444H28.4964C28.3896 22.946 28.0358 23.5861 27.4991 24.0486C26.9624 24.511 26.2783 24.7653 25.5708 24.7653C24.8634 24.7653 24.1793 24.511 23.6426 24.0486C23.1059 23.5861 22.7521 22.946 22.6452 22.2444H21.5154L22.2591 25.8176C22.2806 25.9196 22.3364 26.011 22.4171 26.0766C22.4979 26.1422 22.5987 26.1779 22.7026 26.1778H28.1676C28.2712 26.1776 28.3717 26.1417 28.4521 26.0762C28.5326 26.0106 28.5881 25.9193 28.6095 25.8176ZM25.5007 22.5081L25.3498 22.0178L24.8611 21.8665L25.6048 20.9962C25.7311 20.8424 25.9012 20.731 26.0923 20.6769C26.2834 20.6229 26.4865 20.6286 26.6742 20.6935C26.7326 20.8825 26.7351 21.0844 26.6816 21.2748C26.6281 21.4652 26.5207 21.636 26.3726 21.7666L25.5007 22.5081ZM26.1483 21.1085C26.1253 21.0981 26.1006 21.0924 26.0754 21.0916C26.023 21.0916 25.9727 21.1125 25.9357 21.1496C25.8986 21.1868 25.8778 21.2373 25.8778 21.2898C25.8778 21.3424 25.8986 21.3928 25.9357 21.43C25.9727 21.4672 26.023 21.4881 26.0754 21.4881C26.1247 21.4824 26.1704 21.4594 26.2044 21.4231C26.2384 21.3868 26.2584 21.3396 26.2609 21.2898C26.2617 21.2646 26.2576 21.2394 26.2487 21.2158C26.2398 21.1922 26.2264 21.1705 26.2091 21.1521C26.1919 21.1337 26.1712 21.1189 26.1483 21.1085ZM25.1523 21.1133H24.742L24.4267 21.4311L24.7827 21.5507L25.1523 21.1133ZM25.917 22.9425L26.2338 22.6246V22.2145L25.7994 22.5853L25.917 22.9425ZM24.6303 22.2926C24.4794 22.444 24.5247 22.8359 24.5247 22.8359C24.5247 22.8359 24.9214 22.8753 25.0541 22.73C25.0852 22.7027 25.1101 22.6691 25.1272 22.6314C25.1442 22.5937 25.1531 22.5527 25.1531 22.5113C25.1531 22.4699 25.1442 22.429 25.1272 22.3912C25.1101 22.3535 25.0852 22.3199 25.0541 22.2926C25.0282 22.2615 24.9958 22.2364 24.9592 22.2192C24.9226 22.202 24.8826 22.1931 24.8422 22.1931C24.8018 22.1931 24.7618 22.202 24.7252 22.2192C24.6886 22.2364 24.6562 22.2615 24.6303 22.2926Z" fill="white"/>
</svg>
