<svg width="38" height="34" viewBox="0 0 38 34" fill="none" xmlns="http://www.w3.org/2000/svg">
<path d="M37.9866 14.7445L37.1648 4.59218C37.0081 2.59692 35.4833 1.03201 33.5405 0.860847L23.6745 0.0148169C22.5108 -0.0878804 21.3707 0.34736 20.5442 1.19339L19.9314 1.82425L15.9034 1.47703C14.7443 1.37433 13.5996 1.80957 12.773 2.6556L1.98079 13.7763C0.703016 15.0918 0 16.8425 0 18.7057C0 20.5641 0.703016 22.3099 1.98079 23.6254L10.6877 32.5845C11.4383 33.3572 12.431 33.7778 13.4903 33.7778C14.5496 33.7778 15.5471 33.3572 16.2929 32.5845L16.6681 32.2031L17.0386 32.5845C17.7891 33.3572 18.7819 33.7778 19.8412 33.7778C20.9005 33.7778 21.898 33.3572 22.6438 32.5845L36.8466 17.9673C37.6683 17.1213 38.0816 15.9427 37.9866 14.7445ZM14.6446 30.8925C14.0223 31.5282 12.9535 31.5282 12.336 30.8925L3.62908 21.9236C2.79306 21.0629 2.3323 19.9185 2.3323 18.7008C2.3323 17.4831 2.79306 16.3339 3.62908 15.4732L14.4261 4.35745C14.7348 4.03957 15.1481 3.86352 15.5803 3.86352C15.6231 3.86352 15.6706 3.86841 15.7134 3.86841L17.7749 4.04446L6.35089 15.8155C5.60038 16.5882 5.19187 17.6103 5.19187 18.7057C5.19187 19.7963 5.60038 20.8184 6.35089 21.591L15.0151 30.511L14.6446 30.8925ZM35.1888 16.2703L20.9907 30.8925C20.3732 31.5282 19.2997 31.5282 18.6822 30.8925L7.99443 19.8892C7.68567 19.5713 7.51942 19.1507 7.51942 18.7057C7.51942 18.2558 7.68567 17.8304 7.99443 17.5174L20.8245 4.31343L22.1972 2.90012C22.506 2.58225 22.9145 2.4062 23.3468 2.4062C23.3943 2.4062 23.437 2.41109 23.4798 2.41598L27.1896 2.73385L33.3457 3.25712C34.1438 3.32558 34.766 3.97111 34.8373 4.79269L35.6543 14.9499C35.7018 15.439 35.5308 15.9182 35.1888 16.2703Z" fill="#0875FF"/>
<path d="M26.3888 12.6673C24.6422 12.6673 23.2222 11.2473 23.2222 9.50065C23.2222 7.75401 24.6422 6.33398 26.3888 6.33398C28.1355 6.33398 29.5555 7.75401 29.5555 9.50065C29.5555 11.2473 28.1355 12.6673 26.3888 12.6673ZM26.3888 8.6581C25.925 8.6581 25.5463 9.03677 25.5463 9.50065C25.5463 9.96453 25.925 10.3432 26.3888 10.3432C26.8527 10.3432 27.2314 9.96453 27.2314 9.50065C27.2314 9.03677 26.8527 8.6581 26.3888 8.6581Z" fill="#0875FF"/>
<path d="M20.0553 25.3333C18.3087 25.3333 16.8887 23.9133 16.8887 22.1667C16.8887 20.42 18.3087 19 20.0553 19C21.802 19 23.222 20.42 23.222 22.1667C23.222 23.9133 21.802 25.3333 20.0553 25.3333ZM20.0553 21.3241C19.5915 21.3241 19.2128 21.7028 19.2128 22.1667C19.2128 22.6305 19.5915 23.0092 20.0553 23.0092C20.5192 23.0092 20.8979 22.6305 20.8979 22.1667C20.8979 21.7028 20.5239 21.3241 20.0553 21.3241Z" fill="#0875FF"/>
<path d="M30.4658 16.8885H13.8672C13.2007 16.8885 12.6665 16.4145 12.6665 15.8329C12.6665 15.247 13.2056 14.7773 13.8672 14.7773H30.4658C31.1323 14.7773 31.6665 15.2513 31.6665 15.8329C31.6665 16.4188 31.1274 16.8885 30.4658 16.8885Z" fill="#0875FF"/>
</svg>
