<svg width="347" height="170" viewBox="0 0 347 170" fill="none" xmlns="http://www.w3.org/2000/svg">
<path d="M0 10C0 4.47715 4.47715 0 10 0H337C342.523 0 347 4.47715 347 10V170H0V10Z" fill="url(#paint0_linear_1977_150)"/>
<path opacity="0.1" d="M108.5 141L179 170H347V22L231 60.5L158 17.5L108.5 141Z" fill="white"/>
<path opacity="0.1" d="M129 170H92H81L139.5 116L129 170Z" fill="white"/>
<path opacity="0.1" d="M336 170H299H288L347 116L336 170Z" fill="white"/>
<rect x="29" y="59" width="80" height="10" rx="5" fill="white"/>
<rect opacity="0.4" x="30" y="99" width="70" height="5" rx="2.5" fill="white"/>
<rect opacity="0.4" x="30" y="89" width="90" height="5" rx="2.5" fill="white"/>
<rect opacity="0.4" x="30" y="79" width="100" height="5" rx="2.5" fill="white"/>
<rect opacity="0.4" x="29" y="118" width="43" height="20" rx="10" fill="white"/>
<rect x="39" y="125" width="23" height="6" rx="3" fill="white"/>
<rect opacity="0.4" x="147.5" y="49.5" width="79" height="99" rx="4.5" stroke="white"/>
<rect opacity="0.4" x="237.5" y="49.5" width="79" height="99" rx="4.5" stroke="white"/>
<rect x="167" y="99" width="40" height="5" rx="2.5" fill="white"/>
<rect x="257" y="99" width="40" height="5" rx="2.5" fill="white"/>
<rect opacity="0.4" x="170" y="128" width="34" height="12" rx="6" fill="white"/>
<rect opacity="0.4" x="260" y="128" width="34" height="12" rx="6" fill="white"/>
<rect opacity="0.4" x="157" y="111" width="60" height="3" rx="1.5" fill="white"/>
<rect opacity="0.4" x="247" y="111" width="60" height="3" rx="1.5" fill="white"/>
<rect opacity="0.4" x="162" y="117" width="50" height="3" rx="1.5" fill="white"/>
<rect opacity="0.4" x="252" y="117" width="50" height="3" rx="1.5" fill="white"/>
<rect x="180" y="132" width="14" height="4" rx="2" fill="white"/>
<rect x="270" y="132" width="14" height="4" rx="2" fill="white"/>
<path d="M151 56C151 54.3431 152.343 53 154 53H220C221.657 53 223 54.3431 223 56V91H151V56Z" fill="white"/>
<rect opacity="0.3" x="241" y="53" width="72" height="38" rx="3" fill="white"/>
<rect x="151" y="90" width="72" height="1" fill="#FFA8A8"/>
<rect x="151" y="90" width="36" height="1" fill="#FF0000"/>
<path d="M187 64.5C185.517 64.5 184.067 64.9399 182.833 65.764C181.6 66.5881 180.639 67.7594 180.071 69.1299C179.503 70.5003 179.355 72.0083 179.644 73.4632C179.934 74.918 180.648 76.2544 181.697 77.3033C182.746 78.3522 184.082 79.0665 185.537 79.3559C186.992 79.6453 188.5 79.4968 189.87 78.9291C191.241 78.3614 192.412 77.4001 193.236 76.1668C194.06 74.9334 194.5 73.4834 194.5 72C194.5 71.0151 194.306 70.0398 193.929 69.1299C193.552 68.2199 193 67.3931 192.303 66.6967C191.607 66.0003 190.78 65.4478 189.87 65.0709C188.96 64.694 187.985 64.5 187 64.5ZM185.5 75.375V68.625L190 72L185.5 75.375Z" fill="#FF0000"/>
<path d="M258.431 66.4858L242.25 78.1023C241.465 78.6658 241 79.573 241 80.5393V88C241 89.6569 242.343 91 244 91H310C311.657 91 313 89.6569 313 88V80.6128C313 79.6057 312.495 78.6659 311.655 78.1104L284.044 59.8514C282.854 59.065 281.276 59.2242 280.268 60.2325L270.121 70.3787C268.95 71.5503 267.05 71.5503 265.879 70.3787L262.301 66.8014C261.263 65.7625 259.624 65.6289 258.431 66.4858Z" fill="white"/>
<path d="M0 10C0 4.47715 4.47715 0 10 0H337C342.523 0 347 4.47715 347 10V29H0V10Z" fill="#373853"/>
<g clip-path="url(#clip0_1977_150)">
<path d="M15.7734 14.6147C15.7368 14.5398 15.7368 14.4539 15.7734 14.379L16.1128 13.6848C16.3018 13.2982 16.152 12.8375 15.772 12.6358L15.0894 12.2737C15.0157 12.2346 14.9652 12.1651 14.9508 12.083L14.8173 11.3218C14.743 10.8981 14.351 10.6133 13.925 10.6735L13.1599 10.7818C13.0773 10.7934 12.9957 10.7669 12.9357 10.7089L12.3804 10.1716C12.0711 9.87248 11.5867 9.87246 11.2774 10.1716L10.722 10.709C10.6621 10.767 10.5804 10.7934 10.4979 10.7818L9.73274 10.6736C9.30667 10.6133 8.9148 10.8981 8.84046 11.3219L8.70696 12.083C8.69254 12.1651 8.64205 12.2346 8.56843 12.2737L7.88581 12.6359C7.50575 12.8375 7.35604 13.2983 7.54499 13.6848L7.88434 14.3791C7.92095 14.454 7.92095 14.5399 7.88434 14.6148L7.54497 15.309C7.35602 15.6956 7.50573 16.1563 7.8858 16.358L8.56841 16.7201C8.64205 16.7592 8.69254 16.8287 8.70696 16.9108L8.84046 17.672C8.90813 18.0578 9.23894 18.3283 9.61913 18.3283C9.65657 18.3283 9.69457 18.3256 9.73276 18.3202L10.4979 18.212C10.5804 18.2003 10.6621 18.2269 10.722 18.2849L11.2774 18.8221C11.4321 18.9717 11.6304 19.0465 11.8289 19.0465C12.0273 19.0465 12.2258 18.9717 12.3803 18.8221L12.9357 18.2849C12.9957 18.2269 13.0774 18.2004 13.1599 18.212L13.925 18.3202C14.3512 18.3805 14.743 18.0957 14.8173 17.672L14.9508 16.9108C14.9652 16.8287 15.0157 16.7592 15.0894 16.7201L15.772 16.358C16.152 16.1563 16.3018 15.6956 16.1128 15.309L15.7734 14.6147ZM10.7793 12.1353C11.3098 12.1353 11.7414 12.5669 11.7414 13.0974C11.7414 13.628 11.3098 14.0596 10.7793 14.0596C10.2487 14.0596 9.81712 13.628 9.81712 13.0974C9.81712 12.5669 10.2487 12.1353 10.7793 12.1353ZM10.2827 16.4142C10.2314 16.4654 10.1643 16.4911 10.0971 16.4911C10.03 16.4911 9.9628 16.4654 9.91158 16.4142C9.80911 16.3117 9.80911 16.1456 9.91158 16.0431L13.3751 12.5796C13.4776 12.4771 13.6437 12.4771 13.7462 12.5796C13.8487 12.6821 13.8487 12.8482 13.7462 12.9507L10.2827 16.4142ZM12.8785 16.8585C12.3479 16.8585 11.9163 16.4269 11.9163 15.8964C11.9163 15.3659 12.3479 14.9342 12.8785 14.9342C13.409 14.9342 13.8406 15.3659 13.8406 15.8964C13.8406 16.4269 13.409 16.8585 12.8785 16.8585Z" fill="white"/>
<path d="M12.8785 15.4609C12.6374 15.4609 12.4412 15.6571 12.4412 15.8983C12.4412 16.1394 12.6373 16.3356 12.8785 16.3356C13.1197 16.3356 13.3158 16.1394 13.3158 15.8983C13.3158 15.6571 13.1197 15.4609 12.8785 15.4609Z" fill="white"/>
<path d="M10.7794 12.6621C10.5382 12.6621 10.342 12.8583 10.342 13.0994C10.342 13.3406 10.5382 13.5368 10.7794 13.5368C11.0205 13.5368 11.2167 13.3406 11.2167 13.0994C11.2167 12.8583 11.0205 12.6621 10.7794 12.6621Z" fill="white"/>
</g>
<path d="M50.3661 16.5611C49.9008 16.5611 49.5356 16.4049 49.2706 16.0924C49.0056 15.7764 48.8732 15.3195 48.8732 14.7217C48.8732 14.4227 48.9071 14.1594 48.9751 13.9318C49.043 13.7042 49.1415 13.5123 49.2706 13.356C49.3997 13.1998 49.556 13.0826 49.7394 13.0045C49.9262 12.9229 50.1351 12.8822 50.3661 12.8822C50.6753 12.8822 50.9334 12.9501 51.1407 13.086C51.3513 13.2219 51.516 13.4223 51.6349 13.6873L51.1509 13.9522C51.0897 13.7824 50.9946 13.6482 50.8655 13.5497C50.7398 13.4478 50.5734 13.3968 50.3661 13.3968C50.091 13.3968 49.8753 13.4902 49.719 13.6771C49.5627 13.8639 49.4846 14.1221 49.4846 14.4516V14.9917C49.4846 15.3212 49.5627 15.5794 49.719 15.7662C49.8753 15.9531 50.091 16.0465 50.3661 16.0465C50.5802 16.0465 50.7534 15.9921 50.8859 15.8834C51.0218 15.7713 51.122 15.6287 51.1865 15.4554L51.6502 15.7357C51.5313 15.9938 51.3649 16.196 51.1509 16.342C50.9368 16.4881 50.6753 16.5611 50.3661 16.5611ZM52.2198 12.7293H52.7753V14.2885H52.8007C52.8585 14.1459 52.9451 14.027 53.0606 13.9318C53.1795 13.8367 53.3409 13.7892 53.5447 13.7892C53.8165 13.7892 54.0271 13.8792 54.1765 14.0592C54.3294 14.2359 54.4058 14.489 54.4058 14.8185V16.5H53.8504V14.8847C53.8504 14.4737 53.684 14.2682 53.3511 14.2682C53.2797 14.2682 53.2084 14.2783 53.137 14.2987C53.0691 14.3157 53.008 14.3429 52.9536 14.3803C52.8993 14.4176 52.8551 14.4652 52.8211 14.5229C52.7906 14.5807 52.7753 14.6469 52.7753 14.7217V16.5H52.2198V12.7293ZM55.1757 16.5V13.8503H55.7311V14.3599H55.7566C55.7939 14.224 55.8721 14.1051 55.991 14.0032C56.1098 13.9013 56.2746 13.8503 56.4852 13.8503H56.633V14.3853H56.4139C56.1931 14.3853 56.0232 14.421 55.9043 14.4924C55.7888 14.5637 55.7311 14.669 55.7311 14.8083V16.5H55.1757ZM57.4066 13.3764C57.2911 13.3764 57.2061 13.3493 57.1518 13.2949C57.1008 13.2405 57.0753 13.1709 57.0753 13.086V12.9994C57.0753 12.9144 57.1008 12.8448 57.1518 12.7904C57.2061 12.7361 57.2911 12.7089 57.4066 12.7089C57.5221 12.7089 57.6053 12.7361 57.6562 12.7904C57.7072 12.8448 57.7327 12.9144 57.7327 12.9994V13.086C57.7327 13.1709 57.7072 13.2405 57.6562 13.2949C57.6053 13.3493 57.5221 13.3764 57.4066 13.3764ZM57.1263 13.8503H57.6817V16.5H57.1263V13.8503ZM59.3156 16.5611C59.0642 16.5611 58.8536 16.517 58.6837 16.4287C58.5139 16.3403 58.3661 16.218 58.2404 16.0618L58.5971 15.7357C58.6956 15.8546 58.8043 15.948 58.9232 16.0159C59.0455 16.0805 59.1865 16.1127 59.3462 16.1127C59.5092 16.1127 59.6298 16.0822 59.708 16.021C59.7895 15.9565 59.8302 15.8682 59.8302 15.7561C59.8302 15.6711 59.8014 15.5998 59.7436 15.542C59.6893 15.4809 59.5925 15.4418 59.4532 15.4248L59.2086 15.3943C58.9368 15.3603 58.7228 15.2822 58.5666 15.1599C58.4137 15.0342 58.3373 14.849 58.3373 14.6045C58.3373 14.4754 58.361 14.3616 58.4086 14.2631C58.4561 14.1611 58.5224 14.0762 58.6073 14.0083C58.6956 13.9369 58.7992 13.8826 58.9181 13.8452C59.0404 13.8079 59.1746 13.7892 59.3207 13.7892C59.5585 13.7892 59.7521 13.8265 59.9016 13.9013C60.0545 13.976 60.1903 14.0796 60.3092 14.2121L59.9678 14.5382C59.8999 14.4567 59.8099 14.387 59.6978 14.3293C59.5891 14.2682 59.4634 14.2376 59.3207 14.2376C59.1678 14.2376 59.054 14.2682 58.9793 14.3293C58.908 14.3904 58.8723 14.4703 58.8723 14.5688C58.8723 14.6707 58.9046 14.7471 58.9691 14.7981C59.0336 14.849 59.1373 14.8864 59.2799 14.9102L59.5245 14.9408C59.8167 14.9849 60.029 15.0715 60.1615 15.2006C60.2973 15.3263 60.3653 15.4962 60.3653 15.7102C60.3653 15.8393 60.3398 15.9565 60.2888 16.0618C60.2413 16.1637 60.1716 16.252 60.0799 16.3268C59.9882 16.4015 59.8778 16.4592 59.7487 16.5C59.6196 16.5408 59.4753 16.5611 59.3156 16.5611ZM61.6917 16.5C61.498 16.5 61.352 16.4507 61.2535 16.3522C61.1549 16.2503 61.1057 16.1076 61.1057 15.9242V14.3038H60.6929V13.8503H60.9172C61.0089 13.8503 61.0717 13.8299 61.1057 13.7892C61.1431 13.7484 61.1617 13.6822 61.1617 13.5904V13.1267H61.6611V13.8503H62.2165V14.3038H61.6611V16.0465H62.1758V16.5H61.6917ZM62.819 16.5V13.8503H63.3744V14.2885H63.3999C63.4271 14.2206 63.4593 14.156 63.4967 14.0949C63.5375 14.0338 63.585 13.9811 63.6394 13.9369C63.6971 13.8894 63.7634 13.8537 63.8381 13.8299C63.9162 13.8028 64.0062 13.7892 64.1082 13.7892C64.2882 13.7892 64.4479 13.8333 64.5871 13.9217C64.7264 14.01 64.8283 14.1459 64.8929 14.3293H64.9082C64.9557 14.1798 65.0474 14.0524 65.1833 13.9471C65.3192 13.8418 65.4941 13.7892 65.7082 13.7892C65.9731 13.7892 66.1786 13.8792 66.3247 14.0592C66.4708 14.2359 66.5438 14.489 66.5438 14.8185V16.5H65.9884V14.8847C65.9884 14.6809 65.9493 14.528 65.8712 14.4261C65.7931 14.3208 65.6691 14.2682 65.4992 14.2682C65.4279 14.2682 65.36 14.2783 65.2954 14.2987C65.2309 14.3157 65.1731 14.3429 65.1222 14.3803C65.0746 14.4176 65.0355 14.4652 65.005 14.5229C64.9744 14.5807 64.9591 14.6469 64.9591 14.7217V16.5H64.4037V14.8847C64.4037 14.4737 64.2423 14.2682 63.9196 14.2682C63.8517 14.2682 63.7837 14.2783 63.7158 14.2987C63.6513 14.3157 63.5935 14.3429 63.5426 14.3803C63.4916 14.4176 63.4508 14.4652 63.4203 14.5229C63.3897 14.5807 63.3744 14.6469 63.3744 14.7217V16.5H62.819ZM69.2538 16.5C69.1078 16.5 68.9956 16.4592 68.9175 16.3777C68.8394 16.2928 68.7918 16.1858 68.7748 16.0567H68.7494C68.6984 16.2231 68.605 16.3488 68.4691 16.4338C68.3332 16.5187 68.1685 16.5611 67.9748 16.5611C67.6997 16.5611 67.4874 16.4898 67.3379 16.3471C67.1918 16.2045 67.1188 16.0125 67.1188 15.7713C67.1188 15.5064 67.2139 15.3076 67.4041 15.1752C67.5978 15.0427 67.8797 14.9764 68.25 14.9764H68.729V14.7522C68.729 14.5892 68.6848 14.4635 68.5965 14.3752C68.5082 14.2868 68.3706 14.2427 68.1838 14.2427C68.0275 14.2427 67.9001 14.2766 67.8016 14.3446C67.7031 14.4125 67.6199 14.4991 67.5519 14.6045L67.2207 14.3038C67.309 14.1544 67.433 14.0321 67.5927 13.9369C67.7523 13.8384 67.9613 13.7892 68.2194 13.7892C68.5625 13.7892 68.8258 13.869 69.0092 14.0287C69.1927 14.1883 69.2844 14.4176 69.2844 14.7166V16.0465H69.5647V16.5H69.2538ZM68.1328 16.1382C68.3061 16.1382 68.4487 16.1008 68.5608 16.0261C68.6729 15.948 68.729 15.8444 68.729 15.7153V15.3331H68.2602C67.8763 15.3331 67.6844 15.452 67.6844 15.6898V15.7815C67.6844 15.9004 67.7235 15.9904 67.8016 16.0516C67.8831 16.1093 67.9935 16.1382 68.1328 16.1382ZM70.9498 16.5611C70.6984 16.5611 70.4878 16.517 70.3179 16.4287C70.1481 16.3403 70.0003 16.218 69.8746 16.0618L70.2313 15.7357C70.3298 15.8546 70.4385 15.948 70.5574 16.0159C70.6797 16.0805 70.8207 16.1127 70.9803 16.1127C71.1434 16.1127 71.264 16.0822 71.3421 16.021C71.4236 15.9565 71.4644 15.8682 71.4644 15.7561C71.4644 15.6711 71.4355 15.5998 71.3778 15.542C71.3234 15.4809 71.2266 15.4418 71.0873 15.4248L70.8428 15.3943C70.571 15.3603 70.357 15.2822 70.2007 15.1599C70.0479 15.0342 69.9714 14.849 69.9714 14.6045C69.9714 14.4754 69.9952 14.3616 70.0428 14.2631C70.0903 14.1611 70.1566 14.0762 70.2415 14.0083C70.3298 13.9369 70.4334 13.8826 70.5523 13.8452C70.6746 13.8079 70.8088 13.7892 70.9549 13.7892C71.1927 13.7892 71.3863 13.8265 71.5358 13.9013C71.6886 13.976 71.8245 14.0796 71.9434 14.2121L71.602 14.5382C71.5341 14.4567 71.444 14.387 71.3319 14.3293C71.2232 14.2682 71.0975 14.2376 70.9549 14.2376C70.802 14.2376 70.6882 14.2682 70.6135 14.3293C70.5421 14.3904 70.5065 14.4703 70.5065 14.5688C70.5065 14.6707 70.5387 14.7471 70.6033 14.7981C70.6678 14.849 70.7714 14.8864 70.9141 14.9102L71.1587 14.9408C71.4508 14.9849 71.6631 15.0715 71.7956 15.2006C71.9315 15.3263 71.9994 15.4962 71.9994 15.7102C71.9994 15.8393 71.974 15.9565 71.923 16.0618C71.8755 16.1637 71.8058 16.252 71.7141 16.3268C71.6224 16.4015 71.512 16.4592 71.3829 16.5C71.2538 16.5408 71.1094 16.5611 70.9498 16.5611ZM74.9369 16.5611C74.6379 16.5611 74.3832 16.5068 74.1725 16.3981C73.9653 16.2894 73.787 16.1433 73.6375 15.9599L74.035 15.5879C74.1606 15.7408 74.2982 15.8563 74.4477 15.9344C74.6006 16.0125 74.7738 16.0516 74.9674 16.0516C75.195 16.0516 75.3666 16.0006 75.4821 15.8987C75.5976 15.7968 75.6553 15.6592 75.6553 15.486C75.6553 15.3467 75.6146 15.2363 75.533 15.1548C75.4515 15.0732 75.3071 15.0121 75.0999 14.9713L74.784 14.9153C74.4375 14.8507 74.1776 14.7369 74.0044 14.5739C73.8311 14.4108 73.7445 14.1866 73.7445 13.9013C73.7445 13.745 73.7734 13.604 73.8311 13.4783C73.8923 13.3493 73.9755 13.2422 74.0808 13.1573C74.1895 13.069 74.3203 13.0011 74.4732 12.9535C74.626 12.9059 74.7976 12.8822 74.9878 12.8822C75.2562 12.8822 75.4889 12.9297 75.6859 13.0248C75.8829 13.1166 76.0511 13.2507 76.1904 13.4274L75.7878 13.7841C75.6961 13.6652 75.584 13.5701 75.4515 13.4987C75.319 13.4274 75.1543 13.3917 74.9573 13.3917C74.7534 13.3917 74.5955 13.4325 74.4834 13.514C74.3713 13.5955 74.3152 13.7144 74.3152 13.8707C74.3152 14.0202 74.3611 14.1323 74.4528 14.207C74.5445 14.2783 74.6872 14.3327 74.8808 14.3701L75.1967 14.4363C75.5534 14.5042 75.8133 14.6197 75.9764 14.7828C76.1428 14.9459 76.226 15.1701 76.226 15.4554C76.226 15.6219 76.1972 15.773 76.1394 15.9089C76.0817 16.0448 75.9967 16.162 75.8846 16.2605C75.7759 16.3556 75.6418 16.4304 75.4821 16.4847C75.3224 16.5357 75.1407 16.5611 74.9369 16.5611ZM78.8179 16.5C78.6719 16.5 78.5598 16.4592 78.4816 16.3777C78.4035 16.2928 78.3559 16.1858 78.3389 16.0567H78.3135C78.2625 16.2231 78.1691 16.3488 78.0332 16.4338C77.8973 16.5187 77.7326 16.5611 77.5389 16.5611C77.2638 16.5611 77.0515 16.4898 76.902 16.3471C76.7559 16.2045 76.6829 16.0125 76.6829 15.7713C76.6829 15.5064 76.778 15.3076 76.9682 15.1752C77.1619 15.0427 77.4438 14.9764 77.8141 14.9764H78.2931V14.7522C78.2931 14.5892 78.2489 14.4635 78.1606 14.3752C78.0723 14.2868 77.9347 14.2427 77.7479 14.2427C77.5916 14.2427 77.4642 14.2766 77.3657 14.3446C77.2672 14.4125 77.184 14.4991 77.116 14.6045L76.7848 14.3038C76.8731 14.1544 76.9971 14.0321 77.1568 13.9369C77.3164 13.8384 77.5254 13.7892 77.7835 13.7892C78.1266 13.7892 78.3899 13.869 78.5733 14.0287C78.7568 14.1883 78.8485 14.4176 78.8485 14.7166V16.0465H79.1288V16.5H78.8179ZM77.6969 16.1382C77.8702 16.1382 78.0128 16.1008 78.1249 16.0261C78.237 15.948 78.2931 15.8444 78.2931 15.7153V15.3331H77.8243C77.4404 15.3331 77.2485 15.452 77.2485 15.6898V15.7815C77.2485 15.9004 77.2876 15.9904 77.3657 16.0516C77.4472 16.1093 77.5576 16.1382 77.6969 16.1382ZM80.2387 16.5C80.0485 16.5 79.9058 16.4524 79.8107 16.3573C79.719 16.2588 79.6731 16.1229 79.6731 15.9497V12.7293H80.2285V16.0465H80.5954V16.5H80.2387ZM82.1656 16.5611C81.9754 16.5611 81.8055 16.5289 81.6561 16.4643C81.5066 16.3998 81.3792 16.3081 81.2739 16.1892C81.1686 16.0669 81.0871 15.9208 81.0293 15.751C80.975 15.5777 80.9478 15.3858 80.9478 15.1752C80.9478 14.9645 80.975 14.7743 81.0293 14.6045C81.0871 14.4312 81.1686 14.2851 81.2739 14.1662C81.3792 14.0439 81.5066 13.9505 81.6561 13.886C81.8055 13.8214 81.9754 13.7892 82.1656 13.7892C82.3593 13.7892 82.5291 13.8231 82.6752 13.8911C82.8246 13.959 82.9486 14.0541 83.0471 14.1764C83.1457 14.2953 83.2187 14.4346 83.2663 14.5943C83.3172 14.7539 83.3427 14.9255 83.3427 15.1089V15.3178H81.5236V15.4045C81.5236 15.6083 81.583 15.7764 81.7019 15.9089C81.8242 16.038 81.9975 16.1025 82.2217 16.1025C82.3847 16.1025 82.5223 16.0669 82.6344 15.9955C82.7465 15.9242 82.8416 15.8274 82.9198 15.7051L83.2459 16.0261C83.1474 16.1892 83.0047 16.32 82.8178 16.4185C82.631 16.5136 82.4136 16.5611 82.1656 16.5611ZM82.1656 14.2223C82.0705 14.2223 81.9822 14.2393 81.9007 14.2732C81.8225 14.3072 81.7546 14.3548 81.6968 14.4159C81.6425 14.4771 81.6 14.5501 81.5694 14.635C81.5389 14.72 81.5236 14.8134 81.5236 14.9153V14.951H82.7567V14.9C82.7567 14.6962 82.704 14.5331 82.5987 14.4108C82.4934 14.2851 82.3491 14.2223 82.1656 14.2223ZM84.7983 16.5611C84.5469 16.5611 84.3363 16.517 84.1665 16.4287C83.9966 16.3403 83.8488 16.218 83.7231 16.0618L84.0798 15.7357C84.1783 15.8546 84.287 15.948 84.4059 16.0159C84.5282 16.0805 84.6692 16.1127 84.8289 16.1127C84.9919 16.1127 85.1125 16.0822 85.1907 16.021C85.2722 15.9565 85.313 15.8682 85.313 15.7561C85.313 15.6711 85.2841 15.5998 85.2263 15.542C85.172 15.4809 85.0752 15.4418 84.9359 15.4248L84.6913 15.3943C84.4195 15.3603 84.2055 15.2822 84.0493 15.1599C83.8964 15.0342 83.82 14.849 83.82 14.6045C83.82 14.4754 83.8437 14.3616 83.8913 14.2631C83.9389 14.1611 84.0051 14.0762 84.09 14.0083C84.1783 13.9369 84.282 13.8826 84.4009 13.8452C84.5231 13.8079 84.6573 13.7892 84.8034 13.7892C85.0412 13.7892 85.2348 13.8265 85.3843 13.9013C85.5372 13.976 85.673 14.0796 85.7919 14.2121L85.4505 14.5382C85.3826 14.4567 85.2926 14.387 85.1805 14.3293C85.0718 14.2682 84.9461 14.2376 84.8034 14.2376C84.6505 14.2376 84.5367 14.2682 84.462 14.3293C84.3907 14.3904 84.355 14.4703 84.355 14.5688C84.355 14.6707 84.3873 14.7471 84.4518 14.7981C84.5163 14.849 84.62 14.8864 84.7626 14.9102L85.0072 14.9408C85.2994 14.9849 85.5117 15.0715 85.6442 15.2006C85.78 15.3263 85.848 15.4962 85.848 15.7102C85.848 15.8393 85.8225 15.9565 85.7716 16.0618C85.724 16.1637 85.6544 16.252 85.5626 16.3268C85.4709 16.4015 85.3605 16.4592 85.2314 16.5C85.1023 16.5408 84.958 16.5611 84.7983 16.5611Z" fill="white"/>
<path d="M122.474 14.0449H119.237V13.1474L120.646 11.9419C120.773 11.8327 120.88 11.7345 120.967 11.6471C121.054 11.5554 121.124 11.468 121.177 11.385C121.233 11.2977 121.273 11.2125 121.295 11.1295C121.321 11.0466 121.334 10.957 121.334 10.8609V10.7692C121.334 10.6819 121.316 10.6054 121.281 10.5399C121.246 10.4744 121.201 10.4198 121.144 10.3761C121.087 10.3325 121.022 10.2997 120.947 10.2779C120.877 10.256 120.805 10.2451 120.731 10.2451C120.622 10.2451 120.526 10.2626 120.443 10.2975C120.364 10.3325 120.294 10.3805 120.233 10.4416C120.176 10.4984 120.128 10.5661 120.089 10.6447C120.05 10.719 120.019 10.7998 119.997 10.8871L119.139 10.5596C119.192 10.4023 119.264 10.2538 119.355 10.1141C119.447 9.96994 119.561 9.84546 119.696 9.74064C119.836 9.63145 120 9.54628 120.187 9.48514C120.375 9.42399 120.587 9.39342 120.823 9.39342C121.072 9.39342 121.292 9.42836 121.485 9.49824C121.677 9.56812 121.838 9.66421 121.969 9.7865C122.105 9.90879 122.207 10.0551 122.277 10.2254C122.347 10.3914 122.382 10.5727 122.382 10.7692C122.382 10.9658 122.349 11.1448 122.284 11.3064C122.218 11.468 122.129 11.6209 122.015 11.765C121.906 11.9048 121.777 12.038 121.629 12.1647C121.48 12.2913 121.325 12.4202 121.163 12.5512L120.312 13.2194H122.474V14.0449ZM123.408 14.0449V13.2522H124.64V10.1861H124.581L123.65 11.4047L123.022 10.9133L124.116 9.47203H125.622V13.2522H126.592V14.0449H123.408Z" fill="white"/>
<path opacity="0.8" d="M119.785 16.9128C120.117 16.9128 120.404 16.9754 120.646 17.1006C120.89 17.2229 121.077 17.3991 121.205 17.6291C121.336 17.8591 121.401 18.1299 121.401 18.4415C121.401 18.753 121.336 19.0238 121.205 19.2538C121.077 19.481 120.89 19.6557 120.646 19.778C120.404 19.8973 120.117 19.957 119.785 19.957H118.838V16.9128H119.785ZM119.785 19.6295C120.179 19.6295 120.478 19.5261 120.685 19.3194C120.892 19.1097 120.995 18.8171 120.995 18.4415C120.995 18.0629 120.89 17.7674 120.681 17.5548C120.474 17.3423 120.176 17.236 119.785 17.236H119.235V19.6295H119.785ZM123.725 19.2801H122.397L122.153 19.957H121.734L122.834 16.9303H123.293L124.389 19.957H123.97L123.725 19.2801ZM123.612 18.9568L123.061 17.4194L122.511 18.9568H123.612ZM127 16.9128L126.009 18.8083V19.957H125.611V18.8083L124.615 16.9128H125.057L125.808 18.4546L126.559 16.9128H127Z" fill="white"/>
<path d="M133.939 14.0449V13.2522H135.171V10.1861H135.112L134.182 11.4047L133.553 10.9133L134.647 9.47203H136.154V13.2522H137.123V14.0449H133.939ZM139.217 14.1235C138.619 14.1235 138.175 13.9161 137.887 13.5012C137.599 13.0862 137.455 12.5053 137.455 11.7585C137.455 11.0116 137.599 10.4307 137.887 10.0158C138.175 9.60088 138.619 9.39342 139.217 9.39342C139.815 9.39342 140.259 9.60088 140.547 10.0158C140.835 10.4307 140.979 11.0116 140.979 11.7585C140.979 12.5053 140.835 13.0862 140.547 13.5012C140.259 13.9161 139.815 14.1235 139.217 14.1235ZM139.217 13.2915C139.479 13.2915 139.66 13.1954 139.761 13.0032C139.861 12.8111 139.912 12.5403 139.912 12.1909V11.3261C139.912 10.9767 139.861 10.7059 139.761 10.5137C139.66 10.3215 139.479 10.2254 139.217 10.2254C138.955 10.2254 138.774 10.3215 138.673 10.5137C138.573 10.7059 138.523 10.9767 138.523 11.3261V12.1909C138.523 12.5403 138.573 12.8111 138.673 13.0032C138.774 13.1954 138.955 13.2915 139.217 13.2915Z" fill="white"/>
<path opacity="0.8" d="M135.811 16.9128V19.957H135.414V18.5769H133.863V19.957H133.466V16.9128H133.863V18.2493H135.414V16.9128H135.811ZM138.093 19.957L137.368 18.7123H136.887V19.957H136.49V16.9128H137.472C137.702 16.9128 137.896 16.9521 138.053 17.0307C138.213 17.1093 138.333 17.2156 138.411 17.3496C138.49 17.4835 138.529 17.6364 138.529 17.8082C138.529 18.0178 138.468 18.2027 138.346 18.3629C138.227 18.523 138.046 18.6293 137.804 18.6817L138.569 19.957H138.093ZM136.887 18.3934H137.472C137.688 18.3934 137.849 18.341 137.957 18.2362C138.065 18.1285 138.119 17.9858 138.119 17.8082C138.119 17.6276 138.065 17.4879 137.957 17.3889C137.852 17.2899 137.691 17.2404 137.472 17.2404H136.887V18.3934ZM140.112 19.9876C139.911 19.9876 139.731 19.9527 139.571 19.8828C139.413 19.81 139.29 19.711 139.199 19.5858C139.109 19.4577 139.063 19.3106 139.06 19.1447H139.483C139.498 19.2873 139.556 19.4082 139.658 19.5072C139.763 19.6033 139.914 19.6513 140.112 19.6513C140.301 19.6513 140.45 19.6047 140.558 19.5115C140.668 19.4154 140.724 19.2932 140.724 19.1447C140.724 19.0282 140.692 18.9336 140.628 18.8608C140.564 18.788 140.483 18.7326 140.387 18.6948C140.291 18.6569 140.162 18.6162 139.999 18.5725C139.798 18.5201 139.636 18.4677 139.514 18.4153C139.394 18.3629 139.291 18.2813 139.204 18.1707C139.119 18.0571 139.077 17.9057 139.077 17.7164C139.077 17.5505 139.119 17.4034 139.204 17.2753C139.288 17.1472 139.406 17.0482 139.558 16.9783C139.712 16.9084 139.888 16.8735 140.086 16.8735C140.371 16.8735 140.604 16.9448 140.785 17.0875C140.968 17.2302 141.072 17.4194 141.095 17.6553H140.658C140.644 17.5388 140.582 17.4369 140.475 17.3496C140.367 17.2593 140.224 17.2142 140.047 17.2142C139.881 17.2142 139.745 17.2578 139.641 17.3452C139.536 17.4296 139.483 17.549 139.483 17.7033C139.483 17.814 139.514 17.9043 139.575 17.9741C139.639 18.044 139.716 18.0979 139.806 18.1357C139.9 18.1707 140.029 18.2114 140.195 18.258C140.396 18.3134 140.558 18.3687 140.68 18.424C140.802 18.4764 140.907 18.5594 140.994 18.673C141.082 18.7836 141.125 18.935 141.125 19.1272C141.125 19.2757 141.086 19.4154 141.008 19.5465C140.929 19.6775 140.812 19.7838 140.658 19.8653C140.504 19.9468 140.322 19.9876 140.112 19.9876Z" fill="white"/>
<path d="M148.999 11.2802C149.244 11.2802 149.421 11.2344 149.53 11.1426C149.644 11.0466 149.7 10.9286 149.7 10.7889V10.743C149.7 10.577 149.646 10.4438 149.537 10.3434C149.432 10.2429 149.281 10.1927 149.085 10.1927C148.901 10.1927 148.729 10.2407 148.567 10.3368C148.405 10.4285 148.268 10.5618 148.154 10.7365L147.539 10.1599C147.626 10.0464 147.72 9.94373 147.82 9.85201C147.921 9.75593 148.034 9.67513 148.161 9.60961C148.288 9.53973 148.43 9.48732 148.587 9.45238C148.744 9.41307 148.921 9.39342 149.117 9.39342C149.362 9.39342 149.583 9.4218 149.779 9.47858C149.98 9.53536 150.15 9.61835 150.29 9.72754C150.434 9.83236 150.543 9.95902 150.618 10.1075C150.696 10.256 150.736 10.422 150.736 10.6054C150.736 10.7496 150.712 10.8806 150.664 10.9985C150.62 11.1164 150.557 11.2191 150.474 11.3064C150.395 11.3938 150.303 11.4658 150.198 11.5226C150.094 11.575 149.982 11.6122 149.864 11.634V11.6733C150 11.6995 150.124 11.7432 150.238 11.8043C150.356 11.8611 150.456 11.9354 150.539 12.0271C150.626 12.1188 150.694 12.228 150.742 12.3547C150.79 12.4769 150.814 12.6167 150.814 12.7739C150.814 12.9792 150.773 13.1648 150.69 13.3308C150.607 13.4968 150.489 13.6387 150.336 13.7567C150.183 13.8746 150 13.9663 149.786 14.0318C149.572 14.093 149.336 14.1235 149.078 14.1235C148.847 14.1235 148.641 14.0995 148.462 14.0515C148.283 14.0034 148.126 13.9401 147.991 13.8615C147.86 13.7785 147.744 13.6846 147.643 13.5798C147.547 13.4749 147.462 13.3636 147.388 13.2456L148.115 12.6822C148.215 12.87 148.338 13.0251 148.482 13.1474C148.63 13.2653 148.829 13.3243 149.078 13.3243C149.301 13.3243 149.473 13.2697 149.596 13.1605C149.722 13.0469 149.786 12.8941 149.786 12.7019V12.6626C149.786 12.4748 149.714 12.335 149.569 12.2433C149.43 12.1472 149.235 12.0992 148.986 12.0992H148.574V11.2802H148.999ZM153.203 14.1235C152.932 14.1235 152.69 14.082 152.476 13.9991C152.262 13.9117 152.08 13.7894 151.932 13.6322C151.788 13.4706 151.676 13.2784 151.598 13.0557C151.524 12.8329 151.486 12.584 151.486 12.3088C151.486 11.99 151.535 11.6886 151.631 11.4047C151.731 11.1164 151.858 10.8522 152.011 10.612C152.168 10.3674 152.343 10.149 152.535 9.95684C152.731 9.76466 152.928 9.60306 153.124 9.47203H154.48C154.201 9.67294 153.95 9.86512 153.727 10.0486C153.504 10.2276 153.31 10.4089 153.144 10.5923C152.982 10.7758 152.847 10.9636 152.738 11.1557C152.633 11.3436 152.559 11.5466 152.515 11.765L152.574 11.7847C152.613 11.6973 152.659 11.6122 152.712 11.5292C152.768 11.4462 152.836 11.3741 152.915 11.313C152.998 11.2475 153.094 11.1951 153.203 11.1557C153.312 11.1164 153.439 11.0968 153.583 11.0968C153.771 11.0968 153.945 11.1317 154.107 11.2016C154.273 11.2671 154.415 11.361 154.533 11.4833C154.655 11.6056 154.749 11.7563 154.815 11.9354C154.884 12.1101 154.919 12.3044 154.919 12.5184C154.919 12.7543 154.878 12.9705 154.795 13.167C154.716 13.3636 154.601 13.5339 154.448 13.678C154.299 13.8178 154.12 13.927 153.91 14.0056C153.701 14.0842 153.465 14.1235 153.203 14.1235ZM153.203 13.357C153.421 13.357 153.592 13.2981 153.714 13.1801C153.836 13.0578 153.897 12.8853 153.897 12.6626V12.5446C153.897 12.3219 153.836 12.1516 153.714 12.0336C153.592 11.9113 153.421 11.8502 153.203 11.8502C152.985 11.8502 152.814 11.9113 152.692 12.0336C152.57 12.1516 152.508 12.3219 152.508 12.5446V12.6626C152.508 12.8853 152.57 13.0578 152.692 13.1801C152.814 13.2981 152.985 13.357 153.203 13.357Z" fill="white"/>
<path opacity="0.8" d="M150.682 16.9346V19.957H150.284V17.7033L149.28 19.957H149L147.991 17.699V19.957H147.594V16.9346H148.022L149.14 19.4329L150.258 16.9346H150.682ZM151.753 16.9128V19.957H151.356V16.9128H151.753ZM154.824 19.957H154.427L152.828 17.533V19.957H152.431V16.9084H152.828L154.427 19.3281V16.9084H154.824V19.957Z" fill="white"/>
<path d="M164.852 14.0449H161.616V13.1474L163.024 11.9419C163.151 11.8327 163.258 11.7345 163.345 11.6471C163.433 11.5554 163.503 11.468 163.555 11.385C163.612 11.2977 163.651 11.2125 163.673 11.1295C163.699 11.0466 163.712 10.957 163.712 10.8609V10.7692C163.712 10.6819 163.695 10.6054 163.66 10.5399C163.625 10.4744 163.579 10.4198 163.522 10.3761C163.466 10.3325 163.4 10.2997 163.326 10.2779C163.256 10.256 163.184 10.2451 163.11 10.2451C163 10.2451 162.904 10.2626 162.821 10.2975C162.743 10.3325 162.673 10.3805 162.612 10.4416C162.555 10.4984 162.507 10.5661 162.468 10.6447C162.428 10.719 162.398 10.7998 162.376 10.8871L161.518 10.5596C161.57 10.4023 161.642 10.2538 161.734 10.1141C161.826 9.96994 161.939 9.84546 162.075 9.74064C162.214 9.63145 162.378 9.54628 162.566 9.48514C162.754 9.42399 162.966 9.39342 163.201 9.39342C163.45 9.39342 163.671 9.42836 163.863 9.49824C164.055 9.56812 164.217 9.66421 164.348 9.7865C164.483 9.90879 164.586 10.0551 164.656 10.2254C164.726 10.3914 164.761 10.5727 164.761 10.7692C164.761 10.9658 164.728 11.1448 164.662 11.3064C164.597 11.468 164.507 11.6209 164.394 11.765C164.285 11.9048 164.156 12.038 164.007 12.1647C163.859 12.2913 163.704 12.4202 163.542 12.5512L162.69 13.2194H164.852V14.0449ZM167.136 14.1235C166.538 14.1235 166.095 13.9161 165.806 13.5012C165.518 13.0862 165.374 12.5053 165.374 11.7585C165.374 11.0116 165.518 10.4307 165.806 10.0158C166.095 9.60088 166.538 9.39342 167.136 9.39342C167.735 9.39342 168.178 9.60088 168.466 10.0158C168.754 10.4307 168.899 11.0116 168.899 11.7585C168.899 12.5053 168.754 13.0862 168.466 13.5012C168.178 13.9161 167.735 14.1235 167.136 14.1235ZM167.136 13.2915C167.398 13.2915 167.58 13.1954 167.68 13.0032C167.78 12.8111 167.831 12.5403 167.831 12.1909V11.3261C167.831 10.9767 167.78 10.7059 167.68 10.5137C167.58 10.3215 167.398 10.2254 167.136 10.2254C166.874 10.2254 166.693 10.3215 166.592 10.5137C166.492 10.7059 166.442 10.9767 166.442 11.3261V12.1909C166.442 12.5403 166.492 12.8111 166.592 13.0032C166.693 13.1954 166.874 13.2915 167.136 13.2915Z" fill="white"/>
<path opacity="0.8" d="M162.384 19.9876C162.183 19.9876 162.003 19.9527 161.843 19.8828C161.685 19.81 161.562 19.711 161.471 19.5858C161.381 19.4577 161.334 19.3106 161.331 19.1447H161.755C161.77 19.2873 161.828 19.4082 161.93 19.5072C162.035 19.6033 162.186 19.6513 162.384 19.6513C162.573 19.6513 162.722 19.6047 162.83 19.5115C162.94 19.4154 162.996 19.2932 162.996 19.1447C162.996 19.0282 162.964 18.9336 162.899 18.8608C162.835 18.788 162.755 18.7326 162.659 18.6948C162.563 18.6569 162.434 18.6162 162.271 18.5725C162.07 18.5201 161.908 18.4677 161.786 18.4153C161.666 18.3629 161.563 18.2813 161.476 18.1707C161.391 18.0571 161.349 17.9057 161.349 17.7164C161.349 17.5505 161.391 17.4034 161.476 17.2753C161.56 17.1472 161.678 17.0482 161.829 16.9783C161.984 16.9084 162.16 16.8735 162.358 16.8735C162.643 16.8735 162.876 16.9448 163.057 17.0875C163.24 17.2302 163.344 17.4194 163.367 17.6553H162.93C162.915 17.5388 162.854 17.4369 162.747 17.3496C162.639 17.2593 162.496 17.2142 162.319 17.2142C162.153 17.2142 162.017 17.2578 161.912 17.3452C161.808 17.4296 161.755 17.549 161.755 17.7033C161.755 17.814 161.786 17.9043 161.847 17.9741C161.911 18.044 161.988 18.0979 162.078 18.1357C162.172 18.1707 162.301 18.2114 162.467 18.258C162.668 18.3134 162.83 18.3687 162.952 18.424C163.074 18.4764 163.179 18.5594 163.266 18.673C163.354 18.7836 163.397 18.935 163.397 19.1272C163.397 19.2757 163.358 19.4154 163.279 19.5465C163.201 19.6775 163.084 19.7838 162.93 19.8653C162.776 19.9468 162.594 19.9876 162.384 19.9876ZM164.38 17.236V18.2537H165.489V18.5812H164.38V19.6295H165.62V19.957H163.982V16.9084H165.62V17.236H164.38ZM166.073 18.4327C166.073 18.1357 166.14 17.8693 166.274 17.6335C166.408 17.3947 166.59 17.2083 166.82 17.0744C167.053 16.9405 167.311 16.8735 167.593 16.8735C167.925 16.8735 168.215 16.9536 168.462 17.1137C168.71 17.2739 168.89 17.501 169.004 17.7951H168.528C168.443 17.6116 168.321 17.4704 168.161 17.3714C168.003 17.2724 167.814 17.2229 167.593 17.2229C167.38 17.2229 167.19 17.2724 167.021 17.3714C166.852 17.4704 166.719 17.6116 166.623 17.7951C166.527 17.9756 166.479 18.1881 166.479 18.4327C166.479 18.6744 166.527 18.887 166.623 19.0704C166.719 19.2509 166.852 19.3907 167.021 19.4897C167.19 19.5887 167.38 19.6382 167.593 19.6382C167.814 19.6382 168.003 19.5902 168.161 19.4941C168.321 19.3951 168.443 19.2538 168.528 19.0704H169.004C168.89 19.3616 168.71 19.5872 168.462 19.7474C168.215 19.9046 167.925 19.9832 167.593 19.9832C167.311 19.9832 167.053 19.9177 166.82 19.7867C166.59 19.6528 166.408 19.4679 166.274 19.232C166.14 18.9962 166.073 18.7297 166.073 18.4327Z" fill="white"/>
<path d="M206.937 17.6048C206.524 17.6048 206.151 17.5408 205.819 17.4126C205.487 17.2787 205.205 17.0836 204.972 16.8274C204.739 16.5653 204.558 16.2421 204.43 15.8578C204.302 15.4676 204.238 15.0134 204.238 14.4951C204.238 13.9826 204.302 13.5284 204.43 13.1324C204.558 12.7306 204.739 12.3957 204.972 12.1278C205.205 11.8541 205.487 11.6474 205.819 11.5076C206.151 11.3679 206.524 11.298 206.937 11.298C207.502 11.298 207.968 11.4145 208.335 11.6474C208.702 11.8745 208.996 12.2356 209.217 12.7306L208.073 13.3246C207.991 13.0683 207.863 12.8645 207.689 12.7131C207.52 12.5559 207.269 12.4772 206.937 12.4772C206.547 12.4772 206.233 12.6054 205.994 12.8616C205.761 13.112 205.645 13.4789 205.645 13.9622V14.9406C205.645 15.4239 205.761 15.7937 205.994 16.05C206.233 16.3004 206.547 16.4256 206.937 16.4256C207.263 16.4256 207.523 16.3382 207.715 16.1635C207.913 15.983 208.058 15.7675 208.152 15.5171L209.235 16.146C209.008 16.6119 208.708 16.973 208.335 17.2292C207.968 17.4796 207.502 17.6048 206.937 17.6048ZM214.724 13.4993H214.697L214.252 14.3903L213.064 16.5479L211.902 14.399L211.439 13.4381H211.413V17.5H210.164V11.4028H211.57L213.064 14.2592H213.081L214.558 11.4028H215.973V17.5H214.724V13.4993ZM219.592 17.5V16.3295H216.91V15.2114L219.286 11.4028H220.841V15.3162H221.61V16.3295H220.841V17.5H219.592ZM217.959 15.3162H219.592V12.7568H219.505L217.959 15.3162ZM226.446 12.5471H223.677L223.546 14.4776H223.616C223.674 14.332 223.738 14.201 223.808 14.0845C223.884 13.9622 223.971 13.8603 224.07 13.7788C224.169 13.6914 224.288 13.6245 224.428 13.5779C224.568 13.5313 224.734 13.508 224.926 13.508C225.188 13.508 225.433 13.5517 225.66 13.639C225.887 13.7264 226.085 13.8545 226.254 14.0234C226.423 14.1864 226.556 14.3903 226.655 14.6348C226.754 14.8736 226.804 15.1444 226.804 15.4472C226.804 15.7559 226.752 16.0441 226.647 16.312C226.548 16.5741 226.396 16.8012 226.193 16.9934C225.995 17.1855 225.75 17.3369 225.459 17.4476C225.168 17.5524 224.836 17.6048 224.463 17.6048C224.166 17.6048 223.904 17.5728 223.677 17.5087C223.45 17.4447 223.249 17.3602 223.074 17.2554C222.899 17.1448 222.748 17.0196 222.62 16.8798C222.492 16.74 222.381 16.5915 222.288 16.4343L223.24 15.6831C223.374 15.9218 223.534 16.1257 223.72 16.2945C223.907 16.4576 224.157 16.5391 224.472 16.5391C224.786 16.5391 225.022 16.4489 225.179 16.2683C225.342 16.0878 225.424 15.849 225.424 15.552V15.4822C225.424 15.2026 225.342 14.9813 225.179 14.8183C225.016 14.6552 224.792 14.5737 224.507 14.5737C224.268 14.5737 224.07 14.6232 223.913 14.7222C223.761 14.8154 223.645 14.9086 223.563 15.0017L222.489 14.8532L222.716 11.4028H226.446V12.5471ZM229.744 17.6048C228.947 17.6048 228.355 17.3282 227.971 16.775C227.587 16.2217 227.395 15.4472 227.395 14.4514C227.395 13.4556 227.587 12.6811 227.971 12.1278C228.355 11.5746 228.947 11.298 229.744 11.298C230.542 11.298 231.133 11.5746 231.518 12.1278C231.902 12.6811 232.094 13.4556 232.094 14.4514C232.094 15.4472 231.902 16.2217 231.518 16.775C231.133 17.3282 230.542 17.6048 229.744 17.6048ZM229.744 16.4954C230.094 16.4954 230.335 16.3673 230.469 16.1111C230.603 15.8549 230.67 15.4938 230.67 15.0279V13.8749C230.67 13.409 230.603 13.0479 230.469 12.7917C230.335 12.5355 230.094 12.4074 229.744 12.4074C229.395 12.4074 229.153 12.5355 229.019 12.7917C228.885 13.0479 228.818 13.409 228.818 13.8749V15.0279C228.818 15.4938 228.885 15.8549 229.019 16.1111C229.153 16.3673 229.395 16.4954 229.744 16.4954ZM236.921 12.5471H234.152L234.021 14.4776H234.091C234.149 14.332 234.213 14.201 234.283 14.0845C234.359 13.9622 234.446 13.8603 234.545 13.7788C234.644 13.6914 234.764 13.6245 234.903 13.5779C235.043 13.5313 235.209 13.508 235.401 13.508C235.663 13.508 235.908 13.5517 236.135 13.639C236.362 13.7264 236.56 13.8545 236.729 14.0234C236.898 14.1864 237.032 14.3903 237.131 14.6348C237.23 14.8736 237.279 15.1444 237.279 15.4472C237.279 15.7559 237.227 16.0441 237.122 16.312C237.023 16.5741 236.872 16.8012 236.668 16.9934C236.47 17.1855 236.225 17.3369 235.934 17.4476C235.643 17.5524 235.311 17.6048 234.938 17.6048C234.641 17.6048 234.379 17.5728 234.152 17.5087C233.925 17.4447 233.724 17.3602 233.549 17.2554C233.375 17.1448 233.223 17.0196 233.095 16.8798C232.967 16.74 232.856 16.5915 232.763 16.4343L233.715 15.6831C233.849 15.9218 234.01 16.1257 234.196 16.2945C234.382 16.4576 234.633 16.5391 234.947 16.5391C235.262 16.5391 235.497 16.4489 235.655 16.2683C235.818 16.0878 235.899 15.849 235.899 15.552V15.4822C235.899 15.2026 235.818 14.9813 235.655 14.8183C235.492 14.6552 235.267 14.5737 234.982 14.5737C234.743 14.5737 234.545 14.6232 234.388 14.7222C234.237 14.8154 234.12 14.9086 234.039 15.0017L232.964 14.8532L233.191 11.4028H236.921V12.5471Z" fill="white"/>
<rect x="274.025" y="8.63281" width="29.7352" height="11.7352" rx="1.81984" fill="white"/>
<path d="M279.698 16.0524C279.436 16.0524 279.214 16.0058 279.03 15.9126C278.85 15.8195 278.694 15.6972 278.563 15.5458L278.952 15.1702C279.056 15.2924 279.173 15.3856 279.301 15.4497C279.432 15.5137 279.576 15.5458 279.733 15.5458C279.911 15.5458 280.045 15.5079 280.135 15.4322C280.225 15.3536 280.271 15.2488 280.271 15.1177C280.271 15.0158 280.241 14.9328 280.183 14.8688C280.125 14.8047 280.016 14.7581 279.856 14.729L279.567 14.6853C278.959 14.5893 278.655 14.2937 278.655 13.7987C278.655 13.6619 278.679 13.5381 278.729 13.4275C278.781 13.3168 278.855 13.2222 278.952 13.1436C279.048 13.065 279.163 13.0053 279.297 12.9645C279.433 12.9208 279.588 12.899 279.76 12.899C279.99 12.899 280.19 12.9368 280.362 13.0126C280.534 13.0883 280.681 13.2004 280.803 13.3489L280.41 13.7201C280.335 13.6269 280.243 13.5512 280.135 13.493C280.027 13.4348 279.892 13.4056 279.729 13.4056C279.563 13.4056 279.438 13.4377 279.353 13.5017C279.272 13.5629 279.231 13.6502 279.231 13.7638C279.231 13.8803 279.265 13.9661 279.331 14.0215C279.398 14.0768 279.506 14.1176 279.655 14.1438L279.939 14.1962C280.247 14.2515 280.474 14.3505 280.62 14.4932C280.768 14.6329 280.843 14.8295 280.843 15.0828C280.843 15.2284 280.816 15.3609 280.764 15.4803C280.715 15.5967 280.64 15.6986 280.541 15.786C280.445 15.8704 280.326 15.9359 280.183 15.9825C280.043 16.0291 279.882 16.0524 279.698 16.0524ZM281.386 12.768H281.945V14.1001H281.967C282.013 13.9778 282.086 13.8759 282.185 13.7944C282.287 13.7099 282.427 13.6677 282.604 13.6677C282.84 13.6677 283.021 13.7449 283.146 13.8992C283.271 14.0535 283.334 14.2733 283.334 14.5587V16H282.775V14.6155C282.775 14.4524 282.745 14.3301 282.687 14.2486C282.629 14.1671 282.533 14.1263 282.399 14.1263C282.341 14.1263 282.284 14.135 282.229 14.1525C282.176 14.1671 282.128 14.1904 282.085 14.2224C282.044 14.2515 282.01 14.2894 281.984 14.3359C281.958 14.3796 281.945 14.432 281.945 14.4932V16H281.386V12.768ZM284.857 16.0524C284.694 16.0524 284.547 16.0247 284.416 15.9694C284.288 15.9141 284.178 15.834 284.084 15.7292C283.994 15.6244 283.924 15.4992 283.875 15.3536C283.825 15.2051 283.801 15.0391 283.801 14.8557C283.801 14.6722 283.825 14.5077 283.875 14.3621C283.924 14.2166 283.994 14.0928 284.084 13.9909C284.178 13.8861 284.288 13.806 284.416 13.7507C284.547 13.6954 284.694 13.6677 284.857 13.6677C285.021 13.6677 285.168 13.6954 285.299 13.7507C285.43 13.806 285.54 13.8861 285.631 13.9909C285.724 14.0928 285.795 14.2166 285.845 14.3621C285.894 14.5077 285.919 14.6722 285.919 14.8557C285.919 15.0391 285.894 15.2051 285.845 15.3536C285.795 15.4992 285.724 15.6244 285.631 15.7292C285.54 15.834 285.43 15.9141 285.299 15.9694C285.168 16.0247 285.021 16.0524 284.857 16.0524ZM284.857 15.6025C285.006 15.6025 285.122 15.5574 285.207 15.4672C285.291 15.3769 285.334 15.2444 285.334 15.0697V14.646C285.334 14.4742 285.291 14.3432 285.207 14.253C285.122 14.1627 285.006 14.1176 284.857 14.1176C284.712 14.1176 284.597 14.1627 284.512 14.253C284.428 14.3432 284.386 14.4742 284.386 14.646V15.0697C284.386 15.2444 284.428 15.3769 284.512 15.4672C284.597 15.5574 284.712 15.6025 284.857 15.6025ZM286.414 13.7201H286.973V14.0957H286.991C287.032 13.9647 287.109 13.8613 287.222 13.7856C287.336 13.707 287.468 13.6677 287.62 13.6677C287.911 13.6677 288.132 13.7711 288.284 13.9778C288.438 14.1816 288.515 14.4742 288.515 14.8557C288.515 15.24 288.438 15.5356 288.284 15.7423C288.132 15.949 287.911 16.0524 287.62 16.0524C287.468 16.0524 287.336 16.0131 287.222 15.9345C287.112 15.8559 287.035 15.751 286.991 15.62H286.973V16.8735H286.414V13.7201ZM287.441 15.5894C287.586 15.5894 287.704 15.5414 287.795 15.4453C287.885 15.3492 287.93 15.2197 287.93 15.0566V14.6635C287.93 14.5005 287.885 14.3709 287.795 14.2748C287.704 14.1758 287.586 14.1263 287.441 14.1263C287.307 14.1263 287.195 14.1598 287.105 14.2267C287.017 14.2937 286.973 14.3825 286.973 14.4932V15.2182C286.973 15.3376 287.017 15.4293 287.105 15.4934C287.195 15.5574 287.307 15.5894 287.441 15.5894ZM290.974 14.4364L290.659 13.8031H290.646V16H290.1V12.9514H290.734L291.651 14.515L291.965 15.1483H291.978V12.9514H292.524V16H291.891L290.974 14.4364ZM294.109 16.0524C293.946 16.0524 293.799 16.0247 293.668 15.9694C293.54 15.9141 293.429 15.834 293.336 15.7292C293.245 15.6244 293.176 15.4992 293.126 15.3536C293.077 15.2051 293.052 15.0391 293.052 14.8557C293.052 14.6722 293.077 14.5077 293.126 14.3621C293.176 14.2166 293.245 14.0928 293.336 13.9909C293.429 13.8861 293.54 13.806 293.668 13.7507C293.799 13.6954 293.946 13.6677 294.109 13.6677C294.272 13.6677 294.419 13.6954 294.55 13.7507C294.681 13.806 294.792 13.8861 294.882 13.9909C294.975 14.0928 295.046 14.2166 295.096 14.3621C295.145 14.5077 295.17 14.6722 295.17 14.8557C295.17 15.0391 295.145 15.2051 295.096 15.3536C295.046 15.4992 294.975 15.6244 294.882 15.7292C294.792 15.834 294.681 15.9141 294.55 15.9694C294.419 16.0247 294.272 16.0524 294.109 16.0524ZM294.109 15.6025C294.257 15.6025 294.374 15.5574 294.458 15.4672C294.543 15.3769 294.585 15.2444 294.585 15.0697V14.646C294.585 14.4742 294.543 14.3432 294.458 14.253C294.374 14.1627 294.257 14.1176 294.109 14.1176C293.963 14.1176 293.848 14.1627 293.764 14.253C293.679 14.3432 293.637 14.4742 293.637 14.646V15.0697C293.637 15.2444 293.679 15.3769 293.764 15.4672C293.848 15.5574 293.963 15.6025 294.109 15.6025ZM295.405 13.7201H295.942L296.173 14.6591L296.352 15.4409H296.37L296.579 14.6591L296.846 13.7201H297.353L297.628 14.6591L297.842 15.4409H297.859L298.038 14.6591L298.265 13.7201H298.785L298.161 16H297.558L297.265 14.9954L297.095 14.3752H297.082L296.916 14.9954L296.628 16H296.034L295.405 13.7201Z" fill="#373853"/>
<path fill-rule="evenodd" clip-rule="evenodd" d="M336.338 12.6047C336.196 12.4625 335.966 12.4625 335.823 12.6047C335.681 12.7468 335.681 12.9772 335.823 13.1194L337.204 14.4999L335.823 15.8806C335.681 16.0227 335.681 16.2532 335.823 16.3953C335.966 16.5374 336.196 16.5374 336.338 16.3953L337.719 15.0147L339.099 16.3951C339.241 16.5372 339.472 16.5372 339.614 16.3951C339.756 16.2529 339.756 16.0225 339.614 15.8804L338.233 14.4999L339.614 13.1196C339.756 12.9775 339.756 12.747 339.614 12.6049C339.472 12.4627 339.241 12.4627 339.099 12.6049L337.719 13.9852L336.338 12.6047Z" fill="white"/>
<rect opacity="0.1" x="196.977" y="7.46128" width="54.0687" height="14.5587" rx="1.81802" stroke="white" stroke-width="0.363968" stroke-dasharray="1.46 1.46"/>
<g clip-path="url(#clip1_1977_150)">
<path d="M203.75 4.75L202.25 6.25L202.75 6.75L204.5 5V4.75M202 7.125C201.967 7.125 201.935 7.11183 201.912 7.08839C201.888 7.06495 201.875 7.03315 201.875 7C201.875 6.96685 201.888 6.93505 201.912 6.91161C201.935 6.88817 201.967 6.875 202 6.875C202.033 6.875 202.065 6.88817 202.089 6.91161C202.112 6.93505 202.125 6.96685 202.125 7C202.125 7.03315 202.112 7.06495 202.089 7.08839C202.065 7.11183 202.033 7.125 202 7.125ZM200.5 9C200.368 9 200.24 8.94732 200.147 8.85355C200.053 8.75979 200 8.63261 200 8.5C200 8.36739 200.053 8.24022 200.147 8.14645C200.24 8.05268 200.368 8 200.5 8C200.633 8 200.76 8.05268 200.854 8.14645C200.947 8.24022 201 8.36739 201 8.5C201 8.63261 200.947 8.75979 200.854 8.85355C200.76 8.94732 200.633 9 200.5 9ZM200.5 6C200.368 6 200.24 5.94732 200.147 5.85355C200.053 5.75979 200 5.63261 200 5.5C200 5.36739 200.053 5.24021 200.147 5.14645C200.24 5.05268 200.368 5 200.5 5C200.633 5 200.76 5.05268 200.854 5.14645C200.947 5.24021 201 5.36739 201 5.5C201 5.63261 200.947 5.75979 200.854 5.85355C200.76 5.94732 200.633 6 200.5 6ZM201.41 5.91C201.468 5.785 201.5 5.6475 201.5 5.5C201.5 5.23478 201.395 4.98043 201.207 4.79289C201.02 4.60536 200.765 4.5 200.5 4.5C200.235 4.5 199.981 4.60536 199.793 4.79289C199.605 4.98043 199.5 5.23478 199.5 5.5C199.5 5.76522 199.605 6.01957 199.793 6.20711C199.981 6.39464 200.235 6.5 200.5 6.5C200.648 6.5 200.785 6.4675 200.91 6.41L201.5 7L200.91 7.59C200.785 7.5325 200.648 7.5 200.5 7.5C200.235 7.5 199.981 7.60536 199.793 7.79289C199.605 7.98043 199.5 8.23478 199.5 8.5C199.5 8.76522 199.605 9.01957 199.793 9.20711C199.981 9.39464 200.235 9.5 200.5 9.5C200.765 9.5 201.02 9.39464 201.207 9.20711C201.395 9.01957 201.5 8.76522 201.5 8.5C201.5 8.3525 201.468 8.215 201.41 8.09L202 7.5L203.75 9.25H204.5V9L201.41 5.91Z" fill="white"/>
</g>
<defs>
<linearGradient id="paint0_linear_1977_150" x1="0" y1="0" x2="347" y2="170" gradientUnits="userSpaceOnUse">
<stop stop-color="#826DFF"/>
<stop offset="1" stop-color="#D14040"/>
</linearGradient>
<clipPath id="clip0_1977_150">
<rect width="9.09919" height="9.09919" fill="white" transform="translate(7.2793 9.95117)"/>
</clipPath>
<clipPath id="clip1_1977_150">
<rect width="6" height="6" fill="white" transform="translate(199 4)"/>
</clipPath>
</defs>
</svg>
