<svg width="38" height="25" viewBox="0 0 38 25" fill="none" xmlns="http://www.w3.org/2000/svg">
<g clip-path="url(#clip0_533_1470)">
<path d="M35.15 7.70925H34.9695L32.053 3.382C31.3507 2.34067 30.4035 1.48771 29.2945 0.898024C28.1856 0.308339 26.9488 -3.04908e-05 25.6927 2.26126e-09L6.175 2.26126e-09C5.54511 2.26126e-09 4.94102 0.250222 4.49562 0.695621C4.05022 1.14102 3.8 1.74511 3.8 2.375V3.1635H1.78125C1.52929 3.1635 1.28766 3.26359 1.1095 3.44175C0.931339 3.61991 0.83125 3.86154 0.83125 4.1135C0.83125 4.36546 0.931339 4.60709 1.1095 4.78525C1.28766 4.96341 1.52929 5.0635 1.78125 5.0635H3.8V8.8635H0.95C0.698044 8.8635 0.456408 8.96359 0.278249 9.14175C0.100089 9.31991 0 9.56154 0 9.8135C0 10.0655 0.100089 10.3071 0.278249 10.4853C0.456408 10.6634 0.698044 10.7635 0.95 10.7635H3.8V14.5635H0.95C0.698044 14.5635 0.456408 14.6636 0.278249 14.8417C0.100089 15.0199 4.00395e-08 15.2615 4.00395e-08 15.5135C4.00395e-08 15.7655 0.100089 16.0071 0.278249 16.1853C0.456408 16.3634 0.698044 16.4635 0.95 16.4635H3.8V19C3.8 19.6299 4.05022 20.234 4.49562 20.6794C4.94102 21.1248 5.54511 21.375 6.175 21.375H7.6C7.81209 22.3511 8.35185 23.2253 9.12956 23.8521C9.90728 24.479 10.8761 24.8209 11.875 24.8209C12.8739 24.8209 13.8427 24.479 14.6204 23.8521C15.3981 23.2253 15.9379 22.3511 16.15 21.375H25.3602C25.5723 22.3511 26.1121 23.2253 26.8898 23.8521C27.6675 24.479 28.6363 24.8209 29.6353 24.8209C30.6342 24.8209 31.603 24.479 32.3807 23.8521C33.1584 23.2253 33.6982 22.3511 33.9102 21.375H35.625C36.2549 21.375 36.859 21.1248 37.3044 20.6794C37.7498 20.234 38 19.6299 38 19V10.5592C38 9.80338 37.6997 9.07847 37.1653 8.544C36.6308 8.00952 35.9059 7.70925 35.15 7.70925ZM26.6427 1.98075C27.4158 2.10913 28.1546 2.394 28.8137 2.8179C29.4728 3.2418 30.0385 3.79582 30.476 4.446L32.68 7.70925H27.1178C27.0166 7.70722 26.9188 7.67295 26.8384 7.61144C26.7581 7.54992 26.6996 7.46437 26.6713 7.36725C26.6546 7.32477 26.6449 7.27984 26.6427 7.23425V1.98075ZM11.875 22.876C11.3856 22.8816 10.9055 22.7421 10.4955 22.4749C10.0854 22.2077 9.76379 21.825 9.57125 21.375C9.44582 21.074 9.38125 20.7511 9.38125 20.425C9.38125 20.0989 9.44582 19.776 9.57125 19.475C9.76073 19.0256 10.0786 18.642 10.4849 18.3723C10.8913 18.1026 11.3683 17.9587 11.856 17.9587C12.3437 17.9587 12.8207 18.1026 13.2271 18.3723C13.6334 18.642 13.9513 19.0256 14.1407 19.475C14.2662 19.776 14.3307 20.0989 14.3307 20.425C14.3307 20.7511 14.2662 21.074 14.1407 21.375C13.9507 21.819 13.635 22.1977 13.2324 22.4644C12.8298 22.7311 12.3579 22.8742 11.875 22.876ZM29.6495 22.876C29.1601 22.8816 28.68 22.7421 28.27 22.4749C27.8599 22.2077 27.5383 21.825 27.3457 21.375C27.2203 21.074 27.1557 20.7511 27.1557 20.425C27.1557 20.0989 27.2203 19.776 27.3457 19.475C27.5352 19.0256 27.8531 18.642 28.2595 18.3723C28.6658 18.1026 29.1428 17.9587 29.6305 17.9587C30.1182 17.9587 30.5952 18.1026 31.0015 18.3723C31.4079 18.642 31.7258 19.0256 31.9153 19.475C32.0407 19.776 32.1052 20.0989 32.1052 20.425C32.1052 20.7511 32.0407 21.074 31.9153 21.375C31.724 21.822 31.4053 22.2027 30.9989 22.4696C30.5926 22.7365 30.1167 22.8779 29.6305 22.876H29.6495ZM36.1 19C36.1 19.126 36.05 19.2468 35.9609 19.3359C35.8718 19.425 35.751 19.475 35.625 19.475H33.9007C33.6887 18.4989 33.1489 17.6247 32.3712 16.9978C31.5935 16.371 30.6247 16.0291 29.6257 16.0291C28.6268 16.0291 27.658 16.371 26.8803 16.9978C26.1026 17.6247 25.5628 18.4989 25.3507 19.475H16.15C15.9379 18.4989 15.3981 17.6247 14.6204 16.9978C13.8427 16.371 12.8739 16.0291 11.875 16.0291C10.8761 16.0291 9.90728 16.371 9.12956 16.9978C8.35185 17.6247 7.81209 18.4989 7.6 19.475H6.175C6.04902 19.475 5.9282 19.425 5.83912 19.3359C5.75004 19.2468 5.7 19.126 5.7 19V10.7778H11.0247C11.2767 10.7778 11.5183 10.6777 11.6965 10.4995C11.8747 10.3213 11.9747 10.0797 11.9747 9.82775C11.9747 9.57579 11.8747 9.33416 11.6965 9.156C11.5183 8.97784 11.2767 8.87775 11.0247 8.87775H5.7V5.07775H7.48125C7.73321 5.07775 7.97484 4.97766 8.153 4.7995C8.33116 4.62134 8.43125 4.37971 8.43125 4.12775C8.43125 3.87579 8.33116 3.63416 8.153 3.456C7.97484 3.27784 7.73321 3.17775 7.48125 3.17775H5.7V2.375C5.7 2.24902 5.75004 2.1282 5.83912 2.03912C5.9282 1.95004 6.04902 1.9 6.175 1.9H24.7428V7.23425C24.7428 7.86414 24.993 8.46823 25.4384 8.91363C25.8838 9.35903 26.4879 9.60925 27.1178 9.60925H35.15C35.402 9.60925 35.6436 9.70934 35.8218 9.8875C35.9999 10.0657 36.1 10.3073 36.1 10.5592V19Z" fill="#0875FF"/>
</g>
<defs>
<clipPath id="clip0_533_1470">
<rect width="38" height="24.776" fill="white"/>
</clipPath>
</defs>
</svg>
