<svg width="347" height="170" viewBox="0 0 347 170" fill="none" xmlns="http://www.w3.org/2000/svg">
<path d="M0 10C0 4.47715 4.47715 0 10 0H337C342.523 0 347 4.47715 347 10V170H0V10Z" fill="url(#paint0_linear_2248_141)"/>
<path d="M154.72 39.5224V38.2546H160.693V39.5224H158.466V45.5273H156.946V39.5224H154.72ZM164.539 41.9407V43.141H161.222V41.9407H164.539ZM170.366 41.6282L168.981 41.7134C168.958 41.5951 168.907 41.4885 168.829 41.3938C168.75 41.2968 168.647 41.2198 168.52 41.163C168.394 41.1038 168.244 41.0742 168.069 41.0742C167.834 41.0742 167.637 41.1239 167.476 41.2234C167.315 41.3204 167.234 41.4506 167.234 41.614C167.234 41.7442 167.286 41.8543 167.39 41.9442C167.494 42.0342 167.673 42.1064 167.927 42.1609L168.914 42.3597C169.444 42.4686 169.839 42.6438 170.1 42.8853C170.36 43.1268 170.49 43.444 170.49 43.837C170.49 44.1945 170.385 44.5082 170.174 44.7781C169.966 45.0479 169.68 45.2586 169.315 45.4102C168.953 45.5593 168.535 45.6339 168.061 45.6339C167.339 45.6339 166.764 45.4835 166.336 45.1829C165.909 44.8799 165.66 44.4679 165.586 43.9471L167.074 43.869C167.119 44.0891 167.228 44.2572 167.401 44.3732C167.574 44.4869 167.795 44.5437 168.065 44.5437C168.33 44.5437 168.543 44.4928 168.704 44.391C168.868 44.2868 168.95 44.1531 168.953 43.9897C168.95 43.8524 168.892 43.7399 168.779 43.6523C168.665 43.5624 168.49 43.4937 168.253 43.4464L167.309 43.2582C166.776 43.1516 166.379 42.967 166.119 42.7042C165.861 42.4414 165.732 42.1064 165.732 41.6992C165.732 41.3488 165.827 41.047 166.016 40.7937C166.208 40.5404 166.476 40.3451 166.822 40.2077C167.17 40.0704 167.577 40.0018 168.044 40.0018C168.733 40.0018 169.275 40.1474 169.67 40.4386C170.068 40.7298 170.3 41.1263 170.366 41.6282ZM172.956 42.3739V45.5273H171.443V38.2546H172.913V41.0352H172.977C173.1 40.7132 173.299 40.4611 173.574 40.2788C173.848 40.0941 174.193 40.0018 174.607 40.0018C174.986 40.0018 175.316 40.0846 175.598 40.2504C175.882 40.4137 176.102 40.6493 176.258 40.957C176.417 41.2624 176.495 41.6282 176.493 42.0543V45.5273H174.98V42.3242C174.982 41.988 174.897 41.7264 174.724 41.5394C174.554 41.3524 174.315 41.2589 174.007 41.2589C173.801 41.2589 173.619 41.3027 173.46 41.3903C173.304 41.4779 173.181 41.6057 173.091 41.7738C173.003 41.9395 172.958 42.1396 172.956 42.3739ZM177.683 45.5273V40.0728H179.196V45.5273H177.683ZM178.443 39.3697C178.218 39.3697 178.025 39.2951 177.864 39.146C177.706 38.9944 177.626 38.8133 177.626 38.6026C177.626 38.3943 177.706 38.2156 177.864 38.0664C178.025 37.9149 178.218 37.8391 178.443 37.8391C178.668 37.8391 178.86 37.9149 179.019 38.0664C179.179 38.2156 179.26 38.3943 179.26 38.6026C179.26 38.8133 179.179 38.9944 179.019 39.146C178.86 39.2951 178.668 39.3697 178.443 39.3697ZM180.408 45.5273V40.0728H181.875V41.0245H181.931C182.031 40.686 182.198 40.4303 182.432 40.2575C182.666 40.0823 182.936 39.9947 183.242 39.9947C183.317 39.9947 183.399 39.9994 183.487 40.0089C183.574 40.0183 183.651 40.0314 183.718 40.0479V41.3903C183.647 41.369 183.548 41.35 183.423 41.3335C183.297 41.3169 183.183 41.3086 183.078 41.3086C182.856 41.3086 182.657 41.3571 182.482 41.4542C182.309 41.5489 182.172 41.6815 182.07 41.8519C181.97 42.0224 181.921 42.2189 181.921 42.4414V45.5273H180.408ZM187.674 40.0728V41.2092H184.39V40.0728H187.674ZM185.135 38.766H186.648V43.8512C186.648 43.9909 186.669 44.0998 186.712 44.1779C186.755 44.2537 186.814 44.3069 186.89 44.3377C186.968 44.3685 187.058 44.3839 187.159 44.3839C187.231 44.3839 187.302 44.378 187.373 44.3661C187.444 44.3519 187.498 44.3413 187.536 44.3342L187.774 45.4599C187.698 45.4835 187.592 45.5108 187.454 45.5415C187.317 45.5747 187.15 45.5948 186.954 45.6019C186.589 45.6161 186.269 45.5676 185.995 45.4563C185.722 45.3451 185.511 45.1722 185.359 44.9379C185.208 44.7035 185.133 44.4076 185.135 44.0501V38.766ZM192.64 45.5273L190.559 38.2546H192.239L193.442 43.3079H193.503L194.831 38.2546H196.269L197.594 43.3185H197.658L198.861 38.2546H200.541L198.46 45.5273H196.962L195.577 40.7724H195.52L194.138 45.5273H192.64ZM201.336 45.5273V40.0728H202.848V45.5273H201.336ZM202.096 39.3697C201.871 39.3697 201.678 39.2951 201.517 39.146C201.358 38.9944 201.279 38.8133 201.279 38.6026C201.279 38.3943 201.358 38.2156 201.517 38.0664C201.678 37.9149 201.871 37.8391 202.096 37.8391C202.32 37.8391 202.512 37.9149 202.671 38.0664C202.832 38.2156 202.912 38.3943 202.912 38.6026C202.912 38.8133 202.832 38.9944 202.671 39.146C202.512 39.2951 202.32 39.3697 202.096 39.3697ZM206.962 40.0728V41.2092H203.677V40.0728H206.962ZM204.422 38.766H205.935V43.8512C205.935 43.9909 205.957 44.0998 205.999 44.1779C206.042 44.2537 206.101 44.3069 206.177 44.3377C206.255 44.3685 206.345 44.3839 206.447 44.3839C206.518 44.3839 206.589 44.378 206.66 44.3661C206.731 44.3519 206.785 44.3413 206.823 44.3342L207.061 45.4599C206.985 45.4835 206.879 45.5108 206.741 45.5415C206.604 45.5747 206.437 45.5948 206.241 45.6019C205.876 45.6161 205.556 45.5676 205.282 45.4563C205.01 45.3451 204.798 45.1722 204.646 44.9379C204.495 44.7035 204.42 44.4076 204.422 44.0501V38.766ZM209.577 42.3739V45.5273H208.064V38.2546H209.534V41.0352H209.598C209.721 40.7132 209.92 40.4611 210.195 40.2788C210.469 40.0941 210.814 40.0018 211.228 40.0018C211.607 40.0018 211.937 40.0846 212.219 40.2504C212.503 40.4137 212.723 40.6493 212.879 40.957C213.038 41.2624 213.116 41.6282 213.114 42.0543V45.5273H211.601V42.3242C211.603 41.988 211.518 41.7264 211.345 41.5394C211.175 41.3524 210.936 41.2589 210.628 41.2589C210.422 41.2589 210.24 41.3027 210.081 41.3903C209.925 41.4779 209.802 41.6057 209.712 41.7738C209.624 41.9395 209.579 42.1396 209.577 42.3739ZM216.647 45.5273V38.2546H218.185V44.2596H221.303V45.5273H216.647ZM224.757 45.6339C224.206 45.6339 223.729 45.5167 223.326 45.2823C222.926 45.0456 222.617 44.7165 222.399 44.2951C222.181 43.8713 222.072 43.3801 222.072 42.8214C222.072 42.2579 222.181 41.7655 222.399 41.3441C222.617 40.9203 222.926 40.5913 223.326 40.3569C223.729 40.1201 224.206 40.0018 224.757 40.0018C225.309 40.0018 225.785 40.1201 226.185 40.3569C226.587 40.5913 226.897 40.9203 227.115 41.3441C227.333 41.7655 227.442 42.2579 227.442 42.8214C227.442 43.3801 227.333 43.8713 227.115 44.2951C226.897 44.7165 226.587 45.0456 226.185 45.2823C225.785 45.5167 225.309 45.6339 224.757 45.6339ZM224.764 44.462C225.015 44.462 225.225 44.391 225.393 44.2489C225.561 44.1045 225.688 43.908 225.773 43.6594C225.86 43.4109 225.904 43.128 225.904 42.8107C225.904 42.4935 225.86 42.2106 225.773 41.962C225.688 41.7134 225.561 41.5169 225.393 41.3725C225.225 41.2281 225.015 41.1559 224.764 41.1559C224.511 41.1559 224.298 41.2281 224.125 41.3725C223.955 41.5169 223.826 41.7134 223.738 41.962C223.653 42.2106 223.61 42.4935 223.61 42.8107C223.61 43.128 223.653 43.4109 223.738 43.6594C223.826 43.908 223.955 44.1045 224.125 44.2489C224.298 44.391 224.511 44.462 224.764 44.462ZM230.883 47.6864C230.393 47.6864 229.973 47.619 229.622 47.484C229.274 47.3514 228.997 47.1703 228.791 46.9407C228.585 46.7111 228.452 46.453 228.39 46.1665L229.789 45.9783C229.832 46.0872 229.899 46.189 229.992 46.2837C230.084 46.3784 230.206 46.4542 230.357 46.511C230.511 46.5702 230.698 46.5998 230.918 46.5998C231.247 46.5998 231.519 46.5193 231.732 46.3583C231.947 46.1997 232.055 45.9334 232.055 45.5593V44.5614H231.991C231.925 44.7129 231.825 44.8562 231.693 44.9911C231.56 45.1261 231.389 45.2362 231.181 45.3214C230.973 45.4066 230.724 45.4492 230.435 45.4492C230.026 45.4492 229.653 45.3545 229.317 45.1651C228.983 44.9734 228.717 44.681 228.518 44.288C228.321 43.8926 228.223 43.3931 228.223 42.7894C228.223 42.1715 228.324 41.6554 228.525 41.2411C228.726 40.8268 228.994 40.5167 229.327 40.3107C229.664 40.1048 230.032 40.0018 230.432 40.0018C230.737 40.0018 230.993 40.0539 231.199 40.158C231.405 40.2598 231.571 40.3877 231.696 40.5415C231.824 40.6931 231.922 40.8422 231.991 40.989H232.048V40.0728H233.55V45.5806C233.55 46.0446 233.436 46.4329 233.209 46.7454C232.982 47.0579 232.667 47.2923 232.264 47.4485C231.864 47.6071 231.404 47.6864 230.883 47.6864ZM230.915 44.3129C231.159 44.3129 231.365 44.2525 231.533 44.1317C231.703 44.0086 231.833 43.8335 231.923 43.6062C232.016 43.3765 232.062 43.1019 232.062 42.7823C232.062 42.4627 232.017 42.1857 231.927 41.9513C231.837 41.7146 231.707 41.5311 231.536 41.4009C231.366 41.2707 231.159 41.2056 230.915 41.2056C230.666 41.2056 230.457 41.2731 230.286 41.408C230.116 41.5406 229.987 41.7253 229.899 41.962C229.812 42.1987 229.768 42.4722 229.768 42.7823C229.768 43.0972 229.812 43.3694 229.899 43.5991C229.989 43.8263 230.118 44.0027 230.286 44.1282C230.457 44.2513 230.666 44.3129 230.915 44.3129ZM237.218 45.6339C236.666 45.6339 236.189 45.5167 235.787 45.2823C235.387 45.0456 235.078 44.7165 234.86 44.2951C234.642 43.8713 234.533 43.3801 234.533 42.8214C234.533 42.2579 234.642 41.7655 234.86 41.3441C235.078 40.9203 235.387 40.5913 235.787 40.3569C236.189 40.1201 236.666 40.0018 237.218 40.0018C237.77 40.0018 238.246 40.1201 238.646 40.3569C239.048 40.5913 239.358 40.9203 239.576 41.3441C239.794 41.7655 239.903 42.2579 239.903 42.8214C239.903 43.3801 239.794 43.8713 239.576 44.2951C239.358 44.7165 239.048 45.0456 238.646 45.2823C238.246 45.5167 237.77 45.6339 237.218 45.6339ZM237.225 44.462C237.476 44.462 237.686 44.391 237.854 44.2489C238.022 44.1045 238.148 43.908 238.234 43.6594C238.321 43.4109 238.365 43.128 238.365 42.8107C238.365 42.4935 238.321 42.2106 238.234 41.962C238.148 41.7134 238.022 41.5169 237.854 41.3725C237.686 41.2281 237.476 41.1559 237.225 41.1559C236.972 41.1559 236.759 41.2281 236.586 41.3725C236.416 41.5169 236.287 41.7134 236.199 41.962C236.114 42.2106 236.071 42.4935 236.071 42.8107C236.071 43.128 236.114 43.4109 236.199 43.6594C236.287 43.908 236.416 44.1045 236.586 44.2489C236.759 44.391 236.972 44.462 237.225 44.462Z" fill="white"/>
<path d="M156.184 60.0728V54.6183H156.534V60.0728H156.184ZM157.111 56.4187C157.094 56.2468 157.021 56.1133 156.892 56.0181C156.762 55.9229 156.587 55.8754 156.365 55.8754C156.215 55.8754 156.088 55.8967 155.984 55.9393C155.88 55.9805 155.801 56.038 155.745 56.1119C155.691 56.1857 155.664 56.2695 155.664 56.3633C155.662 56.4414 155.678 56.5096 155.713 56.5678C155.75 56.6261 155.801 56.6765 155.865 56.7191C155.929 56.7603 156.003 56.7965 156.086 56.8278C156.17 56.8576 156.26 56.8832 156.355 56.9045L156.747 56.9982C156.937 57.0408 157.112 57.0977 157.271 57.1687C157.43 57.2397 157.568 57.3271 157.684 57.4308C157.801 57.5344 157.891 57.6566 157.955 57.7972C158.02 57.9379 158.054 58.0991 158.055 58.2809C158.054 58.5479 157.985 58.7795 157.851 58.9755C157.717 59.1701 157.524 59.3214 157.271 59.4293C157.02 59.5359 156.716 59.5891 156.361 59.5891C156.009 59.5891 155.702 59.5352 155.441 59.4272C155.181 59.3192 154.978 59.1594 154.831 58.9478C154.686 58.7347 154.61 58.4712 154.603 58.1573H155.496C155.506 58.3036 155.548 58.4258 155.622 58.5238C155.697 58.6204 155.797 58.6935 155.922 58.7433C156.049 58.7915 156.191 58.8157 156.351 58.8157C156.507 58.8157 156.642 58.793 156.758 58.7475C156.874 58.7021 156.964 58.6388 157.028 58.5579C157.092 58.4769 157.124 58.3839 157.124 58.2788C157.124 58.1808 157.095 58.0984 157.037 58.0316C156.98 57.9648 156.896 57.908 156.785 57.8612C156.676 57.8143 156.542 57.7717 156.383 57.7333L155.907 57.614C155.539 57.5245 155.249 57.3846 155.036 57.1942C154.823 57.0039 154.717 56.7475 154.718 56.4251C154.717 56.1609 154.787 55.93 154.929 55.7326C155.073 55.5352 155.27 55.381 155.52 55.2702C155.77 55.1594 156.054 55.104 156.372 55.104C156.696 55.104 156.978 55.1594 157.22 55.2702C157.463 55.381 157.652 55.5352 157.787 55.7326C157.922 55.93 157.991 56.1587 157.995 56.4187H157.111ZM160.549 55.1637V59.5273H159.626V56.0394H159.6L158.601 56.6658V55.8477L159.681 55.1637H160.549ZM163.213 59.587C162.885 59.587 162.593 59.5337 162.338 59.4272C162.083 59.3192 161.884 59.1722 161.739 58.9862C161.594 58.8001 161.522 58.5891 161.522 58.3533C161.522 58.1715 161.563 58.0046 161.645 57.8526C161.729 57.6992 161.843 57.5721 161.986 57.4712C162.13 57.369 162.29 57.3036 162.468 57.2752V57.2454C162.235 57.1985 162.046 57.0856 161.901 56.9066C161.756 56.7262 161.684 56.5167 161.684 56.2781C161.684 56.0522 161.75 55.8512 161.882 55.6751C162.014 55.4975 162.195 55.3583 162.425 55.2575C162.657 55.1552 162.919 55.104 163.213 55.104C163.508 55.104 163.77 55.1552 164 55.2575C164.231 55.3597 164.413 55.4996 164.545 55.6772C164.677 55.8533 164.744 56.0536 164.745 56.2781C164.744 56.5181 164.67 56.7276 164.524 56.9066C164.378 57.0856 164.19 57.1985 163.961 57.2454V57.2752C164.136 57.3036 164.294 57.369 164.436 57.4712C164.58 57.5721 164.694 57.6992 164.777 57.8526C164.863 58.0046 164.906 58.1715 164.907 58.3533C164.906 58.5891 164.833 58.8001 164.688 58.9862C164.543 59.1722 164.343 59.3192 164.087 59.4272C163.833 59.5337 163.542 59.587 163.213 59.587ZM163.213 58.9094C163.36 58.9094 163.488 58.8832 163.597 58.8306C163.706 58.7766 163.792 58.7028 163.853 58.609C163.915 58.5138 163.946 58.4045 163.946 58.2809C163.946 58.1545 163.914 58.043 163.851 57.9464C163.787 57.8484 163.7 57.7717 163.591 57.7163C163.481 57.6594 163.356 57.631 163.213 57.631C163.073 57.631 162.947 57.6594 162.836 57.7163C162.726 57.7717 162.638 57.8484 162.574 57.9464C162.512 58.043 162.481 58.1545 162.481 58.2809C162.481 58.4045 162.511 58.5138 162.572 58.609C162.633 58.7028 162.719 58.7766 162.83 58.8306C162.941 58.8832 163.069 58.9094 163.213 58.9094ZM163.213 56.9599C163.336 56.9599 163.444 56.935 163.539 56.8853C163.635 56.8356 163.709 56.7667 163.763 56.6786C163.817 56.5906 163.844 56.489 163.844 56.3739C163.844 56.2603 163.817 56.1609 163.763 56.0756C163.709 55.989 163.635 55.9215 163.542 55.8732C163.448 55.8235 163.338 55.7987 163.213 55.7987C163.09 55.7987 162.981 55.8235 162.885 55.8732C162.79 55.9215 162.716 55.989 162.662 56.0756C162.609 56.1609 162.583 56.2603 162.583 56.3739C162.583 56.489 162.61 56.5906 162.664 56.6786C162.718 56.7667 162.792 56.8356 162.887 56.8853C162.983 56.935 163.091 56.9599 163.213 56.9599ZM165.968 59.5827C165.828 59.5827 165.707 59.533 165.606 59.4336C165.507 59.3327 165.457 59.212 165.457 59.0714C165.457 58.9322 165.507 58.8129 165.606 58.7134C165.707 58.614 165.828 58.5643 165.968 58.5643C166.105 58.5643 166.224 58.614 166.326 58.7134C166.429 58.8129 166.48 58.9322 166.48 59.0714C166.48 59.1651 166.456 59.2511 166.407 59.3292C166.36 59.4059 166.299 59.4677 166.222 59.5146C166.145 59.56 166.061 59.5827 165.968 59.5827ZM168.752 59.6232C168.385 59.6218 168.07 59.5316 167.806 59.3526C167.543 59.1737 167.34 58.9144 167.198 58.5749C167.058 58.2354 166.988 57.8271 166.99 57.3498C166.99 56.8739 167.06 56.4684 167.201 56.1332C167.343 55.7979 167.545 55.543 167.808 55.3683C168.072 55.1921 168.387 55.104 168.752 55.104C169.117 55.104 169.431 55.1921 169.693 55.3683C169.958 55.5444 170.161 55.8001 170.303 56.1353C170.445 56.4691 170.515 56.8739 170.514 57.3498C170.514 57.8285 170.443 58.2376 170.301 58.5771C170.16 58.9165 169.958 59.1758 169.696 59.3548C169.433 59.5337 169.118 59.6232 168.752 59.6232ZM168.752 58.8583C169.002 58.8583 169.201 58.7326 169.35 58.4812C169.5 58.2298 169.573 57.8526 169.572 57.3498C169.572 57.0188 169.538 56.7433 169.47 56.5231C169.403 56.3029 169.308 56.1374 169.184 56.0266C169.062 55.9158 168.918 55.8604 168.752 55.8604C168.503 55.8604 168.304 55.9847 168.155 56.2333C168.006 56.4819 167.931 56.854 167.929 57.3498C167.929 57.685 167.963 57.9648 168.029 58.1893C168.098 58.4123 168.193 58.5799 168.317 58.6921C168.441 58.8029 168.585 58.8583 168.752 58.8583ZM172.883 59.6232C172.516 59.6218 172.201 59.5316 171.936 59.3526C171.674 59.1737 171.471 58.9144 171.329 58.5749C171.189 58.2354 171.119 57.8271 171.12 57.3498C171.12 56.8739 171.191 56.4684 171.331 56.1332C171.473 55.7979 171.676 55.543 171.939 55.3683C172.203 55.1921 172.517 55.104 172.883 55.104C173.248 55.104 173.561 55.1921 173.824 55.3683C174.088 55.5444 174.292 55.8001 174.434 56.1353C174.576 56.4691 174.646 56.8739 174.645 57.3498C174.645 57.8285 174.574 58.2376 174.432 58.5771C174.291 58.9165 174.089 59.1758 173.826 59.3548C173.564 59.5337 173.249 59.6232 172.883 59.6232ZM172.883 58.8583C173.133 58.8583 173.332 58.7326 173.481 58.4812C173.63 58.2298 173.704 57.8526 173.703 57.3498C173.703 57.0188 173.669 56.7433 173.601 56.5231C173.534 56.3029 173.439 56.1374 173.315 56.0266C173.193 55.9158 173.049 55.8604 172.883 55.8604C172.634 55.8604 172.435 55.9847 172.286 56.2333C172.137 56.4819 172.061 56.854 172.06 57.3498C172.06 57.685 172.093 57.9648 172.16 58.1893C172.228 58.4123 172.324 58.5799 172.448 58.6921C172.571 58.8029 172.716 58.8583 172.883 58.8583Z" fill="white"/>
<path opacity="0.8" d="M154.629 67.7305V67.1637H158.006V67.7305H156.645V71.5273H155.988V67.7305H154.629ZM159.338 69.5842V71.5273H158.701V67.1637H159.33V68.7873H159.37C159.447 68.6112 159.564 68.4712 159.722 68.3675C159.879 68.2638 160.085 68.212 160.34 68.212C160.564 68.212 160.76 68.2582 160.928 68.3505C161.097 68.4428 161.227 68.5806 161.32 68.7638C161.414 68.9457 161.46 69.1729 161.46 69.4457V71.5273H160.823V69.5224C160.823 69.2823 160.762 69.0962 160.638 68.9641C160.514 68.8306 160.343 68.7638 160.122 68.7638C159.972 68.7638 159.837 68.7958 159.718 68.8597C159.6 68.9237 159.507 69.0174 159.438 69.141C159.372 69.2631 159.338 69.4109 159.338 69.5842ZM162.311 71.5273V68.2546H162.948V71.5273H162.311ZM162.632 67.7496C162.522 67.7496 162.426 67.7127 162.347 67.6388C162.269 67.5636 162.23 67.4741 162.23 67.3704C162.23 67.2653 162.269 67.1758 162.347 67.1019C162.426 67.0266 162.522 66.989 162.632 66.989C162.743 66.989 162.838 67.0266 162.916 67.1019C162.995 67.1758 163.035 67.2653 163.035 67.3704C163.035 67.4741 162.995 67.5636 162.916 67.6388C162.838 67.7127 162.743 67.7496 162.632 67.7496ZM166.257 69.0536L165.68 69.1559C165.656 69.082 165.617 69.0117 165.565 68.945C165.514 68.8782 165.444 68.8235 165.356 68.7809C165.268 68.7383 165.158 68.717 165.026 68.717C164.845 68.717 164.695 68.7575 164.574 68.8384C164.453 68.918 164.393 69.021 164.393 69.1474C164.393 69.2567 164.433 69.3448 164.514 69.4116C164.595 69.4783 164.726 69.533 164.906 69.5756L165.426 69.695C165.727 69.7646 165.952 69.8718 166.099 70.0167C166.247 70.1616 166.321 70.3498 166.321 70.5813C166.321 70.7773 166.264 70.9521 166.151 71.1055C166.038 71.2575 165.881 71.3768 165.68 71.4634C165.479 71.5501 165.247 71.5934 164.983 71.5934C164.617 71.5934 164.318 71.5153 164.086 71.359C163.854 71.2013 163.712 70.9776 163.66 70.6879L164.276 70.5941C164.314 70.7546 164.393 70.8761 164.512 70.9585C164.631 71.0394 164.787 71.0799 164.979 71.0799C165.188 71.0799 165.354 71.0366 165.479 70.9499C165.604 70.8619 165.667 70.7546 165.667 70.6282C165.667 70.5259 165.629 70.44 165.552 70.3704C165.477 70.3008 165.361 70.2482 165.205 70.2127L164.651 70.0913C164.345 70.0217 164.119 69.9109 163.973 69.7589C163.828 69.6069 163.756 69.4144 163.756 69.1815C163.756 68.9883 163.81 68.8192 163.918 68.6744C164.026 68.5295 164.175 68.4165 164.365 68.3356C164.555 68.2532 164.773 68.212 165.019 68.212C165.373 68.212 165.651 68.2887 165.854 68.4421C166.058 68.5941 166.192 68.7979 166.257 69.0536ZM168.609 71.5273V68.2546H169.246V71.5273H168.609ZM168.931 67.7496C168.82 67.7496 168.725 67.7127 168.646 67.6388C168.568 67.5636 168.528 67.4741 168.528 67.3704C168.528 67.2653 168.568 67.1758 168.646 67.1019C168.725 67.0266 168.82 66.989 168.931 66.989C169.042 66.989 169.136 67.0266 169.215 67.1019C169.294 67.1758 169.334 67.2653 169.334 67.3704C169.334 67.4741 169.294 67.5636 169.215 67.6388C169.136 67.7127 169.042 67.7496 168.931 67.7496ZM172.556 69.0536L171.979 69.1559C171.954 69.082 171.916 69.0117 171.864 68.945C171.812 68.8782 171.743 68.8235 171.655 68.7809C171.567 68.7383 171.457 68.717 171.324 68.717C171.144 68.717 170.993 68.7575 170.873 68.8384C170.752 68.918 170.692 69.021 170.692 69.1474C170.692 69.2567 170.732 69.3448 170.813 69.4116C170.894 69.4783 171.025 69.533 171.205 69.5756L171.725 69.695C172.026 69.7646 172.251 69.8718 172.398 70.0167C172.546 70.1616 172.62 70.3498 172.62 70.5813C172.62 70.7773 172.563 70.9521 172.449 71.1055C172.337 71.2575 172.18 71.3768 171.979 71.4634C171.778 71.5501 171.546 71.5934 171.282 71.5934C170.915 71.5934 170.616 71.5153 170.385 71.359C170.153 71.2013 170.011 70.9776 169.959 70.6879L170.574 70.5941C170.613 70.7546 170.692 70.8761 170.811 70.9585C170.93 71.0394 171.086 71.0799 171.278 71.0799C171.486 71.0799 171.653 71.0366 171.778 70.9499C171.903 70.8619 171.966 70.7546 171.966 70.6282C171.966 70.5259 171.927 70.44 171.851 70.3704C171.775 70.3008 171.66 70.2482 171.503 70.2127L170.949 70.0913C170.644 70.0217 170.418 69.9109 170.272 69.7589C170.127 69.6069 170.055 69.4144 170.055 69.1815C170.055 68.9883 170.109 68.8192 170.216 68.6744C170.324 68.5295 170.474 68.4165 170.664 68.3356C170.854 68.2532 171.072 68.212 171.318 68.212C171.672 68.212 171.95 68.2887 172.153 68.4421C172.356 68.5941 172.491 68.7979 172.556 69.0536ZM175.861 71.5998C175.653 71.5998 175.466 71.5614 175.298 71.4847C175.131 71.4066 174.998 71.2937 174.9 71.146C174.803 70.9982 174.755 70.8171 174.755 70.6026C174.755 70.418 174.79 70.266 174.861 70.1467C174.932 70.0273 175.028 69.9329 175.149 69.8633C175.27 69.7937 175.405 69.7411 175.554 69.7056C175.703 69.6701 175.855 69.6431 176.01 69.6246C176.206 69.6019 176.365 69.5835 176.487 69.5692C176.609 69.5536 176.698 69.5288 176.753 69.4947C176.809 69.4606 176.837 69.4052 176.837 69.3285V69.3136C176.837 69.1275 176.784 68.9833 176.679 68.881C176.575 68.7788 176.42 68.7276 176.214 68.7276C176 68.7276 175.831 68.7752 175.707 68.8704C175.585 68.9641 175.501 69.0685 175.454 69.1836L174.855 69.0472C174.926 68.8484 175.03 68.6879 175.166 68.5657C175.304 68.4421 175.462 68.3526 175.641 68.2972C175.82 68.2404 176.008 68.212 176.206 68.212C176.337 68.212 176.475 68.2276 176.621 68.2589C176.769 68.2887 176.907 68.3441 177.035 68.4251C177.164 68.506 177.27 68.6218 177.352 68.7724C177.435 68.9215 177.476 69.1154 177.476 69.354V71.5273H176.854V71.0799H176.828C176.787 71.1623 176.725 71.2433 176.643 71.3228C176.56 71.4023 176.454 71.4684 176.325 71.521C176.196 71.5735 176.041 71.5998 175.861 71.5998ZM175.999 71.0884C176.175 71.0884 176.326 71.0536 176.451 70.984C176.577 70.9144 176.673 70.8235 176.739 70.7113C176.805 70.5977 176.839 70.4762 176.839 70.3469V69.9251C176.816 69.9478 176.772 69.9691 176.707 69.989C176.643 70.0075 176.569 70.0238 176.487 70.038C176.405 70.0508 176.324 70.0629 176.246 70.0742C176.168 70.0842 176.103 70.0927 176.05 70.0998C175.927 70.1154 175.814 70.1417 175.712 70.1786C175.611 70.2156 175.53 70.2688 175.469 70.3384C175.409 70.4066 175.379 70.4975 175.379 70.6112C175.379 70.7688 175.437 70.8881 175.554 70.9691C175.67 71.0487 175.819 71.0884 175.999 71.0884ZM182.365 69.0536L181.787 69.1559C181.763 69.082 181.725 69.0117 181.672 68.945C181.621 68.8782 181.551 68.8235 181.463 68.7809C181.375 68.7383 181.265 68.717 181.133 68.717C180.953 68.717 180.802 68.7575 180.681 68.8384C180.561 68.918 180.5 69.021 180.5 69.1474C180.5 69.2567 180.541 69.3448 180.622 69.4116C180.703 69.4783 180.833 69.533 181.014 69.5756L181.534 69.695C181.835 69.7646 182.059 69.8718 182.207 70.0167C182.355 70.1616 182.428 70.3498 182.428 70.5813C182.428 70.7773 182.372 70.9521 182.258 71.1055C182.146 71.2575 181.989 71.3768 181.787 71.4634C181.587 71.5501 181.355 71.5934 181.09 71.5934C180.724 71.5934 180.425 71.5153 180.193 71.359C179.962 71.2013 179.82 70.9776 179.767 70.6879L180.383 70.5941C180.421 70.7546 180.5 70.8761 180.62 70.9585C180.739 71.0394 180.894 71.0799 181.086 71.0799C181.295 71.0799 181.462 71.0366 181.587 70.9499C181.712 70.8619 181.774 70.7546 181.774 70.6282C181.774 70.5259 181.736 70.44 181.659 70.3704C181.584 70.3008 181.468 70.2482 181.312 70.2127L180.758 70.0913C180.453 70.0217 180.227 69.9109 180.08 69.7589C179.936 69.6069 179.863 69.4144 179.863 69.1815C179.863 68.9883 179.917 68.8192 180.025 68.6744C180.133 68.5295 180.282 68.4165 180.473 68.3356C180.663 68.2532 180.881 68.212 181.127 68.212C181.48 68.212 181.759 68.2887 181.962 68.4421C182.165 68.5941 182.299 68.7979 182.365 69.0536ZM183.129 71.5273V68.2546H183.766V71.5273H183.129ZM183.451 67.7496C183.34 67.7496 183.245 67.7127 183.165 67.6388C183.087 67.5636 183.048 67.4741 183.048 67.3704C183.048 67.2653 183.087 67.1758 183.165 67.1019C183.245 67.0266 183.34 66.989 183.451 66.989C183.561 66.989 183.656 67.0266 183.734 67.1019C183.814 67.1758 183.853 67.2653 183.853 67.3704C183.853 67.4741 183.814 67.5636 183.734 67.6388C183.656 67.7127 183.561 67.7496 183.451 67.7496ZM184.623 71.5273V68.2546H185.235V68.7873H185.275C185.343 68.6069 185.455 68.4663 185.61 68.3654C185.764 68.2631 185.95 68.212 186.166 68.212C186.384 68.212 186.568 68.2631 186.715 68.3654C186.865 68.4677 186.975 68.6083 187.046 68.7873H187.08C187.158 68.6126 187.282 68.4734 187.453 68.3697C187.623 68.2646 187.826 68.212 188.062 68.212C188.359 68.212 188.601 68.305 188.789 68.4911C188.977 68.6772 189.072 68.9577 189.072 69.3327V71.5273H188.435V69.3924C188.435 69.1708 188.375 69.0103 188.254 68.9109C188.133 68.8114 187.989 68.7617 187.821 68.7617C187.614 68.7617 187.453 68.8256 187.338 68.9535C187.223 69.0799 187.165 69.2425 187.165 69.4414V71.5273H186.53V69.3519C186.53 69.1744 186.475 69.0316 186.364 68.9237C186.253 68.8157 186.109 68.7617 185.931 68.7617C185.811 68.7617 185.699 68.7937 185.597 68.8576C185.496 68.9201 185.414 69.0075 185.352 69.1197C185.291 69.2319 185.26 69.3619 185.26 69.5096V71.5273H184.623ZM189.926 72.7546V68.2546H190.548V68.7852H190.601C190.638 68.717 190.691 68.6381 190.761 68.5487C190.831 68.4592 190.927 68.381 191.051 68.3143C191.174 68.2461 191.338 68.212 191.541 68.212C191.805 68.212 192.041 68.2788 192.248 68.4123C192.456 68.5458 192.618 68.7383 192.736 68.9897C192.856 69.2411 192.915 69.5437 192.915 69.8974C192.915 70.2511 192.856 70.5543 192.738 70.8072C192.62 71.0586 192.458 71.2525 192.253 71.3888C192.047 71.5238 191.811 71.5913 191.547 71.5913C191.348 71.5913 191.186 71.5579 191.059 71.4911C190.934 71.4244 190.836 71.3462 190.765 71.2567C190.694 71.1673 190.64 71.0877 190.601 71.0181H190.563V72.7546H189.926ZM190.55 69.891C190.55 70.1211 190.583 70.3228 190.65 70.4961C190.717 70.6694 190.814 70.805 190.94 70.9031C191.066 70.9996 191.221 71.0479 191.405 71.0479C191.595 71.0479 191.754 70.9975 191.882 70.8967C192.01 70.7944 192.106 70.6559 192.172 70.4812C192.238 70.3065 192.272 70.1097 192.272 69.891C192.272 69.6751 192.239 69.4812 192.174 69.3093C192.11 69.1374 192.013 69.0018 191.884 68.9023C191.756 68.8029 191.596 68.7532 191.405 68.7532C191.22 68.7532 191.064 68.8008 190.936 68.896C190.809 68.9911 190.713 69.1239 190.648 69.2944C190.583 69.4648 190.55 69.6637 190.55 69.891ZM194.266 67.1637V71.5273H193.629V67.1637H194.266ZM196.534 71.5934C196.211 71.5934 195.933 71.5245 195.701 71.3867C195.469 71.2475 195.29 71.0522 195.164 70.8008C195.039 70.5479 194.976 70.2518 194.976 69.9123C194.976 69.5771 195.039 69.2816 195.164 69.0259C195.29 68.7702 195.466 68.5707 195.692 68.4272C195.919 68.2837 196.185 68.212 196.489 68.212C196.674 68.212 196.852 68.2425 197.026 68.3036C197.199 68.3647 197.355 68.4606 197.492 68.5913C197.63 68.7219 197.739 68.8917 197.818 69.1005C197.898 69.3079 197.938 69.56 197.938 69.8569V70.0827H195.336V69.6055H197.313C197.313 69.4379 197.279 69.2894 197.211 69.1602C197.143 69.0295 197.047 68.9265 196.924 68.8512C196.801 68.7759 196.658 68.7383 196.493 68.7383C196.314 68.7383 196.158 68.7823 196.024 68.8704C195.892 68.957 195.79 69.0707 195.718 69.2113C195.647 69.3505 195.611 69.5018 195.611 69.6651V70.038C195.611 70.2567 195.649 70.4428 195.726 70.5962C195.804 70.7496 195.913 70.8668 196.052 70.9478C196.191 71.0273 196.354 71.0671 196.54 71.0671C196.661 71.0671 196.771 71.0501 196.87 71.016C196.97 70.9805 197.056 70.9279 197.128 70.8583C197.201 70.7887 197.256 70.7028 197.294 70.6005L197.897 70.7092C197.849 70.8867 197.762 71.0423 197.637 71.1758C197.514 71.3079 197.358 71.4109 197.171 71.4847C196.985 71.5572 196.772 71.5934 196.534 71.5934ZM200.232 72.7546V68.2546H200.855V68.7852H200.908C200.945 68.717 200.998 68.6381 201.068 68.5487C201.137 68.4592 201.234 68.381 201.357 68.3143C201.481 68.2461 201.644 68.212 201.848 68.212C202.112 68.212 202.348 68.2788 202.555 68.4123C202.762 68.5458 202.925 68.7383 203.043 68.9897C203.162 69.2411 203.222 69.5437 203.222 69.8974C203.222 70.2511 203.163 70.5543 203.045 70.8072C202.927 71.0586 202.765 71.2525 202.559 71.3888C202.353 71.5238 202.118 71.5913 201.854 71.5913C201.655 71.5913 201.492 71.5579 201.366 71.4911C201.241 71.4244 201.143 71.3462 201.072 71.2567C201.001 71.1673 200.946 71.0877 200.908 71.0181H200.87V72.7546H200.232ZM200.857 69.891C200.857 70.1211 200.89 70.3228 200.957 70.4961C201.024 70.6694 201.12 70.805 201.247 70.9031C201.373 70.9996 201.528 71.0479 201.711 71.0479C201.902 71.0479 202.061 70.9975 202.188 70.8967C202.316 70.7944 202.413 70.6559 202.478 70.4812C202.545 70.3065 202.578 70.1097 202.578 69.891C202.578 69.6751 202.546 69.4812 202.48 69.3093C202.416 69.1374 202.32 69.0018 202.191 68.9023C202.063 68.8029 201.903 68.7532 201.711 68.7532C201.527 68.7532 201.37 68.8008 201.242 68.896C201.116 68.9911 201.02 69.1239 200.955 69.2944C200.889 69.4648 200.857 69.6637 200.857 69.891ZM203.936 71.5273V68.2546H204.551V68.7745H204.585C204.645 68.5984 204.75 68.4599 204.901 68.359C205.053 68.2567 205.225 68.2056 205.416 68.2056C205.456 68.2056 205.503 68.207 205.557 68.2099C205.612 68.2127 205.656 68.2163 205.687 68.2205V68.8299C205.661 68.8228 205.616 68.815 205.551 68.8065C205.485 68.7965 205.42 68.7915 205.355 68.7915C205.204 68.7915 205.07 68.8235 204.952 68.8874C204.835 68.9499 204.743 69.0373 204.675 69.1495C204.607 69.2603 204.573 69.3867 204.573 69.5288V71.5273H203.936ZM207.5 71.5934C207.193 71.5934 206.925 71.5231 206.696 71.3825C206.468 71.2418 206.29 71.0451 206.164 70.7923C206.037 70.5394 205.974 70.244 205.974 69.9059C205.974 69.5664 206.037 69.2695 206.164 69.0153C206.29 68.761 206.468 68.5636 206.696 68.4229C206.925 68.2823 207.193 68.212 207.5 68.212C207.807 68.212 208.074 68.2823 208.303 68.4229C208.532 68.5636 208.709 68.761 208.836 69.0153C208.962 69.2695 209.025 69.5664 209.025 69.9059C209.025 70.244 208.962 70.5394 208.836 70.7923C208.709 71.0451 208.532 71.2418 208.303 71.3825C208.074 71.5231 207.807 71.5934 207.5 71.5934ZM207.502 71.0586C207.701 71.0586 207.865 71.006 207.996 70.9009C208.127 70.7958 208.223 70.6559 208.286 70.4812C208.35 70.3065 208.382 70.114 208.382 69.9038C208.382 69.695 208.35 69.5032 208.286 69.3285C208.223 69.1523 208.127 69.011 207.996 68.9045C207.865 68.7979 207.701 68.7447 207.502 68.7447C207.302 68.7447 207.135 68.7979 207.003 68.9045C206.873 69.011 206.775 69.1523 206.711 69.3285C206.649 69.5032 206.618 69.695 206.618 69.9038C206.618 70.114 206.649 70.3065 206.711 70.4812C206.775 70.6559 206.873 70.7958 207.003 70.9009C207.135 71.006 207.302 71.0586 207.502 71.0586ZM210.962 71.5913C210.697 71.5913 210.462 71.5238 210.254 71.3888C210.048 71.2525 209.886 71.0586 209.768 70.8072C209.652 70.5543 209.594 70.2511 209.594 69.8974C209.594 69.5437 209.653 69.2411 209.77 68.9897C209.89 68.7383 210.053 68.5458 210.261 68.4123C210.468 68.2788 210.703 68.212 210.966 68.212C211.169 68.212 211.332 68.2461 211.456 68.3143C211.581 68.381 211.677 68.4592 211.746 68.5487C211.815 68.6381 211.869 68.717 211.908 68.7852H211.946V67.1637H212.583V71.5273H211.961V71.0181H211.908C211.869 71.0877 211.814 71.1673 211.741 71.2567C211.67 71.3462 211.572 71.4244 211.447 71.4911C211.322 71.5579 211.16 71.5913 210.962 71.5913ZM211.102 71.0479C211.285 71.0479 211.44 70.9996 211.567 70.9031C211.694 70.805 211.791 70.6694 211.856 70.4961C211.923 70.3228 211.957 70.1211 211.957 69.891C211.957 69.6637 211.924 69.4648 211.859 69.2944C211.793 69.1239 211.697 68.9911 211.571 68.896C211.444 68.8008 211.288 68.7532 211.102 68.7532C210.91 68.7532 210.751 68.8029 210.623 68.9023C210.495 69.0018 210.398 69.1374 210.333 69.3093C210.269 69.4812 210.237 69.6751 210.237 69.891C210.237 70.1097 210.27 70.3065 210.335 70.4812C210.4 70.6559 210.497 70.7944 210.625 70.8967C210.754 70.9975 210.913 71.0479 211.102 71.0479ZM215.565 70.1701V68.2546H216.205V71.5273H215.578V70.9606H215.544C215.469 71.1353 215.348 71.2809 215.182 71.3974C215.017 71.5124 214.812 71.57 214.566 71.57C214.356 71.57 214.17 71.5238 214.008 71.4315C213.847 71.3377 213.721 71.1992 213.629 71.016C213.538 70.8327 213.492 70.6062 213.492 70.3363V68.2546H214.129V70.2596C214.129 70.4826 214.191 70.6602 214.315 70.7923C214.438 70.9244 214.599 70.9904 214.796 70.9904C214.916 70.9904 215.034 70.9606 215.152 70.9009C215.271 70.8413 215.37 70.7511 215.448 70.6303C215.528 70.5096 215.567 70.3562 215.565 70.1701ZM218.439 71.5934C218.122 71.5934 217.85 71.5217 217.621 71.3782C217.394 71.2333 217.219 71.0337 217.097 70.7795C216.975 70.5252 216.914 70.234 216.914 69.9059C216.914 69.5735 216.976 69.2802 217.101 69.0259C217.226 68.7702 217.402 68.5707 217.629 68.4272C217.857 68.2837 218.125 68.212 218.433 68.212C218.681 68.212 218.903 68.2582 219.098 68.3505C219.292 68.4414 219.449 68.5692 219.568 68.734C219.689 68.8988 219.761 69.0913 219.784 69.3114H219.164C219.129 69.158 219.051 69.0259 218.929 68.9151C218.808 68.8043 218.647 68.7489 218.443 68.7489C218.266 68.7489 218.11 68.7958 217.977 68.8896C217.845 68.9819 217.742 69.114 217.668 69.2859C217.594 69.4563 217.557 69.658 217.557 69.891C217.557 70.1296 217.593 70.3356 217.666 70.5089C217.738 70.6822 217.84 70.8164 217.973 70.9116C218.106 71.0067 218.263 71.0543 218.443 71.0543C218.564 71.0543 218.674 71.0323 218.772 70.9883C218.871 70.9428 218.954 70.8782 219.021 70.7944C219.089 70.7106 219.137 70.6097 219.164 70.4918H219.784C219.761 70.7035 219.692 70.8924 219.577 71.0586C219.462 71.2248 219.308 71.3555 219.115 71.4506C218.923 71.5458 218.698 71.5934 218.439 71.5934ZM221.993 68.2546V68.766H220.205V68.2546H221.993ZM220.684 67.4705H221.321V70.5664C221.321 70.69 221.34 70.783 221.377 70.8455C221.414 70.9066 221.461 70.9485 221.52 70.9712C221.579 70.9925 221.644 71.0032 221.713 71.0032C221.765 71.0032 221.809 70.9996 221.848 70.9925C221.886 70.9854 221.916 70.9798 221.937 70.9755L222.052 71.5018C222.015 71.516 221.963 71.5302 221.895 71.5444C221.826 71.56 221.741 71.5685 221.639 71.57C221.471 71.5728 221.315 71.543 221.17 71.4805C221.025 71.418 220.908 71.3214 220.819 71.1907C220.729 71.06 220.684 70.896 220.684 70.6985V67.4705ZM223.117 71.5678C223.001 71.5678 222.9 71.5266 222.817 71.4442C222.733 71.3604 222.691 71.2596 222.691 71.1417C222.691 71.0252 222.733 70.9258 222.817 70.8434C222.9 70.7596 223.001 70.7177 223.117 70.7177C223.234 70.7177 223.334 70.7596 223.417 70.8434C223.501 70.9258 223.543 71.0252 223.543 71.1417C223.543 71.2198 223.523 71.2915 223.484 71.3569C223.445 71.4208 223.394 71.4719 223.33 71.5103C223.266 71.5487 223.195 71.5678 223.117 71.5678Z" fill="white"/>
<rect x="154" y="81" width="138" height="34" rx="4" fill="white" fill-opacity="0.2"/>
<rect x="154.5" y="81.5" width="137" height="33" rx="3.5" stroke="white" stroke-opacity="0.4"/>
<rect x="154.365" y="123.527" width="50" height="18" rx="3" fill="white"/>
<path d="M163.356 134.527H162.512L164.048 130.164H165.024L166.562 134.527H165.718L164.553 131.059H164.519L163.356 134.527ZM163.383 132.816H165.684V133.451H163.383V132.816ZM168.218 134.585C167.961 134.585 167.731 134.519 167.527 134.387C167.324 134.255 167.164 134.063 167.046 133.811C166.928 133.56 166.869 133.255 166.869 132.895C166.869 132.532 166.929 132.225 167.048 131.975C167.169 131.723 167.331 131.534 167.536 131.406C167.74 131.277 167.968 131.212 168.22 131.212C168.412 131.212 168.569 131.245 168.693 131.31C168.816 131.374 168.914 131.451 168.987 131.542C169.059 131.632 169.115 131.716 169.155 131.796H169.187V130.164H169.961V134.527H169.202V134.012H169.155C169.115 134.091 169.058 134.176 168.983 134.265C168.907 134.353 168.808 134.429 168.684 134.491C168.561 134.554 168.405 134.585 168.218 134.585ZM168.433 133.952C168.596 133.952 168.735 133.908 168.851 133.82C168.966 133.73 169.053 133.606 169.113 133.447C169.172 133.288 169.202 133.103 169.202 132.891C169.202 132.679 169.172 132.495 169.113 132.339C169.054 132.183 168.968 132.061 168.853 131.975C168.739 131.888 168.599 131.845 168.433 131.845C168.261 131.845 168.118 131.89 168.003 131.979C167.887 132.069 167.801 132.192 167.743 132.35C167.684 132.507 167.655 132.688 167.655 132.891C167.655 133.096 167.684 133.278 167.743 133.439C167.802 133.598 167.89 133.723 168.005 133.816C168.121 133.907 168.264 133.952 168.433 133.952ZM171.997 134.585C171.74 134.585 171.51 134.519 171.307 134.387C171.104 134.255 170.943 134.063 170.825 133.811C170.707 133.56 170.648 133.255 170.648 132.895C170.648 132.532 170.708 132.225 170.827 131.975C170.948 131.723 171.111 131.534 171.315 131.406C171.52 131.277 171.748 131.212 171.999 131.212C172.191 131.212 172.349 131.245 172.472 131.31C172.596 131.374 172.694 131.451 172.766 131.542C172.839 131.632 172.895 131.716 172.935 131.796H172.966V130.164H173.74V134.527H172.981V134.012H172.935C172.895 134.091 172.837 134.176 172.762 134.265C172.687 134.353 172.587 134.429 172.464 134.491C172.34 134.554 172.185 134.585 171.997 134.585ZM172.212 133.952C172.376 133.952 172.515 133.908 172.63 133.82C172.745 133.73 172.832 133.606 172.892 133.447C172.952 133.288 172.981 133.103 172.981 132.891C172.981 132.679 172.952 132.495 172.892 132.339C172.834 132.183 172.747 132.061 172.632 131.975C172.518 131.888 172.378 131.845 172.212 131.845C172.04 131.845 171.897 131.89 171.782 131.979C171.667 132.069 171.58 132.192 171.522 132.35C171.464 132.507 171.435 132.688 171.435 132.891C171.435 133.096 171.464 133.278 171.522 133.439C171.582 133.598 171.669 133.723 171.784 133.816C171.9 133.907 172.043 133.952 172.212 133.952ZM177.684 131.255V131.851H175.803V131.255H177.684ZM176.267 130.471H177.039V133.543C177.039 133.647 177.054 133.726 177.086 133.782C177.118 133.836 177.161 133.873 177.213 133.892C177.266 133.912 177.324 133.922 177.388 133.922C177.436 133.922 177.481 133.919 177.52 133.912C177.561 133.904 177.593 133.898 177.614 133.892L177.744 134.495C177.703 134.51 177.644 134.525 177.567 134.542C177.492 134.559 177.4 134.569 177.29 134.572C177.097 134.578 176.923 134.549 176.768 134.485C176.613 134.419 176.49 134.319 176.4 134.182C176.31 134.046 176.266 133.875 176.267 133.671V130.471ZM179.722 134.591C179.402 134.591 179.125 134.521 178.891 134.38C178.656 134.24 178.475 134.043 178.345 133.79C178.218 133.537 178.154 133.242 178.154 132.904C178.154 132.566 178.218 132.27 178.345 132.015C178.475 131.761 178.656 131.564 178.891 131.423C179.125 131.282 179.402 131.212 179.722 131.212C180.041 131.212 180.318 131.282 180.553 131.423C180.787 131.564 180.968 131.761 181.096 132.015C181.225 132.27 181.29 132.566 181.29 132.904C181.29 133.242 181.225 133.537 181.096 133.79C180.968 134.043 180.787 134.24 180.553 134.38C180.318 134.521 180.041 134.591 179.722 134.591ZM179.726 133.973C179.899 133.973 180.044 133.926 180.161 133.831C180.277 133.734 180.364 133.605 180.421 133.443C180.479 133.281 180.508 133.1 180.508 132.902C180.508 132.701 180.479 132.52 180.421 132.358C180.364 132.195 180.277 132.065 180.161 131.968C180.044 131.872 179.899 131.824 179.726 131.824C179.549 131.824 179.401 131.872 179.283 131.968C179.166 132.065 179.079 132.195 179.021 132.358C178.964 132.52 178.936 132.701 178.936 132.902C178.936 133.1 178.964 133.281 179.021 133.443C179.079 133.605 179.166 133.734 179.283 133.831C179.401 133.926 179.549 133.973 179.726 133.973ZM184.86 134.591C184.534 134.591 184.253 134.52 184.019 134.376C183.786 134.233 183.606 134.034 183.48 133.782C183.355 133.527 183.292 133.235 183.292 132.904C183.292 132.571 183.356 132.278 183.484 132.024C183.612 131.768 183.792 131.569 184.025 131.427C184.26 131.284 184.537 131.212 184.856 131.212C185.122 131.212 185.357 131.261 185.561 131.359C185.767 131.456 185.932 131.593 186.054 131.77C186.176 131.946 186.245 132.152 186.262 132.388H185.525C185.495 132.23 185.424 132.099 185.312 131.994C185.201 131.887 185.053 131.834 184.867 131.834C184.709 131.834 184.571 131.877 184.451 131.962C184.332 132.046 184.239 132.167 184.172 132.324C184.107 132.482 184.074 132.671 184.074 132.891C184.074 133.114 184.107 133.306 184.172 133.466C184.238 133.625 184.329 133.748 184.447 133.835C184.566 133.92 184.706 133.963 184.867 133.963C184.981 133.963 185.082 133.941 185.172 133.899C185.262 133.855 185.338 133.792 185.4 133.709C185.461 133.627 185.503 133.527 185.525 133.409H186.262C186.244 133.64 186.176 133.846 186.058 134.025C185.94 134.202 185.78 134.341 185.576 134.442C185.373 134.542 185.135 134.591 184.86 134.591ZM187.838 134.593C187.63 134.593 187.443 134.556 187.277 134.483C187.112 134.407 186.982 134.297 186.885 134.15C186.79 134.004 186.742 133.824 186.742 133.609C186.742 133.424 186.777 133.272 186.845 133.151C186.913 133.03 187.006 132.934 187.124 132.861C187.242 132.789 187.375 132.734 187.522 132.697C187.671 132.659 187.826 132.631 187.985 132.614C188.176 132.594 188.332 132.576 188.451 132.561C188.571 132.544 188.657 132.518 188.711 132.484C188.767 132.449 188.794 132.394 188.794 132.32V132.307C188.794 132.147 188.747 132.022 188.652 131.934C188.556 131.846 188.419 131.802 188.24 131.802C188.051 131.802 187.902 131.843 187.791 131.926C187.681 132.008 187.607 132.105 187.569 132.218L186.849 132.115C186.906 131.917 187 131.75 187.13 131.617C187.261 131.482 187.421 131.381 187.61 131.314C187.799 131.246 188.007 131.212 188.236 131.212C188.394 131.212 188.551 131.23 188.707 131.267C188.863 131.304 189.006 131.365 189.135 131.451C189.264 131.534 189.368 131.649 189.446 131.794C189.526 131.939 189.566 132.12 189.566 132.337V134.527H188.824V134.078H188.799C188.752 134.169 188.686 134.254 188.6 134.333C188.517 134.412 188.411 134.475 188.283 134.523C188.156 134.57 188.008 134.593 187.838 134.593ZM188.038 134.027C188.193 134.027 188.327 133.996 188.441 133.935C188.554 133.873 188.642 133.79 188.703 133.688C188.765 133.586 188.796 133.474 188.796 133.353V132.968C188.772 132.988 188.731 133.006 188.673 133.023C188.616 133.04 188.552 133.055 188.481 133.068C188.41 133.081 188.34 133.092 188.27 133.102C188.201 133.112 188.14 133.12 188.089 133.127C187.974 133.143 187.871 133.169 187.78 133.204C187.689 133.24 187.617 133.289 187.565 133.353C187.512 133.416 187.486 133.497 187.486 133.596C187.486 133.738 187.538 133.846 187.642 133.918C187.745 133.99 187.877 134.027 188.038 134.027ZM190.341 134.527V131.255H191.089V131.8H191.123C191.183 131.611 191.285 131.466 191.43 131.363C191.576 131.26 191.743 131.208 191.931 131.208C191.973 131.208 192.021 131.21 192.073 131.214C192.127 131.217 192.172 131.222 192.208 131.229V131.939C192.175 131.927 192.123 131.917 192.052 131.909C191.982 131.899 191.915 131.894 191.85 131.894C191.709 131.894 191.583 131.924 191.47 131.985C191.36 132.045 191.272 132.128 191.208 132.235C191.144 132.341 191.112 132.464 191.112 132.603V134.527H190.341ZM194.53 131.255V131.851H192.649V131.255H194.53ZM193.113 130.471H193.884V133.543C193.884 133.647 193.9 133.726 193.931 133.782C193.964 133.836 194.007 133.873 194.059 133.892C194.112 133.912 194.17 133.922 194.234 133.922C194.282 133.922 194.326 133.919 194.366 133.912C194.407 133.904 194.438 133.898 194.46 133.892L194.59 134.495C194.549 134.51 194.49 134.525 194.413 134.542C194.338 134.559 194.245 134.569 194.136 134.572C193.943 134.578 193.769 134.549 193.614 134.485C193.459 134.419 193.336 134.319 193.245 134.182C193.156 134.046 193.112 133.875 193.113 133.671V130.471Z" fill="#073B4C"/>
<path d="M163.356 134.527H162.512L164.048 130.164H165.024L166.562 134.527H165.718L164.553 131.059H164.519L163.356 134.527ZM163.383 132.816H165.684V133.451H163.383V132.816ZM168.218 134.585C167.961 134.585 167.731 134.519 167.527 134.387C167.324 134.255 167.164 134.063 167.046 133.811C166.928 133.56 166.869 133.255 166.869 132.895C166.869 132.532 166.929 132.225 167.048 131.975C167.169 131.723 167.331 131.534 167.536 131.406C167.74 131.277 167.968 131.212 168.22 131.212C168.412 131.212 168.569 131.245 168.693 131.31C168.816 131.374 168.914 131.451 168.987 131.542C169.059 131.632 169.115 131.716 169.155 131.796H169.187V130.164H169.961V134.527H169.202V134.012H169.155C169.115 134.091 169.058 134.176 168.983 134.265C168.907 134.353 168.808 134.429 168.684 134.491C168.561 134.554 168.405 134.585 168.218 134.585ZM168.433 133.952C168.596 133.952 168.735 133.908 168.851 133.82C168.966 133.73 169.053 133.606 169.113 133.447C169.172 133.288 169.202 133.103 169.202 132.891C169.202 132.679 169.172 132.495 169.113 132.339C169.054 132.183 168.968 132.061 168.853 131.975C168.739 131.888 168.599 131.845 168.433 131.845C168.261 131.845 168.118 131.89 168.003 131.979C167.887 132.069 167.801 132.192 167.743 132.35C167.684 132.507 167.655 132.688 167.655 132.891C167.655 133.096 167.684 133.278 167.743 133.439C167.802 133.598 167.89 133.723 168.005 133.816C168.121 133.907 168.264 133.952 168.433 133.952ZM171.997 134.585C171.74 134.585 171.51 134.519 171.307 134.387C171.104 134.255 170.943 134.063 170.825 133.811C170.707 133.56 170.648 133.255 170.648 132.895C170.648 132.532 170.708 132.225 170.827 131.975C170.948 131.723 171.111 131.534 171.315 131.406C171.52 131.277 171.748 131.212 171.999 131.212C172.191 131.212 172.349 131.245 172.472 131.31C172.596 131.374 172.694 131.451 172.766 131.542C172.839 131.632 172.895 131.716 172.935 131.796H172.966V130.164H173.74V134.527H172.981V134.012H172.935C172.895 134.091 172.837 134.176 172.762 134.265C172.687 134.353 172.587 134.429 172.464 134.491C172.34 134.554 172.185 134.585 171.997 134.585ZM172.212 133.952C172.376 133.952 172.515 133.908 172.63 133.82C172.745 133.73 172.832 133.606 172.892 133.447C172.952 133.288 172.981 133.103 172.981 132.891C172.981 132.679 172.952 132.495 172.892 132.339C172.834 132.183 172.747 132.061 172.632 131.975C172.518 131.888 172.378 131.845 172.212 131.845C172.04 131.845 171.897 131.89 171.782 131.979C171.667 132.069 171.58 132.192 171.522 132.35C171.464 132.507 171.435 132.688 171.435 132.891C171.435 133.096 171.464 133.278 171.522 133.439C171.582 133.598 171.669 133.723 171.784 133.816C171.9 133.907 172.043 133.952 172.212 133.952ZM177.684 131.255V131.851H175.803V131.255H177.684ZM176.267 130.471H177.039V133.543C177.039 133.647 177.054 133.726 177.086 133.782C177.118 133.836 177.161 133.873 177.213 133.892C177.266 133.912 177.324 133.922 177.388 133.922C177.436 133.922 177.481 133.919 177.52 133.912C177.561 133.904 177.593 133.898 177.614 133.892L177.744 134.495C177.703 134.51 177.644 134.525 177.567 134.542C177.492 134.559 177.4 134.569 177.29 134.572C177.097 134.578 176.923 134.549 176.768 134.485C176.613 134.419 176.49 134.319 176.4 134.182C176.31 134.046 176.266 133.875 176.267 133.671V130.471ZM179.722 134.591C179.402 134.591 179.125 134.521 178.891 134.38C178.656 134.24 178.475 134.043 178.345 133.79C178.218 133.537 178.154 133.242 178.154 132.904C178.154 132.566 178.218 132.27 178.345 132.015C178.475 131.761 178.656 131.564 178.891 131.423C179.125 131.282 179.402 131.212 179.722 131.212C180.041 131.212 180.318 131.282 180.553 131.423C180.787 131.564 180.968 131.761 181.096 132.015C181.225 132.27 181.29 132.566 181.29 132.904C181.29 133.242 181.225 133.537 181.096 133.79C180.968 134.043 180.787 134.24 180.553 134.38C180.318 134.521 180.041 134.591 179.722 134.591ZM179.726 133.973C179.899 133.973 180.044 133.926 180.161 133.831C180.277 133.734 180.364 133.605 180.421 133.443C180.479 133.281 180.508 133.1 180.508 132.902C180.508 132.701 180.479 132.52 180.421 132.358C180.364 132.195 180.277 132.065 180.161 131.968C180.044 131.872 179.899 131.824 179.726 131.824C179.549 131.824 179.401 131.872 179.283 131.968C179.166 132.065 179.079 132.195 179.021 132.358C178.964 132.52 178.936 132.701 178.936 132.902C178.936 133.1 178.964 133.281 179.021 133.443C179.079 133.605 179.166 133.734 179.283 133.831C179.401 133.926 179.549 133.973 179.726 133.973ZM184.86 134.591C184.534 134.591 184.253 134.52 184.019 134.376C183.786 134.233 183.606 134.034 183.48 133.782C183.355 133.527 183.292 133.235 183.292 132.904C183.292 132.571 183.356 132.278 183.484 132.024C183.612 131.768 183.792 131.569 184.025 131.427C184.26 131.284 184.537 131.212 184.856 131.212C185.122 131.212 185.357 131.261 185.561 131.359C185.767 131.456 185.932 131.593 186.054 131.77C186.176 131.946 186.245 132.152 186.262 132.388H185.525C185.495 132.23 185.424 132.099 185.312 131.994C185.201 131.887 185.053 131.834 184.867 131.834C184.709 131.834 184.571 131.877 184.451 131.962C184.332 132.046 184.239 132.167 184.172 132.324C184.107 132.482 184.074 132.671 184.074 132.891C184.074 133.114 184.107 133.306 184.172 133.466C184.238 133.625 184.329 133.748 184.447 133.835C184.566 133.92 184.706 133.963 184.867 133.963C184.981 133.963 185.082 133.941 185.172 133.899C185.262 133.855 185.338 133.792 185.4 133.709C185.461 133.627 185.503 133.527 185.525 133.409H186.262C186.244 133.64 186.176 133.846 186.058 134.025C185.94 134.202 185.78 134.341 185.576 134.442C185.373 134.542 185.135 134.591 184.86 134.591ZM187.838 134.593C187.63 134.593 187.443 134.556 187.277 134.483C187.112 134.407 186.982 134.297 186.885 134.15C186.79 134.004 186.742 133.824 186.742 133.609C186.742 133.424 186.777 133.272 186.845 133.151C186.913 133.03 187.006 132.934 187.124 132.861C187.242 132.789 187.375 132.734 187.522 132.697C187.671 132.659 187.826 132.631 187.985 132.614C188.176 132.594 188.332 132.576 188.451 132.561C188.571 132.544 188.657 132.518 188.711 132.484C188.767 132.449 188.794 132.394 188.794 132.32V132.307C188.794 132.147 188.747 132.022 188.652 131.934C188.556 131.846 188.419 131.802 188.24 131.802C188.051 131.802 187.902 131.843 187.791 131.926C187.681 132.008 187.607 132.105 187.569 132.218L186.849 132.115C186.906 131.917 187 131.75 187.13 131.617C187.261 131.482 187.421 131.381 187.61 131.314C187.799 131.246 188.007 131.212 188.236 131.212C188.394 131.212 188.551 131.23 188.707 131.267C188.863 131.304 189.006 131.365 189.135 131.451C189.264 131.534 189.368 131.649 189.446 131.794C189.526 131.939 189.566 132.12 189.566 132.337V134.527H188.824V134.078H188.799C188.752 134.169 188.686 134.254 188.6 134.333C188.517 134.412 188.411 134.475 188.283 134.523C188.156 134.57 188.008 134.593 187.838 134.593ZM188.038 134.027C188.193 134.027 188.327 133.996 188.441 133.935C188.554 133.873 188.642 133.79 188.703 133.688C188.765 133.586 188.796 133.474 188.796 133.353V132.968C188.772 132.988 188.731 133.006 188.673 133.023C188.616 133.04 188.552 133.055 188.481 133.068C188.41 133.081 188.34 133.092 188.27 133.102C188.201 133.112 188.14 133.12 188.089 133.127C187.974 133.143 187.871 133.169 187.78 133.204C187.689 133.24 187.617 133.289 187.565 133.353C187.512 133.416 187.486 133.497 187.486 133.596C187.486 133.738 187.538 133.846 187.642 133.918C187.745 133.99 187.877 134.027 188.038 134.027ZM190.341 134.527V131.255H191.089V131.8H191.123C191.183 131.611 191.285 131.466 191.43 131.363C191.576 131.26 191.743 131.208 191.931 131.208C191.973 131.208 192.021 131.21 192.073 131.214C192.127 131.217 192.172 131.222 192.208 131.229V131.939C192.175 131.927 192.123 131.917 192.052 131.909C191.982 131.899 191.915 131.894 191.85 131.894C191.709 131.894 191.583 131.924 191.47 131.985C191.36 132.045 191.272 132.128 191.208 132.235C191.144 132.341 191.112 132.464 191.112 132.603V134.527H190.341ZM194.53 131.255V131.851H192.649V131.255H194.53ZM193.113 130.471H193.884V133.543C193.884 133.647 193.9 133.726 193.931 133.782C193.964 133.836 194.007 133.873 194.059 133.892C194.112 133.912 194.17 133.922 194.234 133.922C194.282 133.922 194.326 133.919 194.366 133.912C194.407 133.904 194.438 133.898 194.46 133.892L194.59 134.495C194.549 134.51 194.49 134.525 194.413 134.542C194.338 134.559 194.245 134.569 194.136 134.572C193.943 134.578 193.769 134.549 193.614 134.485C193.459 134.419 193.336 134.319 193.245 134.182C193.156 134.046 193.112 133.875 193.113 133.671V130.471Z" fill="black" fill-opacity="0.2"/>
<path d="M163.356 134.527H162.512L164.048 130.164H165.024L166.562 134.527H165.718L164.553 131.059H164.519L163.356 134.527ZM163.383 132.816H165.684V133.451H163.383V132.816ZM168.218 134.585C167.961 134.585 167.731 134.519 167.527 134.387C167.324 134.255 167.164 134.063 167.046 133.811C166.928 133.56 166.869 133.255 166.869 132.895C166.869 132.532 166.929 132.225 167.048 131.975C167.169 131.723 167.331 131.534 167.536 131.406C167.74 131.277 167.968 131.212 168.22 131.212C168.412 131.212 168.569 131.245 168.693 131.31C168.816 131.374 168.914 131.451 168.987 131.542C169.059 131.632 169.115 131.716 169.155 131.796H169.187V130.164H169.961V134.527H169.202V134.012H169.155C169.115 134.091 169.058 134.176 168.983 134.265C168.907 134.353 168.808 134.429 168.684 134.491C168.561 134.554 168.405 134.585 168.218 134.585ZM168.433 133.952C168.596 133.952 168.735 133.908 168.851 133.82C168.966 133.73 169.053 133.606 169.113 133.447C169.172 133.288 169.202 133.103 169.202 132.891C169.202 132.679 169.172 132.495 169.113 132.339C169.054 132.183 168.968 132.061 168.853 131.975C168.739 131.888 168.599 131.845 168.433 131.845C168.261 131.845 168.118 131.89 168.003 131.979C167.887 132.069 167.801 132.192 167.743 132.35C167.684 132.507 167.655 132.688 167.655 132.891C167.655 133.096 167.684 133.278 167.743 133.439C167.802 133.598 167.89 133.723 168.005 133.816C168.121 133.907 168.264 133.952 168.433 133.952ZM171.997 134.585C171.74 134.585 171.51 134.519 171.307 134.387C171.104 134.255 170.943 134.063 170.825 133.811C170.707 133.56 170.648 133.255 170.648 132.895C170.648 132.532 170.708 132.225 170.827 131.975C170.948 131.723 171.111 131.534 171.315 131.406C171.52 131.277 171.748 131.212 171.999 131.212C172.191 131.212 172.349 131.245 172.472 131.31C172.596 131.374 172.694 131.451 172.766 131.542C172.839 131.632 172.895 131.716 172.935 131.796H172.966V130.164H173.74V134.527H172.981V134.012H172.935C172.895 134.091 172.837 134.176 172.762 134.265C172.687 134.353 172.587 134.429 172.464 134.491C172.34 134.554 172.185 134.585 171.997 134.585ZM172.212 133.952C172.376 133.952 172.515 133.908 172.63 133.82C172.745 133.73 172.832 133.606 172.892 133.447C172.952 133.288 172.981 133.103 172.981 132.891C172.981 132.679 172.952 132.495 172.892 132.339C172.834 132.183 172.747 132.061 172.632 131.975C172.518 131.888 172.378 131.845 172.212 131.845C172.04 131.845 171.897 131.89 171.782 131.979C171.667 132.069 171.58 132.192 171.522 132.35C171.464 132.507 171.435 132.688 171.435 132.891C171.435 133.096 171.464 133.278 171.522 133.439C171.582 133.598 171.669 133.723 171.784 133.816C171.9 133.907 172.043 133.952 172.212 133.952ZM177.684 131.255V131.851H175.803V131.255H177.684ZM176.267 130.471H177.039V133.543C177.039 133.647 177.054 133.726 177.086 133.782C177.118 133.836 177.161 133.873 177.213 133.892C177.266 133.912 177.324 133.922 177.388 133.922C177.436 133.922 177.481 133.919 177.52 133.912C177.561 133.904 177.593 133.898 177.614 133.892L177.744 134.495C177.703 134.51 177.644 134.525 177.567 134.542C177.492 134.559 177.4 134.569 177.29 134.572C177.097 134.578 176.923 134.549 176.768 134.485C176.613 134.419 176.49 134.319 176.4 134.182C176.31 134.046 176.266 133.875 176.267 133.671V130.471ZM179.722 134.591C179.402 134.591 179.125 134.521 178.891 134.38C178.656 134.24 178.475 134.043 178.345 133.79C178.218 133.537 178.154 133.242 178.154 132.904C178.154 132.566 178.218 132.27 178.345 132.015C178.475 131.761 178.656 131.564 178.891 131.423C179.125 131.282 179.402 131.212 179.722 131.212C180.041 131.212 180.318 131.282 180.553 131.423C180.787 131.564 180.968 131.761 181.096 132.015C181.225 132.27 181.29 132.566 181.29 132.904C181.29 133.242 181.225 133.537 181.096 133.79C180.968 134.043 180.787 134.24 180.553 134.38C180.318 134.521 180.041 134.591 179.722 134.591ZM179.726 133.973C179.899 133.973 180.044 133.926 180.161 133.831C180.277 133.734 180.364 133.605 180.421 133.443C180.479 133.281 180.508 133.1 180.508 132.902C180.508 132.701 180.479 132.52 180.421 132.358C180.364 132.195 180.277 132.065 180.161 131.968C180.044 131.872 179.899 131.824 179.726 131.824C179.549 131.824 179.401 131.872 179.283 131.968C179.166 132.065 179.079 132.195 179.021 132.358C178.964 132.52 178.936 132.701 178.936 132.902C178.936 133.1 178.964 133.281 179.021 133.443C179.079 133.605 179.166 133.734 179.283 133.831C179.401 133.926 179.549 133.973 179.726 133.973ZM184.86 134.591C184.534 134.591 184.253 134.52 184.019 134.376C183.786 134.233 183.606 134.034 183.48 133.782C183.355 133.527 183.292 133.235 183.292 132.904C183.292 132.571 183.356 132.278 183.484 132.024C183.612 131.768 183.792 131.569 184.025 131.427C184.26 131.284 184.537 131.212 184.856 131.212C185.122 131.212 185.357 131.261 185.561 131.359C185.767 131.456 185.932 131.593 186.054 131.77C186.176 131.946 186.245 132.152 186.262 132.388H185.525C185.495 132.23 185.424 132.099 185.312 131.994C185.201 131.887 185.053 131.834 184.867 131.834C184.709 131.834 184.571 131.877 184.451 131.962C184.332 132.046 184.239 132.167 184.172 132.324C184.107 132.482 184.074 132.671 184.074 132.891C184.074 133.114 184.107 133.306 184.172 133.466C184.238 133.625 184.329 133.748 184.447 133.835C184.566 133.92 184.706 133.963 184.867 133.963C184.981 133.963 185.082 133.941 185.172 133.899C185.262 133.855 185.338 133.792 185.4 133.709C185.461 133.627 185.503 133.527 185.525 133.409H186.262C186.244 133.64 186.176 133.846 186.058 134.025C185.94 134.202 185.78 134.341 185.576 134.442C185.373 134.542 185.135 134.591 184.86 134.591ZM187.838 134.593C187.63 134.593 187.443 134.556 187.277 134.483C187.112 134.407 186.982 134.297 186.885 134.15C186.79 134.004 186.742 133.824 186.742 133.609C186.742 133.424 186.777 133.272 186.845 133.151C186.913 133.03 187.006 132.934 187.124 132.861C187.242 132.789 187.375 132.734 187.522 132.697C187.671 132.659 187.826 132.631 187.985 132.614C188.176 132.594 188.332 132.576 188.451 132.561C188.571 132.544 188.657 132.518 188.711 132.484C188.767 132.449 188.794 132.394 188.794 132.32V132.307C188.794 132.147 188.747 132.022 188.652 131.934C188.556 131.846 188.419 131.802 188.24 131.802C188.051 131.802 187.902 131.843 187.791 131.926C187.681 132.008 187.607 132.105 187.569 132.218L186.849 132.115C186.906 131.917 187 131.75 187.13 131.617C187.261 131.482 187.421 131.381 187.61 131.314C187.799 131.246 188.007 131.212 188.236 131.212C188.394 131.212 188.551 131.23 188.707 131.267C188.863 131.304 189.006 131.365 189.135 131.451C189.264 131.534 189.368 131.649 189.446 131.794C189.526 131.939 189.566 132.12 189.566 132.337V134.527H188.824V134.078H188.799C188.752 134.169 188.686 134.254 188.6 134.333C188.517 134.412 188.411 134.475 188.283 134.523C188.156 134.57 188.008 134.593 187.838 134.593ZM188.038 134.027C188.193 134.027 188.327 133.996 188.441 133.935C188.554 133.873 188.642 133.79 188.703 133.688C188.765 133.586 188.796 133.474 188.796 133.353V132.968C188.772 132.988 188.731 133.006 188.673 133.023C188.616 133.04 188.552 133.055 188.481 133.068C188.41 133.081 188.34 133.092 188.27 133.102C188.201 133.112 188.14 133.12 188.089 133.127C187.974 133.143 187.871 133.169 187.78 133.204C187.689 133.24 187.617 133.289 187.565 133.353C187.512 133.416 187.486 133.497 187.486 133.596C187.486 133.738 187.538 133.846 187.642 133.918C187.745 133.99 187.877 134.027 188.038 134.027ZM190.341 134.527V131.255H191.089V131.8H191.123C191.183 131.611 191.285 131.466 191.43 131.363C191.576 131.26 191.743 131.208 191.931 131.208C191.973 131.208 192.021 131.21 192.073 131.214C192.127 131.217 192.172 131.222 192.208 131.229V131.939C192.175 131.927 192.123 131.917 192.052 131.909C191.982 131.899 191.915 131.894 191.85 131.894C191.709 131.894 191.583 131.924 191.47 131.985C191.36 132.045 191.272 132.128 191.208 132.235C191.144 132.341 191.112 132.464 191.112 132.603V134.527H190.341ZM194.53 131.255V131.851H192.649V131.255H194.53ZM193.113 130.471H193.884V133.543C193.884 133.647 193.9 133.726 193.931 133.782C193.964 133.836 194.007 133.873 194.059 133.892C194.112 133.912 194.17 133.922 194.234 133.922C194.282 133.922 194.326 133.919 194.366 133.912C194.407 133.904 194.438 133.898 194.46 133.892L194.59 134.495C194.549 134.51 194.49 134.525 194.413 134.542C194.338 134.559 194.245 134.569 194.136 134.572C193.943 134.578 193.769 134.549 193.614 134.485C193.459 134.419 193.336 134.319 193.245 134.182C193.156 134.046 193.112 133.875 193.113 133.671V130.471Z" fill="black" fill-opacity="0.2"/>
<path d="M163.356 134.527H162.512L164.048 130.164H165.024L166.562 134.527H165.718L164.553 131.059H164.519L163.356 134.527ZM163.383 132.816H165.684V133.451H163.383V132.816ZM168.218 134.585C167.961 134.585 167.731 134.519 167.527 134.387C167.324 134.255 167.164 134.063 167.046 133.811C166.928 133.56 166.869 133.255 166.869 132.895C166.869 132.532 166.929 132.225 167.048 131.975C167.169 131.723 167.331 131.534 167.536 131.406C167.74 131.277 167.968 131.212 168.22 131.212C168.412 131.212 168.569 131.245 168.693 131.31C168.816 131.374 168.914 131.451 168.987 131.542C169.059 131.632 169.115 131.716 169.155 131.796H169.187V130.164H169.961V134.527H169.202V134.012H169.155C169.115 134.091 169.058 134.176 168.983 134.265C168.907 134.353 168.808 134.429 168.684 134.491C168.561 134.554 168.405 134.585 168.218 134.585ZM168.433 133.952C168.596 133.952 168.735 133.908 168.851 133.82C168.966 133.73 169.053 133.606 169.113 133.447C169.172 133.288 169.202 133.103 169.202 132.891C169.202 132.679 169.172 132.495 169.113 132.339C169.054 132.183 168.968 132.061 168.853 131.975C168.739 131.888 168.599 131.845 168.433 131.845C168.261 131.845 168.118 131.89 168.003 131.979C167.887 132.069 167.801 132.192 167.743 132.35C167.684 132.507 167.655 132.688 167.655 132.891C167.655 133.096 167.684 133.278 167.743 133.439C167.802 133.598 167.89 133.723 168.005 133.816C168.121 133.907 168.264 133.952 168.433 133.952ZM171.997 134.585C171.74 134.585 171.51 134.519 171.307 134.387C171.104 134.255 170.943 134.063 170.825 133.811C170.707 133.56 170.648 133.255 170.648 132.895C170.648 132.532 170.708 132.225 170.827 131.975C170.948 131.723 171.111 131.534 171.315 131.406C171.52 131.277 171.748 131.212 171.999 131.212C172.191 131.212 172.349 131.245 172.472 131.31C172.596 131.374 172.694 131.451 172.766 131.542C172.839 131.632 172.895 131.716 172.935 131.796H172.966V130.164H173.74V134.527H172.981V134.012H172.935C172.895 134.091 172.837 134.176 172.762 134.265C172.687 134.353 172.587 134.429 172.464 134.491C172.34 134.554 172.185 134.585 171.997 134.585ZM172.212 133.952C172.376 133.952 172.515 133.908 172.63 133.82C172.745 133.73 172.832 133.606 172.892 133.447C172.952 133.288 172.981 133.103 172.981 132.891C172.981 132.679 172.952 132.495 172.892 132.339C172.834 132.183 172.747 132.061 172.632 131.975C172.518 131.888 172.378 131.845 172.212 131.845C172.04 131.845 171.897 131.89 171.782 131.979C171.667 132.069 171.58 132.192 171.522 132.35C171.464 132.507 171.435 132.688 171.435 132.891C171.435 133.096 171.464 133.278 171.522 133.439C171.582 133.598 171.669 133.723 171.784 133.816C171.9 133.907 172.043 133.952 172.212 133.952ZM177.684 131.255V131.851H175.803V131.255H177.684ZM176.267 130.471H177.039V133.543C177.039 133.647 177.054 133.726 177.086 133.782C177.118 133.836 177.161 133.873 177.213 133.892C177.266 133.912 177.324 133.922 177.388 133.922C177.436 133.922 177.481 133.919 177.52 133.912C177.561 133.904 177.593 133.898 177.614 133.892L177.744 134.495C177.703 134.51 177.644 134.525 177.567 134.542C177.492 134.559 177.4 134.569 177.29 134.572C177.097 134.578 176.923 134.549 176.768 134.485C176.613 134.419 176.49 134.319 176.4 134.182C176.31 134.046 176.266 133.875 176.267 133.671V130.471ZM179.722 134.591C179.402 134.591 179.125 134.521 178.891 134.38C178.656 134.24 178.475 134.043 178.345 133.79C178.218 133.537 178.154 133.242 178.154 132.904C178.154 132.566 178.218 132.27 178.345 132.015C178.475 131.761 178.656 131.564 178.891 131.423C179.125 131.282 179.402 131.212 179.722 131.212C180.041 131.212 180.318 131.282 180.553 131.423C180.787 131.564 180.968 131.761 181.096 132.015C181.225 132.27 181.29 132.566 181.29 132.904C181.29 133.242 181.225 133.537 181.096 133.79C180.968 134.043 180.787 134.24 180.553 134.38C180.318 134.521 180.041 134.591 179.722 134.591ZM179.726 133.973C179.899 133.973 180.044 133.926 180.161 133.831C180.277 133.734 180.364 133.605 180.421 133.443C180.479 133.281 180.508 133.1 180.508 132.902C180.508 132.701 180.479 132.52 180.421 132.358C180.364 132.195 180.277 132.065 180.161 131.968C180.044 131.872 179.899 131.824 179.726 131.824C179.549 131.824 179.401 131.872 179.283 131.968C179.166 132.065 179.079 132.195 179.021 132.358C178.964 132.52 178.936 132.701 178.936 132.902C178.936 133.1 178.964 133.281 179.021 133.443C179.079 133.605 179.166 133.734 179.283 133.831C179.401 133.926 179.549 133.973 179.726 133.973ZM184.86 134.591C184.534 134.591 184.253 134.52 184.019 134.376C183.786 134.233 183.606 134.034 183.48 133.782C183.355 133.527 183.292 133.235 183.292 132.904C183.292 132.571 183.356 132.278 183.484 132.024C183.612 131.768 183.792 131.569 184.025 131.427C184.26 131.284 184.537 131.212 184.856 131.212C185.122 131.212 185.357 131.261 185.561 131.359C185.767 131.456 185.932 131.593 186.054 131.77C186.176 131.946 186.245 132.152 186.262 132.388H185.525C185.495 132.23 185.424 132.099 185.312 131.994C185.201 131.887 185.053 131.834 184.867 131.834C184.709 131.834 184.571 131.877 184.451 131.962C184.332 132.046 184.239 132.167 184.172 132.324C184.107 132.482 184.074 132.671 184.074 132.891C184.074 133.114 184.107 133.306 184.172 133.466C184.238 133.625 184.329 133.748 184.447 133.835C184.566 133.92 184.706 133.963 184.867 133.963C184.981 133.963 185.082 133.941 185.172 133.899C185.262 133.855 185.338 133.792 185.4 133.709C185.461 133.627 185.503 133.527 185.525 133.409H186.262C186.244 133.64 186.176 133.846 186.058 134.025C185.94 134.202 185.78 134.341 185.576 134.442C185.373 134.542 185.135 134.591 184.86 134.591ZM187.838 134.593C187.63 134.593 187.443 134.556 187.277 134.483C187.112 134.407 186.982 134.297 186.885 134.15C186.79 134.004 186.742 133.824 186.742 133.609C186.742 133.424 186.777 133.272 186.845 133.151C186.913 133.03 187.006 132.934 187.124 132.861C187.242 132.789 187.375 132.734 187.522 132.697C187.671 132.659 187.826 132.631 187.985 132.614C188.176 132.594 188.332 132.576 188.451 132.561C188.571 132.544 188.657 132.518 188.711 132.484C188.767 132.449 188.794 132.394 188.794 132.32V132.307C188.794 132.147 188.747 132.022 188.652 131.934C188.556 131.846 188.419 131.802 188.24 131.802C188.051 131.802 187.902 131.843 187.791 131.926C187.681 132.008 187.607 132.105 187.569 132.218L186.849 132.115C186.906 131.917 187 131.75 187.13 131.617C187.261 131.482 187.421 131.381 187.61 131.314C187.799 131.246 188.007 131.212 188.236 131.212C188.394 131.212 188.551 131.23 188.707 131.267C188.863 131.304 189.006 131.365 189.135 131.451C189.264 131.534 189.368 131.649 189.446 131.794C189.526 131.939 189.566 132.12 189.566 132.337V134.527H188.824V134.078H188.799C188.752 134.169 188.686 134.254 188.6 134.333C188.517 134.412 188.411 134.475 188.283 134.523C188.156 134.57 188.008 134.593 187.838 134.593ZM188.038 134.027C188.193 134.027 188.327 133.996 188.441 133.935C188.554 133.873 188.642 133.79 188.703 133.688C188.765 133.586 188.796 133.474 188.796 133.353V132.968C188.772 132.988 188.731 133.006 188.673 133.023C188.616 133.04 188.552 133.055 188.481 133.068C188.41 133.081 188.34 133.092 188.27 133.102C188.201 133.112 188.14 133.12 188.089 133.127C187.974 133.143 187.871 133.169 187.78 133.204C187.689 133.24 187.617 133.289 187.565 133.353C187.512 133.416 187.486 133.497 187.486 133.596C187.486 133.738 187.538 133.846 187.642 133.918C187.745 133.99 187.877 134.027 188.038 134.027ZM190.341 134.527V131.255H191.089V131.8H191.123C191.183 131.611 191.285 131.466 191.43 131.363C191.576 131.26 191.743 131.208 191.931 131.208C191.973 131.208 192.021 131.21 192.073 131.214C192.127 131.217 192.172 131.222 192.208 131.229V131.939C192.175 131.927 192.123 131.917 192.052 131.909C191.982 131.899 191.915 131.894 191.85 131.894C191.709 131.894 191.583 131.924 191.47 131.985C191.36 132.045 191.272 132.128 191.208 132.235C191.144 132.341 191.112 132.464 191.112 132.603V134.527H190.341ZM194.53 131.255V131.851H192.649V131.255H194.53ZM193.113 130.471H193.884V133.543C193.884 133.647 193.9 133.726 193.931 133.782C193.964 133.836 194.007 133.873 194.059 133.892C194.112 133.912 194.17 133.922 194.234 133.922C194.282 133.922 194.326 133.919 194.366 133.912C194.407 133.904 194.438 133.898 194.46 133.892L194.59 134.495C194.549 134.51 194.49 134.525 194.413 134.542C194.338 134.559 194.245 134.569 194.136 134.572C193.943 134.578 193.769 134.549 193.614 134.485C193.459 134.419 193.336 134.319 193.245 134.182C193.156 134.046 193.112 133.875 193.113 133.671V130.471Z" fill="black" fill-opacity="0.2"/>
<path d="M198.98 87.9433V91.3673C198.98 91.762 199.058 92.058 199.212 92.2553C199.367 92.4473 199.626 92.5433 199.988 92.5433C200.351 92.5433 200.61 92.4473 200.764 92.2553C200.919 92.058 200.996 91.762 200.996 91.3673V87.9433H202.18V91.2393C202.18 91.65 202.14 92.0073 202.06 92.3113C201.986 92.61 201.86 92.858 201.684 93.0553C201.508 93.2473 201.282 93.3913 201.004 93.4873C200.727 93.578 200.388 93.6233 199.988 93.6233C199.588 93.6233 199.25 93.578 198.972 93.4873C198.695 93.3913 198.468 93.2473 198.292 93.0553C198.116 92.858 197.988 92.61 197.908 92.3113C197.834 92.0073 197.796 91.65 197.796 91.2393V87.9433H198.98ZM203.319 89.3273H204.503V90.0313H204.543C204.602 89.7967 204.735 89.6047 204.943 89.4553C205.156 89.306 205.399 89.2313 205.671 89.2313C206.204 89.2313 206.607 89.418 206.879 89.7913C207.151 90.1647 207.287 90.7087 207.287 91.4233C207.287 92.138 207.151 92.6847 206.879 93.0633C206.607 93.4367 206.204 93.6233 205.671 93.6233C205.532 93.6233 205.402 93.602 205.279 93.5593C205.156 93.522 205.044 93.4687 204.943 93.3993C204.847 93.3247 204.764 93.2393 204.695 93.1433C204.626 93.042 204.575 92.9353 204.543 92.8233H204.503V95.1273H203.319V89.3273ZM205.279 92.6633C205.503 92.6633 205.687 92.586 205.831 92.4313C205.98 92.2713 206.055 92.058 206.055 91.7913V91.0633C206.055 90.7967 205.98 90.586 205.831 90.4313C205.687 90.2713 205.503 90.1913 205.279 90.1913C205.055 90.1913 204.868 90.2473 204.719 90.3593C204.575 90.466 204.503 90.6153 204.503 90.8073V92.0473C204.503 92.2393 204.575 92.3913 204.719 92.5033C204.868 92.61 205.055 92.6633 205.279 92.6633ZM211.549 93.5273C211.138 93.5273 210.826 93.4233 210.613 93.2153C210.405 93.0073 210.301 92.7033 210.301 92.3033V90.2473H209.709V89.3273H210.005C210.165 89.3273 210.274 89.29 210.333 89.2153C210.392 89.1353 210.421 89.0233 210.421 88.8793V88.1913H211.485V89.3273H212.317V90.2473H211.485V92.6073H212.253V93.5273H211.549ZM214.812 93.6233C214.503 93.6233 214.225 93.5727 213.98 93.4713C213.74 93.37 213.535 93.2233 213.364 93.0313C213.199 92.8393 213.071 92.6073 212.98 92.3353C212.889 92.0633 212.844 91.7593 212.844 91.4233C212.844 91.0873 212.889 90.7833 212.98 90.5113C213.071 90.2393 213.199 90.01 213.364 89.8233C213.535 89.6313 213.74 89.4847 213.98 89.3833C214.225 89.282 214.503 89.2313 214.812 89.2313C215.121 89.2313 215.396 89.282 215.636 89.3833C215.881 89.4847 216.087 89.6313 216.252 89.8233C216.423 90.01 216.553 90.2393 216.644 90.5113C216.735 90.7833 216.78 91.0873 216.78 91.4233C216.78 91.7593 216.735 92.0633 216.644 92.3353C216.553 92.6073 216.423 92.8393 216.252 93.0313C216.087 93.2233 215.881 93.37 215.636 93.4713C215.396 93.5727 215.121 93.6233 214.812 93.6233ZM214.812 92.6873C215.047 92.6873 215.228 92.6153 215.356 92.4713C215.484 92.3273 215.548 92.122 215.548 91.8553V90.9993C215.548 90.7327 215.484 90.5273 215.356 90.3833C215.228 90.2393 215.047 90.1673 214.812 90.1673C214.577 90.1673 214.396 90.2393 214.268 90.3833C214.14 90.5273 214.076 90.7327 214.076 90.9993V91.8553C214.076 92.122 214.14 92.3273 214.268 92.4713C214.396 92.6153 214.577 92.6873 214.812 92.6873ZM223.138 88.9913H220.602L220.482 90.7593H220.546C220.6 90.626 220.658 90.506 220.722 90.3993C220.792 90.2873 220.872 90.194 220.962 90.1193C221.053 90.0393 221.162 89.978 221.29 89.9353C221.418 89.8927 221.57 89.8713 221.746 89.8713C221.986 89.8713 222.21 89.9113 222.418 89.9913C222.626 90.0713 222.808 90.1887 222.962 90.3433C223.117 90.4927 223.24 90.6793 223.33 90.9033C223.421 91.122 223.466 91.37 223.466 91.6473C223.466 91.93 223.418 92.194 223.322 92.4393C223.232 92.6793 223.093 92.8873 222.906 93.0633C222.725 93.2393 222.501 93.378 222.234 93.4793C221.968 93.5753 221.664 93.6233 221.322 93.6233C221.05 93.6233 220.81 93.594 220.602 93.5353C220.394 93.4767 220.21 93.3993 220.05 93.3033C219.89 93.202 219.752 93.0873 219.634 92.9593C219.517 92.8313 219.416 92.6953 219.33 92.5513L220.202 91.8633C220.325 92.082 220.472 92.2687 220.642 92.4233C220.813 92.5727 221.042 92.6473 221.33 92.6473C221.618 92.6473 221.834 92.5647 221.978 92.3993C222.128 92.234 222.202 92.0153 222.202 91.7433V91.6793C222.202 91.4233 222.128 91.2207 221.978 91.0713C221.829 90.922 221.624 90.8473 221.362 90.8473C221.144 90.8473 220.962 90.8927 220.818 90.9833C220.68 91.0687 220.573 91.154 220.498 91.2393L219.514 91.1033L219.722 87.9433H223.138V88.9913ZM226.159 93.6233C225.429 93.6233 224.887 93.37 224.535 92.8633C224.183 92.3567 224.007 91.6473 224.007 90.7353C224.007 89.8233 224.183 89.114 224.535 88.6073C224.887 88.1007 225.429 87.8473 226.159 87.8473C226.89 87.8473 227.431 88.1007 227.783 88.6073C228.135 89.114 228.311 89.8233 228.311 90.7353C228.311 91.6473 228.135 92.3567 227.783 92.8633C227.431 93.37 226.89 93.6233 226.159 93.6233ZM226.159 92.6073C226.479 92.6073 226.701 92.49 226.823 92.2553C226.946 92.0207 227.007 91.69 227.007 91.2633V90.2073C227.007 89.7807 226.946 89.45 226.823 89.2153C226.701 88.9807 226.479 88.8633 226.159 88.8633C225.839 88.8633 225.618 88.9807 225.495 89.2153C225.373 89.45 225.311 89.7807 225.311 90.2073V91.2633C225.311 91.69 225.373 92.0207 225.495 92.2553C225.618 92.49 225.839 92.6073 226.159 92.6073ZM229.988 93.5273L233.86 87.9433H234.916L231.044 93.5273H229.988ZM230.396 91.0153C229.927 91.0153 229.569 90.882 229.324 90.6153C229.079 90.3487 228.956 89.954 228.956 89.4313C228.956 88.9087 229.079 88.514 229.324 88.2473C229.569 87.9807 229.927 87.8473 230.396 87.8473C230.865 87.8473 231.223 87.9807 231.468 88.2473C231.713 88.514 231.836 88.9087 231.836 89.4313C231.836 89.954 231.713 90.3487 231.468 90.6153C231.223 90.882 230.865 91.0153 230.396 91.0153ZM230.396 90.3273C230.535 90.3273 230.639 90.274 230.708 90.1673C230.777 90.0553 230.812 89.8793 230.812 89.6393V89.2233C230.812 88.9833 230.777 88.81 230.708 88.7033C230.639 88.5913 230.535 88.5353 230.396 88.5353C230.257 88.5353 230.153 88.5913 230.084 88.7033C230.015 88.81 229.98 88.9833 229.98 89.2233V89.6393C229.98 89.8793 230.015 90.0553 230.084 90.1673C230.153 90.274 230.257 90.3273 230.396 90.3273ZM234.508 93.6233C234.039 93.6233 233.681 93.49 233.436 93.2233C233.191 92.9567 233.068 92.562 233.068 92.0393C233.068 91.5167 233.191 91.122 233.436 90.8553C233.681 90.5887 234.039 90.4553 234.508 90.4553C234.977 90.4553 235.335 90.5887 235.58 90.8553C235.825 91.122 235.948 91.5167 235.948 92.0393C235.948 92.562 235.825 92.9567 235.58 93.2233C235.335 93.49 234.977 93.6233 234.508 93.6233ZM234.508 92.9353C234.647 92.9353 234.751 92.882 234.82 92.7753C234.889 92.6633 234.924 92.4873 234.924 92.2473V91.8313C234.924 91.5913 234.889 91.418 234.82 91.3113C234.751 91.1993 234.647 91.1433 234.508 91.1433C234.369 91.1433 234.265 91.1993 234.196 91.3113C234.127 91.418 234.092 91.5913 234.092 91.8313V92.2473C234.092 92.4873 234.127 92.6633 234.196 92.7753C234.265 92.882 234.369 92.9353 234.508 92.9353ZM240.492 93.6233C240.183 93.6233 239.905 93.5727 239.66 93.4713C239.42 93.37 239.215 93.2233 239.044 93.0313C238.879 92.8393 238.751 92.6073 238.66 92.3353C238.569 92.0633 238.524 91.7593 238.524 91.4233C238.524 91.0873 238.569 90.7833 238.66 90.5113C238.751 90.2393 238.879 90.01 239.044 89.8233C239.215 89.6313 239.42 89.4847 239.66 89.3833C239.905 89.282 240.183 89.2313 240.492 89.2313C240.801 89.2313 241.076 89.282 241.316 89.3833C241.561 89.4847 241.767 89.6313 241.932 89.8233C242.103 90.01 242.233 90.2393 242.324 90.5113C242.415 90.7833 242.46 91.0873 242.46 91.4233C242.46 91.7593 242.415 92.0633 242.324 92.3353C242.233 92.6073 242.103 92.8393 241.932 93.0313C241.767 93.2233 241.561 93.37 241.316 93.4713C241.076 93.5727 240.801 93.6233 240.492 93.6233ZM240.492 92.6873C240.727 92.6873 240.908 92.6153 241.036 92.4713C241.164 92.3273 241.228 92.122 241.228 91.8553V90.9993C241.228 90.7327 241.164 90.5273 241.036 90.3833C240.908 90.2393 240.727 90.1673 240.492 90.1673C240.257 90.1673 240.076 90.2393 239.948 90.3833C239.82 90.5273 239.756 90.7327 239.756 90.9993V91.8553C239.756 92.122 239.82 92.3273 239.948 92.4713C240.076 92.6153 240.257 92.6873 240.492 92.6873ZM243.465 90.2473H242.873V89.3273H243.465V88.8313C243.465 88.426 243.571 88.122 243.785 87.9193C243.998 87.7113 244.31 87.6073 244.721 87.6073H245.489V88.5273H244.649V89.3273H245.489V90.2473H244.649V93.5273H243.465V90.2473ZM246.386 90.2473H245.794V89.3273H246.386V88.8313C246.386 88.426 246.493 88.122 246.706 87.9193C246.92 87.7113 247.232 87.6073 247.642 87.6073H248.41V88.5273H247.57V89.3273H248.41V90.2473H247.57V93.5273H246.386V90.2473Z" fill="white"/>
<g opacity="0.8">
<path d="M184.839 102.031C185.079 102.031 185.255 101.983 185.367 101.887C185.483 101.787 185.541 101.661 185.541 101.509V101.467C185.541 101.295 185.485 101.161 185.373 101.065C185.265 100.965 185.115 100.915 184.923 100.915C184.739 100.915 184.575 100.959 184.431 101.047C184.291 101.135 184.169 101.259 184.065 101.419L183.561 100.963C183.633 100.867 183.711 100.777 183.795 100.693C183.883 100.605 183.983 100.531 184.095 100.471C184.207 100.407 184.333 100.357 184.473 100.321C184.613 100.285 184.771 100.267 184.947 100.267C185.159 100.267 185.351 100.293 185.523 100.345C185.699 100.393 185.849 100.465 185.973 100.561C186.101 100.657 186.199 100.773 186.267 100.909C186.335 101.041 186.369 101.191 186.369 101.359C186.369 101.495 186.347 101.617 186.303 101.725C186.263 101.833 186.205 101.927 186.129 102.007C186.057 102.087 185.971 102.153 185.871 102.205C185.775 102.253 185.673 102.289 185.565 102.313V102.349C185.685 102.373 185.799 102.411 185.907 102.463C186.015 102.515 186.107 102.585 186.183 102.673C186.263 102.757 186.325 102.857 186.369 102.973C186.417 103.089 186.441 103.221 186.441 103.369C186.441 103.553 186.403 103.721 186.327 103.873C186.255 104.025 186.151 104.155 186.015 104.263C185.879 104.371 185.717 104.455 185.529 104.515C185.341 104.571 185.131 104.599 184.899 104.599C184.695 104.599 184.515 104.577 184.359 104.533C184.203 104.493 184.065 104.437 183.945 104.365C183.829 104.293 183.727 104.211 183.639 104.119C183.551 104.023 183.475 103.923 183.411 103.819L183.993 103.375C184.041 103.459 184.093 103.537 184.149 103.609C184.205 103.677 184.269 103.737 184.341 103.789C184.413 103.841 184.495 103.881 184.587 103.909C184.679 103.937 184.783 103.951 184.899 103.951C185.131 103.951 185.309 103.895 185.433 103.783C185.557 103.671 185.619 103.517 185.619 103.321V103.279C185.619 103.087 185.551 102.941 185.415 102.841C185.283 102.741 185.091 102.691 184.839 102.691H184.425V102.031H184.839ZM188.665 104.599C188.397 104.599 188.165 104.551 187.969 104.455C187.773 104.355 187.611 104.213 187.483 104.029C187.355 103.845 187.259 103.619 187.195 103.351C187.135 103.083 187.105 102.777 187.105 102.433C187.105 102.093 187.135 101.789 187.195 101.521C187.259 101.249 187.355 101.021 187.483 100.837C187.611 100.653 187.773 100.513 187.969 100.417C188.165 100.317 188.397 100.267 188.665 100.267C189.197 100.267 189.589 100.457 189.841 100.837C190.097 101.217 190.225 101.749 190.225 102.433C190.225 103.117 190.097 103.649 189.841 104.029C189.589 104.409 189.197 104.599 188.665 104.599ZM188.665 103.933C188.933 103.933 189.119 103.833 189.223 103.633C189.331 103.429 189.385 103.155 189.385 102.811V102.055C189.385 101.711 189.331 101.439 189.223 101.239C189.119 101.035 188.933 100.933 188.665 100.933C188.397 100.933 188.209 101.035 188.101 101.239C187.997 101.439 187.945 101.711 187.945 102.055V102.811C187.945 103.155 187.997 103.429 188.101 103.633C188.209 103.833 188.397 103.933 188.665 103.933Z" fill="white"/>
<path d="M182.923 106.519H183.625C183.755 106.519 183.873 106.541 183.979 106.585C184.085 106.629 184.175 106.695 184.249 106.783C184.325 106.869 184.383 106.978 184.423 107.11C184.463 107.24 184.483 107.392 184.483 107.566C184.483 107.74 184.463 107.893 184.423 108.025C184.383 108.155 184.325 108.264 184.249 108.352C184.175 108.438 184.085 108.503 183.979 108.547C183.873 108.591 183.755 108.613 183.625 108.613H182.923V106.519ZM183.625 108.391C183.711 108.391 183.79 108.377 183.862 108.349C183.934 108.319 183.996 108.276 184.048 108.22C184.1 108.164 184.14 108.096 184.168 108.016C184.198 107.934 184.213 107.841 184.213 107.737V107.395C184.213 107.291 184.198 107.199 184.168 107.119C184.14 107.037 184.1 106.968 184.048 106.912C183.996 106.856 183.934 106.814 183.862 106.786C183.79 106.756 183.711 106.741 183.625 106.741H183.175V108.391H183.625ZM186.629 108.613L186.419 107.995H185.573L185.363 108.613H185.108L185.84 106.519H186.161L186.893 108.613H186.629ZM186.002 106.753H185.987L185.633 107.773H186.356L186.002 106.753ZM187.973 108.613V107.785L187.253 106.519H187.541L188.099 107.527H188.108L188.666 106.519H188.954L188.225 107.776V108.613H187.973ZM190.209 108.649C190.039 108.649 189.894 108.617 189.774 108.553C189.654 108.487 189.552 108.397 189.468 108.283L189.654 108.127C189.728 108.225 189.81 108.3 189.9 108.352C189.99 108.402 190.096 108.427 190.218 108.427C190.368 108.427 190.482 108.391 190.56 108.319C190.64 108.247 190.68 108.151 190.68 108.031C190.68 107.931 190.65 107.854 190.59 107.8C190.53 107.746 190.431 107.703 190.293 107.671L190.122 107.632C189.93 107.588 189.783 107.522 189.681 107.434C189.581 107.344 189.531 107.218 189.531 107.056C189.531 106.964 189.548 106.882 189.582 106.81C189.616 106.738 189.663 106.678 189.723 106.63C189.785 106.582 189.858 106.546 189.942 106.522C190.028 106.496 190.122 106.483 190.224 106.483C190.382 106.483 190.517 106.512 190.629 106.57C190.743 106.628 190.839 106.713 190.917 106.825L190.728 106.963C190.67 106.883 190.6 106.82 190.518 106.774C190.436 106.728 190.334 106.705 190.212 106.705C190.078 106.705 189.972 106.734 189.894 106.792C189.818 106.848 189.78 106.933 189.78 107.047C189.78 107.147 189.812 107.223 189.876 107.275C189.942 107.325 190.041 107.365 190.173 107.395L190.344 107.434C190.55 107.48 190.699 107.55 190.791 107.644C190.883 107.738 190.929 107.863 190.929 108.019C190.929 108.115 190.912 108.202 190.878 108.28C190.846 108.358 190.799 108.424 190.737 108.478C190.675 108.532 190.599 108.574 190.509 108.604C190.421 108.634 190.321 108.649 190.209 108.649Z" fill="white"/>
<rect x="197.365" y="102.57" width="1" height="1" rx="0.5" fill="white"/>
<rect x="197.365" y="105.57" width="1" height="1" rx="0.5" fill="white"/>
<path d="M207.313 104.527V103.885H208.465V100.909H208.411L207.499 101.989L207.007 101.575L208.045 100.339H209.239V103.885H210.199V104.527H207.313ZM212.165 104.599C211.897 104.599 211.665 104.551 211.469 104.455C211.273 104.355 211.111 104.213 210.983 104.029C210.855 103.845 210.759 103.619 210.695 103.351C210.635 103.083 210.605 102.777 210.605 102.433C210.605 102.093 210.635 101.789 210.695 101.521C210.759 101.249 210.855 101.021 210.983 100.837C211.111 100.653 211.273 100.513 211.469 100.417C211.665 100.317 211.897 100.267 212.165 100.267C212.697 100.267 213.089 100.457 213.341 100.837C213.597 101.217 213.725 101.749 213.725 102.433C213.725 103.117 213.597 103.649 213.341 104.029C213.089 104.409 212.697 104.599 212.165 104.599ZM212.165 103.933C212.433 103.933 212.619 103.833 212.723 103.633C212.831 103.429 212.885 103.155 212.885 102.811V102.055C212.885 101.711 212.831 101.439 212.723 101.239C212.619 101.035 212.433 100.933 212.165 100.933C211.897 100.933 211.709 101.035 211.601 101.239C211.497 101.439 211.445 101.711 211.445 102.055V102.811C211.445 103.155 211.497 103.429 211.601 103.633C211.709 103.833 211.897 103.933 212.165 103.933Z" fill="white"/>
<path d="M206.15 107.665H205.091V108.613H204.839V106.519H205.091V107.443H206.15V106.519H206.402V108.613H206.15V107.665ZM208.16 108.649C208.024 108.649 207.901 108.626 207.791 108.58C207.683 108.532 207.59 108.463 207.512 108.373C207.436 108.281 207.377 108.168 207.335 108.034C207.293 107.898 207.272 107.742 207.272 107.566C207.272 107.39 207.293 107.235 207.335 107.101C207.377 106.967 207.436 106.854 207.512 106.762C207.59 106.67 207.683 106.601 207.791 106.555C207.901 106.507 208.024 106.483 208.16 106.483C208.294 106.483 208.416 106.507 208.526 106.555C208.636 106.601 208.729 106.67 208.805 106.762C208.883 106.854 208.943 106.967 208.985 107.101C209.027 107.235 209.048 107.39 209.048 107.566C209.048 107.742 209.027 107.898 208.985 108.034C208.943 108.168 208.883 108.281 208.805 108.373C208.729 108.463 208.636 108.532 208.526 108.58C208.416 108.626 208.294 108.649 208.16 108.649ZM208.16 108.424C208.25 108.424 208.333 108.408 208.409 108.376C208.485 108.344 208.55 108.298 208.604 108.238C208.66 108.178 208.703 108.106 208.733 108.022C208.763 107.938 208.778 107.844 208.778 107.74V107.392C208.778 107.288 208.763 107.194 208.733 107.11C208.703 107.026 208.66 106.954 208.604 106.894C208.55 106.834 208.485 106.788 208.409 106.756C208.333 106.724 208.25 106.708 208.16 106.708C208.07 106.708 207.987 106.724 207.911 106.756C207.835 106.788 207.769 106.834 207.713 106.894C207.659 106.954 207.617 107.026 207.587 107.11C207.557 107.194 207.542 107.288 207.542 107.392V107.74C207.542 107.844 207.557 107.938 207.587 108.022C207.617 108.106 207.659 108.178 207.713 108.238C207.769 108.298 207.835 108.344 207.911 108.376C207.987 108.408 208.07 108.424 208.16 108.424ZM210.156 106.519V107.815C210.156 108.015 210.193 108.167 210.267 108.271C210.341 108.373 210.471 108.424 210.657 108.424C210.843 108.424 210.973 108.373 211.047 108.271C211.121 108.167 211.158 108.015 211.158 107.815V106.519H211.41V107.755C211.41 107.907 211.396 108.039 211.368 108.151C211.342 108.263 211.299 108.356 211.239 108.43C211.179 108.504 211.1 108.559 211.002 108.595C210.906 108.631 210.788 108.649 210.648 108.649C210.508 108.649 210.39 108.631 210.294 108.595C210.2 108.559 210.124 108.504 210.066 108.43C210.008 108.356 209.966 108.263 209.94 108.151C209.916 108.039 209.904 107.907 209.904 107.755V106.519H210.156ZM212.621 108.613H212.369V106.519H213.203C213.387 106.519 213.53 106.57 213.632 106.672C213.736 106.774 213.788 106.921 213.788 107.113C213.788 107.267 213.752 107.394 213.68 107.494C213.61 107.592 213.506 107.657 213.368 107.689L213.848 108.613H213.563L213.11 107.713H212.621V108.613ZM213.203 107.497C213.303 107.497 213.38 107.471 213.434 107.419C213.49 107.367 213.518 107.293 213.518 107.197V107.041C213.518 106.945 213.49 106.871 213.434 106.819C213.38 106.767 213.303 106.741 213.203 106.741H212.621V107.497H213.203ZM215.293 108.649C215.123 108.649 214.978 108.617 214.858 108.553C214.738 108.487 214.636 108.397 214.552 108.283L214.738 108.127C214.812 108.225 214.894 108.3 214.984 108.352C215.074 108.402 215.18 108.427 215.302 108.427C215.452 108.427 215.566 108.391 215.644 108.319C215.724 108.247 215.764 108.151 215.764 108.031C215.764 107.931 215.734 107.854 215.674 107.8C215.614 107.746 215.515 107.703 215.377 107.671L215.206 107.632C215.014 107.588 214.867 107.522 214.765 107.434C214.665 107.344 214.615 107.218 214.615 107.056C214.615 106.964 214.632 106.882 214.666 106.81C214.7 106.738 214.747 106.678 214.807 106.63C214.869 106.582 214.942 106.546 215.026 106.522C215.112 106.496 215.206 106.483 215.308 106.483C215.466 106.483 215.601 106.512 215.713 106.57C215.827 106.628 215.923 106.713 216.001 106.825L215.812 106.963C215.754 106.883 215.684 106.82 215.602 106.774C215.52 106.728 215.418 106.705 215.296 106.705C215.162 106.705 215.056 106.734 214.978 106.792C214.902 106.848 214.864 106.933 214.864 107.047C214.864 107.147 214.896 107.223 214.96 107.275C215.026 107.325 215.125 107.365 215.257 107.395L215.428 107.434C215.634 107.48 215.783 107.55 215.875 107.644C215.967 107.738 216.013 107.863 216.013 108.019C216.013 108.115 215.996 108.202 215.962 108.28C215.93 108.358 215.883 108.424 215.821 108.478C215.759 108.532 215.683 108.574 215.593 108.604C215.505 108.634 215.405 108.649 215.293 108.649Z" fill="white"/>
<rect x="222.365" y="102.57" width="1" height="1" rx="0.5" fill="white"/>
<rect x="222.365" y="105.57" width="1" height="1" rx="0.5" fill="white"/>
<path d="M231.567 104.599C231.299 104.599 231.067 104.551 230.871 104.455C230.675 104.355 230.513 104.213 230.385 104.029C230.257 103.845 230.161 103.619 230.097 103.351C230.037 103.083 230.007 102.777 230.007 102.433C230.007 102.093 230.037 101.789 230.097 101.521C230.161 101.249 230.257 101.021 230.385 100.837C230.513 100.653 230.675 100.513 230.871 100.417C231.067 100.317 231.299 100.267 231.567 100.267C232.099 100.267 232.491 100.457 232.743 100.837C232.999 101.217 233.127 101.749 233.127 102.433C233.127 103.117 232.999 103.649 232.743 104.029C232.491 104.409 232.099 104.599 231.567 104.599ZM231.567 103.933C231.835 103.933 232.021 103.833 232.125 103.633C232.233 103.429 232.287 103.155 232.287 102.811V102.055C232.287 101.711 232.233 101.439 232.125 101.239C232.021 101.035 231.835 100.933 231.567 100.933C231.299 100.933 231.111 101.035 231.003 101.239C230.899 101.439 230.847 101.711 230.847 102.055V102.811C230.847 103.155 230.899 103.429 231.003 103.633C231.111 103.833 231.299 103.933 231.567 103.933ZM236.641 104.527H233.737V103.795L235.051 102.643C235.275 102.447 235.439 102.271 235.543 102.115C235.647 101.955 235.699 101.783 235.699 101.599V101.521C235.699 101.337 235.639 101.197 235.519 101.101C235.399 101.001 235.253 100.951 235.081 100.951C234.865 100.951 234.701 101.013 234.589 101.137C234.477 101.257 234.397 101.403 234.349 101.575L233.665 101.311C233.709 101.171 233.771 101.039 233.851 100.915C233.931 100.787 234.031 100.675 234.151 100.579C234.275 100.483 234.419 100.407 234.583 100.351C234.747 100.295 234.935 100.267 235.147 100.267C235.367 100.267 235.563 100.299 235.735 100.363C235.907 100.423 236.051 100.509 236.167 100.621C236.287 100.733 236.377 100.865 236.437 101.017C236.501 101.169 236.533 101.335 236.533 101.515C236.533 101.691 236.505 101.851 236.449 101.995C236.393 102.139 236.317 102.277 236.221 102.409C236.125 102.537 236.013 102.661 235.885 102.781C235.757 102.897 235.621 103.015 235.477 103.135L234.595 103.861H236.641V104.527Z" fill="white"/>
<path d="M231.98 106.849H231.965L231.788 107.2L231.287 108.112L230.786 107.2L230.609 106.849H230.594V108.613H230.348V106.519H230.684L231.284 107.647H231.299L231.902 106.519H232.226V108.613H231.98V106.849ZM233.101 108.613V108.403H233.395V106.729H233.101V106.519H233.941V106.729H233.647V108.403H233.941V108.613H233.101ZM235.325 107.335L235.073 106.87H235.064V108.613H234.818V106.519H235.109L235.874 107.797L236.126 108.262H236.135V106.519H236.381V108.613H236.09L235.325 107.335Z" fill="white"/>
<rect x="243.365" y="102.57" width="1" height="1" rx="0.5" fill="white"/>
<rect x="243.365" y="105.57" width="1" height="1" rx="0.5" fill="white"/>
<path d="M254.043 104.527H251.139V103.795L252.453 102.643C252.677 102.447 252.841 102.271 252.945 102.115C253.049 101.955 253.101 101.783 253.101 101.599V101.521C253.101 101.337 253.041 101.197 252.921 101.101C252.801 101.001 252.655 100.951 252.483 100.951C252.267 100.951 252.103 101.013 251.991 101.137C251.879 101.257 251.799 101.403 251.751 101.575L251.067 101.311C251.111 101.171 251.173 101.039 251.253 100.915C251.333 100.787 251.433 100.675 251.553 100.579C251.677 100.483 251.821 100.407 251.985 100.351C252.149 100.295 252.337 100.267 252.549 100.267C252.769 100.267 252.965 100.299 253.137 100.363C253.309 100.423 253.453 100.509 253.569 100.621C253.689 100.733 253.779 100.865 253.839 101.017C253.903 101.169 253.935 101.335 253.935 101.515C253.935 101.691 253.907 101.851 253.851 101.995C253.795 102.139 253.719 102.277 253.623 102.409C253.527 102.537 253.415 102.661 253.287 102.781C253.159 102.897 253.023 103.015 252.879 103.135L251.997 103.861H254.043V104.527ZM255.937 102.031C256.177 102.031 256.353 101.983 256.465 101.887C256.581 101.787 256.639 101.661 256.639 101.509V101.467C256.639 101.295 256.583 101.161 256.471 101.065C256.363 100.965 256.213 100.915 256.021 100.915C255.837 100.915 255.673 100.959 255.529 101.047C255.389 101.135 255.267 101.259 255.163 101.419L254.659 100.963C254.731 100.867 254.809 100.777 254.893 100.693C254.981 100.605 255.081 100.531 255.193 100.471C255.305 100.407 255.431 100.357 255.571 100.321C255.711 100.285 255.869 100.267 256.045 100.267C256.257 100.267 256.449 100.293 256.621 100.345C256.797 100.393 256.947 100.465 257.071 100.561C257.199 100.657 257.297 100.773 257.365 100.909C257.433 101.041 257.467 101.191 257.467 101.359C257.467 101.495 257.445 101.617 257.401 101.725C257.361 101.833 257.303 101.927 257.227 102.007C257.155 102.087 257.069 102.153 256.969 102.205C256.873 102.253 256.771 102.289 256.663 102.313V102.349C256.783 102.373 256.897 102.411 257.005 102.463C257.113 102.515 257.205 102.585 257.281 102.673C257.361 102.757 257.423 102.857 257.467 102.973C257.515 103.089 257.539 103.221 257.539 103.369C257.539 103.553 257.501 103.721 257.425 103.873C257.353 104.025 257.249 104.155 257.113 104.263C256.977 104.371 256.815 104.455 256.627 104.515C256.439 104.571 256.229 104.599 255.997 104.599C255.793 104.599 255.613 104.577 255.457 104.533C255.301 104.493 255.163 104.437 255.043 104.365C254.927 104.293 254.825 104.211 254.737 104.119C254.649 104.023 254.573 103.923 254.509 103.819L255.091 103.375C255.139 103.459 255.191 103.537 255.247 103.609C255.303 103.677 255.367 103.737 255.439 103.789C255.511 103.841 255.593 103.881 255.685 103.909C255.777 103.937 255.881 103.951 255.997 103.951C256.229 103.951 256.407 103.895 256.531 103.783C256.655 103.671 256.717 103.517 256.717 103.321V103.279C256.717 103.087 256.649 102.941 256.513 102.841C256.381 102.741 256.189 102.691 255.937 102.691H255.523V102.031H255.937Z" fill="white"/>
<path d="M252.137 108.649C251.967 108.649 251.822 108.617 251.702 108.553C251.582 108.487 251.48 108.397 251.396 108.283L251.582 108.127C251.656 108.225 251.738 108.3 251.828 108.352C251.918 108.402 252.024 108.427 252.146 108.427C252.296 108.427 252.41 108.391 252.488 108.319C252.568 108.247 252.608 108.151 252.608 108.031C252.608 107.931 252.578 107.854 252.518 107.8C252.458 107.746 252.359 107.703 252.221 107.671L252.05 107.632C251.858 107.588 251.711 107.522 251.609 107.434C251.509 107.344 251.459 107.218 251.459 107.056C251.459 106.964 251.476 106.882 251.51 106.81C251.544 106.738 251.591 106.678 251.651 106.63C251.713 106.582 251.786 106.546 251.87 106.522C251.956 106.496 252.05 106.483 252.152 106.483C252.31 106.483 252.445 106.512 252.557 106.57C252.671 106.628 252.767 106.713 252.845 106.825L252.656 106.963C252.598 106.883 252.528 106.82 252.446 106.774C252.364 106.728 252.262 106.705 252.14 106.705C252.006 106.705 251.9 106.734 251.822 106.792C251.746 106.848 251.708 106.933 251.708 107.047C251.708 107.147 251.74 107.223 251.804 107.275C251.87 107.325 251.969 107.365 252.101 107.395L252.272 107.434C252.478 107.48 252.627 107.55 252.719 107.644C252.811 107.738 252.857 107.863 252.857 108.019C252.857 108.115 252.84 108.202 252.806 108.28C252.774 108.358 252.727 108.424 252.665 108.478C252.603 108.532 252.527 108.574 252.437 108.604C252.349 108.634 252.249 108.649 252.137 108.649ZM253.709 108.613V106.519H254.987V106.741H253.961V107.443H254.927V107.665H253.961V108.391H254.987V108.613H253.709ZM256.614 108.649C256.348 108.649 256.141 108.559 255.993 108.379C255.845 108.197 255.771 107.93 255.771 107.578C255.771 107.226 255.845 106.956 255.993 106.768C256.141 106.578 256.348 106.483 256.614 106.483C256.79 106.483 256.937 106.523 257.055 106.603C257.175 106.683 257.268 106.796 257.334 106.942L257.13 107.065C257.088 106.957 257.024 106.871 256.938 106.807C256.852 106.741 256.744 106.708 256.614 106.708C256.524 106.708 256.443 106.725 256.371 106.759C256.301 106.793 256.241 106.842 256.191 106.906C256.143 106.968 256.106 107.043 256.08 107.131C256.054 107.217 256.041 107.314 256.041 107.422V107.734C256.041 107.95 256.091 108.119 256.191 108.241C256.291 108.363 256.432 108.424 256.614 108.424C256.748 108.424 256.86 108.39 256.95 108.322C257.04 108.252 257.106 108.16 257.148 108.046L257.349 108.172C257.283 108.32 257.188 108.437 257.064 108.523C256.94 108.607 256.79 108.649 256.614 108.649Z" fill="white"/>
</g>
<path d="M118.788 92.0176H63.9665C62.2859 92.0176 60.9236 93.3848 60.9236 95.0713C60.9236 96.7578 62.2859 98.125 63.9665 98.125H118.788C120.469 98.125 121.831 96.7578 121.831 95.0713C121.831 93.3848 120.469 92.0176 118.788 92.0176Z" fill="white"/>
<path opacity="0.4" d="M105.295 103.219H63.9665C62.2859 103.219 60.9236 104.586 60.9236 106.272C60.9236 107.959 62.2859 109.326 63.9665 109.326H105.295C106.975 109.326 108.338 107.959 108.338 106.272C108.338 104.586 106.975 103.219 105.295 103.219Z" fill="white"/>
<path opacity="0.4" d="M128.241 33.9434H64.6648C62.5986 33.9434 60.9236 35.6243 60.9236 37.6979V81.1258C60.9236 83.1994 62.5986 84.8803 64.6648 84.8803H128.241C130.307 84.8803 131.982 83.1994 131.982 81.1258V37.6979C131.982 35.6243 130.307 33.9434 128.241 33.9434Z" fill="white"/>
<path d="M61.9711 71.8542L75.3399 58.4379C76.7241 57.0487 78.9813 57.0487 80.3656 58.4379L85.7156 63.8069C87.0999 65.1961 89.3571 65.1961 90.7413 63.8069L104.983 49.5145C106.367 48.1254 108.625 48.1254 110.009 49.5145L130.997 70.5777C131.658 71.241 132.045 72.1546 132.045 73.1058V81.3157C132.045 83.2806 130.448 84.8826 128.491 84.8826H64.4778C62.5199 84.8826 60.9236 83.2806 60.9236 81.3157V74.3823C60.9236 73.4311 61.2977 72.5301 61.9711 71.8542Z" fill="white"/>
<path d="M88.2222 53.3935C91.2664 53.3935 93.7343 50.9169 93.7343 47.8618C93.7343 44.8067 91.2664 42.3301 88.2222 42.3301C85.1779 42.3301 82.7101 44.8067 82.7101 47.8618C82.7101 50.9169 85.1779 53.3935 88.2222 53.3935Z" fill="white"/>
<path opacity="0.4" d="M90.7413 120.789H68.0195C64.1005 120.789 60.9236 123.977 60.9236 127.91V127.935C60.9236 131.868 64.1005 135.056 68.0195 135.056H90.7413C94.6603 135.056 97.8372 131.868 97.8372 127.935V127.91C97.8372 123.977 94.6603 120.789 90.7413 120.789Z" fill="white"/>
<path d="M84.8303 125.881H73.9433C72.8206 125.881 71.9105 126.794 71.9105 127.921C71.9105 129.047 72.8206 129.961 73.9433 129.961H84.8303C85.953 129.961 86.8631 129.047 86.8631 127.921C86.8631 126.794 85.953 125.881 84.8303 125.881Z" fill="white"/>
<path opacity="0.2" d="M61.2378 28.5H131.762C134.93 28.5 137.5 31.0763 137.5 34.2576V134.742C137.5 137.924 134.93 140.5 131.762 140.5H61.2378C58.0704 140.5 55.5 137.924 55.5 134.742V34.2576C55.5 31.0763 58.0704 28.5 61.2378 28.5Z" stroke="white" stroke-miterlimit="10"/>
<defs>
<linearGradient id="paint0_linear_2248_141" x1="-58.5" y1="-28.5" x2="607.5" y2="299.5" gradientUnits="userSpaceOnUse">
<stop stop-color="#7AE4DD"/>
<stop offset="1" stop-color="#1B1367"/>
</linearGradient>
</defs>
</svg>
