<svg width="520" height="193" viewBox="0 0 520 193" fill="none" xmlns="http://www.w3.org/2000/svg">
<rect width="520" height="160" rx="6" fill="#EBF6FF"/>
<path d="M198.179 49.6C198.419 50.08 198.539 50.9733 198.539 52.28C198.539 54.4667 197.846 55.56 196.459 55.56C194.806 55.56 191.486 55.0667 186.499 54.08L185.419 61C186.192 60.8667 187.086 60.8 188.099 60.8C191.246 60.8 193.712 61.5733 195.499 63.12C197.286 64.6667 198.179 66.7333 198.179 69.32C198.179 71.88 197.192 74.1867 195.219 76.24C193.272 78.2933 190.659 79.32 187.379 79.32C184.979 79.32 182.952 78.7867 181.299 77.72C179.646 76.6267 178.819 75.1333 178.819 73.24C178.819 71.7467 179.299 70.4933 180.259 69.48C181.219 68.4667 182.472 67.96 184.019 67.96C184.472 67.96 184.939 68 185.419 68.08C184.379 69.28 183.859 70.5333 183.859 71.84C183.859 73.12 184.232 74.1733 184.979 75C185.726 75.8 186.712 76.2 187.939 76.2C189.192 76.2 190.339 75.6667 191.379 74.6C192.419 73.5067 192.939 72.0667 192.939 70.28C192.939 68.4667 192.286 66.8933 190.979 65.56C189.699 64.2267 187.806 63.56 185.299 63.56C183.912 63.56 182.472 63.7333 180.979 64.08L182.859 52.96C182.166 52.3467 181.766 51.3333 181.659 49.92C183.312 50.16 185.126 50.28 187.099 50.28C190.512 50.28 193.739 50.1067 196.779 49.76L198.179 49.6ZM214.104 53.32C212.157 53.32 210.464 54.6533 209.024 57.32C207.584 59.9867 206.864 62.8 206.864 65.76C206.864 68.6933 207.277 71.0667 208.104 72.88C208.93 74.6667 210.144 75.56 211.744 75.56C213.717 75.56 215.277 74.28 216.424 71.72C217.597 69.16 218.184 66.2133 218.184 62.88C218.184 59.5467 217.797 57.12 217.024 55.6C216.25 54.08 215.277 53.32 214.104 53.32ZM212.424 51.28C213.944 50.6133 215.317 50.28 216.544 50.28C218.784 50.28 220.504 51.2667 221.704 53.24C222.93 55.2133 223.544 57.7467 223.544 60.84C223.544 65.3467 222.544 69.3867 220.544 72.96C219.557 74.7467 218.21 76.1867 216.504 77.28C214.824 78.3733 212.824 78.92 210.504 78.92C208.21 78.92 206.157 77.8133 204.344 75.6C202.53 73.3867 201.624 70.2133 201.624 66.08C201.624 61.92 202.504 58.3467 204.264 55.36C206.05 52.3467 208.397 50.4267 211.304 49.6C211.997 49.6 212.37 50.16 212.424 51.28ZM233.348 52.68C232.388 52.68 231.548 53.4133 230.828 54.88C230.135 56.32 229.788 57.8267 229.788 59.4C229.788 60.9467 229.975 62.2 230.348 63.16C230.722 64.12 231.255 64.6 231.948 64.6C232.908 64.6 233.668 63.92 234.228 62.56C234.788 61.1733 235.068 59.56 235.068 57.72C235.068 54.36 234.495 52.68 233.348 52.68ZM231.588 49.64C232.255 49.64 232.668 49.8933 232.828 50.4C233.548 50.16 234.175 50.04 234.708 50.04C236.228 50.04 237.388 50.6533 238.188 51.88C238.988 53.08 239.388 54.6133 239.388 56.48C239.388 58.32 239.122 60.04 238.588 61.64C238.055 63.2133 237.162 64.5733 235.908 65.72C234.682 66.8667 233.228 67.44 231.548 67.44C229.868 67.44 228.442 66.76 227.268 65.4C226.122 64.04 225.548 62.1067 225.548 59.6C225.548 57.0933 226.095 54.9333 227.188 53.12C228.308 51.3067 229.775 50.1467 231.588 49.64ZM253.188 64.16C252.228 64.16 251.388 64.8933 250.668 66.36C249.975 67.8 249.628 69.3067 249.628 70.88C249.628 72.4267 249.815 73.68 250.188 74.64C250.562 75.6 251.095 76.08 251.788 76.08C252.748 76.08 253.508 75.4 254.068 74.04C254.628 72.6533 254.908 71.04 254.908 69.2C254.908 65.84 254.335 64.16 253.188 64.16ZM251.428 61.12C252.095 61.12 252.508 61.3733 252.668 61.88C253.388 61.64 254.015 61.52 254.548 61.52C256.068 61.52 257.228 62.1333 258.028 63.36C258.828 64.56 259.228 66.0933 259.228 67.96C259.228 69.8 258.962 71.52 258.428 73.12C257.895 74.6933 257.002 76.0533 255.748 77.2C254.522 78.3467 253.068 78.92 251.388 78.92C249.708 78.92 248.282 78.24 247.108 76.88C245.962 75.52 245.388 73.5867 245.388 71.08C245.388 68.5733 245.935 66.4133 247.028 64.6C248.148 62.7867 249.615 61.6267 251.428 61.12ZM245.708 47.28C245.922 47.36 246.242 47.56 246.668 47.88C247.122 48.1733 247.482 48.4533 247.748 48.72C248.495 49.4667 248.868 50.36 248.868 51.4C248.868 52.44 248.202 54.76 246.868 58.36C245.535 61.96 244.095 66 242.548 70.48C241.028 74.96 240.082 78.56 239.708 81.28C239.415 81.28 238.948 81.1733 238.308 80.96C237.668 80.7467 237.148 80.52 236.748 80.28C236.348 80.04 235.975 79.6667 235.628 79.16C235.308 78.6533 235.148 78.08 235.148 77.44C235.148 76.24 235.922 73.7467 237.468 69.96C239.015 66.1467 240.668 62 242.428 57.52C244.215 53.04 245.308 49.6267 245.708 47.28ZM296.028 60C296.028 56.2667 295.508 53.56 294.468 51.88C293.455 50.2 292.055 49.36 290.268 49.36C288.508 49.36 286.828 50.1467 285.228 51.72C283.655 53.2667 282.415 55.2267 281.508 57.6C280.628 59.9733 280.188 62.3733 280.188 64.8C280.188 68.1333 280.735 70.8667 281.828 73C282.948 75.1333 284.628 76.2 286.868 76.2C288.735 76.2 290.375 75.3867 291.788 73.76C293.228 72.1067 294.295 70.0667 294.988 67.64C295.682 65.2133 296.028 62.6667 296.028 60ZM296.748 74.64C295.548 75.9467 294.042 77 292.228 77.8C290.442 78.6 288.482 79 286.348 79C284.215 79 282.335 78.52 280.708 77.56C279.108 76.6 277.828 75.32 276.868 73.72C274.948 70.52 273.988 66.7867 273.988 62.52C273.988 58.2533 275.042 54.4533 277.148 51.12C279.282 47.7867 282.122 45.68 285.668 44.8C285.882 44.8533 286.082 44.96 286.268 45.12C286.482 45.28 286.602 45.4533 286.628 45.64C283.188 48.1467 281.108 51.56 280.388 55.88C281.508 52.7333 283.188 50.28 285.428 48.52C287.695 46.7333 290.122 45.84 292.708 45.84C295.295 45.84 297.495 46.96 299.308 49.2C301.148 51.4133 302.068 54.6267 302.068 58.84C302.068 62.9733 301.295 66.6933 299.748 70C298.948 71.76 297.948 73.3067 296.748 74.64ZM319.419 64.64L315.579 64.6C314.485 64.6 313.645 64.6133 313.059 64.64C312.632 68.3733 312.419 71.4 312.419 73.72C312.419 76.04 312.499 77.6667 312.659 78.6C311.805 78.6533 311.245 78.68 310.979 78.68C309.459 78.68 308.365 78.4133 307.699 77.88C307.032 77.3467 306.699 76.4133 306.699 75.08C306.699 73.72 307.072 70.48 307.819 65.36C306.965 65.6267 306.339 65.8533 305.939 66.04C305.885 65.4533 305.859 65.0133 305.859 64.72C305.859 62.88 306.699 61.7333 308.379 61.28C308.885 57.6267 309.192 54.4667 309.299 51.8C307.939 51.8 307.072 51.6133 306.699 51.24C306.352 50.8667 306.179 50.04 306.179 48.76C306.285 47.56 306.392 46.7733 306.499 46.4C309.512 46.8 312.819 47 316.419 47C320.019 47 323.499 46.68 326.859 46.04C326.485 48.84 324.779 50.52 321.739 51.08C320.085 51.4 317.725 51.6133 314.659 51.72C314.632 52.0667 314.245 55.1733 313.499 61.04C315.045 61.0933 316.099 61.12 316.659 61.12C319.192 61.12 320.992 60.68 322.059 59.8C322.112 60.3333 322.139 60.7333 322.139 61C322.139 63.4267 321.232 64.64 319.419 64.64ZM339.2 64.64L335.36 64.6C334.267 64.6 333.427 64.6133 332.84 64.64C332.413 68.3733 332.2 71.4 332.2 73.72C332.2 76.04 332.28 77.6667 332.44 78.6C331.587 78.6533 331.027 78.68 330.76 78.68C329.24 78.68 328.147 78.4133 327.48 77.88C326.813 77.3467 326.48 76.4133 326.48 75.08C326.48 73.72 326.853 70.48 327.6 65.36C326.747 65.6267 326.12 65.8533 325.72 66.04C325.667 65.4533 325.64 65.0133 325.64 64.72C325.64 62.88 326.48 61.7333 328.16 61.28C328.667 57.6267 328.973 54.4667 329.08 51.8C327.72 51.8 326.853 51.6133 326.48 51.24C326.133 50.8667 325.96 50.04 325.96 48.76C326.067 47.56 326.173 46.7733 326.28 46.4C329.293 46.8 332.6 47 336.2 47C339.8 47 343.28 46.68 346.64 46.04C346.267 48.84 344.56 50.52 341.52 51.08C339.867 51.4 337.507 51.6133 334.44 51.72C334.413 52.0667 334.027 55.1733 333.28 61.04C334.827 61.0933 335.88 61.12 336.44 61.12C338.973 61.12 340.773 60.68 341.84 59.8C341.893 60.3333 341.92 60.7333 341.92 61C341.92 63.4267 341.013 64.64 339.2 64.64Z" fill="url(#paint0_linear_1533_19207)"/>
<rect x="38" y="125" width="443" height="68" rx="6" fill="url(#paint1_linear_1533_19207)"/>
<path d="M81.2752 158.239C80.1048 158.239 79.0593 158.037 78.1388 157.634C77.2241 157.23 76.4996 156.67 75.9656 155.955C75.4371 155.233 75.1531 154.398 75.1133 153.449H77.7894C77.8235 153.966 77.9968 154.415 78.3093 154.795C78.6275 155.17 79.0423 155.46 79.5536 155.665C80.065 155.869 80.6332 155.972 81.2582 155.972C81.9457 155.972 82.5536 155.852 83.082 155.614C83.6161 155.375 84.0337 155.043 84.3349 154.616C84.636 154.185 84.7866 153.688 84.7866 153.125C84.7866 152.54 84.636 152.026 84.3349 151.582C84.0394 151.134 83.6048 150.781 83.0309 150.526C82.4627 150.27 81.7752 150.142 80.9684 150.142H79.494V147.994H80.9684C81.6161 147.994 82.1843 147.878 82.6729 147.645C83.1673 147.412 83.5536 147.088 83.832 146.673C84.1104 146.253 84.2496 145.761 84.2496 145.199C84.2496 144.659 84.1275 144.19 83.8832 143.793C83.6445 143.389 83.3036 143.074 82.8604 142.847C82.4229 142.619 81.9059 142.506 81.3093 142.506C80.7411 142.506 80.2099 142.611 79.7156 142.821C79.2269 143.026 78.8292 143.321 78.5224 143.707C78.2156 144.088 78.0508 144.545 78.0281 145.08H75.4798C75.5082 144.136 75.7866 143.307 76.315 142.591C76.8491 141.875 77.5536 141.315 78.4286 140.912C79.3036 140.509 80.2752 140.307 81.3434 140.307C82.4627 140.307 83.4286 140.526 84.2411 140.963C85.0593 141.395 85.69 141.972 86.1332 142.693C86.582 143.415 86.8036 144.205 86.7979 145.062C86.8036 146.04 86.5309 146.869 85.9798 147.551C85.4343 148.233 84.707 148.69 83.7979 148.923V149.06C84.957 149.236 85.8548 149.696 86.4911 150.44C87.1332 151.185 87.4513 152.108 87.4457 153.21C87.4513 154.17 87.1843 155.031 86.6445 155.793C86.1104 156.554 85.3803 157.153 84.4542 157.591C83.5281 158.023 82.4684 158.239 81.2752 158.239ZM96.744 158.29C95.3974 158.284 94.2468 157.929 93.2923 157.224C92.3377 156.52 91.6076 155.494 91.1019 154.148C90.5962 152.801 90.3434 151.179 90.3434 149.281C90.3434 147.389 90.5962 145.773 91.1019 144.432C91.6133 143.091 92.3462 142.068 93.3008 141.364C94.261 140.659 95.4087 140.307 96.744 140.307C98.0792 140.307 99.2241 140.662 100.179 141.372C101.133 142.077 101.863 143.099 102.369 144.44C102.88 145.776 103.136 147.389 103.136 149.281C103.136 151.185 102.883 152.81 102.377 154.156C101.872 155.497 101.142 156.523 100.187 157.233C99.2326 157.938 98.0849 158.29 96.744 158.29ZM96.744 156.014C97.9258 156.014 98.8491 155.438 99.5138 154.284C100.184 153.131 100.52 151.463 100.52 149.281C100.52 147.832 100.366 146.608 100.059 145.608C99.7582 144.602 99.3235 143.841 98.7553 143.324C98.1928 142.801 97.5224 142.54 96.744 142.54C95.5678 142.54 94.6445 143.119 93.9741 144.278C93.3036 145.437 92.9656 147.105 92.9599 149.281C92.9599 150.736 93.1104 151.966 93.4116 152.972C93.7184 153.972 94.1531 154.73 94.7156 155.247C95.2781 155.759 95.9542 156.014 96.744 156.014Z" fill="white"/>
<path d="M74.2168 177H71.5236V168.273H74.3361C75.1827 168.273 75.9071 168.447 76.5094 168.797C77.1117 169.143 77.5733 169.642 77.8944 170.293C78.2154 170.94 78.3759 171.716 78.3759 172.619C78.3759 173.528 78.214 174.311 77.8901 174.967C77.5662 175.621 77.0946 176.124 76.4753 176.476C75.856 176.825 75.1032 177 74.2168 177ZM72.5804 176.062H74.1486C74.8702 176.062 75.4682 175.923 75.9426 175.645C76.4171 175.366 76.7708 174.97 77.0037 174.456C77.2367 173.942 77.3532 173.33 77.3532 172.619C77.3532 171.915 77.2381 171.308 77.008 170.8C76.7779 170.288 76.4341 169.896 75.9767 169.624C75.5194 169.348 74.9498 169.21 74.2679 169.21H72.5804V176.062ZM82.0964 177H80.9885L84.193 168.273H85.2839L88.4885 177H87.3805L84.7725 169.653H84.7044L82.0964 177ZM82.5055 173.591H86.9714V174.528H82.5055V173.591ZM90.2072 168.273H91.4174L93.8379 172.347H93.9402L96.3606 168.273H97.5708L94.4174 173.403V177H93.3606V173.403L90.2072 168.273ZM105.71 170.455C105.659 170.023 105.452 169.688 105.088 169.449C104.725 169.21 104.279 169.091 103.75 169.091C103.364 169.091 103.026 169.153 102.736 169.278C102.449 169.403 102.225 169.575 102.063 169.794C101.904 170.013 101.824 170.261 101.824 170.54C101.824 170.773 101.879 170.973 101.99 171.141C102.104 171.305 102.249 171.443 102.425 171.554C102.601 171.662 102.786 171.751 102.979 171.822C103.172 171.891 103.35 171.946 103.512 171.989L104.398 172.227C104.625 172.287 104.878 172.369 105.156 172.474C105.438 172.58 105.706 172.723 105.962 172.905C106.22 173.084 106.433 173.314 106.601 173.595C106.769 173.876 106.852 174.222 106.852 174.631C106.852 175.102 106.729 175.528 106.482 175.909C106.237 176.29 105.879 176.592 105.408 176.817C104.939 177.041 104.369 177.153 103.699 177.153C103.074 177.153 102.533 177.053 102.075 176.851C101.621 176.649 101.263 176.368 101.002 176.007C100.743 175.646 100.597 175.227 100.563 174.75H101.654C101.682 175.08 101.793 175.352 101.986 175.568C102.182 175.781 102.429 175.94 102.727 176.045C103.029 176.148 103.352 176.199 103.699 176.199C104.102 176.199 104.465 176.134 104.786 176.003C105.107 175.869 105.361 175.685 105.548 175.449C105.736 175.21 105.83 174.932 105.83 174.614C105.83 174.324 105.749 174.088 105.587 173.906C105.425 173.724 105.212 173.577 104.948 173.463C104.683 173.349 104.398 173.25 104.091 173.165L103.017 172.858C102.335 172.662 101.796 172.382 101.398 172.018C101 171.655 100.801 171.179 100.801 170.591C100.801 170.102 100.933 169.676 101.198 169.312C101.465 168.946 101.823 168.662 102.271 168.46C102.723 168.256 103.227 168.153 103.784 168.153C104.347 168.153 104.847 168.254 105.284 168.456C105.722 168.655 106.068 168.928 106.324 169.274C106.583 169.621 106.719 170.014 106.733 170.455H105.71Z" fill="white"/>
<path d="M204.383 140.545V158H201.741V143.188H201.639L197.463 145.915V143.392L201.818 140.545H204.383ZM215.181 158.29C213.835 158.284 212.684 157.929 211.73 157.224C210.775 156.52 210.045 155.494 209.539 154.148C209.034 152.801 208.781 151.179 208.781 149.281C208.781 147.389 209.034 145.773 209.539 144.432C210.051 143.091 210.784 142.068 211.738 141.364C212.699 140.659 213.846 140.307 215.181 140.307C216.517 140.307 217.662 140.662 218.616 141.372C219.571 142.077 220.301 143.099 220.806 144.44C221.318 145.776 221.574 147.389 221.574 149.281C221.574 151.185 221.321 152.81 220.815 154.156C220.309 155.497 219.579 156.523 218.625 157.233C217.67 157.938 216.522 158.29 215.181 158.29ZM215.181 156.014C216.363 156.014 217.287 155.438 217.951 154.284C218.622 153.131 218.957 151.463 218.957 149.281C218.957 147.832 218.804 146.608 218.497 145.608C218.196 144.602 217.761 143.841 217.193 143.324C216.63 142.801 215.96 142.54 215.181 142.54C214.005 142.54 213.082 143.119 212.412 144.278C211.741 145.437 211.403 147.105 211.397 149.281C211.397 150.736 211.548 151.966 211.849 152.972C212.156 153.972 212.591 154.73 213.153 155.247C213.716 155.759 214.392 156.014 215.181 156.014Z" fill="white"/>
<path d="M185.434 177V168.273H186.491V172.159H191.144V168.273H192.201V177H191.144V173.097H186.491V177H185.434ZM203.68 172.636C203.68 173.557 203.514 174.352 203.182 175.023C202.849 175.693 202.393 176.21 201.814 176.574C201.234 176.938 200.572 177.119 199.828 177.119C199.084 177.119 198.422 176.938 197.842 176.574C197.263 176.21 196.807 175.693 196.474 175.023C196.142 174.352 195.976 173.557 195.976 172.636C195.976 171.716 196.142 170.92 196.474 170.25C196.807 169.58 197.263 169.062 197.842 168.699C198.422 168.335 199.084 168.153 199.828 168.153C200.572 168.153 201.234 168.335 201.814 168.699C202.393 169.062 202.849 169.58 203.182 170.25C203.514 170.92 203.68 171.716 203.68 172.636ZM202.657 172.636C202.657 171.881 202.531 171.243 202.278 170.723C202.028 170.203 201.689 169.81 201.26 169.543C200.834 169.276 200.356 169.142 199.828 169.142C199.3 169.142 198.821 169.276 198.392 169.543C197.966 169.81 197.626 170.203 197.373 170.723C197.123 171.243 196.998 171.881 196.998 172.636C196.998 173.392 197.123 174.03 197.373 174.55C197.626 175.07 197.966 175.463 198.392 175.73C198.821 175.997 199.3 176.131 199.828 176.131C200.356 176.131 200.834 175.997 201.26 175.73C201.689 175.463 202.028 175.07 202.278 174.55C202.531 174.03 202.657 173.392 202.657 172.636ZM213.184 168.273H214.241V174.051C214.241 174.648 214.101 175.18 213.819 175.649C213.541 176.115 213.148 176.483 212.639 176.753C212.131 177.02 211.534 177.153 210.849 177.153C210.165 177.153 209.568 177.02 209.059 176.753C208.551 176.483 208.156 176.115 207.875 175.649C207.596 175.18 207.457 174.648 207.457 174.051V168.273H208.514V173.966C208.514 174.392 208.608 174.771 208.795 175.104C208.983 175.433 209.25 175.693 209.596 175.884C209.946 176.071 210.363 176.165 210.849 176.165C211.335 176.165 211.753 176.071 212.102 175.884C212.452 175.693 212.719 175.433 212.903 175.104C213.091 174.771 213.184 174.392 213.184 173.966V168.273ZM218.352 177V168.273H221.301C221.982 168.273 222.542 168.389 222.98 168.622C223.417 168.852 223.741 169.169 223.951 169.572C224.161 169.976 224.267 170.435 224.267 170.949C224.267 171.463 224.161 171.919 223.951 172.317C223.741 172.714 223.419 173.027 222.984 173.254C222.549 173.479 221.994 173.591 221.318 173.591H218.931V172.636H221.284C221.749 172.636 222.124 172.568 222.409 172.432C222.695 172.295 222.903 172.102 223.031 171.852C223.161 171.599 223.227 171.298 223.227 170.949C223.227 170.599 223.161 170.294 223.031 170.033C222.9 169.771 222.691 169.57 222.404 169.428C222.117 169.283 221.738 169.21 221.267 169.21H219.409V177H218.352ZM222.46 173.08L224.607 177H223.38L221.267 173.08H222.46ZM232.8 170.455C232.749 170.023 232.542 169.688 232.178 169.449C231.814 169.21 231.368 169.091 230.84 169.091C230.454 169.091 230.116 169.153 229.826 169.278C229.539 169.403 229.314 169.575 229.153 169.794C228.993 170.013 228.914 170.261 228.914 170.54C228.914 170.773 228.969 170.973 229.08 171.141C229.194 171.305 229.339 171.443 229.515 171.554C229.691 171.662 229.876 171.751 230.069 171.822C230.262 171.891 230.439 171.946 230.601 171.989L231.488 172.227C231.715 172.287 231.968 172.369 232.246 172.474C232.528 172.58 232.796 172.723 233.052 172.905C233.31 173.084 233.523 173.314 233.691 173.595C233.858 173.876 233.942 174.222 233.942 174.631C233.942 175.102 233.819 175.528 233.572 175.909C233.327 176.29 232.969 176.592 232.498 176.817C232.029 177.041 231.459 177.153 230.789 177.153C230.164 177.153 229.623 177.053 229.165 176.851C228.711 176.649 228.353 176.368 228.091 176.007C227.833 175.646 227.687 175.227 227.653 174.75H228.743C228.772 175.08 228.883 175.352 229.076 175.568C229.272 175.781 229.519 175.94 229.817 176.045C230.118 176.148 230.442 176.199 230.789 176.199C231.192 176.199 231.555 176.134 231.876 176.003C232.197 175.869 232.451 175.685 232.638 175.449C232.826 175.21 232.92 174.932 232.92 174.614C232.92 174.324 232.839 174.088 232.677 173.906C232.515 173.724 232.302 173.577 232.037 173.463C231.773 173.349 231.488 173.25 231.181 173.165L230.107 172.858C229.425 172.662 228.885 172.382 228.488 172.018C228.09 171.655 227.891 171.179 227.891 170.591C227.891 170.102 228.023 169.676 228.287 169.312C228.555 168.946 228.912 168.662 229.361 168.46C229.813 168.256 230.317 168.153 230.874 168.153C231.437 168.153 231.937 168.254 232.374 168.456C232.812 168.655 233.158 168.928 233.414 169.274C233.672 169.621 233.809 170.014 233.823 170.455H232.8Z" fill="white"/>
<path d="M319.15 158.29C317.804 158.284 316.653 157.929 315.699 157.224C314.744 156.52 314.014 155.494 313.508 154.148C313.002 152.801 312.75 151.179 312.75 149.281C312.75 147.389 313.002 145.773 313.508 144.432C314.02 143.091 314.752 142.068 315.707 141.364C316.667 140.659 317.815 140.307 319.15 140.307C320.485 140.307 321.63 140.662 322.585 141.372C323.539 142.077 324.27 143.099 324.775 144.44C325.287 145.776 325.542 147.389 325.542 149.281C325.542 151.185 325.289 152.81 324.784 154.156C324.278 155.497 323.548 156.523 322.593 157.233C321.639 157.938 320.491 158.29 319.15 158.29ZM319.15 156.014C320.332 156.014 321.255 155.438 321.92 154.284C322.591 153.131 322.926 151.463 322.926 149.281C322.926 147.832 322.772 146.608 322.466 145.608C322.164 144.602 321.73 143.841 321.162 143.324C320.599 142.801 319.929 142.54 319.15 142.54C317.974 142.54 317.051 143.119 316.38 144.278C315.71 145.437 315.372 147.105 315.366 149.281C315.366 150.736 315.517 151.966 315.818 152.972C316.125 153.972 316.559 154.73 317.122 155.247C317.684 155.759 318.36 156.014 319.15 156.014ZM328.566 158V156.091L334.472 149.972C335.103 149.307 335.623 148.724 336.032 148.224C336.446 147.719 336.756 147.239 336.961 146.784C337.165 146.33 337.267 145.847 337.267 145.335C337.267 144.756 337.131 144.256 336.858 143.835C336.586 143.409 336.213 143.082 335.742 142.855C335.27 142.622 334.739 142.506 334.148 142.506C333.523 142.506 332.978 142.634 332.512 142.889C332.046 143.145 331.688 143.506 331.438 143.972C331.188 144.437 331.063 144.983 331.063 145.608H328.549C328.549 144.545 328.793 143.616 329.282 142.821C329.77 142.026 330.441 141.409 331.293 140.972C332.145 140.528 333.114 140.307 334.199 140.307C335.296 140.307 336.262 140.526 337.097 140.963C337.938 141.395 338.594 141.986 339.066 142.736C339.537 143.48 339.773 144.321 339.773 145.259C339.773 145.906 339.651 146.54 339.407 147.159C339.168 147.778 338.75 148.469 338.154 149.23C337.557 149.986 336.728 150.903 335.665 151.983L332.196 155.614V155.741H340.054V158H328.566Z" fill="white"/>
<path d="M314.113 168.273H315.375L318.341 175.517H318.443L321.409 168.273H322.67V177H321.682V170.369H321.596L318.869 177H317.915L315.187 170.369H315.102V177H314.113V168.273ZM327.846 168.273V177H326.789V168.273H327.846ZM338.885 168.273V177H337.863L333.107 170.148H333.022V177H331.965V168.273H332.988L337.76 175.142H337.846V168.273H338.885Z" fill="white"/>
<path d="M420.085 158V156.091L425.991 149.972C426.622 149.307 427.142 148.724 427.551 148.224C427.966 147.719 428.276 147.239 428.48 146.784C428.685 146.33 428.787 145.847 428.787 145.335C428.787 144.756 428.651 144.256 428.378 143.835C428.105 143.409 427.733 143.082 427.261 142.855C426.79 142.622 426.259 142.506 425.668 142.506C425.043 142.506 424.497 142.634 424.031 142.889C423.565 143.145 423.207 143.506 422.957 143.972C422.707 144.437 422.582 144.983 422.582 145.608H420.068C420.068 144.545 420.313 143.616 420.801 142.821C421.29 142.026 421.96 141.409 422.812 140.972C423.665 140.528 424.634 140.307 425.719 140.307C426.815 140.307 427.781 140.526 428.616 140.963C429.457 141.395 430.114 141.986 430.585 142.736C431.057 143.48 431.293 144.321 431.293 145.259C431.293 145.906 431.17 146.54 430.926 147.159C430.688 147.778 430.27 148.469 429.673 149.23C429.077 149.986 428.247 150.903 427.185 151.983L423.716 155.614V155.741H431.574V158H420.085ZM440.881 158.239C439.71 158.239 438.665 158.037 437.744 157.634C436.83 157.23 436.105 156.67 435.571 155.955C435.043 155.233 434.759 154.398 434.719 153.449H437.395C437.429 153.966 437.602 154.415 437.915 154.795C438.233 155.17 438.648 155.46 439.159 155.665C439.67 155.869 440.239 155.972 440.864 155.972C441.551 155.972 442.159 155.852 442.688 155.614C443.222 155.375 443.639 155.043 443.94 154.616C444.241 154.185 444.392 153.688 444.392 153.125C444.392 152.54 444.241 152.026 443.94 151.582C443.645 151.134 443.21 150.781 442.636 150.526C442.068 150.27 441.381 150.142 440.574 150.142H439.099V147.994H440.574C441.222 147.994 441.79 147.878 442.278 147.645C442.773 147.412 443.159 147.088 443.438 146.673C443.716 146.253 443.855 145.761 443.855 145.199C443.855 144.659 443.733 144.19 443.489 143.793C443.25 143.389 442.909 143.074 442.466 142.847C442.028 142.619 441.511 142.506 440.915 142.506C440.347 142.506 439.815 142.611 439.321 142.821C438.832 143.026 438.435 143.321 438.128 143.707C437.821 144.088 437.656 144.545 437.634 145.08H435.085C435.114 144.136 435.392 143.307 435.92 142.591C436.455 141.875 437.159 141.315 438.034 140.912C438.909 140.509 439.881 140.307 440.949 140.307C442.068 140.307 443.034 140.526 443.847 140.963C444.665 141.395 445.295 141.972 445.739 142.693C446.188 143.415 446.409 144.205 446.403 145.062C446.409 146.04 446.136 146.869 445.585 147.551C445.04 148.233 444.313 148.69 443.403 148.923V149.06C444.563 149.236 445.46 149.696 446.097 150.44C446.739 151.185 447.057 152.108 447.051 153.21C447.057 154.17 446.79 155.031 446.25 155.793C445.716 156.554 444.986 157.153 444.06 157.591C443.134 158.023 442.074 158.239 440.881 158.239Z" fill="white"/>
<path d="M425.552 170.455C425.501 170.023 425.294 169.688 424.93 169.449C424.566 169.21 424.12 169.091 423.592 169.091C423.206 169.091 422.868 169.153 422.578 169.278C422.291 169.403 422.066 169.575 421.904 169.794C421.745 170.013 421.666 170.261 421.666 170.54C421.666 170.773 421.721 170.973 421.832 171.141C421.946 171.305 422.091 171.443 422.267 171.554C422.443 171.662 422.627 171.751 422.821 171.822C423.014 171.891 423.191 171.946 423.353 171.989L424.24 172.227C424.467 172.287 424.72 172.369 424.998 172.474C425.279 172.58 425.548 172.723 425.804 172.905C426.062 173.084 426.275 173.314 426.443 173.595C426.61 173.876 426.694 174.222 426.694 174.631C426.694 175.102 426.571 175.528 426.324 175.909C426.079 176.29 425.721 176.592 425.25 176.817C424.781 177.041 424.211 177.153 423.541 177.153C422.916 177.153 422.375 177.053 421.917 176.851C421.463 176.649 421.105 176.368 420.843 176.007C420.585 175.646 420.439 175.227 420.404 174.75H421.495C421.524 175.08 421.635 175.352 421.828 175.568C422.024 175.781 422.271 175.94 422.569 176.045C422.87 176.148 423.194 176.199 423.541 176.199C423.944 176.199 424.306 176.134 424.627 176.003C424.949 175.869 425.203 175.685 425.39 175.449C425.578 175.21 425.672 174.932 425.672 174.614C425.672 174.324 425.591 174.088 425.429 173.906C425.267 173.724 425.054 173.577 424.789 173.463C424.525 173.349 424.24 173.25 423.933 173.165L422.859 172.858C422.177 172.662 421.637 172.382 421.24 172.018C420.842 171.655 420.643 171.179 420.643 170.591C420.643 170.102 420.775 169.676 421.039 169.312C421.306 168.946 421.664 168.662 422.113 168.46C422.565 168.256 423.069 168.153 423.626 168.153C424.189 168.153 424.689 168.254 425.126 168.456C425.564 168.655 425.91 168.928 426.166 169.274C426.424 169.621 426.561 170.014 426.575 170.455H425.552ZM430.432 177V168.273H435.699V169.21H431.489V172.159H435.426V173.097H431.489V176.062H435.767V177H430.432ZM446.626 171H445.57C445.507 170.696 445.398 170.429 445.241 170.199C445.088 169.969 444.901 169.776 444.679 169.619C444.46 169.46 444.217 169.341 443.95 169.261C443.683 169.182 443.405 169.142 443.115 169.142C442.587 169.142 442.108 169.276 441.679 169.543C441.253 169.81 440.913 170.203 440.661 170.723C440.411 171.243 440.286 171.881 440.286 172.636C440.286 173.392 440.411 174.03 440.661 174.55C440.913 175.07 441.253 175.463 441.679 175.73C442.108 175.997 442.587 176.131 443.115 176.131C443.405 176.131 443.683 176.091 443.95 176.011C444.217 175.932 444.46 175.814 444.679 175.658C444.901 175.499 445.088 175.304 445.241 175.074C445.398 174.841 445.507 174.574 445.57 174.273H446.626C446.547 174.719 446.402 175.118 446.192 175.47C445.982 175.822 445.72 176.122 445.408 176.369C445.095 176.614 444.744 176.8 444.355 176.928C443.969 177.055 443.555 177.119 443.115 177.119C442.371 177.119 441.709 176.938 441.129 176.574C440.55 176.21 440.094 175.693 439.761 175.023C439.429 174.352 439.263 173.557 439.263 172.636C439.263 171.716 439.429 170.92 439.761 170.25C440.094 169.58 440.55 169.062 441.129 168.699C441.709 168.335 442.371 168.153 443.115 168.153C443.555 168.153 443.969 168.217 444.355 168.345C444.744 168.473 445.095 168.661 445.408 168.908C445.72 169.152 445.982 169.45 446.192 169.803C446.402 170.152 446.547 170.551 446.626 171Z" fill="white"/>
<rect x="140.5" y="155" width="2" height="2" rx="1" fill="white"/>
<rect x="140.5" y="161" width="2" height="2" rx="1" fill="white"/>
<rect x="258.5" y="155" width="2" height="2" rx="1" fill="white"/>
<rect x="258.5" y="161" width="2" height="2" rx="1" fill="white"/>
<rect x="376.5" y="155" width="2" height="2" rx="1" fill="white"/>
<rect x="376.5" y="161" width="2" height="2" rx="1" fill="white"/>
<defs>
<linearGradient id="paint0_linear_1533_19207" x1="176" y1="62.9999" x2="344" y2="62.9999" gradientUnits="userSpaceOnUse">
<stop stop-color="#32DBBE"/>
<stop offset="1" stop-color="#008DFF"/>
</linearGradient>
<linearGradient id="paint1_linear_1533_19207" x1="38" y1="159" x2="481" y2="159" gradientUnits="userSpaceOnUse">
<stop stop-color="#32DBBE"/>
<stop offset="1" stop-color="#008DFF"/>
</linearGradient>
</defs>
</svg>
